<svg xmlns="http://www.w3.org/2000/svg">
	<symbol id="icon-instagram">
		<path d="M18.7454 11.5935C16.8458 11.5935 16.6112 11.5935 15.8625 11.6377C15.1139 11.6708 14.611 11.7923 14.1641 11.9579C13.7059 12.1345 13.3149 12.3664 12.9238 12.7529C12.5327 13.1393 12.298 13.5258 12.1192 13.9785C11.9516 14.4201 11.8287 14.917 11.7952 15.6568C11.7617 16.3966 11.7505 16.6284 11.7505 18.5055C11.7505 20.3825 11.7505 20.6144 11.7952 21.3542C11.8287 22.0829 11.9516 22.5908 12.1192 23.0325C12.298 23.4852 12.5327 23.8716 12.9238 24.2581C13.3149 24.6445 13.7059 24.8764 14.1641 25.0531C14.611 25.2187 15.1139 25.3401 15.8625 25.3733C16.6112 25.4064 16.8458 25.4174 18.7454 25.4174C20.645 25.4174 20.8797 25.4174 21.6283 25.3733C22.377 25.3401 22.8798 25.2187 23.3268 25.0531C23.7849 24.8764 24.176 24.6445 24.5671 24.2581C24.9582 23.8716 25.1928 23.4852 25.3716 23.0325C25.5392 22.5908 25.6621 22.094 25.6957 21.3542C25.7292 20.6144 25.7403 20.3825 25.7403 18.5055C25.7403 16.6284 25.7403 16.3966 25.6957 15.6568C25.6621 14.917 25.5392 14.4201 25.3716 13.9785C25.1928 13.5258 24.9582 13.1393 24.5671 12.7529C24.176 12.3664 23.7849 12.1345 23.3268 11.9579C22.8798 11.7923 22.377 11.6708 21.6283 11.6377C20.8797 11.6045 20.645 11.5935 18.7454 11.5935ZM18.7454 12.8412C20.6115 12.8412 20.835 12.8412 21.5724 12.8854C22.2541 12.9185 22.6228 13.0289 22.8686 13.1283C23.1927 13.2497 23.4273 13.4043 23.6731 13.6472C23.919 13.8901 24.0642 14.122 24.1983 14.4422C24.2989 14.6851 24.4106 15.0495 24.433 15.723C24.4665 16.4518 24.4777 16.6726 24.4777 18.5165C24.4777 20.3604 24.4777 20.5813 24.433 21.31C24.3995 21.9835 24.2877 22.3479 24.1983 22.5908C24.0754 22.911 23.919 23.1429 23.6731 23.3858C23.4273 23.6287 23.1927 23.7723 22.8686 23.9048C22.6228 24.0041 22.2541 24.1145 21.5724 24.1366C20.835 24.1698 20.6115 24.1808 18.7454 24.1808C16.8794 24.1808 16.6559 24.1808 15.9184 24.1366C15.2368 24.1035 14.868 23.9931 14.6222 23.9048C14.2982 23.7833 14.0635 23.6287 13.8177 23.3858C13.5719 23.1429 13.4266 22.911 13.2925 22.5908C13.1919 22.3479 13.0802 21.9835 13.0467 21.31C13.0132 20.5813 13.002 20.3604 13.002 18.5165C13.002 16.6726 13.002 16.4518 13.0467 15.723C13.0802 15.0495 13.1919 14.6851 13.2925 14.4422C13.4154 14.122 13.5719 13.8901 13.8177 13.6472C14.0635 13.4043 14.2982 13.2608 14.6222 13.1283C14.868 13.0289 15.2368 12.9185 15.9184 12.8854C16.6559 12.8522 16.8794 12.8412 18.7454 12.8412Z" fill="#5C5B5B"/>
		<path d="M18.7456 20.8022C17.4605 20.8022 16.4214 19.7753 16.4214 18.5056C16.4214 17.2358 17.4605 16.2089 18.7456 16.2089C20.0306 16.2089 21.0697 17.2358 21.0697 18.5056C21.0697 19.7753 20.0306 20.8022 18.7456 20.8022ZM18.7456 14.9502C16.7678 14.9502 15.1587 16.5402 15.1587 18.4945C15.1587 20.4489 16.7678 22.0388 18.7456 22.0388C20.7234 22.0388 22.3324 20.4489 22.3324 18.4945C22.3324 16.5402 20.7234 14.9502 18.7456 14.9502Z" fill="#5C5B5B"/>
		<path d="M23.3157 14.8176C23.3157 15.2703 22.9358 15.6457 22.4777 15.6457C22.0196 15.6457 21.6396 15.2703 21.6396 14.8176C21.6396 14.3649 22.0196 13.9895 22.4777 13.9895C22.9358 13.9895 23.3157 14.3649 23.3157 14.8176Z" fill="#5C5B5B"/>
		<path d="M1.14648 18.4946C1.14648 28.1007 9.02415 35.8849 18.7455 35.8849C28.4669 35.8849 36.3446 28.1007 36.3446 18.4946C36.3446 8.88849 28.4669 1.10425 18.7455 1.10425C9.02415 1.10425 1.14648 8.88849 1.14648 18.4946Z" stroke="#5C5B5B" stroke-width="2" stroke-miterlimit="10"/>
	</symbol>
</svg>

<svg viewBox="0 0 38 37" fill="none" width="40" heigth="40">
	<use xlink:href="#icon-instagram"/>
</svg>

