<svg xmlns="http://www.w3.org/2000/svg" xmlns:xlink="http://www.w3.org/1999/xlink" style="display:none">

  <symbol id="icono-boletin-convocatoria" viewBox="0 0 50 50" fill="none">
      <path d="M45.77 0H4.16C1.86 0 0 1.86 0 4.16V45.77C0 48.07 1.86 49.93 4.16 49.93H45.77C48.07 49.93 49.93 48.07 49.93 45.77V4.16C49.93 1.86 48.07 0 45.77 0ZM4.16 1.66H45.77C47.15 1.66 48.27 2.78 48.27 4.16V6.66H1.66V4.16C1.66 2.78 2.78 1.66 4.16 1.66ZM45.77 48.27H4.16C2.78 48.27 1.66 47.15 1.66 45.77V8.32H48.27V45.77C48.27 47.15 47.15 48.27 45.77 48.27Z" fill="#5B5A5A"/>
      <path d="M24.13 33.29C25.51 33.29 26.63 32.17 26.63 30.79V14.15C26.63 12.77 25.51 11.65 24.13 11.65H5.83C4.45 11.65 3.33 12.77 3.33 14.15V30.79C3.33 32.17 4.45 33.29 5.83 33.29H24.14H24.13ZM4.99 30.79V14.15C4.99 13.69 5.36 13.32 5.82 13.32H24.13C24.59 13.32 24.96 13.69 24.96 14.15V30.79C24.96 31.25 24.59 31.62 24.13 31.62H5.83C5.37 31.62 5 31.25 5 30.79H4.99Z" fill="#5B5A5A"/>
      <path d="M9.23 25.48C8.95 26.86 9.47 28.29 10.58 29.16C11.69 30.03 13.2 30.2 14.48 29.6C15.76 29 16.59 27.73 16.63 26.32L18.43 26.55C18.8 27.73 19.97 28.46 21.19 28.27C22.41 28.08 23.3 27.03 23.3 25.8V17.48C23.3 16.25 22.41 15.2 21.19 15.01C19.97 14.82 18.8 15.55 18.44 16.73L12.43 17.48H10.82C8.84 17.48 7.13 18.89 6.75 20.83C6.36 22.78 7.41 24.72 9.24 25.48H9.23ZM14.98 26.22C14.98 27.02 14.54 27.75 13.82 28.11C13.1 28.47 12.25 28.38 11.62 27.89C10.99 27.4 10.7 26.59 10.87 25.81H12.44L14.97 26.13C14.97 26.13 14.98 26.19 14.98 26.23V26.22ZM13.32 24.23V19.04L18.31 18.42V24.86L13.32 24.24V24.23ZM19.97 17.48C19.97 17.02 20.34 16.65 20.8 16.65C21.26 16.65 21.63 17.02 21.63 17.48V25.8C21.63 26.26 21.26 26.63 20.8 26.63C20.34 26.63 19.97 26.26 19.97 25.8V17.48ZM10.82 19.14H11.65V24.13H10.82C9.44 24.13 8.32 23.01 8.32 21.63C8.32 20.25 9.44 19.13 10.82 19.13V19.14Z" fill="#C1D13F"/>
      <path d="M4.16 4.99002H4.99C5.45 4.99002 5.82 4.62002 5.82 4.16002C5.82 3.70002 5.45 3.33002 4.99 3.33002H4.16C3.7 3.33002 3.33 3.70002 3.33 4.16002C3.33 4.62002 3.7 4.99002 4.16 4.99002Z" fill="#C1D13F"/>
      <path d="M8.32 4.99002H9.15C9.61 4.99002 9.98 4.62002 9.98 4.16002C9.98 3.70002 9.61 3.33002 9.15 3.33002H8.32C7.86 3.33002 7.49 3.70002 7.49 4.16002C7.49 4.62002 7.86 4.99002 8.32 4.99002Z" fill="#C1D13F"/>
      <path d="M12.48 4.99002H13.31C13.77 4.99002 14.14 4.62002 14.14 4.16002C14.14 3.70002 13.77 3.33002 13.31 3.33002H12.48C12.02 3.33002 11.65 3.70002 11.65 4.16002C11.65 4.62002 12.02 4.99002 12.48 4.99002Z" fill="#C1D13F"/>
      <path d="M20.81 4.99002H29.13C29.59 4.99002 29.96 4.62002 29.96 4.16002C29.96 3.70002 29.59 3.33002 29.13 3.33002H20.81C20.35 3.33002 19.98 3.70002 19.98 4.16002C19.98 4.62002 20.35 4.99002 20.81 4.99002Z" fill="#C1D13F"/>
      <path d="M42.44 4.99002H45.77C46.23 4.99002 46.6 4.62002 46.6 4.16002C46.6 3.70002 46.23 3.33002 45.77 3.33002H42.44C41.98 3.33002 41.61 3.70002 41.61 4.16002C41.61 4.62002 41.98 4.99002 42.44 4.99002Z" fill="#C1D13F"/>
      <path d="M44.94 12.48H29.96C29.5 12.48 29.13 12.85 29.13 13.31C29.13 13.77 29.5 14.14 29.96 14.14H44.94C45.4 14.14 45.77 13.77 45.77 13.31C45.77 12.85 45.4 12.48 44.94 12.48Z" fill="#5B5A5A"/>
      <path d="M44.94 15.81H36.62C36.16 15.81 35.79 16.18 35.79 16.64C35.79 17.1 36.16 17.47 36.62 17.47H44.94C45.4 17.47 45.77 17.1 45.77 16.64C45.77 16.18 45.4 15.81 44.94 15.81Z" fill="#5B5A5A"/>
      <path d="M29.96 17.48H33.29C33.75 17.48 34.12 17.11 34.12 16.65C34.12 16.19 33.75 15.82 33.29 15.82H29.96C29.5 15.82 29.13 16.19 29.13 16.65C29.13 17.11 29.5 17.48 29.96 17.48Z" fill="#5B5A5A"/>
      <path d="M33.29 30.79C33.75 30.79 34.12 30.42 34.12 29.96C34.12 29.5 33.75 29.13 33.29 29.13H29.96C29.5 29.13 29.13 29.5 29.13 29.96C29.13 30.42 29.5 30.79 29.96 30.79H33.29Z" fill="#5B5A5A"/>
      <path d="M44.94 19.14H29.96C29.5 19.14 29.13 19.51 29.13 19.97C29.13 20.43 29.5 20.8 29.96 20.8H44.94C45.4 20.8 45.77 20.43 45.77 19.97C45.77 19.51 45.4 19.14 44.94 19.14Z" fill="#5B5A5A"/>
      <path d="M44.94 22.47H44.11C43.65 22.47 43.28 22.84 43.28 23.3C43.28 23.76 43.65 24.13 44.11 24.13H44.94C45.4 24.13 45.77 23.76 45.77 23.3C45.77 22.84 45.4 22.47 44.94 22.47Z" fill="#5B5A5A"/>
      <path d="M29.96 24.13H40.78C41.24 24.13 41.61 23.76 41.61 23.3C41.61 22.84 41.24 22.47 40.78 22.47H29.96C29.5 22.47 29.13 22.84 29.13 23.3C29.13 23.76 29.5 24.13 29.96 24.13Z" fill="#5B5A5A"/>
      <path d="M44.94 25.8H29.96C29.5 25.8 29.13 26.17 29.13 26.63C29.13 27.09 29.5 27.46 29.96 27.46H44.94C45.4 27.46 45.77 27.09 45.77 26.63C45.77 26.17 45.4 25.8 44.94 25.8Z" fill="#5B5A5A"/>
      <path d="M44.94 36.62H9.15C8.69 36.62 8.32 36.99 8.32 37.45C8.32 37.91 8.69 38.28 9.15 38.28H44.94C45.4 38.28 45.77 37.91 45.77 37.45C45.77 36.99 45.4 36.62 44.94 36.62Z" fill="#C1D13F"/>
      <path d="M4.99 36.62C4.53 36.62 4.16 36.99 4.16 37.45C4.16 37.91 4.53 38.28 4.99 38.28H5.82C6.28 38.28 6.65 37.91 6.65 37.45C6.65 36.99 6.28 36.62 5.82 36.62H4.99Z" fill="#5B5A5A"/>
      <path d="M44.94 39.95H44.11C43.65 39.95 43.28 40.32 43.28 40.78C43.28 41.24 43.65 41.61 44.11 41.61H44.94C45.4 41.61 45.77 41.24 45.77 40.78C45.77 40.32 45.4 39.95 44.94 39.95Z" fill="#5B5A5A"/>
      <path d="M40.78 39.95H4.99C4.53 39.95 4.16 40.32 4.16 40.78C4.16 41.24 4.53 41.61 4.99 41.61H40.78C41.24 41.61 41.61 41.24 41.61 40.78C41.61 40.32 41.24 39.95 40.78 39.95Z" fill="#C1D13F"/>
      <path d="M20.81 43.28H4.99C4.53 43.28 4.16 43.65 4.16 44.11C4.16 44.57 4.53 44.94 4.99 44.94H20.8C21.26 44.94 21.63 44.57 21.63 44.11C21.63 43.65 21.26 43.28 20.8 43.28H20.81Z" fill="#C1D13F"/>
  </symbol>

  <symbol id="icono-boletin-nem" viewBox="0 0 38 49" fill="none">
      <path d="M5.65998 8.08998C6.99998 8.08998 8.08998 6.99998 8.08998 5.65998C8.08998 4.31998 6.99998 3.22998 5.65998 3.22998C4.31998 3.22998 3.22998 4.31998 3.22998 5.65998C3.22998 6.99998 4.31998 8.08998 5.65998 8.08998ZM5.65998 4.84998C6.10998 4.84998 6.46998 5.20998 6.46998 5.65998C6.46998 6.10998 6.10998 6.46998 5.65998 6.46998C5.20998 6.46998 4.84998 6.10998 4.84998 5.65998C4.84998 5.20998 5.20998 4.84998 5.65998 4.84998Z" fill="#C1D13F"/>
      <path d="M37.51 45.55V3.5C37.51 1.71 36.06 0.27 34.28 0.27L3.23 0C1.45 0 0 1.45 0 3.23V45.28C0 47.07 1.45 48.51 3.23 48.51L34.27 48.77C36.06 48.77 37.5 47.32 37.5 45.54L37.51 45.55ZM1.62 15.96L14.01 9.71L16.92 11.96L20.07 14.39C20.42 14.66 20.93 14.6 21.2 14.24C21.47 13.88 21.41 13.38 21.05 13.11L18.74 11.34L24.91 4.78L35.88 12.4V16.44L1.61 16.18V15.97L1.62 15.96ZM3.23 1.62L34.27 1.88C35.16 1.88 35.89 2.6 35.89 3.5V10.36L25.9 3.49C25.31 3.04 24.49 3.04 23.89 3.49L17.42 10.31L14.99 8.44C14.39 7.99 13.57 7.99 12.97 8.44L1.62 13.93V3.23C1.62 2.34 2.34 1.61 3.24 1.61L3.23 1.62ZM1.62 45.28V17.79L35.89 18.05V45.54C35.89 46.43 35.17 47.16 34.27 47.16L3.23 46.9C2.34 46.9 1.61 46.18 1.61 45.28H1.62Z" fill="#5B5A5A"/>
      <path d="M32.22 20.22H5.65998C5.20998 20.22 4.84998 20.58 4.84998 21.03C4.84998 21.48 5.20998 21.84 5.65998 21.84H32.22C32.67 21.84 33.03 21.48 33.03 21.03C33.03 20.58 32.67 20.22 32.22 20.22Z" fill="#C1D13F"/>
      <path d="M5.65998 25.07H10.51C10.96 25.07 11.32 24.71 11.32 24.26C11.32 23.81 10.96 23.45 10.51 23.45H5.65998C5.20998 23.45 4.84998 23.81 4.84998 24.26C4.84998 24.71 5.20998 25.07 5.65998 25.07Z" fill="#C1D13F"/>
      <path d="M5.65998 28.3H6.46998C6.91998 28.3 7.27998 27.94 7.27998 27.49C7.27998 27.04 6.91998 26.68 6.46998 26.68H5.65998C5.20998 26.68 4.84998 27.04 4.84998 27.49C4.84998 27.94 5.20998 28.3 5.65998 28.3Z" fill="#C1D13F"/>
      <path d="M32.22 26.69H9.70001C9.25001 26.69 8.89001 27.05 8.89001 27.5C8.89001 27.95 9.25001 28.31 9.70001 28.31H32.21C32.66 28.31 33.02 27.95 33.02 27.5C33.02 27.05 32.66 26.69 32.21 26.69H32.22Z" fill="#C1D13F"/>
      <path d="M32.22 36.39H31.41C30.96 36.39 30.6 36.75 30.6 37.2C30.6 37.65 30.96 38.01 31.41 38.01H32.22C32.67 38.01 33.03 37.65 33.03 37.2C33.03 36.75 32.67 36.39 32.22 36.39Z" fill="#C1D13F"/>
      <path d="M5.65998 38.01H28.17C28.62 38.01 28.98 37.65 28.98 37.2C28.98 36.75 28.62 36.39 28.17 36.39H5.65998C5.20998 36.39 4.84998 36.75 4.84998 37.2C4.84998 37.65 5.20998 38.01 5.65998 38.01Z" fill="#C1D13F"/>
      <path d="M32.22 29.92H5.65998C5.20998 29.92 4.84998 30.28 4.84998 30.73C4.84998 31.18 5.20998 31.54 5.65998 31.54H32.22C32.67 31.54 33.03 31.18 33.03 30.73C33.03 30.28 32.67 29.92 32.22 29.92Z" fill="#5B5A5A"/>
      <path d="M32.22 39.62H5.65998C5.20998 39.62 4.84998 39.98 4.84998 40.43C4.84998 40.88 5.20998 41.24 5.65998 41.24H32.22C32.67 41.24 33.03 40.88 33.03 40.43C33.03 39.98 32.67 39.62 32.22 39.62Z" fill="#5B5A5A"/>
      <path d="M26.56 42.86H5.65998C5.20998 42.86 4.84998 43.22 4.84998 43.67C4.84998 44.12 5.20998 44.48 5.65998 44.48H26.56C27.01 44.48 27.37 44.12 27.37 43.67C27.37 43.22 27.01 42.86 26.56 42.86Z" fill="#5B5A5A"/>
      <path d="M5.65998 34.77H8.88998C9.33998 34.77 9.69998 34.41 9.69998 33.96C9.69998 33.51 9.33998 33.15 8.88998 33.15H5.65998C5.20998 33.15 4.84998 33.51 4.84998 33.96C4.84998 34.41 5.20998 34.77 5.65998 34.77Z" fill="#5B5A5A"/>
      <path d="M32.22 33.16H12.13C11.68 33.16 11.32 33.52 11.32 33.97C11.32 34.42 11.68 34.78 12.13 34.78H32.22C32.67 34.78 33.03 34.42 33.03 33.97C33.03 33.52 32.67 33.16 32.22 33.16Z" fill="#5B5A5A"/>
      <path d="M32.22 23.45H13.75C13.3 23.45 12.94 23.81 12.94 24.26C12.94 24.71 13.3 25.07 13.75 25.07H32.22C32.67 25.07 33.03 24.71 33.03 24.26C33.03 23.81 32.67 23.45 32.22 23.45Z" fill="#C1D13F"/>
  </symbol>

  <symbol id="icono-boletin-eventos" viewBox="0 0 51 51" fill="none">
      <path d="M14.21 32.45C14.69 32.73 15.28 32.73 15.76 32.45L20.15 29.88C20.64 29.58 20.94 29.05 20.94 28.48C20.94 27.91 20.64 27.37 20.15 27.08L15.76 24.51C15.28 24.23 14.69 24.22 14.21 24.51C13.71 24.8 13.4 25.34 13.4 25.92V31.06C13.4 31.64 13.71 32.18 14.21 32.47V32.45ZM19.24 28.46L15.07 30.9L15.03 26.01L19.24 28.45V28.46Z" fill="#C1D13F"/>
      <path d="M16.75 36.85C21.38 36.85 25.12 33.1 25.12 28.48C25.12 23.86 21.37 20.11 16.75 20.11C12.13 20.11 8.38 23.86 8.38 28.48C8.38 33.1 12.13 36.85 16.75 36.85ZM16.75 21.77C20.45 21.77 23.45 24.77 23.45 28.47C23.45 32.17 20.45 35.17 16.75 35.17C13.05 35.17 10.05 32.17 10.05 28.47C10.05 24.77 13.05 21.77 16.75 21.77Z" fill="#C1D13F"/>
      <path d="M3.35 50.25H30.15C32 50.25 33.5 48.75 33.5 46.9V23.4C33.78 23.42 34.06 23.45 34.34 23.45C41.58 23.45 47.55 16.27 49.78 13.18C50.41 12.31 50.41 11.14 49.78 10.28C47.55 7.19001 41.58 0.0100098 34.34 0.0100098C27.1 0.0100098 21.13 7.19001 18.9 10.28C18.27 11.15 18.27 12.32 18.9 13.18C19.81 14.43 20.79 15.63 21.85 16.75H3.35C1.5 16.75 0 18.25 0 20.1V46.9C0 48.75 1.5 50.25 3.35 50.25ZM30.15 48.57H3.35C2.42 48.57 1.68 47.82 1.68 46.9V40.2H31.83V46.9C31.83 47.83 31.08 48.57 30.16 48.57H30.15ZM20.25 11.25C21.87 9.00001 27.68 1.67001 34.33 1.67001C40.98 1.67001 46.79 9.00001 48.41 11.25C48.62 11.53 48.62 11.91 48.41 12.19C46.79 14.44 40.98 21.77 34.33 21.77C27.68 21.77 21.87 14.44 20.25 12.19C20.04 11.91 20.04 11.53 20.25 11.25ZM3.35 18.42H23.53C25.84 20.69 28.7 22.32 31.82 23.15V38.51H1.67V20.09C1.67 19.16 2.42 18.42 3.34 18.42H3.35Z" fill="#5B5A5A"/>
      <path d="M34.33 20.1C38.96 20.1 42.7 16.35 42.7 11.73C42.7 7.10999 38.95 3.35999 34.33 3.35999C29.71 3.35999 25.96 7.10999 25.96 11.73C25.96 16.35 29.71 20.1 34.33 20.1ZM34.33 5.01999C38.03 5.01999 41.03 8.01999 41.03 11.72C41.03 15.42 38.03 18.42 34.33 18.42C30.63 18.42 27.63 15.42 27.63 11.72C27.63 8.01999 30.63 5.01999 34.33 5.01999Z" fill="#C1D13F"/>
      <path d="M34.33 15.91C36.64 15.91 38.52 14.04 38.52 11.72C38.52 9.40003 36.65 7.53003 34.33 7.53003C32.01 7.53003 30.14 9.40003 30.14 11.72C30.14 14.03 32.02 15.9 34.33 15.91ZM34.33 9.21003C35.72 9.21003 36.84 10.33 36.84 11.72C36.84 13.11 35.72 14.23 34.33 14.23C32.94 14.23 31.82 13.11 31.82 11.72C31.82 10.33 32.94 9.21003 34.33 9.21003Z" fill="#C1D13F"/>
      <path d="M5.86002 43.55H7.53002C7.99002 43.55 8.37002 43.18 8.37002 42.71C8.37002 42.24 8.00002 41.87 7.53002 41.87H5.86002C5.40002 41.87 5.02002 42.24 5.02002 42.71C5.02002 43.18 5.39002 43.55 5.86002 43.55Z" fill="#5B5A5A"/>
      <path d="M27.64 41.87H10.89C10.43 41.87 10.05 42.24 10.05 42.71C10.05 43.18 10.42 43.55 10.89 43.55H27.64C28.1 43.55 28.48 43.18 28.48 42.71C28.48 42.24 28.11 41.87 27.64 41.87Z" fill="#5B5A5A"/>
      <path d="M19.26 45.22H5.86002C5.40002 45.22 5.02002 45.59 5.02002 46.06C5.02002 46.53 5.39002 46.9 5.86002 46.9H19.26C19.72 46.9 20.1 46.53 20.1 46.06C20.1 45.59 19.73 45.22 19.26 45.22Z" fill="#5B5A5A"/>
  </symbol>
  
</svg>