<svg xmlns="http://www.w3.org/2000/svg" xmlns:xlink="http://www.w3.org/1999/xlink" style="display:none">

  <symbol id="map" viewBox="0 0 16 20" fill="none" > 
    <path d="M8.00009 12C10.2061 12 12.0001 10.206 12.0001 8C12.0001 5.794 10.2061 4 8.00009 4C5.79409 4 4.00009 5.794 4.00009 8C4.00009 10.206 5.79409 12 8.00009 12ZM8.00009 6C9.10309 6 10.0001 6.897 10.0001 8C10.0001 9.103 9.10309 10 8.00009 10C6.89709 10 6.00009 9.103 6.00009 8C6.00009 6.897 6.89709 6 8.00009 6Z" fill="#C1D13F"/>
    <path d="M7.42009 19.814C7.58945 19.9346 7.79218 19.9994 8.00009 19.9994C8.20799 19.9994 8.41073 19.9346 8.58009 19.814C8.88409 19.599 16.0291 14.44 16.0001 8C16.0001 3.589 12.4111 0 8.00009 0C3.58909 0 8.80377e-05 3.589 8.80377e-05 7.995C-0.028912 14.44 7.11609 19.599 7.42009 19.814ZM8.00009 2C11.3091 2 14.0001 4.691 14.0001 8.005C14.0211 12.443 9.61209 16.428 8.00009 17.735C6.38909 16.427 1.97909 12.441 2.00009 8C2.00009 4.691 4.69109 2 8.00009 2Z" fill="#C1D13F"/>
  </symbol>

  <symbol id="cal" viewBox="0 0 20 19" fill="none" >
      <path d="M14.6509 11.0833C14.8976 11.0833 15.1343 10.988 15.3087 10.8183C15.4832 10.6487 15.5812 10.4185 15.5812 10.1786C15.5812 9.93861 15.4832 9.70848 15.3087 9.53881C15.1343 9.36913 14.8976 9.27381 14.6509 9.27381C14.4042 9.27381 14.1676 9.36913 13.9931 9.53881C13.8186 9.70848 13.7206 9.93861 13.7206 10.1786C13.7206 10.4185 13.8186 10.6487 13.9931 10.8183C14.1676 10.988 14.4042 11.0833 14.6509 11.0833ZM14.6509 14.7024C14.8976 14.7024 15.1343 14.6071 15.3087 14.4374C15.4832 14.2677 15.5812 14.0376 15.5812 13.7976C15.5812 13.5577 15.4832 13.3275 15.3087 13.1579C15.1343 12.9882 14.8976 12.8929 14.6509 12.8929C14.4042 12.8929 14.1676 12.9882 13.9931 13.1579C13.8186 13.3275 13.7206 13.5577 13.7206 13.7976C13.7206 14.0376 13.8186 14.2677 13.9931 14.4374C14.1676 14.6071 14.4042 14.7024 14.6509 14.7024ZM10.9298 10.1786C10.9298 10.4185 10.8318 10.6487 10.6573 10.8183C10.4829 10.988 10.2463 11.0833 9.99953 11.0833C9.75281 11.0833 9.51619 10.988 9.34173 10.8183C9.16727 10.6487 9.06926 10.4185 9.06926 10.1786C9.06926 9.93861 9.16727 9.70848 9.34173 9.53881C9.51619 9.36913 9.75281 9.27381 9.99953 9.27381C10.2463 9.27381 10.4829 9.36913 10.6573 9.53881C10.8318 9.70848 10.9298 9.93861 10.9298 10.1786ZM10.9298 13.7976C10.9298 14.0376 10.8318 14.2677 10.6573 14.4374C10.4829 14.6071 10.2463 14.7024 9.99953 14.7024C9.75281 14.7024 9.51619 14.6071 9.34173 14.4374C9.16727 14.2677 9.06926 14.0376 9.06926 13.7976C9.06926 13.5577 9.16727 13.3275 9.34173 13.1579C9.51619 12.9882 9.75281 12.8929 9.99953 12.8929C10.2463 12.8929 10.4829 12.9882 10.6573 13.1579C10.8318 13.3275 10.9298 13.5577 10.9298 13.7976ZM5.34816 11.0833C5.59488 11.0833 5.8315 10.988 6.00596 10.8183C6.18042 10.6487 6.27843 10.4185 6.27843 10.1786C6.27843 9.93861 6.18042 9.70848 6.00596 9.53881C5.8315 9.36913 5.59488 9.27381 5.34816 9.27381C5.10143 9.27381 4.86481 9.36913 4.69035 9.53881C4.51589 9.70848 4.41788 9.93861 4.41788 10.1786C4.41788 10.4185 4.51589 10.6487 4.69035 10.8183C4.86481 10.988 5.10143 11.0833 5.34816 11.0833ZM5.34816 14.7024C5.59488 14.7024 5.8315 14.6071 6.00596 14.4374C6.18042 14.2677 6.27843 14.0376 6.27843 13.7976C6.27843 13.5577 6.18042 13.3275 6.00596 13.1579C5.8315 12.9882 5.59488 12.8929 5.34816 12.8929C5.10143 12.8929 4.86481 12.9882 4.69035 13.1579C4.51589 13.3275 4.41788 13.5577 4.41788 13.7976C4.41788 14.0376 4.51589 14.2677 4.69035 14.4374C4.86481 14.6071 5.10143 14.7024 5.34816 14.7024Z" fill="#C1D13F"/>
      <path fill-rule="evenodd" clip-rule="evenodd" d="M5.34816 0C5.5332 0 5.71066 0.0714922 5.84151 0.198749C5.97235 0.326006 6.04586 0.498603 6.04586 0.678571V1.3689C6.66171 1.35714 7.33988 1.35714 8.08596 1.35714H11.9122C12.6592 1.35714 13.3374 1.35714 13.9532 1.3689V0.678571C13.9532 0.498603 14.0267 0.326006 14.1576 0.198749C14.2884 0.0714922 14.4659 0 14.6509 0C14.836 0 15.0134 0.0714922 15.1443 0.198749C15.2751 0.326006 15.3486 0.498603 15.3486 0.678571V1.42681C15.5905 1.4449 15.8197 1.46783 16.0361 1.49557C17.1264 1.63852 18.0092 1.9389 18.706 2.61567C19.4018 3.29333 19.7107 4.15195 19.8577 5.21233C20 6.24376 20 7.56019 20 9.22314V11.134C20 12.797 20 14.1143 19.8577 15.1448C19.7107 16.2052 19.4018 17.0638 18.706 17.7415C18.0092 18.4182 17.1264 18.7186 16.0361 18.8616C14.9756 19 13.622 19 11.9122 19H8.08782C6.37797 19 5.02349 19 3.96391 18.8616C2.87362 18.7186 1.99079 18.4182 1.29401 17.7415C0.598167 17.0638 0.289316 16.2052 0.142332 15.1448C0 14.1134 0 12.797 0 11.134V9.22314C0 7.56019 0 6.24286 0.142332 5.21233C0.289316 4.15195 0.598167 3.29333 1.29401 2.61567C1.99079 1.9389 2.87362 1.63852 3.96391 1.49557C4.18097 1.46783 4.41013 1.4449 4.65138 1.42681V0.678571C4.65138 0.49876 4.72476 0.326299 4.8554 0.199069C4.98605 0.0718377 5.16327 0.000239749 5.34816 0ZM4.1481 2.84095C3.21317 2.9631 2.67361 3.1929 2.28011 3.57562C1.8866 3.95833 1.65031 4.4831 1.52472 5.39238C1.50364 5.54619 1.48565 5.70875 1.47077 5.88005H18.5283C18.5134 5.70875 18.4954 5.54589 18.4743 5.39148C18.3488 4.48219 18.1125 3.95743 17.719 3.57471C17.3255 3.192 16.7859 2.96219 15.85 2.84005C14.8946 2.71519 13.6341 2.71338 11.8601 2.71338H8.13898C6.36495 2.71338 5.10535 2.7161 4.1481 2.84095ZM1.39448 9.27381C1.39448 8.50114 1.39448 7.8289 1.40658 7.2381H18.5925C18.6046 7.8289 18.6046 8.50114 18.6046 9.27381V11.0833C18.6046 12.8087 18.6027 14.0347 18.4743 14.9648C18.3488 15.874 18.1125 16.3988 17.719 16.7815C17.3255 17.1642 16.7859 17.394 15.85 17.5162C14.8946 17.641 13.6341 17.6429 11.8601 17.6429H8.13898C6.36495 17.6429 5.10535 17.641 4.1481 17.5162C3.21317 17.394 2.67361 17.1642 2.28011 16.7815C1.8866 16.3988 1.65031 15.874 1.52472 14.9639C1.39634 14.0347 1.39448 12.8087 1.39448 11.0833V9.27381Z" fill="#C1D13F"/>
  </symbol>

  <symbol id="clock" viewBox="0 0 22 22" fill="none">
    <path d="M11 5.44444V11L14.3333 14.3333M1 11C1 12.3132 1.25866 13.6136 1.7612 14.8268C2.26375 16.0401 3.00035 17.1425 3.92893 18.0711C4.85752 18.9997 5.95991 19.7363 7.17317 20.2388C8.38642 20.7413 9.68678 21 11 21C12.3132 21 13.6136 20.7413 14.8268 20.2388C16.0401 19.7363 17.1425 18.9997 18.0711 18.0711C18.9997 17.1425 19.7363 16.0401 20.2388 14.8268C20.7413 13.6136 21 12.3132 21 11C21 8.34784 19.9464 5.8043 18.0711 3.92893C16.1957 2.05357 13.6522 1 11 1C8.34784 1 5.8043 2.05357 3.92893 3.92893C2.05357 5.8043 1 8.34784 1 11Z" stroke="#C1D13F" stroke-width="2" stroke-linecap="round" stroke-linejoin="round"/>
  </symbol>

  <symbol id="user" viewBox="0 0 22 16" fill="none">
    <path d="M8 9C10.2091 9 12 7.20914 12 5C12 2.79086 10.2091 1 8 1C5.79086 1 4 2.79086 4 5C4 7.20914 5.79086 9 8 9ZM8 9C11.866 9 15 11.686 15 15M8 9C4.134 9 1 11.686 1 15M14 9C14.6684 8.99996 15.3261 8.83244 15.9131 8.51274C16.5 8.19303 16.9975 7.73134 17.3601 7.16984C17.7227 6.60834 17.9388 5.96494 17.9886 5.29841C18.0385 4.63189 17.9205 3.9635 17.6456 3.3543C17.3706 2.7451 16.9473 2.21453 16.4144 1.81105C15.8816 1.40757 15.2561 1.14404 14.5952 1.04456C13.9342 0.945073 13.2589 1.01279 12.6309 1.24154C12.0028 1.47028 11.4421 1.85275 11 2.354M14 9C17.866 9 21 11.686 21 15M14 9C13.193 9 11.897 8.707 11 7.765" stroke="#C1D13F" stroke-width="2" stroke-linecap="round" stroke-linejoin="round"/>
  </symbol>

  <symbol id="task" viewBox="0 0 18 20" fill="none">
    <path d="M15.995 2.097C15.9562 1.52803 15.7028 0.995018 15.2861 0.605735C14.8693 0.216451 14.3203 -5.27171e-05 13.75 9.62841e-09H2.25L2.096 0.00500012C1.52704 0.0440339 0.994127 0.297667 0.605028 0.714612C0.215929 1.13156 -0.000323158 1.6807 3.62474e-07 2.251V17.749L0.00500048 17.903C0.04378 18.472 0.297166 19.005 0.713924 19.3943C1.13068 19.7835 1.67971 20.0001 2.25 20H9.818L8.318 18.5H2.25L2.148 18.493C1.96845 18.4684 1.80389 18.3795 1.68477 18.2429C1.56564 18.1063 1.50001 17.9312 1.5 17.75V2.251L1.507 2.149C1.53165 1.96945 1.62048 1.80489 1.75707 1.68577C1.89366 1.56664 2.06876 1.50101 2.25 1.501H13.75L13.852 1.508C14.0316 1.53265 14.1961 1.62148 14.3152 1.75807C14.4344 1.89466 14.5 2.06976 14.5 2.251V13.818L15.659 12.659C15.7657 12.5523 15.879 12.459 15.999 12.379V2.25L15.995 2.097ZM12.288 19.999H12.212C12.0262 19.9897 11.8505 19.9116 11.719 19.78L9.219 17.278C9.07844 17.1372 8.99957 16.9463 8.99976 16.7473C8.99995 16.5483 9.07917 16.3576 9.22 16.217C9.36083 16.0764 9.55173 15.9976 9.75071 15.9978C9.94968 15.9979 10.1404 16.0772 10.281 16.218L12.25 18.189L16.72 13.719C16.7892 13.6474 16.872 13.5903 16.9635 13.551C17.055 13.5118 17.1535 13.4911 17.2531 13.4903C17.3526 13.4895 17.4514 13.5085 17.5435 13.5463C17.6357 13.584 17.7194 13.6398 17.7898 13.7102C17.8602 13.7807 17.9158 13.8644 17.9535 13.9566C17.9912 14.0488 18.0101 14.1476 18.0092 14.2472C18.0083 14.3467 17.9875 14.4451 17.9482 14.5366C17.9088 14.6281 17.8517 14.7108 17.78 14.78L12.78 19.78C12.6488 19.9114 12.4735 19.9894 12.288 19.999ZM9.84 14.5C9.77936 14.4972 9.71864 14.4972 9.658 14.5H7.245C7.04609 14.5 6.85532 14.421 6.71467 14.2803C6.57402 14.1397 6.495 13.9489 6.495 13.75C6.495 13.5511 6.57402 13.3603 6.71467 13.2197C6.85532 13.079 7.04609 13 7.245 13H12.249C12.4479 13 12.6387 13.079 12.7793 13.2197C12.92 13.3603 12.999 13.5511 12.999 13.75C12.999 13.9489 12.92 14.1397 12.7793 14.2803C12.6387 14.421 12.4479 14.5 12.249 14.5H9.84ZM5 5.752C5 6.01722 4.89464 6.27157 4.70711 6.45911C4.51957 6.64664 4.26522 6.752 4 6.752C3.73478 6.752 3.48043 6.64664 3.29289 6.45911C3.10536 6.27157 3 6.01722 3 5.752C3 5.48678 3.10536 5.23243 3.29289 5.04489C3.48043 4.85736 3.73478 4.752 4 4.752C4.26522 4.752 4.51957 4.85736 4.70711 5.04489C4.89464 5.23243 5 5.48678 5 5.752ZM6.496 5.75C6.496 5.55109 6.57502 5.36032 6.71567 5.21967C6.85632 5.07902 7.04709 5 7.246 5H12.25C12.4489 5 12.6397 5.07902 12.7803 5.21967C12.921 5.36032 13 5.55109 13 5.75C13 5.94891 12.921 6.13968 12.7803 6.28033C12.6397 6.42098 12.4489 6.5 12.25 6.5H7.246C7.04709 6.5 6.85632 6.42098 6.71567 6.28033C6.57502 6.13968 6.496 5.94891 6.496 5.75ZM7.246 9C7.04709 9 6.85632 9.07902 6.71567 9.21967C6.57502 9.36032 6.496 9.55109 6.496 9.75C6.496 9.94891 6.57502 10.1397 6.71567 10.2803C6.85632 10.421 7.04709 10.5 7.246 10.5H12.25C12.3485 10.5 12.446 10.4806 12.537 10.4429C12.628 10.4052 12.7107 10.35 12.7803 10.2803C12.85 10.2107 12.9052 10.128 12.9429 10.037C12.9806 9.94602 13 9.84849 13 9.75C13 9.65151 12.9806 9.55398 12.9429 9.46299C12.9052 9.37199 12.85 9.28931 12.7803 9.21967C12.7107 9.15003 12.628 9.09478 12.537 9.05709C12.446 9.0194 12.3485 9 12.25 9H7.246ZM4 10.75C4.26522 10.75 4.51957 10.6446 4.70711 10.4571C4.89464 10.2696 5 10.0152 5 9.75C5 9.48478 4.89464 9.23043 4.70711 9.04289C4.51957 8.85536 4.26522 8.75 4 8.75C3.73478 8.75 3.48043 8.85536 3.29289 9.04289C3.10536 9.23043 3 9.48478 3 9.75C3 10.0152 3.10536 10.2696 3.29289 10.4571C3.48043 10.6446 3.73478 10.75 4 10.75ZM5 13.748C5 14.0132 4.89464 14.2676 4.70711 14.4551C4.51957 14.6426 4.26522 14.748 4 14.748C3.73478 14.748 3.48043 14.6426 3.29289 14.4551C3.10536 14.2676 3 14.0132 3 13.748C3 13.4828 3.10536 13.2284 3.29289 13.0409C3.48043 12.8534 3.73478 12.748 4 12.748C4.26522 12.748 4.51957 12.8534 4.70711 13.0409C4.89464 13.2284 5 13.4828 5 13.748Z" fill="#C1D13F"/>
  </symbol>
</svg>