<svg xmlns="http://www.w3.org/2000/svg" xmlns:xlink="http://www.w3.org/1999/xlink" style="display:none">

  <symbol id="icono-ultimos-tramites" viewBox="0 0 49 51" fill="none">
      <path d="M45.85 28.12C45.6 27.94 44.99 27.73 44.92 27.49C44.8 24.31 45.07 21.09 44.78 17.93L44.59 17.53L38.92 11.84C38.19 11.35 37.3 11.52 36.48 11.49C36.16 10.06 36.1 8.16 35.62 6.80999C35.24 5.72999 34.29 5.37 33.2 5.52999L24.78 7.06999L18.14 0.449995C17.36 -0.210005 16.16 -0.130005 15.44 0.599995L0.450001 15.49C-0.129999 16.22 -0.139999 17.14 0.400001 17.89L7.75 25.39H7.73C7.81 25.46 7.88 25.54 7.9 25.64C7.91 25.68 7.92 25.73 7.94 25.77C7.94 25.78 7.94 25.78 7.94 25.79C7.96 25.81 7.97 25.84 7.98 25.86C8 25.87 8.01 25.89 8.03 25.91C8.05 25.91 8.07 25.93 8.09 25.94C8.11 25.94 8.14 25.95 8.16 25.96C8.18 25.96 8.2 25.96 8.21 25.96C8.26 25.96 8.31 25.96 8.33 25.96C8.37 25.96 8.4 25.96 8.44 25.96C8.5 25.94 8.58 25.93 8.64 25.92C8.78 25.88 8.92 25.8 9.07 25.78C9.07 25.78 9.07 25.78 9.06 25.78C9.1 25.76 9.14 25.74 9.17 25.73C9.24 25.7 9.3 25.66 9.36 25.63C9.48 25.56 9.6 25.49 9.71 25.41C9.74 25.39 9.76 25.37 9.79 25.35C9.83 25.32 9.86 25.29 9.9 25.26L1.77 17.02L1.69 16.55L16.92 1.57999L22.85 7.40999C22.76 7.54999 22.64 7.52999 22.52 7.55999C19.48 8.41999 15.56 8.46999 12.62 9.41999C11.81 9.67999 11.38 10.22 11.2 11.04C11.87 15.84 13.05 20.58 13.74 25.39H13.66C13.76 25.46 13.85 25.56 13.89 25.68C13.89 25.68 13.89 25.68 13.89 25.69C13.91 25.73 13.93 25.76 13.95 25.79C13.97 25.82 14 25.84 14.02 25.87C14.05 25.9 14.08 25.92 14.1 25.95C14.17 25.99 14.23 26.03 14.3 26.07C14.31 26.07 14.33 26.08 14.34 26.09C14.37 26.1 14.4 26.11 14.42 26.12C14.49 26.14 14.56 26.16 14.63 26.18C14.65 26.18 14.67 26.18 14.68 26.19C14.7 26.19 14.73 26.19 14.74 26.19C14.82 26.19 14.89 26.19 14.97 26.19C15.01 26.19 15.04 26.18 15.08 26.17C15.11 26.17 15.14 26.15 15.16 26.14C15.2 26.11 15.25 26.09 15.29 26.07C15.3 26.06 15.31 26.05 15.32 26.04C15.32 26.02 15.34 26 15.35 25.98C15.35 25.97 15.35 25.95 15.36 25.94C15.36 25.96 15.34 25.96 15.36 25.89C15.36 25.85 15.36 25.82 15.36 25.78C15.36 25.65 15.38 25.52 15.4 25.39C15.38 25.39 15.36 25.39 15.34 25.39L12.69 11.16C12.79 10.81 13.45 10.86 13.75 10.8C20.38 9.47999 27.05 8.33999 33.69 7.06999C33.95 7.1 34.03 7.33999 34.09 7.55999C34.44 8.79999 34.51 10.31 34.82 11.58H22.03C21.61 11.58 20.71 12.66 20.71 13.1V29.02C20.73 29.1 20.74 29.19 20.71 29.27C20.67 29.4 20.65 29.54 20.62 29.67C20.62 29.63 20.63 29.61 20.64 29.6C20.64 29.62 20.63 29.66 20.63 29.68C20.63 29.71 20.63 29.74 20.63 29.77C20.63 29.83 20.63 29.88 20.63 29.94C20.63 29.97 20.63 30 20.63 30.03C20.65 30.07 20.64 30.09 20.63 30.06C20.63 30.1 20.64 30.14 20.65 30.17C20.66 30.23 20.68 30.28 20.7 30.33C20.7 30.35 20.71 30.36 20.72 30.38C20.74 30.41 20.75 30.43 20.75 30.43C20.78 30.49 20.81 30.56 20.84 30.61C20.84 30.62 20.86 30.64 20.87 30.65C20.92 30.7 20.9 30.7 20.87 30.66C20.88 30.68 20.9 30.7 20.91 30.71C20.97 30.77 21.03 30.83 21.09 30.88C21.09 30.88 21.11 30.89 21.11 30.9C21.14 30.92 21.17 30.94 21.2 30.96C21.24 30.99 21.28 31.01 21.33 31.03C21.33 31.03 21.34 31.03 21.35 31.03C21.43 31.05 21.41 31.05 21.38 31.03C21.43 31.05 21.49 31.07 21.54 31.08C21.58 31.09 21.62 31.1 21.66 31.11C21.72 31.11 21.79 31.11 21.85 31.11C21.85 31.11 21.88 31.11 21.91 31.11C21.93 31.11 21.96 31.11 21.98 31.09C22.01 31.09 22.05 31.07 22.08 31.06C22.12 31.04 22.15 31.02 22.18 31C22.18 31 22.18 31 22.19 31C22.23 30.96 22.27 30.92 22.31 30.88C22.27 30.8 22.24 30.72 22.24 30.64C22.24 30.52 22.28 30.41 22.3 30.29H22.25V13.29C22.25 13.29 22.39 13.14 22.4 13.14H37.44V17.31C37.44 17.8 38.27 18.83 38.76 18.83H43.12V27.06C40.37 26.51 37.29 27.79 35.96 30.29H35.85C35.79 30.4 35.73 30.51 35.68 30.63C35.67 30.66 35.66 30.69 35.65 30.71C35.63 30.77 35.6 30.84 35.58 30.9C35.48 31.18 35.39 31.46 35.28 31.73C35.24 31.85 35.19 31.96 35.14 32.08C33.73 38.19 40.31 42.92 45.67 39.49V39.57C45.73 39.54 45.8 39.51 45.86 39.48C46.07 39.38 46.27 39.26 46.47 39.13C46.52 39.1 46.56 39.06 46.61 39.03C46.63 39.01 46.65 38.99 46.67 38.98C46.75 38.91 46.83 38.83 46.9 38.75C46.92 38.73 46.93 38.71 46.95 38.69C46.95 38.69 46.95 38.7 46.93 38.71C46.86 38.78 46.91 38.74 46.93 38.71C46.96 38.67 46.99 38.62 47.02 38.57C47.02 38.55 47.04 38.54 47.04 38.52C47.06 38.47 47.07 38.42 47.08 38.37C47.1 38.27 47.17 38.19 47.25 38.13C49.57 34.75 49.11 30.57 45.74 28.09L45.85 28.12ZM39.26 17.26C39.26 17.26 39.11 17.12 39.11 17.11V14.32L42.05 17.26H39.26ZM47.05 34.8C47.03 36.01 45.82 37.57 44.83 38.21C40.64 40.89 35.49 37 36.87 32.21C37.3 30.71 38.98 28.86 40.59 28.72C42.12 28.11 44.16 28.7 45.39 29.75C46.74 30.9 47.62 33.06 47.06 34.8H47.05Z" fill="#5C5B5B"/>
      <path d="M44.08 31.79C44.94 31.6 45.32 32.23 44.98 32.98L41.86 35.93C41.45 36.29 41.04 36.4 40.59 36.02C40.43 35.88 39.07 34.26 39.04 34.14C38.88 33.59 39.23 32.97 39.84 33.03C40.32 33.08 40.9 33.96 41.22 34.3C42.21 33.51 43.04 32.49 44.08 31.77V31.79Z" fill="#5C5B5B"/>
      <path d="M25.37 21.3L39.46 21.28C40.68 21.4 40.73 22.8 39.46 22.95H25.44C24.35 22.86 24.27 21.46 25.37 21.31V21.3Z" fill="#5C5B5B"/>
      <path d="M25.17 24.53L39.56 24.51C40.61 24.63 40.61 25.96 39.56 26.08H25.34C24.44 26 24.32 24.81 25.17 24.53Z" fill="#5C5B5B"/>
      <path d="M25.17 18.16L35.64 18.14C36.69 18.26 36.69 19.59 35.64 19.71H25.34C24.44 19.63 24.32 18.44 25.17 18.16Z" fill="#5C5B5B"/>
      <path d="M35.95 16.35C35.78 16.51 35.48 16.56 35.25 16.58C32.14 16.86 28.6 16.36 25.44 16.58C24.46 16.56 24.22 15.13 25.24 15.01H35.54C36.18 15.08 36.41 15.93 35.94 16.35H35.95Z" fill="#5C5B5B"/>
      <path d="M25.37 27.67C28.4 27.89 32.09 27.29 35.05 27.64C36.19 27.78 36.14 29.1 35.15 29.21C32.1 29.56 28.37 28.94 25.25 29.21C24.27 29.1 24.42 27.73 25.37 27.66V27.67Z" fill="#5C5B5B"/>
      <path d="M47.34 38.24C47.34 38.24 47.31 38.24 47.29 38.23C47.24 38.22 47.18 38.21 47.13 38.2C47.12 38.2 47.13 38.2 47.12 38.2C47.12 38.2 47.12 38.2 47.11 38.2C46.94 38.19 46.79 38.2 46.62 38.2C46.61 38.2 46.6 38.2 46.58 38.2C46.55 38.2 46.51 38.21 46.48 38.22C46.43 38.23 46.39 38.25 46.35 38.26C46.35 38.26 46.34 38.26 46.33 38.26C46.26 38.28 46.18 38.33 46.12 38.37C46.09 38.39 46.06 38.41 46.03 38.43C46.03 38.43 46.02 38.43 46 38.45C45.98 38.5 45.97 38.56 45.95 38.61C45.9 38.8 45.85 39 45.81 39.2C45.78 39.32 45.75 39.43 45.71 39.55C45.74 39.53 45.76 39.52 45.79 39.51V48.43H6.08L5.98 26.97H17.59L20.53 31.68C20.59 31.72 20.89 31.87 20.92 31.87H35.07C35.07 31.87 35.17 31.84 35.22 31.84C35.25 31.84 35.28 31.84 35.32 31.84C35.32 31.84 35.33 31.84 35.34 31.84C35.4 31.83 35.46 31.81 35.51 31.8C35.54 31.8 35.57 31.78 35.59 31.77C35.64 31.75 35.68 31.71 35.58 31.77C35.63 31.74 35.69 31.72 35.74 31.69C35.79 31.66 35.83 31.63 35.88 31.6C35.9 31.58 35.92 31.57 35.94 31.55C35.98 31.51 36.02 31.46 36.06 31.42C36.07 31.4 36.09 31.38 36.1 31.36C36.13 31.31 36.16 31.26 36.18 31.21C36.18 31.19 36.2 31.17 36.2 31.14C36.21 31.09 36.22 31.04 36.24 30.99C36.24 30.96 36.24 30.94 36.24 30.91C36.24 30.85 36.23 30.79 36.24 30.74C36.24 30.74 36.24 30.75 36.24 30.76C36.24 30.73 36.22 30.69 36.21 30.66C36.21 30.63 36.19 30.6 36.18 30.57C36.15 30.51 36.12 30.44 36.08 30.38C36.07 30.36 36.06 30.33 36.05 30.31L21.5 30.53C21.5 30.53 19.23 26.02 18.52 25.56C18.07 25.27 4.85 25.41 4.85 25.41C4.81 25.41 4.32 25.88 4.4 26.04V40.36C4.83 43.18 4.18 46.49 4.5 49.28C4.56 49.76 4.84 50.02 5.33 50.02H46.6C47.31 50.02 47.39 49.59 47.43 48.99C47.7 45.52 47.11 41.77 47.32 38.26L47.34 38.24Z" fill="#C1D13F"/>
      <path d="M41.84 27.97C45.13 27.97 47.8 30.65 47.8 33.93C47.8 37.21 45.12 39.89 41.84 39.89C38.56 39.89 35.88 37.21 35.88 33.93C35.88 30.65 38.56 27.97 41.84 27.97ZM41.84 26.97C37.99 26.97 34.88 30.09 34.88 33.93C34.88 37.77 38 40.89 41.84 40.89C45.68 40.89 48.8 37.77 48.8 33.93C48.8 30.09 45.68 26.97 41.84 26.97Z" fill="#5C5B5B"/>
  </symbol>

  <symbol id="icono-anuarios-ceremonias" viewBox="0 0 49 50" fill="none">
      <path d="M37.18 17.78C38.59 17.21 39.71 19.08 40.71 19.28C41.83 19.51 42.96 18.94 44.02 19.83C44.93 20.59 44.79 21.92 45.32 22.7C45.75 23.33 47.16 23.79 47.59 24.69C48.31 26.2 47.09 27.12 47.13 28.29C47.15 28.94 47.79 29.93 47.84 30.64C47.98 32.65 45.71 32.83 45.16 34.13C45.02 34.45 44.99 34.88 44.82 35.21L48.68 41.97C48.97 42.73 48.4 43.44 47.6 43.36C47.22 43.32 45.23 42.43 45.1 42.55C44.83 43.78 44.85 46.74 42.88 45.33L38.86 38.4C38.38 38.73 37.84 38.71 37.28 38.69V46.67C37.14 48.13 36.17 49.4 34.74 49.82C24.29 50.18 13.77 49.87 3.3 49.98C1.52 49.81 0.17 48.46 0 46.68V3.3C0.17 1.52 1.52 0.17 3.3 0H33.98C35.68 0.16 37 1.44 37.27 3.11C37.2 7.84 37.41 12.59 37.29 17.32C37.29 17.49 37.26 17.62 37.18 17.77V17.78ZM36.16 46.98V39.21C36 39.23 35.97 39.4 35.9 39.51C34.84 41.23 33.83 43.57 32.69 45.13C32.35 45.59 31.98 45.85 31.38 45.66C30.42 45.36 30.58 42.64 30.21 42.56C29.94 42.5 28.19 43.38 27.68 43.37C26.88 43.37 26.46 42.48 26.83 41.8C28.08 39.6 29.43 37.43 30.58 35.19C30.49 34.89 30.43 34.51 30.32 34.22C29.81 32.94 27.98 32.76 27.68 31.28C27.43 30.07 28.31 29.18 28.29 28.17C28.27 26.96 27.19 26.22 27.83 24.72C28.27 23.68 29.59 23.42 30.11 22.64C30.68 21.78 30.5 20.51 31.49 19.76C32.69 18.84 34.08 19.68 35.17 19.07C35.3 19 36.11 18.38 36.14 18.31L36.16 3.19C35.99 2.08 35.11 1.21 33.98 1.1L3.02 1.13C2.01 1.39 1.28 2.15 1.12 3.19V46.56C1.16 47.75 2.12 48.74 3.3 48.85H34.08C34.97 48.77 36.02 47.83 36.16 46.97V46.98ZM37.56 18.81C36.95 18.89 35.98 20 35.25 20.26C34.37 20.57 33.52 20.29 32.67 20.42C31.53 20.6 31.6 22.41 31.03 23.25C30.53 23.99 28.92 24.64 28.77 25.36C28.59 26.26 29.45 27.37 29.36 28.49C29.29 29.35 28.54 30.37 28.79 31.18C28.97 31.76 30.57 32.49 31 33.13C31.43 33.77 31.62 35.38 32.1 35.79C32.65 36.27 34.27 35.93 35.05 36.09C36.02 36.29 36.82 37.64 37.84 37.58C38.61 37.53 39.47 36.33 40.34 36.12C41.21 35.91 42.45 36.29 43.2 35.83C43.81 35.46 43.93 33.83 44.44 33.11C44.95 32.39 46.57 31.76 46.7 31C46.83 30.24 45.98 29.01 46 28.19C46.02 27.37 46.92 25.98 46.62 25.23C46.37 24.61 45.03 24.04 44.54 23.45C43.91 22.69 43.9 21.03 43.16 20.57C42.61 20.23 41.27 20.51 40.52 20.37C39.51 20.18 38.42 18.69 37.55 18.81H37.56ZM27.93 42.15C28.75 42.03 30.05 41.17 30.85 41.52C31.65 41.87 31.55 44.29 31.84 44.29L35.64 37.75C34.92 36.88 33.93 37.26 32.95 37.18C32.28 37.13 31.72 36.94 31.23 36.47L27.93 42.16V42.15ZM47.54 42.26L44.24 36.47C43.68 36.89 43.22 37.12 42.51 37.18C41.8 37.24 40.25 36.95 39.86 37.69C39.68 38.03 43.26 43.59 43.63 44.39C44.07 43.29 43.65 41.19 45.43 41.47C45.77 41.52 47.01 41.92 47.36 42.06C47.49 42.11 47.37 42.3 47.53 42.26H47.54Z" fill="#5C5B5B"/>
      <path d="M30.8 25.88C30.37 25.45 31.34 23.98 31.65 23.58C31.92 23.22 32.61 22.25 33.12 22.81C33.55 23.28 32.46 24.33 32.16 24.8C31.94 25.15 31.75 25.96 31.33 26.01C31.19 26.03 30.9 25.98 30.8 25.88Z" fill="#5C5B5B"/>
      <path d="M34.92 21.15C35.87 20.97 36.07 21.81 35.42 22.16C33.77 23.05 33.5 21.41 34.92 21.15Z" fill="#5C5B5B"/>
      <path d="M43.17 28.22C43.17 31.23 40.73 33.67 37.72 33.67C34.71 33.67 32.27 31.23 32.27 28.22C32.27 25.21 34.71 22.77 37.72 22.77C40.73 22.77 43.17 25.21 43.17 28.22ZM42.08 28.22C42.08 25.81 40.13 23.86 37.72 23.86C35.31 23.86 33.36 25.81 33.36 28.22C33.36 30.63 35.31 32.58 37.72 32.58C40.13 32.58 42.08 30.63 42.08 28.22Z" fill="#5C5B5B"/>
      <path d="M40.49 27.06C40.75 27.32 40.79 27.73 40.71 28.07C40.61 28.51 39.92 28.84 39.83 29.13C39.68 29.65 40.34 30.43 39.56 30.99C38.72 31.6 38.18 30.62 37.73 30.62C37.22 30.62 36.79 31.51 35.96 31.03C34.99 30.47 35.73 29.67 35.62 29.12C35.54 28.7 34.39 28.41 34.71 27.46C35.03 26.51 35.84 26.92 36.36 26.67C36.78 26.47 36.71 25.29 37.73 25.29C38.75 25.29 38.68 26.47 39.1 26.67C39.46 26.84 40.06 26.65 40.49 27.06ZM39.51 27.83C38.55 27.8 38 27.62 37.78 26.61C37.42 26.8 37.43 27.41 37.11 27.62C36.85 27.79 36.27 27.76 35.95 27.83C36.07 28.12 36.67 28.45 36.74 28.71C36.85 29.09 36.53 29.48 36.71 29.86C37.58 29.33 37.92 29.43 38.79 29.86C38.49 28.81 38.74 28.48 39.5 27.83H39.51Z" fill="#5C5B5B"/>
      <path d="M29.06 15.51C29.06 21.27 24.39 25.94 18.63 25.94C12.87 25.94 8.20001 21.27 8.20001 15.51C8.20001 9.75002 12.87 5.08002 18.63 5.08002C24.39 5.08002 29.06 9.75002 29.06 15.51ZM21.23 18.08C23.12 18.48 24.82 19.55 26.16 20.92C31.48 13.56 24.25 3.78002 15.57 6.67002C9.72001 8.62002 7.53001 15.88 10.98 20.92C11.13 20.96 11.15 20.88 11.23 20.82C11.71 20.49 12.22 19.89 12.77 19.52C13.76 18.85 14.88 18.33 16.05 18.08C15.43 17.39 14.81 16.85 14.48 15.95C12.91 11.7 17.98 8.05002 21.49 10.97C23.81 12.9 23.47 16.24 21.23 18.08ZM21.98 14.37C21.98 12.52 20.48 11.03 18.64 11.03C16.8 11.03 15.3 12.53 15.3 14.37C15.3 16.21 16.8 17.71 18.64 17.71C20.48 17.71 21.98 16.21 21.98 14.37ZM18.06 18.82C16.4 18.92 14.74 19.5 13.38 20.43C13.11 20.61 11.93 21.52 11.83 21.73C11.71 21.99 12.97 22.92 13.22 23.09C17.05 25.78 22.38 25.3 25.5 21.78C23.6 19.77 20.84 18.65 18.07 18.81L18.06 18.82Z" fill="#C1D13F"/>
      <path d="M11.79 31C11.74 31.07 11.96 31.48 11.98 31.65C12.44 36.4 6.55003 37.7 4.86003 34C3.17003 30.3 7.81003 26.82 10.88 29.61C11 29.72 11.16 30.05 11.23 30.07C11.32 30.09 12.26 29.08 12.56 29.96C12.77 30.59 11.98 30.74 11.8 30.99L11.79 31ZM10.36 30.88C9.86003 29.8 8.51003 29.48 7.42003 29.82C5.63003 30.37 5.04003 32.57 6.16003 34.02C7.88003 36.26 11.49 34.51 10.87 31.79C10.77 31.66 8.63003 33.74 8.26003 33.81C7.72003 33.91 6.55003 32.56 7.16003 32.09C7.72003 31.65 8.12003 32.5 8.18003 32.5C8.34003 32.52 9.99003 30.95 10.36 30.88Z" fill="#5C5B5B"/>
      <path d="M12.07 39.64C12.55 40.12 11.75 40.6 11.71 40.8C11.68 40.96 11.95 41.46 11.99 41.71C12.54 45.77 7.65 47.84 5.25 44.69C2.85 41.54 6.45 37.27 9.97 39.06C10.25 39.2 10.87 39.8 10.95 39.82C11.18 39.88 11.63 39.21 12.07 39.65V39.64ZM10.87 41.65C10.69 41.6 10.67 41.72 10.57 41.8C10.1 42.16 8.57 43.86 8.18 43.88C7.55 43.92 6.38 42.19 7.38 42.05C7.95 41.97 8.12 42.56 8.19 42.56C8.33 42.56 9.94 40.85 10.16 40.6C8.04 38.37 4.45 40.93 5.92 43.72C7.39 46.51 11.7 44.71 10.88 41.66L10.87 41.65Z" fill="#5C5B5B"/>
      <path d="M15.51 30.09L25.44 30.07C26.21 30.09 26.37 31.09 25.54 31.19H15.58C14.93 31.12 14.84 30.24 15.51 30.09Z" fill="#5C5B5B"/>
      <path d="M15.41 33.54L21.99 33.52C22.83 33.6 22.88 34.54 21.99 34.64C20.69 34.79 16.99 34.79 15.69 34.64C14.98 34.56 14.81 33.93 15.41 33.54Z" fill="#5C5B5B"/>
      <path d="M15.51 40.14L24.02 40.12C24.78 40.12 25.04 41.13 24.23 41.24H15.59C14.88 41.15 14.86 40.34 15.52 40.14H15.51Z" fill="#5C5B5B"/>
      <path d="M15.51 43.6C17.23 43.71 19.3 43.38 20.97 43.58C21.82 43.68 21.81 44.58 21.06 44.69C19.36 44.55 17.34 44.89 15.68 44.69C14.92 44.6 14.78 43.86 15.5 43.59L15.51 43.6Z" fill="#5C5B5B"/>
  </symbol>

  <symbol id="icono-brujula-vo" viewBox="0 0 52 50" fill="none">
      <path d="M12.07 8.32998C11.93 7.48998 12.3 6.46998 13.19 6.22998C13.87 6.04998 17.71 6.09998 18.56 6.17998C19.78 6.28998 20.16 7.20998 20.14 8.32998C21.41 8.43998 22.94 8.17998 24.18 8.32998C24.49 8.36998 24.71 8.48998 24.95 8.68998C26.25 9.74998 25.1 11.93 24.95 13.29C24.72 15.43 25.27 18.27 24.93 20.32C24.81 21.05 23.88 21.82 23.16 21.92C18.64 21.68 13.74 22.27 9.26001 21.93C8.26001 21.85 7.32001 21.17 7.18001 20.13C6.89001 18.02 7.41001 15.33 7.18001 13.19C7.06001 12.07 6.16001 10.08 6.83001 9.05998C6.94001 8.88998 7.58001 8.33998 7.75001 8.33998H12.1L12.07 8.32998ZM18.61 8.32998C18.6 8.04998 18.72 7.64998 18.35 7.60998C16.93 7.73998 15.22 7.43998 13.85 7.60998C13.37 7.66998 13.51 7.90998 13.5 8.32998H18.61ZM23.98 9.75998H8.08001C8.32001 10.91 7.95001 12.79 9.46001 12.93C9.90001 12.97 13.32 13.02 13.49 12.91C13.75 12.75 13.51 12.1 14.57 12C15.22 11.94 17.26 11.9 17.84 12.01C18.42 12.12 18.61 12.91 18.68 12.93C19.95 12.76 21.83 13.16 23.02 12.88C23.32 12.81 23.57 12.61 23.68 12.31C23.78 12.05 24.13 10.23 24.12 9.97998C24.12 9.87998 24.07 9.76998 23.99 9.74998L23.98 9.75998ZM14.93 13.44V13.85H17.18V13.44H14.93ZM8.59001 14.36V19.83C8.59001 20.15 9.02001 20.46 9.35001 20.4H22.96C23.16 20.47 23.52 20.06 23.52 19.94V14.37C21.92 14.54 20.3 14.46 18.68 14.47C18.48 14.87 18.2 15.27 17.72 15.37C17.24 15.47 14.75 15.46 14.32 15.35C13.69 15.19 13.68 14.54 13.35 14.48C11.76 14.46 10.17 14.55 8.60001 14.38L8.59001 14.36Z" fill="#C1D13F"/>
      <path d="M8.71001 32.24C8.76001 32.28 9.32001 32.26 9.46001 32.25C12.85 32.07 16.96 30.99 20.22 31.92C23.48 32.85 26.76 36.28 30.01 36.55C31.6 36.68 33.16 36.22 34.63 37.05C35.89 37.75 36.66 39.48 36.1 40.85C39.36 39.76 42.44 38.24 45.51 36.71C46.23 36.35 46.89 35.82 47.68 35.6C50.73 34.75 52.72 37.46 50.81 40.06C48.9 42.66 41.2 46.89 38.08 48.29C29.82 52.01 21.24 48.69 12.82 47.5C11.53 47.32 10.24 47.22 8.95001 47.07C8.65001 47.09 8.66001 47.54 8.53001 47.78C8.19001 48.41 7.50001 49.07 6.78001 49.2C4.96001 49.5 2.47001 49.03 0.570012 49.22C0.150012 49.15 -0.00998833 48.87 1.16668e-05 48.46L0.0600117 30.62C0.230012 30.43 0.390012 30.2 0.670012 30.2C2.85001 30.54 6.99001 29.3 8.38001 31.4C8.52001 31.61 8.68001 32.21 8.72001 32.24H8.71001ZM1.44001 47.79H6.40001C6.40001 47.79 6.85001 47.54 6.91001 47.48C7.29001 47.14 7.34001 46.69 7.37001 46.21C7.68001 41.99 7.13001 37.38 7.37001 33.12C7.41001 32.68 6.98001 31.74 6.50001 31.74H1.44001V47.79ZM8.80001 33.78V45.64C14.63 45.8 20.25 47.7 26.03 48.3C32.46 48.96 35.46 48.17 40.97 45.15C42.89 44.1 48.9 40.61 49.82 38.87C50.54 37.5 49.64 36.74 48.24 36.98C47.41 37.12 45.06 38.63 44.11 39.09C39.83 41.17 34.32 43.77 29.5 43.5C27.77 43.4 22.53 42.4 21.33 41.25C20.88 40.82 20.96 40.06 21.56 39.94C21.98 39.86 23.34 40.64 23.89 40.84C26.3 41.73 31.43 42.66 33.76 41.51C35.4 40.7 34.96 38.27 33.19 38.08C32.33 37.99 31.31 38.14 30.42 38.08C25.09 37.75 21.82 32.22 16.21 33.07L8.80001 33.78Z" fill="#5C5B5B"/>
      <path d="M6.58001 44.66C6.58001 45.87 5.60001 46.85 4.39001 46.85C3.18001 46.85 2.20001 45.87 2.20001 44.66C2.20001 43.45 3.18001 42.47 4.39001 42.47C5.60001 42.47 6.58001 43.45 6.58001 44.66ZM5.09001 44.67C5.09001 44.28 4.77001 43.96 4.38001 43.96C3.99001 43.96 3.67001 44.28 3.67001 44.67C3.67001 45.06 3.99001 45.38 4.38001 45.38C4.77001 45.38 5.09001 45.06 5.09001 44.67Z" fill="#5C5B5B"/>
      <path d="M44.99 5.36L43.26 5.77C43.11 5.92 43.35 9.38 43.25 10C43.18 10.42 42.81 10.52 42.75 10.83C42.68 11.21 42.83 11.6 42.81 11.94C42.7 14.48 41.61 16.36 39.58 17.83C42.34 18.5 45.09 20.12 46.99 22.23C47.41 22.7 48.21 23.61 48.27 24.22C48.42 25.88 48.42 29.31 48.27 30.98C48.23 31.38 48.15 31.63 47.76 31.8L24.11 31.82C23.83 31.72 23.53 31.51 23.52 31.18C23.71 28.93 23.28 26.32 23.52 24.11C23.57 23.61 24.25 22.83 24.6 22.43C26.54 20.21 29.34 18.52 32.22 17.83C30.34 16.49 29.03 14.53 28.94 12.16C28.91 11.28 28.94 10.93 28.84 10.01C28.76 9.35 28.97 6.11 28.8 5.86C27.81 5.44 26.58 5.35 25.59 4.98C24.95 4.74 24.65 4.28 24.76 3.58C24.87 2.88 25.61 2.7 26.16 2.53C29.39 1.51 32.77 0.8 36.05 0C39.66 0.76 43.22 1.81 46.77 2.82C47.36 3.26 47.55 3.92 47.09 4.54C46.94 4.74 46.6 4.89 46.55 5.02C46.49 5.2 46.51 6.97 46.59 7.1C46.65 7.2 47.05 7.42 47.24 7.68C47.56 8.13 47.65 8.64 47.56 9.19C47.52 9.45 47.28 9.67 47.29 9.89C47.3 10.11 47.53 10.5 47.57 10.83C47.63 11.35 47.64 12.9 47.57 13.38C47.51 13.75 47.11 14.21 46.76 14.31C46.11 14.5 44.75 14.48 44.3 13.9C43.88 13.36 43.91 11.64 43.99 10.93C44.03 10.61 44.29 10.14 44.27 9.92C44.25 9.75 44.02 9.46 43.96 9.22C43.82 8.68 43.91 8.24 44.21 7.77C44.38 7.5 45.01 7.09 45.01 7.04V5.35L44.99 5.36ZM43.25 3.32L36.04 1.47C33.19 2.24 30.28 2.89 27.45 3.72C27.3 3.76 27.27 3.66 27.3 3.93L36.04 6.19L41.31 4.8C41.31 4.8 40.66 4.66 40.54 4.65C39.22 4.5 37.76 4.52 36.46 4.33C35.16 4.14 35.28 2.74 36.76 2.81C38.24 2.88 39.82 3.08 41.26 3.22C41.9 3.28 42.57 3.37 43.21 3.52L43.26 3.32H43.25ZM41.72 6.28C39.78 6.69 37.91 7.37 35.95 7.7L30.27 6.28C30.32 6.63 30.15 7.31 30.37 7.56C30.43 7.63 31.16 7.96 31.32 8.04C33.77 9.13 36.9 9.21 39.47 8.48C39.94 8.35 41.31 7.88 41.66 7.62C41.82 7.5 41.67 6.54 41.72 6.28ZM46.1 8.77C46.1 8.57 45.94 8.41 45.74 8.41C45.54 8.41 45.38 8.57 45.38 8.77C45.38 8.97 45.54 9.13 45.74 9.13C45.94 9.13 46.1 8.97 46.1 8.77ZM41.72 9.25C38.51 10.65 35.07 10.83 31.72 9.79C31.31 9.66 30.79 9.34 30.41 9.26C30.2 9.22 30.23 9.4 30.27 9.5C30.3 9.59 31.31 10.04 31.5 10.11C34.18 11.18 37.25 11.23 39.99 10.32C40.39 10.19 41.25 9.87 41.56 9.64C41.73 9.51 41.76 9.48 41.73 9.25H41.72ZM46.12 12.93V11.04C46.12 10.59 45.51 10.38 45.51 10.84V12.94H46.12V12.93ZM30.47 11.29V12.77C30.47 13.67 31.58 15.39 32.26 15.99C35.95 19.25 41.78 16.24 41.26 11.39C37.88 12.86 33.83 12.76 30.47 11.29ZM37.73 18.96C36.48 18.79 35.2 18.83 33.95 18.96C34.18 19.23 35.76 20.92 35.93 20.89C36.6 20.31 37.16 19.63 37.73 18.96ZM33.34 23.35C33.49 23.39 33.51 23.31 33.6 23.25C33.76 23.14 34.79 22.09 34.77 21.98L32.32 19.41C32.02 19.28 31.53 19.65 31.2 19.67L33.35 23.35H33.34ZM40.59 19.68C40.26 19.66 39.77 19.29 39.47 19.42L36.91 21.98L38.29 23.36L40.59 19.68ZM24.95 24.33V30.31H46.73V24.23C45.39 22.63 43.83 21.19 41.93 20.29L38.9 25.19C38 25.98 36.28 23.09 35.86 23.16L33.7 25.2C33.18 25.45 32.95 25.31 32.64 24.92C32.17 24.34 29.98 20.3 29.71 20.3C28.44 21.05 27.16 21.88 26.13 22.95C25.98 23.11 24.98 24.24 24.96 24.33H24.95Z" fill="#5C5B5B"/>
  </symbol>

  <symbol id="icono-futuro-profesional" viewBox="0 0 46 50" fill="none">
      <path d="M33.26 36.98C33.25 37.03 33.23 37.08 33.22 37.13C33.22 37.15 33.22 37.17 33.22 37.19C33.22 37.22 33.22 37.24 33.22 37.27C33.22 37.3 33.23 37.32 33.23 37.33C33.23 37.35 33.23 37.37 33.24 37.38C33.24 37.39 33.25 37.41 33.26 37.42C33.26 37.42 33.28 37.44 33.29 37.45C33.31 37.46 33.33 37.47 33.34 37.48C33.37 37.48 33.39 37.5 33.42 37.5C33.48 37.52 33.54 37.55 33.59 37.59L36.74 37.61C36.8 37.59 36.87 37.58 36.93 37.59C36.93 37.58 36.94 37.57 36.95 37.56C36.95 37.56 36.95 37.55 36.95 37.54C36.95 37.51 36.96 37.49 36.96 37.49C36.99 37.39 37.03 37.29 37.05 37.18C37.05 37.15 37.05 37.13 37.06 37.1C37.06 37.04 37.07 36.99 37.07 36.93C37.07 36.91 37.07 36.88 37.07 36.86C37.05 36.8 37.07 36.79 37.07 36.86C37.07 36.87 37.07 36.88 37.08 36.9C37.08 36.88 37.08 36.85 37.07 36.83C37.07 36.82 37.07 36.8 37.06 36.79C37.04 36.76 37.03 36.73 37.02 36.71C37.02 36.71 37.02 36.71 37.01 36.7C36.99 36.67 36.96 36.65 36.94 36.63C36.87 36.58 36.8 36.54 36.72 36.5C36.72 36.5 36.71 36.5 36.7 36.5C36.67 36.49 36.64 36.48 36.61 36.47C36.53 36.44 36.45 36.42 36.37 36.41C36.36 36.41 36.36 36.41 36.35 36.41C36.31 36.41 36.28 36.41 36.24 36.41C36.2 36.41 36.17 36.39 36.14 36.39H34.06C34.06 36.39 34.08 36.33 34.1 36.29C34.02 36.36 33.92 36.4 33.81 36.42C33.78 36.42 33.76 36.43 33.73 36.44C33.71 36.44 33.68 36.46 33.66 36.47C33.67 36.47 33.68 36.47 33.69 36.47C33.67 36.48 33.65 36.5 33.62 36.51C33.58 36.56 33.57 36.56 33.58 36.54C33.55 36.56 33.53 36.58 33.51 36.61C33.49 36.63 33.47 36.65 33.46 36.67C33.43 36.72 33.4 36.76 33.37 36.81C33.34 36.86 33.32 36.92 33.29 36.97C33.29 36.97 33.29 36.96 33.3 36.95C33.3 36.97 33.28 37 33.28 37.02L33.26 36.98Z" fill="#5C5B5B"/>
      <path d="M45.41 10.37C45.5 9.56999 44.2 8.12999 43.48 8.12999H38.85V8.10999C38.85 8.10999 38.83 8.11999 38.81 8.13999C38.78 8.16999 38.74 8.19999 38.71 8.23999C38.68 8.27999 38.68 8.28999 38.71 8.23999C38.71 8.23999 38.71 8.23999 38.72 8.21999C38.71 8.23999 38.69 8.25999 38.68 8.27999C38.66 8.31999 38.64 8.34999 38.62 8.38999C38.62 8.39999 38.62 8.40999 38.61 8.42999C38.6 8.46999 38.58 8.51999 38.58 8.55999C38.58 8.55999 38.58 8.55999 38.58 8.56999C38.58 8.61999 38.58 8.65999 38.58 8.70999C38.58 8.72999 38.58 8.74999 38.58 8.75999C38.58 8.79999 38.59 8.83999 38.61 8.86999C38.62 8.90999 38.63 8.94999 38.65 8.98999C38.65 8.99999 38.66 9.01999 38.67 9.02999C38.69 9.06999 38.72 9.10999 38.74 9.14999C38.74 9.15999 38.76 9.17999 38.77 9.18999C38.8 9.21999 38.84 9.24999 38.87 9.27999V9.24999H43.09C43.56 9.24999 44.29 10.08 44.29 10.55V36.32H41.22C41.17 36.36 41.12 36.4 41.06 36.42C41.06 36.42 41.06 36.42 41.05 36.42C41.05 36.42 41.04 36.43 41.03 36.44C41.03 36.45 41.01 36.47 41.01 36.48C41.01 36.5 41 36.52 41 36.52C41 36.54 40.98 36.57 40.98 36.59C40.98 36.59 40.98 36.62 40.98 36.63C40.98 36.63 40.98 36.64 40.98 36.65C40.98 36.71 40.98 36.76 40.98 36.82C40.98 36.82 40.98 36.84 40.98 36.85C40.98 36.85 40.98 36.86 40.98 36.87C40.98 36.91 41 36.96 41.01 37C41.02 37.04 41.04 37.14 41.07 37.16C41.04 37.09 41.04 37.08 41.07 37.13C41.07 37.14 41.08 37.16 41.09 37.17C41.11 37.2 41.12 37.22 41.14 37.25C41.16 37.27 41.18 37.3 41.2 37.32C41.25 37.37 41.3 37.41 41.34 37.45C41.26 37.37 41.34 37.45 41.37 37.46C41.4 37.48 41.44 37.5 41.48 37.52C41.51 37.54 41.54 37.56 41.58 37.57C41.59 37.57 41.61 37.57 41.62 37.57C41.65 37.57 41.67 37.59 41.7 37.6C41.7 37.56 41.7 37.53 41.71 37.53H44.31C44.4 38.61 44.17 39.71 42.91 39.83H2.44998C1.27998 39.63 1.05998 38.56 1.14998 37.53H28.64C28.64 37.53 28.64 37.54 28.64 37.55C28.71 37.51 28.78 37.47 28.84 37.43C28.86 37.42 28.88 37.4 28.9 37.39C28.91 37.38 28.93 37.36 28.93 37.36C28.95 37.34 28.97 37.32 28.99 37.3C29 37.28 29.02 37.26 29.03 37.23C29.03 37.23 29.03 37.22 29.04 37.21C29.06 37.14 29.08 37.06 29.1 36.98C29.1 36.96 29.1 36.94 29.11 36.91C29.11 36.89 29.11 36.86 29.11 36.84C29.11 36.82 29.11 36.8 29.11 36.78C29.12 36.67 29.13 36.55 29.13 36.44C29.13 36.42 29.13 36.35 29.13 36.31C29.13 36.3 29.13 36.29 29.13 36.28H1.14998V10.58C1.14998 10.1 1.86998 9.27999 2.34998 9.27999H6.49998C6.49998 9.27999 6.51998 9.26999 6.51998 9.25999C6.55998 9.22999 6.60998 9.19999 6.64998 9.16999C6.68998 9.13999 6.71998 9.08999 6.64998 9.16999C6.66998 9.14999 6.68998 9.13999 6.69998 9.12999C6.73998 9.09999 6.76998 9.05999 6.79998 9.02999C6.81998 8.99999 6.83998 8.96999 6.84998 8.93999C6.84998 8.92999 6.89998 8.85999 6.89998 8.83999C6.87998 8.89999 6.86998 8.90999 6.87998 8.86999C6.87998 8.84999 6.88998 8.83999 6.89998 8.81999C6.91998 8.76999 6.92998 8.70999 6.93998 8.64999C6.93998 8.62999 6.93998 8.60999 6.93998 8.58999C6.93998 8.57999 6.93998 8.55999 6.93998 8.54999C6.93998 8.52999 6.93998 8.51999 6.92998 8.49999C6.90998 8.46999 6.89998 8.43999 6.87998 8.40999C6.86998 8.39999 6.85998 8.37999 6.83998 8.36999C6.80998 8.32999 6.76998 8.29999 6.72998 8.26999C6.70998 8.24999 6.68998 8.23999 6.66998 8.21999C6.61998 8.18999 6.57998 8.14999 6.52998 8.11999H1.92998C1.20998 8.12999 -0.0900158 9.56999 -1.58069e-05 10.37V38.8C0.0499842 39.68 0.749984 40.57 1.55998 40.88C1.77998 40.96 2.45998 41.14 2.64998 41.14H18.53C18.15 43.84 16.05 45.69 13.36 45.92C12.23 46.02 10.92 45.81 9.82998 45.93C9.26998 45.99 9.10998 46.29 9.04998 46.82C8.98998 47.37 8.94998 49.45 9.30998 49.79C9.46998 49.95 9.70998 50 9.92998 50H35.66C35.94 50 36.24 49.93 36.36 49.66C36.49 49.38 36.49 47.04 36.44 46.61C36.42 46.41 36.39 46.23 36.23 46.09C35.86 45.77 32.98 45.98 32.24 45.92C29.56 45.69 27.39 43.86 27.07 41.14H42.74C42.93 41.14 43.61 40.96 43.83 40.88C44.7 40.55 45.36 39.63 45.4 38.7V10.37H45.41ZM35.31 47.08V48.85H10.31V47.08H35.3H35.31ZM28.64 45.93H16.98C18.42 44.74 19.65 43.09 19.69 41.14L25.85 41.2C26.08 43.17 27.14 44.72 28.65 45.93H28.64Z" fill="#5C5B5B"/>
      <path d="M30.52 36.35C30.37 36.28 30.24 36.42 30.31 36.45C30.46 36.52 30.59 36.38 30.52 36.35Z" fill="#5C5B5B"/>
      <path d="M6.56 33.91C6.56 33.91 6.97 34.27 7.03 34.27H29.99L29.16 36.35L28.64 37.6C28.47 37.88 28.57 38.21 28.87 38.36C29.41 38.62 30.58 37.69 31.08 37.4C31.32 37.4 31.56 39.44 31.96 39.64C33 40.14 34.04 36.36 34.04 36.36C34.42 35.26 34.38 35.85 35.13 35.85C35.41 35.85 35.88 35.61 35.91 35.63C35.94 35.65 37.26 39.25 37.47 39.51C37.65 39.73 38.05 39.72 38.29 39.62C38.61 39.48 38.92 37.81 39.04 37.4C39.12 37.32 40.71 38.45 41.07 38.45C41.79 38.45 41.58 37.61 41.64 37.61L41.17 36.36C40.98 35.82 39.93 33.82 39.97 33.39C40 33.1 41.23 32.7 41.51 32.12C41.8 31.51 41.62 30.99 41.7 30.45C41.82 29.63 42.59 29.27 42.46 28.2C42.39 27.6 41.92 27.22 41.77 26.7C41.58 26.06 41.86 25.48 41.45 24.73C41.09 24.08 40.34 24.01 39.91 23.56C39.69 23.33 39.49 22.83 39.28 22.52C39.2 22.4 38.82 22.08 38.82 22.04V6.40999C36.64 4.29999 34.57 2.01999 32.31 0.00998621H7.24C7.01 -0.0300138 6.57 0.109986 6.57 0.369986V33.9L6.56 33.91ZM32.49 37.19C32.17 37.04 32.24 36.57 32.1 36.28C31.68 35.42 30.69 36.43 30.52 36.25L31.04 34.69C31.3 34.61 31.65 35 31.82 35H33.33L32.5 37.19H32.49ZM38.18 36.26C38.1 36.41 37.93 37.29 37.86 37.29L36.97 35C37.42 34.94 38.06 35.08 38.48 35C38.61 34.97 39.12 34.56 39.16 34.58L39.79 36.35C39.7 36.45 38.64 35.41 38.18 36.25V36.26ZM39.09 24.45C39.38 24.75 40.33 25.11 40.46 25.32C40.6 25.55 40.47 26.47 40.56 26.89C40.66 27.39 41.19 27.93 41.24 28.3C41.33 28.95 40.65 29.43 40.54 30.09C40.47 30.52 40.63 31.35 40.42 31.64C40.3 31.81 39.51 32.13 39.21 32.41C38.84 32.76 38.5 33.61 38.27 33.76C37.89 34.01 37.12 33.8 36.64 33.9C36.21 33.99 35.73 34.51 35.34 34.59C34.73 34.71 34.21 34.01 33.57 33.91C33.1 33.83 32.38 34 32.03 33.79C31.77 33.64 31.54 32.9 31.26 32.58C30.94 32.22 29.93 31.76 29.85 31.59C29.71 31.3 29.83 30.44 29.66 29.9C29.53 29.46 29.03 28.92 28.98 28.59C28.91 28.19 29.55 27.46 29.69 26.94C29.82 26.47 29.73 25.51 29.9 25.27C30.02 25.1 30.81 24.78 31.11 24.5C31.56 24.07 31.79 23.07 32.36 23.04C32.8 23.02 33.11 23.17 33.68 23.01C34.11 22.89 34.76 22.34 35.07 22.31C35.48 22.27 36.1 22.87 36.56 23C37.06 23.14 37.96 22.99 38.27 23.17C38.53 23.32 38.83 24.18 39.11 24.47L39.09 24.45ZM32.6 1.98999L32.81 2.03999L36.72 5.94999L36.77 6.15999C36.65 6.19999 36.54 6.05999 36.51 6.05999H32.71C32.61 4.85999 32.85 3.42999 32.71 2.25999C32.71 2.21999 32.56 2.12999 32.61 1.99999L32.6 1.98999ZM12.71 5.78999V1.14999H16.04V5.93999C15.5 5.67999 15.02 4.51999 14.42 4.47999C13.94 4.44999 13.11 5.67999 12.76 6.03999C12.42 6.05999 12.71 5.82999 12.71 5.77999V5.78999ZM7.71 1.14999H11.46V7.65999C11.46 7.85999 11.78 8.21999 12.04 8.22999C12.71 8.22999 13.8 6.49999 14.33 6.04999C14.46 6.01999 14.89 6.49999 15 6.61999C15.42 7.06999 16.25 8.41999 16.9 8.21999C17.02 8.17999 17.29 7.83999 17.29 7.76999V1.14999H31.45V6.82999C31.45 6.92999 31.81 7.29999 31.92 7.29999H37.7V21.88C36.3 22.03 35.9 20.63 34.4 21.23C34.03 21.38 33.72 21.74 33.33 21.83C32.32 22.06 31.84 21.52 30.98 22.5C30.68 22.84 30.51 23.41 30.25 23.65C29.85 24.03 29.21 24.05 28.79 24.69C28.33 25.4 28.66 26.01 28.5 26.69C28.43 27.01 27.94 27.52 27.84 27.91C27.51 29.2 28.32 29.43 28.5 30.28C28.66 31.07 28.3 31.85 29.05 32.54C29.23 32.71 29.74 32.88 29.77 32.91C30.1 33.26 29.43 33.01 29.41 33.01H7.71V1.14999Z" fill="#C1D13F"/>
      <path d="M30.52 36.35C30.37 36.28 30.24 36.42 30.31 36.45C30.46 36.52 30.59 36.38 30.52 36.35Z" fill="#C1D13F"/>
      <path d="M10.44 19.82C10.57 19.69 11.09 19.6 11.3 19.58H31.41C32.39 19.51 32.7 20.59 31.72 20.84H10.88C10.39 20.86 10.11 20.15 10.44 19.82Z" fill="#C1D13F"/>
      <path d="M10.44 23.46C10.57 23.33 11.09 23.24 11.3 23.22C15.8 22.84 20.81 23.51 25.37 23.22C26.35 23.13 26.76 24.35 25.68 24.48H10.89C10.4 24.5 10.12 23.79 10.45 23.46H10.44Z" fill="#C1D13F"/>
      <path d="M10.44 27.11C10.55 26.99 10.82 26.99 10.98 26.98H25.78C26.57 27.09 26.44 28.13 25.67 28.13H10.88C10.39 28.15 10.11 27.44 10.44 27.11Z" fill="#C1D13F"/>
      <path d="M10.8 12.32L19.94 12.3C20.8 12.31 20.89 13.45 20.05 13.56H10.88C10.15 13.48 10.07 12.49 10.8 12.33V12.32Z" fill="#C1D13F"/>
      <path d="M17.47 15.97L34.21 15.94C35.1 16.01 35.26 17.1 34.31 17.19L17.18 17.13C16.63 16.73 16.77 16.05 17.46 15.96L17.47 15.97Z" fill="#C1D13F"/>
      <path d="M10.91 15.97C11.53 15.86 14.1 15.85 14.73 15.95C15.52 16.07 15.63 17.06 14.83 17.19C14.26 17.28 11.32 17.3 10.78 17.19C10.16 17.07 10.04 16.12 10.91 15.97Z" fill="#C1D13F"/>
      <path d="M39.41 28.45C39.41 30.81 37.49 32.73 35.13 32.73C32.77 32.73 30.85 30.81 30.85 28.45C30.85 26.09 32.77 24.17 35.13 24.17C37.49 24.17 39.41 26.09 39.41 28.45ZM38.21 28.45C38.21 26.75 36.83 25.37 35.13 25.37C33.43 25.37 32.05 26.75 32.05 28.45C32.05 30.15 33.43 31.53 35.13 31.53C36.83 31.53 38.21 30.15 38.21 28.45Z" fill="#C1D13F"/>
      <path d="M36.32 27.1C36.79 27 37.2 27.37 37.06 27.84C36.95 28.21 35.44 29.38 35.1 29.73C34.76 30.09 33.37 28.93 33.28 28.74C33.05 28.25 33.4 27.68 33.96 27.85C34.18 27.92 34.69 28.41 34.74 28.41C35.03 28.41 35.88 27.19 36.33 27.1H36.32Z" fill="#C1D13F"/>  
  </symbol>
  
</svg>