<svg xmlns="http://www.w3.org/2000/svg" xmlns:xlink="http://www.w3.org/1999/xlink" style="display:none">

  <symbol id="conoce" viewBox="0 0 50 50" fill="none">
    <path d="M12.8919 44.94C12.7819 45.05 12.4319 45.15 12.2719 45.17C11.7119 45.23 9.99192 45.25 9.47192 45.17C8.65192 45.04 8.65192 43.76 9.39192 43.59C9.81192 43.5 12.0119 43.5 12.4719 43.57C13.1219 43.67 13.3219 44.52 12.9019 44.94H12.8919Z" fill="#5B5A5A"/>
    <path d="M9.28192 39.58C9.51192 39.51 12.4219 39.51 12.6519 39.58C13.3419 39.78 13.2719 40.97 12.3519 41.14C11.8519 41.23 10.0919 41.23 9.59193 41.14C8.67193 40.98 8.64193 39.77 9.29193 39.58H9.28192Z" fill="#5B5A5A"/>
    <path d="M21.1619 44.94C21.0419 44.8 20.9519 44.41 20.9319 44.22C20.8419 43.32 20.7919 39.61 20.9719 38.85C21.1319 38.16 21.8019 38.06 22.3619 38.37C23.1719 38.81 23.3519 39.26 24.4819 39.26C25.6119 39.26 25.7919 38.81 26.6019 38.37C27.3219 37.98 27.9419 38.28 28.0419 39.1C28.1719 40.22 28.1519 42.97 28.0419 44.12C27.9819 44.78 27.7819 45.11 27.0919 45.17C25.8819 45.28 22.8419 45.32 21.6719 45.17C21.5119 45.15 21.2519 45.05 21.1519 44.94H21.1619ZM26.3519 40.56C25.0419 41.11 23.8519 41.06 22.5419 40.56V43.57H26.3519V40.56Z" fill="#5B5A5A"/>
    <path d="M4.20192 9.09C6.12192 9.63 6.69192 12.29 5.10192 13.55C3.08192 15.15 0.141923 13.19 0.971923 10.72C1.25192 9.88 1.87192 9.46 2.58192 9.02C2.75192 7.76 2.41192 6.14 2.60192 4.93C2.64192 4.67 2.80192 4.48 3.00192 4.33L16.1919 0C19.7119 1.08 23.2319 2.18 26.7319 3.35C27.2619 3.53 29.6819 4.24 29.9119 4.48C30.2819 4.87 30.2019 5.42 29.8019 5.77L25.8219 7.1L25.6719 7.25C25.5119 9.21 25.8519 11.41 25.6419 13.34C25.5119 14.62 24.5319 15.23 24.4519 15.66C24.2819 16.54 24.5219 17.99 24.4519 18.96C24.3019 20.86 23.3219 22.77 21.9719 24.09L21.9419 27.97L29.2919 29.86C31.3319 30.63 32.6919 32.42 32.8719 34.6C33.0519 36.78 33.0219 40.38 32.8719 42.62C32.6419 46.28 30.0419 49.24 26.3919 49.77C20.3019 49.71 13.8219 50.23 7.76192 49.89C3.32192 49.64 0.371923 46.77 0.101923 42.32C-0.0280766 40.27 -0.148077 34.76 0.511923 33.01C2.06192 28.89 7.55192 29.32 11.0319 27.97C10.8619 27.03 11.2519 25.22 11.0019 24.39C10.9719 24.28 9.95192 23.25 9.74192 22.95C8.90192 21.77 8.33192 20.2 8.22192 18.76C8.15192 17.82 8.38192 16.39 8.22192 15.56C8.18192 15.33 7.65192 14.86 7.50192 14.58C6.51192 12.77 7.28192 9.22 7.01192 7.16C6.94192 6.96 4.61192 6.28 4.22192 6.19V9.1L4.20192 9.09ZM6.10192 5.08C6.00192 5.31 6.24192 5.36 6.40192 5.18L16.4719 8.29L26.5519 5.08L26.3019 4.88L16.3719 1.73L6.10192 5.09V5.08ZM24.0419 7.69L16.6819 10.08L15.8419 9.93L8.70192 7.59V13.55C8.70192 13.86 9.64192 14.7 10.0519 14.6H22.6819C23.2819 14.52 24.0319 13.75 24.0319 13.15V7.69H24.0419ZM4.41192 11.55C4.41192 11.01 3.97192 10.58 3.44192 10.58C2.91192 10.58 2.47192 11.02 2.47192 11.55C2.47192 12.08 2.91192 12.52 3.44192 12.52C3.97192 12.52 4.41192 12.08 4.41192 11.55ZM22.8419 16.1C22.7719 16.07 22.7219 16.2 22.6919 16.2H10.0619C10.0619 16.2 9.92192 16.06 9.81192 16.1V18.76C9.81192 22.29 13.6219 24.99 16.9719 24.72C19.6819 24.5 22.8319 21.78 22.8319 18.96V16.1H22.8419ZM20.3319 28.43V25.32C18.6319 26.26 16.6019 26.56 14.7019 26.19C13.9719 26.05 13.3219 25.7 12.6219 25.52V28.33C13.2219 28.55 16.1419 31.25 16.4619 31.22L20.3319 28.43ZM14.9219 32.04C14.9219 32.04 14.7619 32.01 14.6719 31.94C13.7119 31.09 12.6519 30.35 11.6519 29.56L8.71192 30.24L11.4819 34.34L14.8619 32.25C14.9619 32.25 14.9419 32.06 14.9219 32.04ZM24.4419 30.24C23.4319 30.03 22.4319 29.64 21.4119 29.55C20.4419 30.44 18.9519 31.19 18.0419 32.09C17.9619 32.17 17.9019 32.18 17.9319 32.33C18.5119 32.46 21.2619 34.52 21.5719 34.43C21.8119 34.36 24.0619 30.71 24.4419 30.23V30.24ZM17.2319 48.17H26.4019C28.3919 48.17 30.6719 45.7 31.1119 43.86C31.5819 41.9 31.5019 37.3 31.3719 35.19C31.2719 33.64 30.7019 32.23 29.2319 31.52C28.8919 31.36 26.1019 30.55 25.9519 30.64C25.9319 30.65 26.0119 30.86 25.8319 31.17C24.9219 32.78 23.5219 34.32 22.5919 35.94C22.1419 36.33 21.7419 36.4 21.2119 36.13C20.0119 35.53 18.6019 34.29 17.4319 33.8C17.3319 33.76 17.2519 33.72 17.1419 33.74C17.0919 33.78 17.2419 33.87 17.2419 33.89V48.17H17.2319ZM6.65192 48.17H15.6219V33.64L11.2619 36.31L10.6119 35.97L7.04192 30.75C4.72192 31.17 2.04192 31.64 1.79192 34.49C1.97192 37.25 1.56192 40.29 1.79192 43.02C2.00192 45.44 4.22192 47.87 6.65192 48.18V48.17Z" fill="#5B5A5A"/>
    <path d="M6.40192 5.18002C6.23192 5.36002 6.00193 5.31002 6.10193 5.08002L6.40192 5.18002Z" fill="#5B5A5A"/>
    <path d="M37.9519 4.31C43.2819 3.93 48.3419 7.68 49.6119 12.84C51.7219 21.44 43.5519 29.13 35.1119 26.24C34.6319 26.07 33.1719 25.24 32.9119 25.23C31.8619 25.17 29.8619 25.92 28.6919 26.03C27.7119 26.12 27.4919 25.74 27.5519 24.79C27.6419 23.45 28.4819 21.26 28.4419 20.07C28.4419 19.82 28.0919 19.25 28.0019 18.92C26.0819 11.89 30.5819 4.84 37.9519 4.32V4.31ZM29.3519 24.22C29.5019 24.35 32.6519 23.5 33.3019 23.62C33.5819 23.67 34.3519 24.23 34.7219 24.4C43.8819 28.59 52.6219 17.16 46.1319 9.48C38.7019 0.690002 25.1719 9.75 30.1419 19.96L29.3519 24.21V24.22Z" fill="#C1D13F"/>
    <path d="M47.3219 15.6C47.3219 17.03 46.1619 18.2 44.7219 18.2C43.2819 18.2 42.1219 17.04 42.1219 15.6C42.1219 14.16 43.2819 13 44.7219 13C46.1619 13 47.3219 14.16 47.3219 15.6ZM45.7019 15.51C45.7019 14.97 45.2619 14.53 44.7219 14.53C44.1819 14.53 43.7419 14.97 43.7419 15.51C43.7419 16.05 44.1819 16.49 44.7219 16.49C45.2619 16.49 45.7019 16.05 45.7019 15.51Z" fill="#C1D13F"/>
    <path d="M35.3319 15.59C35.3319 17.02 34.1719 18.18 32.7419 18.18C31.3119 18.18 30.1519 17.02 30.1519 15.59C30.1519 14.16 31.3119 13 32.7419 13C34.1719 13 35.3319 14.16 35.3319 15.59ZM33.7119 15.52C33.7119 14.98 33.2719 14.54 32.7319 14.54C32.1919 14.54 31.7519 14.98 31.7519 15.52C31.7519 16.06 32.1919 16.5 32.7319 16.5C33.2719 16.5 33.7119 16.06 33.7119 15.52Z" fill="#C1D13F"/>
    <path d="M41.3119 15.59C41.3119 17.02 40.1519 18.17 38.7319 18.17C37.3119 18.17 36.1519 17.01 36.1519 15.59C36.1519 14.17 37.3119 13.01 38.7319 13.01C40.1519 13.01 41.3119 14.17 41.3119 15.59ZM39.7019 15.51C39.7019 14.97 39.2619 14.53 38.7219 14.53C38.1819 14.53 37.7419 14.97 37.7419 15.51C37.7419 16.05 38.1819 16.49 38.7219 16.49C39.2619 16.49 39.7019 16.05 39.7019 15.51Z" fill="#C1D13F"/>
  </symbol>

  <symbol id="reflexion" viewBox="0 0 51 51" fill="none">
    <path d="M0.045 26.17C-0.015 25.58 -0.015 24.42 0.045 23.83C0.175 22.49 0.915 20.67 1.685 19.56C2.085 18.97 3.235 17.3 4.025 18.1C4.715 18.79 3.345 19.82 2.935 20.43C-1.605 27.15 5.455 35.68 12.905 32.45C21.265 28.82 18.065 16.06 8.795 16.92C8.065 16.99 6.495 17.63 5.975 17.47C5.455 17.31 5.465 16.51 5.905 16.17C6.885 15.4 9.895 15.28 11.105 15.47C19.265 16.71 22.195 27.09 15.815 32.43C10.055 37.24 0.775 33.6 0.045 26.17Z" fill="#5B5A5A"/>
    <path d="M6.37499 20.24C7.56499 20.05 8.845 20.41 9.67499 21.29C12.185 18.82 16.255 20.84 15.845 24.34C15.595 26.49 12.565 29.94 10.785 31.1C9.31499 32.06 8.23499 30.9 7.17499 29.94C5.07499 28.03 1.99499 24.38 4.24499 21.54C4.69499 20.97 5.64499 20.36 6.36499 20.24H6.37499ZM6.86499 21.7C5.82499 21.81 4.92499 22.81 4.94499 23.86C4.97499 25.48 7.175 27.91 8.355 28.95C8.545 29.11 9.39499 29.87 9.53499 29.93C9.61499 29.97 9.65499 29.99 9.75499 29.97C9.845 29.95 11.015 28.92 11.195 28.76C12.175 27.85 14.075 25.74 14.295 24.44C14.705 22.02 12.195 20.75 10.555 22.56C10.255 22.89 10.235 23.39 9.58499 23.34C9.08499 23.31 8.98499 22.79 8.74499 22.51C8.29499 21.99 7.57499 21.63 6.86499 21.7Z" fill="#C1D13F"/>
    <path d="M39.865 15.36C47.585 14.87 52.725 23.47 48.615 30.07C45.515 35.05 38.645 36.21 34.165 32.33C33.885 32.09 32.965 31.21 32.945 30.9C32.935 30.68 33.145 30.25 33.355 30.15C34.165 29.77 34.785 30.89 35.335 31.35C41.865 36.67 51.345 29.44 47.795 21.62C44.025 13.29 31.205 16.79 32.365 26.12C32.455 26.83 33.305 28.63 32.015 28.63C31.335 28.63 31.185 27.87 31.055 27.33C29.615 21.48 33.875 15.75 39.855 15.37L39.865 15.36Z" fill="#5B5A5A"/>
    <path d="M39.695 25.1C36.985 24.3 36.515 20.87 39.305 19.78C39.415 19.74 39.675 19.75 39.695 19.73C39.755 19.67 39.495 18.63 40.335 18.55C41.485 18.44 41.055 19.62 41.175 19.73C41.185 19.74 41.445 19.74 41.555 19.78C42.215 20.02 43.705 20.73 42.925 21.61C42.315 22.3 41.765 21.44 41.165 21.29V24.12C43.995 24.56 44.475 28.29 42.115 29.7C41.905 29.82 41.215 30.04 41.175 30.08C41.025 30.25 41.485 31.3 40.615 31.43C39.365 31.62 39.785 30.15 39.695 30.07C39.675 30.05 39.315 30.08 39.185 30.05C38.475 29.88 36.725 29.33 37.425 28.34C37.995 27.54 38.955 28.54 39.695 28.61V25.09V25.1ZM39.695 21.29C38.745 21.59 38.655 23.14 39.695 23.34V21.29ZM41.155 28.42C42.395 28.02 42.465 26.08 41.155 25.69V28.42Z" fill="#C1D13F"/>
    <path d="M26.125 0C27.415 0.27 28.595 0.54 29.765 1.19C30.385 1.54 32.615 2.88 31.385 3.65C30.705 4.07 30.095 3.19 29.565 2.85C21.685 -2.26 12.985 7.67 18.695 14.69C24.405 21.71 35.345 15.81 32.805 7.22C32.625 6.61 31.735 5.24 32.825 4.99C33.755 4.78 34.185 6.41 34.365 7.12C36.465 15.46 27.625 22.24 20.155 17.91C12.685 13.58 14.335 2.69 22.335 0.36L23.975 0H26.125Z" fill="#5B5A5A"/>
    <path d="M24.625 3.44C25.485 3.29 25.825 3.57 26.495 3.96C27.235 4.39 30.065 6.19 30.455 6.74C30.645 7.02 30.775 7.32 30.805 7.66C30.915 8.78 30.935 11.75 30.795 12.83C30.675 13.73 29.875 14.38 29.005 14.45C26.455 14.68 23.575 14.27 20.995 14.45C20.025 14.31 19.365 13.62 19.285 12.65C19.205 11.76 19.155 8.04 19.335 7.32C19.435 6.93 19.865 6.45 20.175 6.21C20.705 5.79 24.185 3.52 24.635 3.44H24.625ZM27.385 12.89C27.885 12.79 29.115 13.15 29.295 12.6L29.315 7.88C29.255 7.66 29.105 7.52 28.935 7.38C28.245 6.81 26.615 5.79 25.805 5.33C24.805 4.76 24.885 4.97 23.965 5.53C23.135 6.03 21.865 6.81 21.135 7.38C21.015 7.47 20.795 7.65 20.755 7.78L20.775 12.6C20.955 13.15 22.185 12.79 22.685 12.89V11.18C22.685 11.12 22.965 10.55 23.035 10.45C23.705 9.5 26.035 9.5 26.835 10.25C26.995 10.4 27.375 11 27.375 11.18V12.89H27.385ZM24.265 11.33V12.89H25.825V11.33H24.265Z" fill="#C1D13F"/>
    <path d="M29.345 39.65C29.735 39.48 30.305 39.68 30.715 39.8C32.605 40.35 34.245 41.89 34.845 43.78C35.205 44.91 35.255 48.16 35.115 49.38C35.065 49.83 34.855 50.02 34.385 50.02L15.385 49.97C15.055 49.85 15.025 49.6 14.995 49.29C14.665 45.65 14.875 41.69 18.675 40.07C19.285 39.81 20.115 39.52 20.755 39.67L19.605 38.34C15.635 32.81 21.185 25.55 27.525 27.98C32.065 29.72 33.235 35.51 29.945 39.04C29.835 39.15 29.215 39.52 29.355 39.67L29.345 39.65ZM30.315 34.27C30.315 31.36 27.955 29 25.045 29C22.135 29 19.775 31.36 19.775 34.27C19.775 37.18 22.135 39.54 25.045 39.54C27.955 39.54 30.315 37.18 30.315 34.27ZM33.635 48.53V45.26C33.635 43.24 31.435 41.25 29.485 41.11C26.575 40.9 23.425 41.28 20.495 41.11C18.695 41.17 16.445 43.37 16.445 45.17V48.54H19.175V45.76C19.175 45.62 19.705 45.32 19.905 45.32C20.105 45.32 20.635 45.62 20.635 45.76V48.54H29.425V45.76C29.425 45.62 29.955 45.32 30.155 45.32C30.355 45.32 30.885 45.62 30.885 45.76V48.54H33.615L33.635 48.53Z" fill="#5B5A5A"/>
  </symbol>

  <symbol id="orientacion" viewBox="0 0 50 50" fill="none">
    <path d="M32.2583 8.08856H30.6483V9.69856H32.2583V8.08856Z" fill="#C1D13F"/>
    <path d="M35.4783 8.08856H33.8683V9.69856H35.4783V8.08856Z" fill="#C1D13F"/>
    <path d="M41.9284 8.08856H40.3184V9.69856H41.9284V8.08856Z" fill="#C1D13F"/>
    <path d="M38.6983 9.69856C37.0983 9.81856 36.9683 9.68856 37.0883 8.08856H38.5483C38.5483 8.08856 38.6983 8.22856 38.6983 8.23856V9.69856Z" fill="#C1D13F"/>
    <path d="M20.5583 37.3085C20.5583 37.3085 20.6083 37.3285 20.6383 37.3485C20.7283 37.3885 20.8283 37.4185 20.9183 37.4385C20.9583 37.4485 20.9983 37.4585 21.0483 37.4685C21.0683 37.4685 21.0883 37.4685 21.0983 37.4685C21.1483 37.4685 21.1983 37.4685 21.2483 37.4685C21.2583 37.4685 21.2783 37.4685 21.2883 37.4685C21.3283 37.4685 21.3683 37.4485 21.4083 37.4385C21.4083 37.4385 21.4283 37.4285 21.4383 37.4285C21.4783 37.4085 21.5183 37.3885 21.5583 37.3585C21.5583 37.3585 21.6083 37.3185 21.5883 37.3385C21.5983 37.3285 21.6183 37.3185 21.6183 37.3085C21.6583 37.2685 21.6983 37.2285 21.7383 37.1885C21.7583 37.1685 21.7683 37.1485 21.7883 37.1285C21.7883 37.1285 21.7883 37.1285 21.7883 37.1185H21.7483C22.0683 32.8785 27.8683 32.8685 28.1983 37.1185C28.1983 37.1185 28.1983 37.1685 28.1983 37.1885C28.2183 37.1885 28.2383 37.1885 28.2583 37.2085C28.3083 37.2285 28.3483 37.2585 28.3983 37.2785C28.4183 37.2785 28.4383 37.2985 28.4583 37.3085C28.5483 37.3485 28.6483 37.3785 28.7483 37.4085C28.7983 37.4285 28.8583 37.4385 28.9083 37.4485C28.9583 37.4585 29.1383 37.4785 28.9683 37.4585C29.0683 37.4585 29.1683 37.4785 29.2683 37.4785C29.3083 37.4785 29.3483 37.4785 29.3883 37.4785C29.4083 37.4785 29.4283 37.4785 29.4483 37.4685C29.4883 37.4585 29.5283 37.4485 29.5683 37.4285C29.5883 37.4285 29.6083 37.4085 29.6283 37.3985C29.6483 37.3885 29.6683 37.3785 29.6883 37.3585C29.7183 37.3285 29.7483 37.2985 29.7783 37.2685C29.7883 37.2585 29.7983 37.2385 29.8083 37.2285C29.8283 37.1985 29.8383 37.1685 29.8583 37.1285H29.8083C29.8983 35.3285 28.8283 33.8085 27.3983 32.8485C29.5983 30.2485 27.0483 26.4585 23.7983 27.6385C21.6783 28.4085 21.0683 31.1785 22.5483 32.8485C21.1183 33.8085 20.0583 35.3285 20.1383 37.1185C20.2183 37.1685 20.2983 37.2185 20.3883 37.2585C20.4383 37.2885 20.4883 37.3085 20.5383 37.3285L20.5583 37.3085ZM25.0083 29.0585C25.8883 29.0585 26.5983 29.7685 26.5983 30.6485C26.5983 31.5285 25.8883 32.2385 25.0083 32.2385C24.1283 32.2385 23.4183 31.5285 23.4183 30.6485C23.4183 29.7685 24.1283 29.0585 25.0083 29.0585Z" fill="#C1D13F"/>
    <path d="M4.48833 37.3085C4.48833 37.3085 4.53833 37.3285 4.56833 37.3485C4.65833 37.3885 4.75833 37.4185 4.84833 37.4385C4.88833 37.4485 4.92833 37.4585 4.97833 37.4685C4.99833 37.4685 5.01833 37.4685 5.02833 37.4685C5.07833 37.4685 5.12833 37.4685 5.17833 37.4685C5.18833 37.4685 5.20833 37.4685 5.21833 37.4685C5.25833 37.4685 5.29833 37.4485 5.33833 37.4385C5.33833 37.4385 5.35833 37.4285 5.36833 37.4285C5.40833 37.4085 5.44833 37.3885 5.48833 37.3585C5.48833 37.3585 5.53833 37.3185 5.51833 37.3385C5.52833 37.3285 5.54833 37.3185 5.54833 37.3085C5.58833 37.2685 5.62833 37.2285 5.66833 37.1885C5.68833 37.1685 5.69833 37.1485 5.71833 37.1285C5.71833 37.1285 5.71833 37.1285 5.71833 37.1185H5.67833C5.99833 32.8785 11.7983 32.8685 12.1283 37.1185C12.1283 37.1185 12.1283 37.1685 12.1283 37.1885C12.1483 37.1885 12.1683 37.1885 12.1883 37.2085C12.2383 37.2285 12.2783 37.2585 12.3283 37.2785C12.3483 37.2785 12.3683 37.2985 12.3883 37.3085C12.4783 37.3485 12.5783 37.3785 12.6783 37.4085C12.7283 37.4285 12.7883 37.4385 12.8383 37.4485C12.8883 37.4585 13.0683 37.4785 12.8983 37.4585C12.9983 37.4585 13.0983 37.4785 13.1983 37.4785C13.2383 37.4785 13.2783 37.4785 13.3183 37.4785C13.3383 37.4785 13.3583 37.4785 13.3783 37.4685C13.4183 37.4585 13.4583 37.4485 13.4983 37.4285C13.5183 37.4285 13.5383 37.4085 13.5583 37.3985C13.5783 37.3885 13.5983 37.3785 13.6183 37.3585C13.6483 37.3285 13.6783 37.2985 13.7083 37.2685C13.7183 37.2585 13.7283 37.2385 13.7383 37.2285C13.7583 37.1985 13.7683 37.1685 13.7883 37.1285H13.7383C13.8283 35.3285 12.7583 33.8085 11.3283 32.8485C13.5283 30.2485 10.9783 26.4585 7.72833 27.6385C5.60833 28.4085 4.99833 31.1785 6.47833 32.8485C5.04833 33.8085 3.98833 35.3285 4.06833 37.1185C4.14833 37.1685 4.22833 37.2185 4.31833 37.2585C4.36833 37.2885 4.41833 37.3085 4.46833 37.3285L4.48833 37.3085ZM8.92833 29.0585C9.80833 29.0585 10.5183 29.7685 10.5183 30.6485C10.5183 31.5285 9.80833 32.2385 8.92833 32.2385C8.04833 32.2385 7.33833 31.5285 7.33833 30.6485C7.33833 29.7685 8.04833 29.0585 8.92833 29.0585Z" fill="#C1D13F"/>
    <path d="M36.6583 37.3085C36.6583 37.3085 36.7083 37.3285 36.7383 37.3485C36.8283 37.3885 36.9283 37.4185 37.0183 37.4385C37.0583 37.4485 37.0983 37.4585 37.1483 37.4685C37.1683 37.4685 37.1883 37.4685 37.1983 37.4685C37.2483 37.4685 37.2983 37.4685 37.3483 37.4685C37.3583 37.4685 37.3783 37.4685 37.3883 37.4685C37.4283 37.4685 37.4683 37.4485 37.5083 37.4385C37.5083 37.4385 37.5283 37.4285 37.5383 37.4285C37.5783 37.4085 37.6183 37.3885 37.6583 37.3585C37.6583 37.3585 37.7083 37.3185 37.6883 37.3385C37.6983 37.3285 37.7183 37.3185 37.7183 37.3085C37.7583 37.2685 37.7983 37.2285 37.8383 37.1885C37.8583 37.1685 37.8683 37.1485 37.8883 37.1285C37.8883 37.1285 37.8883 37.1285 37.8883 37.1185H37.8483C38.1683 32.8785 43.9683 32.8685 44.2983 37.1185C44.2983 37.1185 44.2983 37.1685 44.2983 37.1885C44.3183 37.1885 44.3383 37.1885 44.3583 37.2085C44.4083 37.2285 44.4483 37.2585 44.4983 37.2785C44.5183 37.2785 44.5383 37.2985 44.5583 37.3085C44.6483 37.3485 44.7483 37.3785 44.8483 37.4085C44.8983 37.4285 44.9583 37.4385 45.0083 37.4485C45.0583 37.4585 45.2383 37.4785 45.0683 37.4585C45.1683 37.4585 45.2683 37.4785 45.3683 37.4785C45.4083 37.4785 45.4483 37.4785 45.4883 37.4785C45.5083 37.4785 45.5283 37.4785 45.5483 37.4685C45.5883 37.4585 45.6283 37.4485 45.6683 37.4285C45.6883 37.4285 45.7083 37.4085 45.7283 37.3985C45.7483 37.3885 45.7683 37.3785 45.7883 37.3585C45.8183 37.3285 45.8483 37.2985 45.8783 37.2685C45.8883 37.2585 45.8983 37.2385 45.9083 37.2285C45.9283 37.1985 45.9383 37.1685 45.9583 37.1285H45.9083C45.9983 35.3285 44.9283 33.8085 43.4983 32.8485C45.6983 30.2485 43.1483 26.4585 39.8983 27.6385C37.7783 28.4085 37.1683 31.1785 38.6483 32.8485C37.2183 33.8085 36.1583 35.3285 36.2383 37.1185C36.3183 37.1685 36.3983 37.2185 36.4883 37.2585C36.5383 37.2885 36.5883 37.3085 36.6383 37.3285L36.6583 37.3085ZM41.0983 29.0585C41.9783 29.0585 42.6883 29.7685 42.6883 30.6485C42.6883 31.5285 41.9783 32.2385 41.0983 32.2385C40.2183 32.2385 39.5083 31.5285 39.5083 30.6485C39.5083 29.7685 40.2183 29.0585 41.0983 29.0585Z" fill="#C1D13F"/>
    <path d="M20.5583 24.8385C20.5583 24.8385 20.6083 24.8585 20.6383 24.8785C20.7283 24.9185 20.8283 24.9485 20.9183 24.9685C20.9583 24.9785 20.9983 24.9885 21.0483 24.9985C21.0683 24.9985 21.0883 24.9985 21.0983 24.9985C21.1483 24.9985 21.1983 24.9985 21.2483 24.9985C21.2583 24.9985 21.2783 24.9985 21.2883 24.9985C21.3283 24.9985 21.3683 24.9785 21.4083 24.9685C21.4083 24.9685 21.4283 24.9585 21.4383 24.9585C21.4783 24.9385 21.5183 24.9185 21.5583 24.8885C21.5583 24.8885 21.6083 24.8485 21.5883 24.8685C21.5983 24.8585 21.6183 24.8485 21.6183 24.8385C21.6583 24.7985 21.6983 24.7585 21.7383 24.7185C21.7583 24.6985 21.7683 24.6785 21.7883 24.6585C21.7883 24.6585 21.7883 24.6585 21.7883 24.6485H21.7483C22.0683 20.4085 27.8683 20.3985 28.1983 24.6485C28.1983 24.6485 28.1983 24.6985 28.1983 24.7185C28.2183 24.7185 28.2383 24.7185 28.2583 24.7385C28.3083 24.7585 28.3483 24.7885 28.3983 24.8085C28.4183 24.8085 28.4383 24.8285 28.4583 24.8385C28.5483 24.8785 28.6483 24.9085 28.7483 24.9385C28.7983 24.9585 28.8583 24.9685 28.9083 24.9785C28.9583 24.9885 29.1383 25.0085 28.9683 24.9885C29.0683 24.9885 29.1683 25.0085 29.2683 25.0085C29.3083 25.0085 29.3483 25.0085 29.3883 25.0085C29.4083 25.0085 29.4283 25.0085 29.4483 24.9985C29.4883 24.9885 29.5283 24.9785 29.5683 24.9585C29.5883 24.9585 29.6083 24.9385 29.6283 24.9285C29.6483 24.9185 29.6683 24.9085 29.6883 24.8885C29.7183 24.8585 29.7483 24.8285 29.7783 24.7985C29.7883 24.7885 29.7983 24.7685 29.8083 24.7585C29.8283 24.7285 29.8383 24.6985 29.8583 24.6585H29.8083C29.8983 22.8585 28.8283 21.3385 27.3983 20.3785C29.5983 17.7785 27.0483 13.9885 23.7983 15.1685C21.6783 15.9385 21.0683 18.7085 22.5483 20.3785C21.1183 21.3385 20.0583 22.8585 20.1383 24.6485C20.2183 24.6985 20.2983 24.7485 20.3883 24.7885C20.4383 24.8185 20.4883 24.8385 20.5383 24.8585L20.5583 24.8385ZM25.0083 16.5885C25.8883 16.5885 26.5983 17.2985 26.5983 18.1785C26.5983 19.0585 25.8883 19.7685 25.0083 19.7685C24.1283 19.7685 23.4183 19.0585 23.4183 18.1785C23.4183 17.2985 24.1283 16.5885 25.0083 16.5885Z" fill="#C1D13F"/>
    <path d="M4.48833 24.8385C4.48833 24.8385 4.53833 24.8585 4.56833 24.8785C4.65833 24.9185 4.75833 24.9485 4.84833 24.9685C4.88833 24.9785 4.92833 24.9885 4.97833 24.9985C4.99833 24.9985 5.01833 24.9985 5.02833 24.9985C5.07833 24.9985 5.12833 24.9985 5.17833 24.9985C5.18833 24.9985 5.20833 24.9985 5.21833 24.9985C5.25833 24.9985 5.29833 24.9785 5.33833 24.9685C5.33833 24.9685 5.35833 24.9585 5.36833 24.9585C5.40833 24.9385 5.44833 24.9185 5.48833 24.8885C5.48833 24.8885 5.53833 24.8485 5.51833 24.8685C5.52833 24.8585 5.54833 24.8485 5.54833 24.8385C5.58833 24.7985 5.62833 24.7585 5.66833 24.7185C5.68833 24.6985 5.69833 24.6785 5.71833 24.6585C5.71833 24.6585 5.71833 24.6585 5.71833 24.6485H5.67833C5.99833 20.4085 11.7983 20.3985 12.1283 24.6485C12.1283 24.6485 12.1283 24.6985 12.1283 24.7185C12.1483 24.7185 12.1683 24.7185 12.1883 24.7385C12.2383 24.7585 12.2783 24.7885 12.3283 24.8085C12.3483 24.8085 12.3683 24.8285 12.3883 24.8385C12.4783 24.8785 12.5783 24.9085 12.6783 24.9385C12.7283 24.9585 12.7883 24.9685 12.8383 24.9785C12.8883 24.9885 13.0683 25.0085 12.8983 24.9885C12.9983 24.9885 13.0983 25.0085 13.1983 25.0085C13.2383 25.0085 13.2783 25.0085 13.3183 25.0085C13.3383 25.0085 13.3583 25.0085 13.3783 24.9985C13.4183 24.9885 13.4583 24.9785 13.4983 24.9585C13.5183 24.9585 13.5383 24.9385 13.5583 24.9285C13.5783 24.9185 13.5983 24.9085 13.6183 24.8885C13.6483 24.8585 13.6783 24.8285 13.7083 24.7985C13.7183 24.7885 13.7283 24.7685 13.7383 24.7585C13.7583 24.7285 13.7683 24.6985 13.7883 24.6585H13.7383C13.8283 22.8585 12.7583 21.3385 11.3283 20.3785C13.5283 17.7785 10.9783 13.9885 7.72833 15.1685C5.60833 15.9385 4.99833 18.7085 6.47833 20.3785C5.04833 21.3385 3.98833 22.8585 4.06833 24.6485C4.14833 24.6985 4.22833 24.7485 4.31833 24.7885C4.36833 24.8185 4.41833 24.8385 4.46833 24.8585L4.48833 24.8385ZM8.92833 16.5885C9.80833 16.5885 10.5183 17.2985 10.5183 18.1785C10.5183 19.0585 9.80833 19.7685 8.92833 19.7685C8.04833 19.7685 7.33833 19.0585 7.33833 18.1785C7.33833 17.2985 8.04833 16.5885 8.92833 16.5885Z" fill="#C1D13F"/>
    <path d="M47.1683 11.4085C49.3283 3.84851 41.7483 -0.391486 35.1183 0.0285144C29.4783 0.388514 23.2883 5.06851 25.3983 11.3185H2.58831C1.52831 11.3085 -0.131686 13.1485 0.00831361 14.2785V39.9685C-0.0216864 41.0285 1.58831 42.7385 2.57831 42.7385H19.8583L19.5483 44.3485C18.0583 44.3785 16.4283 44.0185 15.6083 45.5985C15.2283 46.3185 15.2183 48.3985 15.3183 49.2485C15.3783 49.7385 15.6683 50.0085 16.1683 50.0085H33.8083C34.2283 50.0285 34.5883 49.7685 34.6583 49.3385C34.7783 48.5785 34.7383 46.3285 34.4183 45.6685C33.6383 44.0385 31.9383 44.3785 30.4383 44.3585L30.1283 42.7485H47.3983C48.4183 42.7485 49.9683 41.0385 49.9683 39.9785V14.1785C49.8483 12.7885 48.6083 11.3585 47.1483 11.4085H47.1683ZM46.3583 12.9785C47.0783 12.6185 48.3783 13.5985 48.3783 14.3885V24.2085H33.8683V17.5585C34.1083 17.5085 34.0283 17.5885 34.0983 17.6885C34.6883 18.5985 35.0483 19.8285 35.6883 20.7285C37.0383 22.0085 37.9983 18.3085 38.5283 17.5685C40.8583 17.3485 43.1483 16.2685 44.8583 14.6785C45.1583 14.3985 46.2683 13.0185 46.3683 12.9585L46.3583 12.9785ZM33.8683 37.0985V25.8185H48.3783V37.0985H33.8683ZM27.5083 5.90851C30.7783 0.298514 41.7983 0.298514 45.0683 5.90851C47.7483 10.5185 43.8383 14.4985 39.5083 15.6985C39.0183 15.8385 37.7783 15.9485 37.4483 16.1585C37.0883 16.3985 36.7583 17.6985 36.4283 18.0585C36.3483 18.1485 36.3283 18.1985 36.1783 18.1585C35.9383 17.7685 35.4083 16.3485 35.1083 16.1585C34.7883 15.9485 33.5383 15.8285 33.0483 15.6985C28.7283 14.4985 24.8083 10.5185 27.4883 5.90851H27.5083ZM17.7483 12.9285H26.1583C27.6483 14.9385 29.7583 16.6085 32.2483 17.1585V24.2085H17.7383V12.9285H17.7483ZM17.7483 25.8185H32.2583V37.0985H17.7483V25.8185ZM1.63831 14.3885C1.63831 13.7585 2.46831 12.9285 3.09831 12.9285H16.1383V24.2085H1.63831V14.3885ZM1.63831 25.8185H16.1383V37.0985H1.63831V25.8185ZM32.1083 45.9585C32.4083 45.8485 33.0583 46.3985 33.0583 46.6185V48.3785H16.9383V46.6185C16.9383 46.4285 17.5283 45.8885 17.7883 45.9585H32.0983H32.1083ZM21.2783 44.3485L21.5883 42.7385H28.3783L28.7383 44.3485H21.2883H21.2783ZM46.5083 41.1285H3.29831C1.91831 40.9785 1.52831 39.9785 1.63831 38.7085H48.3783C48.4683 40.1685 48.0483 41.0185 46.5183 41.1285H46.5083Z" fill="#5B5A5A"/>
  </symbol>

  <symbol id="opciones" viewBox="0 0 48 51" fill="none">
    <path d="M3.63064 18.41C3.77064 17.92 5.08064 17.84 5.55064 17.79C7.14064 17.61 8.76064 17.6 10.3606 17.57C12.0006 7.51001 24.1206 3.34001 32.0406 9.54001C34.5606 11.51 36.2706 14.39 36.7506 17.58C38.3806 17.6 40.0406 17.61 41.6706 17.79C42.0106 17.83 43.6706 17.99 43.6706 18.42V22.18H46.8406C47.0606 22.18 47.3506 22.67 47.2806 22.91L47.2306 49.62C47.0406 49.87 46.7806 50.04 46.4506 50.02H0.840643C0.510643 50.04 0.250643 49.87 0.0606425 49.62L0.0106425 22.89C-0.0593575 22.65 0.230643 22.16 0.450643 22.16H3.62064V18.4L3.63064 18.41ZM18.4706 30.61C18.6506 31.89 18.3306 33.58 18.4706 34.91C18.5206 34.94 18.5906 35.06 18.6206 35.06H28.7806C28.7806 35.06 28.9306 34.92 28.9306 34.91V30.42C28.9306 29.21 30.7906 28.17 31.5706 27.49C40.0906 20.09 33.6006 7.38001 22.8306 8.00001C13.6006 8.53001 7.99064 18.98 14.3906 26.32C15.5206 27.62 18.2706 29.02 18.4906 30.61H18.4706ZM4.99064 19.24V42.87C11.1806 42.15 17.3306 43.09 22.9606 45.7V42.18H20.6706C18.9206 42.18 17.1106 40.49 17.1106 38.71V37.2H6.61064C5.70064 37.05 6.10064 35.83 6.61064 35.83H17.1106V34.37H6.61064C6.61064 34.37 6.20064 34.1 6.16064 34.04C5.95064 33.7 6.15064 33.01 6.51064 33.01H17.1006V31.45H6.51064C6.15064 31.45 5.95064 30.76 6.16064 30.42C6.20064 30.35 6.56064 30.09 6.61064 30.09H16.6206C16.0306 29.41 15.1606 28.99 14.4706 28.38C11.8206 26.05 10.2806 22.6 10.2706 19.05L5.00064 19.25L4.99064 19.24ZM42.2906 19.24L36.8206 19.04C36.8206 22.63 35.2206 26.12 32.5306 28.46C31.8906 29.01 31.0906 29.39 30.5806 30.07H40.4906C40.6206 30.07 40.9906 30.43 41.0306 30.61C41.0806 30.85 40.9306 31.44 40.6906 31.44H30.2906V33H40.5906C40.9506 33 41.1506 33.69 40.9406 34.03C40.9006 34.1 40.5406 34.36 40.4906 34.36H30.2906V35.82H40.4906C40.4906 35.82 40.9006 36.09 40.9406 36.15C41.1506 36.49 40.9506 37.18 40.5906 37.18H30.2906V38.89C30.2906 40.46 28.3706 42.16 26.8206 42.16H24.3306V45.68C29.9606 43.06 36.1106 42.14 42.3006 42.85V19.22L42.2906 19.24ZM3.63064 23.53H1.38064V48.53H45.9106V23.53H43.6606V43.89C43.6606 43.94 43.4806 44.18 43.4106 44.22C42.9206 44.53 40.8106 44.07 40.1006 44.03C34.2406 43.72 28.8106 44.96 23.6006 47.55C18.4906 44.91 12.9606 43.72 7.18064 44.03C6.47064 44.07 4.37064 44.53 3.87064 44.22C3.80064 44.18 3.62064 43.94 3.62064 43.89V23.53H3.63064ZM28.9206 36.42H18.4706V38.71C18.4706 39.49 19.3706 40.49 20.1006 40.69C21.1806 40.98 25.0706 40.9 26.3306 40.81C27.2306 40.75 28.2106 40.48 28.6406 39.61C28.6906 39.51 28.9106 38.86 28.9106 38.81V36.42H28.9206Z" fill="#5B5A5A"/>
    <path d="M31.9707 39.91C31.6807 39.6 31.8307 38.74 32.3807 38.76H40.4907C41.3707 38.87 41.1307 40.13 40.2907 40.13C37.8307 39.96 35.0907 40.35 32.6707 40.13C32.4807 40.11 32.0907 40.04 31.9707 39.9V39.91Z" fill="#5B5A5A"/>
    <path d="M6.43064 38.78L14.7206 38.76C15.5006 38.86 15.5806 40.02 14.5206 40.13C12.1006 40.38 9.27064 39.94 6.80064 40.13C6.03064 40.06 5.77064 39.22 6.43064 38.78Z" fill="#5B5A5A"/>
    <path d="M28.1406 13.18H31.1206C31.4206 13.18 31.5406 13.66 31.5606 13.91C31.8806 17.35 31.3106 21.27 31.5606 24.76C31.5606 25.05 31.3106 25.23 31.0706 25.35H16.2206C15.9406 25.24 15.7406 24.98 15.7306 24.66V13.82C15.6806 13.61 15.9906 13.19 16.1706 13.19H19.1506V11.68C19.1506 11.4 19.8406 10.75 20.1806 10.76C22.3406 10.9 24.7906 10.55 26.9206 10.75C27.3906 10.79 28.1406 11.29 28.1406 11.78V13.2V13.18ZM26.7706 12.11H20.5206V13.18H26.7706V12.11ZM30.1906 14.55H17.1106V16.45C17.1106 16.8 17.9706 17.67 18.3306 17.67H21.5006C21.5406 16.99 21.2406 16.29 22.1306 16.2C22.6106 16.15 25.0906 16.13 25.4406 16.23C25.9806 16.39 25.7706 17.25 25.8006 17.67H28.9706C29.3306 17.67 30.1906 16.83 30.1906 16.45V14.55ZM22.8606 17.48V19.24H24.4206V17.48H22.8606ZM21.5006 19.04H18.1306C17.9506 19.04 17.3606 18.65 17.1006 18.65V24.02H30.1806V18.65C29.8906 18.67 29.4106 19.04 29.1506 19.04H25.7806C25.7306 19.57 25.9906 20.2 25.4206 20.48C25.0206 20.67 23.0506 20.65 22.5106 20.6C21.3306 20.51 21.4606 20.09 21.4906 19.03L21.5006 19.04Z" fill="#C1D13F"/>
    <path d="M23.7406 0C23.9606 0.16 24.2706 0.22 24.3206 0.54C24.2006 1.88 24.4906 3.54 24.3206 4.84C24.2206 5.6 23.0606 5.69 22.9506 4.74C22.8006 3.44 23.0606 1.87 22.9506 0.54C22.9906 0.27 23.2706 0.18 23.4406 0H23.7306H23.7406Z" fill="#C1D13F"/>
    <path d="M40.2106 10.52L36.5306 12.65C35.8006 12.91 35.2006 12.07 35.7506 11.48L39.4506 9.32003C40.2206 9.09003 40.6806 9.92003 40.2006 10.52H40.2106Z" fill="#C1D13F"/>
    <path d="M7.41063 9.29001C7.65063 9.24001 7.75063 9.29001 7.96063 9.38001C8.46063 9.58002 11.0406 11.05 11.4306 11.38C12.1006 11.93 11.5906 12.91 10.7506 12.65C10.4306 12.55 7.69063 10.95 7.34063 10.69C6.78063 10.26 6.68063 9.45002 7.41063 9.30002V9.29001Z" fill="#C1D13F"/>
    <path d="M16.8806 7.2C16.4406 7.61 15.9306 7.26 15.6506 6.87C15.3706 6.48 13.8306 3.88 13.7306 3.52C13.4506 2.6 14.4006 2.19 15.0006 2.84L17.0606 6.45C17.1606 6.63 17.0106 7.09 16.8806 7.21V7.2Z" fill="#C1D13F"/>
    <path d="M31.4306 7.19998C30.9006 7.64998 30.0406 7.13998 30.2506 6.46998L32.3906 2.74998C32.9706 2.19998 33.8606 2.73998 33.5606 3.52998L31.4306 7.20998V7.19998Z" fill="#C1D13F"/>
  </symbol>

  <symbol id="explora" viewBox="0 0 50 50" fill="none">
    <path d="M30.6313 35.3667C30.6313 35.3667 30.6913 35.3667 30.7113 35.3667H30.7313C30.8013 35.3567 30.8613 35.3467 30.9213 35.3267C31.0513 35.2967 31.1813 35.2667 31.3013 35.2167H31.3213C31.3413 35.2167 31.3613 35.1967 31.3813 35.1867C31.4313 35.1567 31.4813 35.1367 31.5313 35.1067C31.5513 35.0867 31.5813 35.0767 31.6013 35.0567C31.6413 35.0267 31.6713 34.9867 31.7113 34.9567C31.7113 34.9567 31.7213 34.9467 31.7313 34.9367C31.7313 34.9267 31.7513 34.9067 31.7613 34.8967C31.7713 34.8767 31.7813 34.8567 31.7913 34.8367C31.8013 34.7967 31.8213 34.7467 31.8313 34.7067C31.8313 34.6867 31.8313 34.6567 31.8313 34.6367C31.8313 34.6067 31.8313 34.5767 31.8313 34.5367C31.8213 34.4767 31.8013 34.4067 31.7913 34.3467C31.7813 34.3067 31.7713 34.2667 31.7513 34.2367C31.7513 34.2367 31.7513 34.2367 31.7513 34.2267L28.2013 30.6767L30.6313 28.2467L34.1913 31.8167C34.1913 31.8167 34.2913 31.8467 34.3313 31.8567C34.3413 31.8567 34.4113 31.8667 34.4213 31.8767C34.4413 31.8767 34.4613 31.8767 34.4713 31.8767C34.5013 31.8767 34.5413 31.8767 34.5713 31.8767C34.5813 31.8767 34.6213 31.8767 34.6513 31.8767C34.6513 31.8767 34.6813 31.8767 34.6913 31.8767C34.7213 31.8767 34.7513 31.8667 34.7813 31.8567C34.7813 31.8567 34.8313 31.8367 34.8613 31.8267C34.8713 31.8267 34.8813 31.8167 34.8913 31.8167C34.9613 31.7867 35.0213 31.7367 35.0913 31.6967C35.1213 31.6767 35.1413 31.6467 35.1713 31.6267C35.2313 31.5667 35.2913 31.5067 35.3513 31.4367C35.3613 31.4167 35.3713 31.4167 35.3713 31.4167C35.3713 31.4167 35.3713 31.4067 35.3813 31.3967C35.4113 31.3567 35.4413 31.3167 35.4613 31.2767C35.4813 31.2467 35.5013 31.2067 35.5213 31.1767C35.5213 31.1667 35.5313 31.1567 35.5413 31.1467C35.5613 31.0867 35.5713 31.0167 35.5913 30.9567C35.5913 30.9567 35.5913 30.9367 35.5913 30.9267C35.5913 30.8867 35.5913 30.8467 35.5913 30.8167C35.5913 30.7467 35.5813 30.6867 35.5713 30.6167C35.5613 30.6167 35.5513 30.6267 35.5413 30.6367C34.1813 29.4967 32.9313 28.0967 31.6513 26.8267C35.3813 21.1567 35.4013 13.7567 31.7813 8.03673C28.5313 2.78673 22.5013 -0.323273 16.3413 0.0267268C8.79133 0.446727 2.19133 5.84673 0.471328 13.2367C-2.56867 26.3667 9.60133 37.6967 22.4713 33.7367C23.9713 33.2767 25.4313 32.5267 26.7513 31.6767L30.4513 35.3567C30.5013 35.3567 30.5613 35.3567 30.6113 35.3567L30.6313 35.3667ZM17.2613 32.7367C8.71133 32.7367 1.78133 25.8067 1.78133 17.2567C1.78133 8.70673 8.71133 1.78673 17.2613 1.78673C25.8113 1.78673 32.7413 8.71673 32.7413 17.2667C32.7413 25.8167 25.8113 32.7467 17.2613 32.7467V32.7367Z" fill="#5B5A5A"/>
    <path d="M31.0713 17.2567C31.0713 24.8867 24.8813 31.0767 17.2513 31.0767C9.62134 31.0767 3.43134 24.8867 3.43134 17.2567C3.43134 9.62671 9.62134 3.43671 17.2513 3.43671C24.8813 3.43671 31.0713 9.62671 31.0713 17.2567ZM29.2913 17.2567C29.2913 10.6067 23.9013 5.22671 17.2613 5.22671C10.6213 5.22671 5.23134 10.6167 5.23134 17.2567C5.23134 23.8967 10.6213 29.2867 17.2613 29.2867C23.9013 29.2867 29.2913 23.8967 29.2913 17.2567Z" fill="#5B5A5A"/>
    <path d="M48.3613 40.9767C45.2113 37.3767 41.1913 34.1567 37.9613 30.5867C37.2013 30.0167 36.3313 29.9667 35.5713 30.5767C35.4613 30.4867 30.5313 35.4367 30.5313 35.4367C30.3313 35.7167 30.2613 35.9967 30.1913 36.2867C30.0413 36.9067 30.1613 37.4867 30.5813 37.9567L41.4113 48.7867C46.8413 52.7367 52.9613 46.2267 48.3613 40.9767ZM31.8813 36.6867L36.6913 31.8867L37.9213 33.1167L33.1113 37.9167L31.8813 36.6867ZM42.5913 47.3867L34.5613 39.3667C34.4513 39.2767 34.4413 39.2167 34.5113 39.0967C34.6113 38.9067 36.4413 37.0867 36.7613 36.7667C37.5513 35.9767 38.4113 35.2167 39.2413 34.4767L47.3913 42.5967C50.0813 45.8867 45.8313 49.9667 42.5913 47.3967V47.3867Z" fill="#C1D13F"/>
  </symbol>

  <symbol id="resolver" viewBox="0 0 50 50" fill="none">
    <path d="M42.4845 11.6818H48.0545C48.7745 11.6818 50.0145 13.0318 49.9845 13.8118L49.9545 44.7118C49.7045 45.6618 49.0545 46.3418 48.1145 46.6118L42.4845 46.6618C42.7045 48.3318 41.9545 49.8618 40.1445 50.0018H9.5445C7.9245 49.6418 7.2945 48.2318 7.5045 46.6618C5.7945 46.5018 3.7045 46.8818 2.0445 46.6618C1.0045 46.5218 0.0745044 45.4918 0.00450443 44.4318V13.9118C-0.0854956 13.0918 1.1945 11.6818 1.9345 11.6818H7.5045V1.94184C7.5045 1.17184 8.9845 -0.138155 9.8345 0.0118447H40.3445C41.1245 -0.0181553 42.4745 1.22184 42.4745 1.94184V11.6818H42.4845ZM10.8345 1.68184C10.0845 1.61184 9.2745 1.66184 9.1645 2.56184V47.3418C9.1345 47.7418 9.3845 48.0518 9.7145 48.2518C19.8545 48.4018 30.0545 48.3418 40.2045 48.2818C40.4545 48.1718 40.6645 47.9618 40.7745 47.7118L40.8245 2.67184C40.9445 2.36184 40.3745 1.69184 40.1445 1.69184H20.8345V14.4518C20.8345 14.7918 20.0145 15.2118 19.6845 14.9818L15.8045 12.0218L12.0645 14.9418C11.7245 15.2318 10.8445 14.8218 10.8445 14.4518V1.68184H10.8345ZM19.1645 1.68184H12.5045V12.4018C13.3745 11.8118 14.2045 10.8918 15.0745 10.3418C15.8345 9.85184 15.9345 9.90184 16.6645 10.3818C17.5145 10.9418 18.3145 11.8218 19.1745 12.4018V1.68184H19.1645ZM3.3345 13.3418C2.5845 13.2718 1.7745 13.3218 1.6645 14.2218V44.0118C1.5445 44.3218 2.1145 44.9918 2.3445 44.9918H7.4945V43.3218H3.3345V41.6518H7.4945V39.9818H3.3345V38.3118H7.4945V36.6418H3.3345V34.9718H7.4945V33.3018H3.9045C3.7045 33.3018 3.2645 32.7818 3.3345 32.5218C3.4845 30.3718 3.1445 27.9718 3.3345 25.8518C3.3645 25.5518 3.5645 24.9718 3.9145 24.9718H7.5045V20.3418C7.5045 20.2818 6.7345 19.5518 6.6345 19.5718C6.0245 19.9818 4.9045 21.6218 4.2245 21.6518C3.9145 21.6618 3.3445 21.3718 3.3445 21.0718V13.3118L3.3345 13.3418ZM7.5045 13.3418H5.0045V18.6518C5.7345 18.4018 5.9745 17.3218 6.9045 17.5218C7.1445 17.5718 7.2545 17.8218 7.5045 17.8118V13.3318V13.3418ZM42.4845 45.0018H47.6345C47.8645 45.0018 48.4345 44.3218 48.3145 44.0218V14.3318C48.4345 14.0218 47.8645 13.3518 47.6345 13.3518H42.4845V15.0218H46.0745C46.2345 15.0218 46.6645 15.4818 46.6445 15.7018C46.5445 17.3418 46.8045 19.1818 46.6545 20.8018C46.6245 21.1018 46.4245 21.6818 46.0745 21.6818H42.4845V25.0118H46.0745C46.2745 25.0118 46.7145 25.5318 46.6445 25.7918C46.4945 27.9418 46.8345 30.3418 46.6445 32.4618C46.6145 32.7618 46.4145 33.3418 46.0645 33.3418H42.4745V35.0118H46.6345V36.6818H42.4745V38.3518H46.6345V40.0218H42.4745V41.6918H46.6345V43.3618H42.4745V45.0318L42.4845 45.0018ZM44.9845 16.6818H42.4845V20.0118H44.9845V16.6818ZM7.5045 26.6718H5.0045V31.6718H7.5045V26.6718ZM42.4845 26.6718V31.6718H44.9845V26.6718H42.4845Z" fill="#5B5A5A"/>
    <path d="M39.1545 45.0018H10.8345V46.6718H39.1545V45.0018Z" fill="#5B5A5A"/>
    <path d="M30.8245 6.68182H22.4945V8.35182H30.8245V6.68182Z" fill="#5B5A5A"/>
    <path d="M30.8245 10.0118H22.4945V11.6818H30.8245V10.0118Z" fill="#5B5A5A"/>
    <path d="M35.8145 3.35181H29.1545V5.02181H35.8145V3.35181Z" fill="#5B5A5A"/>
    <path d="M39.1545 6.68182H32.4945V8.35182H39.1545V6.68182Z" fill="#5B5A5A"/>
    <path d="M39.1545 10.0118H32.4945V11.6818H39.1545V10.0118Z" fill="#5B5A5A"/>
    <path d="M35.8145 13.3419H29.1545V15.0119H35.8145V13.3419Z" fill="#5B5A5A"/>
    <path d="M27.4945 3.35181H22.4945V5.02181H27.4945V3.35181Z" fill="#5B5A5A"/>
    <path d="M27.1245 13.3419C27.6045 13.4219 27.4645 14.6219 27.4845 15.0119H22.6445C22.6445 15.0119 22.4845 14.8619 22.4845 14.8519V13.3419H27.1145H27.1245Z" fill="#5B5A5A"/>
    <path d="M39.1545 3.35181H37.4845V5.02181H39.1545V3.35181Z" fill="#5B5A5A"/>
    <path d="M39.1545 13.3419H37.4845V15.0119H39.1545V13.3419Z" fill="#5B5A5A"/>
    <path d="M38.3445 30.0019C38.3445 37.3819 32.3645 43.3519 24.9945 43.3519C17.6245 43.3519 11.6445 37.3719 11.6445 30.0019C11.6445 22.6319 17.6245 16.6519 24.9945 16.6519C32.3645 16.6519 38.3445 22.6319 38.3445 30.0019ZM36.6245 30.0019C36.6245 23.5819 31.4145 18.3719 24.9945 18.3719C18.5745 18.3719 13.3645 23.5819 13.3645 30.0019C13.3645 36.4219 18.5745 41.6319 24.9945 41.6319C31.4145 41.6319 36.6245 36.4219 36.6245 30.0019Z" fill="#5B5A5A"/>
    <path d="M24.1945 27.4418C24.5645 27.0718 25.5045 26.5818 25.7045 26.1918C26.0745 25.4918 25.3345 24.7618 24.6345 25.1218C23.9345 25.4818 24.3545 26.4718 23.5545 26.6518C23.1645 26.7418 20.0045 26.7318 19.6645 26.6318C18.6345 26.3118 19.3345 24.0918 19.6545 23.3818C21.3845 19.5318 26.7245 18.8018 29.4645 22.0418C31.5545 24.5118 31.1945 28.2018 28.7845 30.3218C28.3445 30.7118 27.6545 30.9218 27.5145 31.5418C27.3745 32.1618 27.5145 32.5018 27.0245 33.1318C26.2945 34.1018 25.0245 34.4518 23.9245 33.9318C21.3545 32.7218 22.6345 28.9718 24.1945 27.4318V27.4418ZM20.9345 25.0118H22.5445C22.6045 25.0118 23.0145 24.2318 23.1645 24.0718C25.1045 22.0518 28.6145 24.3418 27.1945 27.0618C26.4945 28.4018 24.9045 28.3718 24.3345 30.5518C24.1645 31.2018 23.9845 32.5718 25.0345 32.5118C25.8645 32.4618 25.7445 31.5418 25.8645 31.0518C26.2145 29.6218 27.6645 29.3018 28.4045 28.1718C29.8045 26.0418 29.0745 23.0118 26.6545 22.0518C24.2345 21.0918 21.5445 22.4018 20.9345 25.0218V25.0118Z" fill="#C1D13F"/>
    <path d="M27.5145 37.5018C27.5145 38.8918 26.3845 40.0218 24.9945 40.0218C23.6045 40.0218 22.4745 38.8918 22.4745 37.5018C22.4745 36.1118 23.6045 34.9818 24.9945 34.9818C26.3845 34.9818 27.5145 36.1118 27.5145 37.5018ZM25.7945 37.5018C25.7945 37.0618 25.4345 36.7018 24.9945 36.7018C24.5545 36.7018 24.1945 37.0618 24.1945 37.5018C24.1945 37.9418 24.5545 38.3018 24.9945 38.3018C25.4345 38.3018 25.7945 37.9418 25.7945 37.5018Z" fill="#C1D13F"/>
  </symbol>

  <symbol id="calendaio" viewBox="0 0 80 80" fill="none">
    <path d="M24 7.98541H34.66V4.40541C34.66 4.23541 35.14 3.09541 35.26 2.84541C37.16 -0.894592 42.67 -0.964592 44.66 2.73541C44.81 3.01541 45.32 4.19541 45.32 4.40541V7.98541H55.98V4.40541C55.98 4.23541 56.46 3.09541 56.58 2.84541C58.48 -0.894592 63.99 -0.964592 65.98 2.73541C66.13 3.01541 66.64 4.19541 66.64 4.40541V7.98541H74.22C76.81 7.98541 79.97 11.4554 79.97 14.0654V49.3754C79.75 51.3254 77.31 50.6054 77.31 49.7054V26.6354H2.67V68.6954C2.67 69.8754 4.83 71.8954 6.1 71.9254H44.07C45.75 72.1054 45.76 74.4454 44.07 74.6054H6.25C2.87 74.3454 0.29 71.7254 0 68.3654V14.0754C0 11.4654 3.16 7.99541 5.75 7.99541H13.33V4.41541C13.33 4.24541 13.81 3.10541 13.93 2.85541C15.83 -0.884592 21.34 -0.954592 23.33 2.74541C23.48 3.02541 23.99 4.20541 23.99 4.41541V7.99541L24 7.98541ZM18.12 2.69541C17.13 2.85541 16.2 3.80541 16.04 4.77541C15.77 6.35541 15.81 11.9054 16 13.5654C16.36 16.6854 20.77 16.7154 21.29 13.8554C21.56 12.3954 21.51 6.64541 21.33 5.06541C21.15 3.47541 19.7 2.43541 18.12 2.69541ZM39.45 2.69541C38.46 2.85541 37.53 3.80541 37.37 4.77541C37.1 6.35541 37.14 11.9054 37.33 13.5654C37.69 16.6854 42.1 16.7154 42.62 13.8554C42.89 12.3954 42.84 6.64541 42.66 5.06541C42.48 3.48541 41.03 2.43541 39.45 2.69541ZM60.77 2.69541C59.78 2.85541 58.85 3.80541 58.69 4.77541C58.42 6.35541 58.46 11.9054 58.65 13.5654C59.01 16.6854 63.42 16.7154 63.94 13.8554C64.21 12.3954 64.16 6.64541 63.98 5.06541C63.8 3.48541 62.35 2.43541 60.77 2.69541ZM13.33 10.6554H5.92C5.63 10.6554 4.38 11.4054 4.08 11.6554C3.62 12.0454 2.67 13.3454 2.67 13.9054V23.9854H77.31V13.9054C77.31 12.8554 75.12 10.6554 74.06 10.6554H66.65V14.2354C66.65 14.4454 66.13 15.6254 65.99 15.9054C64.01 19.6154 58.49 19.5454 56.59 15.7954C56.46 15.5454 55.99 14.4054 55.99 14.2354V10.6554H45.33V14.2354C45.33 14.4454 44.81 15.6254 44.67 15.9054C42.69 19.6154 37.17 19.5454 35.27 15.7954C35.14 15.5454 34.67 14.4054 34.67 14.2354V10.6554H24.01V14.2354C24.01 14.4454 23.49 15.6254 23.35 15.9054C21.37 19.6154 15.85 19.5454 13.95 15.7954C13.82 15.5454 13.35 14.4054 13.35 14.2354V10.6554H13.33Z" fill="#5B5A5A"/>
    <path d="M61.12 45.3453C73.92 44.2953 83.51 56.9553 78.77 68.9953C73.93 81.3053 57.52 83.7853 49.16 73.5253C40.8 63.2653 47.43 46.4753 61.12 45.3453ZM61.28 48.0153C49.91 49.0753 44.08 62.2453 50.92 71.4353C56.7 79.1953 68.6 79.1753 74.38 71.4353C81.97 61.2753 73.9 46.8353 61.28 48.0153Z" fill="#C1D13F"/>
    <path d="M12.79 33.3453C13.94 33.1553 17.89 33.1553 19.07 33.3153C20.25 33.4753 21.2 34.4953 21.33 35.7153C21.45 36.7653 21.44 39.1653 21.33 40.2153C21.19 41.5153 20.22 42.4853 18.91 42.6353C17.6 42.7853 14.41 42.7753 13.08 42.6353C11.75 42.4953 10.81 41.5253 10.66 40.2153C10.55 39.2053 10.54 36.3953 10.7 35.4253C10.86 34.4553 11.81 33.5053 12.78 33.3453H12.79ZM18.67 35.9753H13.34V39.9753H18.67V35.9753Z" fill="#5B5A5A"/>
    <path d="M28.78 33.3453C29.93 33.1553 33.88 33.1553 35.06 33.3153C36.24 33.4753 37.19 34.4953 37.32 35.7153C37.44 36.7653 37.43 39.1653 37.32 40.2153C37.18 41.5153 36.21 42.4853 34.9 42.6353C33.59 42.7853 30.4 42.7753 29.07 42.6353C27.74 42.4953 26.8 41.5253 26.65 40.2153C26.54 39.2053 26.53 36.3953 26.69 35.4253C26.85 34.4553 27.8 33.5053 28.77 33.3453H28.78ZM34.66 35.9753H29.33V39.9753H34.66V35.9753Z" fill="#5B5A5A"/>
    <path d="M44.78 33.3453C45.93 33.1553 49.88 33.1553 51.06 33.3153C52.24 33.4753 53.19 34.4953 53.32 35.7153C53.44 36.7653 53.43 39.1653 53.32 40.2153C53.18 41.5153 52.21 42.4853 50.9 42.6353C49.59 42.7853 46.4 42.7753 45.07 42.6353C43.74 42.4953 42.8 41.5253 42.65 40.2153C42.54 39.2053 42.53 36.3953 42.69 35.4253C42.85 34.4553 43.8 33.5053 44.77 33.3453H44.78ZM50.65 35.9753H45.32V39.9753H50.65V35.9753Z" fill="#5B5A5A"/>
    <path d="M60.77 33.3453C61.92 33.1553 65.87 33.1553 67.05 33.3153C68.23 33.4753 69.18 34.4953 69.31 35.7153C69.43 36.7653 69.42 39.1653 69.31 40.2153C69.17 41.5153 68.2 42.4853 66.89 42.6353C65.58 42.7853 62.39 42.7753 61.06 42.6353C59.73 42.4953 58.79 41.5253 58.64 40.2153C58.53 39.2053 58.52 36.3953 58.68 35.4253C58.84 34.4553 59.79 33.5053 60.76 33.3453H60.77ZM66.65 35.9753H61.32V39.9753H66.65V35.9753Z" fill="#5B5A5A"/>
    <path d="M12.79 45.3353C13.94 45.1453 17.89 45.1453 19.07 45.3053C20.25 45.4653 21.2 46.4853 21.33 47.7053C21.45 48.7553 21.44 51.1553 21.33 52.2053C21.19 53.5053 20.22 54.4753 18.91 54.6253C17.6 54.7753 14.41 54.7653 13.08 54.6253C11.75 54.4853 10.81 53.5153 10.66 52.2053C10.55 51.1953 10.54 48.3853 10.7 47.4153C10.86 46.4453 11.81 45.4953 12.78 45.3353H12.79ZM18.67 47.9653H13.34V51.9653H18.67V47.9653Z" fill="#5B5A5A"/>
    <path d="M28.78 45.3353C29.93 45.1453 33.88 45.1453 35.06 45.3053C36.24 45.4653 37.19 46.4853 37.32 47.7053C37.44 48.7553 37.43 51.1553 37.32 52.2053C37.18 53.5053 36.21 54.4753 34.9 54.6253C33.59 54.7753 30.4 54.7653 29.07 54.6253C27.74 54.4853 26.8 53.5153 26.65 52.2053C26.54 51.1953 26.53 48.3853 26.69 47.4153C26.85 46.4453 27.8 45.4953 28.77 45.3353H28.78ZM34.66 47.9653H29.33V51.9653H34.66V47.9653Z" fill="#5B5A5A"/>
    <path d="M12.79 57.3353C13.94 57.1453 17.89 57.1453 19.07 57.3053C20.25 57.4653 21.2 58.4853 21.33 59.7053C21.45 60.7553 21.44 63.1553 21.33 64.2053C21.19 65.5053 20.22 66.4753 18.91 66.6253C17.6 66.7753 14.41 66.7653 13.08 66.6253C11.75 66.4853 10.81 65.5153 10.66 64.2053C10.55 63.1953 10.54 60.3853 10.7 59.4153C10.86 58.4453 11.81 57.4953 12.78 57.3353H12.79ZM18.67 59.9553H13.34V63.9553H18.67V59.9553Z" fill="#5B5A5A"/>
    <path d="M28.78 57.3353C29.93 57.1453 33.88 57.1453 35.06 57.3053C36.24 57.4653 37.19 58.4853 37.32 59.7053C37.44 60.7553 37.43 63.1553 37.32 64.2053C37.18 65.5053 36.21 66.4753 34.9 66.6253C33.59 66.7753 30.4 66.7653 29.07 66.6253C27.74 66.4853 26.8 65.5153 26.65 64.2053C26.54 63.1953 26.53 60.3853 26.69 59.4153C26.85 58.4453 27.8 57.4953 28.77 57.3353H28.78ZM34.66 59.9553H29.33V63.9553H34.66V59.9553Z" fill="#5B5A5A"/>
    <path d="M45.32 47.9654V51.9654C45.32 52.0554 46.5 51.8954 46.65 53.0654C46.96 55.4754 43.11 54.9454 42.7 52.5154C42.54 51.5554 42.54 48.5554 42.67 47.5754C42.84 46.3554 43.86 45.4454 45.07 45.3154C45.95 45.2154 50.5 45.1854 51.16 45.3954C52.53 45.8254 51.93 47.9854 51.07 47.9854H45.32V47.9654Z" fill="#5B5A5A"/>
    <path d="M71.11 56.6553C72.25 56.5053 73.11 57.9553 72.32 58.8753L60.5 70.5453C60 70.7153 59.47 70.6453 59.07 70.2853L53.06 64.1253C52.72 63.0853 53.78 62.0253 54.83 62.3553C55.99 62.7253 58.69 66.6253 60.05 67.2653L70.31 57.0253C70.52 56.8453 70.83 56.6853 71.11 56.6453V56.6553Z" fill="#C1D13F"/>
  </symbol>

  <symbol id="instrucciones" viewBox="0 0 37 37" fill="none">
    <path d="M34.2488 17.161H32.7153V2.15765C32.7153 1.94188 32.3377 1.62594 32.1296 1.572L2.44655 1.53347C2.07666 1.49494 1.53725 1.84941 1.53725 2.227V21.0294H12.4873V22.5629H1.54496V25.0827C1.54496 25.2445 1.96878 25.7069 2.16914 25.7069H12.5027C12.6106 26.5699 12.3949 27.3328 12.2947 28.165C12.1406 29.4134 11.9479 30.6617 11.8477 31.9178H17.211C17.211 31.9178 17.5193 32.0488 17.5655 32.0719C18.2359 32.488 17.9046 33.4667 17.134 33.5129C14.5602 33.3588 11.7167 33.7364 9.1815 33.5206C8.54191 33.4667 8.01791 33.1507 8.25679 32.4418C8.49567 31.7329 9.63614 31.964 10.2372 31.9024L10.8306 27.2403H1.86861C1.04408 27.2403 -0.0732788 25.8533 0.00378015 25.0133V2.227C0.119369 1.00177 0.99784 0.107882 2.23078 0H32.0218C32.8155 0.069353 33.5398 0.439236 33.9405 1.14818C34.0022 1.24835 34.2488 1.80318 34.2488 1.86483V17.161Z" fill="#5C5B5B"/>
    <path d="M28.847 24.2427L28.9164 24.4276L36.7302 32.2414C36.9614 32.5727 37.0461 32.827 36.8072 33.1892L33.3396 36.6569C33.1315 36.8495 32.8233 36.8341 32.569 36.7724L24.4316 28.7044L21.511 34.4684C21.1489 34.8614 20.5324 34.8074 20.2473 34.3528L11.9172 12.5451C12.002 12.0134 12.4797 11.7052 13.0114 11.8824L34.5417 20.2125C34.9578 20.5284 34.9193 21.1064 34.5417 21.4454L28.847 24.2581V24.2427ZM32.1375 20.9522L14.1057 13.9476L20.9716 31.9794L23.5377 26.9937C23.8536 26.5544 24.3468 26.4697 24.7706 26.8318L32.9081 34.9076L34.9963 32.8964L35.0349 32.7114L26.9283 24.6048C26.6123 24.2735 26.6894 23.6724 27.0901 23.449L32.1529 20.9522H32.1375Z" fill="#C1D13F"/>
    <path d="M8.89636 14.4022C9.55136 14.3405 9.93666 15.1111 9.57448 15.6659C9.42036 15.8971 7.2473 18.0702 7.01612 18.2166C6.24553 18.7175 5.421 17.9006 5.92189 17.1223C6.09142 16.8603 8.1566 14.8029 8.44171 14.6025C8.5573 14.5178 8.75765 14.4099 8.89636 14.4022Z" fill="#C1D13F"/>
    <path d="M17.4268 5.95656C18.1281 5.95656 18.3824 6.67321 18.0048 7.22803C17.8198 7.49774 15.747 9.57833 15.485 9.74786C14.6913 10.2564 13.9438 9.47815 14.3599 8.69215C15.1998 8.03715 16.0783 6.70403 16.9106 6.13379C17.0647 6.02591 17.2342 5.94885 17.4191 5.94885L17.4268 5.95656Z" fill="#C1D13F"/>
    <path d="M6.26872 6.00285C6.51531 5.94891 6.80043 5.96432 7.0162 6.10303C7.29361 6.28026 9.27402 8.26838 9.5052 8.58433C10.0986 9.40115 9.32026 10.3027 8.48802 9.74791C7.65578 9.19309 6.73878 7.82144 5.89114 7.15873C5.62143 6.81197 5.8449 6.10303 6.26872 6.01056V6.00285Z" fill="#C1D13F"/>
    <path d="M4.08019 11.4047H7.91772C8.68831 11.6513 8.64208 12.7917 7.85608 12.915C6.76184 13.0923 5.22066 12.8071 4.08019 12.9073C3.31731 12.5914 3.31731 11.7206 4.08019 11.4047Z" fill="#C1D13F"/>
    <path d="M11.424 8.44582C11.293 8.31482 11.2005 8.03741 11.1774 7.85247C11.0926 7.12041 11.1003 5.23247 11.1851 4.50041C11.3084 3.46782 12.5876 3.50634 12.7031 4.27693C12.7956 4.84717 12.7956 7.49029 12.7031 8.06823C12.6107 8.64618 11.8247 8.84653 11.4163 8.44582H11.424Z" fill="#C1D13F"/>
  </symbol>

</svg>