<svg xmlns="http://www.w3.org/2000/svg" xmlns:xlink="http://www.w3.org/1999/xlink" style="display:none">

  <symbol id="icono-calendarios-descarga-escudo" viewBox="0 0 51 50" fill="none">
      <path d="M0 35.55C0.48 33.76 2.4 32.73 4.11 33.64C6.22 34.76 5.41 37.36 5.57 39.31C5.8 42.11 8.09 44.3 10.89 44.44H39.22C41.93 44.26 44.18 42.11 44.43 39.39C44.62 37.37 43.75 34.65 46.04 33.57C47.76 32.76 49.82 33.9 50.01 35.79C50.62 41.81 48.51 47.19 42.61 49.39L40.05 50H9.96C9.3 49.85 8.64 49.77 7.99 49.58C4.54 48.59 1.73 45.84 0.56 42.46L0 40.04L0 35.55Z" fill="#C1D13F"/>
      <path d="M27.83 29.3L34.27 22.9C37.02 20.69 40.41 24.12 38.13 26.96L27 38.09C25.8 39.17 24.29 39.14 23.04 38.14L11.91 27.01C9.53 24.35 12.87 20.62 15.72 22.9L22.16 29.3V2.57999C22.16 0.549993 24.9 -0.760007 26.6 0.479993C27.13 0.859993 27.82 1.91999 27.82 2.57999V29.29L27.83 29.3Z" fill="#5C5B5B"/>
  </symbol>

  <symbol id="icono-calendarios-descarga-calandario" viewBox="0 0 51 50" fill="none">
      <path d="M0 5.96564C0.42 4.91564 1.13 4.10565 2.3 3.92565H12.48V2.20565C12.48 2.08565 12.71 1.58565 12.79 1.44565C13.83 -0.434355 16.55 -0.494355 17.63 1.34565C17.73 1.52565 18.04 2.13564 18.04 2.30564V3.91565H29.36V2.20565C29.36 2.13565 29.78 1.26565 29.86 1.14565C30.98 -0.494355 33.59 -0.334355 34.57 1.37565C34.63 1.48565 34.92 2.14565 34.92 2.19565V3.90565H45.1C46.31 4.06565 47.4 5.25564 47.41 6.48564V31.1756C47.34 31.6856 46.81 31.9556 46.33 31.7556C46.28 31.7356 45.94 31.3956 45.94 31.3656V13.6756H41.7C41.48 13.6756 41.05 13.1256 41.07 12.8556C41.09 12.6256 41.51 12.1156 41.7 12.1156H45.94V6.60564C45.94 6.00564 45.21 5.39564 44.61 5.39564H34.92V7.09564C34.92 7.24565 34.59 7.94564 34.47 8.11564C33.28 9.82564 30.74 9.74564 29.7 7.91564C29.64 7.80564 29.35 7.14565 29.35 7.09564V5.38564H18.03V6.99564C18.03 7.08564 17.79 7.72564 17.72 7.85564C16.75 9.74564 14.01 9.83564 12.88 8.04564C12.81 7.92564 12.47 7.25564 12.47 7.18564V5.38564H2.88C2.29 5.38564 1.46 5.84564 1.46 6.50564V12.1156H38.58C38.8 12.1156 39.23 12.6656 39.21 12.9356C39.19 13.1656 38.77 13.6756 38.58 13.6756H1.46V17.0456C1.46 17.6056 0.21 17.7656 0 17.0956V5.96564ZM15.1 1.50565C14.56 1.56564 14.07 2.09565 13.98 2.63565C13.86 3.37565 13.87 5.74565 13.96 6.51565C14.15 8.24565 16.22 8.11564 16.48 6.98564C16.61 6.42564 16.58 3.27565 16.5 2.61564C16.42 1.95564 15.8 1.43564 15.11 1.51565L15.1 1.50565ZM32.07 1.50565C31.15 1.57565 30.88 2.28565 30.82 3.09564C30.76 3.90564 30.72 6.66564 31.07 7.24564C31.62 8.15564 32.97 7.97564 33.33 6.97564C33.55 6.38564 33.52 3.73565 33.46 2.99565C33.39 2.20565 32.98 1.43564 32.07 1.50565Z" fill="#5C5B5B"/>
      <path d="M0 42.2556V19.7256C0.49 19.1756 1.15 19.1356 1.46 19.8756V41.4356C1.55 42.4556 1.98 42.7656 2.97 42.8456H30.1C31 42.9556 30.92 44.2556 30 44.3056H2.48C1.2 44.1956 0.45 43.3856 0 42.2556Z" fill="#5C5B5B"/>
      <path d="M32.05 39.3356C32.05 39.3356 32.01 39.2956 32.01 39.2756C32.01 39.3056 32.08 39.3556 32.02 39.2956C31.94 39.2156 31.86 39.1456 31.78 39.0756C31.76 39.0656 31.76 39.0556 31.77 39.0756C31.75 39.0656 31.73 39.0456 31.71 39.0356C31.66 39.0056 31.62 38.9656 31.57 38.9356C31.55 38.9256 31.54 38.9056 31.52 38.8856C31.36 39.0256 30.94 38.9356 30.72 38.9556V34.3756H32.13C32.73 34.3756 32.76 32.9156 32.13 32.9156H30.72V28.1356H35.5V30.7156C35.5 30.9456 36.08 31.2656 36.32 31.2556C36.61 31.2356 37.06 30.7856 37.06 30.5256V28.1356H42.03V31.5056C42.1 31.5756 42.13 31.6456 42.15 31.7256C42.16 31.7256 42.17 31.7356 42.17 31.7456C42.24 31.7756 42.32 31.7956 42.4 31.8056C42.4 31.8056 42.43 31.8056 42.44 31.8056C42.44 31.8056 42.44 31.8056 42.45 31.8056C42.5 31.8056 42.55 31.8056 42.6 31.8156C42.71 31.8156 42.81 31.8156 42.92 31.8156C42.97 31.8156 43.02 31.8156 43.07 31.8056C43.09 31.8056 43.14 31.8056 43.17 31.7956C43.23 31.7856 43.3 31.8256 43.36 31.8056C43.38 31.8056 43.5 31.8556 43.52 31.8456C43.54 31.8456 43.46 31.7256 43.51 31.7156C43.49 31.7156 43.48 31.7256 43.46 31.7356C43.45 31.7356 43.43 31.7356 43.42 31.7456C43.38 31.7656 43.41 31.7556 43.44 31.7456C43.46 31.7356 43.49 31.8656 43.51 31.8556L43.49 18.0356C43.37 16.8756 42.43 16.1156 41.3 16.0356H6.09001C4.99001 16.1156 3.98001 16.8856 3.89001 18.0356V38.4256C3.98001 39.4756 4.84001 40.3356 5.89001 40.4256H31.33C31.33 40.4256 31.43 40.3656 31.48 40.3456C31.5 40.3456 31.52 40.3356 31.54 40.3256C31.55 40.3256 31.56 40.3056 31.57 40.3056C31.59 40.2956 31.61 40.2756 31.63 40.2656C31.67 40.2256 31.71 40.1856 31.75 40.1356C31.76 40.1156 31.79 40.0756 31.8 40.0656C31.86 39.9656 31.92 39.8656 31.97 39.7556C32 39.7056 32.02 39.6456 32.04 39.5956C32 39.6956 32.04 39.6056 32.04 39.5956C32.04 39.5656 32.06 39.5356 32.07 39.5056C32.07 39.5056 32.07 39.5056 32.07 39.4956C32.07 39.4756 32.07 39.4556 32.07 39.4456C32.07 39.4356 32.07 39.4156 32.06 39.4056C32.06 39.3956 32.04 39.3756 32.04 39.3656L32.05 39.3356ZM37.07 17.5756H41.61C41.7 17.5756 42.05 18.0956 42.05 18.2056V20.3056H37.08V17.5756H37.07ZM37.07 21.8656H42.04V26.5456H37.07V21.8656ZM30.73 17.5756H35.51V20.3056H30.73V17.5756ZM30.73 21.8656H35.51V26.5456H30.73V21.8656ZM10.34 38.9356H6.10001C5.86001 38.9356 5.37001 38.5556 5.37001 38.3056V34.3556H10.34V38.9356ZM10.34 32.8956H5.37001V28.1156H10.34V32.8956ZM10.34 26.5556H5.37001V21.8756H10.34V26.5556ZM10.34 20.3056H5.37001V18.1156C5.37001 18.0456 5.76001 17.5756 5.81001 17.5756H10.35V20.3056H10.34ZM16.68 38.9356H11.9V34.3556H16.68V38.9356ZM16.68 32.8956H11.9V28.1156H16.68V32.8956ZM16.68 26.5556H11.9V21.8756H16.68V26.5556ZM16.68 20.3056H11.9V17.5756H16.68V20.3056ZM22.92 38.9356H18.14V34.3556H22.92V38.9356ZM22.92 32.8956H18.14V28.1156H22.92V32.8956ZM22.92 26.5556H18.14V21.8756H22.92V26.5556ZM22.92 20.3056H18.14V17.5756H22.92V20.3056ZM29.26 38.9356H24.48V34.3556H29.26V38.9356ZM29.26 32.8956H24.38V28.1156H29.26V32.8956ZM29.26 26.5556H24.48V21.8756H29.26V26.5556ZM29.26 20.3056H24.48V17.5756H29.26V20.3056Z" fill="#5C5B5B"/>
      <path d="M49.67 38.2856C49.38 37.3456 48.35 37.3756 48.13 38.1556C48.05 38.4456 48.48 40.0156 48.49 40.5456C48.6 48.1256 38.77 51.4056 34.36 45.2156C29.09 37.8156 38.74 28.9256 45.7 34.7456C46.03 35.0256 46.8 35.9756 47.11 36.0656C47.63 36.2256 48.16 35.7356 48.07 35.2056C47.96 34.5056 45.93 32.9856 45.29 32.6156C44.75 32.3156 44.16 32.1356 43.67 31.8356C42.48 31.5356 41.32 31.4356 40.08 31.4256C40.08 31.4256 40.08 31.4256 40.07 31.4256C36.7 31.6356 33.55 33.7956 32.18 36.9156C32.01 37.2956 31.67 38.6956 31.57 38.8356C31.55 38.8656 31.42 40.3956 31.42 40.3956V41.8056C31.42 45.6156 35.87 49.5856 39.52 49.9456C40.1 50.0056 41.28 50.0056 41.86 49.9456C47.19 49.4056 51.31 43.4456 49.68 38.2756L49.67 38.2856Z" fill="#C1D13F"/>
      <path d="M46.8 40.6956C46.8 44.0756 44.06 46.8156 40.68 46.8156C37.3 46.8156 34.56 44.0756 34.56 40.6956C34.56 37.3156 37.3 34.5756 40.68 34.5756C44.06 34.5756 46.8 37.3156 46.8 40.6956ZM45.28 40.6956C45.28 38.1556 43.22 36.0956 40.68 36.0956C38.14 36.0956 36.08 38.1556 36.08 40.6956C36.08 43.2356 38.14 45.2956 40.68 45.2956C43.22 45.2956 45.28 43.2356 45.28 40.6956Z" fill="#C1D13F"/>
      <path d="M39.9 39.9156V37.8156C39.9 37.3356 41.16 36.9056 41.42 37.7656C41.54 38.1456 41.51 40.0756 41.47 40.5556C41.43 41.0056 41.21 41.3956 40.73 41.4756C40.21 41.5556 38.53 41.5856 38.19 41.1956C37.3 40.1556 39.11 39.6856 39.9 39.9256V39.9156Z" fill="#C1D13F"/>
  </symbol>

  <symbol id="icono-calendarios-suscripsion" viewBox="0 0 277 47" fill="none">
    <rect x="0.5" y="0.5" width="276" height="46" rx="14.5" stroke="#D9D9D9"/>
    <path d="M23.8 36.0031C22.31 35.7331 21.14 34.5631 21 33.0231V13.5131C21.05 12.3031 22.57 10.6931 23.77 10.6931H27.86V9.45313C27.86 9.30313 28.16 9.05313 28.32 9.01313C28.63 8.95313 29.13 9.18313 29.13 9.50313V10.6931H38.28L38.36 10.6131V9.39313C38.36 9.16313 38.85 8.97313 39.07 9.00313C39.31 9.03313 39.63 9.32313 39.63 9.55313V10.6831H43.56C44.8 10.6831 46.35 12.3531 46.33 13.6031V33.1631C46.19 34.5031 44.92 35.8231 43.59 35.9931H23.8V36.0031ZM27.86 11.9531H24.19C23.34 11.9531 22.27 12.8431 22.27 13.7231V16.9131H45.05V13.6731C45.05 12.8231 43.94 11.9631 43.13 11.9631H39.62V13.8331C39.62 13.8831 39.49 14.1231 39.44 14.1731C39.26 14.3931 38.96 14.4531 38.69 14.3431C38.61 14.3131 38.36 14.0531 38.36 13.9831V12.0331L38.28 11.9531H29.13V13.8731C29.13 13.8731 29.01 14.1431 28.97 14.1931C28.79 14.4131 28.4 14.4431 28.16 14.3131C28.08 14.2731 27.86 13.9931 27.86 13.9231V11.9431V11.9531ZM45.05 18.1731H22.27V33.0731C22.27 33.8331 23.41 34.8131 24.19 34.7331H43.28C44.01 34.7131 45.05 33.8031 45.05 33.0731V18.1731Z" fill="#5C5B5B"/>
    <path d="M38.76 27.3631C39.22 27.2831 40.96 27.2931 41.43 27.3631C41.93 27.4331 42.16 27.8731 42.2 28.3331C42.24 28.7931 42.26 30.5931 42.11 30.9831C42.03 31.1731 41.85 31.3531 41.65 31.4231C41.35 31.5231 39.22 31.5131 38.8 31.4731C38.32 31.4231 38.08 31.0531 38.04 30.6031C37.98 30.0331 37.98 28.8031 38.04 28.2331C38.08 27.8331 38.33 27.4431 38.76 27.3731V27.3631ZM40.88 28.6231H39.35V30.2031H40.88V28.6231Z" fill="#C1D13F"/>
    <path d="M25.84 27.3631C26.33 27.2831 27.89 27.3031 28.41 27.3531C28.8 27.3931 29.18 27.6431 29.23 28.0631C29.3 28.6231 29.3 30.2531 29.23 30.8031C29.19 31.1531 28.86 31.4231 28.52 31.4631C27.92 31.5331 26.49 31.5231 25.88 31.4631C25.44 31.4231 25.17 31.0731 25.12 30.6431C25.06 30.0931 25.06 28.7131 25.12 28.1731C25.16 27.8031 25.46 27.4231 25.84 27.3631ZM27.96 28.6231H26.46L26.38 28.7031V30.2031H27.96V28.6231Z" fill="#C1D13F"/>
    <path d="M25.89 21.4131C26.37 21.3431 27.97 21.3431 28.46 21.4131C28.82 21.4631 29.19 21.7431 29.23 22.1231C29.3 22.6831 29.3 24.3131 29.23 24.8631C29.19 25.1931 28.9 25.4831 28.57 25.5231C28.01 25.5931 26.38 25.5931 25.83 25.5231C25.43 25.4731 25.16 25.0831 25.12 24.7031C25.06 24.1531 25.06 22.7731 25.12 22.2331C25.17 21.8231 25.48 21.4831 25.89 21.4231V21.4131ZM27.96 22.6631H26.46L26.38 22.7431V24.2431H27.96V22.6631Z" fill="#C1D13F"/>
    <path d="M38.87 21.4131C39.39 21.3331 40.85 21.3431 41.38 21.4131C41.91 21.4831 42.16 21.8331 42.21 22.3331C42.26 22.9331 42.27 24.1131 42.21 24.7031C42.17 25.0931 41.91 25.4731 41.5 25.5231C40.94 25.5931 39.31 25.5931 38.76 25.5231C38.46 25.4831 38.14 25.1631 38.1 24.8631C38.04 24.3531 38.03 22.5631 38.1 22.0731C38.16 21.7131 38.53 21.4731 38.88 21.4231L38.87 21.4131ZM40.94 24.2431V22.7431L40.86 22.6631H39.36V24.2431H40.94Z" fill="#C1D13F"/>
    <path d="M32.33 27.3631C32.8 27.2831 34.4 27.2931 34.9 27.3531C35.32 27.4031 35.67 27.6831 35.72 28.1131C35.79 28.6631 35.78 30.1431 35.72 30.7031C35.68 31.0731 35.39 31.4231 35.01 31.4731C34.46 31.5431 32.87 31.5431 32.32 31.4731C31.99 31.4331 31.65 31.0931 31.61 30.7631C31.55 30.2431 31.54 28.5831 31.61 28.0731C31.66 27.7131 31.98 27.4231 32.33 27.3731V27.3631ZM34.45 28.6231H32.87V30.2031H34.45V28.6231Z" fill="#C1D13F"/>
    <path d="M35.49 25.2831C35.35 25.4331 35.16 25.4931 34.96 25.5131C34.34 25.5631 32.92 25.5831 32.32 25.5131C31.91 25.4631 31.64 25.0931 31.61 24.6931C31.57 24.2731 31.55 22.2931 31.65 21.9931C31.77 21.6331 32.12 21.4331 32.48 21.4031C33.06 21.3431 34.16 21.3531 34.75 21.4031C35.23 21.4431 35.66 21.6431 35.72 22.1731C35.77 22.5431 35.77 24.7031 35.68 24.9831C35.66 25.0431 35.54 25.2431 35.49 25.2931V25.2831ZM34.45 22.6631H32.87V24.2431H34.45V22.6631Z" fill="#C1D13F"/>
    <path d="M62.665 27.03C62.665 27.66 62.51 28.21 62.2 28.68C61.89 29.15 61.44 29.515 60.85 29.775C60.27 30.025 59.56 30.15 58.72 30.15C58.35 30.15 57.985 30.125 57.625 30.075C57.275 30.025 56.935 29.955 56.605 29.865C56.285 29.765 55.98 29.645 55.69 29.505V27.39C56.2 27.61 56.725 27.815 57.265 28.005C57.815 28.185 58.36 28.275 58.9 28.275C59.27 28.275 59.565 28.225 59.785 28.125C60.015 28.025 60.18 27.89 60.28 27.72C60.39 27.55 60.445 27.355 60.445 27.135C60.445 26.865 60.35 26.635 60.16 26.445C59.98 26.255 59.735 26.08 59.425 25.92C59.115 25.75 58.76 25.57 58.36 25.38C58.11 25.26 57.84 25.12 57.55 24.96C57.26 24.79 56.98 24.585 56.71 24.345C56.45 24.095 56.235 23.795 56.065 23.445C55.895 23.095 55.81 22.675 55.81 22.185C55.81 21.545 55.955 21 56.245 20.55C56.545 20.09 56.965 19.74 57.505 19.5C58.055 19.26 58.7 19.14 59.44 19.14C60 19.14 60.53 19.205 61.03 19.335C61.54 19.465 62.07 19.65 62.62 19.89L61.885 21.66C61.395 21.46 60.955 21.305 60.565 21.195C60.175 21.085 59.775 21.03 59.365 21.03C59.085 21.03 58.845 21.075 58.645 21.165C58.445 21.255 58.29 21.38 58.18 21.54C58.08 21.7 58.03 21.89 58.03 22.11C58.03 22.36 58.105 22.575 58.255 22.755C58.405 22.925 58.63 23.09 58.93 23.25C59.23 23.41 59.605 23.6 60.055 23.82C60.605 24.08 61.07 24.35 61.45 24.63C61.84 24.91 62.14 25.24 62.35 25.62C62.56 26 62.665 26.47 62.665 27.03ZM71.9467 21.81V30H70.2367L69.9367 28.95H69.8167C69.6467 29.23 69.4267 29.46 69.1567 29.64C68.8967 29.81 68.6067 29.935 68.2867 30.015C67.9667 30.105 67.6367 30.15 67.2967 30.15C66.7167 30.15 66.2067 30.045 65.7667 29.835C65.3267 29.625 64.9867 29.3 64.7467 28.86C64.5067 28.42 64.3867 27.85 64.3867 27.15V21.81H66.6217V26.595C66.6217 27.175 66.7267 27.615 66.9367 27.915C67.1467 28.215 67.4817 28.365 67.9417 28.365C68.4017 28.365 68.7567 28.26 69.0067 28.05C69.2667 27.84 69.4467 27.535 69.5467 27.135C69.6567 26.735 69.7117 26.245 69.7117 25.665V21.81H71.9467ZM80.0051 27.57C80.0051 28.12 79.8751 28.59 79.6151 28.98C79.3551 29.36 78.9651 29.65 78.4451 29.85C77.9251 30.05 77.2801 30.15 76.5101 30.15C75.9401 30.15 75.4501 30.11 75.0401 30.03C74.6301 29.96 74.2201 29.84 73.8101 29.67V27.825C74.2501 28.025 74.7251 28.19 75.2351 28.32C75.7451 28.45 76.1951 28.515 76.5851 28.515C77.0251 28.515 77.3351 28.45 77.5151 28.32C77.7051 28.19 77.8001 28.02 77.8001 27.81C77.8001 27.67 77.7601 27.545 77.6801 27.435C77.6101 27.325 77.4501 27.2 77.2001 27.06C76.9501 26.92 76.5601 26.74 76.0301 26.52C75.5201 26.3 75.1001 26.085 74.7701 25.875C74.4401 25.655 74.1951 25.395 74.0351 25.095C73.8751 24.785 73.7951 24.4 73.7951 23.94C73.7951 23.18 74.0901 22.61 74.6801 22.23C75.2701 21.85 76.0551 21.66 77.0351 21.66C77.5451 21.66 78.0301 21.71 78.4901 21.81C78.9501 21.91 79.4251 22.075 79.9151 22.305L79.2401 23.91C78.8401 23.74 78.4601 23.6 78.1001 23.49C77.7401 23.37 77.3751 23.31 77.0051 23.31C76.6751 23.31 76.4251 23.355 76.2551 23.445C76.0951 23.535 76.0151 23.67 76.0151 23.85C76.0151 23.98 76.0551 24.1 76.1351 24.21C76.2251 24.31 76.3901 24.42 76.6301 24.54C76.8801 24.66 77.2451 24.82 77.7251 25.02C78.1951 25.21 78.6001 25.41 78.9401 25.62C79.2801 25.82 79.5401 26.075 79.7201 26.385C79.9101 26.685 80.0051 27.08 80.0051 27.57ZM85.0762 30.15C84.2662 30.15 83.5762 30.005 83.0062 29.715C82.4362 29.415 82.0012 28.955 81.7012 28.335C81.4012 27.715 81.2512 26.92 81.2512 25.95C81.2512 24.95 81.4212 24.135 81.7612 23.505C82.1012 22.875 82.5712 22.41 83.1712 22.11C83.7812 21.81 84.4812 21.66 85.2712 21.66C85.8312 21.66 86.3162 21.715 86.7262 21.825C87.1462 21.935 87.5112 22.065 87.8212 22.215L87.1612 23.94C86.8112 23.8 86.4812 23.685 86.1712 23.595C85.8712 23.505 85.5712 23.46 85.2712 23.46C84.8812 23.46 84.5562 23.555 84.2962 23.745C84.0362 23.925 83.8412 24.2 83.7112 24.57C83.5912 24.93 83.5312 25.385 83.5312 25.935C83.5312 26.475 83.5962 26.925 83.7262 27.285C83.8662 27.635 84.0662 27.9 84.3262 28.08C84.5862 28.25 84.9012 28.335 85.2712 28.335C85.7412 28.335 86.1562 28.275 86.5162 28.155C86.8762 28.025 87.2262 27.85 87.5662 27.63V29.535C87.2262 29.755 86.8662 29.91 86.4862 30C86.1162 30.1 85.6462 30.15 85.0762 30.15ZM94.0263 21.66C94.1363 21.66 94.2663 21.665 94.4163 21.675C94.5663 21.685 94.6863 21.7 94.7763 21.72L94.6113 23.82C94.5413 23.8 94.4363 23.785 94.2963 23.775C94.1663 23.755 94.0513 23.745 93.9513 23.745C93.6613 23.745 93.3813 23.785 93.1113 23.865C92.8413 23.935 92.5963 24.05 92.3763 24.21C92.1663 24.37 91.9963 24.585 91.8663 24.855C91.7463 25.115 91.6863 25.44 91.6863 25.83V30H89.4513V21.81H91.1463L91.4763 23.19H91.5813C91.7413 22.91 91.9413 22.655 92.1813 22.425C92.4213 22.195 92.6963 22.01 93.0063 21.87C93.3263 21.73 93.6663 21.66 94.0263 21.66ZM98.4978 21.81V30H96.2628V21.81H98.4978ZM97.3878 18.6C97.7178 18.6 98.0028 18.68 98.2428 18.84C98.4828 18.99 98.6028 19.275 98.6028 19.695C98.6028 20.105 98.4828 20.39 98.2428 20.55C98.0028 20.71 97.7178 20.79 97.3878 20.79C97.0478 20.79 96.7578 20.71 96.5178 20.55C96.2878 20.39 96.1728 20.105 96.1728 19.695C96.1728 19.275 96.2878 18.99 96.5178 18.84C96.7578 18.68 97.0478 18.6 97.3878 18.6ZM103.068 21.255C103.068 21.565 103.058 21.87 103.038 22.17C103.018 22.47 102.998 22.705 102.978 22.875H103.068C103.288 22.535 103.583 22.25 103.953 22.02C104.323 21.78 104.803 21.66 105.393 21.66C106.313 21.66 107.058 22.02 107.628 22.74C108.198 23.45 108.483 24.5 108.483 25.89C108.483 26.82 108.348 27.605 108.078 28.245C107.818 28.875 107.453 29.35 106.983 29.67C106.513 29.99 105.963 30.15 105.333 30.15C104.733 30.15 104.258 30.045 103.908 29.835C103.568 29.615 103.288 29.37 103.068 29.1H102.918L102.543 30H100.833V18.6H103.068V21.255ZM104.673 23.445C104.283 23.445 103.973 23.525 103.743 23.685C103.513 23.845 103.343 24.09 103.233 24.42C103.133 24.74 103.078 25.145 103.068 25.635V25.875C103.068 26.665 103.183 27.275 103.413 27.705C103.653 28.125 104.083 28.335 104.703 28.335C105.163 28.335 105.528 28.125 105.798 27.705C106.068 27.275 106.203 26.66 106.203 25.86C106.203 25.06 106.063 24.46 105.783 24.06C105.513 23.65 105.143 23.445 104.673 23.445ZM112.56 21.81V30H110.325V21.81H112.56ZM111.45 18.6C111.78 18.6 112.065 18.68 112.305 18.84C112.545 18.99 112.665 19.275 112.665 19.695C112.665 20.105 112.545 20.39 112.305 20.55C112.065 20.71 111.78 20.79 111.45 20.79C111.11 20.79 110.82 20.71 110.58 20.55C110.35 20.39 110.235 20.105 110.235 19.695C110.235 19.275 110.35 18.99 110.58 18.84C110.82 18.68 111.11 18.6 111.45 18.6ZM119.471 21.66C119.581 21.66 119.711 21.665 119.861 21.675C120.011 21.685 120.131 21.7 120.221 21.72L120.056 23.82C119.986 23.8 119.881 23.785 119.741 23.775C119.611 23.755 119.496 23.745 119.396 23.745C119.106 23.745 118.826 23.785 118.556 23.865C118.286 23.935 118.041 24.05 117.821 24.21C117.611 24.37 117.441 24.585 117.311 24.855C117.191 25.115 117.131 25.44 117.131 25.83V30H114.896V21.81H116.591L116.921 23.19H117.026C117.186 22.91 117.386 22.655 117.626 22.425C117.866 22.195 118.141 22.01 118.451 21.87C118.771 21.73 119.111 21.66 119.471 21.66ZM127.422 27.57C127.422 28.12 127.292 28.59 127.032 28.98C126.772 29.36 126.382 29.65 125.862 29.85C125.342 30.05 124.697 30.15 123.927 30.15C123.357 30.15 122.867 30.11 122.457 30.03C122.047 29.96 121.637 29.84 121.227 29.67V27.825C121.667 28.025 122.142 28.19 122.652 28.32C123.162 28.45 123.612 28.515 124.002 28.515C124.442 28.515 124.752 28.45 124.932 28.32C125.122 28.19 125.217 28.02 125.217 27.81C125.217 27.67 125.177 27.545 125.097 27.435C125.027 27.325 124.867 27.2 124.617 27.06C124.367 26.92 123.977 26.74 123.447 26.52C122.937 26.3 122.517 26.085 122.187 25.875C121.857 25.655 121.612 25.395 121.452 25.095C121.292 24.785 121.212 24.4 121.212 23.94C121.212 23.18 121.507 22.61 122.097 22.23C122.687 21.85 123.472 21.66 124.452 21.66C124.962 21.66 125.447 21.71 125.907 21.81C126.367 21.91 126.842 22.075 127.332 22.305L126.657 23.91C126.257 23.74 125.877 23.6 125.517 23.49C125.157 23.37 124.792 23.31 124.422 23.31C124.092 23.31 123.842 23.355 123.672 23.445C123.512 23.535 123.432 23.67 123.432 23.85C123.432 23.98 123.472 24.1 123.552 24.21C123.642 24.31 123.807 24.42 124.047 24.54C124.297 24.66 124.662 24.82 125.142 25.02C125.612 25.21 126.017 25.41 126.357 25.62C126.697 25.82 126.957 26.075 127.137 26.385C127.327 26.685 127.422 27.08 127.422 27.57ZM132.538 21.66C133.298 21.66 133.948 21.805 134.488 22.095C135.038 22.385 135.463 22.805 135.763 23.355C136.063 23.905 136.213 24.58 136.213 25.38V26.46H130.933C130.953 27.09 131.138 27.585 131.488 27.945C131.848 28.305 132.343 28.485 132.973 28.485C133.503 28.485 133.983 28.435 134.413 28.335C134.843 28.225 135.288 28.06 135.748 27.84V29.565C135.348 29.765 134.923 29.91 134.473 30C134.033 30.1 133.498 30.15 132.868 30.15C132.048 30.15 131.323 30 130.693 29.7C130.063 29.39 129.568 28.925 129.208 28.305C128.848 27.685 128.668 26.905 128.668 25.965C128.668 25.005 128.828 24.21 129.148 23.58C129.478 22.94 129.933 22.46 130.513 22.14C131.093 21.82 131.768 21.66 132.538 21.66ZM132.553 23.25C132.123 23.25 131.763 23.39 131.473 23.67C131.193 23.95 131.028 24.385 130.978 24.975H134.113C134.113 24.645 134.053 24.35 133.933 24.09C133.823 23.83 133.653 23.625 133.423 23.475C133.193 23.325 132.903 23.25 132.553 23.25ZM145.282 21.645C146.382 21.645 147.222 21.885 147.802 22.365C148.392 22.835 148.687 23.56 148.687 24.54V30H147.127L146.692 28.89H146.632C146.402 29.18 146.162 29.42 145.912 29.61C145.672 29.8 145.392 29.935 145.072 30.015C144.762 30.105 144.377 30.15 143.917 30.15C143.437 30.15 143.002 30.06 142.612 29.88C142.232 29.69 141.932 29.405 141.712 29.025C141.492 28.635 141.382 28.145 141.382 27.555C141.382 26.685 141.687 26.045 142.297 25.635C142.907 25.215 143.822 24.985 145.042 24.945L146.467 24.9V24.54C146.467 24.11 146.352 23.795 146.122 23.595C145.902 23.395 145.592 23.295 145.192 23.295C144.792 23.295 144.402 23.355 144.022 23.475C143.642 23.585 143.262 23.725 142.882 23.895L142.147 22.38C142.587 22.15 143.072 21.97 143.602 21.84C144.142 21.71 144.702 21.645 145.282 21.645ZM145.597 26.235C144.877 26.255 144.377 26.385 144.097 26.625C143.817 26.865 143.677 27.18 143.677 27.57C143.677 27.91 143.777 28.155 143.977 28.305C144.177 28.445 144.437 28.515 144.757 28.515C145.237 28.515 145.642 28.375 145.972 28.095C146.302 27.805 146.467 27.4 146.467 26.88V26.205L145.597 26.235ZM153.21 30H150.975V18.6H153.21V30ZM162.771 30.15C161.961 30.15 161.271 30.005 160.701 29.715C160.131 29.415 159.696 28.955 159.396 28.335C159.096 27.715 158.946 26.92 158.946 25.95C158.946 24.95 159.116 24.135 159.456 23.505C159.796 22.875 160.266 22.41 160.866 22.11C161.476 21.81 162.176 21.66 162.966 21.66C163.526 21.66 164.011 21.715 164.421 21.825C164.841 21.935 165.206 22.065 165.516 22.215L164.856 23.94C164.506 23.8 164.176 23.685 163.866 23.595C163.566 23.505 163.266 23.46 162.966 23.46C162.576 23.46 162.251 23.555 161.991 23.745C161.731 23.925 161.536 24.2 161.406 24.57C161.286 24.93 161.226 25.385 161.226 25.935C161.226 26.475 161.291 26.925 161.421 27.285C161.561 27.635 161.761 27.9 162.021 28.08C162.281 28.25 162.596 28.335 162.966 28.335C163.436 28.335 163.851 28.275 164.211 28.155C164.571 28.025 164.921 27.85 165.261 27.63V29.535C164.921 29.755 164.561 29.91 164.181 30C163.811 30.1 163.341 30.15 162.771 30.15ZM170.507 21.645C171.607 21.645 172.447 21.885 173.027 22.365C173.617 22.835 173.912 23.56 173.912 24.54V30H172.352L171.917 28.89H171.857C171.627 29.18 171.387 29.42 171.137 29.61C170.897 29.8 170.617 29.935 170.297 30.015C169.987 30.105 169.602 30.15 169.142 30.15C168.662 30.15 168.227 30.06 167.837 29.88C167.457 29.69 167.157 29.405 166.937 29.025C166.717 28.635 166.607 28.145 166.607 27.555C166.607 26.685 166.912 26.045 167.522 25.635C168.132 25.215 169.047 24.985 170.267 24.945L171.692 24.9V24.54C171.692 24.11 171.577 23.795 171.347 23.595C171.127 23.395 170.817 23.295 170.417 23.295C170.017 23.295 169.627 23.355 169.247 23.475C168.867 23.585 168.487 23.725 168.107 23.895L167.372 22.38C167.812 22.15 168.297 21.97 168.827 21.84C169.367 21.71 169.927 21.645 170.507 21.645ZM170.822 26.235C170.102 26.255 169.602 26.385 169.322 26.625C169.042 26.865 168.902 27.18 168.902 27.57C168.902 27.91 169.002 28.155 169.202 28.305C169.402 28.445 169.662 28.515 169.982 28.515C170.462 28.515 170.867 28.375 171.197 28.095C171.527 27.805 171.692 27.4 171.692 26.88V26.205L170.822 26.235ZM178.434 30H176.199V18.6H178.434V30ZM184.145 21.66C184.905 21.66 185.555 21.805 186.095 22.095C186.645 22.385 187.07 22.805 187.37 23.355C187.67 23.905 187.82 24.58 187.82 25.38V26.46H182.54C182.56 27.09 182.745 27.585 183.095 27.945C183.455 28.305 183.95 28.485 184.58 28.485C185.11 28.485 185.59 28.435 186.02 28.335C186.45 28.225 186.895 28.06 187.355 27.84V29.565C186.955 29.765 186.53 29.91 186.08 30C185.64 30.1 185.105 30.15 184.475 30.15C183.655 30.15 182.93 30 182.3 29.7C181.67 29.39 181.175 28.925 180.815 28.305C180.455 27.685 180.275 26.905 180.275 25.965C180.275 25.005 180.435 24.21 180.755 23.58C181.085 22.94 181.54 22.46 182.12 22.14C182.7 21.82 183.375 21.66 184.145 21.66ZM184.16 23.25C183.73 23.25 183.37 23.39 183.08 23.67C182.8 23.95 182.635 24.385 182.585 24.975H185.72C185.72 24.645 185.66 24.35 185.54 24.09C185.43 23.83 185.26 23.625 185.03 23.475C184.8 23.325 184.51 23.25 184.16 23.25ZM194.282 21.66C195.162 21.66 195.867 21.9 196.397 22.38C196.927 22.85 197.192 23.61 197.192 24.66V30H194.957V25.215C194.957 24.625 194.852 24.185 194.642 23.895C194.432 23.595 194.097 23.445 193.637 23.445C192.957 23.445 192.492 23.68 192.242 24.15C191.992 24.61 191.867 25.275 191.867 26.145V30H189.632V21.81H191.342L191.642 22.86H191.762C191.942 22.58 192.162 22.355 192.422 22.185C192.682 22.005 192.972 21.875 193.292 21.795C193.612 21.705 193.942 21.66 194.282 21.66ZM202.085 30.15C201.175 30.15 200.43 29.795 199.85 29.085C199.28 28.365 198.995 27.31 198.995 25.92C198.995 24.52 199.285 23.46 199.865 22.74C200.445 22.02 201.205 21.66 202.145 21.66C202.535 21.66 202.88 21.715 203.18 21.825C203.48 21.925 203.735 22.065 203.945 22.245C204.165 22.425 204.35 22.63 204.5 22.86H204.575C204.545 22.7 204.51 22.47 204.47 22.17C204.43 21.86 204.41 21.545 204.41 21.225V18.6H206.645V30H204.935L204.5 28.935H204.41C204.27 29.155 204.09 29.36 203.87 29.55C203.66 29.73 203.41 29.875 203.12 29.985C202.83 30.095 202.485 30.15 202.085 30.15ZM202.865 28.365C203.485 28.365 203.92 28.185 204.17 27.825C204.42 27.455 204.55 26.905 204.56 26.175V25.935C204.56 25.135 204.435 24.525 204.185 24.105C203.945 23.685 203.495 23.475 202.835 23.475C202.345 23.475 201.96 23.69 201.68 24.12C201.4 24.54 201.26 25.15 201.26 25.95C201.26 26.75 201.4 27.355 201.68 27.765C201.96 28.165 202.355 28.365 202.865 28.365ZM212.343 21.645C213.443 21.645 214.283 21.885 214.863 22.365C215.453 22.835 215.748 23.56 215.748 24.54V30H214.188L213.753 28.89H213.693C213.463 29.18 213.223 29.42 212.973 29.61C212.733 29.8 212.453 29.935 212.133 30.015C211.823 30.105 211.438 30.15 210.978 30.15C210.498 30.15 210.063 30.06 209.673 29.88C209.293 29.69 208.993 29.405 208.773 29.025C208.553 28.635 208.443 28.145 208.443 27.555C208.443 26.685 208.748 26.045 209.358 25.635C209.968 25.215 210.883 24.985 212.103 24.945L213.528 24.9V24.54C213.528 24.11 213.413 23.795 213.183 23.595C212.963 23.395 212.653 23.295 212.253 23.295C211.853 23.295 211.463 23.355 211.083 23.475C210.703 23.585 210.323 23.725 209.943 23.895L209.208 22.38C209.648 22.15 210.133 21.97 210.663 21.84C211.203 21.71 211.763 21.645 212.343 21.645ZM212.658 26.235C211.938 26.255 211.438 26.385 211.158 26.625C210.878 26.865 210.738 27.18 210.738 27.57C210.738 27.91 210.838 28.155 211.038 28.305C211.238 28.445 211.498 28.515 211.818 28.515C212.298 28.515 212.703 28.375 213.033 28.095C213.363 27.805 213.528 27.4 213.528 26.88V26.205L212.658 26.235ZM222.61 21.66C222.72 21.66 222.85 21.665 223 21.675C223.15 21.685 223.27 21.7 223.36 21.72L223.195 23.82C223.125 23.8 223.02 23.785 222.88 23.775C222.75 23.755 222.635 23.745 222.535 23.745C222.245 23.745 221.965 23.785 221.695 23.865C221.425 23.935 221.18 24.05 220.96 24.21C220.75 24.37 220.58 24.585 220.45 24.855C220.33 25.115 220.27 25.44 220.27 25.83V30H218.035V21.81H219.73L220.06 23.19H220.165C220.325 22.91 220.525 22.655 220.765 22.425C221.005 22.195 221.28 22.01 221.59 21.87C221.91 21.73 222.25 21.66 222.61 21.66ZM227.082 21.81V30H224.847V21.81H227.082ZM225.972 18.6C226.302 18.6 226.587 18.68 226.827 18.84C227.067 18.99 227.187 19.275 227.187 19.695C227.187 20.105 227.067 20.39 226.827 20.55C226.587 20.71 226.302 20.79 225.972 20.79C225.632 20.79 225.342 20.71 225.102 20.55C224.872 20.39 224.757 20.105 224.757 19.695C224.757 19.275 224.872 18.99 225.102 18.84C225.342 18.68 225.632 18.6 225.972 18.6ZM236.857 25.89C236.857 26.57 236.762 27.175 236.572 27.705C236.392 28.235 236.127 28.685 235.777 29.055C235.437 29.415 235.022 29.69 234.532 29.88C234.042 30.06 233.487 30.15 232.867 30.15C232.297 30.15 231.767 30.06 231.277 29.88C230.797 29.69 230.382 29.415 230.032 29.055C229.682 28.685 229.407 28.235 229.207 27.705C229.017 27.175 228.922 26.57 228.922 25.89C228.922 24.98 229.082 24.215 229.402 23.595C229.722 22.965 230.182 22.485 230.782 22.155C231.382 21.825 232.092 21.66 232.912 21.66C233.682 21.66 234.362 21.825 234.952 22.155C235.542 22.485 236.007 22.965 236.347 23.595C236.687 24.215 236.857 24.98 236.857 25.89ZM231.202 25.89C231.202 26.43 231.257 26.885 231.367 27.255C231.487 27.615 231.672 27.89 231.922 28.08C232.172 28.26 232.497 28.35 232.897 28.35C233.297 28.35 233.617 28.26 233.857 28.08C234.107 27.89 234.287 27.615 234.397 27.255C234.517 26.885 234.577 26.43 234.577 25.89C234.577 25.35 234.517 24.9 234.397 24.54C234.287 24.18 234.107 23.91 233.857 23.73C233.607 23.55 233.282 23.46 232.882 23.46C232.292 23.46 231.862 23.665 231.592 24.075C231.332 24.475 231.202 25.08 231.202 25.89Z" fill="#5C5B5B"/>
    <path d="M260 22.2605L252.624 30L245 22" stroke="#5C5B5B" stroke-width="2" stroke-linecap="round" stroke-linejoin="round"/>
  </symbol>
  
</svg>