<svg xmlns="http://www.w3.org/2000/svg" xmlns:xlink="http://www.w3.org/1999/xlink" style="display:none">

  <symbol id="Aspirantes" viewBox="0 0 59 50" fill="currentColor" xmlns="http://www.w3.org/2000/svg">
    <path d="M24.89 30.2823H36.14C36.4 30.2823 37.42 29.7723 37.68 29.5823C38.79 28.7623 39.19 27.6423 39.29 26.3023C39.6 22.1423 38.88 17.4023 39.29 13.3023C40.05 5.66234 52.11 5.54234 52.98 13.4423C52.67 19.0923 53.39 25.1723 52.98 30.7723C52.4 38.5423 45.76 44.9423 38.04 45.5323C37.84 46.6123 38.53 49.3823 37.29 49.8823L1.46999 49.9923C0.57999 49.9123 0.22999 49.7423 0.13999 48.8023C-0.0600098 46.5623 -0.0600098 42.0923 0.13999 39.8523C0.38999 37.1323 2.41999 34.6423 4.83999 33.5123C7.38999 32.3123 10.52 31.7023 13.14 30.6123L13.1 28.3523C10.58 26.7823 9.26999 23.9723 8.81999 21.1123C8.77999 20.8623 8.85999 20.3723 8.77999 20.2423C8.74999 20.1923 8.08999 19.9323 7.76999 19.5123C6.96999 18.4723 6.88999 16.4523 7.41999 15.2723C7.55999 14.9523 7.90999 14.7023 7.95999 14.4123C8.04999 13.9223 7.79999 12.7123 7.81999 12.0323C7.81999 11.6323 7.95999 11.3023 7.96999 10.9223C8.10999 6.49234 7.66999 2.29234 13.34 1.89234C14.04 1.84234 15 2.05234 15.56 1.99234C16.05 1.94234 17.72 1.08234 18.48 0.882335C22.68 -0.247665 26.43 1.08234 28.99 4.56234C30.5 6.62234 30.55 7.84233 30.47 10.3523C30.44 11.4823 30.03 13.3723 30.18 14.4023C30.26 14.9423 30.78 15.4123 30.87 16.0823C31 17.0623 30.96 18.5123 30.38 19.3423C30.12 19.7123 29.29 20.2023 29.23 20.4223C29.15 20.7023 29.24 21.0523 29.19 21.3623C28.81 23.4523 28.16 25.1423 26.76 26.7623C26.45 27.1223 25.01 28.3023 24.94 28.4423C24.73 28.9023 24.94 29.7323 24.87 30.2623L24.89 30.2823ZM28.11 11.9723C28.15 9.22233 28.75 7.73234 26.85 5.48234C24.57 2.77234 21.71 2.17234 18.4 3.31234C17.77 3.53234 16.77 4.16234 16.27 4.26234C15.5 4.42234 14.72 4.12234 13.92 4.15234C13.22 4.18234 11.74 4.48234 11.21 4.93234C10.38 5.63234 10.25 8.66234 10.23 9.75234L11 8.92234C12.99 7.33234 17.15 8.97233 19.54 9.32234C21.69 9.63234 25.27 9.46234 26.98 10.8223C27.43 11.1723 27.67 11.6523 28.11 12.0023V11.9723ZM50.75 16.4423V13.7123C50.75 11.1923 47.59 9.39234 45.26 9.76234C43.72 10.0023 41.52 11.9623 41.52 13.5723V16.4423H50.74H50.75ZM13.12 10.4723C12.39 10.5523 12.23 10.7823 11.96 11.4223C11.44 12.6423 11.49 14.1223 11.17 15.3823C10.83 15.9723 10.24 15.9823 9.63999 16.0923L9.56999 18.1323C9.74999 18.3923 10.74 18.1723 10.98 18.9523C11.18 19.5923 11.07 20.8823 11.25 21.7623C13.04 30.4423 25.9 29.8223 26.94 21.0923C27.04 20.2223 26.7 19.0223 27.54 18.4823C27.86 18.2823 28.44 18.2823 28.59 17.9923C28.67 17.5323 28.83 16.3223 28.38 16.1023C27.98 15.9123 27.34 16.1023 26.92 15.6123C26.37 14.9723 26.66 13.5023 25.66 12.6823C24.56 11.7823 20.69 11.7723 19.11 11.5423C17.53 11.3123 14.44 10.3323 13.12 10.4823V10.4723ZM50.75 18.6823H41.53V27.2823C41.53 29.7623 38.53 32.3223 36.15 32.5323C32.36 32.8623 28.11 32.2723 24.27 32.5323L21.84 33.8023L23.28 47.7523H35.65V44.3323C35.65 44.2623 35.86 43.8723 35.93 43.7723C36.43 43.0423 36.84 43.3723 37.54 43.2823C44.63 42.3923 50.2 37.8023 50.75 30.3523C51.03 26.5823 50.55 22.4923 50.75 18.6823ZM22.66 29.7223C20.27 30.4323 17.92 30.4923 15.53 29.7223L15.67 30.9123L19.08 32.8023L22.63 30.8223L22.65 29.7223H22.66ZM2.38999 39.9923V47.7523H14.97L16.14 33.7623L14.09 32.6923L5.78999 35.5623C4.15999 36.2823 2.62999 38.2223 2.38999 39.9923ZM20.84 47.7523L19.7 35.4023L19.52 35.2123L18.47 35.1823L17.24 47.4423L17.42 47.7623H20.84V47.7523Z" fill="#5B5A5A"/>
    <path d="M34.4999 11.5823C35.2199 11.4623 36.4799 11.5123 36.8099 12.2823C37.6299 14.2023 33.7599 14.5123 33.4499 13.1223C33.2499 12.2223 33.6299 11.7223 34.4999 11.5823Z" fill="#C1D13F"/>
    <path d="M56.5899 11.5923C57.4299 11.4623 58.7899 11.5123 58.8699 12.6023C58.9999 14.4923 55.7199 14.2223 55.3999 13.1323C55.1399 12.2723 55.8199 11.7123 56.5999 11.5923H56.5899Z" fill="#C1D13F"/>
    <path d="M53.92 3.47232C55.74 2.92232 55.96 5.06232 54.37 6.15232C53.05 7.06232 51.7 6.01232 52.57 4.77232C52.7 4.59232 53.79 3.51232 53.93 3.47232H53.92Z" fill="#C1D13F"/>
    <path d="M46.9299 0.272314C47.7599 1.03231 47.2799 4.50231 45.5099 3.30231C44.8799 2.87231 44.8599 1.30231 45.0799 0.642314C45.2999 -0.0176857 46.3899 -0.217686 46.9299 0.272314Z" fill="#C1D13F"/>
    <path d="M37.71 3.47231C38.74 3.26231 40.82 5.50231 39.48 6.37231C37.93 7.37231 35.5 3.93231 37.71 3.47231Z" fill="#C1D13F"/>
  </symbol>

  <symbol id="Documentos" viewBox="0 0 39 50" fill="currentColor" xmlns="http://www.w3.org/2000/svg">
    <path d="M35.4724 46.7624V49.4324C35.4724 49.6624 34.8924 50.0824 34.6224 49.9924L0.442442 49.9124C0.142442 49.7624 -0.00755751 49.4724 0.0124425 49.1324V4.09244C-0.0775575 3.82244 0.342442 3.24244 0.572442 3.24244H3.24244V0.572442C3.23244 0.342442 3.81244 -0.0775575 4.08244 0.0124425L38.2624 0.0924425C38.5624 0.242442 38.7124 0.532442 38.6924 0.872442V45.9124C38.7824 46.1824 38.3624 46.7624 38.1324 46.7624H35.4624H35.4724ZM37.0824 1.63244H4.84244V38.7024H10.7324C10.8524 38.7024 11.2824 39.1424 11.2824 39.2524V45.1424H37.0724V1.63244H37.0824ZM3.23244 4.85244H1.62244V48.3724H33.8624V46.7624H10.2324L3.23244 39.7624V4.85244ZM9.68244 40.3124H6.05244L9.68244 43.9424V40.3124Z" fill="#5B5A5A"/>
    <path d="M27.9825 9.71242C28.4425 9.61242 31.0825 9.62242 31.5825 9.69242C31.9325 9.74242 32.1825 10.0024 32.2325 10.3424V36.2324C32.2625 36.6524 32.0025 37.0124 31.5825 37.0824C31.0025 37.1724 28.6525 37.1724 28.0725 37.0824C27.7225 37.0324 27.4725 36.7724 27.4225 36.4324V10.5424C27.3925 10.1724 27.6225 9.79242 27.9925 9.71242H27.9825ZM30.6325 11.3024H29.0225V35.4824H30.6325V11.3024Z" fill="#C1D13F"/>
    <path d="M8.64256 14.5524H25.2226C25.5326 14.6424 25.7426 14.8724 25.7926 15.1924C25.8726 15.6924 25.8826 18.3324 25.7726 18.7924C25.7026 19.1224 25.3726 19.3624 25.0426 19.3724L8.64256 19.3524C8.20256 19.2124 8.10256 18.9424 8.06256 18.5224C8.00256 17.8024 7.97256 15.8724 8.07256 15.2024C8.12256 14.8824 8.33256 14.6524 8.64256 14.5624V14.5524ZM24.1826 16.1424H9.67256V17.7524H24.1826V16.1424Z" fill="#C1D13F"/>
    <path d="M8.64256 27.4424H25.2226C25.5326 27.5324 25.7426 27.7624 25.7926 28.0824C25.8726 28.5824 25.8826 31.2224 25.7726 31.6824C25.7026 32.0124 25.3726 32.2524 25.0426 32.2624L8.64256 32.2424C8.20256 32.1024 8.10256 31.8324 8.06256 31.4124C8.00256 30.6924 7.97256 28.7624 8.07256 28.0924C8.12256 27.7724 8.33256 27.5424 8.64256 27.4524V27.4424ZM24.1826 29.0324H9.67256V30.6424H24.1826V29.0324Z" fill="#C1D13F"/>
    <path d="M11.8724 20.9924L25.3024 21.0124C25.5724 21.1224 25.7524 21.3424 25.7924 21.6324C25.8624 22.0824 25.8624 24.9524 25.7524 25.3124C25.6624 25.6024 25.3424 25.8124 25.0424 25.8124L11.7924 25.7624C11.5224 25.6524 11.3424 25.4324 11.3024 25.1424C11.1924 24.4724 11.2224 22.5324 11.2924 21.8224C11.3324 21.4024 11.4324 21.1324 11.8724 20.9924ZM24.1824 22.5824H12.9024V24.1924H24.1824V22.5824Z" fill="#C1D13F"/>
    <path d="M9.6824 3.24243V4.85243H8.0724V6.46243H6.4624V3.79243C6.4624 3.67243 6.9024 3.24243 7.0124 3.24243H9.6824Z" fill="#C1D13F"/>
    <path d="M35.4724 6.46243H33.8624V4.85243H32.2524V3.24243H34.9224C35.0424 3.24243 35.4724 3.68243 35.4724 3.79243V6.46243Z" fill="#C1D13F"/>
    <path d="M35.4724 40.3124V42.9824C35.4724 43.1024 35.0324 43.5324 34.9224 43.5324H32.2524V41.9224H33.8624V40.3124H35.4724Z" fill="#C1D13F"/>
    <path d="M35.4625 8.08246H33.8525V9.69246H35.4625V8.08246Z" fill="#C1D13F"/>
  </symbol>

  <symbol id="Egresados" viewBox="0 0 45 51" fill="currentColor" xmlns="http://www.w3.org/2000/svg">
    <path d="M4.88001 36.77C5.68001 35.95 6.41001 34.92 7.51001 34.47V34.59C8.04001 34.25 8.55001 33.83 8.75001 33.28C8.77001 33.23 8.79001 33.19 8.82001 33.15C8.74001 32.93 8.56001 32.73 8.39001 32.57C8.16001 32.36 7.94001 32.15 7.73001 31.93C7.44001 32.1 7.14001 32.24 6.88001 32.42C5.92001 33.07 4.97001 33.75 4.16001 34.58C3.58001 35.17 2.39001 36.29 3.18001 37.1C3.84001 37.77 4.39001 37.27 4.88001 36.77Z" fill="#5B5A5A"/>
    <path d="M44.73 43.79C44.43 38.94 41.73 35.08 37.84 32.41C37.58 32.23 37.18 32.04 36.82 31.82C36.45 32.73 36.62 33.8 37.2 34.57V34.46C37.39 34.45 37.53 34.62 37.68 34.72C39.9 36.21 41.74 39.17 42.37 41.75C42.88 43.83 42.77 45.91 42.77 48.04H37.2C37.2 48.04 37.1 48.09 37.04 48.11C36.98 48.13 36.92 48.14 36.86 48.16C36.86 48.16 36.82 48.18 36.79 48.19C36.71 48.23 36.64 48.27 36.56 48.31C36.55 48.31 36.56 48.31 36.55 48.31C36.52 48.34 36.49 48.36 36.47 48.39C36.45 48.41 36.36 48.54 36.43 48.43C36.41 48.46 36.39 48.49 36.37 48.52C36.37 48.54 36.35 48.55 36.34 48.57C36.34 48.57 36.31 48.65 36.31 48.67C36.3 48.71 36.29 48.74 36.29 48.78C36.32 48.66 36.29 48.78 36.29 48.81C36.29 48.9 36.29 48.99 36.29 49.08C36.29 49.1 36.29 49.14 36.3 49.15C36.31 49.21 36.32 49.26 36.34 49.32C36.35 49.37 36.37 49.43 36.39 49.48C36.39 49.48 36.41 49.53 36.42 49.55C36.46 49.63 36.5 49.7 36.54 49.77C36.56 49.8 36.63 49.87 36.55 49.79C36.58 49.82 36.61 49.86 36.64 49.89C36.67 49.92 36.7 49.95 36.73 49.98H44.03C44.38 49.75 44.64 49.59 44.71 49.14C44.89 47.97 44.8 45.04 44.72 43.77L44.73 43.79Z" fill="#5B5A5A"/>
    <path d="M37.99 8.63C37.89 7.53 37.02 7.35 36.13 6.87C31.71 4.49 27.11 2.39 22.66 0.04L22.23 0L7.12997 7.67C6.66997 8.1 6.64997 8.71 7.06997 9.18L14.48 13.56L14.53 14.14C11.86 14.77 10.03 17.09 10.24 19.87C10.27 20.25 10.65 21.38 10.62 21.51C10.59 21.62 9.81997 22.55 9.65997 22.8C8.13997 25.19 7.68997 28.08 8.53997 30.81C9.28997 30.75 10.09 30.53 10.4 29.86C10.38 29.86 10.37 29.86 10.35 29.88C9.75997 27.5 10.3 25.11 11.81 23.2C12.11 22.82 12.81 22.34 12.88 21.82C12.94 21.33 12.53 20.92 12.39 20.47C11.81 18.67 12.74 16.79 14.54 16.22C14.45 19.3 14.4 22.33 16.38 24.88V28.46C16.38 28.55 16.3 28.56 16.24 28.6C16.04 28.73 13.83 29.56 13.45 29.66C14.25 29.95 15.08 30.17 15.93 30.22C16.74 30.27 17.61 30.18 18.27 29.66C18.3 29.51 18.46 29.24 18.46 29.15V26.76C18.99 27 19.49 27.3 20.04 27.47C21.65 27.97 23.24 27.95 24.83 27.42C25.34 27.25 25.79 26.97 26.27 26.76V29.45C26.27 29.45 26.35 29.55 26.37 29.63C26.39 29.64 26.41 29.65 26.42 29.66C27 30.21 28.09 30.32 28.89 30.36C29.32 30.38 29.82 30.37 30.22 30.32C30.37 30.3 30.62 30.24 30.8 30.17C30.93 30.12 31.23 29.96 31.25 29.88C31.26 29.85 31.28 29.83 31.29 29.8C31.26 29.75 31.23 29.69 31.23 29.63L28.22 28.45L28.25 24.97C30.32 22.43 30.28 19.32 30.18 16.21C31.98 16.8 32.92 18.65 32.33 20.46C32.18 20.91 31.77 21.32 31.84 21.81C31.91 22.33 32.61 22.81 32.91 23.19C34.42 25.09 34.96 27.5 34.37 29.87C34.35 29.87 34.33 29.87 34.32 29.86C34.34 29.88 34.37 29.9 34.38 29.93C34.41 29.99 34.45 30.04 34.49 30.1C34.51 30.12 34.53 30.14 34.54 30.16C34.61 30.24 34.69 30.32 34.78 30.39C34.8 30.39 34.82 30.42 34.83 30.43C34.88 30.46 34.92 30.49 34.97 30.52C35.05 30.57 35.16 30.6 35.23 30.65C35.23 30.65 35.28 30.67 35.3 30.68C35.35 30.7 35.39 30.71 35.44 30.73C35.54 30.76 35.64 30.78 35.74 30.8C35.79 30.8 35.83 30.81 35.88 30.82C35.71 30.78 35.88 30.82 35.93 30.82C36.02 30.82 36.11 30.83 36.2 30.83C36.29 30.23 36.6 28.96 36.62 28.55C36.73 26.55 36.12 24.46 35.06 22.79C34.9 22.54 34.12 21.61 34.1 21.5C34.07 21.37 34.45 20.24 34.48 19.86C34.7 17.01 32.84 14.82 30.18 14.08L30.25 13.55L35.95 10.24V15.76C35.95 15.93 36.29 16.34 36.44 16.44C37.15 16.88 37.83 16.4 37.97 15.64C37.86 13.38 38.19 10.85 38 8.63H37.99ZM27.28 22.84C25.33 26.38 20.58 26.91 18.02 23.72C16.24 21.5 16.49 18.79 16.5 16.11C16.61 16.09 16.7 16.12 16.8 16.15C18.41 16.66 20.43 18.09 21.97 18.5C22.25 18.57 22.48 18.57 22.76 18.5C24.31 18.09 26.31 16.67 27.93 16.15C28.03 16.12 28.12 16.09 28.23 16.11C28.23 18.43 28.45 20.74 27.29 22.84H27.28ZM16.51 11.04C19.86 10.27 23.68 9.99 27.05 10.79C27.29 10.85 28.14 11 28.21 11.19V13.8L22.33 16.48L16.55 13.87L16.51 11.04ZM30.17 11.32C30.46 9.32 29.39 9.29 27.83 8.93C24.11 8.08 19.54 8.06 15.87 9.18C14.51 9.6 14.48 9.85 14.54 11.32L9.84997 8.58C9.78997 8.51 11.08 7.82 11.22 7.75C14.87 5.79 18.64 4.04 22.31 2.14C22.58 2.12 25.02 3.42 25.48 3.65C28.15 4.99 30.86 6.34 33.49 7.75C33.63 7.82 34.91 8.51 34.85 8.58L30.16 11.32H30.17Z" fill="#5B5A5A"/>
    <path d="M7.56 49.99C7.56 49.99 7.6 49.97 7.63 49.96C7.68 49.94 7.67 49.94 7.61 49.97C7.67 49.97 7.77 49.89 7.82 49.86C7.84 49.85 7.86 49.84 7.87 49.83C7.89 49.81 7.93 49.78 7.93 49.77C7.95 49.75 8 49.71 8.01 49.68C7.97 49.74 7.96 49.74 7.99 49.7C8 49.68 8.02 49.66 8.03 49.64C8.05 49.61 8.07 49.58 8.08 49.54C8.08 49.53 8.09 49.51 8.1 49.5C8.1 49.5 8.1 49.5 8.11 49.47C8.13 49.4 8.15 49.32 8.17 49.25C8.17 49.25 8.17 49.25 8.17 49.24C8.17 49.2 8.17 49.17 8.17 49.13C8.17 49.05 8.17 48.97 8.17 48.89C8.17 48.86 8.17 48.82 8.17 48.79C8.17 48.79 8.17 48.79 8.17 48.77C8.16 48.7 8.14 48.62 8.12 48.55C8.12 48.54 8.09 48.47 8.08 48.45C8.08 48.44 8.07 48.42 8.06 48.41C8.05 48.38 8.03 48.36 8.01 48.33C8.01 48.32 8.01 48.32 8 48.31C7.98 48.29 7.96 48.27 7.94 48.24C7.93 48.23 7.93 48.23 7.92 48.22C7.92 48.22 7.87 48.19 7.84 48.18C7.83 48.18 7.82 48.18 7.82 48.17C7.82 48.17 7.77 48.15 7.73 48.15C7.73 48.15 7.73 48.15 7.72 48.15C7.7 48.15 7.67 48.15 7.65 48.15C7.55 48.15 7.47 48.11 7.39 48.06H1.95V44.3C1.95 44.22 1.61 43.83 1.51 43.76C0.9 43.35 0.27 43.69 0.02 44.32L0 49.28C0.09 49.67 0.39 49.81 0.68 50.02H7.54C7.54 50.02 7.55 50.02 7.56 50.02V49.99Z" fill="#5B5A5A"/>
    <path d="M1.52996 39.28C2.83996 38.99 3.17996 40.94 2.06996 41.19C0.539961 41.54 0.399961 39.53 1.52996 39.28Z" fill="#5B5A5A"/>
    <path d="M20.8301 21.91C21.0901 21.65 21.5601 21.62 21.9001 21.7C22.0901 21.75 22.2501 21.97 22.3901 21.96C22.5301 21.95 22.6901 21.73 22.9001 21.69C23.9201 21.49 24.5801 22.41 23.9701 23.25C22.7701 24.92 19.4601 23.31 20.8301 21.91Z" fill="#5B5A5A"/>
    <path d="M37.21 48.05V34.47C37.28 34.47 37.11 32.58 36.73 31.75C36.48 31.57 36.81 29.75 32.98 29.75H10.81C10.66 29.78 10.34 29.79 10.33 29.75H9.71C9.21 29.93 8.82 30.24 8.5 30.63C8.53 30.73 8.21 31.05 8.24 31.15C7.93 31.42 7.91 31.53 7.79 31.88C7.47 32.71 7.4 34.51 7.51 34.46V48.04L7.48 49.99H37.21L37.19 48.04L37.21 48.05ZM35.25 48.05H9.47001V33.55C9.47001 33.49 9.73001 32.91 9.8 32.8C10.23 32.09 11.04 31.65 11.86 31.64H33.06C33.81 31.72 34.54 32.15 34.93 32.8C34.99 32.9 35.26 33.49 35.26 33.55V48.05H35.25Z" fill="#C1D13F"/>
    <path d="M21.7501 36.35C26.8801 35.65 27.5601 43.19 22.89 43.74C17.87 44.33 17.1801 36.98 21.7501 36.35ZM22.14 38.3C19.97 38.54 20.2 41.85 22.4 41.8C24.76 41.75 24.6 38.04 22.14 38.3Z" fill="#C1D13F"/>
  </symbol>
  
  <symbol id="Equivalencia" viewBox="0 0 51 50" fill="currentColor" xmlns="http://www.w3.org/2000/svg">
    <path d="M40.1098 8.33V13.75C41.5798 12.19 43.1498 11.04 45.3898 11.96C46.4898 12.41 49.5798 15.55 49.9298 16.69C50.3398 18.02 50.0898 19.34 49.2198 20.42L40.1298 29.55L40.0298 49.55L39.6698 49.91L5.88978 49.99C5.01978 49.89 5.09978 49.2 5.09978 48.49L4.93978 48.33L0.629775 48.27C0.329775 48.15 0.119775 47.87 0.109775 47.54C0.369775 43.78 -0.230225 39.57 0.109775 35.87C0.139775 35.57 0.339775 34.99 0.689775 34.99H5.11978V3.49C5.10978 2.01 7.29978 0 8.80978 0H43.1698C44.5498 0.22 45.8798 1.18 46.4398 2.47C46.8698 3.47 46.9098 6.42 46.7798 7.55C46.7498 7.82 46.4798 8.33 46.1998 8.33H40.1098ZM39.2798 1.67H8.90977C8.09977 1.67 6.76978 2.99 6.76978 3.81V35.01C7.25978 34.97 7.82978 35.11 8.29978 34.93C8.69977 34.78 12.4298 32.28 12.7998 31.93C14.5198 30.09 15.9798 27.11 17.7098 25.38C18.4698 24.62 19.3998 25.35 20.1398 25.87C20.8098 26.34 21.3498 26.89 21.6898 27.65C23.0398 30.69 20.5398 32.62 19.1698 35.01H25.3198C26.3898 31.83 26.6098 27.65 28.8598 25.06L38.4198 15.46L38.4398 3.71C38.5598 2.97 38.7998 2.26 39.2698 1.68L39.2798 1.67ZM45.1098 6.67V3.81C45.1098 3.67 44.7798 2.95 44.6798 2.79C43.7298 1.33 41.4998 1.33 40.5498 2.79C40.4398 2.95 40.1198 3.67 40.1198 3.81V6.67H45.1198H45.1098ZM43.5198 13.36C43.1998 13.41 42.0498 13.9 42.2398 14.27L47.7098 19.54C48.5198 18.74 48.6798 17.67 48.0498 16.7C47.7498 16.23 45.6798 14.16 45.1998 13.82C44.6998 13.46 44.1298 13.27 43.5198 13.37V13.36ZM40.9098 15.42C40.7598 15.54 40.4598 15.72 40.5798 15.93L46.0498 21.2L46.3598 20.87L40.9098 15.42ZM39.2398 17.09L30.9898 25.31C30.8598 25.57 31.5298 25.97 31.6698 26.2L40.0598 18.02C40.1898 17.82 39.3498 17.07 39.2298 17.09H39.2398ZM41.3198 19.17L33.0698 27.39C32.9998 27.47 33.0298 27.52 33.0698 27.6C33.1098 27.67 34.0998 28.67 34.1698 28.7L42.5598 20.52C42.6298 20.44 42.5998 20.39 42.5598 20.31C42.4898 20.18 41.4098 19.15 41.3198 19.17ZM43.8198 21.67L35.5698 29.89C35.4398 30.15 36.1098 30.55 36.2498 30.78L44.6398 22.6C44.7698 22.4 43.9298 21.65 43.8098 21.67H43.8198ZM29.7398 26.67C29.4098 27.08 29.1398 27.58 28.9598 28.07C28.8198 28.44 28.3698 29.86 28.3598 30.19C28.3598 30.3 28.3398 30.39 28.4398 30.48L31.4398 33.43C32.6998 33.14 34.0098 32.88 35.0698 32.09L29.7498 26.67H29.7398ZM8.69977 36.66H1.77978V46.66H5.36978C5.77978 46.66 8.12978 48.33 8.90977 48.33H15.2098C14.9598 47.39 15.1198 46.55 15.7198 45.79C14.4698 44.46 15.1698 42.27 16.8598 41.75L16.7698 40.62C15.7098 41.69 14.6398 42.56 13.1698 43.01C12.3298 43.27 9.76977 43.89 10.1198 42.26C10.2898 41.5 11.5198 41.65 12.1898 41.51C14.1198 41.11 15.8698 39.53 16.4598 37.65C16.6798 36.94 16.6498 35.98 16.8498 35.44C17.3898 33.99 19.5298 31.98 20.1498 30.41C20.7098 29.01 20.1198 27.48 18.6398 27.02L14.0598 33.07L8.68977 36.66H8.69977ZM38.4398 48.33V31.25C37.7698 31.76 37.2598 32.48 36.6098 33.02C34.2598 35 30.9798 35.13 28.1698 36.14C28.0698 36.26 28.3898 36.78 28.4298 37.04C28.5498 37.9 28.3298 38.54 27.8198 39.2C29.0598 40.53 28.3698 42.72 26.6798 43.24C27.0498 44.7 26.4698 46.07 25.0098 46.57C25.0698 47.16 25.2098 47.75 24.9998 48.33H38.4398ZM27.1898 34.58C27.4998 34.53 29.4798 34.07 29.4798 33.9L27.8698 32.29C27.6898 32.29 27.2798 34.27 27.1898 34.58ZM26.5398 36.9C26.4298 36.78 26.0698 36.68 25.8898 36.66C24.4698 36.5 20.7398 36.5 19.3198 36.66C18.1598 36.79 18.1898 38.18 19.2298 38.32C21.2398 38.6 23.8198 38.12 25.8898 38.32C26.6198 38.34 27.0598 37.41 26.5398 36.89V36.9ZM26.5398 40.24C26.4298 40.12 26.0698 40.02 25.8898 40C24.4698 39.84 20.7398 39.84 19.3198 40C18.1598 40.13 18.1898 41.52 19.2298 41.66C21.2398 41.94 23.8198 41.46 25.8898 41.66C26.6198 41.68 27.0598 40.75 26.5398 40.23V40.24ZM24.8698 43.57C24.7598 43.45 24.3998 43.35 24.2198 43.33C22.7998 43.17 19.0698 43.17 17.6498 43.33C16.4898 43.46 16.5198 44.85 17.5598 44.99C19.5698 45.27 22.1498 44.79 24.2198 44.99C24.9498 45.01 25.3898 44.08 24.8698 43.56V43.57ZM23.2098 46.9C23.0998 46.78 22.7398 46.68 22.5598 46.66C21.5498 46.55 18.5498 46.53 17.5598 46.66C16.5698 46.79 16.5298 48.17 17.5598 48.31C18.4898 48.44 21.7198 48.44 22.6498 48.31C23.3598 48.21 23.6998 47.39 23.1998 46.89L23.2098 46.9Z" fill="#5B5A5A"/>
    <path d="M21.6499 6.69997C29.0099 6.00997 34.2599 13.76 30.6499 20.28C27.0399 26.8 17.9799 26.57 14.5399 20.21C11.4499 14.5 15.1999 7.29997 21.6599 6.69997H21.6499ZM21.9599 8.35997C11.6399 9.25997 13.8099 25.24 24.1499 23.16C33.1699 21.34 31.2699 7.54997 21.9599 8.35997Z" fill="#C1D13F"/>
    <path d="M26.5398 11.69C27.3398 11.51 27.8698 12.25 27.4898 12.96L21.3998 19.89C21.0898 20.07 20.7098 20.06 20.4298 19.85L17.7298 17.13C17.3498 16.42 17.8798 15.68 18.6798 15.86C19.1698 15.97 20.7398 17.92 20.8898 17.92L26.5398 11.69Z" fill="#C1D13F"/>
  </symbol>
  
  <symbol id="Estudiantes" viewBox="0 0 51 51" fill="currentColor" xmlns="http://www.w3.org/2000/svg">
    <path d="M49.97 32.4047C49.91 31.9247 49.67 31.6847 49.19 31.6247C47.63 31.4447 45.74 31.7647 44.14 31.6247C44.39 29.9247 43.48 28.3047 41.64 28.2947V26.6347H47.93C48.74 26.6347 49.95 25.3447 49.95 24.4947C49.75 21.1047 50.25 17.3447 49.97 13.9947C49.85 12.6047 48.89 11.7547 47.53 11.6547C41.52 11.2047 34.97 12.0047 28.91 11.6547C27.83 11.7247 26.8 12.7247 26.68 13.7947C26.93 17.1947 26.35 21.0647 26.68 24.4047C26.77 25.3147 27.74 26.6447 28.71 26.6447H35V28.3047C33.2 28.2847 32.23 29.9447 32.5 31.6347H30V28.8747C30 28.6547 29.55 28.3447 29.32 28.3047C28.63 28.1947 26.63 28.2247 25.89 28.2947C25.59 28.3247 25.01 28.5247 25.01 28.8747V31.6347H20.02C20.03 31.4847 18.36 31.5147 18.36 31.6347H5.04V31.4147C4.49 31.4347 3.93 31.4447 3.38 31.4547V31.6347H0.620004C0.460004 31.6347 0.0300038 32.0947 0.0500038 32.3147C0.150004 33.9547 -0.109996 35.7947 0.0400038 37.4047C0.0700038 37.7047 0.270004 38.2847 0.620004 38.2847H3.38V49.3647C3.38 49.7047 3.96 49.9147 4.26 49.9447C5 50.0147 7 50.0447 7.69 49.9347C7.92 49.8947 8.37 49.5847 8.37 49.3647V43.2847H10.14C10.06 43.4447 10.99 41.6247 10.97 41.6247H8.37V38.2947H21.68V40.0647C21.56 40.0347 23.03 40.7747 23.32 40.7447C23.33 40.7447 23.34 40.7447 23.35 40.7447V38.3047H41.65V49.3847C41.65 49.6047 42.1 49.9147 42.33 49.9547C43.02 50.0647 45.02 50.0347 45.76 49.9647C46.06 49.9347 46.64 49.7347 46.64 49.3847V38.3047H49.4C49.68 38.3047 49.94 37.7947 49.97 37.5247C50.09 36.4547 50.1 33.4947 49.97 32.4247V32.4047ZM28.96 24.9147C28.49 24.7947 28.38 24.4447 28.33 23.9847C28.05 20.9147 28.55 17.4247 28.33 14.3047C28.39 13.6147 28.62 13.3847 29.32 13.3147H47.32C47.53 13.3147 47.92 13.4147 48.07 13.5547C48.22 13.7047 48.29 14.0847 48.31 14.3047C48.59 17.3747 48.09 20.8647 48.31 23.9847C48.25 24.6747 48.02 24.9047 47.32 24.9747L28.96 24.9147ZM39.99 26.6347V28.2947H36.66V26.6347H39.99ZM35.15 29.9547C37.25 29.7647 39.66 30.0847 41.79 29.9847C42.59 30.1547 42.51 30.9447 42.49 31.6247H34.17C34.14 30.7047 34.08 30.0547 35.15 29.9547ZM26.67 29.9647H28.33V31.6247H26.67V29.9647ZM6.71 48.2647H5.05V38.2847H6.71V48.2647ZM44.98 48.2647H43.32V38.2847H44.98V48.2647ZM48.31 36.6147H1.71V33.2847H48.3V36.6147H48.31Z" fill="#5B5A5A"/>
    <path d="M37.2599 0.0447161C39.9799 -0.215284 42.9699 0.654716 44.7599 2.75472L43.5899 3.85472C40.9899 1.31472 37.1099 0.974716 34.0899 3.00472C33.9099 3.12472 33.0599 3.86472 32.9799 3.85472L31.8799 2.75472C33.0999 1.27472 35.3499 0.224716 37.2599 0.0447161Z" fill="#5B5A5A"/>
    <path d="M37.5701 3.36472C39.4101 3.15472 41.1601 3.77472 42.4801 5.05472L41.2901 6.24472C39.6401 4.61472 37.0101 4.61472 35.3601 6.24472C34.3601 5.16472 33.6801 5.18472 35.2101 4.22472C35.8901 3.80472 36.7801 3.45472 37.5701 3.36472Z" fill="#5B5A5A"/>
    <path d="M40.0901 7.2947C40.1801 7.4247 39.0801 8.5347 38.9001 8.5447C38.7301 8.5447 38.5601 8.3547 38.3701 8.3347C38.1001 8.3147 37.9001 8.5847 37.6701 8.5347L36.5601 7.4547C37.5601 6.3547 38.9501 6.5247 40.0901 7.3047V7.2947Z" fill="#5B5A5A"/>
    <path d="M24.0701 41.4547C23.9601 41.3147 23.3401 40.7747 23.3401 40.7247L21.6801 40.0447C20.0701 39.5947 18.6301 40.4247 17.4801 41.4947C15.6601 39.4747 12.9801 39.3847 11.0701 41.3447C10.9801 41.4347 10.9801 41.6047 10.9701 41.6047L10.1401 43.2647C10.0601 43.4247 10.0301 43.5447 10.0301 43.7247C9.99008 45.2647 9.86008 47.6847 10.0301 49.1447C10.0701 49.4647 10.1801 49.6947 10.4701 49.8447L24.4101 49.9047C24.7201 49.8147 24.9501 49.5747 25.0001 49.2447C24.7601 46.7147 25.7101 43.5947 24.0701 41.4547ZM16.6901 48.2647H11.7001V43.7447C11.7001 43.6047 12.0301 42.8847 12.1301 42.7247C13.0801 41.2747 15.3101 41.2647 16.2601 42.7247C16.3701 42.8847 16.6901 43.6047 16.6901 43.7447V48.2647ZM23.3501 48.2647H18.3601V43.7447C18.3601 43.6047 18.6901 42.8847 18.7901 42.7247C19.7401 41.2747 21.9701 41.2647 22.9101 42.7247C23.0201 42.8847 23.3401 43.6047 23.3401 43.7447V48.2647H23.3501Z" fill="#C1D13F"/>
    <path d="M18.8601 28.6747C18.6901 28.5747 18.1401 28.3047 17.9901 28.3047H10.0301V24.9747H8.37012V29.3947C8.37012 29.6747 8.88012 29.9347 9.15012 29.9647C11.7801 30.2747 14.9601 29.7147 17.6601 29.9847C18.4601 30.1547 18.3801 30.9547 18.3601 31.6247H18.3301H20.0301C20.0301 31.6247 19.9401 29.3247 18.8801 28.6747H18.8601Z" fill="#C1D13F"/>
    <path d="M21.68 31.6247H21.66H23.35V22.4247C23.35 21.9247 22.5 20.9647 22.04 20.7247C20.65 20.0147 18.24 19.8447 16.7 19.3547L16.72 17.3547L17.79 16.3447C18.16 17.1747 18.86 17.8547 19.74 18.1447C20.51 18.3947 22.58 18.4247 23.41 18.3247C23.82 18.2747 24.12 18.0647 24.18 17.6447C24.28 17.0247 24.25 15.1847 24.18 14.5447C24.03 13.2347 22.92 11.9647 21.59 11.7747C22.09 10.0847 21.02 8.3347 19.19 8.3447C19.71 -0.485302 7.01001 -0.485302 7.54001 8.3347C5.72001 8.3147 4.65001 10.0647 5.14001 11.7647C3.86001 11.9447 2.74001 13.1847 2.57001 14.4447C2.48001 15.1047 2.45001 17.0047 2.55001 17.6347C2.62001 18.0547 2.91001 18.2747 3.32001 18.3147C4.15001 18.4147 6.22001 18.3847 6.99001 18.1347C7.87001 17.8547 8.57001 17.1647 8.94001 16.3347L10.01 17.3447V19.3447C8.58001 19.7647 7.06001 19.9747 5.62001 20.4047C4.61001 20.7047 3.57001 21.2547 3.38001 22.4247V31.6247L5.04001 31.6047V22.7347C5.07001 22.5847 5.37001 22.2547 5.54001 22.1947L10.19 21.0247C10.61 22.1347 11.4 22.8747 12.54 23.2147V26.6447H14.2V23.2147C15.34 22.8747 16.12 22.1347 16.55 21.0247L21.2 22.2047C21.35 22.2347 21.7 22.6647 21.7 22.7447V31.6347L21.68 31.6247ZM19.19 9.9947C20.27 10.2147 20.29 11.5047 19.19 11.6547V9.9947ZM19.19 13.3247H21.11C21.61 13.3247 22.51 14.2247 22.51 14.7247V16.6447H20.59C20.09 16.6447 19.19 15.7447 19.19 15.2447V13.3247ZM7.54001 15.2447C7.54001 15.7447 6.64001 16.6447 6.14001 16.6447H4.22001V14.7247C4.22001 14.2247 5.12001 13.3247 5.62001 13.3247H7.54001V15.2447ZM7.54001 11.6547C6.44001 11.4947 6.46001 10.2147 7.54001 9.9947V11.6547ZM9.20001 7.0347C9.84001 1.5847 18.29 2.5047 17.52 8.2847C17.5 8.4247 17.58 8.4647 17.37 8.4347C16.51 8.0147 15.51 7.1247 14.65 6.7847C14.45 6.7047 14.28 6.6247 14.05 6.6747L9.20001 8.6447C9.24001 8.1347 9.14001 7.5347 9.20001 7.0347ZM15.03 20.2347C15.03 20.3747 14.65 21.0447 14.51 21.1747C13.77 21.8647 12.52 21.7347 11.99 20.8747C11.94 20.7947 11.7 20.2647 11.7 20.2247V18.0947C12.81 18.3947 13.92 18.3847 15.03 18.0947V20.2247V20.2347ZM10.34 15.3547C9.12001 14.0647 9.07001 12.1847 9.26001 10.5047L14.12 8.4547L17.5 10.4247C17.52 11.6747 17.65 12.8847 17.18 14.0747C16.1 16.8347 12.37 17.4947 10.34 15.3547Z" fill="#C1D13F"/>
  </symbol> 

  <symbol id="Extranjeros" viewBox="0 0 51 51" fill="currentColor" xmlns="http://www.w3.org/2000/svg">
    <path d="M34.62 46.69C34.67 46.7 34.72 46.72 34.77 46.74L34.14 47.03C27.49 49.49 19.81 48.8 13.8 45.03C16.13 42.94 17.57 40.58 17.9 37.42C17.91 37.28 17.81 37.13 18.04 37.18C18.04 37.05 18.04 36.92 18.04 36.79C18.04 36.76 18.04 36.74 18.02 36.71C18.01 36.66 17.99 36.61 17.98 36.56C17.98 36.54 17.96 36.51 17.96 36.49C17.94 36.45 17.92 36.41 17.9 36.37C17.88 36.33 17.85 36.3 17.83 36.27C17.81 36.25 17.8 36.23 17.78 36.21C17.75 36.17 17.71 36.14 17.67 36.11C17.65 36.1 17.64 36.09 17.62 36.07C17.57 36.04 17.52 36.01 17.47 35.98C17.45 35.98 17.43 35.96 17.41 35.95C17.3 35.91 17.18 35.87 17.06 35.85C17.03 35.85 16.99 35.84 16.96 35.83C16.96 35.83 16.94 35.83 16.93 35.83C16.87 35.83 16.81 35.82 16.75 35.81C16.64 35.81 16.52 35.81 16.41 35.81C16.41 35.82 16.42 35.84 16.43 35.85C16.7 39.24 14.99 42.08 12.48 44.17C9.14999 41.86 6.46999 38.64 4.74999 34.96C4.77999 34.54 9.28999 30.99 9.25999 29.84L9.28999 29.28C9.25999 29.22 9.22999 29.16 9.19999 29.1C9.16999 29.04 9.12999 28.98 9.08999 28.92C9.06999 28.9 9.04999 28.87 9.02999 28.85C8.99999 28.82 8.97999 28.8 8.94999 28.77C8.88999 28.73 8.82999 28.69 8.75999 28.65C8.75999 28.65 8.74999 28.65 8.73999 28.64C8.71999 28.62 8.67999 28.62 8.64999 28.61C8.58999 28.59 8.51999 28.57 8.45999 28.56C8.45999 28.56 8.43999 28.56 8.42999 28.56C8.40999 28.56 8.37999 28.56 8.35999 28.56C8.28999 28.56 8.21999 28.56 8.15999 28.56C8.06999 28.56 7.97999 28.56 7.87999 28.56C7.92999 29.3 7.78999 29.78 7.26999 30.4C6.69999 31.1 5.02999 32.79 4.33999 33.33C4.23999 33.41 4.21999 33.52 4.04999 33.48C2.88999 30.18 2.23999 26.65 2.58999 23.14L4.30999 24.83C4.30999 24.83 4.32999 24.82 4.33999 24.81C4.37999 24.79 4.42999 24.74 4.45999 24.71C4.53999 24.64 4.60999 24.56 4.67999 24.47C4.69999 24.45 4.70999 24.42 4.72999 24.4C4.75999 24.36 4.78999 24.31 4.80999 24.27C4.82999 24.23 4.85999 24.18 4.87999 24.14C4.87999 24.14 4.87999 24.14 4.87999 24.12C4.87999 24.09 4.89999 24.07 4.90999 24.04C4.92999 23.98 4.93999 23.93 4.94999 23.87C4.94999 23.85 4.94999 23.84 4.94999 23.82C4.94999 23.76 4.94999 23.7 4.94999 23.64C4.94999 23.63 4.94999 23.61 4.94999 23.59C4.94999 23.59 4.94999 23.59 4.94999 23.57C4.91999 23.45 4.88999 23.33 4.83999 23.22C4.11999 22.59 3.49999 21.8 2.81999 21.15C3.63999 16.01 6.27999 11.1 10.14 7.63001C10.61 7.21001 11.6 6.25001 12.19 6.26001C14.28 6.29001 17.12 7.15001 19.27 8.03001C19.27 8.01001 19.26 7.99001 19.26 7.98001C19.26 7.69001 19.49 7.51001 19.76 7.48001C20.45 7.40001 21.16 7.46001 21.86 7.61001C18.02 5.69001 14.04 4.49001 10.38 4.82001C10.37 4.82001 10.36 4.83001 10.35 4.84001C9.76999 5.26001 9.36999 5.73001 8.96999 6.32001C8.88999 6.44001 8.80999 6.55001 8.72999 6.67001C8.85999 6.63001 8.97999 6.59001 9.11999 6.56001C7.54999 7.97001 6.26999 9.65001 5.01999 11.34C5.03999 11.11 5.08999 10.9 5.12999 10.68C4.52999 11.56 3.94999 12.46 3.40999 13.38C3.40999 13.62 3.42999 13.87 3.44999 14.12L2.76999 15.64C2.70999 15.35 2.66999 15.05 2.62999 14.76C2.22999 15.5 1.86999 16.26 1.53999 17.04C1.68999 17.61 1.83999 18.19 1.83999 18.52C1.83999 19.03 1.42999 20.17 1.32999 20.79C-1.75001 39.86 16.6 55.16 34.78 48.4C35.35 48.19 36.67 47.47 37.14 47.38C37.2 47.23 37.26 47.09 37.31 46.93C37.29 46.93 37.27 46.92 37.26 46.91C36.41 46.63 35.49 46.59 34.6 46.71L34.62 46.69Z" fill="#5B5A5A"/>
    <path d="M43.1099 43.18C44.4699 41.89 45.6299 40.43 46.7499 38.92C46.7499 38.89 46.7599 38.86 46.7699 38.84C46.7699 38.83 46.8099 38.74 46.8199 38.73C46.8499 38.66 46.8699 38.59 46.8999 38.51C46.9499 38.36 46.9899 38.21 47.0099 38.06C47.0099 38.03 47.0199 38 47.0299 37.96C47.0299 37.96 47.0299 37.96 47.0299 37.93C47.0299 37.86 47.0399 37.79 47.0399 37.72C47.0399 37.65 47.0399 37.58 47.0399 37.51C47.0399 37.47 47.0199 37.42 47.0299 37.39C47.0299 37.45 47.0399 37.48 47.0299 37.4C47.0199 37.33 46.9999 37.26 46.9799 37.19C46.9799 37.16 46.9599 37.13 46.9499 37.11C46.9499 37.11 46.9499 37.11 46.9499 37.1C46.9199 37.04 46.8899 36.99 46.8499 36.93C46.8299 36.91 46.8099 36.89 46.7899 36.86C46.7899 36.86 46.7499 36.83 46.7299 36.81C46.7199 36.81 46.7099 36.79 46.6999 36.79C46.6399 36.75 46.5699 36.71 46.4999 36.68C46.4799 36.68 46.4499 36.67 46.4299 36.66C46.0499 37.32 45.6599 37.97 45.2099 38.6C44.1299 40.12 42.5399 41.9 41.0799 43.06C40.9499 43.17 40.6499 43.43 40.4299 43.58C40.4499 43.64 40.4699 43.7 40.4699 43.77C40.4699 43.83 40.4699 43.88 40.4699 43.94C40.4699 43.95 40.4699 43.97 40.4699 43.98C40.4699 43.98 40.4699 43.98 40.4699 43.99C40.4699 44.03 40.4899 44.08 40.4999 44.12C40.4999 44.12 40.5199 44.18 40.5299 44.21C40.5399 44.23 40.5699 44.28 40.5699 44.29C40.5899 44.32 40.6099 44.35 40.6299 44.38C40.6299 44.39 40.6299 44.4 40.6399 44.4C40.6399 44.4 40.6399 44.4 40.6599 44.41C40.6899 44.44 40.7199 44.47 40.7499 44.5C40.7799 44.53 40.8499 44.57 40.7799 44.53C40.8199 44.55 40.8499 44.58 40.8899 44.6C40.9099 44.61 40.9399 44.62 40.9499 44.63C40.9799 44.63 41.0099 44.65 41.0399 44.66C41.0599 44.66 41.0899 44.66 41.0999 44.67C41.1299 44.67 41.1699 44.67 41.1999 44.67C41.2199 44.67 41.2199 44.67 41.2299 44.67C41.2299 44.67 41.2299 44.67 41.2499 44.67C41.2999 44.66 41.3399 44.65 41.3899 44.63C41.4399 44.61 41.4499 44.61 41.4199 44.63C41.3699 44.65 41.3999 44.64 41.5299 44.59C41.4299 44.63 41.5599 44.58 41.5699 44.57C41.6099 44.55 41.6499 44.53 41.6799 44.5C41.6799 44.5 41.7199 44.47 41.7399 44.46C41.8799 44.34 41.9999 44.22 42.1299 44.08C42.3999 43.78 42.6699 43.48 43.0099 43.27C43.0499 43.24 43.0999 43.24 43.1499 43.23L43.1099 43.18Z" fill="#5B5A5A"/>
    <path d="M50.5399 20.28C48.6799 10.3 40.6399 2.29 30.6899 0.42L27.7499 0H24.2399C21.8299 0.15 19.1799 0.83 16.8999 1.68C16.4199 1.86 15.0699 2.6 14.7199 2.63C14.6999 2.63 14.6599 2.63 14.6299 2.63C14.6899 2.71 14.7299 2.81 14.7299 2.91C14.7299 2.95 14.7299 2.98 14.7299 3.02C14.7299 3.03 14.7299 3.04 14.7299 3.06C14.7299 3.06 14.7499 3.08 14.7499 3.09C14.7499 3.09 14.7699 3.11 14.7899 3.12C14.7899 3.12 14.8799 3.17 14.9099 3.18C14.9399 3.18 14.9599 3.2 14.9899 3.21C15.1099 3.25 15.2299 3.26 15.3499 3.29C15.3499 3.29 15.3499 3.29 15.3599 3.29C15.3899 3.29 15.4199 3.29 15.4599 3.29C15.5299 3.29 15.5999 3.3 15.6699 3.3C15.8099 3.3 15.9499 3.3 16.0899 3.3C16.4799 3.3 16.8599 3.25 17.2499 3.21C17.2499 3.21 17.2299 3.21 17.2199 3.21L19.6199 2.34C22.9699 1.41 26.4699 1.21 29.9099 1.79C30.0799 1.9 29.9799 3.38 30.0099 3.74C30.2699 6.78 32.3899 10.46 35.4399 11.38C36.5699 11.72 38.7099 11.35 38.5899 13.11C38.4999 14.49 36.7599 14.44 35.7399 14.29C35.7399 14.32 35.7499 14.34 35.7599 14.37C35.7799 14.45 35.8099 14.53 35.8399 14.6C35.8499 14.63 35.8699 14.66 35.8699 14.67C35.8899 14.7 35.9099 14.74 35.9199 14.77C35.9599 14.85 36.0099 14.92 36.0599 15C36.0599 15.01 36.0699 15.02 36.0799 15.03C36.1099 15.07 36.1399 15.1 36.1699 15.14C36.2799 15.27 36.3999 15.38 36.5299 15.49C36.5599 15.51 36.5799 15.52 36.6099 15.54C36.6399 15.55 36.6599 15.57 36.6899 15.58C36.8199 15.63 36.9499 15.67 37.0799 15.71C37.1699 15.74 37.2799 15.77 37.3799 15.8C40.8499 15.54 41.0399 10.68 37.4399 10.16C37.1299 10.12 36.8199 10.17 36.4999 10.12C33.1499 9.59 31.2499 5.21 31.4499 2.14C39.1299 3.89 45.4599 9.69 48.1299 17.07C45.4199 17.19 42.5799 16.91 39.8799 17.07C39.5299 17.09 39.0899 17.28 38.8099 17.27C38.8099 17.27 38.7999 17.27 38.7899 17.27C38.7899 17.33 38.7899 17.39 38.7899 17.45C38.7899 17.53 38.7899 17.62 38.7899 17.7C38.7899 17.7 38.7899 17.73 38.7899 17.74C38.7899 17.74 38.7899 17.74 38.7899 17.76C38.7899 17.78 38.7899 17.79 38.7899 17.81C38.7999 17.88 38.8199 17.95 38.8399 18.02C38.8399 18.04 38.8499 18.05 38.8599 18.07C38.8599 18.09 38.8599 18.1 38.8699 18.1C38.8799 18.12 38.8899 18.14 38.8999 18.14C38.9199 18.17 38.9399 18.2 38.9599 18.23C38.9599 18.24 38.9799 18.25 38.9799 18.26C39.0399 18.32 39.0899 18.38 39.1499 18.43C39.1699 18.44 39.1799 18.46 39.1999 18.47C39.1599 18.44 39.1599 18.44 39.1999 18.47C39.2799 18.48 39.3499 18.5 39.4199 18.53C39.4399 18.54 39.4499 18.55 39.4599 18.55C39.4599 18.55 39.4599 18.55 39.4799 18.55C39.5199 18.56 39.5599 18.58 39.5899 18.59C39.6699 18.61 39.7599 18.63 39.8399 18.65C39.8499 18.65 39.8599 18.65 39.8599 18.65C39.8999 18.65 39.9299 18.65 39.9699 18.66L40.0399 18.52H48.5699C49.0399 20.37 49.3199 22.27 49.4499 24.18H48.2399C48.0699 24.21 47.8899 24.25 47.7199 24.29C47.5899 24.32 47.4499 24.36 47.3299 24.41C47.3299 24.41 47.3099 24.41 47.2999 24.42C47.2699 24.43 47.2499 24.45 47.2199 24.46C47.1599 24.49 47.1099 24.52 47.0599 24.55C47.0599 24.55 47.0399 24.55 47.0299 24.57C47.0099 24.58 46.9999 24.6 46.9799 24.61C46.9599 24.63 46.9399 24.65 46.9199 24.67C46.8999 24.7 46.8799 24.73 46.8699 24.76C46.8499 24.82 46.8299 24.88 46.8199 24.94C46.8199 24.94 46.8199 24.97 46.8199 24.99C46.8199 24.99 46.8199 25.07 46.8199 25.11V25.13C46.8199 25.16 46.8399 25.18 46.8399 25.21C46.8399 25.22 46.8499 25.23 46.8599 25.24C46.8799 25.27 46.8899 25.3 46.9099 25.32C46.9399 25.35 46.9599 25.38 46.9899 25.41C47.0999 25.52 47.2199 25.62 47.3399 25.72H49.4599C49.3999 27.03 49.2199 28.32 48.9499 29.59C48.9799 29.64 49.0099 29.69 49.0199 29.74C49.0199 29.76 49.0299 29.79 49.0399 29.81C49.0399 29.82 49.0499 29.83 49.0599 29.84C49.0899 29.86 49.0899 29.87 49.0799 29.86C49.0899 29.88 49.1099 29.89 49.1199 29.9C49.1399 29.91 49.1499 29.92 49.1699 29.93C49.2199 29.96 49.3799 30.02 49.2099 29.96C49.2499 29.98 49.2999 29.99 49.3399 30.01C49.4499 30.04 49.5599 30.07 49.6699 30.09C49.6999 30.09 49.7299 30.09 49.7599 30.1C49.7399 30.1 49.7299 30.1 49.7199 30.1C49.7199 30.1 49.7199 30.1 49.7299 30.1C49.7899 30.1 49.8499 30.11 49.9099 30.12C50.0199 30.12 50.1299 30.13 50.2299 30.13C50.2599 30.13 50.2899 30.13 50.3299 30.13C50.3799 29.97 50.4299 29.81 50.4999 29.64L50.9199 26.69V23.18L50.4999 20.23L50.5399 20.28Z" fill="#5B5A5A"/>
    <path d="M47.5101 35.28C47.5101 35.28 47.5101 35.3 47.5201 35.31C47.5401 35.34 47.5501 35.38 47.5701 35.41C47.5801 35.43 47.6001 35.46 47.6201 35.48C47.6201 35.48 47.6201 35.49 47.6301 35.5C47.6501 35.52 47.6801 35.55 47.7001 35.57C47.7501 35.6 47.8101 35.63 47.8601 35.66C47.8601 35.66 47.8601 35.66 47.8701 35.66C47.9001 35.67 47.9401 35.68 47.9701 35.69C48.0501 35.71 48.1301 35.73 48.2201 35.75C48.3201 35.77 48.4201 35.78 48.5201 35.8C48.5201 35.8 48.5201 35.79 48.5201 35.78L49.0601 34.6C49.0401 34.48 49.0301 34.35 49.0201 34.22C49.0101 33.96 49.0201 33.71 49.0001 33.45C49.0001 33.31 48.9901 33.18 48.9701 33.04C48.9701 33.01 48.9501 32.96 48.9601 32.93C48.9601 33 48.9701 33.03 48.9601 32.94C48.9501 32.88 48.9401 32.82 48.9201 32.76C48.9101 32.7 48.8901 32.64 48.8701 32.58C48.8701 32.56 48.8601 32.55 48.8501 32.53C48.8301 32.49 48.8001 32.45 48.7801 32.41C48.7601 32.4 48.7501 32.38 48.7401 32.36C48.7201 32.36 48.7101 32.34 48.6901 32.33C48.6701 32.33 48.6501 32.32 48.6301 32.31C48.6301 32.31 48.6101 32.31 48.6001 32.31C48.5801 32.31 48.5601 32.31 48.5401 32.31C48.4701 32.31 48.4001 32.31 48.3301 32.32C48.3101 32.32 48.2901 32.32 48.2701 32.32C48.0001 33.15 47.7001 33.96 47.3401 34.75C47.3701 34.93 47.4201 35.12 47.4801 35.29L47.5101 35.28Z" fill="#5B5A5A"/>
    <path d="M14.8299 20.43C14.6999 20.61 14.5899 20.81 14.4899 21.01C14.3699 21.24 14.3299 21.33 14.2599 21.59C14.2299 21.69 14.2099 21.8 14.1899 21.9C14.1899 21.92 14.1799 22.02 14.1799 22.03C14.1799 22.08 14.1799 22.12 14.1799 22.17C14.1799 22.2 14.1799 22.23 14.1799 22.26C14.1899 22.3 14.1999 22.35 14.2099 22.39C14.2099 22.41 14.2199 22.43 14.2299 22.44C14.2499 22.48 14.2699 22.51 14.2899 22.55C14.2899 22.56 14.2899 22.56 14.2999 22.57C14.2999 22.57 14.2999 22.57 14.3099 22.57C14.3499 22.61 14.3799 22.64 14.4199 22.68C14.4199 22.68 14.4199 22.68 14.4299 22.68C14.5899 22.66 14.7599 22.68 14.9199 22.7C14.9299 22.68 14.9499 22.67 14.9599 22.65C15.6699 21.48 17.4399 19.61 18.5299 18.71C19.4199 17.99 20.5399 17.88 21.2599 18.91C21.7399 19.6 21.5199 20.33 21.8299 21.07C22.6799 23.12 25.7099 23.2 26.6699 21.18C27.1399 20.18 27.0399 16.76 26.9799 15.53C26.9199 14.33 26.6799 13.25 26.2499 12.16C26.0399 11.73 25.8799 11.27 25.5699 10.89C25.0999 10.33 24.4999 9.83001 23.8799 9.44001C22.8099 8.78001 21.5399 8.39001 20.2699 8.42001C22.7099 9.57001 25.1999 11.9 25.4199 14.75C25.5199 16.07 25.5699 18.95 25.4199 20.22C25.2899 21.31 23.6699 21.53 23.2199 20.46C23.0399 20.04 23.1199 19.61 23.0299 19.19C22.5599 16.99 19.8199 15.92 17.9699 17.26C17.4699 17.62 15.4199 19.87 14.8599 20.35C14.8599 20.37 14.8599 20.38 14.8399 20.4L14.8299 20.43Z" fill="#5B5A5A"/>
    <path d="M36.1299 43.02C36.1599 43.06 36.1999 43.09 36.2399 43.12C36.2599 43.13 36.2799 43.15 36.2899 43.16C36.3999 43.23 36.5199 43.3 36.6299 43.36C36.6899 43.39 36.7599 43.43 36.8299 43.46C36.8399 43.46 36.8399 43.46 36.8499 43.46C36.8799 43.47 36.9199 43.49 36.9499 43.5C37.0699 43.55 37.1999 43.58 37.3199 43.62C37.3699 43.57 37.4299 43.54 37.4999 43.51C37.5999 43.47 37.7099 43.44 37.8199 43.4H37.8099C37.6299 42.83 37.4699 42.25 37.2199 41.7C35.9699 38.97 33.4699 38.19 33.1999 34.6C32.9099 30.7 33.5499 26.72 37.6099 25.93C37.6199 25.92 37.6499 25.88 37.6499 25.88C37.6699 25.85 37.6899 25.81 37.7199 25.78C37.7599 25.71 37.7999 25.64 37.8399 25.56C37.8499 25.53 37.8699 25.5 37.8799 25.48C37.8799 25.47 37.8999 25.44 37.8999 25.42C37.9299 25.35 37.9499 25.28 37.9699 25.21C37.9899 25.14 38.0099 25.08 38.0199 25.01C38.0199 24.99 38.0199 24.98 38.0199 24.97C38.0199 24.94 38.0199 24.91 38.0199 24.9C38.0199 24.86 38.0199 24.82 38.0199 24.78C38.0199 24.78 38.0199 24.78 38.0199 24.77C38.0099 24.74 37.9999 24.7 37.9899 24.67C37.9699 24.64 37.9599 24.61 37.9399 24.59C37.8899 24.56 37.8299 24.49 37.7899 24.45C37.7899 24.45 37.7899 24.45 37.7699 24.44C37.7399 24.42 37.7199 24.41 37.6899 24.39C37.6699 24.38 37.6499 24.37 37.6299 24.36C34.6599 24.87 32.0099 27.63 31.7399 30.64C31.4899 33.4 31.5999 36.52 33.1599 38.88C34.0999 40.3 35.6899 41.32 36.1199 43.08L36.1299 43.02Z" fill="#5B5A5A"/>
    <path d="M32.31 21.05C33.22 21.46 35.11 21.4 36.17 20.94C36.17 20.92 36.18 20.9 36.18 20.88C36.18 20.88 36.18 20.87 36.18 20.86C36.18 20.83 36.18 20.81 36.18 20.78C36.18 20.72 36.18 20.67 36.18 20.61C36.18 20.59 36.18 20.56 36.18 20.54C36.17 20.48 36.15 20.42 36.14 20.36C36.14 20.33 36.12 20.31 36.11 20.28C36.11 20.27 36.11 20.28 36.11 20.27C36.09 20.23 36.07 20.18 36.04 20.14C36.01 20.09 35.97 20.04 35.94 19.99C35.94 19.99 35.94 20 35.95 20.01C35.93 19.99 35.91 19.97 35.89 19.95C35.85 19.91 35.79 19.87 35.75 19.83C35.73 19.81 35.7 19.8 35.68 19.78C35.63 19.75 35.57 19.72 35.51 19.69C35.48 19.69 35.45 19.67 35.42 19.66C35.36 19.64 35.3 19.62 35.24 19.61C35.24 19.61 35.24 19.61 35.23 19.61L35.35 19.73C34.73 19.8 33.97 19.91 33.35 19.83C32.01 19.67 31.54 17.7 32.57 16.9L32.67 17C32.67 17 32.67 16.94 32.67 16.92C32.67 16.91 32.67 16.9 32.67 16.89C32.66 16.83 32.64 16.77 32.62 16.71C32.62 16.7 32.61 16.68 32.6 16.67C32.57 16.63 32.58 16.64 32.6 16.67C32.6 16.68 32.6 16.69 32.62 16.7C32.6 16.67 32.59 16.64 32.57 16.6C32.54 16.55 32.51 16.49 32.47 16.44C32.45 16.42 32.43 16.39 32.41 16.37C32.37 16.33 32.32 16.28 32.28 16.24C32.26 16.22 32.23 16.21 32.21 16.19C32.15 16.15 32.1 16.12 32.04 16.09C32.03 16.09 32.02 16.08 32 16.07C31.95 16.05 31.97 16.06 32 16.07C32.01 16.07 32.02 16.07 32.03 16.08C32 16.08 31.98 16.06 31.95 16.05C31.88 16.03 31.81 16 31.74 15.99C31.71 15.99 31.68 15.98 31.65 15.97C31.65 15.97 31.64 15.97 31.63 15.97C31.54 15.97 31.59 15.97 31.63 15.97C31.64 15.97 31.64 15.97 31.66 15.97C31.59 15.97 31.51 15.96 31.43 15.96C31.41 15.96 31.38 15.96 31.36 15.96C29.86 17.44 30.44 20.23 32.32 21.07L32.31 21.05Z" fill="#5B5A5A"/>
    <path d="M2.79991 15.56L2.77991 15.61C2.19991 12.55 2.38991 9.07998 4.43991 6.58998C4.83991 6.09998 5.88991 5.50998 5.27991 4.76998C4.72991 4.10998 4.01991 4.83998 3.60991 5.26998C0.999913 7.96998 0.699913 12.21 1.23991 15.73C1.32991 16.31 1.64991 17.3 1.77991 17.99C2.43991 18.03 2.97991 18.23 3.39991 18.56C3.48991 18.24 3.59991 17.92 3.69991 17.6C3.29991 16.97 2.93991 16.28 2.78991 15.56H2.79991Z" fill="#C1D13F"/>
    <path d="M48.2801 24.2C48.2701 23.97 48.2801 23.76 48.2701 23.55C48.2301 23.3 48.1701 23.03 48.0901 22.77C48.0601 22.71 48.0501 22.66 48.0101 22.6C46.9801 20.92 45.2101 22.11 44.3201 23.22C44.4001 22.6 44.3701 22.17 43.9801 21.66C43.4101 20.92 42.7501 20.92 41.8801 21.03L39.9801 18.73L40.0001 18.69C39.4901 18.28 39.0401 17.78 38.6901 17.24C38.2401 17.08 37.6501 16.1 37.3001 15.81C37.3501 15.81 37.3901 15.79 37.4401 15.79C36.8501 15.35 36.2901 14.91 35.8301 14.32C35.7701 14.32 35.7001 14.31 35.6501 14.3C30.6201 9.73 24.8501 5.76 18.3501 3.61C17.2201 3.26 16.1101 2.91 15.0001 2.56C14.8901 2.6 14.7901 2.64 14.7201 2.64C14.2601 2.68 13.1601 2.38 12.5901 2.34C11.3301 2.27 9.86007 2.33 8.63007 2.58C7.92007 2.73 6.09007 3.04 6.54007 4.09C6.88007 4.9 8.35007 4.15 9.00007 4.02C15.4001 2.77 23.5401 6.97 28.6601 10.55C32.8301 13.47 36.5401 16.97 39.8501 20.82C40.1701 21.2 39.4901 21.32 39.3101 21.65L36.2401 18.28C30.1701 12.13 18.6201 3.43 9.48007 4.91C4.70007 5.68 3.10007 9.64 3.45007 14.1C3.48007 14.12 3.52007 14.14 3.54007 14.16C3.87007 14.54 4.21007 14.92 4.58007 15.26C4.59007 15.27 4.60007 15.28 4.61007 15.29C4.91007 14.61 5.23007 13.94 5.60007 13.29C5.56007 13.23 5.50007 13.17 5.46007 13.11C5.12007 12.59 5.01007 11.86 5.09007 11.22C5.06007 11.26 5.04007 11.29 5.01007 11.33C5.25007 8.97 6.74007 7.03 9.11007 6.55C9.07007 6.59 9.03007 6.63 8.98007 6.67C9.64007 6.52 10.3401 6.6 10.9801 6.87C11.4001 6.53 11.8501 6.24 12.1801 6.24C14.5801 6.27 17.9801 7.4 20.1601 8.41C20.2801 8.47 20.4001 8.54 20.5201 8.6C21.6701 8.85 22.6701 9.57 23.5901 10.3C23.7301 10.41 23.8701 10.53 24.0101 10.64C24.0301 10.64 24.1801 10.75 24.3501 10.88C24.5501 11.04 24.7501 11.19 24.9601 11.35C24.9901 11.38 25.0101 11.39 25.0301 11.41C25.2201 11.53 25.8401 11.76 25.2201 11.58C25.5701 11.69 25.8801 11.85 26.1601 12.05C26.1301 11.97 26.1001 11.89 26.0701 11.81L31.2901 15.81L31.3201 15.94C31.3201 15.94 31.2801 16 31.2501 16.03C31.5101 16.16 31.7701 16.32 31.9901 16.51C32.1601 16.66 32.3101 16.81 32.4701 16.97C32.5001 16.94 32.5101 16.91 32.5401 16.89L34.1901 18.57C34.8201 19.12 35.4101 19.68 35.8101 20.44C35.9101 20.62 35.9801 20.8 36.0401 20.99C36.1801 20.93 36.3101 20.87 36.4201 20.81L38.4001 23.04L37.9601 24.27C37.8501 24.28 37.7501 24.3 37.6501 24.32C37.7401 24.86 37.7101 25.42 37.5501 25.95C37.9001 25.88 38.2701 25.82 38.6701 25.8L39.4201 26.17C38.0101 26.36 36.4501 26.87 36.8101 28.64C37.1901 30.49 39.7001 29.85 41.0101 29.8C43.8601 34.2 49.0301 31.39 46.6501 26.6L47.1701 25.79H47.4001C47.4501 25.65 47.5101 25.51 47.5701 25.38C47.7401 25.03 48.1701 24.61 48.2301 24.36C48.2401 24.32 48.2401 24.28 48.2501 24.24L48.2801 24.2ZM46.7101 23.81C46.4501 24.5 45.1601 25.75 45.0301 26.42C44.9301 26.94 45.4301 27.29 45.6001 27.76C46.2601 29.52 45.3101 31.26 43.3601 30.1C42.6101 29.66 42.2201 28.45 41.8901 28.35C41.0801 28.08 39.5501 28.52 38.6101 28.41C38.2601 28.37 38.1001 28.14 38.4401 27.94C39.0701 27.57 41.2201 27.58 41.4501 26.85C41.5501 26.53 41.0901 25.07 40.8801 24.83C40.5201 24.43 39.6401 24.75 39.5501 24.46C39.4301 24.08 40.0801 24.05 40.2401 23.85C40.6301 23.37 40.1201 22.92 40.5301 22.5C41.1201 22.24 41.2701 22.87 41.8501 22.85C42.1801 22.84 42.9501 22.05 42.8801 22.79C42.8401 23.15 42.3101 23.35 42.5301 24.02C42.5601 24.12 43.2901 24.98 43.4101 25.09C44.6801 26.24 45.6201 23.4 46.7801 23.33C46.8001 23.5 46.7801 23.65 46.7301 23.81H46.7101Z" fill="#C1D13F"/>
    <path d="M12.67 28.3C17.65 34.08 23.74 39.41 30.73 42.63C38.31 46.12 49.15 47.64 48.55 36H48.54C48.17 35.55 47.82 35.09 47.38 34.7C47.11 35.31 46.82 35.9 46.49 36.49C46.49 36.77 46.49 37.06 46.5 37.34C46.5 37.36 46.5 37.38 46.5 37.4C46.57 37.85 46.64 38.3 46.66 38.75C46.66 38.86 46.66 38.96 46.64 39.06C46.74 38.92 46.85 38.79 46.95 38.66C46.71 40.99 45.22 42.98 42.85 43.44C42.9 43.39 42.95 43.34 43 43.29C42.44 43.5 41.79 43.57 41.2 43.58C40.96 43.58 40.7 43.57 40.45 43.53C40.35 43.61 40.26 43.67 40.21 43.69C39.95 43.78 37.96 43.6 37.8 43.43V43.41C37.54 43.37 37.28 43.33 37.02 43.25C36.69 43.15 36.38 43.02 36.06 42.88C36.08 42.94 36.11 43 36.12 43.06C28.21 40.82 21.16 35.41 15.64 29.45C15.08 28.84 14.08 27.8 13.65 27.15C13.35 26.69 13.7 26.66 13.84 26.28C14.21 25.28 13.62 24.08 12.52 23.94L13.98 23.5C14.42 23.32 14.69 23.11 14.94 22.7C15 22.6 15.08 22.49 15.15 22.39C15.11 21.98 15.11 21.56 15.18 21.16C15.18 21.14 15.18 21.13 15.18 21.12C15.06 20.91 14.94 20.7 14.84 20.49C14.84 20.47 14.83 20.45 14.82 20.43C14.76 20.48 14.72 20.51 14.69 20.52C13.57 19.74 12.19 20.22 10.92 20.23C7.94996 15.75 2.90996 18.72 5.28996 23.56C5.10996 23.6 5.05996 23.46 4.94996 23.37C4.87996 23.31 4.80996 23.24 4.73996 23.18C4.70996 23.41 4.67996 23.63 4.64996 23.86C4.56996 24.21 4.40996 24.51 4.18996 24.78L4.30996 24.9C3.58996 25.81 3.31996 27.16 4.41996 27.9C5.81996 28.85 6.69996 27.65 7.62996 26.78C7.41996 27.35 7.76996 27.8 7.82996 28.29C7.84996 28.48 7.85996 28.64 7.85996 28.8C8.34996 28.83 8.84996 29 9.27996 29.28V29.03H10.13C11.7 31.01 13.39 32.94 15.19 34.7C15.45 34.95 16.18 35.45 16.37 35.81C17.17 36.2 17.65 36.92 17.84 37.74C17.85 37.65 17.87 37.57 17.88 37.48C17.89 37.34 17.79 37.19 18.02 37.24C22.92 41.42 28.51 45.01 34.75 46.8L34.68 46.83C34.68 46.83 34.69 46.83 34.7 46.83C35.05 46.98 35.41 47.09 35.77 47.19C35.84 47.19 35.91 47.2 35.98 47.21C36.35 47.25 36.69 47.32 37.01 47.44C37.06 47.42 37.12 47.41 37.16 47.4C37.57 47.33 38.91 47.65 39.47 47.68C40.7 47.75 42.13 47.68 43.33 47.43C44.07 47.28 45.93 46.96 45.36 45.88C44.97 45.13 43.64 45.85 42.95 45.98C36.93 47.16 29.37 43.51 24.44 40.25C19.79 37.18 15.68 33.33 12.06 29.12C11.85 28.77 12.48 28.66 12.65 28.34L12.67 28.3ZM11.74 26.12C11.38 26.56 11.86 27.33 11.39 27.5C10.85 27.69 10.7 27.09 10.14 27.12C9.78996 27.14 9.03996 27.89 9.10996 27.18C9.14996 26.82 9.66996 26.62 9.45996 25.95C9.36996 25.68 8.39996 24.63 8.07996 24.59C7.32996 24.49 6.24996 26.02 5.72996 26.54H5.25996C5.16996 26.4 5.21996 26.28 5.25996 26.15C5.51996 25.47 6.80996 24.21 6.94996 23.54C7.04996 23.01 6.61996 22.77 6.42996 22.34C5.39996 19.98 7.44996 18.42 9.15996 20.29C9.46996 20.63 9.73996 21.51 10.08 21.62C10.89 21.89 12.42 21.45 13.36 21.56C13.71 21.6 13.87 21.83 13.53 22.03C12.96 22.36 11 22.44 10.62 22.93C10.47 23.13 10.46 23.3 10.49 23.54C10.52 23.73 10.98 25.05 11.08 25.15C11.41 25.49 12.34 25.26 12.42 25.52C12.54 25.9 11.89 25.93 11.73 26.13L11.74 26.12Z" fill="#C1D13F"/>
    <path d="M50.9599 35.71C50.8099 35.25 50.8099 34.71 50.7399 34.23C50.4999 32.71 49.9499 31.58 50.3999 30.1C49.9099 30.09 49.4299 29.95 48.9999 29.7C48.8299 30.53 48.5899 31.35 48.3299 32.16C48.4099 32.25 48.4599 32.37 48.4599 32.49C48.4599 32.58 48.4799 32.67 48.4799 32.76C48.4799 32.78 48.4799 32.79 48.4799 32.81C48.4799 32.86 48.4999 32.91 48.5099 32.97C48.5499 33.17 48.6099 33.37 48.6799 33.56C48.7099 33.66 48.7499 33.76 48.7899 33.86C48.7999 33.89 48.8099 33.92 48.8299 33.95C48.8299 33.97 48.8399 33.98 48.8399 33.98C48.8599 34.02 48.8799 34.06 48.8799 34.07C48.9499 34.23 49.0299 34.38 49.1099 34.53L49.1899 34.35C49.7799 37.45 49.5599 40.84 47.5299 43.37C47.1399 43.85 46.2399 44.31 46.5799 45.01C47.2599 46.38 48.7999 44.21 49.2099 43.59C50.1399 42.2 50.8099 40.21 50.9399 38.54C51.0099 37.63 50.8899 36.63 50.9399 35.71H50.9599Z" fill="#C1D13F"/>
  </symbol>

  <symbol id="Oferta-cultural" viewBox="0 0 46 51" fill="currentColor" xmlns="http://www.w3.org/2000/svg">
    <path d="M44.3201 29.06C44.2701 28.95 43.8301 28.71 43.7901 28.71H36.4501C36.4501 28.71 36.4701 28.67 36.4701 28.66C36.4701 28.66 36.4701 28.66 36.4601 28.66C36.4601 28.66 36.4601 28.66 36.4301 28.66C36.4101 28.66 36.3801 28.66 36.3601 28.67C36.2701 28.69 36.1901 28.71 36.1001 28.73C36.0001 28.76 35.9001 28.79 35.8001 28.83C35.7801 28.83 35.7601 28.85 35.7401 28.85C35.7001 28.87 35.6701 28.88 35.6301 28.9C35.5301 28.95 35.4401 29 35.3501 29.06C35.3201 29.08 35.2801 29.1 35.2501 29.13C35.2401 29.13 35.1901 29.18 35.1701 29.19C35.1001 29.25 35.0401 29.3 34.9801 29.37C34.9801 29.37 34.9601 29.39 34.9601 29.4C34.9301 29.44 34.9301 29.44 34.9701 29.38C34.9401 29.4 34.9201 29.46 34.9001 29.49C34.9001 29.5 34.9001 29.49 34.8901 29.5C34.8901 29.53 34.8701 29.56 34.8601 29.59C34.8601 29.6 34.8601 29.62 34.8601 29.63C34.8601 29.66 34.8601 29.69 34.8601 29.72C34.8601 29.76 34.8601 29.81 34.8601 29.85C34.8601 29.85 34.8601 29.85 34.8601 29.87C34.8601 29.89 34.8701 29.91 34.8801 29.94C34.9601 29.99 35.0101 30.06 35.0701 30.11C35.1301 30.17 35.2001 30.23 35.2601 30.29C35.2801 30.27 35.3101 30.25 35.3301 30.22H42.8801C43.0501 30.39 42.4501 33.6 42.1701 33.8C39.1601 34.27 36.6501 32.55 33.7601 34.31C32.1701 35.27 32.1001 36.45 31.1201 37.76C29.9201 39.37 27.3201 39.62 26.6301 41.64C25.8901 43.8 28.4301 45.68 29.1801 47.5C24.4701 49 19.1301 48.9 14.6201 46.8C15.2201 45.84 15.7601 45.08 16.7101 44.44C19.0301 42.89 22.9201 43.03 22.4401 39.19C22.0801 36.26 15.5601 36.42 14.2701 33.23C13.8501 32.2 13.9201 31.28 14.1801 30.22H21.0801C21.0801 30.22 21.0801 30.22 21.0901 30.23C21.1801 30.11 21.2801 30 21.3801 29.88C21.4001 29.85 21.4101 29.82 21.4301 29.8C21.4301 29.8 21.4301 29.8 21.4301 29.79C21.4101 29.74 21.3701 29.67 21.4301 29.78C21.4101 29.75 21.3901 29.71 21.3701 29.68C21.3701 29.67 21.3501 29.66 21.3501 29.65C21.2301 29.53 21.1201 29.41 20.9901 29.31C20.9601 29.29 20.9201 29.26 20.9101 29.25C20.8701 29.23 20.8401 29.2 20.8001 29.18C20.7201 29.12 20.6301 29.07 20.5401 29.02C20.3401 28.9 20.1301 28.8 19.9201 28.7V28.73H1.62009C1.52009 28.73 1.09009 29.1 1.04009 29.24C0.830094 29.95 1.32009 32.36 1.51009 33.19C3.94009 43.75 14.0601 50.99 24.8801 49.92C34.1801 49.01 42.1301 41.91 44.0101 32.75C44.1701 31.97 44.5901 29.72 44.3101 29.08L44.3201 29.06ZM13.3601 46.21C7.34009 43.22 3.09009 36.95 2.55009 30.23H12.6601C12.0001 33.77 13.6801 35.73 16.7201 37.1C17.6801 37.53 20.1801 38.21 20.7601 38.93C21.1501 39.41 21.1101 40.11 20.8401 40.63C20.3501 41.58 18.3801 41.97 17.4101 42.42C15.6401 43.23 14.1901 44.42 13.3701 46.21H13.3601ZM30.4801 46.96C30.1501 45.6 28.3601 44.19 28.0301 42.94C27.5601 41.14 30.3301 40.47 31.4601 39.51C33.0801 38.13 33.0101 36.01 35.1901 35.2C37.2401 34.44 39.5401 35.57 41.6701 35.33C39.8901 40.58 35.5901 44.89 30.4801 46.96Z" fill="#5B5A5A"/>
    <path d="M7.9503 19.23C9.0003 24.1 14.0803 27.43 18.9703 26.47L19.9403 28.71H19.9103C20.1003 28.96 20.2503 29.24 20.4203 29.5C20.4203 29.5 20.4403 29.52 20.4403 29.53C20.6503 29.76 20.8903 29.98 21.0703 30.23C24.7103 34.42 31.4103 34.44 35.1403 30.4C35.1603 30.36 35.1703 30.32 35.1903 30.29C35.3103 30.08 35.4803 29.89 35.6603 29.72C35.7303 29.65 35.8003 29.59 35.8703 29.52C35.8903 29.5 35.9203 29.47 35.9403 29.45C35.9603 29.42 35.9803 29.39 36.0003 29.36C36.1603 29.12 36.2903 28.87 36.4703 28.65C36.8203 27.93 37.1603 27.21 37.3603 26.43C38.4703 22.24 37.3103 16.42 37.7503 12.03C37.7603 11.2 37.0203 11.03 36.3903 10.78C33.4503 9.59999 29.9203 9.14999 26.7703 9.36999V4.74999C26.7703 4.40999 25.1003 3.82999 24.7603 3.71999C20.2303 2.14999 12.6503 1.95999 8.3303 4.24999C7.7203 4.56999 7.7003 4.69999 7.6403 5.40999C8.0203 9.71999 7.0303 15.08 7.9303 19.25L7.9503 19.23ZM26.7803 17.89V10.77C29.9803 10.65 33.2503 10.99 36.1803 12.29L36.2403 12.56C36.0003 16.52 36.5403 20.82 36.2403 24.74C35.9903 27.88 33.4603 30.83 30.4503 31.67C26.1603 32.87 21.4503 30.4 20.4803 25.99C23.1603 25.15 25.4003 22.77 26.2803 20.11C26.4603 19.58 26.7703 18.4 26.7703 17.89H26.7803ZM9.2003 5.46999C14.3503 3.39999 20.2003 3.45999 25.3603 5.46999V17.24C24.7103 27.55 10.3703 27.78 9.1803 17.79L9.2003 5.46999Z" fill="#C1D13F"/>
    <path d="M30.2901 0.259999C30.8301 -0.320001 31.5701 0.139999 31.6601 0.839999C31.7701 1.6 31.7801 4.43 31.6601 5.17C31.5001 6.16 30.2001 6.22 30.0501 4.95C29.9401 4.04 29.9401 1.97 30.0401 1.05C30.0601 0.869999 30.1701 0.379999 30.2901 0.259999Z" fill="#C1D13F"/>
    <path d="M40.5599 4.16997C41.3099 4.00997 41.7799 4.74997 41.3499 5.39997C41.1499 5.69997 38.4799 8.35997 38.1899 8.54997C37.3699 9.05997 36.5799 8.27997 37.0599 7.52997C37.3099 7.13997 39.7199 4.74997 40.1499 4.42997C40.2799 4.32997 40.3799 4.21997 40.5599 4.17997V4.16997Z" fill="#C1D13F"/>
    <path d="M45.4403 15.31C45.3403 15.43 45.0403 15.54 44.8803 15.56C44.0703 15.66 41.2103 15.67 40.4303 15.55C39.5803 15.42 39.5103 14.3 40.3203 14.04C41.7503 14.19 43.6103 13.83 44.9803 14.04C45.5803 14.13 45.7903 14.87 45.4403 15.31Z" fill="#C1D13F"/>
    <path d="M13.17 17.86C14.03 17.67 14.1 18.51 14.56 19.03C16.02 20.69 18.59 20.61 20 18.92C20.43 18.4 20.64 17.4 21.53 17.93C22.42 18.46 20.95 20.12 20.43 20.54C18.45 22.16 15.43 22 13.64 20.16C13.2 19.71 12 18.11 13.17 17.85V17.86Z" fill="#C1D13F"/>
    <path d="M20.1299 9.17C21.6199 8.91 23.1899 9.78 23.4799 11.31C23.6899 12.43 22.6599 12.95 22.1999 12.15C21.8099 11.48 21.9899 10.48 20.6499 10.54C19.3099 10.6 19.5299 12.19 18.9599 12.45C18.6099 12.61 18.0599 12.41 17.9899 12.01C17.7499 10.79 18.9499 9.36 20.1299 9.16V9.17Z" fill="#C1D13F"/>
    <path d="M15.7702 9.93999C16.2702 10.45 17.0802 12.19 16.0602 12.49C15.0402 12.79 15.2102 11.41 14.7302 10.93C14.1502 10.36 13.2102 10.44 12.7202 11.09C12.3302 11.61 12.4502 12.77 11.4702 12.46C10.7002 12.22 11.0102 11.15 11.2802 10.63C12.1102 8.95999 14.4902 8.62999 15.7902 9.93999H15.7702Z" fill="#C1D13F"/>
    <path d="M27.7301 23.19C31.0101 22.51 31.2601 29.21 28.3601 29.47C25.8201 29.7 25.2301 25.01 27.1101 23.54C27.2901 23.4 27.5101 23.23 27.7301 23.19ZM28.1601 24.69C27.3901 24.82 27.2601 27.64 28.2401 27.94C28.9301 27.79 29.1701 24.93 28.1601 24.69Z" fill="#C1D13F"/>
    <path d="M29.4699 16.66C30.4799 16.45 30.2699 17.51 30.6399 18.05C31.0899 18.69 31.9999 18.77 32.5899 18.27C33.1799 17.77 33.0099 16.34 34.0599 16.69C34.8899 16.97 34.3599 18.41 33.9899 18.92C32.7899 20.6 29.9999 20.33 29.1699 18.43C28.9399 17.91 28.6799 16.83 29.4599 16.67L29.4699 16.66Z" fill="#C1D13F"/>
  </symbol>

  <symbol id="Problemas-tecnologicos" viewBox="0 0 49 50" fill="currentColor" xmlns="http://www.w3.org/2000/svg">
    <path d="M4.05998 50.0091C1.73998 49.4491 0.239976 47.7791 0.0599756 45.3691C-2.44416e-05 44.5691 -0.0300244 43.0091 0.0599756 42.2391C0.0899756 41.9891 0.339976 41.5091 0.599976 41.5091H2.20998V16.0791C2.20998 14.1491 4.73998 11.8291 6.64998 11.8291H18.61V9.18914H14.36C14.36 9.18914 13.97 8.98914 13.95 8.96914C13.49 8.50914 13.85 6.38914 13.72 5.68914C11.22 5.02914 11.13 1.42914 13.58 0.599137C17.08 -0.590863 18.73 4.73914 15.2 5.67914V7.72914H19.54C19.71 7.72914 20.08 8.19914 20.08 8.35914V11.8291H23.69V5.28914C20.98 4.65914 21.11 0.559137 23.78 0.0591367C27.23 -0.580863 28.39 4.15914 25.15 5.33914V11.8291H28.47V8.45914C28.47 8.29914 28.81 7.72914 29.01 7.72914H33.55V5.67914C30.02 4.69914 31.71 -0.570863 35.16 0.599137C37.64 1.43914 37.55 5.02914 35.02 5.68914C34.92 5.79914 35.09 8.17914 34.99 8.63914C34.94 8.84914 34.54 9.19914 34.38 9.19914H29.94V11.8391H42.09C43.96 11.8391 46.53 14.0791 46.53 15.9891V41.5191H48.24C48.44 41.5191 48.67 42.0491 48.69 42.2491C48.97 45.0691 48.76 48.3791 45.82 49.6391L44.68 50.0091H4.05998ZM24.05 1.50914C22.74 1.74914 22.82 3.87914 24.32 3.93914C26.15 3.99914 26.04 1.14914 24.05 1.50914ZM14.29 1.89914C12.41 2.16914 13.34 5.25914 15.13 4.20914C16.31 3.51914 15.6 1.70914 14.29 1.89914ZM34.11 1.89914C32.74 2.08914 32.67 4.11914 34.03 4.37914C35.94 4.73914 35.97 1.64914 34.11 1.89914ZM45.06 41.5191V15.9891C45.06 14.8491 43.17 13.2191 41.98 13.3091H6.93998C5.64998 13.1791 3.66998 14.8291 3.66998 16.0891V41.5191H18.75C19.59 42.3291 20.22 43.2391 21.43 43.5291C22.49 43.7791 26.36 43.7991 27.4 43.5291C28.61 43.2091 29.12 42.2091 30.08 41.5191H45.07H45.06ZM47.21 42.9791H30.56C29.72 43.8991 28.71 44.8291 27.41 44.9991C26.11 45.1691 23.15 45.1291 21.77 45.0291C20.26 44.9191 19.12 44.0691 18.16 42.9791H1.51998V45.6591C1.51998 46.9891 3.22998 48.6291 4.58998 48.5391H44.43C45.54 48.5291 47.21 46.9191 47.21 45.8491V42.9691V42.9791Z" fill="#5B5A5A"/>
    <path d="M6.77009 16.1492L41.8001 16.1192C42.1301 16.1092 42.4001 16.2492 42.5501 16.5392L42.6301 38.4392C42.6501 38.7692 42.4801 39.0292 42.2301 39.2092L7.03009 39.2592L6.35009 38.9592L6.30009 16.8392C6.29009 16.5092 6.42009 16.2092 6.76009 16.1292L6.77009 16.1492ZM41.0601 17.5992H7.67009V37.8591L7.82009 38.0092H41.0601V17.6092V17.5992Z" fill="#5B5A5A"/>
    <path d="M23.5699 19.2891C31.3799 18.5891 36.0899 27.8191 30.8599 33.7091C26.6199 38.4891 18.7599 37.1191 16.3399 31.2391C14.1299 25.8691 17.7999 19.8091 23.5599 19.2891H23.5699ZM29.5099 22.8091C25.6299 18.9291 18.9099 20.6791 17.4399 25.9491C15.7999 31.8291 21.6099 36.9691 27.2399 34.5791C31.8999 32.5991 33.0999 26.3991 29.5099 22.8091Z" fill="#C1D13F"/>
    <path d="M24.2399 22.6892C24.8399 22.5792 25.0999 23.1992 25.1499 23.6992C25.2399 24.7092 25.2699 27.3192 25.1399 28.2792C24.9899 29.3192 23.7899 29.3492 23.6799 28.4892C23.4699 26.8992 23.8399 24.8592 23.6799 23.2192C23.7199 22.9992 24.0299 22.7292 24.2399 22.6992V22.6892Z" fill="#C1D13F"/>
    <path d="M24.14 30.4091C25.26 30.0691 25.26 31.8191 25.08 32.5191C24.85 33.3991 23.81 33.2491 23.68 32.5891C23.58 32.0891 23.55 30.5891 24.14 30.4091Z" fill="#C1D13F"/>
  </symbol>

  <symbol id="Propedeutico" viewBox="0 0 50 50" fill="currentColor" xmlns="http://www.w3.org/2000/svg">
    <path d="M48.38 6.45H3.78C3.08 6.45 3.08 4.84 3.78 4.84H48.38V2.98C48.38 2.56 47.7 1.76 47.23 1.72C32.46 1.54 17.62 1.6 2.85 1.69C2.06 1.9 1.69 2.49 1.62 3.28L1.69 35.87C1.9 36.66 2.49 37.03 3.28 37.1H27.47C28.49 37.19 28.49 38.61 27.47 38.71H2.88C1.32 38.51 0.06 37.24 0 35.64V2.97C0.12 1.39 1.39 0.12 2.97 0H46.92C48.53 0.06 49.8 1.3 49.99 2.88V35.93C49.82 37.28 48.64 38.5 47.29 38.69C46.28 38.83 42.75 38.86 41.78 38.71C40.89 38.57 40.89 37.25 41.78 37.11C43.33 36.87 45.54 37.37 47.07 37.06C47.33 37.01 47.74 36.8 47.93 36.61C48.04 36.49 48.38 35.86 48.38 35.75V6.45Z" fill="#5B5A5A"/>
    <path d="M39.3101 26.71C38.8701 28.3 37.6301 29.67 36.1201 30.32C32.9801 31.69 29.3901 29.95 28.4201 26.71C26.9601 27.18 24.9301 28.23 24.3701 29.77C24.1201 30.47 24.2901 31.79 23.0701 31.41C21.8501 31.03 23.0501 28.55 23.5801 27.88C25.1701 25.89 26.8701 25.6 29.1201 24.96C30.0501 24.7 31.0001 23.17 30.8301 22.24C30.7901 22.03 30.1201 21.4 29.9401 21.11C29.3001 20.11 28.8301 18.38 29.0201 17.2C29.0901 16.77 29.4801 16.6 29.7201 16.28C30.3801 15.43 30.8701 14.69 31.2401 13.67C31.4801 13 31.3501 11.97 32.3901 12.11C32.7701 12.16 34.5401 13.73 35.1701 14.08C35.5801 14.31 36.1301 14.58 36.5801 14.69C37.1901 14.84 37.8701 14.63 38.2201 15.27C39.1001 16.87 38.7401 19.6 37.7801 21.12C37.3401 21.81 36.7701 21.9 36.9201 22.83C37.0501 23.64 37.7801 24.74 38.6101 24.97C40.8701 25.61 42.5601 25.9 44.1501 27.89C44.7201 28.6 46.0201 31.4 44.4001 31.47C43.3901 31.51 43.6101 30.45 43.3601 29.78C42.8001 28.25 40.7701 27.2 39.3101 26.72V26.71ZM31.7901 20.83C32.8301 21.94 34.3901 22.08 35.5901 21.12C36.9401 20.03 37.4201 18.04 36.8501 16.43C36.2001 16.25 35.5601 16.11 34.9501 15.81C34.1501 15.43 33.4701 14.75 32.6701 14.41C32.3501 15.7 31.4101 16.73 30.6501 17.79C30.7201 18.86 31.0501 20.03 31.8001 20.82L31.7901 20.83ZM35.3801 23.18C34.3401 23.43 33.4001 23.46 32.3601 23.18C32.2001 24.56 31.2301 25.72 30.0301 26.37C31.2701 30.06 36.4701 30.06 37.7101 26.37C36.5101 25.73 35.5401 24.57 35.3801 23.18Z" fill="#C1D13F"/>
    <path d="M5.92002 8.9L18.09 8.88C19.08 8.99 20.04 9.95 20.16 10.95C20.41 13.2 19.95 15.89 20.18 18.19C20.35 18.95 22.18 20.58 22.5 21.41C22.67 21.87 22.58 22.27 22.15 22.52L6.20002 22.6C5.16002 22.53 4.15002 21.57 4.04002 20.53C3.71002 17.56 4.29002 13.99 4.04002 10.95C4.19002 9.95 4.97002 9.16 5.93002 8.91L5.92002 8.9ZM6.30002 20.97H20.06C19.78 20.29 19.12 19.8 18.81 19.15C18.71 18.95 18.59 18.61 18.56 18.4C18.28 16.25 18.8 13.53 18.56 11.35C18.49 10.73 18.2 10.54 17.6 10.49C14.11 10.17 10.15 10.74 6.60002 10.49C6.00002 10.54 5.71002 10.73 5.64002 11.35C5.34002 14.07 5.87002 17.34 5.64002 20.12C5.65002 20.49 5.93002 20.91 6.30002 20.97Z" fill="#C1D13F"/>
    <path d="M38.9098 42.54C38.8798 42.65 38.9198 42.73 38.9598 42.83C39.4298 44.01 40.7798 45.47 41.3398 46.7C41.9398 48.01 40.5398 48.28 39.5398 48.77C39.0398 49.02 37.0298 50.01 36.6298 50C36.5098 50 36.3998 49.97 36.2998 49.92L33.4498 45.36C32.7698 45.61 31.1398 47.05 30.4998 46.96C30.1098 46.9 29.7898 46.53 29.8098 46.13C30.0698 42.46 29.4798 38.35 29.8098 34.73C29.8698 34.03 30.2998 33.71 30.9998 33.96L41.6098 39.77C41.9598 40.08 42.0398 40.62 41.7098 40.99L38.8898 42.55L38.9098 42.54ZM31.4498 36.08V44.65C32.3498 44.29 33.5698 42.69 34.4198 43.85L36.9998 48.03L39.5198 46.91L36.8898 42.38C36.8498 41.53 38.2398 41.12 38.8798 40.74C38.9898 40.67 39.3798 40.52 39.3198 40.37L31.4598 36.09L31.4498 36.08Z" fill="#C1D13F"/>
    <path d="M40.6201 22.38C38.4301 19.2 40.5001 15.14 38.5201 11.83C37.3801 9.93002 33.8601 8.98002 32.0201 10.2C31.5901 10.49 31.3701 11.01 31.0401 11.24C30.6801 11.49 30.2101 11.55 29.7901 11.9C27.7701 13.58 28.4101 16.85 28.0001 19.18C27.8001 20.29 27.4301 21.38 26.9201 22.38C27.5701 22.69 28.9101 22.3 29.0301 23.25C29.2501 25.01 25.5301 24.05 25.0801 22.96C24.7901 22.27 25.3601 21.91 25.6301 21.34C27.2301 17.88 25.6401 13.14 28.7401 10.65C29.4101 10.11 30.1201 9.63002 30.8001 9.08002C33.0901 7.24002 37.4302 7.99003 39.3102 10.14C42.4601 13.75 39.9801 18.34 41.8901 21.37C42.3701 22.14 43.2801 22.55 42.1301 23.44C41.4701 23.95 38.8801 24.86 38.7101 23.54C38.5601 22.36 39.9001 22.68 40.6201 22.39V22.38Z" fill="#C1D13F"/>
    <path d="M14.4298 32.24H27.4698C28.4898 32.36 28.4898 33.77 27.4698 33.87H14.4798C13.3698 37.11 9.19978 37.09 8.09978 33.87C6.80978 33.78 5.34978 33.99 4.07978 33.87C2.89978 33.76 2.96978 32.37 3.97978 32.25C5.24978 32.1 6.78978 32.36 8.09978 32.25C9.14979 29.07 13.4198 28.97 14.4298 32.23V32.24ZM11.0698 31.47C8.69978 31.82 9.73978 35.59 12.0398 34.46C13.6298 33.68 12.8098 31.21 11.0698 31.47Z" fill="#5B5A5A"/>
    <path d="M36.0599 32.28L46.0199 32.26C47.0299 32.36 47.0599 33.76 46.0199 33.88C42.9999 34.23 39.3299 33.61 36.2399 33.88C35.3199 33.8 35.1899 32.58 36.0599 32.29V32.28Z" fill="#5B5A5A"/>
    <path d="M5.41998 2.44C6.59998 2.18 6.80998 3.81 5.87998 4.01C4.69998 4.27 4.48998 2.64 5.41998 2.44Z" fill="#5B5A5A"/>
    <path d="M8.64019 2.44C9.82019 2.18 10.0302 3.81 9.10019 4.01C7.92019 4.27 7.71019 2.64 8.64019 2.44Z" fill="#5B5A5A"/>
    <path d="M11.8702 2.44C13.0502 2.18 13.2602 3.81 12.3302 4.01C11.1502 4.27 10.9402 2.64 11.8702 2.44Z" fill="#5B5A5A"/>
    <path d="M8.64013 12.93L15.4701 12.91C16.3601 13.05 16.3601 14.37 15.4701 14.51C13.5001 14.82 10.7801 14.3 8.73013 14.51C7.88013 14.38 7.83013 13.17 8.64013 12.92V12.93Z" fill="#C1D13F"/>
    <path d="M8.64013 16.96L15.4701 16.94C16.3601 17.08 16.3601 18.4 15.4701 18.54C13.5001 18.85 10.7801 18.33 8.73013 18.54C7.88013 18.41 7.83013 17.2 8.64013 16.95V16.96Z" fill="#C1D13F"/>
  </symbol>

</svg>