<svg xmlns="http://www.w3.org/2000/svg" xmlns:xlink="http://www.w3.org/1999/xlink" >

  <symbol id="acces" viewBox="0 0 126 51" fill="none">
    <path d="M62.5198 50.02C76.0563 50.02 87.0298 39.0465 87.0298 25.51C87.0298 11.9735 76.0563 1 62.5198 1C48.9833 1 38.0098 11.9735 38.0098 25.51C38.0098 39.0465 48.9833 50.02 62.5198 50.02Z" stroke="#D9D9D9" stroke-miterlimit="10"/>
    <path d="M65.8697 24.8C67.2897 23.76 68.2097 22.1 68.2097 20.21C68.2097 17.07 65.6597 14.52 62.5197 14.52C59.3797 14.52 56.8297 17.07 56.8297 20.21C56.8297 22.09 57.7597 23.76 59.1697 24.8C55.0297 26.14 51.9197 29.88 51.5897 34.41C51.5697 34.68 51.6697 34.96 51.8497 35.16C52.0397 35.36 52.3097 35.48 52.5897 35.48H72.4397C72.7197 35.48 72.9897 35.36 73.1797 35.16C73.3697 34.96 73.4597 34.69 73.4397 34.41C73.1097 29.88 69.9997 26.14 65.8597 24.8H65.8697ZM72.7997 34.81C72.7097 34.91 72.5797 34.96 72.4497 34.96H52.5997C52.4697 34.96 52.3397 34.9 52.2497 34.81C52.1597 34.71 52.1197 34.59 52.1197 34.46C52.4497 30 55.6097 26.33 59.7497 25.18C60.5697 25.64 61.5197 25.91 62.5297 25.91C63.5397 25.91 64.4797 25.64 65.3097 25.18C69.4497 26.33 72.6197 30 72.9397 34.46C72.9397 34.59 72.9097 34.72 72.8197 34.81H72.7997ZM67.6897 20.21C67.6897 22.07 66.6997 23.7 65.2097 24.61C65.0997 24.67 64.9997 24.74 64.8897 24.79C64.7697 24.85 64.6397 24.92 64.5097 24.97C63.8997 25.23 63.2197 25.37 62.5197 25.37C61.8197 25.37 61.1397 25.23 60.5297 24.97C60.3997 24.92 60.2797 24.85 60.1497 24.79C60.0397 24.73 59.9297 24.67 59.8297 24.61C58.3497 23.7 57.3497 22.07 57.3497 20.21C57.3497 17.36 59.6697 15.04 62.5197 15.04C65.3697 15.04 67.6897 17.36 67.6897 20.21Z" stroke="#D9D9D9" stroke-miterlimit="10"/>
    <path d="M0 29.8799H38.01" stroke="#D9D9D9" stroke-miterlimit="10"/>
    <path d="M87.0298 29.8799H125.04" stroke="#D9D9D9" stroke-miterlimit="10"/>
  </symbol>

  <symbol id="calendario" viewBox="0 0 51 50" fill="none">
    <path d="M0 5.96564C0.42 4.91564 1.13 4.10565 2.3 3.92565H12.48V2.20565C12.48 2.08565 12.71 1.58565 12.79 1.44565C13.83 -0.434355 16.55 -0.494355 17.63 1.34565C17.73 1.52565 18.04 2.13564 18.04 2.30564V3.91565H29.36V2.20565C29.36 2.13565 29.78 1.26565 29.86 1.14565C30.98 -0.494355 33.59 -0.334355 34.57 1.37565C34.63 1.48565 34.92 2.14565 34.92 2.19565V3.90565H45.1C46.31 4.06565 47.4 5.25564 47.41 6.48564V31.1756C47.34 31.6856 46.81 31.9556 46.33 31.7556C46.28 31.7356 45.94 31.3956 45.94 31.3656V13.6756H41.7C41.48 13.6756 41.05 13.1256 41.07 12.8556C41.09 12.6256 41.51 12.1156 41.7 12.1156H45.94V6.60564C45.94 6.00564 45.21 5.39564 44.61 5.39564H34.92V7.09564C34.92 7.24565 34.59 7.94564 34.47 8.11564C33.28 9.82564 30.74 9.74564 29.7 7.91564C29.64 7.80564 29.35 7.14565 29.35 7.09564V5.38564H18.03V6.99564C18.03 7.08564 17.79 7.72564 17.72 7.85564C16.75 9.74564 14.01 9.83564 12.88 8.04564C12.81 7.92564 12.47 7.25564 12.47 7.18564V5.38564H2.88C2.29 5.38564 1.46 5.84564 1.46 6.50564V12.1156H38.58C38.8 12.1156 39.23 12.6656 39.21 12.9356C39.19 13.1656 38.77 13.6756 38.58 13.6756H1.46V17.0456C1.46 17.6056 0.21 17.7656 0 17.0956V5.96564ZM15.1 1.50565C14.56 1.56564 14.07 2.09565 13.98 2.63565C13.86 3.37565 13.87 5.74565 13.96 6.51565C14.15 8.24565 16.22 8.11564 16.48 6.98564C16.61 6.42564 16.58 3.27565 16.5 2.61564C16.42 1.95564 15.8 1.43564 15.11 1.51565L15.1 1.50565ZM32.07 1.50565C31.15 1.57565 30.88 2.28565 30.82 3.09564C30.76 3.90564 30.72 6.66564 31.07 7.24564C31.62 8.15564 32.97 7.97564 33.33 6.97564C33.55 6.38564 33.52 3.73565 33.46 2.99565C33.39 2.20565 32.98 1.43564 32.07 1.50565Z" fill="#5C5B5B"/>
    <path d="M0 42.2557V19.7257C0.49 19.1757 1.15 19.1357 1.46 19.8757V41.4357C1.55 42.4557 1.98 42.7657 2.97 42.8457H30.1C31 42.9557 30.92 44.2557 30 44.3057H2.48C1.2 44.1957 0.45 43.3857 0 42.2557Z" fill="#5C5B5B"/>
    <path d="M32.05 39.3356C32.05 39.3356 32.01 39.2956 32.01 39.2756C32.01 39.3056 32.08 39.3556 32.02 39.2956C31.94 39.2156 31.86 39.1456 31.78 39.0756C31.76 39.0656 31.76 39.0556 31.77 39.0756C31.75 39.0656 31.73 39.0456 31.71 39.0356C31.66 39.0056 31.62 38.9656 31.57 38.9356C31.55 38.9256 31.54 38.9056 31.52 38.8856C31.36 39.0256 30.94 38.9356 30.72 38.9556V34.3756H32.13C32.73 34.3756 32.76 32.9156 32.13 32.9156H30.72V28.1356H35.5V30.7156C35.5 30.9456 36.08 31.2656 36.32 31.2556C36.61 31.2356 37.06 30.7856 37.06 30.5256V28.1356H42.03V31.5056C42.1 31.5756 42.13 31.6456 42.15 31.7256C42.16 31.7256 42.17 31.7356 42.17 31.7456C42.24 31.7756 42.32 31.7956 42.4 31.8056C42.4 31.8056 42.43 31.8056 42.44 31.8056C42.44 31.8056 42.44 31.8056 42.45 31.8056C42.5 31.8056 42.55 31.8056 42.6 31.8156C42.71 31.8156 42.81 31.8156 42.92 31.8156C42.97 31.8156 43.02 31.8156 43.07 31.8056C43.09 31.8056 43.14 31.8056 43.17 31.7956C43.23 31.7856 43.3 31.8256 43.36 31.8056C43.38 31.8056 43.5 31.8556 43.52 31.8456C43.54 31.8456 43.46 31.7256 43.51 31.7156C43.49 31.7156 43.48 31.7256 43.46 31.7356C43.45 31.7356 43.43 31.7356 43.42 31.7456C43.38 31.7656 43.41 31.7556 43.44 31.7456C43.46 31.7356 43.49 31.8656 43.51 31.8556L43.49 18.0356C43.37 16.8756 42.43 16.1156 41.3 16.0356H6.09C4.99 16.1156 3.98 16.8856 3.89 18.0356V38.4256C3.98 39.4756 4.84 40.3356 5.89 40.4256H31.33C31.33 40.4256 31.43 40.3656 31.48 40.3456C31.5 40.3456 31.52 40.3356 31.54 40.3256C31.55 40.3256 31.56 40.3056 31.57 40.3056C31.59 40.2956 31.61 40.2756 31.63 40.2656C31.67 40.2256 31.71 40.1856 31.75 40.1356C31.76 40.1156 31.79 40.0756 31.8 40.0656C31.86 39.9656 31.92 39.8656 31.97 39.7556C32 39.7056 32.02 39.6456 32.04 39.5956C32 39.6956 32.04 39.6056 32.04 39.5956C32.04 39.5656 32.06 39.5356 32.07 39.5056C32.07 39.5056 32.07 39.5056 32.07 39.4956C32.07 39.4756 32.07 39.4556 32.07 39.4456C32.07 39.4356 32.07 39.4156 32.06 39.4056C32.06 39.3956 32.04 39.3756 32.04 39.3656L32.05 39.3356ZM37.07 17.5756H41.61C41.7 17.5756 42.05 18.0956 42.05 18.2056V20.3056H37.08V17.5756H37.07ZM37.07 21.8656H42.04V26.5456H37.07V21.8656ZM30.73 17.5756H35.51V20.3056H30.73V17.5756ZM30.73 21.8656H35.51V26.5456H30.73V21.8656ZM10.34 38.9356H6.1C5.86 38.9356 5.37 38.5556 5.37 38.3056V34.3556H10.34V38.9356ZM10.34 32.8956H5.37V28.1156H10.34V32.8956ZM10.34 26.5556H5.37V21.8756H10.34V26.5556ZM10.34 20.3056H5.37V18.1156C5.37 18.0456 5.76 17.5756 5.81 17.5756H10.35V20.3056H10.34ZM16.68 38.9356H11.9V34.3556H16.68V38.9356ZM16.68 32.8956H11.9V28.1156H16.68V32.8956ZM16.68 26.5556H11.9V21.8756H16.68V26.5556ZM16.68 20.3056H11.9V17.5756H16.68V20.3056ZM22.92 38.9356H18.14V34.3556H22.92V38.9356ZM22.92 32.8956H18.14V28.1156H22.92V32.8956ZM22.92 26.5556H18.14V21.8756H22.92V26.5556ZM22.92 20.3056H18.14V17.5756H22.92V20.3056ZM29.26 38.9356H24.48V34.3556H29.26V38.9356ZM29.26 32.8956H24.38V28.1156H29.26V32.8956ZM29.26 26.5556H24.48V21.8756H29.26V26.5556ZM29.26 20.3056H24.48V17.5756H29.26V20.3056Z" fill="#5C5B5B"/>
    <path d="M49.67 38.2856C49.38 37.3456 48.35 37.3756 48.13 38.1556C48.05 38.4456 48.48 40.0156 48.49 40.5456C48.6 48.1256 38.77 51.4056 34.36 45.2156C29.09 37.8156 38.74 28.9256 45.7 34.7456C46.03 35.0256 46.8 35.9756 47.11 36.0656C47.63 36.2256 48.16 35.7356 48.07 35.2056C47.96 34.5056 45.93 32.9856 45.29 32.6156C44.75 32.3156 44.16 32.1356 43.67 31.8356C42.48 31.5356 41.32 31.4356 40.08 31.4256C40.08 31.4256 40.08 31.4256 40.07 31.4256C36.7 31.6356 33.55 33.7956 32.18 36.9156C32.01 37.2956 31.67 38.6956 31.57 38.8356C31.55 38.8656 31.42 40.3956 31.42 40.3956V41.8056C31.42 45.6156 35.87 49.5856 39.52 49.9456C40.1 50.0056 41.28 50.0056 41.86 49.9456C47.19 49.4056 51.31 43.4456 49.68 38.2756L49.67 38.2856Z" fill="#C1D13F"/>
    <path d="M46.8 40.6956C46.8 44.0756 44.06 46.8156 40.68 46.8156C37.3 46.8156 34.56 44.0756 34.56 40.6956C34.56 37.3156 37.3 34.5756 40.68 34.5756C44.06 34.5756 46.8 37.3156 46.8 40.6956ZM45.28 40.6956C45.28 38.1556 43.22 36.0956 40.68 36.0956C38.14 36.0956 36.08 38.1556 36.08 40.6956C36.08 43.2356 38.14 45.2956 40.68 45.2956C43.22 45.2956 45.28 43.2356 45.28 40.6956Z" fill="#C1D13F"/>
    <path d="M39.9 39.9157V37.8157C39.9 37.3357 41.16 36.9057 41.42 37.7657C41.54 38.1457 41.51 40.0757 41.47 40.5557C41.43 41.0057 41.21 41.3957 40.73 41.4757C40.21 41.5557 38.53 41.5857 38.19 41.1957C37.3 40.1557 39.11 39.6856 39.9 39.9256V39.9157Z" fill="#C1D13F"/>
  </symbol>

  <symbol id="kit-estudiante" viewBox="0 0 47 50" fill="none">
    <path d="M26.43 10.6551C26.41 10.7151 26.1 10.9851 26.02 11.0251C25.52 11.2451 25.09 10.8251 25 10.3451C25.25 6.97508 23.56 0.505077 28.62 0.105077C32.18 -0.174923 36.11 0.315077 39.7 0.115077C41.52 0.385077 42.98 1.88508 43.07 3.74508V17.9951C44.62 17.8951 45.95 19.0951 45.99 20.6651C45.62 25.2151 46.92 30.7751 44.8 34.9551C44.04 36.4451 42.06 38.3351 41.9 39.9251C41.78 41.1051 41.99 42.4651 41.9 43.6651C42.4 43.6351 42.97 43.7051 43.06 44.3051L43.04 49.3351C42.93 49.6951 42.69 49.8551 42.33 49.8951C39.87 50.1851 36.87 49.6851 34.36 49.8951C33.37 49.7451 33.74 48.4451 34.26 48.4451H41.6V45.1351H29.05V48.4451H31.34C31.34 48.4451 31.66 48.6751 31.68 48.7051C31.98 49.1351 31.78 49.8051 31.23 49.8951C30.74 49.9751 28.72 49.9751 28.23 49.8951C27.92 49.8451 27.7 49.6451 27.61 49.3451V44.2351C27.77 43.5351 28.74 43.7451 28.76 43.6251C28.73 43.0851 28.8 42.5351 28.73 42.0051C28.65 41.4151 28.29 40.8551 28.12 40.2751C27.43 37.8351 27.97 35.1551 29.62 33.2251C30.47 32.2351 32.13 31.2151 32.66 30.0351C33.05 29.1651 33.03 27.8051 33.23 26.8551H30.99C31.18 28.3451 30.18 29.0051 28.85 29.1951C28.93 29.8651 29.52 30.2551 29.51 30.9951C29.5 31.9351 28.16 33.2951 27.22 33.3551C26.44 33.4051 26.04 32.7951 25.35 32.6951C25.08 34.5351 24.18 35.0351 22.38 34.8351C21.16 34.6951 20.89 33.7351 20.68 32.6951C19.99 32.7951 19.59 33.3951 18.81 33.3551C17.87 33.2951 16.53 31.9451 16.52 30.9951C16.52 30.2551 17.1 29.8651 17.18 29.1951C16.08 28.9851 15.15 28.6651 15.04 27.3951C14.88 25.5851 15.37 24.8351 17.18 24.5151C17.1 23.8551 16.55 23.5051 16.53 22.7851C16.5 21.8051 18.01 20.3451 18.97 20.3651C19.69 20.3751 20.03 20.9351 20.68 21.0051C20.86 20.1251 21.13 19.1251 22.14 18.9151C23.09 18.7151 24.37 18.7951 24.97 19.6451V13.7651C24.97 13.0851 26.23 12.8051 26.43 13.5751L26.48 20.4351L26.58 20.5051C27.71 19.8651 29.56 21.7651 29.53 22.7851C29.5 23.5051 28.96 23.8551 28.88 24.5151C29.25 24.6251 29.69 24.6951 30.05 24.8551C30.3 24.9751 30.65 25.3251 30.8 25.3651C31.04 25.4351 33.41 25.4451 33.7 25.3851C33.82 25.3651 34.26 24.8751 34.52 24.7451C35.16 24.4351 35.81 24.4051 36.47 24.6551C36.91 24.8251 37.23 25.3351 37.5 25.3851C37.85 25.4551 40.1 25.3851 40.26 25.1851L40.78 20.3051C40.61 19.8251 41.63 18.8151 41.63 18.7251V6.13508H26.6L26.45 6.28508V10.6651L26.43 10.6551ZM41.6 4.67508C41.79 2.98508 40.98 1.68508 39.22 1.55508C35.75 1.29508 31.94 1.73508 28.44 1.58508C26.91 1.88508 26.35 3.22508 26.42 4.67508H41.59H41.6ZM40.44 43.6751V39.5451C40.44 38.2551 43.03 35.3351 43.67 33.9251C45.39 30.1151 44.15 24.6251 44.52 20.4951C44.33 19.1851 42.52 19.2451 42.22 20.6051C41.48 23.9051 42.12 30.4051 39.62 32.6851C38.69 33.5351 37.87 33.4951 37.05 34.0051C36.44 34.3851 35.63 35.6751 35.04 35.9851C34.57 36.2351 33.99 35.9851 33.93 35.4551C33.86 34.8151 35.44 33.6851 35.87 33.1251C36.12 32.7951 36.31 32.4851 36.36 32.0551C36.55 30.3351 36.24 28.2851 36.34 26.5351C36.14 25.8351 35.1 25.7551 34.83 26.4451C34.51 27.2651 34.53 28.8451 34.29 29.7951C33.66 32.3251 30.84 33.2951 29.83 35.6451C29.28 36.9151 29.2 38.4451 29.53 39.7751C29.65 40.2551 30.24 41.3551 30.24 41.6951V43.6851H40.45L40.44 43.6751ZM22.51 20.3551C22.01 21.0051 22.26 21.7051 21.44 22.2051C20.41 22.8451 19.85 22.2751 18.9 21.8951L18.02 22.6751C18.43 23.6551 19.09 24.3451 18.31 25.3951C17.82 26.0551 17.21 25.9151 16.56 26.2751C16.21 27.9151 16.91 27.4151 17.83 27.9251C19.06 28.6151 18.7 30.0451 18 30.9951L18.85 31.8751C19.69 31.5851 19.99 31.0551 20.97 31.3051C22.06 31.5751 22.05 32.4651 22.45 33.3351C24.09 33.6851 23.59 32.9851 24.1 32.0651C24.8 30.8151 26.2 31.2151 27.17 31.8951L28.05 31.0451C27.62 30.1151 26.99 29.3151 27.76 28.3251C28.22 27.7351 28.91 27.7851 29.51 27.4451C29.92 25.6951 28.96 26.3351 28.1 25.7351C26.98 24.9451 27.44 23.6651 28.07 22.7251C28.07 22.6751 27.44 22.0351 27.37 21.9951C26.91 21.7251 26.43 22.3751 25.88 22.4651C24.39 22.7051 23.99 21.5451 23.62 20.3951L22.52 20.3651L22.51 20.3551ZM37.81 26.8551V32.1051C39.9 31.1551 39.78 28.8551 40.05 26.9051C40.08 26.6051 39.53 26.8551 39.32 26.8551C38.82 26.8751 38.31 26.8351 37.81 26.8551Z" fill="#5B5A5A"/>
    <path d="M8.23999 32.1051V26.2251C8.23999 25.6451 9.29999 24.6551 9.86999 24.5451C13.7 23.7751 12.37 28.8251 13.74 30.5551C14.39 31.3751 15.43 32.1251 16.13 32.9351C16.48 33.6151 15.9 34.2851 15.18 33.9851C14.98 33.9051 12.72 31.6351 12.49 31.3251C12.22 30.9751 11.95 30.4551 11.83 30.0351C11.54 29.0051 11.59 27.3451 11.24 26.4451C10.96 25.7251 9.83999 25.8451 9.71999 26.6151C9.86999 28.3451 9.49999 30.4651 9.71999 32.1451C9.86999 33.2251 11.84 34.3051 12.15 35.3651C11.47 37.4051 9.83999 34.5151 9.02999 34.0051C8.67999 33.7851 8.02999 33.6951 7.60999 33.4851C6.34999 32.8551 5.32999 31.5551 4.97999 30.1851L3.81999 20.4551C3.38999 19.2351 1.75999 19.2051 1.54999 20.5851C1.94999 25.0151 0.559994 30.6351 2.76999 34.6451C3.41999 35.8151 5.63999 38.3051 5.63999 39.5551V43.6851H15.85V41.6951C15.85 41.2751 16.61 39.8251 16.71 39.0551C16.85 38.0051 16.58 37.3551 16.53 36.4251C16.48 35.4951 17.65 35.2551 17.98 36.1551C18.42 37.3351 18.24 39.2451 17.89 40.4351C17.65 41.2451 17.2 41.8751 17.2 42.7651C17.2 43.0551 17.37 43.3751 17.31 43.6851C17.81 43.6551 18.38 43.7251 18.47 44.3251C18.35 45.8551 18.65 47.6851 18.47 49.1851C18.41 49.6551 18.13 49.9251 17.65 49.9151L3.41999 49.8351C3.14999 49.6951 3.03999 49.4851 2.99999 49.1851C2.82999 47.6851 3.12999 45.8551 2.99999 44.3251C3.08999 43.7351 3.65999 43.6551 4.15999 43.6851C4.06999 42.4851 4.27999 41.1251 4.15999 39.9451C3.99999 38.3451 1.97999 36.4251 1.21999 34.9051C-0.870005 30.7151 0.439994 25.1251 0.0699944 20.5751C0.319994 17.4551 4.75999 17.1451 5.30999 20.3951C5.80999 23.3351 5.71999 26.6951 6.33999 29.5751C6.56999 30.6351 7.22999 31.6551 8.23999 32.0951V32.1051ZM4.44999 45.1351V48.4451H17V45.1351H4.44999Z" fill="#5B5A5A"/>
    <path d="M7.92999 0.135084C11.43 0.345084 15.46 -0.234916 18.89 0.115084C20.35 0.265084 20.98 1.33508 21.08 2.68508C21.32 5.88508 20.89 9.37508 21.08 12.6151C21.01 14.0051 20.22 15.0451 18.79 15.1851C15.51 15.5051 11.72 14.9451 8.38 15.1851C7.11 15.1051 6.11 14.3051 6 12.9951C5.69999 9.49508 6.23 5.55508 6.01 2.00508C6.21 1.03508 6.95 0.295084 7.92 0.125084L7.92999 0.135084ZM8.10999 1.58508C7.75999 1.70508 7.47 2.00508 7.46 2.38508C7.7 5.73508 7.15 9.49508 7.46 12.7951C7.51999 13.3951 7.79 13.6451 8.39 13.7151L15.44 13.6651L19.6 9.27508C19.5 7.17508 19.8 4.84508 19.62 2.77508C19.56 2.10508 19.44 1.64508 18.69 1.56508L8.10999 1.58508ZM19.62 11.5851C19.52 11.4751 18.94 12.1151 18.84 12.2151C18.38 12.6951 17.96 13.2551 17.48 13.7251C19.28 13.9351 19.8 13.3651 19.62 11.5851Z" fill="#5B5A5A"/>
    <path d="M28.11 14.1351C28.15 14.0851 28.38 13.9551 28.45 13.9351C28.9 13.8351 31.14 13.8351 31.64 13.9051C31.85 13.9351 32.14 14.1151 32.22 14.3051C32.32 14.5551 32.32 17.1551 32.27 17.5651C32.21 18.0851 31.93 18.2351 31.44 18.2951C30.95 18.3551 28.82 18.3551 28.42 18.2051C28.08 18.0751 28.02 17.9151 27.98 17.5751C27.91 16.8351 27.92 15.3951 27.98 14.6451C28 14.4651 27.98 14.2951 28.11 14.1451V14.1351ZM30.81 15.3751H29.45V16.8351H30.81V15.3751Z" fill="#C4D059"/>
    <path d="M28.44 7.90507C28.79 7.82507 31.36 7.81507 31.72 7.88507C31.99 7.93507 32.23 8.24507 32.26 8.50507C32.34 9.10507 32.33 10.9151 32.26 11.5251C32.24 11.7151 32.18 11.9451 32.02 12.0651C31.64 12.3451 28.81 12.3351 28.35 12.1351C28.11 12.0251 28.01 11.8951 27.98 11.6351C27.91 11.0651 27.9 8.98507 27.99 8.42507C28.03 8.15507 28.17 7.96507 28.44 7.90507ZM30.81 9.34507H29.45V10.8051H30.81V9.34507Z" fill="#C4D059"/>
    <path d="M34.18 13.9351L39.41 13.9151C40.2 14.2151 40.14 15.1851 39.31 15.3651C37.77 15.2051 35.74 15.5951 34.26 15.3651C33.52 15.2451 33.42 14.1351 34.18 13.9351Z" fill="#C4D059"/>
    <path d="M34.09 9.36511H39.41C40.19 9.47511 40.25 10.6751 39.12 10.8051C37.64 10.9751 35.87 10.6851 34.36 10.8051C33.59 10.6151 33.37 9.81511 34.08 9.37511L34.09 9.36511Z" fill="#C4D059"/>
    <path d="M34.09 16.8551C34.35 16.7851 37.06 16.7851 37.36 16.8551C38.04 17.0151 38.06 18.1451 37.08 18.2851C36.58 18.3551 34.77 18.3651 34.31 18.2551C33.52 18.0651 33.44 17.0451 34.09 16.8551Z" fill="#C4D059"/>
    <path d="M26.47 26.8551C26.47 28.7551 24.93 30.2951 23.03 30.2951C21.13 30.2951 19.59 28.7551 19.59 26.8551C19.59 24.9551 21.13 23.4151 23.03 23.4151C24.93 23.4151 26.47 24.9551 26.47 26.8551ZM25.01 26.8551C25.01 25.7651 24.12 24.8751 23.03 24.8751C21.94 24.8751 21.05 25.7651 21.05 26.8551C21.05 27.9451 21.94 28.8351 23.03 28.8351C24.12 28.8351 25.01 27.9451 25.01 26.8551Z" fill="#5B5A5A"/>
    <path d="M10.25 4.01508H16.64C17.53 4.13508 17.64 5.10508 16.84 5.45508H10.13C9.36998 5.12508 9.49998 4.27508 10.25 4.01508Z" fill="#C4D059"/>
    <path d="M9.82998 8.73511C9.42998 8.30511 9.63998 7.59511 10.24 7.50511C10.94 7.39511 13.91 7.39511 14.61 7.50511C15.46 7.63511 15.38 8.83511 14.61 8.95511C13.84 9.07511 11.11 9.05511 10.33 8.96511C10.17 8.94511 9.93998 8.85511 9.82998 8.73511Z" fill="#C4D059"/>
  </symbol>

  <symbol id="boletines" viewBox="0 0 51 50" fill="none">
    <path d="M4.3 11.49V5.97C4.3 5.77 4.84 5.24 5.03 5.24H8.6V0.69C8.6 0.5 9.04 0.02 9.28 0H49.36C49.69 0.11 49.88 0.3 50 0.64L50.05 45.07C49.82 47.74 47.8 49.8 45.11 50.01H4.94C2.27 49.81 0.22 47.73 0 45.07L0.05 12.17C0.07 11.93 0.55 11.49 0.74 11.49H4.31H4.3ZM48.09 1.91H10.56V22.97C10.56 23.34 9.91 23.73 9.54 23.71C9.2 23.7 8.61 23.3 8.61 22.97V7.19H6.26V43.99C6.26 44.36 5.61 44.75 5.24 44.73C4.9 44.72 4.31 44.32 4.31 43.99V13.44H1.96V45.16C1.96 46.1 3.11 47.42 3.95 47.77C6.15 48.7 8.43 47.2 8.61 44.87C8.95 40.54 8.34 35.76 8.61 31.38C8.78 30.26 10.41 30.24 10.56 31.47C10.31 35.89 10.89 40.68 10.56 45.06C10.48 46.14 10.06 47.2 9.38 48.04H45.2C46.39 48.04 48.08 46.35 48.08 45.16V1.91H48.09Z" fill="#5B5A5A"/>
    <path d="M14.05 6.42999H44.6C45.06 6.54999 45.3 6.85999 45.36 7.32999L45.34 14.64C45.23 15 45.04 15.23 44.68 15.35L14.06 15.37C13.53 15.22 13.35 14.89 13.3 14.37C13.09 12.15 13.47 9.58999 13.3 7.32999C13.36 6.85999 13.6 6.54999 14.06 6.42999H14.05ZM43.4 8.35999H15.25V13.44H43.4V8.35999Z" fill="#C4D059"/>
    <path d="M14.05 18.16L29.62 18.18C29.95 18.29 30.14 18.48 30.26 18.82V38.18C30.15 38.51 29.96 38.7 29.62 38.82H13.98C13.65 38.71 13.46 38.52 13.34 38.18V18.82C13.46 18.46 13.69 18.27 14.05 18.16ZM28.35 20.09H15.25V36.9H28.35V20.09Z" fill="#C4D059"/>
    <path d="M14.05 41.61L44.43 41.59C45.65 41.73 45.68 43.4 44.43 43.55H14.22C13.06 43.41 12.97 41.93 14.05 41.62V41.61Z" fill="#C4D059"/>
    <path d="M33.8 18.16L44.43 18.14C45.65 18.28 45.68 19.95 44.43 20.1H33.97C32.81 19.96 32.72 18.48 33.8 18.17V18.16Z" fill="#C4D059"/>
    <path d="M33.8 22.85L44.43 22.83C45.65 22.97 45.68 24.64 44.43 24.79H33.97C32.81 24.65 32.72 23.17 33.8 22.86V22.85Z" fill="#C4D059"/>
    <path d="M33.8 27.54L44.43 27.52C45.65 27.66 45.68 29.33 44.43 29.48H33.97C32.81 29.34 32.72 27.86 33.8 27.55V27.54Z" fill="#C4D059"/>
    <path d="M33.8 32.23L44.43 32.21C45.65 32.35 45.68 34.02 44.43 34.17H33.97C32.81 34.03 32.72 32.55 33.8 32.24V32.23Z" fill="#C4D059"/>
    <path d="M33.8 36.92L44.43 36.9C45.65 37.04 45.68 38.71 44.43 38.86H33.97C32.81 38.72 32.72 37.24 33.8 36.93V36.92Z" fill="#C4D059"/>
    <path d="M9.63002 28.1C10.1713 28.1 10.61 27.6613 10.61 27.12C10.61 26.5788 10.1713 26.14 9.63002 26.14C9.08879 26.14 8.65002 26.5788 8.65002 27.12C8.65002 27.6613 9.08879 28.1 9.63002 28.1Z" fill="#5B5A5A"/>
  </symbol>

  <symbol id="guia-estudiante" viewBox="0 0 51 51" fill="none">
    <path d="M8.16999 16.3203V15.0503C0.729986 14.8003 -1.75001 4.72031 4.77999 1.07031C10.94 -2.36969 17.87 3.74031 15.49 10.2603C19.7 10.2303 23.88 11.3303 27.45 13.5503L28.67 12.8503C28.58 12.6403 27.87 12.8003 27.62 12.2403C27.51 11.9903 27.09 9.51031 27.12 9.26031C27.24 8.44031 29.11 8.14031 29.24 7.75031C29.44 7.15031 27.98 6.08031 27.99 5.42031C27.99 5.22031 28.2 4.95031 28.31 4.77031C28.5 4.46031 29.53 2.94031 29.73 2.78031C30.49 2.15031 31.89 3.38031 32.47 3.08031C33.05 2.78031 32.33 0.770307 33.62 0.420307C34.11 0.290307 35.66 0.0103068 36.14 0.00030682C37.31 -0.0296932 37.31 2.15031 38.09 2.14031C38.61 2.14031 39.55 0.750307 40.31 0.900307C40.92 1.02031 42.09 2.27031 42.75 2.54031C43.02 2.79031 43.04 2.99031 43 3.34031C42.94 3.83031 42.16 5.27031 42.65 5.54031C42.83 5.64031 44.18 5.68031 44.58 5.81031C44.87 5.90031 45.03 6.03031 45.13 6.33031C45.28 6.77031 45.64 9.04031 45.53 9.40031C45.48 9.56031 45.27 9.69031 45.15 9.80031L43.99 10.4403C44.52 10.6103 46.72 10.4703 46.72 11.2703V16.3003H50.38C50.68 16.3003 50.95 17.0503 50.92 17.3203V40.7603C50.88 41.2303 50.81 41.6403 50.34 41.8403L16.99 41.8903C16.68 41.9503 15.66 43.1903 15.27 43.4903C14.46 44.1103 13.34 44.2503 12.86 45.2603C13.33 45.6603 13.49 46.3003 13.17 46.8603C13.07 47.0403 10.47 49.6603 10.25 49.8003C9.71999 50.1403 9.10999 50.0303 8.67999 49.6103L1.08999 41.9003C0.969986 41.4903 0.959986 41.1103 1.18999 40.7303C1.70999 39.9003 3.23999 38.8903 3.87999 38.0503L3.96999 37.8503V17.2503C3.90999 16.9703 4.21999 16.3303 4.50999 16.3303H8.16999V16.3203ZM14.39 7.59031C14.39 4.32031 11.74 1.68031 8.46999 1.68031C5.19999 1.68031 2.55999 4.32031 2.55999 7.59031C2.55999 10.8603 5.20999 13.5003 8.47999 13.5003C11.75 13.5003 14.4 10.8503 14.4 7.59031H14.39ZM41.6 6.82031C41.51 6.74031 40.8 5.54031 40.79 5.43031L41.27 3.51031L40.16 2.69031C39.56 2.98031 38.91 3.90031 38.22 3.83031C38.03 3.81031 37.29 3.64031 37.1 3.57031C36.49 3.37031 36.19 2.23031 35.82 1.73031C35.67 1.63031 34.42 1.88031 34.37 2.04031C34.16 2.67031 34.44 3.59031 33.82 4.13031C33.73 4.21031 32.96 4.70031 32.86 4.74031C32.18 5.00031 31.29 4.44031 30.61 4.32031L29.81 5.40031C29.74 5.56031 30.76 6.63031 30.86 6.89031C31.02 7.27031 30.83 8.13031 30.69 8.52031C30.46 9.19031 29.4 9.51031 28.79 9.80031C28.91 10.2003 28.82 11.1103 29.22 11.2603C29.81 11.4703 30.78 11.2803 31.22 11.7903C31.27 11.8403 31.81 12.6903 31.83 12.7403C32.11 13.4403 31.58 14.3103 31.43 15.0003L32.49 15.8003C32.85 15.9203 33.8 14.6503 34.46 14.6903C34.73 14.7103 35.9 15.0103 36.07 15.1903L36.9 16.8003L38.28 16.6203C38.47 16.5103 38.51 15.2003 38.61 14.8803C38.77 14.3703 39.77 13.8503 40.26 13.6903L42.19 14.1903C42.33 13.8403 43.04 13.2603 42.89 12.9203C42.66 12.3903 41.78 11.8803 41.82 11.1403C41.83 10.9403 42.1 9.83031 42.21 9.69031L43.9 8.65031L43.72 7.31031C43.65 7.18031 41.97 7.17031 41.6 6.83031V6.82031ZM26.63 14.8503C24.41 13.5603 22.06 12.6003 19.5 12.1603C18.72 12.0303 15.03 11.5703 14.56 11.9103C14.37 12.0503 13.97 12.7203 13.74 12.9503C12.72 13.9703 11.16 14.7203 9.73999 14.9603V26.7603C10.44 26.6203 11.32 27.0903 11.67 27.7003C11.73 27.8003 11.98 28.5003 11.98 28.5603V30.2703L17.81 24.5303C19.78 23.1903 21.99 25.4903 20.72 27.3403C20.54 27.6003 19.19 28.7403 19.31 28.9103C19.61 28.9603 19.86 29.2903 20 29.5403C20.18 29.8703 20.24 30.5303 20.34 30.6703C20.42 30.7903 21.15 31.0503 21.45 31.5103C21.84 32.1203 21.68 33.0403 21.77 33.1903C21.79 33.2303 22.04 33.2703 22.14 33.3503C22.97 34.0403 23.29 35.0803 22.72 36.0703C22.45 36.5303 21.68 37.0003 21.37 37.4503C21.31 37.5303 21.23 37.5503 21.27 37.6903L26.64 39.7403V14.8503H26.63ZM45.18 36.7203V12.2703C44.97 12.0203 44.6 12.1503 44.3 12.1203C44.52 12.6103 44.84 12.7703 44.65 13.3903C44.12 13.9003 43.46 15.4003 42.93 15.7703C42.23 16.2703 40.91 15.1903 40.36 15.3503C39.7 15.5303 40.26 17.7403 39.24 18.0503C38.81 18.1803 36.72 18.5203 36.34 18.4603C35.6 18.3403 35.41 16.9503 35.02 16.4803C34.5 15.8503 33.19 17.7303 32.52 17.5903C32.06 17.4203 29.92 16.0403 29.79 15.7303C29.56 15.1803 29.99 14.5203 30.03 13.9703L28.18 14.9903V39.7403C29.41 39.3703 30.56 38.7403 31.77 38.3003C35.53 36.9203 39.55 36.2103 43.56 36.5203C43.8 36.5403 45.11 36.7703 45.17 36.7103L45.18 36.7203ZM8.16999 17.8803H5.52999V37.9903C5.84999 37.8703 6.34999 37.3903 6.55999 37.1103C7.91999 35.3203 7.27999 29.6903 8.16999 27.4903V17.8703V17.8803ZM49.28 17.8803H46.74V37.8503C46.74 38.0403 46.24 38.4703 46 38.4803C45.34 38.5203 44.11 38.0703 43.37 38.0903C39.51 37.8203 35.68 38.5203 32.07 39.8703L31.12 40.3303H49.28V17.8703V17.8803ZM13.76 33.1803C13.55 32.9303 13.5 32.4403 13.73 32.1803L19.3 26.6203C19.79 26.1303 19.21 25.3703 18.67 25.8903L11.79 32.7703C11.34 33.1903 10.73 33.1003 10.44 32.5503C10.31 31.9403 10.61 28.6603 10.26 28.4103C9.48999 27.8603 9.39999 28.9503 9.34999 29.4403C9.16999 30.9903 9.15999 32.5603 8.93999 34.1103C8.68999 35.9303 8.50999 37.9503 6.79999 39.0103L11.74 44.1303C12.52 43.0103 13.76 42.7503 14.72 41.9403C16.97 40.0403 18.98 37.4103 21.21 35.4503C21.66 35.1303 21.37 34.4003 20.86 34.5203C20.46 34.6103 19.02 36.4503 18.46 36.8003C17.59 37.3503 16.83 36.5003 17.31 35.7503L20.14 32.9103V32.4203C19.8 32.0503 19.67 32.0903 19.31 32.3703C18.37 33.0903 17.52 34.3403 16.57 35.1003C15.72 35.4703 15.05 34.6903 15.56 33.8903L18.68 30.7603C18.86 30.4103 18.48 30.0103 18.12 30.0903L14.73 33.3403C14.46 33.4703 13.97 33.3903 13.78 33.1703L13.76 33.1803ZM18.52 40.3403H23.79L22.47 39.7503L19.93 38.9703C19.67 39.0003 18.76 40.0803 18.51 40.3403H18.52ZM4.74999 39.3003L2.68999 41.3603L9.62999 48.3003L11.69 46.2403L4.74999 39.3003Z" fill="#5B5A5A"/>
    <path d="M9.24001 10.5603C9.77001 10.5803 10.65 10.3903 10.86 11.0403C11.07 11.6903 10.7 12.0503 10.07 12.1203C9.44001 12.1903 7.18001 12.2103 6.60001 12.0703C6.02001 11.9303 5.80001 11.0703 6.31001 10.7003C6.68001 10.4303 7.24001 10.5903 7.67001 10.5503V6.55028C6.89001 6.72028 5.54001 6.36028 6.12001 5.34028C6.38001 4.87028 8.19001 4.89028 8.69001 4.99028C8.87001 5.02028 9.23001 5.39028 9.23001 5.52028V10.5503L9.24001 10.5603Z" fill="#5B5A5A"/>
    <path d="M8.14001 3.06032C9.78001 2.68032 10.06 4.98032 8.02001 4.60032C7.30001 4.46032 7.29001 3.26032 8.14001 3.06032Z" fill="#5B5A5A"/>
    <path d="M41.24 9.25032C41.24 11.9403 39.06 14.1103 36.38 14.1103C33.7 14.1103 31.52 11.9303 31.52 9.25032C31.52 6.57032 33.7 4.39032 36.38 4.39032C39.06 4.39032 41.24 6.57032 41.24 9.25032ZM39.67 9.25032C39.67 7.43032 38.19 5.95032 36.37 5.95032C34.55 5.95032 33.07 7.43032 33.07 9.25032C33.07 11.0703 34.55 12.5503 36.37 12.5503C38.19 12.5503 39.67 11.0703 39.67 9.25032Z" fill="#5B5A5A"/>
    <path d="M19.9 38.9903C20.03 38.8003 20.17 38.6203 20.32 38.4403C20.37 38.3803 20.42 38.3203 20.48 38.2703C20.71 38.0403 20.97 37.8403 21.22 37.6303C21.23 37.6203 21.25 37.6103 21.26 37.6003C21.28 37.5503 21.31 37.5103 21.35 37.4603C21.66 37.0103 22.43 36.5403 22.7 36.0803C23.27 35.1003 22.96 34.0503 22.12 33.3603C22.02 33.2803 21.77 33.2303 21.75 33.2003C21.66 33.0503 21.82 32.1403 21.43 31.5203C21.13 31.0503 20.4 30.8003 20.32 30.6803C20.23 30.5403 20.17 29.8903 19.98 29.5503C19.84 29.3003 19.59 28.9703 19.29 28.9203C19.17 28.7503 20.52 27.6103 20.7 27.3503C21.97 25.5003 19.77 23.2003 17.79 24.5403L11.96 30.2803V28.5703C11.96 28.5003 11.71 27.8103 11.65 27.7103C11.3 27.1003 10.42 26.6303 9.71002 26.7703C9.48002 26.8603 9.24002 26.9203 8.99002 26.9403C8.92002 26.9803 8.86002 27.0303 8.80002 27.0703C8.60002 27.2403 8.40002 27.4003 8.17002 27.5203C8.17002 27.5203 8.15002 27.5203 8.14002 27.5303C7.26002 29.7503 7.89002 35.3403 6.54002 37.1203C6.33002 37.4003 5.84002 37.8703 5.51002 38.0003V37.5203C5.19002 37.8203 4.76002 38.0103 4.20002 38.0103C4.09002 38.0103 3.99002 37.9903 3.89002 37.9803L3.86002 38.0603C3.22002 38.9103 1.70002 39.9103 1.17002 40.7403C0.93002 41.1203 0.94002 41.5003 1.07002 41.9103L8.69002 49.6203C9.12002 50.0503 9.73002 50.1603 10.26 49.8103C10.48 49.6703 13.08 47.0603 13.18 46.8703C13.5 46.3103 13.34 45.6703 12.87 45.2703C13.35 44.2603 14.47 44.1203 15.28 43.5003C15.67 43.2003 16.69 41.9603 17 41.9003H17.3C17.3 41.9003 17.37 41.8103 17.41 41.7603C17.79 41.4403 18.15 41.0903 18.47 40.7003C18.55 40.5603 18.65 40.4403 18.76 40.3303H18.51C18.74 40.0803 19.59 39.0803 19.89 38.9803L19.9 38.9903ZM9.63002 48.3003L2.69002 41.3603L4.75002 39.3003L11.69 46.2403L9.63002 48.3003ZM14.71 41.9503C13.75 42.7603 12.51 43.0303 11.73 44.1403L6.79002 39.0203C8.50002 37.9603 8.68002 35.9403 8.93002 34.1203C9.14002 32.5703 9.16002 31.0003 9.34002 29.4503C9.40002 28.9503 9.49002 27.8703 10.25 28.4203C10.6 28.6703 10.3 31.9503 10.43 32.5603C10.72 33.1103 11.33 33.1903 11.78 32.7803L18.66 25.9003C19.2 25.3803 19.79 26.1403 19.29 26.6303L13.72 32.1903C13.49 32.4503 13.54 32.9403 13.75 33.1903C13.94 33.4103 14.43 33.4903 14.7 33.3603L18.09 30.1103C18.45 30.0303 18.83 30.4203 18.65 30.7803L15.53 33.9103C15.02 34.7103 15.7 35.4903 16.54 35.1203C17.49 34.3603 18.34 33.1103 19.28 32.3903C19.64 32.1103 19.77 32.0703 20.11 32.4403V32.9303L17.28 35.7703C16.8 36.5303 17.56 37.3703 18.43 36.8203C18.99 36.4703 20.43 34.6303 20.83 34.5403C21.34 34.4203 21.63 35.1503 21.18 35.4703C18.94 37.4303 16.94 40.0703 14.69 41.9603L14.71 41.9503Z" fill="#C4D059"/>
  </symbol>

  <symbol id="orgullo-plsep" viewBox="0 0 55 50" fill="none">
    <path d="M12.8799 0.03L50.5899 0C52.3999 0.21 53.9599 1.56 54.4199 3.31C54.7899 12.89 54.4699 22.54 54.5799 32.14C54.3599 34.37 52.5899 36.13 50.3699 36.35H13.3899C10.8799 36.11 9.24995 34.29 9.06995 31.82V4.43C9.18995 2.26 10.7399 0.42 12.8899 0.03H12.8799ZM52.3499 25.26V4.32C52.3499 4.32 52.1299 3.62 52.0799 3.52C51.7499 2.78 50.9699 2.31 50.1699 2.24H13.5999C12.8899 2.27 12.1999 2.62 11.7999 3.21C11.7199 3.32 11.4199 3.93 11.4199 4V30.06L20.8699 20.81C24.4799 18.68 25.9499 22.78 28.2099 24.31C28.2999 24.37 28.3199 24.46 28.4799 24.41C28.4799 24.32 28.5199 24.21 28.5899 24.15C31.5899 20.95 34.1699 17.01 37.1699 13.86C38.5799 12.38 40.4499 12.08 42.0799 13.43L52.3599 25.26H52.3499ZM39.8299 14.87C39.5299 14.87 39.1699 15.01 38.9699 15.24L29.0599 27.08C28.5899 27.35 28.1699 27.31 27.7299 27.02C26.3799 26.15 24.8799 23.77 23.5199 22.81C23.0499 22.48 22.5399 22.36 22.0799 22.75L11.8499 33.09C12.1799 33.8 13.0799 34.03 13.8199 34.11H49.9599C52.9099 33.86 52.3899 30.93 52.2999 28.78L40.4599 15.04C40.2999 14.95 40.0199 14.87 39.8299 14.87Z" fill="#5B5A5A"/>
    <path d="M42.93 48.67C42.02 49.56 40.57 50.1 39.29 49.98L2.49998 40.09C0.809975 39.18 -0.170025 37.37 0.0199754 35.45C1.63998 30.06 2.69998 24.29 4.40998 18.95C4.60997 18.32 4.71998 17.59 5.50998 17.49C6.24998 17.39 6.88998 17.97 6.83998 18.71L2.27998 35.91C2.27998 36.81 2.75998 37.68 3.56998 38.08L39.73 47.76C40.57 47.67 41.27 47.27 41.7 46.54C42.63 44.39 42.81 41.48 43.7 39.37C44.26 38.05 46.04 38.6 45.89 39.96C44.97 42.27 44.68 46.97 42.94 48.68L42.93 48.67Z" fill="#C4D059"/>
    <path d="M25.02 11.34C25.02 13.85 22.99 15.88 20.47 15.88C17.95 15.88 15.92 13.85 15.92 11.34C15.92 8.82999 17.95 6.79999 20.47 6.79999C22.99 6.79999 25.02 8.82999 25.02 11.34ZM22.75 11.34C22.75 10.09 21.73 9.06999 20.48 9.06999C19.23 9.06999 18.21 10.09 18.21 11.34C18.21 12.59 19.23 13.61 20.48 13.61C21.73 13.61 22.75 12.59 22.75 11.34Z" fill="#5B5A5A"/>
  </symbol>

  <symbol id="impulsa" viewBox="0 0 51 51" fill="none">
<path d="M7.81 46C3.78 45.65 0.440005 42.28 0.140005 38.25C-0.319995 31.94 0.490005 25.09 0.140005 18.72C0.430005 15.67 2.3 12.92 5.12 11.7C7.71 10.58 10.56 11.08 13.31 10.95C13.42 10.44 13.61 9.94 13.82 9.46C17.39 1.55 26.96 -1.45 34.4 3.21C37.18 4.96 39.37 7.79 40.27 10.95C41.98 10.91 43.7 11.05 45.27 11.75C48.01 12.99 49.92 15.8 50.12 18.81C50.54 25.12 49.79 31.88 50.12 38.24C49.75 42.47 46.4 45.71 42.17 46H18.65C17.98 46.11 15.8 48.45 15.28 49.07C14.58 49.91 13.52 52.25 12.64 50.14L13.33 45.99C11.55 45.87 9.58 46.15 7.82 45.99L7.81 46ZM13.91 23.94C14.57 23.47 15.48 22.11 16.38 22.3C16.77 22.38 17.1 23.06 17.38 23.36C27.28 33.89 43.59 23 38.24 10.31C32.89 -2.38 13.4 2.1 14.3 15.99C14.41 17.64 14.99 19.13 15.48 20.68C14.97 21.75 14.1 22.72 13.91 23.95V23.94ZM12.84 12.62C10.88 12.69 8.81001 12.44 6.88 12.86C4.09 13.48 2.01 16.08 1.8 18.91C1.34 25.11 2.15 31.88 1.8 38.14C2.12 41.24 4.32 43.73 7.43 44.23C9.71 44.6 12.3 44.17 14.62 44.36C15.66 44.94 14.77 46.1 14.93 46.97C15.89 46.03 16.88 44.98 18.06 44.34H42.06C45.46 44.11 48.14 41.53 48.45 38.14C48.11 31.88 48.91 25.12 48.45 18.91C48.29 16.69 46.95 14.55 45 13.48C43.69 12.76 42.22 12.61 40.74 12.62C42.02 19.79 37.62 26.87 30.61 28.79C25.17 30.28 19.65 28.54 15.98 24.34C15.86 24.32 14.79 25.42 14.63 25.6C14.25 26.02 13.27 27.54 12.85 27.63C12.12 27.79 11.74 27.2 11.75 26.53C11.76 25.61 11.99 24.4 12.25 23.51C12.56 22.42 13.07 21.43 13.67 20.48C12.63 18 12.41 15.27 12.83 12.62H12.84Z" fill="#5B5A5A"/>
<path d="M40.72 36.6C40.56 36.74 40.24 36.83 40.02 36.83L7.36001 36.78C6.62001 36.41 6.59001 35.56 7.36001 35.21L40.12 35.16C40.88 35.08 41.24 36.12 40.72 36.6Z" fill="#5B5A5A"/>
<path d="M9.98001 30.99L42.89 31.03C43.74 31.35 43.63 32.42 42.76 32.63H10.05C9.05001 32.51 9.11001 31.28 9.98001 30.99Z" fill="#5B5A5A"/>
<path d="M13.2 39.38L42.66 39.35C43.95 39.47 43.58 41.1 42.37 41.02H13.66C12.63 41.06 12.18 39.79 13.2 39.38Z" fill="#5B5A5A"/>
<path d="M26.48 6.00998C28.11 5.80998 29.22 7.00998 29.34 8.56998C29.44 9.84998 29.51 14.84 29.21 15.87C28.52 18.2 25.19 18.28 24.45 16C24.09 14.88 24.15 10.14 24.26 8.76998C24.37 7.39998 25.02 6.19998 26.49 6.01998L26.48 6.00998ZM26.67 7.65998C26.29 7.71998 26.05 7.99998 26.01 8.36998C25.76 10.51 26.21 13.12 26.01 15.31C26.13 16.19 27.5 16.32 27.67 15.1C27.85 13.73 27.81 10.19 27.68 8.75998C27.63 8.18998 27.35 7.54998 26.68 7.65998H26.67Z" fill="#5B5A5A"/>
<path d="M29.3 21.83C29.3 23.21 28.18 24.33 26.8 24.33C25.42 24.33 24.3 23.21 24.3 21.83C24.3 20.45 25.42 19.33 26.8 19.33C28.18 19.33 29.3 20.45 29.3 21.83ZM27.62 21.83C27.62 21.37 27.25 21 26.79 21C26.33 21 25.96 21.37 25.96 21.83C25.96 22.29 26.33 22.66 26.79 22.66C27.25 22.66 27.62 22.29 27.62 21.83Z" fill="#5B5A5A"/>
<path d="M13.28 11.53C13.26 11.66 13.23 11.79 13.2 11.92C13.14 12.17 13.06 12.42 12.97 12.66C12.92 12.83 12.85 12.99 12.77 13.14C12.46 15.62 12.71 18.15 13.68 20.47C13.07 21.42 12.57 22.41 12.26 23.5C12 24.39 11.77 25.6 11.76 26.52C11.75 27.19 12.13 27.78 12.86 27.62C13.28 27.53 14.26 26.01 14.64 25.59C14.8 25.41 15.87 24.31 15.99 24.33C19.66 28.54 25.18 30.27 30.62 28.78C37.63 26.86 42.03 19.78 40.75 12.61C40.79 12.61 40.82 12.61 40.86 12.61C40.78 12.44 40.71 12.27 40.65 12.1C40.54 11.83 40.45 11.55 40.34 11.27C40.28 11.11 40.24 10.94 40.22 10.77C39.28 7.66998 37.14 4.90998 34.4 3.18998C26.96 -1.47002 17.39 1.52998 13.83 9.43998C13.65 9.84998 13.49 10.28 13.38 10.72C13.37 10.99 13.33 11.26 13.29 11.52L13.28 11.53ZM14.3 15.99C13.4 2.09998 32.81 -2.53002 38.23 10.31C43.59 22.99 27.27 33.89 17.37 23.36C17.09 23.06 16.76 22.39 16.37 22.3C15.47 22.11 14.56 23.47 13.9 23.94C14.09 22.71 14.96 21.75 15.47 20.67C14.98 19.12 14.4 17.63 14.29 15.98L14.3 15.99Z" fill="#C4D059"/>
<path d="M26.48 6.00998C28.11 5.80998 29.22 7.00998 29.34 8.56998C29.44 9.84998 29.51 14.84 29.21 15.87C28.52 18.2 25.19 18.28 24.45 16C24.09 14.88 24.15 10.14 24.26 8.76998C24.37 7.39998 25.02 6.19998 26.49 6.01998L26.48 6.00998ZM26.67 7.65998C26.29 7.71998 26.05 7.99998 26.01 8.36998C25.76 10.51 26.21 13.12 26.01 15.31C26.13 16.19 27.5 16.32 27.67 15.1C27.85 13.73 27.81 10.19 27.68 8.75998C27.63 8.18998 27.35 7.54998 26.68 7.65998H26.67Z" fill="#C4D059"/>
<path d="M29.3 21.83C29.3 23.21 28.18 24.33 26.8 24.33C25.42 24.33 24.3 23.21 24.3 21.83C24.3 20.45 25.42 19.33 26.8 19.33C28.18 19.33 29.3 20.45 29.3 21.83ZM27.62 21.83C27.62 21.37 27.25 21 26.79 21C26.33 21 25.96 21.37 25.96 21.83C25.96 22.29 26.33 22.66 26.79 22.66C27.25 22.66 27.62 22.29 27.62 21.83Z" fill="#C4D059"/>    
  </symbol>

  <symbol id="guia" viewBox="0 0 38 50" fill="none">
<path d="M3.75 0L27.04 0.04C30.75 3.44 34.24 7.15 37.82 10.71L37.95 11.23V45.96C37.78 48.15 36.08 49.82 33.91 50H4.04C1.85 49.83 0.18 48.14 0 45.96V3.91C0.23 1.88 1.73 0.29 3.75 0ZM25.87 1.69H3.83C2.99 1.69 1.63 3.21 1.72 4.11V45.84C1.82 47.11 2.87 48.16 4.15 48.27H33.8C34.7 48.37 36.22 47 36.22 46.16V12.05H29.59C28.06 12.05 25.87 9.85 25.87 8.33V1.69ZM34.92 10.32L27.59 2.99V8.22C27.59 8.92 28.99 10.32 29.69 10.32H34.92Z" fill="#5B5A5A"/>
<path d="M25.85 24.15C33.46 23.37 37.42 32.59 31.91 37.76C31.69 40.28 32.2 43.28 31.91 45.74C31.83 46.42 31.27 46.72 30.64 46.46C29.87 46.16 27.38 44.21 26.78 44.17C26.24 44.13 23.42 46.26 22.67 46.52C22.18 46.63 21.72 46.4 21.59 45.92L21.56 37.75C16.65 33.28 19.19 24.83 25.85 24.14V24.15ZM32.76 31.88C32.76 28.55 30.06 25.85 26.73 25.85C23.4 25.85 20.7 28.55 20.7 31.88C20.7 35.21 23.4 37.91 26.73 37.91C30.06 37.91 32.76 35.21 32.76 31.88ZM30.18 38.89C27.89 39.89 25.57 39.87 23.28 38.89V44.17C24.23 43.74 25.41 42.67 26.33 42.31C26.49 42.25 26.6 42.21 26.78 42.22C27.44 42.25 29.42 43.86 30.18 44.17V38.89Z" fill="#C4D059"/>
<path d="M7.52001 13.79L30.24 13.76C31.33 13.87 31.33 15.38 30.24 15.49H7.71001C6.73001 15.41 6.59001 14.1 7.52001 13.79Z" fill="#5B5A5A"/>
<path d="M7.52001 20.69L30.24 20.66C31.33 20.77 31.33 22.28 30.24 22.39H7.71001C6.73001 22.31 6.59001 21 7.52001 20.69Z" fill="#5B5A5A"/>
<path d="M7.52001 6.88999L23.34 6.85999C24.43 6.96999 24.43 8.47999 23.34 8.58999H7.71001C6.73001 8.50999 6.59001 7.19999 7.52001 6.88999Z" fill="#5B5A5A"/>
<path d="M7.52001 27.5901L17.31 27.5601C18.39 27.6701 18.42 29.1601 17.31 29.2901C14.35 29.6301 10.74 29.0301 7.71001 29.2901C6.73001 29.2101 6.59001 27.9001 7.52001 27.5901Z" fill="#5B5A5A"/>
<path d="M7.52001 34.49L17.31 34.46C18.39 34.57 18.42 36.06 17.31 36.19C14.35 36.53 10.74 35.93 7.71001 36.19C6.73001 36.11 6.59001 34.8 7.52001 34.49Z" fill="#5B5A5A"/>
<path d="M27.34 27.82C27.45 27.93 27.57 28.17 27.64 28.32C28.58 30.12 29.19 32.31 30.12 34.14C30.31 34.66 30.07 35.14 29.53 35.28C28.46 35.56 28.38 34.31 28 33.62L25.5 33.6C25.34 33.64 25.02 34.86 24.73 35.12C24.11 35.66 23.05 35.07 23.3 34.23C24.26 32.4 24.86 30.03 25.85 28.25C26.18 27.65 26.73 27.24 27.34 27.82ZM26.84 30.81C26.59 30.76 26.67 30.84 26.6 30.95C26.43 31.23 26.38 31.61 26.2 31.89H27.28L26.85 30.81H26.84Z" fill="#C4D059"/>    
  </symbol>

  <symbol id="mesa" viewBox="0 0 51 50" fill="none">
<path d="M16.98 24.37C17.23 21.99 19.2 19.98 21.5 19.5C21.05 19.01 20.71 18.44 20.48 17.81C19.64 17.77 18.93 17.91 18.17 17.46C16.41 16.41 16.64 13.85 18.57 13.16C18.52 10.72 19.79 8.58999 21.86 7.34999C21.14 2.02999 28.89 2.02999 28.18 7.34999C30.15 8.52999 31.48 10.64 31.45 12.98C31.98 12.98 32.81 12.83 33.01 13.48C33.13 13.86 33.12 16.55 33.06 17.05C32.91 18.38 30.48 17.57 29.56 17.82C29.33 18.45 28.99 19.02 28.54 19.51C30.34 19.9 31.97 21.17 32.65 22.89C32.76 23.18 33.06 24.13 33.06 24.38V27.44H44.56C44.77 27.44 45.07 27.87 45.11 28.1C45.19 28.6 45.2 31.23 45.09 31.69C44.93 32.41 44.07 32.27 43.5 32.26V49.39C43.5 49.6 43.07 49.9 42.84 49.94C42.17 50.04 40.24 50.02 39.53 49.95C39.24 49.92 38.68 49.72 38.68 49.39V46.73H11.35V49.39C11.35 49.72 10.79 49.92 10.5 49.95C9.78996 50.01 7.85996 50.04 7.18996 49.94C6.95996 49.9 6.52996 49.6 6.52996 49.39V32.26C5.96996 32.26 5.09996 32.4 4.93996 31.69C4.83996 31.24 4.84996 28.6 4.91996 28.1C4.95996 27.87 5.25995 27.44 5.46995 27.44H16.97C17.05 26.46 16.87 25.34 16.97 24.38L16.98 24.37ZM26.62 6.73999C26.71 4.32999 23.35 4.34999 23.41 6.73999C24.49 6.46999 25.54 6.46999 26.62 6.73999ZM20.19 12.97H24.66C24.72 12.97 25.32 12.7 25.43 12.63C25.99 12.29 26.42 11.7 26.58 11.06C26.71 10.52 26.51 9.77999 27.38 9.73999C28.33 9.69999 28.14 10.49 28.28 11.06C28.47 11.82 29.06 12.58 29.84 12.76C29.31 6.52999 20.46 6.70999 20.19 12.96V12.97ZM28.23 16.18V13.82L27.39 13.07C26.87 13.61 26.26 14.1 25.55 14.35C25.42 14.4 24.84 14.57 24.77 14.57H21.81V16.63C21.81 17.02 22.38 18.08 22.66 18.39C23.29 19.07 24.44 19.48 25.36 19.38C26.28 19.28 27.37 18.64 27.73 17.78H26.63V16.17H28.24L28.23 16.18ZM20.19 14.58C18.01 14.19 18.01 16.57 20.19 16.19V14.58ZM29.84 14.58V16.19H31.45V14.58H29.84ZM24.71 21H22.6L23.46 22.1L24.71 21ZM27.42 21H25.31L26.56 22.1L27.42 21ZM31.44 27.43V24.47C31.44 24.11 30.99 23.15 30.78 22.82C30.54 22.45 29.65 21.51 29.24 21.45C28.88 21.4 27.49 23.93 27 24.14C26.07 24.55 25.67 23.36 24.98 23.02C24.36 23.49 23.69 24.79 22.81 23.97C22.47 23.66 21.09 21.46 20.85 21.44C19.93 21.85 19.14 22.75 18.81 23.69C18.76 23.82 18.59 24.4 18.59 24.47V27.43H20.2V24.22H21.81V27.43H28.24V24.22H29.85V27.43H31.46H31.44ZM43.5 29.04H6.52996V30.65H43.5V29.04ZM41.89 32.26H8.12996V48.33H9.73995V45.67C9.73995 45.44 10.32 45.02 10.59 45.11H39.44C39.71 45.02 40.29 45.44 40.29 45.67V48.33H41.9V32.26H41.89Z" fill="#5B5A5A"/>
<path d="M9.73998 14.5801V17.2401C9.73998 17.6501 9.00998 17.8701 8.62998 17.7501C7.96998 17.5401 6.14998 15.1201 5.41998 14.6301C3.43998 14.4801 0.349984 15.1701 0.0899842 12.3201C-0.200016 9.13005 0.319984 5.51005 0.0899842 2.27005C0.249984 1.15005 1.13998 0.260053 2.24998 0.110053C5.48998 0.330053 9.10998 -0.189947 12.3 0.110053C13.45 0.210053 14.43 1.12005 14.56 2.27005C14.9 5.46005 14.31 9.26005 14.56 12.5101C14.55 13.2801 13.34 14.5801 12.61 14.5801H9.74998H9.73998ZM8.12998 14.9801V13.5201C8.12998 13.3601 8.51998 13.0301 8.69998 12.9901C9.56998 12.7901 12.08 13.2201 12.64 12.8201C12.76 12.7301 12.84 12.6101 12.9 12.4801L12.95 2.48005C12.95 2.13005 12.71 1.84005 12.37 1.75005L2.18998 1.77005C1.84998 1.91005 1.66998 2.21005 1.68998 2.57005C1.90998 5.65005 1.41998 9.09005 1.68998 12.1201C1.71998 12.5101 1.83998 12.8501 2.26998 12.9501C3.30998 13.1801 4.91998 12.7801 6.01998 13.0201L8.11998 14.9801H8.12998Z" fill="#C4D059"/>
<path d="M40.29 14.58H37.43C36.7 14.58 35.49 13.28 35.48 12.51C35.72 9.26002 35.13 5.46002 35.48 2.27002C35.6 1.20002 36.56 0.23002 37.64 0.11002C40.87 0.370019 44.63 -0.22998 47.79 0.11002C48.91 0.23002 49.79 1.16002 49.95 2.27002C49.73 5.51002 50.24 9.13002 49.95 12.32C49.69 15.17 46.6 14.48 44.62 14.63C43.89 15.12 42.07 17.54 41.41 17.75C41.03 17.87 40.3 17.65 40.3 17.24V14.58H40.29ZM41.89 14.98L43.99 13.02C44.84 12.78 47.42 13.25 48.01 12.82C48.11 12.75 48.18 12.65 48.24 12.55L48.27 2.22002C48.14 1.90002 47.91 1.76002 47.56 1.72002C44.55 1.37002 40.89 1.99002 37.81 1.72002C37.35 1.74002 37.03 2.11002 37.05 2.57002L37.1 12.48C37.16 12.61 37.24 12.74 37.36 12.82C37.93 13.23 40.43 12.8 41.3 12.99C41.49 13.03 41.87 13.36 41.87 13.52V14.98H41.89Z" fill="#C4D059"/>
<path d="M4.92 6.54004H3.31V8.15004H4.92V6.54004Z" fill="#C4D059"/>
<path d="M8.13997 6.54004H6.52997V8.15004H8.13997V6.54004Z" fill="#C4D059"/>
<path d="M11.35 6.54004H9.73999V8.15004H11.35V6.54004Z" fill="#C4D059"/>
<path d="M40.29 6.54004H38.68V8.15004H40.29V6.54004Z" fill="#C4D059"/>
<path d="M43.5 6.54004H41.89V8.15004H43.5V6.54004Z" fill="#C4D059"/>
<path d="M46.72 6.54004H45.11V8.15004H46.72V6.54004Z" fill="#C4D059"/>    
  </symbol>

</svg>