<svg xmlns="http://www.w3.org/2000/svg" xmlns:xlink="http://www.w3.org/1999/xlink" style="display:none">

  <symbol id="faqs" viewBox="0 0 45 43" fill="none" >
    <path d="M0.388949 12.8305C0.767378 10.5787 2.65952 8.80373 4.99146 8.65159C5.65627 8.61102 6.67905 8.57045 6.47449 9.52388C6.35176 10.102 5.05283 9.94988 4.51076 10.0513C2.79249 10.3962 1.79016 11.7655 1.67765 13.4593C1.37082 18.1657 1.92312 23.2067 1.67765 27.9536C1.74925 29.5663 3.07886 31.1486 4.73576 31.3109C5.49262 31.3819 6.86315 30.9965 6.84269 32.1223C6.83247 32.9338 6.44381 34.161 6.50517 34.9116C6.55631 35.5506 7.18021 35.8245 7.75297 35.5912C8.75529 35.1753 13.9408 31.3109 14.5238 31.3109H17.5717V18.1454C17.5717 16.5225 19.9138 14.0172 21.5707 14.0172H25.7846C26.1221 13.3376 25.7028 12.1408 25.2936 11.522C24.5368 10.3657 23.3299 10.0107 22.0003 9.92959C17.6535 9.66588 13.051 10.1325 8.6837 9.92959C7.86547 9.79773 8.25413 8.66173 8.6837 8.66173H11.4759V5.21314C11.4759 3.09327 14.0737 1.20668 16.0682 1.07482C21.7957 0.709679 27.9222 1.35883 33.6907 1.07482C35.7056 0.993681 38.283 3.32655 38.283 5.29428V14.0273H40.3899C42.0979 14.0273 44.3378 16.4819 44.3583 18.1859L44.3787 33.664C44.0821 36.1491 41.8627 38.0864 39.316 37.9646C39.408 39.2325 39.9705 40.6322 38.9682 41.6668C38.3136 42.3464 37.3318 42.4681 36.4726 42.0928C36.2272 41.9812 34.693 41.0177 34.5396 40.8554C34.0589 40.3584 34.4475 39.6484 35.1328 39.7498C35.8794 39.8614 37.4545 41.8494 38.1398 40.5917C38.4159 40.0845 37.9454 38.1878 37.925 37.4879C37.8943 36.3722 38.9273 36.7373 39.6842 36.6663C41.6888 36.4838 42.9673 35.1145 43.09 33.1468C43.3969 28.41 42.8548 23.3385 43.09 18.5714C42.9264 16.8572 41.6172 15.4575 39.8683 15.2851H21.9901C20.2411 15.5082 18.9933 16.9282 18.8501 18.6525C19.1263 23.3994 18.4922 28.5317 18.8501 33.2279C18.9933 35.1449 20.3229 36.4939 22.256 36.6663C24.8845 36.8996 27.7892 36.4838 30.4485 36.7171C30.9087 37.0721 33.0156 38.1472 33.1077 38.5935C33.2202 39.1716 32.7293 39.5469 32.1667 39.3542C31.6349 39.1716 30.4382 38.0458 29.9678 37.9545C27.4006 37.7922 24.6084 38.1472 22.0617 37.9545C19.3513 37.7415 17.316 35.3478 17.5512 32.67L14.6976 32.6903C12.5805 33.7858 10.4736 35.7028 8.36663 36.7171C7.51773 37.1228 6.75064 37.1126 6.00401 36.5041C4.72554 35.4593 5.33921 34.0698 5.45171 32.67C3.06863 32.7613 0.654874 30.8849 0.378723 28.4911V12.8102L0.388949 12.8305ZM27.196 14.0273H36.8613L36.9943 13.8955V5.62899C36.9943 3.72213 35.1021 2.45426 33.3429 2.34269C27.7381 1.97754 21.7241 2.61655 16.0784 2.35283C14.6158 2.35283 12.7646 3.98584 12.7646 5.45657V8.65159H22.7776C23.0742 8.65159 23.7595 8.87473 24.0663 8.9863C26.1528 9.74702 27.3903 11.8365 27.196 14.0172V14.0273Z" fill="currentColor"/>
    <path d="M33.1384 27.9231C33.4145 29.5764 31.952 31.0573 30.2848 30.5095C27.7892 29.688 28.72 25.7829 30.4587 24.4644C31.2156 23.8964 32.3918 23.8152 32.6884 22.7604C33.302 20.6202 30.6428 19.4335 29.4666 21.0969C29.0575 21.6852 29.2211 22.1213 29.0473 22.7299C28.362 25.1744 24.4857 24.8092 24.7823 21.4823C25.1402 17.4252 29.5689 14.9503 33.3327 16.4717C38.5489 18.5713 38.3239 25.996 33.1179 27.9231H33.1384ZM34.468 18.7438C32.3815 16.6239 28.812 16.9485 27.0426 19.2813C26.4801 20.0218 25.2834 22.9328 26.8994 22.9835C28.0552 23.0139 27.7483 21.6953 28.0756 20.9042C29.5689 17.3643 35.2146 19.3118 33.9873 23.1052C33.302 25.2352 31.5019 24.7889 30.5917 26.2191C30.0394 27.0914 29.5791 29.6373 31.2565 29.262C32.0236 29.0895 31.7679 28.2375 31.8395 27.7101C31.9622 26.7871 32.6986 26.7668 33.3532 26.3915C36.1454 24.8295 36.7283 21.0259 34.468 18.7336V18.7438Z" fill="currentColor"/>
    <path d="M5.14485 18.7641C3.82547 17.4354 4.82779 14.6968 5.84034 13.4289C8.2541 10.4165 12.9487 10.3049 15.4545 13.2666C18.2058 16.5225 16.8761 21.4215 12.9691 22.9633C13.0714 24.6673 11.7213 26.1786 9.95192 25.5396C7.79385 24.7586 8.35638 21.452 9.62463 20.0725C10.3917 19.2307 11.3224 19.1597 11.9873 18.5815C13.6646 17.1006 11.4656 14.3012 9.54281 15.8125C8.60185 16.5529 9.12347 17.6078 8.46889 18.5004C7.68135 19.5654 6.09604 19.7277 5.14485 18.7641ZM10.0849 12.4349C8.42797 12.6175 6.80175 13.8549 6.19831 15.3966C5.90171 16.1371 5.39032 18.1149 6.7097 18.1149C7.74271 18.1149 7.52793 16.7659 7.80408 16.0559C9.1746 12.5465 14.851 14.1896 13.7567 18.1251C13.1634 20.2551 11.0974 19.9204 10.2383 21.452C9.81896 22.2025 9.40984 24.4238 10.7292 24.4035C11.7418 24.3833 11.4861 23.3284 11.5986 22.7198C11.7622 21.8272 12.3759 21.8982 12.9896 21.5432C17.7864 18.7844 15.434 11.8263 10.0747 12.4349H10.0849Z" fill="currentColor"/>
    <path d="M10.2486 25.8844C13.0101 25.4178 13.9204 29.1808 11.4453 30.0531C8.47924 31.108 7.37463 26.3611 10.2486 25.8844ZM10.5043 27.1624C9.65543 27.345 9.61452 28.765 10.5759 28.8562C12.0283 28.9881 11.8033 26.8784 10.5043 27.1624Z" fill="currentColor"/>
    <path d="M30.4383 30.8342C32.852 30.4284 34.1305 33.1975 32.31 34.6479C30.4997 36.078 28.0245 33.9886 29.0166 31.9803C29.2519 31.5036 29.9064 30.9254 30.4383 30.8342ZM30.694 32.1122C29.9473 32.2846 29.8962 33.6133 30.786 33.7756C32.1668 34.0393 32.2179 31.7673 30.694 32.1122Z" fill="currentColor"/>
  </symbol>

  <symbol id="difusion" viewBox="0 0 30 42" fill="none" >
      <path d="M2.39154 41.8395C1.29706 41.4777 0.709289 40.7038 0.618082 39.5581V11.8002C0.648484 11.3178 1.04372 10.8656 1.54028 11.1269C1.63149 11.1771 1.91524 11.4786 1.91524 11.559V34.9553H25.791V20.7949C25.1323 21.1366 24.8587 22.423 23.9365 22.0311C23.7844 21.9708 22.7913 20.7045 22.4873 20.4331C20.9469 19.0462 18.8593 18.7849 19.0113 16.192C19.1633 13.5992 22.4062 12.4233 24.2304 14.2323C24.7371 13.9409 25.1931 13.5489 25.791 13.4384V7.43855H1.91524V8.8355C1.91524 9.38825 0.800494 9.66964 0.648483 8.8154C0.729555 6.96621 0.466051 4.89592 0.628195 3.07689C0.719402 2.03169 1.33758 1.15735 2.40165 0.91615C10.0934 0.89605 17.8256 0.765401 25.4971 0.986499C26.1964 1.2277 26.6929 1.75029 26.9362 2.44374L27.0071 13.3982C27.5543 13.5791 28.8413 13.9409 28.588 14.7348C28.3042 15.6292 27.3922 14.7348 26.9463 14.6745C26.399 14.5841 25.8011 14.6444 25.3552 14.976C24.96 15.2674 24.7877 15.9006 24.2304 15.8604C23.7743 15.8302 23.6831 15.378 23.4196 15.1368C21.9907 13.8102 19.6802 15.2272 20.3591 17.1367C20.6733 18.0111 22.1731 18.594 22.9332 19.2171C23.4298 19.6291 23.8452 20.1316 24.3114 20.5738C24.7269 20.0311 25.2336 19.5588 25.7606 19.1367C26.3686 18.6543 27.5645 18.1015 27.98 17.5789C28.2536 17.2272 28.4258 16.4734 29.1048 16.8654C29.8851 17.3076 28.8717 18.5236 28.4157 18.8854C28.213 19.0462 27.0375 19.6693 27.0172 19.7598V39.9802C26.8449 40.945 26.166 41.5782 25.2438 41.8596H21.3726C20.7341 41.4475 20.8557 40.7239 21.6462 40.6536C22.6596 40.5631 23.9567 40.8043 24.9397 40.6335C25.3046 40.5732 25.8011 40.1812 25.8011 39.8094V36.1713H1.92535V39.9702C1.92535 40.1611 2.5942 40.6938 2.84755 40.6536H18.6566C19.2647 40.7541 19.2444 41.5782 18.7782 41.8495H2.40165L2.39154 41.8395ZM25.791 6.24262V2.92614C25.791 2.66484 25.3552 2.16234 25.0512 2.14224L2.83744 2.08194C2.57395 2.04174 1.91524 2.56434 1.91524 2.76534V6.24262H25.791Z" fill="currentColor"/>
      <path d="M19.9842 25.448C22.2846 25.4681 23.6932 27.9303 22.6292 29.9504C22.0617 31.0257 21.1699 31.2066 20.2781 31.8599C19.7308 32.2518 19.2039 32.7945 18.7276 33.287C18.4033 33.6287 18.2107 34.2317 17.6027 34.1714C17.2277 34.1312 16.2245 32.7744 15.8191 32.4126C14.6132 31.3574 12.789 30.9152 12.4749 29.1263C12.029 29.4378 11.6033 30.4629 10.9953 30.4026C10.5089 30.3524 10.3771 29.8901 10.1035 29.5986C9.74881 29.2368 9.31305 28.7544 8.93809 28.4429C7.82335 27.5083 6.33365 27.2068 5.89788 25.6189C5.05676 22.5235 8.75566 20.3527 11.0764 22.5637C11.3196 22.1617 11.9276 22.0612 12.2215 21.82C12.3431 21.7195 12.5154 21.3677 12.6471 21.2471C15.9508 18.1417 20.9874 21.1165 19.9842 25.448ZM15.282 21.227C11.4412 21.7195 11.9884 27.7193 16.0522 27.3575C20.0855 26.9957 19.5991 20.6843 15.282 21.227ZM11.4311 24.0008C10.7419 24.4732 10.4987 23.6792 10.063 23.3174C8.57325 22.1014 6.50592 23.5586 7.12409 25.3576C7.42811 26.242 8.37057 26.5234 9.07995 27.0259C9.78933 27.5284 10.519 28.1112 10.9548 28.8047C11.0358 28.8248 11.0561 28.8047 11.1169 28.7645C11.5527 28.5233 12.11 27.5786 12.6471 27.3173C11.8668 26.3726 11.3196 25.2671 11.4412 24.0008H11.4311ZM17.8054 32.5634C18.231 31.9001 18.9809 31.277 19.6396 30.8147C20.6429 30.1011 22.0211 29.7192 21.7475 28.1414C21.5853 27.1967 20.4605 26.3827 19.5079 26.6741C19.1937 26.7746 19.0316 27.1766 18.8289 27.3575C17.3595 28.664 15.4948 28.9353 13.7112 28.0811C13.4275 29.8197 14.8665 30.1212 15.961 30.9252C16.3055 31.1765 16.792 31.5785 17.096 31.88C17.2074 31.9905 17.6534 32.6739 17.8155 32.5634H17.8054Z" fill="currentColor"/>
      <path d="M9.90087 13.0464H11.9581C12.5762 13.0464 13.2248 13.8605 13.2856 14.4434C13.316 14.7448 13.1944 15.0966 13.2248 15.3076C13.2958 15.8302 13.6606 15.981 13.3261 16.7247C13.1032 17.2272 13.0728 17.398 12.9005 17.9005C12.7992 18.202 12.4749 18.4533 12.4141 18.6241C12.3431 18.8452 12.3938 19.0663 12.2519 19.3377C12.0189 19.7899 11.4919 20.1216 10.9852 20.1618C8.87731 20.3427 6.50595 20.011 4.36767 20.1618C3.83056 20.1015 3.49614 19.6693 3.44547 19.1568C3.36439 18.4734 3.34413 15.9006 3.48601 15.2775C3.54681 15.0061 3.82044 14.6041 4.09406 14.5137C4.55009 14.373 5.3912 14.6544 5.66482 14.3127C5.76616 14.1921 6.78971 12.2223 6.82011 12.1017C6.96199 11.4284 6.38435 10.1621 7.13427 9.78018C8.01593 9.32794 9.04958 9.76008 9.52588 10.5641C9.62722 10.7349 9.89072 11.3279 9.89072 11.4786V13.0364L9.90087 13.0464ZM6.07017 15.6895C5.71548 15.7699 5.12771 15.6292 4.74262 15.6895V18.9658H10.9143C11.2892 18.9658 11.1068 18.4432 11.1068 18.2925C11.1372 17.7598 11.6642 17.7196 11.7452 17.4784C11.8263 17.2372 11.7148 16.9558 11.806 16.6543C11.877 16.4332 12.1607 16.3629 12.2013 16.182C12.2215 15.8403 11.8466 15.6795 11.8466 15.3277C11.8466 14.966 12.4648 14.3931 11.6338 14.2524C11.0156 14.1519 9.30296 14.4032 8.88746 14.172C8.28956 13.8404 8.65437 13.0263 8.68477 12.5238C8.72531 11.9309 8.6949 10.9761 7.95512 10.8857C8.02606 11.1972 8.097 11.7299 8.08687 12.0314C8.0666 12.4736 6.88092 14.7951 6.56676 15.2272C6.47556 15.3579 6.20194 15.6493 6.06006 15.6795L6.07017 15.6895Z" fill="currentColor"/>
      <path d="M13.5896 37.6185C14.9071 37.317 14.9983 39.1662 13.8126 39.1561C12.9107 39.1561 12.7688 37.7994 13.5896 37.6185Z" fill="currentColor"/>
      <path d="M11.8972 3.54922C12.4344 3.43867 15.0793 3.45876 15.6671 3.53916C16.5792 3.66981 16.5184 4.68486 15.7482 4.80546C15.1098 4.90596 12.6168 4.89591 11.9682 4.80546C11.1372 4.69491 11.1473 3.69996 11.8972 3.54922Z" fill="currentColor"/>
      <path d="M9.46502 3.54923C10.6 3.48893 9.992 5.42857 9.09007 4.60447C8.64417 4.19243 8.94819 3.56933 9.46502 3.54923Z" fill="currentColor"/>
      <path d="M15.6873 24.7445C16.569 24.634 16.5386 26.3123 16.0724 26.5736C15.0083 27.1666 14.7246 24.8752 15.6873 24.7445Z" fill="currentColor"/>
      <path d="M14.3091 23.1466C15.3124 22.9255 15.3428 24.6441 14.2483 24.2923C13.6909 24.1215 13.7315 23.2672 14.3091 23.1466Z" fill="currentColor"/>
      <path d="M16.8933 23.1365C17.7141 22.9656 17.8661 24.1214 17.2581 24.3023C16.3865 24.5636 16.0825 23.2973 16.8933 23.1365Z" fill="currentColor"/>
  </symbol>

  <symbol id="mesas" viewBox="0 0 30 42" fill="none" >
   <path d="M24.4134 30.8913H18.6869C18.7173 30.5998 18.5957 30.1676 18.768 29.9263C18.849 29.8158 20.0957 29.0418 20.3795 28.7905C20.6735 28.5292 20.9269 28.2377 21.16 27.9261C22.437 27.7352 23.8864 28.2176 24.9608 27.3331C25.5892 26.8205 25.8121 26.0365 25.8324 25.2424C25.7615 25.1922 25.7006 25.1118 25.6702 25.0313C25.6398 24.9409 25.6702 24.8102 25.7108 24.7298C25.7513 24.6494 25.8527 24.5589 25.9439 24.5489C26.0655 24.5288 26.1871 24.4986 26.2986 24.4484C26.3898 24.4082 26.4709 24.3579 26.5419 24.3077C26.6027 24.2574 26.6635 24.1971 26.7243 24.1267C26.7649 24.0765 26.7952 24.0162 26.8257 23.9559C26.8763 23.8453 26.9878 23.795 27.0993 23.7749C27.221 23.5437 27.4439 23.2221 27.5149 23.0613C27.8392 22.2371 27.8494 20.5484 27.6061 19.6941C27.3527 18.8196 26.7446 18.1462 25.9236 17.7642C25.9844 15.1207 25.0823 12.638 23.258 10.7182C23.258 10.3966 23.4505 10.1353 23.5113 9.81362C23.5823 9.42162 23.5012 8.95926 23.5113 8.56726C23.4911 8.5371 23.4708 8.50695 23.4708 8.4768C23.3999 8.15515 23.3289 7.83351 23.2073 7.52192C23.1972 7.49176 23.1971 7.49176 23.1971 7.49176C23.1971 7.49176 23.1971 7.48171 23.1971 7.47166C23.1769 7.43146 23.1566 7.39125 23.1363 7.3611C23.0958 7.29074 23.0552 7.22038 23.0046 7.15002C22.9843 7.11987 22.9336 7.08971 23.0046 7.15002C22.9944 7.13997 22.9843 7.11987 22.9742 7.10981C22.9438 7.07966 22.9134 7.0495 22.8829 7.01935C22.8525 6.98919 22.8222 6.95904 22.7816 6.92889C22.7816 6.92889 22.7715 6.92889 22.7613 6.91884C22.7613 6.92889 22.7411 6.94899 22.731 6.95904L22.0316 6.35596C22.4978 3.96375 20.3998 1.93337 17.9774 2.32538C16.9537 0.787521 14.7341 0.395519 13.2036 1.43081C12.9401 1.61173 12.4536 2.24496 12.2509 2.30527C11.9569 2.39573 11.4401 2.29522 11.0853 2.33542C9.67651 2.49625 8.43998 3.77277 8.22713 5.13975C8.17645 5.45134 8.25754 6.25545 8.22713 6.33586C8.18659 6.45647 7.56834 6.95904 7.41631 7.16007C6.60547 8.22551 6.57504 9.52213 7.07168 10.7283C6.65612 11.2711 5.37904 12.3265 5.85541 13.0502C6.57503 14.1357 7.55817 12.1958 7.95345 11.7837C9.14944 10.5373 11.1664 9.54223 12.8996 9.42162C17.0247 9.12008 21.1701 9.35126 23.4202 13.2713C23.7344 13.8241 24.4134 15.4323 24.4134 16.0153V17.5129H22.8526C22.8323 15.6032 22.1735 13.7839 20.6937 12.5174C18.697 10.7987 15.3523 10.8188 12.8185 11.07C9.6866 11.3816 7.24397 14.4372 7.44668 17.5129H5.7946C5.63243 16.7691 6.34191 15.4926 5.60202 15.0202C4.30469 14.1759 4.3655 17.1511 4.3959 17.7743C3.75737 18.0155 3.15937 18.6085 2.86544 19.2116C2.43975 20.0961 2.42965 22.3275 2.83507 23.2221C3.72698 25.1721 5.87569 25.0213 7.70007 24.9911C8.17643 27.0818 9.61568 28.8911 11.511 29.8962L11.5515 30.9013H5.91622C3.89927 30.9013 1.61881 32.7106 0.807976 34.4796C0.149172 35.927 0.128871 38.7213 0.270767 40.3194C0.341716 41.0733 0.909325 41.7467 1.68975 41.8171H21.5958C22.66 41.6965 22.1938 40.4501 21.7782 40.4501H1.79108L1.64924 40.3094V36.4899C1.64924 35.6958 2.49043 34.2183 3.05802 33.6554C4.75064 31.9768 6.87907 32.3688 9.06833 32.3588C11.0751 37.9172 19.1633 37.877 21.1903 32.3588C22.6904 32.4291 24.3222 32.0874 25.731 32.6905C28.9034 34.0574 28.7818 37.5252 28.5082 40.44H24.5148C24.0992 40.44 23.7141 41.606 24.535 41.7869C25.802 41.7166 27.3122 41.9477 28.5487 41.807C29.2886 41.7266 29.8663 41.1135 29.9575 40.3898C30.1197 39.2037 30.0285 36.3592 29.6839 35.2234C29.0453 33.1126 26.6331 30.9013 24.3222 30.9013L24.4134 30.8913ZM22.1634 9.70305C21.3627 9.3412 20.643 8.83864 19.8018 8.54716C17.9977 7.92397 13.7712 7.85361 11.8759 8.18531C10.8116 8.37628 9.83864 8.82859 8.89604 9.3211C8.69333 9.42162 8.26767 9.88398 8.22713 9.56233C8.12578 8.80848 8.3386 8.02448 8.967 7.56212C9.21025 7.3812 9.57512 7.35104 9.71701 7.0294C9.93999 6.52683 9.58529 6.10468 9.62583 5.58201C9.71705 4.35574 10.8218 3.55164 12.0279 3.69236C12.2306 3.71246 12.4131 3.85318 12.5955 3.86323C13.2746 3.92354 13.3658 3.12948 13.832 2.73748C14.6631 2.04394 15.9605 2.06404 16.7004 2.8782C16.9537 3.15964 17.0754 3.71246 17.4909 3.83308C17.8153 3.92354 18.4741 3.63205 19.0011 3.69236C20.1971 3.84313 20.7951 4.87841 20.7039 6.00416C20.6836 6.29565 20.5012 6.55699 20.5822 6.84848C20.714 7.34099 21.3018 7.4013 21.6262 7.73299C22.1228 8.23556 22.2445 9.00951 22.1735 9.68295L22.1634 9.70305ZM22.9032 23.2121V18.89H24.8797C25.3966 18.89 26.0756 19.5132 26.2479 19.9856C26.4709 20.5887 26.4608 21.9958 26.2277 22.5989C26.1162 22.8703 25.508 23.5337 25.2445 23.5337H22.8121C22.7614 23.403 22.9032 23.2623 22.9032 23.2121ZM22.6195 24.9811H24.3627C24.5046 25.5741 24.2107 26.529 23.4911 26.529H22.1634L22.6195 24.9811ZM7.49735 23.5236H5.15606C4.93308 23.5236 4.25401 22.8603 4.14252 22.619C3.83845 21.9154 3.88914 19.9755 4.46686 19.3926C4.60875 19.2518 5.26757 18.89 5.42974 18.89H7.49735V23.5236ZM12.5347 12.5677C13.7408 12.2963 17.1159 12.3064 18.2713 12.7084C20.0754 13.3215 21.4133 15.0705 21.4336 16.9903C20.8964 16.94 20.339 16.5882 19.9234 16.2565C19.6295 16.0253 19.2747 15.4524 18.9099 15.4323C18.3524 15.3921 18.0179 16.0454 17.6226 16.347C16.2037 17.4426 14.2577 17.4225 12.8185 16.3872C12.2813 16.0052 11.8759 15.1107 11.1259 15.5429C10.9231 15.6535 10.8725 15.8947 10.7103 16.0354C10.2238 16.4576 9.5954 16.8697 8.967 16.9903C8.92646 14.9499 10.5583 13.02 12.5347 12.5777V12.5677ZM9.35215 25.4636C8.54131 23.393 9.15956 20.6992 8.95685 18.4879C9.88931 18.2065 10.7711 17.8346 11.5009 17.1712C13.7104 19.0206 16.6801 18.9804 18.8997 17.1712C19.5991 17.8346 20.4808 18.2567 21.4234 18.4477C21.2511 21.1415 22.0417 24.1569 20.4505 26.539C19.7005 26.4687 18.8085 26.6295 18.0788 26.539C17.947 26.5189 17.8456 26.529 17.7646 26.3983V24.9409C17.7646 24.5388 16.9943 23.9056 16.599 23.8252C16.1429 23.7347 14.4604 23.7448 13.9638 23.8051C12.5144 23.9659 12.2813 25.7751 12.6766 26.9009C12.8185 27.2929 13.457 27.906 13.8726 27.906H19.2342C18.4639 28.6498 17.2882 29.1624 16.2341 29.3333C13.3556 29.8158 10.4164 28.1674 9.35215 25.4736V25.4636ZM16.3862 26.529H14.1361C13.9131 26.3782 13.9536 25.2927 14.0854 25.2022H16.2949L16.376 26.529H16.3862ZM19.6903 32.4794C19.5788 32.8613 18.7781 33.7157 18.4538 33.977C15.8692 36.0778 12.1901 35.2335 10.6191 32.3889C12.038 32.399 13.2442 32.2482 13.0921 30.5294C14.5212 30.8812 15.8895 30.8812 17.3085 30.5294C17.2375 31.5949 17.5416 32.208 18.6463 32.3387C18.9504 32.3789 19.2748 32.3085 19.5586 32.3487C19.67 32.3588 19.741 32.3085 19.6903 32.4794Z" fill="currentColor"></path>
<path d="M12.2408 19.9956C13.6598 19.684 13.4266 22.3577 12.18 21.835C11.6428 21.6139 11.6124 20.1263 12.2408 19.9956Z" fill="currentColor"></path>
<path d="M17.643 19.9956C18.8187 19.6438 18.9403 21.6943 18.0586 21.8752C16.9538 22.1064 16.9842 20.1967 17.643 19.9956Z" fill="currentColor"></path>
  </symbol>

</svg>
