<svg xmlns="http://www.w3.org/2000/svg" xmlns:xlink="http://www.w3.org/1999/xlink" style="display:none">
	
	<symbol id="icono-documentos" viewBox="0 0 37 45" fill="none">
		<path d="M31.14 0H3.39C1.52 0 0 1.52 0 3.39V40.65C0 42.52 1.52 44.04 3.39 44.04H31.14C32.61 44.04 33.85 43.1 34.32 41.79C34.05 41.72 33.85 41.57 33.72 41.35C33.47 41.29 33.22 41.21 32.98 41.11C32.77 41.93 32.03 42.54 31.15 42.54H3.39C2.35 42.54 1.5 41.69 1.5 40.65V3.39C1.5 2.35 2.35 1.5 3.39 1.5H31.14C32.18 1.5 33.03 2.35 33.03 3.39V35.87C33.03 35.87 33.08 35.89 33.11 35.9C33.11 35.9 33.12 35.9 33.13 35.9C33.2 35.95 33.27 35.99 33.35 36.04C33.35 36.04 33.35 36.04 33.36 36.04C33.39 36.06 33.41 36.08 33.43 36.11C33.56 36.22 33.66 36.36 33.72 36.53C33.74 36.62 33.76 36.7 33.78 36.79C33.99 36.86 34.18 36.98 34.31 37.15C34.4 37.26 34.46 37.4 34.53 37.52V3.39C34.53 1.52 33.01 0 31.14 0Z" fill="#5B5A5A"/>
		<path fill-rule="evenodd" clip-rule="evenodd" d="M14.22 21.99H4.39C4.14 21.99 3.93 22.2 3.93 22.45C3.93 22.7 4.14 22.91 4.39 22.91H12.8C13.25 22.57 13.75 22.29 14.23 21.99H14.22Z" fill="#5B5A5A"/>
		<path fill-rule="evenodd" clip-rule="evenodd" d="M16.55 18.05H4.39C4.14 18.05 3.93 18.26 3.93 18.51C3.93 18.76 4.14 18.97 4.39 18.97H16.54C16.4 18.69 16.41 18.34 16.55 18.05Z" fill="#5B5A5A"/>
		<path fill-rule="evenodd" clip-rule="evenodd" d="M30.34 14.87H4.39C4.14 14.87 3.93 14.66 3.93 14.41C3.93 14.16 4.14 13.95 4.39 13.95H30.34C30.59 13.95 30.8 14.16 30.8 14.41C30.8 14.66 30.59 14.87 30.34 14.87Z" fill="#5B5A5A"/>
		<path fill-rule="evenodd" clip-rule="evenodd" d="M30.34 10.94H4.39C4.14 10.94 3.93 10.73 3.93 10.48C3.93 10.23 4.14 10.02 4.39 10.02H30.34C30.59 10.02 30.8 10.23 30.8 10.48C30.8 10.73 30.59 10.94 30.34 10.94Z" fill="#5B5A5A"/>
		<path fill-rule="evenodd" clip-rule="evenodd" d="M30.34 7.21999H4.39C4.14 7.21999 3.93 7.00999 3.93 6.75999C3.93 6.50999 4.14 6.29999 4.39 6.29999H30.34C30.59 6.29999 30.8 6.50999 30.8 6.75999C30.8 7.00999 30.59 7.21999 30.34 7.21999Z" fill="#5B5A5A"/>
		<path fill-rule="evenodd" clip-rule="evenodd" d="M8.22 26.9C8.21 26.74 8.24 26.57 8.32 26.41H4.39C4.14 26.41 3.93 26.62 3.93 26.87C3.93 27.12 4.14 27.33 4.39 27.33H8.37C8.29 27.21 8.23 27.07 8.22 26.9Z" fill="#5B5A5A"/>
		<path fill-rule="evenodd" clip-rule="evenodd" d="M12.17 31.21C12.15 31.08 12.17 30.95 12.21 30.84H4.39C4.14 30.84 3.93 31.05 3.93 31.3C3.93 31.55 4.14 31.76 4.39 31.76H12.43C12.3 31.6 12.2 31.42 12.17 31.21Z" fill="#5B5A5A"/>
		<path fill-rule="evenodd" clip-rule="evenodd" d="M19.16 36.18H4.39C4.14 36.18 3.93 35.97 3.93 35.72C3.93 35.47 4.14 35.26 4.39 35.26H19.17C19.42 35.26 19.63 35.47 19.63 35.72C19.63 35.97 19.43 36.18 19.17 36.18H19.16Z" fill="#5B5A5A"/>
		<path fill-rule="evenodd" clip-rule="evenodd" d="M33.43 42.48C32.76 42.48 32.13 42.22 31.66 41.75L19.29 29.38C19.01 29.1 19.01 28.64 19.29 28.35C19.57 28.07 20.03 28.07 20.32 28.35L32.69 40.72C32.89 40.92 33.15 41.03 33.43 41.03C33.71 41.03 33.98 40.92 34.17 40.72L35.21 39.68C35.41 39.48 35.52 39.22 35.52 38.94C35.52 38.66 35.41 38.39 35.21 38.2L22.84 25.83C22.56 25.55 22.56 25.09 22.84 24.8C23.12 24.52 23.58 24.52 23.87 24.8L36.24 37.17C36.71 37.64 36.97 38.27 36.97 38.94C36.97 39.61 36.71 40.24 36.24 40.71L35.2 41.75C34.73 42.23 34.1 42.49 33.43 42.49V42.48Z" fill="#C4D059"/>
		<path fill-rule="evenodd" clip-rule="evenodd" d="M10.7 25.34C10.51 25.34 10.33 25.27 10.19 25.13C9.91 24.85 9.91 24.39 10.19 24.1L18.59 15.7C18.87 15.42 19.33 15.42 19.62 15.7C19.9 15.98 19.9 16.44 19.62 16.73L11.22 25.13C11.08 25.27 10.89 25.34 10.71 25.34H10.7ZM17.38 32.01C17.19 32.01 17.01 31.94 16.87 31.8C16.59 31.52 16.59 31.06 16.87 30.77L25.27 22.37C25.55 22.09 26.01 22.09 26.3 22.37C26.58 22.65 26.58 23.11 26.3 23.4L17.9 31.8C17.76 31.94 17.57 32.01 17.39 32.01H17.38Z" fill="#C4D059"/>
		<path fill-rule="evenodd" clip-rule="evenodd" d="M12.73 27.36C12.54 27.36 12.36 27.29 12.22 27.15C11.94 26.87 11.94 26.41 12.22 26.12L20.62 17.72C20.9 17.44 21.36 17.44 21.65 17.72C21.93 18 21.93 18.46 21.65 18.75L13.25 27.15C13.11 27.29 12.92 27.36 12.74 27.36H12.73Z" fill="#C4D059"/>
		<path fill-rule="evenodd" clip-rule="evenodd" d="M15.41 30.05C15.22 30.05 15.04 29.98 14.9 29.84C14.62 29.56 14.62 29.1 14.9 28.81L23.3 20.41C23.58 20.13 24.04 20.13 24.33 20.41C24.61 20.69 24.61 21.15 24.33 21.44L15.93 29.84C15.79 29.98 15.6 30.05 15.42 30.05H15.41Z" fill="#C4D059"/>
		<path fill-rule="evenodd" clip-rule="evenodd" d="M10.02 25.02C10.02 25.02 9.95 25.02 9.91 25.06L8.9 26.07C8.9 26.07 8.86 26.15 8.86 26.18C8.86 26.21 8.86 26.25 8.9 26.29L15.69 33.08C15.75 33.14 15.85 33.14 15.91 33.08L16.92 32.07C16.92 32.07 16.96 31.99 16.96 31.96C16.96 31.93 16.96 31.89 16.92 31.85L10.13 25.06C10.13 25.06 10.05 25.02 10.02 25.02ZM15.8 34.59C15.39 34.59 14.98 34.43 14.66 34.12L7.87 27.33C7.57 27.03 7.4 26.62 7.4 26.19C7.4 25.76 7.57 25.36 7.87 25.05L8.88 24.04C9.51 23.41 10.53 23.41 11.16 24.04L17.95 30.83C18.58 31.46 18.58 32.48 17.95 33.11L16.94 34.12C16.63 34.43 16.21 34.59 15.8 34.59Z" fill="#C4D059"/>
		<path fill-rule="evenodd" clip-rule="evenodd" d="M20.67 14.36C20.67 14.36 20.59 14.38 20.56 14.4L19.55 15.41C19.55 15.41 19.51 15.49 19.51 15.52C19.51 15.55 19.51 15.59 19.55 15.63L26.34 22.42C26.34 22.42 26.42 22.46 26.45 22.46C26.48 22.46 26.52 22.46 26.56 22.42L27.57 21.41C27.57 21.41 27.61 21.33 27.61 21.3C27.61 21.27 27.61 21.23 27.57 21.19L20.78 14.4C20.78 14.4 20.71 14.36 20.67 14.36ZM26.46 23.93C26.05 23.93 25.64 23.77 25.32 23.46L18.53 16.67C17.9 16.04 17.9 15.02 18.53 14.39L19.54 13.38C20.17 12.75 21.19 12.75 21.82 13.38L28.61 20.17C28.91 20.47 29.08 20.88 29.08 21.31C29.08 21.74 28.91 22.14 28.61 22.45L27.6 23.46C27.29 23.77 26.87 23.93 26.46 23.93Z" fill="#C4D059"/>
	</symbol>

	<symbol id="icono-informacion" viewBox="0 0 57 56" fill="none">
		<path d="M50.94 24.89C50.88 24.88 50.26 24.53 50.18 24.46C49.57 23.95 49.44 22.45 49.18 21.67C48.8 20.5 48.36 19.28 47.8 18.18C47.24 17.08 46.11 15.92 46.36 14.69C46.53 13.87 48.65 12.33 49.21 11.58V11.37L45.18 7.37002C43.74 8.22002 42.74 10.84 40.75 10.18C40.52 10.1 39.25 9.32002 39.07 9.15002C38.34 8.46002 39.01 7.57002 39.97 7.82002C40.32 7.91002 41.2 8.72002 41.49 8.65002C43.14 7.44002 44.29 4.48002 46.6 6.39002C47.52 7.15002 49.55 9.16002 50.28 10.07C52.13 12.4 49.01 13.51 47.95 15.21C49.47 17.69 50.72 20.38 51.2 23.27C52.68 23.5 55.98 22.54 56.45 24.57C56.66 25.47 56.6 29.64 56.5 30.7C56.26 33.25 52.87 32.13 51.2 32.38C50.81 34.69 49.93 36.89 48.83 38.94C48.65 39.27 48.03 40.1 47.96 40.36C47.92 40.51 47.97 40.55 48.05 40.66C49.03 42.12 51.98 43.2 50.42 45.4C49.86 46.19 47.34 48.69 46.54 49.32C44.21 51.17 43.1 48.05 41.4 46.99C38.92 48.51 36.23 49.76 33.34 50.24C33.12 51.78 34.12 55.21 31.86 55.53C30.63 55.7 27.2 55.66 25.91 55.54C23.36 55.3 24.48 51.91 24.23 50.24C22 49.86 19.87 49.03 17.89 47.98C17.58 47.81 16.44 47.03 16.26 47C16.14 46.98 16.05 47 15.96 47.09C14.39 48.36 13.23 51.12 10.98 49.26C10.06 48.5 8.03001 46.49 7.30001 45.58C5.44001 43.23 8.57001 42.15 9.63001 40.44C8.11001 37.96 6.86001 35.27 6.38001 32.38C4.84001 32.16 1.41001 33.16 1.09001 30.9C0.91001 29.65 0.96001 26.27 1.08001 24.95C1.31001 22.4 4.71001 23.52 6.38001 23.27C6.77001 20.99 7.63001 18.81 8.71001 16.78C8.90001 16.43 9.55001 15.56 9.62001 15.29C9.66001 15.14 9.61001 15.1 9.53001 14.99C8.91001 14.06 6.90001 12.88 6.72001 11.74C6.61001 11.03 6.89001 10.59 7.31001 10.07C8.08001 9.12002 10.04 7.17002 10.99 6.39002C13.36 4.44002 14.45 7.57002 16.19 8.67002C18.67 7.15002 21.35 5.90002 24.25 5.42002C24.47 3.95002 23.5 0.510018 25.63 0.150018C26.72 -0.0299819 30.62 -0.00998192 31.77 0.120018C34.16 0.390018 33.11 3.80002 33.34 5.42002C33.93 5.52002 36.64 6.07002 36.83 6.53002C37.09 7.16002 36.83 7.83002 36.09 7.81002C35.77 7.80002 33.47 7.12002 33.03 6.97002C32.76 6.88002 32.45 6.76002 32.24 6.57002C32.14 6.47002 31.7 5.76002 31.7 5.70002V1.73002H25.86V5.68002C25.86 5.68002 25.5 6.36002 25.43 6.44002C24.92 7.04002 23.42 7.19002 22.64 7.44002C20.99 7.97002 19.63 8.58002 18.1 9.40002C17.23 9.87002 16.8 10.5 15.65 10.26C14.85 10.09 12.72 7.31002 12.39 7.37002L8.42001 11.31L8.37001 11.58C8.96001 12.36 11.1 13.89 11.24 14.78C11.43 15.96 10.31 17.14 9.78001 18.18C9.22001 19.29 8.78001 20.49 8.40001 21.67C8.15001 22.45 8.01001 23.95 7.40001 24.46C7.32001 24.53 6.68001 24.89 6.64001 24.89H2.73001V30.73H6.68001C6.78001 30.73 7.33001 31.06 7.44001 31.16C8.07001 31.72 8.18001 33.13 8.44001 33.95C8.82001 35.13 9.26001 36.33 9.82001 37.44C10.35 38.48 11.46 39.66 11.28 40.84C11.14 41.73 9.00001 43.26 8.41001 44.04L8.46001 44.31L12.43 48.25C12.75 48.31 14.89 45.53 15.69 45.36C16.84 45.12 17.27 45.75 18.14 46.22C19.66 47.03 21.04 47.64 22.68 48.18C23.46 48.44 24.96 48.57 25.47 49.18C25.54 49.26 25.9 49.9 25.9 49.94V53.89H31.74V49.94C31.74 49.94 32.1 49.26 32.17 49.18C32.68 48.57 34.18 48.44 34.96 48.18C36.13 47.8 37.35 47.36 38.45 46.8C39.49 46.27 40.67 45.16 41.85 45.34C42.74 45.48 44.27 47.62 45.05 48.21L45.32 48.16L49.26 44.19C49.3 43.95 46.93 41.9 46.62 41.44C45.74 40.12 47.09 38.82 47.68 37.65C48.27 36.48 48.77 35.23 49.18 33.96C49.44 33.18 49.57 31.68 50.18 31.17C50.26 31.1 50.9 30.74 50.94 30.74H54.89V24.9C53.75 24.74 52 25.12 50.94 24.9V24.89Z" fill="#5C5B5A"/>
		<path d="M27.82 9.76999C42.2 8.94999 51.79 24.77 44.27 37.15C37.23 48.75 20.4 48.74 13.36 37.15C6.32 25.56 14.33 10.53 27.82 9.76999ZM27.92 11.39C14.95 12.14 7.84 26.97 15.56 37.54C23.28 48.11 39.62 45.74 44.18 33.6C48.34 22.53 39.7 10.71 27.92 11.39Z" fill="#5C5B5A"/>
		<path d="M27.92 11.39C39.7 10.71 48.34 22.53 44.18 33.6C39.62 45.74 23.23 48.04 15.56 37.54C7.89003 27.04 14.95 12.14 27.92 11.39ZM31.76 27.3C31.89 27.16 32.6 26.84 32.87 26.62C37.09 23.2 35.52 16.29 30.22 15.2C23.45 13.81 19.44 22.32 24.75 26.62C24.96 26.79 25.85 27.27 25.89 27.34C26.26 27.91 25.59 29.01 26.38 29.42C27.86 30.19 27.76 27.61 27.42 26.76C27.09 25.97 26.33 25.81 25.72 25.32C21.97 22.26 24.55 16.16 29.37 16.69C33.58 17.15 35.2 22.53 31.94 25.27C31.08 25.99 30.21 26.01 30.02 27.35L29.94 38.09L28.77 38.94C28.7 38.93 27.7 38.15 27.67 38.09C27.59 37.95 27.58 36.75 27.63 36.69C29.81 36.5 29.84 32.98 27.63 32.89C27.96 31.78 26.26 31.15 26.03 32.21C25.8 33.27 26.44 34.5 27.62 34.52V34.99C26.94 35.18 26.3 35.54 26.09 36.28C25.96 36.72 25.94 37.99 26.03 38.44C26.16 39.08 27.84 40.45 28.47 40.55C29.66 40.74 31.1 39.45 31.61 38.44C31.88 35.01 31.34 31.24 31.63 27.85C31.65 27.68 31.65 27.42 31.77 27.29L31.76 27.3ZM28.68 19.17C27.74 19.34 27.81 21.03 29.06 20.76C29.95 20.56 29.65 19 28.68 19.17Z" fill="white"/>
		<path d="M31.76 27.3C31.63 27.43 31.63 27.69 31.62 27.86C31.33 31.24 31.87 35.02 31.6 38.45C31.09 39.46 29.65 40.75 28.46 40.56C27.83 40.46 26.15 39.09 26.02 38.45C25.93 38 25.95 36.72 26.08 36.29C26.3 35.56 26.94 35.2 27.63 35V34.53C26.43 34.51 25.78 33.32 26.02 32.22C26.26 31.12 27.96 31.79 27.62 32.9C29.83 32.99 29.8 36.51 27.62 36.7C27.57 36.75 27.58 37.96 27.66 38.1C27.7 38.16 28.69 38.94 28.76 38.95L29.93 38.1L30.01 27.36C30.2 26.02 31.08 26 31.93 25.28C35.18 22.54 33.57 17.17 29.36 16.7C24.54 16.17 21.96 22.26 25.71 25.33C26.32 25.83 27.08 25.98 27.41 26.77C27.76 27.61 27.86 30.2 26.37 29.43C25.58 29.02 26.25 27.92 25.88 27.35C25.84 27.28 24.94 26.79 24.74 26.63C19.43 22.33 23.44 13.82 30.21 15.21C35.5 16.3 37.07 23.21 32.86 26.63C32.59 26.85 31.89 27.17 31.75 27.31L31.76 27.3Z" fill="#C4D058"/>
		<path d="M28.68 19.17C29.65 18.99 29.95 20.56 29.06 20.76C27.81 21.03 27.73 19.35 28.68 19.17Z" fill="#C4D058"/>		
	</symbol>

	<symbol id="icono-datos" viewBox="0 0 45 45" fill="none">		
		<path d="M15.67 41.12H7.83999C6.95999 41.12 6.23999 40.4 6.23999 39.52V26.23C6.23999 25.35 6.95999 24.63 7.83999 24.63H15.67C16.55 24.63 17.27 25.35 17.27 26.23V39.52C17.27 40.4 16.55 41.12 15.67 41.12ZM7.83999 25.94C7.67999 25.94 7.53999 26.07 7.53999 26.24V39.53C7.53999 39.69 7.66999 39.83 7.83999 39.83H15.67C15.83 39.83 15.97 39.7 15.97 39.53V26.24C15.97 26.08 15.84 25.94 15.67 25.94H7.83999Z" fill="#5C5B5A"/>
		<path d="M28.78 41.12H20.95C20.07 41.12 19.35 40.4 19.35 39.52V18.38C19.35 17.5 20.07 16.78 20.95 16.78H28.78C29.66 16.78 30.38 17.5 30.38 18.38V39.52C30.38 40.4 29.66 41.12 28.78 41.12ZM20.95 18.09C20.79 18.09 20.65 18.22 20.65 18.39V39.53C20.65 39.69 20.78 39.83 20.95 39.83H28.78C28.94 39.83 29.08 39.7 29.08 39.53V18.39C29.08 18.23 28.95 18.09 28.78 18.09H20.95Z" fill="#5C5B5A"/>
		<path d="M41.89 41.12H34.06C33.18 41.12 32.46 40.4 32.46 39.52V11.38C32.46 10.5 33.18 9.78003 34.06 9.78003H41.89C42.77 9.78003 43.49 10.5 43.49 11.38V39.53C43.49 40.41 42.77 41.13 41.89 41.13V41.12ZM34.06 11.08C33.9 11.08 33.76 11.21 33.76 11.38V39.53C33.76 39.69 33.89 39.83 34.06 39.83H41.89C42.05 39.83 42.19 39.7 42.19 39.53V11.38C42.19 11.22 42.06 11.08 41.89 11.08H34.06Z" fill="#5C5B5A"/>
		<path d="M44.23 44.84H0.65C0.29 44.84 0 44.55 0 44.19V0.87998C0 0.51998 0.29 0.22998 0.65 0.22998C1.01 0.22998 1.3 0.51998 1.3 0.87998V43.54H44.23C44.59 43.54 44.88 43.83 44.88 44.19C44.88 44.55 44.59 44.84 44.23 44.84Z" fill="#5C5B5A"/>
		<path d="M6.91 22.72C6.73 22.72 6.54 22.64 6.41 22.49C6.18 22.22 6.21 21.81 6.49 21.57L24.53 6.32999C24.72 6.15999 25 6.12999 25.22 6.23999C25.45 6.34999 25.6 6.57999 25.6 6.82999V11.28L38.17 0.15999C38.44 -0.0800102 38.85 -0.0500102 39.09 0.21999C39.33 0.48999 39.3 0.89999 39.03 1.13999L25.39 13.2C25.2 13.37 24.93 13.41 24.69 13.31C24.46 13.2 24.31 12.97 24.31 12.72V8.22999L7.33 22.57C7.21 22.67 7.06 22.72 6.91 22.72Z" fill="#C1D03E"/>
		<path d="M38.6 7.3C38.24 7.3 37.95 7.01 37.95 6.65V1.3L31.32 1.33C30.96 1.33 30.67 1.04 30.67 0.68C30.67 0.32 30.96 0.03 31.32 0.03L38.6 0C38.77 0 38.94 0.07 39.06 0.19C39.18 0.31 39.25 0.48 39.25 0.65V6.65C39.25 7.01 38.96 7.3 38.6 7.3Z" fill="#C1D03E"/>
	</symbol>

	<symbol id="icono-instruccion" viewBox="0 0 37 37" fill="none">
		<path d="M34.1343 17.1652H32.606V2.21197C32.606 1.99692 32.2297 1.68203 32.0223 1.62827L2.43837 1.58987C2.06973 1.55147 1.53212 1.90476 1.53212 2.28109V21.0207H12.4456V22.549H1.5398V25.0604C1.5398 25.2217 1.9622 25.6825 2.16189 25.6825H12.461C12.5685 26.5427 12.3534 27.303 12.2536 28.1325C12.1 29.3767 11.908 30.6208 11.8082 31.8727H17.1535C17.1535 31.8727 17.4607 32.0033 17.5068 32.0263C18.175 32.441 17.8447 33.4164 17.0767 33.4625C14.5116 33.3089 11.6776 33.6852 9.15082 33.4702C8.51337 33.4164 7.99112 33.1015 8.22921 32.395C8.46729 31.6884 9.60395 31.9188 10.203 31.8573L10.7944 27.2108H1.86236C1.04059 27.2108 -0.073034 25.8284 0.00376752 24.9913V2.28109C0.11897 1.05994 0.994507 0.169046 2.22333 0.0615234H31.9148C32.7058 0.130645 33.4278 0.499292 33.8271 1.20587C33.8886 1.30571 34.1343 1.85868 34.1343 1.92012V17.1652Z" fill="#5C5B5B"/>
		<path d="M28.7507 24.2232L28.8198 24.4075L36.6075 32.1952C36.8379 32.5254 36.9223 32.7789 36.6843 33.1398L33.2282 36.5959C33.0208 36.7879 32.7136 36.7725 32.4602 36.7111L24.3499 28.67L21.4392 34.4147C21.0782 34.8064 20.4638 34.7527 20.1796 34.2995L11.8774 12.5647C11.9619 12.0348 12.438 11.7276 12.968 11.9042L34.4263 20.2065C34.841 20.5213 34.8026 21.0973 34.4263 21.4353L28.7507 24.2385V24.2232ZM32.0301 20.9437L14.0585 13.9625L20.9016 31.934L23.459 26.965C23.7739 26.5272 24.2655 26.4427 24.6879 26.8037L32.7981 34.8525L34.8794 32.848L34.9178 32.6637L26.8383 24.5841C26.5234 24.2539 26.6002 23.6548 26.9996 23.4321L32.0454 20.9437H32.0301Z" fill="#C1D13F"/>
		<path d="M8.86664 14.4155C9.51945 14.354 9.90346 15.122 9.54249 15.675C9.38889 15.9054 7.22309 18.0712 6.99269 18.2171C6.22467 18.7163 5.40289 17.9022 5.9021 17.1265C6.07107 16.8654 8.12935 14.8148 8.41351 14.6151C8.52871 14.5307 8.7284 14.4231 8.86664 14.4155Z" fill="#C1D13F"/>
		<path d="M17.3686 5.9981C18.0675 5.9981 18.321 6.71235 17.9446 7.26532C17.7603 7.53413 15.6944 9.60777 15.4332 9.77673C14.6422 10.2836 13.8972 9.50793 14.3119 8.72455C15.1491 8.07174 16.0246 6.74307 16.8541 6.17474C17.0077 6.06722 17.1766 5.99042 17.3609 5.99042L17.3686 5.9981Z" fill="#C1D13F"/>
		<path d="M6.24778 6.04432C6.49354 5.99056 6.77771 6.00592 6.99275 6.14416C7.26924 6.3208 9.24303 8.30228 9.47344 8.61717C10.0648 9.43127 9.28911 10.3298 8.45966 9.77687C7.6302 9.2239 6.71626 7.85683 5.87145 7.19634C5.60264 6.85073 5.82537 6.14416 6.24778 6.052V6.04432Z" fill="#C1D13F"/>
		<path d="M4.06656 11.428H7.89127C8.65929 11.6738 8.61321 12.8105 7.82983 12.9333C6.73925 13.11 5.20322 12.8258 4.06656 12.9257C3.30622 12.6108 3.30622 11.7429 4.06656 11.428Z" fill="#C1D13F"/>
		<path d="M11.3858 8.47908C11.2552 8.34851 11.1631 8.07203 11.14 7.8877C11.0555 7.15809 11.0632 5.27645 11.1477 4.54684C11.2706 3.5177 12.5455 3.5561 12.6607 4.32411C12.7529 4.89245 12.7529 7.52674 12.6607 8.10275C12.5685 8.67876 11.7852 8.87844 11.3781 8.47908H11.3858Z" fill="#C1D13F"/>		
	</symbol>

</svg>