<svg xmlns="http://www.w3.org/2000/svg" xmlns:xlink="http://www.w3.org/1999/xlink" style="display:none">

  <symbol id="icono-calendarios-descarga-escudo" viewBox="0 0 51 50" fill="none">
      <path d="M0 35.55C0.48 33.76 2.4 32.73 4.11 33.64C6.22 34.76 5.41 37.36 5.57 39.31C5.8 42.11 8.09 44.3 10.89 44.44H39.22C41.93 44.26 44.18 42.11 44.43 39.39C44.62 37.37 43.75 34.65 46.04 33.57C47.76 32.76 49.82 33.9 50.01 35.79C50.62 41.81 48.51 47.19 42.61 49.39L40.05 50H9.96C9.3 49.85 8.64 49.77 7.99 49.58C4.54 48.59 1.73 45.84 0.56 42.46L0 40.04L0 35.55Z" fill="#C1D13F"/>
      <path d="M27.83 29.3L34.27 22.9C37.02 20.69 40.41 24.12 38.13 26.96L27 38.09C25.8 39.17 24.29 39.14 23.04 38.14L11.91 27.01C9.53 24.35 12.87 20.62 15.72 22.9L22.16 29.3V2.57999C22.16 0.549993 24.9 -0.760007 26.6 0.479993C27.13 0.859993 27.82 1.91999 27.82 2.57999V29.29L27.83 29.3Z" fill="#5C5B5B"/>
  </symbol>

  <symbol id="icono-calendarios-descarga-calandario" viewBox="0 0 51 50" fill="none">
      <path d="M0 5.96564C0.42 4.91564 1.13 4.10565 2.3 3.92565H12.48V2.20565C12.48 2.08565 12.71 1.58565 12.79 1.44565C13.83 -0.434355 16.55 -0.494355 17.63 1.34565C17.73 1.52565 18.04 2.13564 18.04 2.30564V3.91565H29.36V2.20565C29.36 2.13565 29.78 1.26565 29.86 1.14565C30.98 -0.494355 33.59 -0.334355 34.57 1.37565C34.63 1.48565 34.92 2.14565 34.92 2.19565V3.90565H45.1C46.31 4.06565 47.4 5.25564 47.41 6.48564V31.1756C47.34 31.6856 46.81 31.9556 46.33 31.7556C46.28 31.7356 45.94 31.3956 45.94 31.3656V13.6756H41.7C41.48 13.6756 41.05 13.1256 41.07 12.8556C41.09 12.6256 41.51 12.1156 41.7 12.1156H45.94V6.60564C45.94 6.00564 45.21 5.39564 44.61 5.39564H34.92V7.09564C34.92 7.24565 34.59 7.94564 34.47 8.11564C33.28 9.82564 30.74 9.74564 29.7 7.91564C29.64 7.80564 29.35 7.14565 29.35 7.09564V5.38564H18.03V6.99564C18.03 7.08564 17.79 7.72564 17.72 7.85564C16.75 9.74564 14.01 9.83564 12.88 8.04564C12.81 7.92564 12.47 7.25564 12.47 7.18564V5.38564H2.88C2.29 5.38564 1.46 5.84564 1.46 6.50564V12.1156H38.58C38.8 12.1156 39.23 12.6656 39.21 12.9356C39.19 13.1656 38.77 13.6756 38.58 13.6756H1.46V17.0456C1.46 17.6056 0.21 17.7656 0 17.0956V5.96564ZM15.1 1.50565C14.56 1.56564 14.07 2.09565 13.98 2.63565C13.86 3.37565 13.87 5.74565 13.96 6.51565C14.15 8.24565 16.22 8.11564 16.48 6.98564C16.61 6.42564 16.58 3.27565 16.5 2.61564C16.42 1.95564 15.8 1.43564 15.11 1.51565L15.1 1.50565ZM32.07 1.50565C31.15 1.57565 30.88 2.28565 30.82 3.09564C30.76 3.90564 30.72 6.66564 31.07 7.24564C31.62 8.15564 32.97 7.97564 33.33 6.97564C33.55 6.38564 33.52 3.73565 33.46 2.99565C33.39 2.20565 32.98 1.43564 32.07 1.50565Z" fill="#5C5B5B"/>
      <path d="M0 42.2556V19.7256C0.49 19.1756 1.15 19.1356 1.46 19.8756V41.4356C1.55 42.4556 1.98 42.7656 2.97 42.8456H30.1C31 42.9556 30.92 44.2556 30 44.3056H2.48C1.2 44.1956 0.45 43.3856 0 42.2556Z" fill="#5C5B5B"/>
      <path d="M32.05 39.3356C32.05 39.3356 32.01 39.2956 32.01 39.2756C32.01 39.3056 32.08 39.3556 32.02 39.2956C31.94 39.2156 31.86 39.1456 31.78 39.0756C31.76 39.0656 31.76 39.0556 31.77 39.0756C31.75 39.0656 31.73 39.0456 31.71 39.0356C31.66 39.0056 31.62 38.9656 31.57 38.9356C31.55 38.9256 31.54 38.9056 31.52 38.8856C31.36 39.0256 30.94 38.9356 30.72 38.9556V34.3756H32.13C32.73 34.3756 32.76 32.9156 32.13 32.9156H30.72V28.1356H35.5V30.7156C35.5 30.9456 36.08 31.2656 36.32 31.2556C36.61 31.2356 37.06 30.7856 37.06 30.5256V28.1356H42.03V31.5056C42.1 31.5756 42.13 31.6456 42.15 31.7256C42.16 31.7256 42.17 31.7356 42.17 31.7456C42.24 31.7756 42.32 31.7956 42.4 31.8056C42.4 31.8056 42.43 31.8056 42.44 31.8056C42.44 31.8056 42.44 31.8056 42.45 31.8056C42.5 31.8056 42.55 31.8056 42.6 31.8156C42.71 31.8156 42.81 31.8156 42.92 31.8156C42.97 31.8156 43.02 31.8156 43.07 31.8056C43.09 31.8056 43.14 31.8056 43.17 31.7956C43.23 31.7856 43.3 31.8256 43.36 31.8056C43.38 31.8056 43.5 31.8556 43.52 31.8456C43.54 31.8456 43.46 31.7256 43.51 31.7156C43.49 31.7156 43.48 31.7256 43.46 31.7356C43.45 31.7356 43.43 31.7356 43.42 31.7456C43.38 31.7656 43.41 31.7556 43.44 31.7456C43.46 31.7356 43.49 31.8656 43.51 31.8556L43.49 18.0356C43.37 16.8756 42.43 16.1156 41.3 16.0356H6.09001C4.99001 16.1156 3.98001 16.8856 3.89001 18.0356V38.4256C3.98001 39.4756 4.84001 40.3356 5.89001 40.4256H31.33C31.33 40.4256 31.43 40.3656 31.48 40.3456C31.5 40.3456 31.52 40.3356 31.54 40.3256C31.55 40.3256 31.56 40.3056 31.57 40.3056C31.59 40.2956 31.61 40.2756 31.63 40.2656C31.67 40.2256 31.71 40.1856 31.75 40.1356C31.76 40.1156 31.79 40.0756 31.8 40.0656C31.86 39.9656 31.92 39.8656 31.97 39.7556C32 39.7056 32.02 39.6456 32.04 39.5956C32 39.6956 32.04 39.6056 32.04 39.5956C32.04 39.5656 32.06 39.5356 32.07 39.5056C32.07 39.5056 32.07 39.5056 32.07 39.4956C32.07 39.4756 32.07 39.4556 32.07 39.4456C32.07 39.4356 32.07 39.4156 32.06 39.4056C32.06 39.3956 32.04 39.3756 32.04 39.3656L32.05 39.3356ZM37.07 17.5756H41.61C41.7 17.5756 42.05 18.0956 42.05 18.2056V20.3056H37.08V17.5756H37.07ZM37.07 21.8656H42.04V26.5456H37.07V21.8656ZM30.73 17.5756H35.51V20.3056H30.73V17.5756ZM30.73 21.8656H35.51V26.5456H30.73V21.8656ZM10.34 38.9356H6.10001C5.86001 38.9356 5.37001 38.5556 5.37001 38.3056V34.3556H10.34V38.9356ZM10.34 32.8956H5.37001V28.1156H10.34V32.8956ZM10.34 26.5556H5.37001V21.8756H10.34V26.5556ZM10.34 20.3056H5.37001V18.1156C5.37001 18.0456 5.76001 17.5756 5.81001 17.5756H10.35V20.3056H10.34ZM16.68 38.9356H11.9V34.3556H16.68V38.9356ZM16.68 32.8956H11.9V28.1156H16.68V32.8956ZM16.68 26.5556H11.9V21.8756H16.68V26.5556ZM16.68 20.3056H11.9V17.5756H16.68V20.3056ZM22.92 38.9356H18.14V34.3556H22.92V38.9356ZM22.92 32.8956H18.14V28.1156H22.92V32.8956ZM22.92 26.5556H18.14V21.8756H22.92V26.5556ZM22.92 20.3056H18.14V17.5756H22.92V20.3056ZM29.26 38.9356H24.48V34.3556H29.26V38.9356ZM29.26 32.8956H24.38V28.1156H29.26V32.8956ZM29.26 26.5556H24.48V21.8756H29.26V26.5556ZM29.26 20.3056H24.48V17.5756H29.26V20.3056Z" fill="#5C5B5B"/>
      <path d="M49.67 38.2856C49.38 37.3456 48.35 37.3756 48.13 38.1556C48.05 38.4456 48.48 40.0156 48.49 40.5456C48.6 48.1256 38.77 51.4056 34.36 45.2156C29.09 37.8156 38.74 28.9256 45.7 34.7456C46.03 35.0256 46.8 35.9756 47.11 36.0656C47.63 36.2256 48.16 35.7356 48.07 35.2056C47.96 34.5056 45.93 32.9856 45.29 32.6156C44.75 32.3156 44.16 32.1356 43.67 31.8356C42.48 31.5356 41.32 31.4356 40.08 31.4256C40.08 31.4256 40.08 31.4256 40.07 31.4256C36.7 31.6356 33.55 33.7956 32.18 36.9156C32.01 37.2956 31.67 38.6956 31.57 38.8356C31.55 38.8656 31.42 40.3956 31.42 40.3956V41.8056C31.42 45.6156 35.87 49.5856 39.52 49.9456C40.1 50.0056 41.28 50.0056 41.86 49.9456C47.19 49.4056 51.31 43.4456 49.68 38.2756L49.67 38.2856Z" fill="#C1D13F"/>
      <path d="M46.8 40.6956C46.8 44.0756 44.06 46.8156 40.68 46.8156C37.3 46.8156 34.56 44.0756 34.56 40.6956C34.56 37.3156 37.3 34.5756 40.68 34.5756C44.06 34.5756 46.8 37.3156 46.8 40.6956ZM45.28 40.6956C45.28 38.1556 43.22 36.0956 40.68 36.0956C38.14 36.0956 36.08 38.1556 36.08 40.6956C36.08 43.2356 38.14 45.2956 40.68 45.2956C43.22 45.2956 45.28 43.2356 45.28 40.6956Z" fill="#C1D13F"/>
      <path d="M39.9 39.9156V37.8156C39.9 37.3356 41.16 36.9056 41.42 37.7656C41.54 38.1456 41.51 40.0756 41.47 40.5556C41.43 41.0056 41.21 41.3956 40.73 41.4756C40.21 41.5556 38.53 41.5856 38.19 41.1956C37.3 40.1556 39.11 39.6856 39.9 39.9256V39.9156Z" fill="#C1D13F"/>
  </symbol>

  <symbol id="icono-calendarios-suscripsion" viewBox="0 0 240 27" fill="none">
    <path d="M2.8 27.0031C1.31 26.7331 0.14 25.5631 0 24.0231V4.51313C0.05 3.30313 1.57 1.69313 2.77 1.69313H6.86V0.453128C6.86 0.303128 7.16 0.0531278 7.32 0.0131278C7.63 -0.0468722 8.13 0.183128 8.13 0.503128V1.69313H17.28L17.36 1.61313V0.393128C17.36 0.163128 17.85 -0.0268722 18.07 0.00312776C18.31 0.0331278 18.63 0.323128 18.63 0.553128V1.68313H22.56C23.8 1.68313 25.35 3.35313 25.33 4.60313V24.1631C25.19 25.5031 23.92 26.8231 22.59 26.9931H2.8V27.0031ZM6.86 2.95313H3.19C2.34 2.95313 1.27 3.84313 1.27 4.72313V7.91313H24.05V4.67313C24.05 3.82313 22.94 2.96313 22.13 2.96313H18.62V4.83313C18.62 4.88313 18.49 5.12313 18.44 5.17313C18.26 5.39313 17.96 5.45313 17.69 5.34313C17.61 5.31313 17.36 5.05313 17.36 4.98313V3.03313L17.28 2.95313H8.13V4.87313C8.13 4.87313 8.01 5.14313 7.97 5.19313C7.79 5.41313 7.4 5.44313 7.16 5.31313C7.08 5.27313 6.86 4.99313 6.86 4.92313V2.94313V2.95313ZM24.05 9.17313H1.27V24.0731C1.27 24.8331 2.41 25.8131 3.19 25.7331H22.28C23.01 25.7131 24.05 24.8031 24.05 24.0731V9.17313Z" fill="#5C5B5B"/>
    <path d="M17.76 18.3631C18.22 18.2831 19.96 18.2931 20.43 18.3631C20.93 18.4331 21.16 18.8731 21.2 19.3331C21.24 19.7931 21.26 21.5931 21.11 21.9831C21.03 22.1731 20.85 22.3531 20.65 22.4231C20.35 22.5231 18.22 22.5131 17.8 22.4731C17.32 22.4231 17.08 22.0531 17.04 21.6031C16.98 21.0331 16.98 19.8031 17.04 19.2331C17.08 18.8331 17.33 18.4431 17.76 18.3731V18.3631ZM19.88 19.6231H18.35V21.2031H19.88V19.6231Z" fill="#C1D13F"/>
    <path d="M4.84001 18.3631C5.33001 18.2831 6.89001 18.3031 7.41001 18.3531C7.80001 18.3931 8.18001 18.6431 8.23001 19.0631C8.30001 19.6231 8.30001 21.2531 8.23001 21.8031C8.19001 22.1531 7.86001 22.4231 7.52001 22.4631C6.92001 22.5331 5.49001 22.5231 4.88001 22.4631C4.44001 22.4231 4.17001 22.0731 4.12001 21.6431C4.06001 21.0931 4.06001 19.7131 4.12001 19.1731C4.16001 18.8031 4.46001 18.4231 4.84001 18.3631ZM6.96001 19.6231H5.46001L5.38001 19.7031V21.2031H6.96001V19.6231Z" fill="#C1D13F"/>
    <path d="M4.89001 12.4131C5.37001 12.3431 6.97001 12.3431 7.46001 12.4131C7.82001 12.4631 8.19001 12.7431 8.23001 13.1231C8.30001 13.6831 8.30001 15.3131 8.23001 15.8631C8.19001 16.1931 7.90001 16.4831 7.57001 16.5231C7.01001 16.5931 5.38001 16.5931 4.83001 16.5231C4.43001 16.4731 4.16001 16.0831 4.12001 15.7031C4.06001 15.1531 4.06001 13.7731 4.12001 13.2331C4.17001 12.8231 4.48001 12.4831 4.89001 12.4231V12.4131ZM6.96001 13.6631H5.46001L5.38001 13.7431V15.2431H6.96001V13.6631Z" fill="#C1D13F"/>
    <path d="M17.87 12.4131C18.39 12.3331 19.85 12.3431 20.38 12.4131C20.91 12.4831 21.16 12.8331 21.21 13.3331C21.26 13.9331 21.27 15.1131 21.21 15.7031C21.17 16.0931 20.91 16.4731 20.5 16.5231C19.94 16.5931 18.31 16.5931 17.76 16.5231C17.46 16.4831 17.14 16.1631 17.1 15.8631C17.04 15.3531 17.03 13.5631 17.1 13.0731C17.16 12.7131 17.53 12.4731 17.88 12.4231L17.87 12.4131ZM19.94 15.2431V13.7431L19.86 13.6631H18.36V15.2431H19.94Z" fill="#C1D13F"/>
    <path d="M11.33 18.3631C11.8 18.2831 13.4 18.2931 13.9 18.3531C14.32 18.4031 14.67 18.6831 14.72 19.1131C14.79 19.6631 14.78 21.1431 14.72 21.7031C14.68 22.0731 14.39 22.4231 14.01 22.4731C13.46 22.5431 11.87 22.5431 11.32 22.4731C10.99 22.4331 10.65 22.0931 10.61 21.7631C10.55 21.2431 10.54 19.5831 10.61 19.0731C10.66 18.7131 10.98 18.4231 11.33 18.3731V18.3631ZM13.45 19.6231H11.87V21.2031H13.45V19.6231Z" fill="#C1D13F"/>
    <path d="M14.49 16.2831C14.35 16.4331 14.16 16.4931 13.96 16.5131C13.34 16.5631 11.92 16.5831 11.32 16.5131C10.91 16.4631 10.64 16.0931 10.61 15.6931C10.57 15.2731 10.55 13.2931 10.65 12.9931C10.77 12.6331 11.12 12.4331 11.48 12.4031C12.06 12.3431 13.16 12.3531 13.75 12.4031C14.23 12.4431 14.66 12.6431 14.72 13.1731C14.77 13.5431 14.77 15.7031 14.68 15.9831C14.66 16.0431 14.54 16.2431 14.49 16.2931V16.2831ZM13.45 13.6631H11.87V15.2431H13.45V13.6631Z" fill="#C1D13F"/>
    <path d="M41.665 18.03C41.665 18.66 41.51 19.21 41.2 19.68C40.89 20.15 40.44 20.515 39.85 20.775C39.27 21.025 38.56 21.15 37.72 21.15C37.35 21.15 36.985 21.125 36.625 21.075C36.275 21.025 35.935 20.955 35.605 20.865C35.285 20.765 34.98 20.645 34.69 20.505V18.39C35.2 18.61 35.725 18.815 36.265 19.005C36.815 19.185 37.36 19.275 37.9 19.275C38.27 19.275 38.565 19.225 38.785 19.125C39.015 19.025 39.18 18.89 39.28 18.72C39.39 18.55 39.445 18.355 39.445 18.135C39.445 17.865 39.35 17.635 39.16 17.445C38.98 17.255 38.735 17.08 38.425 16.92C38.115 16.75 37.76 16.57 37.36 16.38C37.11 16.26 36.84 16.12 36.55 15.96C36.26 15.79 35.98 15.585 35.71 15.345C35.45 15.095 35.235 14.795 35.065 14.445C34.895 14.095 34.81 13.675 34.81 13.185C34.81 12.545 34.955 12 35.245 11.55C35.545 11.09 35.965 10.74 36.505 10.5C37.055 10.26 37.7 10.14 38.44 10.14C39 10.14 39.53 10.205 40.03 10.335C40.54 10.465 41.07 10.65 41.62 10.89L40.885 12.66C40.395 12.46 39.955 12.305 39.565 12.195C39.175 12.085 38.775 12.03 38.365 12.03C38.085 12.03 37.845 12.075 37.645 12.165C37.445 12.255 37.29 12.38 37.18 12.54C37.08 12.7 37.03 12.89 37.03 13.11C37.03 13.36 37.105 13.575 37.255 13.755C37.405 13.925 37.63 14.09 37.93 14.25C38.23 14.41 38.605 14.6 39.055 14.82C39.605 15.08 40.07 15.35 40.45 15.63C40.84 15.91 41.14 16.24 41.35 16.62C41.56 17 41.665 17.47 41.665 18.03ZM50.9467 12.81V21H49.2367L48.9367 19.95H48.8167C48.6467 20.23 48.4267 20.46 48.1567 20.64C47.8967 20.81 47.6067 20.935 47.2867 21.015C46.9667 21.105 46.6367 21.15 46.2967 21.15C45.7167 21.15 45.2067 21.045 44.7667 20.835C44.3267 20.625 43.9867 20.3 43.7467 19.86C43.5067 19.42 43.3867 18.85 43.3867 18.15V12.81H45.6217V17.595C45.6217 18.175 45.7267 18.615 45.9367 18.915C46.1467 19.215 46.4817 19.365 46.9417 19.365C47.4017 19.365 47.7567 19.26 48.0067 19.05C48.2667 18.84 48.4467 18.535 48.5467 18.135C48.6567 17.735 48.7117 17.245 48.7117 16.665V12.81H50.9467ZM59.0051 18.57C59.0051 19.12 58.8751 19.59 58.6151 19.98C58.3551 20.36 57.9651 20.65 57.4451 20.85C56.9251 21.05 56.2801 21.15 55.5101 21.15C54.9401 21.15 54.4501 21.11 54.0401 21.03C53.6301 20.96 53.2201 20.84 52.8101 20.67V18.825C53.2501 19.025 53.7251 19.19 54.2351 19.32C54.7451 19.45 55.1951 19.515 55.5851 19.515C56.0251 19.515 56.3351 19.45 56.5151 19.32C56.7051 19.19 56.8001 19.02 56.8001 18.81C56.8001 18.67 56.7601 18.545 56.6801 18.435C56.6101 18.325 56.4501 18.2 56.2001 18.06C55.9501 17.92 55.5601 17.74 55.0301 17.52C54.5201 17.3 54.1001 17.085 53.7701 16.875C53.4401 16.655 53.1951 16.395 53.0351 16.095C52.8751 15.785 52.7951 15.4 52.7951 14.94C52.7951 14.18 53.0901 13.61 53.6801 13.23C54.2701 12.85 55.0551 12.66 56.0351 12.66C56.5451 12.66 57.0301 12.71 57.4901 12.81C57.9501 12.91 58.4251 13.075 58.9151 13.305L58.2401 14.91C57.8401 14.74 57.4601 14.6 57.1001 14.49C56.7401 14.37 56.3751 14.31 56.0051 14.31C55.6751 14.31 55.4251 14.355 55.2551 14.445C55.0951 14.535 55.0151 14.67 55.0151 14.85C55.0151 14.98 55.0551 15.1 55.1351 15.21C55.2251 15.31 55.3901 15.42 55.6301 15.54C55.8801 15.66 56.2451 15.82 56.7251 16.02C57.1951 16.21 57.6001 16.41 57.9401 16.62C58.2801 16.82 58.5401 17.075 58.7201 17.385C58.9101 17.685 59.0051 18.08 59.0051 18.57ZM64.0762 21.15C63.2662 21.15 62.5762 21.005 62.0062 20.715C61.4362 20.415 61.0012 19.955 60.7012 19.335C60.4012 18.715 60.2512 17.92 60.2512 16.95C60.2512 15.95 60.4212 15.135 60.7612 14.505C61.1012 13.875 61.5712 13.41 62.1712 13.11C62.7812 12.81 63.4812 12.66 64.2712 12.66C64.8312 12.66 65.3162 12.715 65.7262 12.825C66.1462 12.935 66.5112 13.065 66.8212 13.215L66.1612 14.94C65.8112 14.8 65.4812 14.685 65.1712 14.595C64.8712 14.505 64.5712 14.46 64.2712 14.46C63.8812 14.46 63.5562 14.555 63.2962 14.745C63.0362 14.925 62.8412 15.2 62.7112 15.57C62.5912 15.93 62.5312 16.385 62.5312 16.935C62.5312 17.475 62.5962 17.925 62.7262 18.285C62.8662 18.635 63.0662 18.9 63.3262 19.08C63.5862 19.25 63.9012 19.335 64.2712 19.335C64.7412 19.335 65.1562 19.275 65.5162 19.155C65.8762 19.025 66.2262 18.85 66.5662 18.63V20.535C66.2262 20.755 65.8662 20.91 65.4862 21C65.1162 21.1 64.6462 21.15 64.0762 21.15ZM73.0263 12.66C73.1363 12.66 73.2663 12.665 73.4163 12.675C73.5663 12.685 73.6863 12.7 73.7763 12.72L73.6113 14.82C73.5413 14.8 73.4363 14.785 73.2963 14.775C73.1663 14.755 73.0513 14.745 72.9513 14.745C72.6613 14.745 72.3813 14.785 72.1113 14.865C71.8413 14.935 71.5963 15.05 71.3763 15.21C71.1663 15.37 70.9963 15.585 70.8663 15.855C70.7463 16.115 70.6863 16.44 70.6863 16.83V21H68.4513V12.81H70.1463L70.4763 14.19H70.5813C70.7413 13.91 70.9413 13.655 71.1813 13.425C71.4213 13.195 71.6963 13.01 72.0063 12.87C72.3263 12.73 72.6663 12.66 73.0263 12.66ZM77.4978 12.81V21H75.2628V12.81H77.4978ZM76.3878 9.6C76.7178 9.6 77.0028 9.68 77.2428 9.84C77.4828 9.99 77.6028 10.275 77.6028 10.695C77.6028 11.105 77.4828 11.39 77.2428 11.55C77.0028 11.71 76.7178 11.79 76.3878 11.79C76.0478 11.79 75.7578 11.71 75.5178 11.55C75.2878 11.39 75.1728 11.105 75.1728 10.695C75.1728 10.275 75.2878 9.99 75.5178 9.84C75.7578 9.68 76.0478 9.6 76.3878 9.6ZM82.0681 12.255C82.0681 12.565 82.0581 12.87 82.0381 13.17C82.0181 13.47 81.9981 13.705 81.9781 13.875H82.0681C82.2881 13.535 82.5831 13.25 82.9531 13.02C83.3231 12.78 83.8031 12.66 84.3931 12.66C85.3131 12.66 86.0581 13.02 86.6281 13.74C87.1981 14.45 87.4831 15.5 87.4831 16.89C87.4831 17.82 87.3481 18.605 87.0781 19.245C86.8181 19.875 86.4531 20.35 85.9831 20.67C85.5131 20.99 84.9631 21.15 84.3331 21.15C83.7331 21.15 83.2581 21.045 82.9081 20.835C82.5681 20.615 82.2881 20.37 82.0681 20.1H81.9181L81.5431 21H79.8331V9.6H82.0681V12.255ZM83.6731 14.445C83.2831 14.445 82.9731 14.525 82.7431 14.685C82.5131 14.845 82.3431 15.09 82.2331 15.42C82.1331 15.74 82.0781 16.145 82.0681 16.635V16.875C82.0681 17.665 82.1831 18.275 82.4131 18.705C82.6531 19.125 83.0831 19.335 83.7031 19.335C84.1631 19.335 84.5281 19.125 84.7981 18.705C85.0681 18.275 85.2031 17.66 85.2031 16.86C85.2031 16.06 85.0631 15.46 84.7831 15.06C84.5131 14.65 84.1431 14.445 83.6731 14.445ZM91.5603 12.81V21H89.3253V12.81H91.5603ZM90.4503 9.6C90.7803 9.6 91.0653 9.68 91.3053 9.84C91.5453 9.99 91.6653 10.275 91.6653 10.695C91.6653 11.105 91.5453 11.39 91.3053 11.55C91.0653 11.71 90.7803 11.79 90.4503 11.79C90.1103 11.79 89.8203 11.71 89.5803 11.55C89.3503 11.39 89.2353 11.105 89.2353 10.695C89.2353 10.275 89.3503 9.99 89.5803 9.84C89.8203 9.68 90.1103 9.6 90.4503 9.6ZM98.4706 12.66C98.5806 12.66 98.7106 12.665 98.8606 12.675C99.0106 12.685 99.1306 12.7 99.2206 12.72L99.0556 14.82C98.9856 14.8 98.8806 14.785 98.7406 14.775C98.6106 14.755 98.4956 14.745 98.3956 14.745C98.1056 14.745 97.8256 14.785 97.5556 14.865C97.2856 14.935 97.0406 15.05 96.8206 15.21C96.6106 15.37 96.4406 15.585 96.3106 15.855C96.1906 16.115 96.1306 16.44 96.1306 16.83V21H93.8956V12.81H95.5906L95.9206 14.19H96.0256C96.1856 13.91 96.3856 13.655 96.6256 13.425C96.8656 13.195 97.1406 13.01 97.4506 12.87C97.7706 12.73 98.1106 12.66 98.4706 12.66ZM106.422 18.57C106.422 19.12 106.292 19.59 106.032 19.98C105.772 20.36 105.382 20.65 104.862 20.85C104.342 21.05 103.697 21.15 102.927 21.15C102.357 21.15 101.867 21.11 101.457 21.03C101.047 20.96 100.637 20.84 100.227 20.67V18.825C100.667 19.025 101.142 19.19 101.652 19.32C102.162 19.45 102.612 19.515 103.002 19.515C103.442 19.515 103.752 19.45 103.932 19.32C104.122 19.19 104.217 19.02 104.217 18.81C104.217 18.67 104.177 18.545 104.097 18.435C104.027 18.325 103.867 18.2 103.617 18.06C103.367 17.92 102.977 17.74 102.447 17.52C101.937 17.3 101.517 17.085 101.187 16.875C100.857 16.655 100.612 16.395 100.452 16.095C100.292 15.785 100.212 15.4 100.212 14.94C100.212 14.18 100.507 13.61 101.097 13.23C101.687 12.85 102.472 12.66 103.452 12.66C103.962 12.66 104.447 12.71 104.907 12.81C105.367 12.91 105.842 13.075 106.332 13.305L105.657 14.91C105.257 14.74 104.877 14.6 104.517 14.49C104.157 14.37 103.792 14.31 103.422 14.31C103.092 14.31 102.842 14.355 102.672 14.445C102.512 14.535 102.432 14.67 102.432 14.85C102.432 14.98 102.472 15.1 102.552 15.21C102.642 15.31 102.807 15.42 103.047 15.54C103.297 15.66 103.662 15.82 104.142 16.02C104.612 16.21 105.017 16.41 105.357 16.62C105.697 16.82 105.957 17.075 106.137 17.385C106.327 17.685 106.422 18.08 106.422 18.57ZM111.538 12.66C112.298 12.66 112.948 12.805 113.488 13.095C114.038 13.385 114.463 13.805 114.763 14.355C115.063 14.905 115.213 15.58 115.213 16.38V17.46H109.933C109.953 18.09 110.138 18.585 110.488 18.945C110.848 19.305 111.343 19.485 111.973 19.485C112.503 19.485 112.983 19.435 113.413 19.335C113.843 19.225 114.288 19.06 114.748 18.84V20.565C114.348 20.765 113.923 20.91 113.473 21C113.033 21.1 112.498 21.15 111.868 21.15C111.048 21.15 110.323 21 109.693 20.7C109.063 20.39 108.568 19.925 108.208 19.305C107.848 18.685 107.668 17.905 107.668 16.965C107.668 16.005 107.828 15.21 108.148 14.58C108.478 13.94 108.933 13.46 109.513 13.14C110.093 12.82 110.768 12.66 111.538 12.66ZM111.553 14.25C111.123 14.25 110.763 14.39 110.473 14.67C110.193 14.95 110.028 15.385 109.978 15.975H113.113C113.113 15.645 113.053 15.35 112.933 15.09C112.823 14.83 112.653 14.625 112.423 14.475C112.193 14.325 111.903 14.25 111.553 14.25ZM124.282 12.645C125.382 12.645 126.222 12.885 126.802 13.365C127.392 13.835 127.687 14.56 127.687 15.54V21H126.127L125.692 19.89H125.632C125.402 20.18 125.162 20.42 124.912 20.61C124.672 20.8 124.392 20.935 124.072 21.015C123.762 21.105 123.377 21.15 122.917 21.15C122.437 21.15 122.002 21.06 121.612 20.88C121.232 20.69 120.932 20.405 120.712 20.025C120.492 19.635 120.382 19.145 120.382 18.555C120.382 17.685 120.687 17.045 121.297 16.635C121.907 16.215 122.822 15.985 124.042 15.945L125.467 15.9V15.54C125.467 15.11 125.352 14.795 125.122 14.595C124.902 14.395 124.592 14.295 124.192 14.295C123.792 14.295 123.402 14.355 123.022 14.475C122.642 14.585 122.262 14.725 121.882 14.895L121.147 13.38C121.587 13.15 122.072 12.97 122.602 12.84C123.142 12.71 123.702 12.645 124.282 12.645ZM124.597 17.235C123.877 17.255 123.377 17.385 123.097 17.625C122.817 17.865 122.677 18.18 122.677 18.57C122.677 18.91 122.777 19.155 122.977 19.305C123.177 19.445 123.437 19.515 123.757 19.515C124.237 19.515 124.642 19.375 124.972 19.095C125.302 18.805 125.467 18.4 125.467 17.88V17.205L124.597 17.235ZM132.21 21H129.975V9.6H132.21V21ZM141.771 21.15C140.961 21.15 140.271 21.005 139.701 20.715C139.131 20.415 138.696 19.955 138.396 19.335C138.096 18.715 137.946 17.92 137.946 16.95C137.946 15.95 138.116 15.135 138.456 14.505C138.796 13.875 139.266 13.41 139.866 13.11C140.476 12.81 141.176 12.66 141.966 12.66C142.526 12.66 143.011 12.715 143.421 12.825C143.841 12.935 144.206 13.065 144.516 13.215L143.856 14.94C143.506 14.8 143.176 14.685 142.866 14.595C142.566 14.505 142.266 14.46 141.966 14.46C141.576 14.46 141.251 14.555 140.991 14.745C140.731 14.925 140.536 15.2 140.406 15.57C140.286 15.93 140.226 16.385 140.226 16.935C140.226 17.475 140.291 17.925 140.421 18.285C140.561 18.635 140.761 18.9 141.021 19.08C141.281 19.25 141.596 19.335 141.966 19.335C142.436 19.335 142.851 19.275 143.211 19.155C143.571 19.025 143.921 18.85 144.261 18.63V20.535C143.921 20.755 143.561 20.91 143.181 21C142.811 21.1 142.341 21.15 141.771 21.15ZM149.507 12.645C150.607 12.645 151.447 12.885 152.027 13.365C152.617 13.835 152.912 14.56 152.912 15.54V21H151.352L150.917 19.89H150.857C150.627 20.18 150.387 20.42 150.137 20.61C149.897 20.8 149.617 20.935 149.297 21.015C148.987 21.105 148.602 21.15 148.142 21.15C147.662 21.15 147.227 21.06 146.837 20.88C146.457 20.69 146.157 20.405 145.937 20.025C145.717 19.635 145.607 19.145 145.607 18.555C145.607 17.685 145.912 17.045 146.522 16.635C147.132 16.215 148.047 15.985 149.267 15.945L150.692 15.9V15.54C150.692 15.11 150.577 14.795 150.347 14.595C150.127 14.395 149.817 14.295 149.417 14.295C149.017 14.295 148.627 14.355 148.247 14.475C147.867 14.585 147.487 14.725 147.107 14.895L146.372 13.38C146.812 13.15 147.297 12.97 147.827 12.84C148.367 12.71 148.927 12.645 149.507 12.645ZM149.822 17.235C149.102 17.255 148.602 17.385 148.322 17.625C148.042 17.865 147.902 18.18 147.902 18.57C147.902 18.91 148.002 19.155 148.202 19.305C148.402 19.445 148.662 19.515 148.982 19.515C149.462 19.515 149.867 19.375 150.197 19.095C150.527 18.805 150.692 18.4 150.692 17.88V17.205L149.822 17.235ZM157.434 21H155.199V9.6H157.434V21ZM163.145 12.66C163.905 12.66 164.555 12.805 165.095 13.095C165.645 13.385 166.07 13.805 166.37 14.355C166.67 14.905 166.82 15.58 166.82 16.38V17.46H161.54C161.56 18.09 161.745 18.585 162.095 18.945C162.455 19.305 162.95 19.485 163.58 19.485C164.11 19.485 164.59 19.435 165.02 19.335C165.45 19.225 165.895 19.06 166.355 18.84V20.565C165.955 20.765 165.53 20.91 165.08 21C164.64 21.1 164.105 21.15 163.475 21.15C162.655 21.15 161.93 21 161.3 20.7C160.67 20.39 160.175 19.925 159.815 19.305C159.455 18.685 159.275 17.905 159.275 16.965C159.275 16.005 159.435 15.21 159.755 14.58C160.085 13.94 160.54 13.46 161.12 13.14C161.7 12.82 162.375 12.66 163.145 12.66ZM163.16 14.25C162.73 14.25 162.37 14.39 162.08 14.67C161.8 14.95 161.635 15.385 161.585 15.975H164.72C164.72 15.645 164.66 15.35 164.54 15.09C164.43 14.83 164.26 14.625 164.03 14.475C163.8 14.325 163.51 14.25 163.16 14.25ZM173.282 12.66C174.162 12.66 174.867 12.9 175.397 13.38C175.927 13.85 176.192 14.61 176.192 15.66V21H173.957V16.215C173.957 15.625 173.852 15.185 173.642 14.895C173.432 14.595 173.097 14.445 172.637 14.445C171.957 14.445 171.492 14.68 171.242 15.15C170.992 15.61 170.867 16.275 170.867 17.145V21H168.632V12.81H170.342L170.642 13.86H170.762C170.942 13.58 171.162 13.355 171.422 13.185C171.682 13.005 171.972 12.875 172.292 12.795C172.612 12.705 172.942 12.66 173.282 12.66ZM181.085 21.15C180.175 21.15 179.43 20.795 178.85 20.085C178.28 19.365 177.995 18.31 177.995 16.92C177.995 15.52 178.285 14.46 178.865 13.74C179.445 13.02 180.205 12.66 181.145 12.66C181.535 12.66 181.88 12.715 182.18 12.825C182.48 12.925 182.735 13.065 182.945 13.245C183.165 13.425 183.35 13.63 183.5 13.86H183.575C183.545 13.7 183.51 13.47 183.47 13.17C183.43 12.86 183.41 12.545 183.41 12.225V9.6H185.645V21H183.935L183.5 19.935H183.41C183.27 20.155 183.09 20.36 182.87 20.55C182.66 20.73 182.41 20.875 182.12 20.985C181.83 21.095 181.485 21.15 181.085 21.15ZM181.865 19.365C182.485 19.365 182.92 19.185 183.17 18.825C183.42 18.455 183.55 17.905 183.56 17.175V16.935C183.56 16.135 183.435 15.525 183.185 15.105C182.945 14.685 182.495 14.475 181.835 14.475C181.345 14.475 180.96 14.69 180.68 15.12C180.4 15.54 180.26 16.15 180.26 16.95C180.26 17.75 180.4 18.355 180.68 18.765C180.96 19.165 181.355 19.365 181.865 19.365ZM191.343 12.645C192.443 12.645 193.283 12.885 193.863 13.365C194.453 13.835 194.748 14.56 194.748 15.54V21H193.188L192.753 19.89H192.693C192.463 20.18 192.223 20.42 191.973 20.61C191.733 20.8 191.453 20.935 191.133 21.015C190.823 21.105 190.438 21.15 189.978 21.15C189.498 21.15 189.063 21.06 188.673 20.88C188.293 20.69 187.993 20.405 187.773 20.025C187.553 19.635 187.443 19.145 187.443 18.555C187.443 17.685 187.748 17.045 188.358 16.635C188.968 16.215 189.883 15.985 191.103 15.945L192.528 15.9V15.54C192.528 15.11 192.413 14.795 192.183 14.595C191.963 14.395 191.653 14.295 191.253 14.295C190.853 14.295 190.463 14.355 190.083 14.475C189.703 14.585 189.323 14.725 188.943 14.895L188.208 13.38C188.648 13.15 189.133 12.97 189.663 12.84C190.203 12.71 190.763 12.645 191.343 12.645ZM191.658 17.235C190.938 17.255 190.438 17.385 190.158 17.625C189.878 17.865 189.738 18.18 189.738 18.57C189.738 18.91 189.838 19.155 190.038 19.305C190.238 19.445 190.498 19.515 190.818 19.515C191.298 19.515 191.703 19.375 192.033 19.095C192.363 18.805 192.528 18.4 192.528 17.88V17.205L191.658 17.235ZM201.61 12.66C201.72 12.66 201.85 12.665 202 12.675C202.15 12.685 202.27 12.7 202.36 12.72L202.195 14.82C202.125 14.8 202.02 14.785 201.88 14.775C201.75 14.755 201.635 14.745 201.535 14.745C201.245 14.745 200.965 14.785 200.695 14.865C200.425 14.935 200.18 15.05 199.96 15.21C199.75 15.37 199.58 15.585 199.45 15.855C199.33 16.115 199.27 16.44 199.27 16.83V21H197.035V12.81H198.73L199.06 14.19H199.165C199.325 13.91 199.525 13.655 199.765 13.425C200.005 13.195 200.28 13.01 200.59 12.87C200.91 12.73 201.25 12.66 201.61 12.66ZM206.082 12.81V21H203.847V12.81H206.082ZM204.972 9.6C205.302 9.6 205.587 9.68 205.827 9.84C206.067 9.99 206.187 10.275 206.187 10.695C206.187 11.105 206.067 11.39 205.827 11.55C205.587 11.71 205.302 11.79 204.972 11.79C204.632 11.79 204.342 11.71 204.102 11.55C203.872 11.39 203.757 11.105 203.757 10.695C203.757 10.275 203.872 9.99 204.102 9.84C204.342 9.68 204.632 9.6 204.972 9.6ZM215.857 16.89C215.857 17.57 215.762 18.175 215.572 18.705C215.392 19.235 215.127 19.685 214.777 20.055C214.437 20.415 214.022 20.69 213.532 20.88C213.042 21.06 212.487 21.15 211.867 21.15C211.297 21.15 210.767 21.06 210.277 20.88C209.797 20.69 209.382 20.415 209.032 20.055C208.682 19.685 208.407 19.235 208.207 18.705C208.017 18.175 207.922 17.57 207.922 16.89C207.922 15.98 208.082 15.215 208.402 14.595C208.722 13.965 209.182 13.485 209.782 13.155C210.382 12.825 211.092 12.66 211.912 12.66C212.682 12.66 213.362 12.825 213.952 13.155C214.542 13.485 215.007 13.965 215.347 14.595C215.687 15.215 215.857 15.98 215.857 16.89ZM210.202 16.89C210.202 17.43 210.257 17.885 210.367 18.255C210.487 18.615 210.672 18.89 210.922 19.08C211.172 19.26 211.497 19.35 211.897 19.35C212.297 19.35 212.617 19.26 212.857 19.08C213.107 18.89 213.287 18.615 213.397 18.255C213.517 17.885 213.577 17.43 213.577 16.89C213.577 16.35 213.517 15.9 213.397 15.54C213.287 15.18 213.107 14.91 212.857 14.73C212.607 14.55 212.282 14.46 211.882 14.46C211.292 14.46 210.862 14.665 210.592 15.075C210.332 15.475 210.202 16.08 210.202 16.89Z" fill="#5C5B5B"/>
    <path d="M239 13.2605L231.624 21L224 13" stroke="#5C5B5B" stroke-width="2" stroke-linecap="round" stroke-linejoin="round"/>    
  </symbol>


</svg>