<svg xmlns="http://www.w3.org/2000/svg" xmlns:xlink="http://www.w3.org/1999/xlink" style="display:none">

  <symbol id="facebook" viewBox="0 0 24 24" fill="none" >
    <path d="M14 13.5H16.5L17.5 9.5H14V7.5C14 6.47 14 5.5 16 5.5H17.5V2.14C17.174 2.097 15.943 2 14.643 2C11.928 2 10 3.657 10 6.7V9.5H7V13.5H10V22H14V13.5Z" fill="currentColor"/>
  </symbol>

  <symbol id="x" viewBox="0 0 24 24" fill="none" >
    <path d="M1 2H3.5L18.5 22H16L1 2ZM5.5 2H8L23 22H20.5L5.5 2Z" fill="currentColor"/>
    <path d="M3 2H8V4H3V2ZM16 22H21V20H16V22Z" fill="currentColor"/>
    <path d="M18.5 2H22L5 22H1.5L18.5 2Z" fill="currentColor"/>
  </symbol>

  <symbol id="whatsapp" viewBox="0 0 24 24" fill="none" >
    <path d="M12 2C17.523 2 22 6.477 22 12C22 17.523 17.523 22 12 22C10.298 22.0024 8.62372 21.5686 7.13701 20.74L6.83201 20.562L3.80001 21.454C3.63501 21.5026 3.46033 21.5083 3.29252 21.4705C3.12472 21.4327 2.96935 21.3526 2.84115 21.238C2.71294 21.1233 2.61615 20.9778 2.55995 20.8152C2.50375 20.6526 2.49 20.4784 2.52001 20.309L2.54601 20.2L3.43801 17.168C2.49506 15.6093 1.99769 13.8218 2.00001 12C2.00001 6.477 6.47701 2 12 2ZM12 4C10.5676 3.99974 9.16146 4.38406 7.92834 5.11281C6.69521 5.84157 5.68036 6.88804 4.98977 8.14294C4.29918 9.39784 3.95817 10.8151 4.00237 12.2468C4.04656 13.6785 4.47433 15.0721 5.24101 16.282C5.43901 16.594 5.52401 16.978 5.45701 17.359L5.41801 17.522L4.97701 19.023L6.47801 18.582C6.91101 18.454 7.36101 18.532 7.71801 18.759C8.76634 19.4228 9.9547 19.8336 11.1892 19.959C12.4236 20.0844 13.6703 19.921 14.8307 19.4816C15.9911 19.0422 17.0334 18.3389 17.8752 17.4273C18.717 16.5157 19.3352 15.4208 19.6809 14.2291C20.0266 13.0374 20.0904 11.7817 19.8673 10.5611C19.6441 9.34053 19.14 8.1886 18.395 7.19638C17.65 6.20415 16.6843 5.39883 15.5744 4.84408C14.4645 4.28933 13.2408 4.00036 12 4ZM9.10201 7.184C9.21283 7.13654 9.33403 7.11851 9.45386 7.13165C9.57369 7.14479 9.68811 7.18866 9.78601 7.259C10.29 7.627 10.69 8.121 11.034 8.603L11.361 9.077L11.514 9.302C11.6026 9.43096 11.6461 9.58557 11.6378 9.74182C11.6295 9.89806 11.5698 10.0472 11.468 10.166L11.393 10.242L10.469 10.928C10.425 10.9606 10.3941 11.0078 10.3819 11.0611C10.3696 11.1145 10.3767 11.1705 10.402 11.219C10.612 11.599 10.983 12.166 11.409 12.592C11.836 13.018 12.429 13.414 12.835 13.647C12.923 13.697 13.029 13.681 13.101 13.616L13.139 13.571L13.74 12.656C13.8502 12.5088 14.0131 12.4101 14.1946 12.3806C14.3761 12.3512 14.5619 12.3932 14.713 12.498L15.256 12.877C15.796 13.262 16.315 13.676 16.726 14.201C16.8021 14.2997 16.8504 14.4168 16.866 14.5404C16.8817 14.664 16.8641 14.7895 16.815 14.904C16.419 15.828 15.416 16.615 14.374 16.577L14.215 16.567L14.024 16.549L13.916 16.535L13.678 16.495C12.754 16.321 11.273 15.797 9.73801 14.263C8.20401 12.728 7.68001 11.247 7.50601 10.323L7.46601 10.085L7.44101 9.877L7.42801 9.702L7.42401 9.627C7.38601 8.583 8.17701 7.58 9.10201 7.184Z" fill="currentColor"/>
  </symbol>
  
  <symbol id="copy" viewBox="0 0 24 24" fill="none" >
    <path d="M6.6001 5.66715V4.35C6.6001 3.99196 6.74233 3.64858 6.9955 3.39541C7.24868 3.14223 7.59206 3 7.9501 3H19.6501C20.0081 3 20.3515 3.14223 20.6047 3.39541C20.8579 3.64858 21.0001 3.99196 21.0001 4.35V16.05C21.0001 16.408 20.8579 16.7514 20.6047 17.0046C20.3515 17.2578 20.0081 17.4 19.6501 17.4H18.3077" stroke="currentColor" stroke-width="2"/>
    <path d="M16.95 5.7002H4.35C3.60442 5.7002 3 6.30461 3 7.0502V19.6502C3 20.3958 3.60442 21.0002 4.35 21.0002H16.95C17.6956 21.0002 18.3 20.3958 18.3 19.6502V7.0502C18.3 6.30461 17.6956 5.7002 16.95 5.7002Z" stroke="currentColor" stroke-width="2" stroke-linejoin="round"/>
    <path d="M9.49797 11.5997L11.8794 9.12023C12.5323 8.46728 13.606 8.48123 14.277 9.15263C14.9479 9.82403 14.9623 10.8973 14.3094 11.5502L13.4499 12.4606M7.25967 14.1364C7.03017 14.3659 6.55542 14.8249 6.55542 14.8249C5.90202 15.4778 5.88402 16.642 6.55542 17.3134C7.22592 17.9839 8.29962 17.9987 8.95302 17.3453L11.2768 15.2357" stroke="currentColor" stroke-width="2" stroke-linecap="round" stroke-linejoin="round"/>
    <path d="M9.59823 13.9474C9.2992 13.6505 9.11832 13.255 9.08928 12.8346C9.07219 12.5987 9.10594 12.362 9.18823 12.1404C9.27052 11.9187 9.39944 11.7173 9.56628 11.5498M11.2443 12.8373C11.9153 13.5082 11.9297 14.5819 11.2767 15.2353" stroke="currentColor" stroke-width="2" stroke-linecap="round" stroke-linejoin="round"/>
  </symbol>
  

</svg>
