<svg xmlns="http://www.w3.org/2000/svg" xmlns:xlink="http://www.w3.org/1999/xlink" style="display:none">

  <symbol id="logo" iewBox="0 0 280 193" fill="none">
    <path d="M22.34 23H266.65V133.75C266.65 145.53 257.09 155.09 245.31 155.09H1.00004V44.34C1.00004 32.56 10.56 23 22.34 23Z" fill="black"/>
    <path d="M279.56 0.660004H0.310039V156.83H279.56V0.660004Z" fill="#B396C2"/>
    <path d="M199.7 157.29C188.86 123.07 144.67 131.76 123.16 136.67C109.44 139.8 109.56 127.19 107.28 116.57C118.24 111.48 127.36 107.46 138.65 114.22C154.86 123.92 157.74 133.14 190.9 129.19C190.9 129.19 229.4 122.64 233.49 157.29H199.69" fill="url(#paint0_linear_12003_6)"/>
    <path d="M60.66 77.49C57.32 90.56 38.36 110.76 44.82 117.86C46.69 119.92 49.55 120.1 53.06 119.19C51.47 116.69 50.99 113.78 51.09 110.93C51.52 99.25 66.18 82.75 60.66 77.48V77.49Z" fill="url(#paint1_linear_12003_6)"/>
    <path d="M123.16 136.66C109.44 139.79 109.56 127.18 107.28 116.56C105.92 110.22 103.71 104.58 97.18 103.44C83.75 101.08 64.78 116.19 53.06 119.2C49.55 120.1 46.69 119.92 44.82 117.87C38.36 110.77 57.32 90.57 60.66 77.5C61.52 74.14 61.34 71.24 59.43 69.17C55.54 64.94 46.44 60.65 22.09 79.72C14.56 85.62 9.09004 86.86 5.14004 85.76C6.88004 87.17 8.99004 87.91 11.54 87.43C22.13 85.47 35.37 70.25 46.51 78.01C46.9 78.28 47.28 78.58 47.67 78.91C57.54 87.37 25.75 115.53 40.77 127.62C47.29 132.87 54.97 130.22 62.82 125.29C77.08 116.33 91.88 99.83 101.25 109.34C103.48 111.6 104.84 114.33 105.79 117.28C108.75 126.47 107.7 137.75 116.54 143.46C133.62 154.49 158.96 128.42 172.6 157.25L199.72 157.31C188.88 123.09 144.69 131.78 123.18 136.69L123.16 136.66Z" fill="url(#paint2_linear_12003_6)"/>
    <path d="M116.53 143.43C107.69 137.72 108.74 126.44 105.78 117.25C104.83 114.31 103.47 111.58 101.24 109.31C91.87 99.8 77.07 116.3 62.81 125.26C54.96 130.19 47.28 132.84 40.76 127.59C25.74 115.5 57.53 87.34 47.66 78.88C47.28 78.55 46.89 78.26 46.5 77.98C35.37 70.22 22.12 85.44 11.53 87.4C8.98004 87.87 6.87004 87.13 5.13004 85.73C3.00004 84 1.42004 81.26 0.290039 78.5V156.82L172.57 157.22C158.93 128.39 133.59 154.46 116.51 143.43H116.53Z" fill="url(#paint3_linear_12003_6)"/>
    <path d="M35.49 138.27H25.98V144.29H35.49V138.27Z" fill="#6D5183"/>
    <path d="M164.93 79.74C176.224 79.74 185.38 70.7275 185.38 59.61C185.38 48.4925 176.224 39.48 164.93 39.48C153.636 39.48 144.48 48.4925 144.48 59.61C144.48 70.7275 153.636 79.74 164.93 79.74Z" fill="#6D5183"/>
    <path d="M125.63 42.53H116.82L48.63 115.23V138.27H39.83V144.29H55.77V116.88L89.71 80.76L141.97 155.09H149.46L93.99 76.2L125.63 42.53Z" fill="#6D5183"/>
    <path d="M55.86 42.53H49.98V81.23H55.86V42.53Z" fill="#6D5183"/>
    <path d="M173.41 90.23L173.66 113.62L179.3 113.58L179.05 90.19L173.41 90.23Z" fill="#6D5183"/>
    <path d="M173.54 139.23H152.25V144.32H179.18V132.8H173.54V139.23Z" fill="#6D5183"/>
    <path d="M179.18 119.04H173.54V127.35H179.18V119.04Z" fill="#6D5183"/>
    <path d="M241.84 38.91L236.12 42.26V54.11H241.84V38.91Z" fill="#6D5183"/>
    <path d="M257.25 123.96C253.59 125.18 249.43 125.22 247.4 125.22C245.14 125.22 243.55 124.42 242.65 122.83C242.23 122.1 241.97 120.84 241.84 119.04V90.09H256.91V69.16H251.32V85.64H241.84V58.18H235.66V85.64H204.24V90.09H214.08V116.32C214.08 124.65 214.86 130.68 216.42 134.41C217.98 138.13 220.39 140.91 223.65 142.73C226.91 144.56 231.97 145.47 238.85 145.47C242.47 145.47 246.26 145.18 250.23 144.6C254.59 143.96 257.66 139.99 257.21 135.61L257.25 123.95V123.96Z" fill="#6D5183"/>
    <path d="M50.23 36.13V75.09L82.42 36.13H123.3L87 75.05L144.18 156.43H106.33L66.1 96.84L50.22 114.08V139.24H19.49V43.59C19.49 39.47 22.83 36.13 26.95 36.13H50.23Z" fill="white"/>
    <path d="M145.92 85.65H173.53V139.23H145.92V85.65Z" fill="white"/>
    <path d="M236.12 36.13V64.54H251.32V85.5H236.12V111.96C236.12 115.14 236.41 117.25 237 118.28C237.9 119.87 239.49 120.67 241.75 120.67C243.79 120.67 247.94 120.63 251.6 119.41L251.56 131.07C252.01 135.45 248.94 139.43 244.58 140.06C240.62 140.64 236.83 140.93 233.2 140.93C226.32 140.93 221.26 140.02 218 138.19C214.74 136.36 212.33 133.59 210.77 129.87C209.21 126.15 208.43 120.12 208.43 111.78V85.51H198.25V64.55H208.43V50.84L236.11 36.14L236.12 36.13Z" fill="white"/>
    <path d="M159.73 77.03C171.024 77.03 180.18 67.8742 180.18 56.58C180.18 45.2858 171.024 36.13 159.73 36.13C148.436 36.13 139.28 45.2858 139.28 56.58C139.28 67.8742 148.436 77.03 159.73 77.03Z" fill="white"/>
    <path d="M50.72 166.21V187.36H49.32V183.85C48.73 185.01 47.9 185.9 46.84 186.53C45.78 187.16 44.57 187.47 43.22 187.47C41.87 187.47 40.58 187.15 39.46 186.5C38.34 185.85 37.46 184.96 36.82 183.82C36.18 182.68 35.87 181.38 35.87 179.92C35.87 178.46 36.19 177.15 36.82 176C37.46 174.85 38.33 173.96 39.46 173.32C40.58 172.68 41.83 172.37 43.22 172.37C44.61 172.37 45.74 172.68 46.8 173.31C47.85 173.94 48.69 174.81 49.29 175.93V166.21H50.72ZM46.37 185.39C47.27 184.86 47.98 184.12 48.51 183.17C49.03 182.22 49.29 181.14 49.29 179.92C49.29 178.7 49.03 177.62 48.51 176.67C47.99 175.72 47.27 174.98 46.37 174.45C45.47 173.92 44.45 173.65 43.31 173.65C42.17 173.65 41.15 173.92 40.25 174.45C39.35 174.98 38.63 175.72 38.11 176.67C37.59 177.62 37.33 178.7 37.33 179.92C37.33 181.14 37.59 182.22 38.11 183.17C38.63 184.12 39.34 184.86 40.25 185.39C41.15 185.92 42.17 186.19 43.31 186.19C44.45 186.19 45.47 185.92 46.37 185.39Z" fill="#6D5183"/>
    <path d="M56.5 180.26C56.54 181.42 56.83 182.45 57.38 183.35C57.93 184.25 58.68 184.95 59.62 185.44C60.56 185.93 61.62 186.18 62.8 186.18C63.77 186.18 64.67 186 65.49 185.65C66.32 185.3 67 184.78 67.56 184.1L68.39 185.04C67.74 185.82 66.93 186.42 65.95 186.84C64.97 187.26 63.91 187.47 62.77 187.47C61.29 187.47 59.97 187.15 58.81 186.5C57.65 185.85 56.74 184.96 56.09 183.82C55.43 182.68 55.11 181.38 55.11 179.92C55.11 178.46 55.42 177.18 56.04 176.03C56.66 174.88 57.51 173.98 58.59 173.34C59.67 172.69 60.89 172.37 62.24 172.37C63.59 172.37 64.8 172.69 65.87 173.32C66.94 173.96 67.79 174.84 68.41 175.98C69.03 177.12 69.34 178.41 69.34 179.86L69.31 180.26H56.5ZM59.41 174.32C58.57 174.79 57.9 175.44 57.4 176.29C56.9 177.14 56.61 178.09 56.53 179.15H67.93C67.87 178.09 67.59 177.14 67.07 176.3C66.56 175.46 65.88 174.81 65.05 174.33C64.21 173.86 63.27 173.62 62.23 173.62C61.19 173.62 60.24 173.85 59.41 174.32Z" fill="#6D5183"/>
    <path d="M73.75 166.21H75.18V187.36H73.75V166.21Z" fill="#6D5183"/>
    <path d="M108.61 173.21C109.91 174.36 110.56 176.1 110.56 178.43V187.36H106.31V185.41C105.46 186.86 103.87 187.59 101.54 187.59C100.34 187.59 99.3 187.39 98.41 186.98C97.53 186.57 96.85 186.01 96.39 185.29C95.92 184.57 95.69 183.76 95.69 182.85C95.69 181.4 96.24 180.25 97.33 179.42C98.43 178.59 100.12 178.17 102.41 178.17H106.02C106.02 177.18 105.72 176.42 105.12 175.89C104.52 175.36 103.62 175.09 102.42 175.09C101.59 175.09 100.77 175.22 99.96 175.48C99.16 175.74 98.47 176.1 97.91 176.54L96.28 173.37C97.13 172.77 98.16 172.3 99.35 171.97C100.54 171.64 101.77 171.48 103.03 171.48C105.45 171.48 107.31 172.06 108.61 173.21ZM104.75 184C105.35 183.64 105.78 183.11 106.03 182.41V180.81H102.92C101.06 180.81 100.13 181.42 100.13 182.64C100.13 183.22 100.36 183.68 100.81 184.02C101.27 184.36 101.89 184.53 102.69 184.53C103.49 184.53 104.15 184.35 104.75 183.99V184Z" fill="#6D5183"/>
    <path d="M116.12 187.11C114.88 186.79 113.89 186.39 113.15 185.9L114.66 182.64C115.36 183.09 116.2 183.45 117.19 183.73C118.18 184.01 119.15 184.15 120.1 184.15C122.02 184.15 122.98 183.68 122.98 182.72C122.98 182.27 122.72 181.95 122.19 181.76C121.67 181.57 120.86 181.4 119.78 181.27C118.5 181.08 117.44 180.85 116.61 180.6C115.78 180.35 115.05 179.9 114.44 179.26C113.83 178.62 113.52 177.71 113.52 176.53C113.52 175.54 113.81 174.66 114.38 173.9C114.95 173.13 115.79 172.54 116.88 172.11C117.98 171.68 119.27 171.47 120.76 171.47C121.87 171.47 122.97 171.59 124.06 171.83C125.16 172.07 126.06 172.41 126.78 172.83L125.27 176.06C123.89 175.28 122.39 174.9 120.76 174.9C119.79 174.9 119.06 175.04 118.58 175.31C118.1 175.58 117.85 175.93 117.85 176.36C117.85 176.84 118.11 177.18 118.64 177.38C119.16 177.57 120 177.76 121.14 177.93C122.42 178.14 123.47 178.37 124.28 178.61C125.09 178.85 125.8 179.29 126.4 179.93C127 180.57 127.3 181.46 127.3 182.61C127.3 183.58 127.01 184.44 126.43 185.2C125.85 185.96 125 186.54 123.89 186.96C122.77 187.38 121.45 187.59 119.92 187.59C118.62 187.59 117.35 187.43 116.11 187.11H116.12Z" fill="#6D5183"/>
    <path d="M143.32 172.48C144.51 173.15 145.45 174.09 146.13 175.3C146.81 176.51 147.15 177.92 147.15 179.53C147.15 181.14 146.81 182.55 146.13 183.76C145.45 184.97 144.52 185.91 143.32 186.58C142.13 187.25 140.8 187.58 139.35 187.58C137.35 187.58 135.78 186.95 134.64 185.69V192.99H130.1V171.7H134.43V173.5C135.55 172.14 137.19 171.46 139.35 171.46C140.8 171.46 142.13 171.79 143.32 172.46V172.48ZM141.43 182.69C142.18 181.9 142.55 180.85 142.55 179.53C142.55 178.21 142.18 177.16 141.43 176.37C140.68 175.58 139.73 175.19 138.57 175.19C137.41 175.19 136.45 175.58 135.71 176.37C134.96 177.16 134.59 178.21 134.59 179.53C134.59 180.85 134.96 181.9 135.71 182.69C136.46 183.48 137.41 183.87 138.57 183.87C139.73 183.87 140.69 183.48 141.43 182.69Z" fill="#6D5183"/>
    <path d="M150.41 168.8C149.89 168.32 149.62 167.71 149.62 167C149.62 166.29 149.88 165.68 150.41 165.2C150.93 164.72 151.61 164.47 152.45 164.47C153.29 164.47 153.96 164.7 154.49 165.17C155.01 165.64 155.28 166.22 155.28 166.92C155.28 167.68 155.02 168.3 154.49 168.8C153.97 169.29 153.29 169.54 152.45 169.54C151.61 169.54 150.94 169.3 150.41 168.81V168.8ZM150.17 171.71H154.71V187.36H150.17V171.71Z" fill="#6D5183"/>
    <path d="M165.46 172.06C166.38 171.67 167.44 171.48 168.64 171.48V175.67C168.14 175.63 167.8 175.61 167.62 175.61C166.32 175.61 165.3 175.97 164.57 176.7C163.83 177.43 163.46 178.52 163.46 179.97V187.36H158.92V171.71H163.25V173.77C163.79 173.01 164.52 172.44 165.45 172.05L165.46 172.06Z" fill="#6D5183"/>
    <path d="M183.15 173.21C184.45 174.36 185.1 176.1 185.1 178.43V187.36H180.85V185.41C180 186.86 178.41 187.59 176.08 187.59C174.88 187.59 173.84 187.39 172.95 186.98C172.07 186.57 171.39 186.01 170.93 185.29C170.46 184.57 170.23 183.76 170.23 182.85C170.23 181.4 170.78 180.25 171.87 179.42C172.97 178.59 174.66 178.17 176.95 178.17H180.56C180.56 177.18 180.26 176.42 179.66 175.89C179.06 175.36 178.16 175.09 176.96 175.09C176.13 175.09 175.31 175.22 174.5 175.48C173.7 175.74 173.01 176.1 172.45 176.54L170.82 173.37C171.67 172.77 172.7 172.3 173.89 171.97C175.08 171.64 176.31 171.48 177.57 171.48C179.99 171.48 181.85 172.06 183.15 173.21ZM179.29 184C179.89 183.64 180.32 183.11 180.57 182.41V180.81H177.46C175.6 180.81 174.67 181.42 174.67 182.64C174.67 183.22 174.9 183.68 175.35 184.02C175.81 184.36 176.43 184.53 177.23 184.53C178.03 184.53 178.69 184.35 179.29 183.99V184Z" fill="#6D5183"/>
    <path d="M203.41 173.22C204.6 174.38 205.2 176.11 205.2 178.4V187.36H200.66V179.1C200.66 177.86 200.39 176.93 199.85 176.32C199.31 175.71 198.52 175.4 197.49 175.4C196.35 175.4 195.43 175.75 194.76 176.46C194.08 177.17 193.74 178.22 193.74 179.62V187.36H189.2V171.71H193.53V173.54C194.13 172.88 194.88 172.37 195.77 172.01C196.66 171.65 197.64 171.47 198.71 171.47C200.65 171.47 202.21 172.05 203.41 173.22Z" fill="#6D5183"/>
    <path d="M219.39 186.6C218.94 186.93 218.4 187.18 217.75 187.34C217.1 187.5 216.42 187.59 215.7 187.59C213.84 187.59 212.4 187.12 211.38 186.17C210.36 185.22 209.85 183.82 209.85 181.98V175.55H207.44V172.06H209.85V168.25H214.39V172.06H218.29V175.55H214.39V181.92C214.39 182.58 214.56 183.09 214.9 183.45C215.24 183.81 215.72 183.99 216.34 183.99C217.06 183.99 217.67 183.8 218.17 183.41L219.39 186.61V186.6Z" fill="#6D5183"/>
    <path d="M236.7 180.81H224.86C225.07 181.78 225.58 182.55 226.37 183.11C227.17 183.67 228.15 183.95 229.34 183.95C230.15 183.95 230.88 183.83 231.51 183.59C232.14 183.35 232.73 182.96 233.27 182.44L235.68 185.06C234.21 186.75 232.05 187.59 229.22 187.59C227.46 187.59 225.89 187.25 224.54 186.56C223.18 185.87 222.14 184.92 221.4 183.7C220.66 182.48 220.3 181.09 220.3 179.54C220.3 177.99 220.66 176.63 221.39 175.4C222.12 174.17 223.12 173.21 224.39 172.52C225.66 171.83 227.08 171.49 228.65 171.49C230.22 171.49 231.57 171.82 232.81 172.48C234.05 173.14 235.02 174.08 235.73 175.32C236.44 176.55 236.79 177.98 236.79 179.61C236.79 179.67 236.76 180.08 236.7 180.83V180.81ZM226.08 175.78C225.38 176.36 224.96 177.16 224.8 178.16H232.51C232.35 177.17 231.93 176.38 231.23 175.79C230.53 175.2 229.68 174.9 228.67 174.9C227.66 174.9 226.78 175.19 226.08 175.77V175.78Z" fill="#6D5183"/>
    <defs>
    <linearGradient id="paint0_linear_12003_6" x1="26.6659" y1="212.537" x2="342.161" y2="129.497" gradientUnits="userSpaceOnUse">
    <stop offset="0.12" stop-color="#6E589D"/>
    <stop offset="0.13" stop-color="#6F599E"/>
    <stop offset="0.27" stop-color="#7A65A5"/>
    <stop offset="0.46" stop-color="#806CA9"/>
    <stop offset="1" stop-color="#826EAB"/>
    </linearGradient>
    <linearGradient id="paint1_linear_12003_6" x1="-110.704" y1="96.8422" x2="3487.4" y2="96.8422" gradientUnits="userSpaceOnUse">
    <stop stop-color="#604A94"/>
    <stop offset="0.11" stop-color="#6E599D"/>
    <stop offset="0.25" stop-color="#7965A5"/>
    <stop offset="0.45" stop-color="#806CA9"/>
    <stop offset="1" stop-color="#826EAB"/>
    </linearGradient>
    <linearGradient id="paint2_linear_12003_6" x1="69.0526" y1="232.098" x2="249.774" y2="95.604" gradientUnits="userSpaceOnUse">
    <stop offset="0.22" stop-color="#6C5082"/>
    <stop offset="0.47" stop-color="#795894"/>
    <stop offset="0.59" stop-color="#815EA0"/>
    </linearGradient>
    <linearGradient id="paint3_linear_12003_6" x1="39.454" y1="277.312" x2="240.392" y2="110.359" gradientUnits="userSpaceOnUse">
    <stop stop-color="#A26BA5"/>
    <stop offset="0.24" stop-color="#A56FA7"/>
    <stop offset="0.51" stop-color="#AE7CB0"/>
    <stop offset="0.79" stop-color="#BE93BE"/>
    <stop offset="0.84" stop-color="#C298C2"/>
    </linearGradient>
    </defs>
  </symbol>

  <symbol id="instruccion" viewBox="0 0 37 37" fill="none">
    <path d="M34.2488 17.161H32.7153V2.15765C32.7153 1.94188 32.3377 1.62594 32.1296 1.572L2.44655 1.53347C2.07666 1.49494 1.53725 1.84941 1.53725 2.227V21.0294H12.4873V22.5629H1.54496V25.0827C1.54496 25.2445 1.96878 25.7069 2.16914 25.7069H12.5027C12.6106 26.5699 12.3949 27.3328 12.2947 28.165C12.1406 29.4134 11.9479 30.6617 11.8477 31.9178H17.211C17.211 31.9178 17.5193 32.0488 17.5655 32.0719C18.2359 32.488 17.9046 33.4667 17.134 33.5129C14.5602 33.3588 11.7167 33.7364 9.1815 33.5206C8.54191 33.4667 8.01791 33.1507 8.25679 32.4418C8.49567 31.7329 9.63614 31.964 10.2372 31.9024L10.8306 27.2403H1.86861C1.04408 27.2403 -0.0732788 25.8533 0.00378015 25.0133V2.227C0.119369 1.00177 0.99784 0.107882 2.23078 0H32.0218C32.8155 0.069353 33.5398 0.439236 33.9405 1.14818C34.0022 1.24835 34.2488 1.80318 34.2488 1.86483V17.161Z" fill="#5C5B5B"/>
    <path d="M28.847 24.2427L28.9164 24.4276L36.7302 32.2414C36.9613 32.5728 37.0461 32.8271 36.8072 33.1892L33.3396 36.6569C33.1315 36.8495 32.8233 36.8341 32.569 36.7725L24.4316 28.7044L21.511 34.4684C21.1488 34.8614 20.5324 34.8075 20.2473 34.3528L11.9172 12.5451C12.002 12.0134 12.4797 11.7052 13.0114 11.8824L34.5417 20.2125C34.9578 20.5284 34.9193 21.1064 34.5417 21.4454L28.847 24.2581V24.2427ZM32.1375 20.9523L14.1057 13.9476L20.9716 31.9794L23.5377 26.9937C23.8536 26.5545 24.3468 26.4697 24.7706 26.8319L32.908 34.9076L34.9963 32.8964L35.0349 32.7115L26.9283 24.6049C26.6123 24.2735 26.6894 23.6725 27.0901 23.449L32.1529 20.9523H32.1375Z" fill="#C1D13F"/>
    <path d="M8.89636 14.4021C9.55136 14.3405 9.93666 15.1111 9.57448 15.6659C9.42036 15.8971 7.2473 18.0701 7.01612 18.2165C6.24554 18.7174 5.42101 17.9006 5.92189 17.1223C6.09142 16.8603 8.1566 14.8028 8.44171 14.6025C8.5573 14.5177 8.75766 14.4098 8.89636 14.4021Z" fill="#C1D13F"/>
    <path d="M17.4268 5.95651C18.1281 5.95651 18.3824 6.67316 18.0048 7.22798C17.8198 7.49769 15.747 9.57828 15.485 9.74781C14.6913 10.2564 13.9438 9.4781 14.3599 8.6921C15.1998 8.0371 16.0783 6.70398 16.9105 6.13375C17.0647 6.02586 17.2342 5.94881 17.4191 5.94881L17.4268 5.95651Z" fill="#C1D13F"/>
    <path d="M6.26872 6.00285C6.51531 5.94891 6.80042 5.96432 7.01619 6.10303C7.2936 6.28027 9.27401 8.26839 9.50519 8.58433C10.0985 9.40115 9.32025 10.3027 8.48802 9.74792C7.65578 9.19309 6.73878 7.82144 5.89113 7.15874C5.62142 6.81197 5.84489 6.10303 6.26872 6.01056V6.00285Z" fill="#C1D13F"/>
    <path d="M4.08019 11.4047H7.91772C8.68831 11.6513 8.64208 12.7917 7.85608 12.915C6.76184 13.0923 5.22066 12.8071 4.08019 12.9073C3.31731 12.5914 3.31731 11.7206 4.08019 11.4047Z" fill="#C1D13F"/>
    <path d="M11.424 8.4458C11.293 8.3148 11.2005 8.03739 11.1774 7.85245C11.0926 7.12039 11.1003 5.23244 11.1851 4.50038C11.3084 3.46779 12.5875 3.50632 12.7031 4.27691C12.7956 4.84715 12.7956 7.49027 12.7031 8.06821C12.6107 8.64615 11.8247 8.84651 11.4163 8.4458H11.424Z" fill="#C1D13F"/>
  </symbol>

  <symbol id="facebook" viewBox="0 0 53 53" fill="none">
    <path d="M23.7 37.24H28.19V25.98H31.33L31.66 22.21H28.19V20.06C28.19 19.17 28.37 18.82 29.23 18.82H31.66V14.91H28.55C25.21 14.91 23.7 16.38 23.7 19.2V22.2H21.36V26.02H23.7V37.24Z" fill="currentColor"/>
    <path d="M23.7 37.24H28.19V25.98H31.33L31.66 22.21H28.19V20.06C28.19 19.17 28.37 18.82 29.23 18.82H31.66V14.91H28.55C25.21 14.91 23.7 16.38 23.7 19.2V22.2H21.36V26.02H23.7V37.24Z" stroke="currentColor" stroke-width="1.13" stroke-miterlimit="10"/>
    <path d="M1 26.0799C1 40.1699 12.42 51.5999 26.52 51.5999C40.62 51.5999 52.04 40.1799 52.04 26.0799C52.04 11.9799 40.61 0.569946 26.51 0.569946C12.41 0.569946 1 11.9899 1 26.0799Z" stroke="currentColor" stroke-width="1.13" stroke-miterlimit="10"/>
  </symbol>

  <symbol id="x" viewBox="0 0 54 53" fill="none">
    <path d="M1.5 26.0799C1.5 40.1699 12.92 51.5999 27.02 51.5999C41.12 51.5999 52.54 40.1799 52.54 26.0799C52.54 11.9799 41.11 0.569946 27.02 0.569946C12.93 0.569946 1.5 11.9899 1.5 26.0899M20.57 19.03H22.96L33.5 33.13H31.11L20.57 19.03ZM18.33 17.91L25.07 26.93L18.28 34.26H19.81L25.75 27.84L30.55 34.26H35.75L28.63 24.74L34.95 17.92H33.42L27.95 23.83L23.53 17.92H18.33V17.91Z" stroke="currentColor" stroke-width="1.13" stroke-miterlimit="10"/>
  </symbol>

  <symbol id="whats" viewBox="0 0 53 53" fill="none">
    <path d="M1 26.0799C1 40.1699 12.42 51.5999 26.52 51.5999C40.62 51.5999 52.04 40.1799 52.04 26.0799C52.04 11.9799 40.61 0.569946 26.52 0.569946C12.43 0.569946 1 11.9899 1 26.0899M14.02 39.76L16.39 32.85C16.04 32.02 15.59 31.26 15.29 30.4C11.69 20.09 21.23 10.3 31.62 13.32C40.22 15.82 43.94 26.16 38.69 33.52C34.76 39.03 27.35 40.71 21.36 37.49L14.02 39.77V39.76ZM17.41 36.54L21.68 35.2C30.05 40.55 40.91 33.38 38.75 23.48C37.82 19.24 34.11 15.75 29.82 15.03C19.83 13.35 13.02 24.25 18.77 32.5L17.42 36.53L17.41 36.54ZM23.25 19.9499C23.55 19.9099 24.26 19.9999 24.46 20.2299C24.68 20.4899 25.54 22.5399 25.65 22.9399C25.8 23.4999 25.65 23.6399 25.34 24.0799C24.65 25.0899 24.4 24.7899 25.24 25.9799C26.13 27.2399 27.64 28.5299 29.09 29.0799C29.42 29.1999 29.54 29.3099 29.84 29.0899C30.51 28.6199 30.72 27.3499 31.67 27.5999C32.08 27.7099 33.81 28.5599 34.19 28.8099C34.63 29.0999 34.6 29.2699 34.55 29.7899C34.39 31.1799 32.89 32.0899 31.59 32.1799C30.64 32.2499 28.03 31.2499 27.15 30.7599C24.78 29.4199 21.02 25.4199 21.33 22.5199C21.43 21.6199 22.26 20.0699 23.25 19.9399V19.9499Z" stroke="currentColor" stroke-width="1.13" stroke-miterlimit="10"/>
  </symbol>

  <symbol id="link" viewBox="0 0 54 53" fill="none">
    <path d="M1.50998 26.0799C1.50998 40.1699 12.94 51.5999 27.03 51.5999C41.12 51.5999 52.55 40.1699 52.55 26.0799C52.55 11.9899 41.12 0.569946 27.02 0.569946C12.92 0.569946 1.5 11.9899 1.5 26.0899M19.93 23.01C21.17 22.91 22.31 23.92 22.26 25.18C22.19 27.01 18.91 28.48 18.33 30.5C17.49 33.44 19.97 36.02 22.94 35.11C24.83 34.53 26.38 31.41 27.97 31.21C29.87 30.96 31.13 32.99 30.03 34.55C29.45 35.38 26.87 37.79 26 38.34C19.02 42.76 10.89 34.82 14.99 27.64C15.59 26.58 17.77 24.26 18.75 23.5C19.06 23.26 19.55 23.03 19.93 23V23.01ZM32.3 12.64C39.7 12.03 43.57 20.56 38.58 26.1C38.01 26.74 36.72 28.04 36.07 28.53C34.16 29.99 31.58 27.5 33.2 25.42C34.22 24.12 36.04 23.15 36.49 21.45C37.28 18.49 34.52 16.05 31.66 17.1C30.29 17.6 29.32 19.2 28.21 20.11C25.94 21.96 23.24 19.35 25.3 16.96C27.13 14.84 29.4 12.88 32.31 12.64H32.3ZM30.38 20.62C32.36 20.34 33.58 22.55 32.35 24.1L25.37 31.08C23.38 32.56 20.98 30.22 22.31 28.18L29.44 21.03C29.7 20.83 30.05 20.66 30.38 20.61V20.62Z" stroke="currentColor" stroke-width="1.13" stroke-miterlimit="10"/>
  </symbol>

</svg>