<svg width="106" height="80" viewBox="0 0 106 80" fill="none" xmlns="http://www.w3.org/2000/svg">
<path d="M104.833 16.7867C104.928 15.0563 105.256 13.209 104.896 11.5006C104.182 8.09966 101.274 6.33447 98.0279 5.99974C97.8697 5.97996 97.7105 5.96942 97.5511 5.96816C97.3755 5.95865 97.1994 5.95865 97.0238 5.96816C96.354 5.98822 95.6896 6.09435 95.047 6.28394C94.3378 6.15469 93.6173 6.09756 92.8965 6.11342C92.0952 6.12219 91.3159 6.37682 90.664 6.84287C90.5314 6.78919 90.4019 6.7355 90.2661 6.69129C86.9094 5.58607 82.5422 6.72287 80.5844 9.7796C80.184 10.4177 79.9017 11.1226 79.7507 11.8606C77.3729 7.5881 70.8489 7.28496 67.3975 10.6954C65.0544 9.72276 62.5629 10.1491 60.5482 11.4438H60.3903L60.0746 10.4491C59.4209 8.30808 58.982 6.23657 57.5483 4.47137C57.2279 4.08471 56.8152 3.78498 56.3484 3.59983C53.0264 1.68621 49.9823 4.29454 47.5066 6.37552L47.1024 6.7134C46.3193 4.07034 45.6719 1.10834 42.6057 0.214687C38.9774 -0.846327 36.1765 2.26093 33.6597 4.3798L11.3437 23.1433L3.50925 29.7368C2.10404 30.9209 1.18828 32.3167 0.983027 34.2429C0.834611 35.5439 1.09671 36.8197 1.29881 38.1049C2.69454 47.1972 4.09239 56.2895 5.49234 65.3818C6.00074 68.6911 5.91232 74.1478 8.96589 76.2603C11.4226 77.9498 14.6246 76.6014 17.2582 75.9698L19.3171 75.4709C19.996 78.4929 22.598 80.4981 25.7116 79.8918C27.5052 79.5381 29.2799 79.036 31.0546 78.6097L51.9685 73.592L57.5357 72.2594C57.5357 72.2594 69.0963 67.9428 75.715 73.2068C77.5024 74.6309 80.5496 73.472 82.5043 72.1773C82.8914 72.2907 83.2975 72.324 83.6979 72.2752C85.7063 72.0384 87.7115 71.8963 89.7324 71.8489C89.9688 71.842 90.2042 71.8167 90.4366 71.7731C90.6206 71.8008 90.8063 71.8156 90.9924 71.8174H93.0229C94.0591 71.8011 95.0484 71.3824 95.7815 70.6499C96.5146 69.9174 96.934 68.9284 96.9511 67.8922C96.9785 66.6481 97.009 65.4028 97.0427 64.1566C98.3701 63.9645 99.612 63.387 100.614 62.4956C102.588 60.7335 102.982 58.4694 103.226 55.9621C103.45 53.6791 103.633 51.5128 102.36 49.4792C102.915 48.7737 103.237 47.9127 103.279 47.0161C103.42 44.3868 103.561 41.7553 103.702 39.1217L104.833 16.7867ZM76.5361 54.8222H76.5013C76.9592 54.6706 76.6182 54.7843 76.5361 54.8222Z" fill="white"/>
<path d="M53.4521 65.0501C52.1338 64.856 50.8307 64.5701 49.5523 64.1943L22.5596 70.6678L23.1374 74.394C23.1769 74.6546 23.2458 74.9099 23.3427 75.155C23.4268 75.3603 23.5395 75.5527 23.6774 75.7266C23.8061 75.8672 23.9663 75.9754 24.1448 76.0423C24.2916 76.1179 24.4601 76.1402 24.6216 76.1055L56.5152 68.4542C55.5489 66.8753 54.4121 65.1543 53.4679 65.0217" fill="#CF5F62"/>
<path d="M58.6846 31.1897C57.8575 31.5439 56.9237 31.5553 56.0882 31.2213C55.2527 30.8874 54.584 30.2354 54.229 29.4087C54.1942 29.3266 54.1627 29.2413 54.1342 29.156C52.9564 26.2825 52.3564 24.8488 51.1691 21.9847C50.3039 19.9543 51.4849 18.1133 53.6258 17.3238C54.0949 17.1044 54.6056 16.988 55.1235 16.9825C55.6414 16.977 56.1544 17.0825 56.628 17.292C57.1017 17.5014 57.525 17.8099 57.8694 18.1967C58.2138 18.5835 58.4713 19.0396 58.6246 19.5343C59.8214 23.191 58.6246 24.7036 55.8394 27.7224L56.0952 28.3824C56.162 28.5599 56.2631 28.7225 56.3927 28.8609C56.5223 28.9993 56.6779 29.1109 56.8506 29.1892C57.0233 29.2675 57.2097 29.311 57.3993 29.3172C57.5888 29.3234 57.7777 29.2923 57.9552 29.2255C58.1326 29.1588 58.2952 29.0577 58.4337 28.9281C58.5721 28.7985 58.6836 28.6429 58.7619 28.4702C58.8402 28.2975 58.8837 28.111 58.89 27.9215C58.8962 27.732 58.8651 27.5431 58.7983 27.3656L58.6846 27.1635C59.4077 26.6235 59.7614 26.3614 60.494 25.8404C60.6045 26.1877 60.6645 26.3488 60.7782 26.7056C60.9445 27.1202 61.0274 27.5636 61.0222 28.0103C61.017 28.4571 60.9237 28.8984 60.7477 29.309C60.5717 29.7196 60.3165 30.0915 59.9966 30.4034C59.6767 30.7153 59.2985 30.961 58.8836 31.1265C58.8141 31.1518 58.7446 31.1802 58.672 31.2023M55.2363 7.97681C55.1482 7.69777 54.9907 7.44568 54.7784 7.24421C54.5865 7.06433 54.3461 6.94467 54.0869 6.90001C53.8058 6.85034 53.5169 6.86765 53.2438 6.95054C52.9252 7.05189 52.6262 7.20673 52.3596 7.40841L45.0967 13.5029L47.2092 20.45C47.4532 19.9956 47.8439 19.6372 48.3176 19.4332C48.7623 19.2046 49.2735 19.1408 49.7607 19.2532V21.2837C49.6389 21.2533 49.5122 21.2474 49.3881 21.2663C49.2639 21.2853 49.1448 21.3288 49.0376 21.3942C48.6694 21.569 48.3846 21.8814 48.2446 22.2642C48.1046 22.6469 48.1206 23.0694 48.2892 23.4405C48.288 23.4531 48.288 23.4658 48.2892 23.4784C50.067 27.4003 50.9512 29.3613 52.7101 33.2927L51.3491 33.9243L51.7122 35.1021C52.1985 35.1365 52.671 35.2789 53.0953 35.519C54.5479 36.3021 54.5479 36.3116 55.5237 35.0106C55.7577 34.6812 56.0899 34.4343 56.4727 34.305C56.8555 34.1757 57.2693 34.1706 57.6552 34.2906C59.2836 34.7238 60.7609 35.598 61.9245 36.8168C63.2855 38.5852 64.4823 40.2209 65.5402 41.743L55.2363 7.97681Z" fill="#CF5F62"/>
<path d="M56.4706 20.3705C55.9938 19.038 55.1096 18.8264 54.2602 19.139C53.8791 19.227 53.5486 19.4627 53.3413 19.7943C53.1341 20.1259 53.067 20.5263 53.1549 20.9074C53.1748 20.9987 53.2045 21.0876 53.2433 21.1726C53.9349 22.9599 54.2602 23.8536 54.9801 25.6409C57.0106 23.6104 57.1906 22.442 56.4832 20.3895" fill="#CF5F62"/>
<path d="M44.9207 28.7514C45.0205 30.3125 44.7735 31.8764 44.1975 33.3308C43.6215 34.7853 42.7308 36.0942 41.5892 37.1637C41.7597 37.4984 41.9334 37.8237 42.0976 38.1111C42.6755 39.2068 43.3354 40.2741 43.9544 41.3604L44.3301 41.2499C44.3812 40.9305 44.4024 40.607 44.3933 40.2836C44.3034 39.8509 44.3421 39.4013 44.5046 38.9902C44.6672 38.5792 44.9465 38.2248 45.3081 37.9706C45.6697 37.7164 46.0978 37.5737 46.5396 37.5599C46.9814 37.5462 47.4175 37.662 47.7942 37.8932C49.0573 38.4521 49.0573 38.4521 49.4015 37.0816C49.4664 36.5179 49.738 35.9983 50.1638 35.6232C50.5896 35.2481 51.1393 35.0443 51.7067 35.0512L51.3404 33.8607L50.8446 34.1038C48.811 29.8114 46.7616 25.5284 44.6964 21.2548C45.2554 20.9801 45.549 20.8569 46.108 20.5949L46.9732 21.2043C47.0076 20.9197 47.0932 20.6437 47.2258 20.3896L45.1133 13.4614L38.002 19.4865C39.9313 20.1945 41.6142 21.4463 42.847 23.0905C44.0799 24.7348 44.8101 26.701 44.9491 28.7514" fill="#7C2C82"/>
<path d="M44.5543 62.2968C41.2923 60.7179 37.8504 60.8537 34.3957 61.5547C33.3284 61.7789 32.1506 62.0315 31.5001 60.8726C30.8496 59.7137 31.399 58.6622 32.1095 57.7149C33.2589 56.1991 34.9515 56.1075 36.6409 55.9465C38.4372 55.8638 40.2223 55.6186 41.9744 55.2139C43.8691 54.6865 44.2291 53.8118 43.4175 52.0561C41.9649 48.9362 40.3703 45.8984 38.7756 42.8196C38.2956 41.8723 37.7588 40.7891 37.1683 39.6618C36.4604 39.8517 35.7361 39.9744 35.0052 40.0281H34.3136C31.8338 40.0227 29.4336 39.152 27.5271 37.566C25.6207 35.9801 24.3276 33.7785 23.8709 31.3411L18.2911 36.0556C18.1523 36.17 18.0347 36.3079 17.9437 36.463C17.8385 36.6378 17.7567 36.8257 17.7006 37.0219C17.631 37.2317 17.5865 37.449 17.5679 37.6693C17.549 37.8931 17.549 38.1181 17.5679 38.3419L22.5509 70.6554L49.5531 64.1946C47.8545 63.6999 46.1995 63.0662 44.6048 62.2999" fill="#7C2C82"/>
<path d="M43.0002 28.8715C42.8674 26.9982 42.1333 25.2179 40.9071 23.7955C39.681 22.3731 38.0284 21.3845 36.1951 20.9771L25.6387 29.8473V29.9988C25.7851 32.2008 26.7624 34.2649 28.3727 35.7738C29.983 37.2827 32.1063 38.1238 34.3131 38.127H34.8847C35.3526 38.0927 35.8172 38.022 36.2741 37.9154C34.9636 35.345 33.6026 32.6608 32.5858 30.5893C32.2947 29.9126 32.1002 29.1982 32.0079 28.4673C31.9161 28.0876 31.9509 27.6883 32.1071 27.3303C32.2633 26.9723 32.5323 26.6751 32.8731 26.4842C33.2079 26.2472 33.6105 26.1253 34.0205 26.1367C34.4305 26.1481 34.8257 26.2922 35.1467 26.5474C35.9129 27.1426 36.5728 27.8633 37.0983 28.6789C38.1151 30.4378 39.454 33.0777 40.6539 35.3955C41.4693 34.5321 42.0984 33.5101 42.502 32.3932C42.9057 31.2763 43.0752 30.0883 43.0002 28.9031" fill="#7C2C82"/>
<path d="M34.3051 20.7656H33.7272C31.4507 20.9073 29.3215 21.9397 27.8004 23.6393C26.2792 25.3389 25.4884 27.5691 25.5991 29.8474L36.1556 20.9582C35.5445 20.8248 34.921 20.757 34.2956 20.7561" fill="#A9C746"/>
<path d="M17.5514 37.6599C17.5702 37.4387 17.6147 37.2204 17.684 37.0094C17.7413 36.8136 17.823 36.6259 17.9271 36.4505C18.0154 36.2943 18.1334 36.157 18.2745 36.0463L23.8701 31.3412C23.7992 30.9377 23.7486 30.5308 23.7185 30.1223C23.6119 28.3657 23.9433 26.6101 24.6831 25.0133C25.4228 23.4165 26.5477 22.0285 27.9566 20.974C29.3655 19.9195 31.0143 19.2316 32.7549 18.972C34.4954 18.7124 36.2732 18.8893 37.9285 19.4869L45.0398 13.4713L42.5136 5.00844C42.4279 4.7292 42.27 4.47756 42.0557 4.27899C41.8731 4.09924 41.6449 3.97261 41.3958 3.91269C41.118 3.8599 40.8315 3.87726 40.5621 3.96321C40.2411 4.05866 39.9411 4.21402 39.6779 4.42109L5.5739 33.119C5.43241 33.2323 5.31259 33.3704 5.22023 33.5264C5.11326 33.7007 5.0304 33.8887 4.97392 34.0853C4.91331 34.301 4.87313 34.522 4.85393 34.7453C4.82864 34.9645 4.82864 35.186 4.85393 35.4052L10.3958 71.4702C10.4348 71.7275 10.5026 71.9796 10.5979 72.2218C10.6835 72.4311 10.8006 72.6259 10.9453 72.7997C11.0638 72.9442 11.2084 73.0653 11.3716 73.1565C11.5201 73.2266 11.6871 73.2476 11.8484 73.2165L22.5249 70.6555L17.5829 38.3325C17.5608 38.1088 17.5608 37.8835 17.5829 37.6599" fill="#C2D04C"/>
<path d="M66.4373 26.6483C66.2625 26.7104 66.0772 26.7375 65.892 26.7279C65.7068 26.7183 65.5252 26.6723 65.3578 26.5926C65.1903 26.5128 65.0402 26.4008 64.9161 26.263C64.7919 26.1252 64.6961 25.9643 64.6342 25.7894C64.6151 25.7378 64.5993 25.6851 64.5869 25.6315C63.7658 22.6253 63.308 21.1822 62.4427 18.135C62.3868 17.9262 62.3724 17.7084 62.4006 17.4941C62.4288 17.2797 62.4989 17.0731 62.607 16.8858C62.715 16.6986 62.8589 16.5345 63.0304 16.4029C63.2019 16.2713 63.3976 16.1747 63.6064 16.1187C63.8152 16.0627 64.0329 16.0484 64.2473 16.0766C64.4616 16.1048 64.6683 16.1749 64.8555 16.283C65.0427 16.391 65.2068 16.5349 65.3385 16.7064C65.4701 16.8778 65.5666 17.0736 65.6226 17.2824C66.3963 20.3296 66.7721 21.7917 67.5331 24.7979C67.647 25.158 67.6131 25.5486 67.439 25.8838C67.2649 26.219 66.9648 26.4713 66.6047 26.5852C66.5486 26.6018 66.4917 26.6155 66.4342 26.6262M69.5667 24.3147C68.8751 21.2675 68.5499 19.7644 67.8173 16.7361C67.3626 14.7025 65.7868 13.6888 63.5511 14.2667C63.1319 14.3616 62.736 14.54 62.3872 14.7912C62.0383 15.0424 61.7436 15.3612 61.5207 15.7287L60.8196 15.233L59.3418 15.6561C60.226 18.4602 62.3891 25.3884 64.5142 32.4587C65.1458 32.2345 65.8121 32.0324 66.4626 31.8271C65.9037 29.9766 65.4489 28.6251 65.3858 28.2304C65.689 28.4106 66.0266 28.5254 66.3768 28.5673C66.7271 28.6092 67.0822 28.5772 67.4194 28.4735C68.9004 28.0883 70.1193 26.7052 69.573 24.2989" fill="#CF5F62"/>
<path d="M74.4625 24.8612C73.4489 25.0443 72.8173 24.4854 72.5931 23.317C72.1984 21.2834 74.1278 19.5971 75.1193 18.7761C75.3625 20.3708 75.4951 21.1634 75.7509 22.7581C75.8757 23.1789 75.8288 23.632 75.6205 24.0184C75.4122 24.4048 75.0595 24.693 74.6393 24.8201L74.4688 24.8612M76.7645 15.1384C76.728 14.7123 76.6077 14.2977 76.4104 13.9183C76.2132 13.5388 75.9429 13.2021 75.6152 12.9275C75.2874 12.6529 74.9086 12.4457 74.5005 12.3178C74.0925 12.19 73.6632 12.1441 73.2373 12.1827C73.0333 12.2008 72.8314 12.2378 72.6342 12.2932C71.9115 12.3431 71.2182 12.5981 70.6354 13.0282C70.0526 13.4584 69.6045 14.0458 69.3438 14.7215C70.1964 14.9963 70.6227 15.1478 71.4563 15.4415C71.5795 14.731 72.0879 14.3458 72.9405 14.2037C73.7931 14.0616 74.3836 14.5984 74.5194 15.4668C74.5315 15.7006 74.5685 15.9324 74.6299 16.1583C73.3099 17.9456 69.7322 19.8245 70.5658 23.9075C71.1247 26.5 72.871 27.22 74.3362 26.9579C74.7681 26.9076 75.1786 26.7425 75.5252 26.4799C75.8717 26.2172 76.1415 25.8665 76.3067 25.4643L76.8908 26.2095L78.2108 26.0264C77.614 21.6686 77.3171 19.4961 76.7077 15.1478" fill="#CF5F62"/>
<path d="M85.7184 13.3924C85.6268 12.5082 86.3499 11.9777 87.2973 11.9082C87.6879 11.8291 88.0941 11.9084 88.4263 12.1287C88.7585 12.349 88.9896 12.6922 89.0688 13.0829C89.0939 13.2108 89.1035 13.3412 89.0972 13.4713C89.2172 15.3912 88.6898 16.3481 86.1415 17.627L85.7342 13.3924M91.4782 19.8942V19.0795C90.6161 19.3543 90.1866 19.4964 89.334 19.79C89.3403 19.8615 89.3403 19.9333 89.334 20.0048C89.3184 20.3666 89.1709 20.7102 88.9195 20.9709C88.6681 21.2316 88.33 21.3914 87.969 21.4201C87.6079 21.4488 87.2489 21.3445 86.9594 21.1269C86.6699 20.9092 86.47 20.5933 86.3973 20.2384C86.4078 20.0261 86.3876 19.8134 86.3373 19.6069C88.9804 18.2838 91.6013 16.5059 91.4182 13.2471C91.2855 11.2135 89.3846 10.0041 87.2025 10.1999C85.0205 10.3956 83.249 11.684 83.4827 13.645C83.8174 16.3765 83.9721 17.7091 84.2942 20.4721C84.4679 22.4426 86.1131 23.3962 88.1467 23.2131C90.1803 23.0299 91.6013 21.8521 91.5097 19.8721" fill="#CF5F62"/>
<path d="M100.569 22.7864C99.7353 22.7864 99.3311 22.7264 98.5385 22.7075C98.6396 19.455 98.7448 16.2109 98.8543 12.9752C98.8543 12.091 98.0207 11.6016 97.0765 11.5921C96.1323 11.5826 95.2576 12.0405 95.2576 12.9247V22.657H93.224C93.1229 18.4466 93.0177 14.2362 92.9082 10.0258H94.4618C94.6734 10.2595 94.7776 10.3795 94.9987 10.6132C95.7211 10.0453 96.636 9.78037 97.5501 9.87427C99.7606 9.87427 101.229 11.2069 101.137 13.0036C100.945 16.2656 100.771 19.5276 100.597 22.777" fill="#CF5F62"/>
<path d="M71.974 50.3065C71.6298 49.0781 68.6299 39.2038 66.7826 33.0366C66.1321 33.2324 65.4911 33.4345 64.8438 33.6682C66.3563 38.5722 67.891 43.4573 68.9047 46.9656C69.692 48.3213 70.3425 49.5402 70.8562 50.6223L71.9551 50.3065" fill="#CF5F62"/>
<path d="M70.878 50.6445C70.3601 49.5361 69.7001 48.3172 68.917 46.9846C69.4254 48.6203 69.8422 49.9719 70.1138 50.8782L70.878 50.6445Z" fill="#E46461"/>
<path d="M70.8144 36.2794L69.5166 36.6299C70.0534 35.1268 70.3376 34.3753 70.9471 32.8911C71.7713 32.689 72.1755 32.5975 72.9807 32.4143C72.0649 33.9585 71.6292 34.729 70.7955 36.2857" fill="#CF5F62"/>
<path d="M75.1022 49.2012C74.3822 49.3717 74.0159 49.4633 73.3054 49.659C72.2065 45.6044 71.1307 41.5404 70.0781 37.4669C70.9118 37.2426 71.3191 37.1511 72.1117 36.949L75.0769 49.2106" fill="#CF5F62"/>
<path d="M84.0012 47.5941C83.2717 47.6857 82.896 47.7488 82.1634 47.8594C81.6644 44.6511 81.1466 41.4491 80.6697 38.2408C80.5348 37.8782 80.2774 37.5742 79.942 37.3815C79.6066 37.1887 79.2144 37.1193 78.8332 37.1853C78.4521 37.2513 78.106 37.4484 77.8549 37.7427C77.6038 38.0369 77.4635 38.4097 77.4583 38.7965L79.2866 48.3583C78.5572 48.4909 78.2003 48.5699 77.4709 48.7246L74.8184 36.4093L76.1983 36.1251L76.7888 36.6208C77.048 36.2699 77.3794 35.9787 77.7608 35.7668C78.1421 35.5549 78.5644 35.4272 78.9993 35.3924C81.0329 35.0577 82.5265 36.0745 82.7602 37.8524C83.196 41.0922 83.6222 44.3226 84.0485 47.5625" fill="#CF5F62"/>
<path d="M86.2782 37.5586C86.1867 36.6745 86.8151 36.1566 87.6803 36.0871C88.5455 36.0176 89.2339 36.4218 89.316 37.666C89.436 39.5859 88.9592 40.5427 86.673 41.7932C86.5119 40.0943 86.4298 39.2512 86.2782 37.5555M91.4791 43.2837L89.5497 43.9973V44.2089C89.5634 44.552 89.4435 44.8871 89.2152 45.1436C88.9869 45.4001 88.668 45.5581 88.3256 45.5842C87.9832 45.6104 87.644 45.5028 87.3794 45.284C87.1147 45.0652 86.9453 44.7522 86.9067 44.411C86.9171 44.1987 86.8969 43.986 86.8467 43.7795C89.3729 42.3995 91.5833 40.5806 91.3875 37.4639C91.3229 36.5827 90.9111 35.7631 90.2427 35.1853C89.5742 34.6074 88.7037 34.3185 87.8224 34.3819C87.7277 34.3819 87.6329 34.4009 87.5382 34.4166C85.4446 34.5777 83.9604 35.8376 84.1941 37.8081C84.5099 40.5427 84.6741 41.8722 84.9867 44.6479C85.1122 45.4663 85.5424 46.207 86.1912 46.7215C86.8399 47.236 87.6592 47.4861 88.4847 47.4218C89.3102 47.3575 90.0808 46.9834 90.642 46.3746C91.2032 45.7659 91.5136 44.9674 91.5107 44.1394V43.3247" fill="#CF5F62"/>
<path d="M97.655 43.7445C97.6846 44.1422 97.5553 44.5354 97.2955 44.8379C97.0356 45.1404 96.6664 45.3275 96.2688 45.3581H96.1204C95.173 45.3581 94.6899 44.7487 94.6899 43.7003C94.6899 41.8435 96.7203 40.7162 97.7371 40.1667L97.6361 43.7413M96.6193 34.1038C95.9626 34.0252 95.297 34.1314 94.6974 34.4103C94.0977 34.6892 93.5877 35.1298 93.2247 35.6827L95.0025 36.6995C95.1383 36.407 95.3663 36.1671 95.6514 36.0166C95.9366 35.866 96.2633 35.813 96.5814 35.8658C96.7361 35.8582 96.8908 35.8811 97.0367 35.9334C97.1825 35.9856 97.3166 36.0661 97.4313 36.1702C97.546 36.2743 97.639 36.4001 97.705 36.5402C97.7711 36.6803 97.8088 36.8321 97.8161 36.9868C97.8187 37.0703 97.8134 37.1538 97.8003 37.2363V37.8679C95.5899 39.4941 92.7194 40.7099 92.8015 43.9655C92.8647 46.3118 94.3267 47.2338 95.7067 47.2465C96.1008 47.279 96.4964 47.2068 96.8536 47.0371C97.2107 46.8674 97.5166 46.6063 97.7403 46.2802L98.1445 47.0223H99.3855L99.9034 37.3089C100.004 35.389 98.675 34.1701 96.6319 34.1291" fill="#CF5F62"/>
<path d="M80.0916 53.7706C80.1516 54.1685 80.1832 54.3611 80.2337 54.7874H77.7075C77.721 54.5996 77.6896 54.4113 77.6159 54.238C77.4819 53.8287 77.1972 53.4857 76.8195 53.2787C76.4418 53.0716 75.9995 53.0161 75.5823 53.1233C75.3556 53.1477 75.1359 53.2166 74.9358 53.326C74.7357 53.4354 74.5592 53.5832 74.4163 53.761C74.2735 53.9388 74.1671 54.143 74.1033 54.3619C74.0395 54.5808 74.0195 54.8102 74.0445 55.0369C74.0625 55.1952 74.1018 55.3502 74.1613 55.4979C74.4771 56.9411 76.5675 58.2231 77.9507 59.3094C79.7569 60.7399 81.5442 62.4387 81.86 64.6776C82.1758 66.9165 81.4242 68.9848 78.8127 69.5027C78.359 69.6169 77.8872 69.6403 77.4244 69.5715C76.9616 69.5028 76.517 69.3432 76.1161 69.1019C75.7153 68.8607 75.366 68.5426 75.0885 68.1659C74.811 67.7892 74.6108 67.3614 74.4992 66.907V66.866C74.4076 66.4807 74.3571 66.2976 74.2655 65.9186C75.1592 65.9186 75.6076 65.8586 76.476 65.8491C76.4934 66.0254 76.5305 66.1991 76.5865 66.367C76.7011 66.7603 76.9599 67.0958 77.3111 67.3066C77.6624 67.5174 78.0802 67.5878 78.4812 67.5038C78.8961 67.4592 79.2766 67.2522 79.5393 66.9279C79.802 66.6036 79.9257 66.1885 79.8832 65.7734C79.8743 65.666 79.8531 65.5601 79.8201 65.4576C79.7314 64.7848 79.4999 64.1388 79.1411 63.5629C78.0138 61.8577 76.0939 60.6072 74.4045 59.3252C73.0509 58.5052 72.0699 57.1902 71.6698 55.659C71.133 53.5243 72.3298 51.6455 75.1971 51.0865C77.777 50.5908 79.8295 51.5034 80.1548 53.8117" fill="#CF5F62"/>
<path d="M89.7604 67.9144C87.7427 67.9491 85.7283 68.0914 83.7258 68.3407C83.048 62.3578 82.3438 56.3675 81.6133 50.3698C84.1587 50.0542 86.719 49.8739 89.2835 49.8298C89.2835 50.6319 89.2835 51.0393 89.3435 51.8634C87.6873 51.8671 86.0323 51.9588 84.3858 52.1382C84.5911 54.4212 84.7016 55.5612 84.8847 57.8474C85.9016 57.7559 86.4794 57.7148 87.5468 57.6643L87.6478 59.6947C86.631 59.6947 86.0942 59.7863 85.0584 59.8684C85.27 62.3662 85.3742 63.6167 85.5952 66.105C87.231 65.9724 88.0552 65.9219 89.7004 65.8808V67.9144" fill="#CF5F62"/>
<path d="M97.0953 53.9349C97.0132 54.9517 96.9848 55.498 96.9121 56.5369C96.8111 58.0084 96.0279 58.4316 94.7396 58.3842H93.3565L93.508 51.8634L95.0238 51.9139C96.6027 51.9834 97.1868 52.5455 97.0542 53.9444M95.5701 49.8929C93.7038 49.814 92.7691 49.7919 90.9092 49.8014C90.9092 55.8243 90.946 61.8557 91.0197 67.8954H93.0533C93.1228 64.9082 93.1638 63.4051 93.2365 60.4178C93.8329 60.4073 94.4295 60.4284 95.0238 60.481C97.6542 60.6104 99.0152 59.0884 99.2173 57.1053C99.3405 55.7948 99.4131 55.1349 99.5331 53.8149C99.7478 51.6045 98.3773 50.0256 95.5322 49.8835" fill="#CF5F62"/>
</svg>
