<svg width="22" height="22" viewBox="0 0 22 22" fill="none" xmlns="http://www.w3.org/2000/svg"><path d="M7.68761 3.95435C8.0292 3.79358 8.38373 3.65873 8.74861 3.54722C9.3024 3.38126 9.68539 2.88078 9.68539 2.3025C9.68539 1.44416 8.86506 0.808835 8.04214 1.05259C4.68835 2.04578 2.04361 4.696 1.05248 8.05675C0.809231 8.87878 1.44324 9.70341 2.2998 9.70341C2.87688 9.70341 3.37633 9.31703 3.54195 8.76468C3.66875 8.3394 3.83178 7.92968 4.02587 7.53811M18.0518 7.70148C18.2122 8.04378 18.3468 8.39905 18.4581 8.76468C18.6237 9.31962 19.1231 9.70341 19.7002 9.70341C20.5568 9.70341 21.1908 8.88138 20.9475 8.05675C19.9564 4.696 17.3142 2.04578 13.9579 1.05259C13.1375 0.808835 12.3146 1.44416 12.3146 2.3025C12.3146 2.88078 12.7002 3.38126 13.2514 3.54722C13.6758 3.67429 14.0847 3.83766 14.4754 4.03215M14.3124 18.0456C13.9708 18.2064 13.6163 18.3413 13.2514 18.4528C12.6976 18.6187 12.3146 19.1192 12.3146 19.6975C12.3146 20.5558 13.1349 21.1912 13.9579 20.9474C17.3117 19.9542 19.9564 17.3066 20.9475 13.9433C21.1908 13.1212 20.5568 12.2966 19.7002 12.2966C19.1231 12.2966 18.6237 12.683 18.4581 13.2353C18.3312 13.6606 18.1682 14.0703 17.9741 14.4619M3.94823 14.2985C3.78779 13.9562 3.65323 13.601 3.54195 13.2353C3.37633 12.6804 2.87688 12.2966 2.2998 12.2966C1.44324 12.2966 0.809231 13.1186 1.05248 13.9433C2.04361 17.304 4.68576 19.9542 8.04214 20.9474C8.86247 21.1912 9.68539 20.5558 9.68539 19.6975C9.68539 19.1192 9.29981 18.6187 8.74861 18.4528C8.32421 18.3257 7.91533 18.1623 7.52458 17.9679M8.15861 5.44542C8.15861 6.88046 6.99769 8.04378 5.56563 8.04378C4.13357 8.04378 2.97266 6.88046 2.97266 5.44542C2.97266 4.01039 4.13357 2.84707 5.56563 2.84707C6.99769 2.84707 8.15861 4.01039 8.15861 5.44542ZM19.1568 5.57508C19.1568 7.01012 17.9959 8.17344 16.5638 8.17344C15.1317 8.17344 13.9708 7.01012 13.9708 5.57508C13.9708 4.14005 15.1317 2.97672 16.5638 2.97672C17.9959 2.97672 19.1568 4.14005 19.1568 5.57508ZM19.0274 16.5546C19.0274 17.9896 17.8665 19.1529 16.4344 19.1529C15.0024 19.1529 13.8414 17.9896 13.8414 16.5546C13.8414 15.1195 15.0024 13.9562 16.4344 13.9562C17.8665 13.9562 19.0274 15.1195 19.0274 16.5546ZM8.02922 16.4275C8.02922 17.8625 6.8683 19.0259 5.43624 19.0259C4.00418 19.0259 2.84326 17.8625 2.84326 16.4275C2.84326 14.9925 4.00418 13.8292 5.43624 13.8292C6.8683 13.8292 8.02922 14.9925 8.02922 16.4275Z" stroke="currentColor" stroke-linecap="round" stroke-linejoin="round"/></svg>