<svg width="20" height="20" viewBox="0 0 20 20" fill="none" xmlns="http://www.w3.org/2000/svg"><path d="M14.2106 5.55555C14.5012 5.55555 14.7369 5.80428 14.7369 6.1111C14.7369 6.41793 14.5012 6.66666 14.2106 6.66666H5.7895C5.49882 6.66666 5.26318 6.41793 5.26318 6.1111C5.26318 5.80428 5.49882 5.55555 5.7895 5.55555H14.2106Z"fill="currentColor"/><path d="M12.1053 9.99999C12.396 9.99999 12.6316 10.2487 12.6316 10.5555C12.6316 10.8624 12.396 11.1111 12.1053 11.1111H5.7895C5.49882 11.1111 5.26318 10.8624 5.26318 10.5555C5.26318 10.2487 5.49882 9.99999 5.7895 9.99999H12.1053Z" fill="currentColor"/><path d="M18.9474 8.88888V3.88889C18.9474 3.15217 18.6699 2.44585 18.1764 1.92491C17.6829 1.40398 17.0137 1.11111 16.3158 1.11111H3.68421C2.98627 1.11111 2.31712 1.40398 1.8236 1.92491C1.33009 2.44585 1.05263 3.15217 1.05263 3.88889V12.7778C1.05263 13.5145 1.33009 14.2208 1.8236 14.7417C2.31712 15.2627 2.98627 15.5555 3.68421 15.5555H5.78947C6.08015 15.5555 6.31579 15.8043 6.31579 16.1111V18.4635L10.7823 15.6348L10.845 15.6C10.9103 15.5705 10.9811 15.5555 11.0526 15.5555H12.1053C12.3959 15.5555 12.6316 15.8043 12.6316 16.1111C12.6316 16.4179 12.3959 16.6667 12.1053 16.6667H11.1976L6.05983 19.9208C5.89742 20.0235 5.69526 20.0267 5.53043 19.9284C5.36542 19.8298 5.26316 19.6446 5.26316 19.4444V16.6667H3.68421C2.7071 16.6667 1.77028 16.2566 1.07936 15.5273C0.388436 14.798 7.31106e-07 13.8092 0 12.7778V3.88889C0 2.85749 0.388435 1.86863 1.07936 1.13932C1.77028 0.410015 2.7071 0 3.68421 0H16.3158C17.2929 0 18.2297 0.410015 18.9206 1.13932C19.6116 1.86863 20 2.85749 20 3.88889V8.88888C20 9.1957 19.7644 9.44444 19.4737 9.44444C19.183 9.44444 18.9474 9.1957 18.9474 8.88888Z" fill="currentColor"/><path d="M14.577 15.6444C14.577 15.2222 14.6138 14.8611 14.6875 14.5611C14.7717 14.25 14.9086 13.9555 15.098 13.6778C15.298 13.4 15.5664 13.1111 15.9033 12.8111C16.3138 12.4444 16.6296 12.1389 16.8507 11.8944C17.0822 11.65 17.2454 11.4111 17.3401 11.1778C17.4349 10.9444 17.4822 10.6611 17.4822 10.3278C17.4822 9.79444 17.3191 9.38333 16.9928 9.09444C16.6664 8.80555 16.1928 8.6611 15.5717 8.6611C15.0559 8.6611 14.598 8.73333 14.198 8.87777C13.798 9.0111 13.4138 9.17221 13.0454 9.3611L12.5559 8.19444C12.977 7.96111 13.4401 7.76666 13.9454 7.61111C14.4612 7.45555 15.0349 7.37777 15.6664 7.37777C16.6664 7.37777 17.4401 7.63888 17.9875 8.1611C18.5349 8.68333 18.8086 9.39444 18.8086 10.2944C18.8086 10.7944 18.7296 11.2222 18.5717 11.5778C18.4243 11.9222 18.2086 12.2444 17.9243 12.5444C17.6507 12.8333 17.3243 13.1444 16.9454 13.4778C16.598 13.7889 16.3296 14.0611 16.1401 14.2944C15.9612 14.5278 15.8401 14.7611 15.777 14.9944C15.7138 15.2167 15.6822 15.4889 15.6822 15.8111V16.0944H14.577V15.6444ZM14.2138 18.5444C14.2138 18.1333 14.3033 17.8444 14.4822 17.6778C14.6717 17.5111 14.9086 17.4278 15.1928 17.4278C15.4559 17.4278 15.6822 17.5111 15.8717 17.6778C16.0612 17.8444 16.1559 18.1333 16.1559 18.5444C16.1559 18.9444 16.0612 19.2333 15.8717 19.4111C15.6822 19.5889 15.4559 19.6778 15.1928 19.6778C14.9086 19.6778 14.6717 19.5889 14.4822 19.4111C14.3033 19.2333 14.2138 18.9444 14.2138 18.5444Z" fill="currentColor"/></svg>