<svg width="193" height="33" viewBox="0 0 193 33" fill="none" xmlns="http://www.w3.org/2000/svg">
<path d="M42.4746 4.2738C44.9417 4.2738 46.4893 5.7642 46.4893 8.90488V11.8343C46.4893 14.9692 44.9474 16.4654 42.4746 16.4654H40.6756V24.4141H38.3113V4.2738H42.4803H42.4746ZM40.6756 14.1755H42.2975C43.5596 14.1755 44.1479 13.456 44.1479 11.9885V8.74499C44.1479 7.27743 43.5539 6.55793 42.2975 6.55793H40.6756V14.1755Z" fill="#D15F61"/>
<path d="M54.3875 11.189C53.8735 10.8807 53.3824 10.7493 52.9483 10.7493C52.0746 10.7493 51.355 11.2118 50.7611 12.0855V24.4027H48.471V8.69359H50.0415L50.4812 10.007C51.1494 9.00195 52.0232 8.48802 53.1311 8.48802C53.8278 8.48802 54.496 8.69359 55.0328 9.15613L54.3875 11.189Z" fill="#D15F61"/>
<path d="M58.1452 19.4747V20.7367C58.1452 21.8159 58.842 22.4098 59.79 22.4098C60.738 22.4098 61.4633 21.8159 61.4633 20.7367V19.7317L63.5477 19.1892V20.8109C63.5477 23.175 61.8516 24.6197 59.7157 24.6197C57.5799 24.6197 55.9351 23.1807 55.9351 20.8109V12.2968C55.9351 9.93274 57.6084 8.48802 59.7443 8.48802C61.5946 8.48802 63.6048 9.49304 63.6048 12.628C63.6048 14.5581 62.8339 15.9229 61.0863 17.3619C60.3668 17.9786 59.3902 18.6981 58.1567 19.469L58.1452 19.4747ZM58.1452 17.2591C58.8934 16.768 59.5101 16.3055 59.9213 15.9229C60.9778 14.9464 61.389 14.0442 61.389 12.7822C61.389 11.1605 60.6181 10.5951 59.7157 10.5951C58.7392 10.5951 58.1452 11.2632 58.1452 12.3939V17.2591Z" fill="#D15F61"/>
<path d="M67.2769 8.69359L67.6596 9.67006C68.4305 8.92201 69.4585 8.48802 70.515 8.48802C72.2397 8.48802 73.7588 9.72145 73.7588 12.2968V20.8109C73.7588 23.3806 72.2397 24.6197 70.515 24.6197C69.6127 24.6197 68.7161 24.3113 67.9965 23.7175V28.8111H65.7065V8.69359H67.2769ZM67.9965 11.6515V21.4505C68.5619 22.0443 69.1558 22.3527 69.8754 22.3527C70.9833 22.3527 71.4687 21.6047 71.4687 20.3198V12.7822C71.4687 11.4974 70.9776 10.7493 69.8754 10.7493C69.1558 10.7493 68.5619 11.0577 67.9965 11.6515Z" fill="#D15F61"/>
<path d="M76.1745 10.2411C76.9226 9.13329 78.3332 8.49373 79.8295 8.49373C82.3251 8.49373 83.5587 10.2696 83.5587 12.7651V24.4141H82.1195L81.7084 23.5405C80.9374 24.1857 79.9094 24.6197 78.8244 24.6197C77.0997 24.6197 75.5063 23.5405 75.5063 20.554C75.5063 18.2413 76.46 16.7966 78.7501 15.0777C79.4982 14.5353 80.4234 13.9185 81.4 13.3018V12.8107C81.4 11.4974 80.7832 10.6008 79.5211 10.6008C78.6473 10.6008 77.8764 11.0634 77.4366 11.8114L76.1745 10.2411ZM81.4 21.559V15.5174C80.7832 15.9057 80.3206 16.2141 79.8809 16.5453C78.259 17.8073 77.7964 18.9094 77.7964 20.2228C77.7964 21.8159 78.4646 22.4612 79.4925 22.4612C80.2121 22.4612 80.8289 22.13 81.3943 21.559H81.4Z" fill="#D15F61"/>
<path d="M92.7418 19.4747V20.7367C92.7418 21.8159 93.4385 22.4098 94.3865 22.4098C95.3345 22.4098 96.0598 21.8159 96.0598 20.7367V19.7317L98.1443 19.1892V20.8109C98.1443 23.175 96.4482 24.6197 94.3123 24.6197C92.1764 24.6197 90.5317 23.1807 90.5317 20.8109V12.2968C90.5317 9.93274 92.205 8.48802 94.3408 8.48802C96.1912 8.48802 98.2014 9.49304 98.2014 12.628C98.2014 14.5581 97.4304 15.9229 95.6829 17.3619C94.9633 17.9786 93.9868 18.6981 92.7532 19.469L92.7418 19.4747ZM92.7418 17.2591C93.4899 16.768 94.1067 16.3055 94.5179 15.9229C95.5744 14.9464 95.9856 14.0442 95.9856 12.7822C95.9856 11.1605 95.2146 10.5951 94.3123 10.5951C93.3357 10.5951 92.7418 11.2632 92.7418 12.3939V17.2591Z" fill="#D15F61"/>
<path d="M101.873 8.69359L102.233 9.59583C103.033 8.87632 104.061 8.48802 105.06 8.48802C106.859 8.48802 108.355 9.72145 108.355 12.2968V24.4084H106.065V12.7822C106.065 11.4974 105.574 10.7493 104.421 10.7493C103.752 10.7493 103.158 11.0348 102.593 11.5716V24.4084H100.303V8.69359H101.873Z" fill="#D15F61"/>
<path d="M117.824 4.2738V22.1243H121.605V24.4141H115.46V4.2738H117.824Z" fill="#D15F61"/>
<path d="M127.607 4.2738L125.591 7.46016H123.301L125.105 4.2738H127.607ZM125.591 8.6936V24.4084H123.301V8.6936H125.591Z" fill="#D15F61"/>
<path d="M130.148 8.69359L130.508 9.59583C131.307 8.87632 132.335 8.48802 133.335 8.48802C135.134 8.48802 136.63 9.72145 136.63 12.2968V24.4084H134.34V12.7822C134.34 11.4974 133.849 10.7493 132.695 10.7493C132.027 10.7493 131.433 11.0348 130.868 11.5716V24.4084H128.578V8.69359H130.148Z" fill="#D15F61"/>
<path d="M141.027 19.4747V20.7367C141.027 21.8159 141.724 22.4098 142.672 22.4098C143.62 22.4098 144.345 21.8159 144.345 20.7367V19.7317L146.43 19.1892V20.8109C146.43 23.175 144.734 24.6197 142.598 24.6197C140.462 24.6197 138.817 23.1807 138.817 20.8109V12.2968C138.817 9.93274 140.491 8.48802 142.626 8.48802C144.477 8.48802 146.487 9.49304 146.487 12.628C146.487 14.5581 145.716 15.9229 143.968 17.3619C143.249 17.9786 142.272 18.6981 141.039 19.469L141.027 19.4747ZM141.027 17.2591C141.775 16.768 142.392 16.3055 142.803 15.9229C143.86 14.9464 144.271 14.0442 144.271 12.7822C144.271 11.1605 143.5 10.5951 142.598 10.5951C141.621 10.5951 141.027 11.2632 141.027 12.3939V17.2591Z" fill="#D15F61"/>
<path d="M148.771 10.2411C149.519 9.13329 150.93 8.49373 152.426 8.49373C154.922 8.49373 156.155 10.2696 156.155 12.7651V24.4141H154.716L154.305 23.5405C153.534 24.1857 152.506 24.6197 151.421 24.6197C149.696 24.6197 148.103 23.5405 148.103 20.554C148.103 18.2413 149.057 16.7966 151.347 15.0777C152.095 14.5353 153.02 13.9185 153.997 13.3018V12.8107C153.997 11.4974 153.38 10.6008 152.118 10.6008C151.244 10.6008 150.473 11.0634 150.033 11.8114L148.771 10.2411ZM153.991 21.559V15.5174C153.374 15.9057 152.912 16.2141 152.472 16.5453C150.85 17.8073 150.387 18.9094 150.387 20.2228C150.387 21.8159 151.056 22.4612 152.084 22.4612C152.803 22.4612 153.42 22.13 153.985 21.559H153.991Z" fill="#D15F61"/>
<path d="M164.436 13.713V15.5917H157.977V13.713H164.436Z" fill="#7E2A84"/>
<path d="M173.185 7.84847V8.56797H170.998V8.02549C170.998 6.86629 170.353 6.12395 169.251 6.12395C167.988 6.12395 167.4 7.10041 167.4 8.28245C167.4 9.25892 167.789 10.1098 168.457 11.0577C169.382 12.3425 171.261 14.6837 172.186 16.1741C172.985 17.4361 173.317 18.464 173.317 19.9315C173.317 22.8895 172.032 24.7682 169.279 24.7682C166.526 24.7682 165.036 23.0208 165.036 20.8338V19.7545L167.223 20.3198V20.8109C167.223 21.7645 167.92 22.6097 169.125 22.6097C170.41 22.6097 171.055 21.736 171.055 20.2456C171.055 19.3205 170.798 18.3954 170.05 17.2362C169.279 16.0771 167.686 14.2555 166.732 12.7593C165.573 10.932 165.213 9.54443 165.213 8.25961C165.213 5.58718 166.835 3.91405 169.302 3.91405C171.769 3.91405 173.185 5.50723 173.185 7.84847Z" fill="#D15F61"/>
<path d="M181.906 4.2738V6.56364H177.611V12.8907H180.644V15.1805H177.611V22.1243H181.906V24.4141H175.247V4.2738H181.906Z" fill="#D15F61"/>
<path d="M188.005 4.2738C190.472 4.2738 192.02 5.7642 192.02 8.90488V11.8343C192.02 14.9692 190.478 16.4654 188.005 16.4654H186.206V24.4141H183.842V4.2738H188.011H188.005ZM186.2 14.1755H187.822C189.084 14.1755 189.673 13.456 189.673 11.9885V8.74499C189.673 7.27743 189.079 6.55793 187.822 6.55793H186.2V14.1755Z" fill="#D15F61"/>
<path d="M21.7498 14.1241C22.161 14.3449 22.5055 14.2764 22.7834 13.9185C22.989 13.6273 23.3431 13.5074 23.6915 13.6102C24.3711 13.7986 25.0107 14.1698 25.4847 14.6837C25.8216 15.1177 28.0717 19.7317 29.9792 23.6318L23.7143 1.69273C23.5316 1.0703 22.8348 1.07601 22.4065 1.42434C22.4065 1.42434 20.8589 2.72059 18.7173 4.51363L21.43 14.0156C21.5442 14.0442 21.6527 14.0841 21.7441 14.1298L21.7498 14.1241Z" fill="#D15F61"/>
<path d="M22.9719 27.2864C19.7224 28.063 13.212 29.5763 8.44339 30.6841L8.68325 32.2259C8.7632 32.7512 9.27147 33.0938 9.79116 32.9739C12.4639 32.3572 20.1678 30.5699 25.5475 29.3079C24.708 28.6226 23.7029 27.8346 22.9719 27.2807V27.2864Z" fill="#D15F61"/>
<path d="M15.3536 7.35738C17.0269 7.97409 18.1805 9.50446 18.2832 11.2804C18.3632 12.6223 17.8492 13.9243 16.8784 14.8265C17.0269 15.0892 17.1525 15.3576 17.301 15.6202C17.4894 15.9571 17.6836 16.2826 17.8721 16.6195C17.9006 16.6367 17.9577 16.6081 17.9863 16.5967C18.0377 16.5796 18.0605 16.5567 18.0548 16.4996C17.9977 15.8886 18.032 15.2433 18.7287 15.0435C18.9914 14.9635 19.2598 15.0206 19.5054 15.1577C19.8633 15.31 20.0898 15.1939 20.185 14.8094C20.2478 14.3126 20.6818 13.9642 21.173 13.9642C21.2643 13.9757 21.35 13.9928 21.4357 14.0156L18.723 4.51363C17.695 5.37589 16.53 6.35236 15.3307 7.35738C15.3364 7.35738 15.3479 7.35738 15.3593 7.36309L15.3536 7.35738Z" fill="#7E2A84"/>
<path d="M13.1834 10.3267C13.9201 9.83566 14.5997 10.6922 14.9767 11.2575C15.4107 11.9999 15.9646 13.1134 16.4843 14.107C17.1868 13.3418 17.5351 12.3539 17.4552 11.3203C17.3295 9.6929 16.1759 8.35098 14.5883 7.99693C14.5769 7.99693 14.5655 7.99693 14.5598 7.99693C13.0292 9.28176 11.4816 10.5723 10.1338 11.7029C10.1338 11.7144 10.1338 11.7258 10.1338 11.7372V11.8C10.2537 13.8386 12.0298 15.3633 14.0572 15.2433C14.2628 15.2205 14.4513 15.2034 14.634 15.1634C14.0743 14.067 13.4975 12.9364 13.0635 12.0684C12.8579 11.5088 12.5324 10.7036 13.1891 10.3325L13.1834 10.3267Z" fill="#7E2A84"/>
<path d="M22.0296 26.6126C21.4585 26.4356 20.8075 26.3728 20.2193 26.2357C19.5168 26.0073 18.8144 25.7618 18.1119 25.4534C16.7299 24.791 15.285 24.8538 13.8173 25.1451C13.3662 25.225 12.8693 25.3506 12.6009 24.8538C12.3382 24.3685 12.6009 23.7632 12.9493 23.3863C13.4347 22.8781 14.1086 22.8267 14.7654 22.7696C15.5306 22.7296 16.273 22.6268 17.0154 22.4612C17.8207 22.2328 17.9635 21.8616 17.6322 21.1193C17.0154 19.8002 16.353 18.5211 15.6734 17.2191C15.4678 16.808 15.2394 16.3511 14.9938 15.8772C13.2234 16.3968 11.1789 15.6659 10.1281 14.1413C9.75691 13.6159 9.49992 13.0049 9.3857 12.371C9.3857 12.3539 9.3857 12.3425 9.37999 12.3254C8.04935 13.4389 6.9757 14.3354 6.42746 14.7979C6.17047 15.0092 6.05054 15.3404 6.10194 15.6716L8.4434 30.6898C13.212 29.582 19.7224 28.0687 22.9719 27.2921C22.515 26.9438 22.161 26.6926 22.0296 26.6183V26.6126Z" fill="#7E2A84"/>
<path d="M13.7831 7.89415C11.7043 7.85418 10.0367 9.63009 10.1281 11.6972C11.4759 10.5666 13.0235 9.27605 14.554 7.99122C14.3142 7.93412 14.0344 7.89415 13.7774 7.89415H13.7831Z" fill="#C1D13F"/>
<path d="M6.42746 14.7979C6.98141 14.3354 8.04935 13.4389 9.37999 12.3254C8.93454 9.73288 10.8991 7.26601 13.5318 7.12896C14.1429 7.08899 14.7539 7.12896 15.3193 7.34596C16.5186 6.34094 17.6836 5.36447 18.7116 4.50221L17.5694 0.504981C17.3866 -0.117445 16.6899 -0.111735 16.2616 0.236595C16.2616 0.236595 3.829 10.6408 0.61948 13.3304C0.156899 13.7187 -0.0715368 14.324 0.0198374 14.9236L2.45839 30.5584C2.58403 31.3465 3.34928 31.8661 4.12596 31.6834C5.15963 31.4436 6.67873 31.0952 8.43197 30.6841L6.09051 15.6659C6.03911 15.3404 6.16475 15.0092 6.41603 14.7922L6.42746 14.7979Z" fill="#C1D13F"/>
</svg>
