<svg xmlns="http://www.w3.org/2000/svg" xmlns:xlink="http://www.w3.org/1999/xlink" style="display:none">

  <symbol id="egresados" viewBox="0 0 50 50" fill="none">
    <path d="M2.35 50C1.07 49.59 0.16 48.7 0 47.32V2.69C0.16 1.24 1.24 0.16 2.69 0H41.95C43.26 0.05 44.5 1.12 44.71 2.42C44.86 3.38 44.87 7.3 44.73 8.25C44.56 9.34 43.01 9.35 42.81 8.33C42.51 6.82 43.01 4.49 42.78 2.89C42.71 2.38 42.37 2.04 41.85 1.96H3.08C2.6 1.94 2.18 2.2 2.03 2.65L2.06 47.41L2.6 47.95L41.76 48.04C43.77 47.84 42.09 44.38 43.14 43.56C43.7 43.12 44.57 43.41 44.72 44.11C44.83 44.66 44.81 46.99 44.72 47.58C44.53 48.8 43.52 49.64 42.4 50H2.35Z" fill="#5B5A5A"/>
    <path d="M50 18.46V19.53C49.91 19.94 49.41 20.57 49.41 20.95C49.41 21.33 49.94 22.04 50 22.46V23.53C49.81 23.99 49.64 24.45 49.31 24.85C48.98 25.25 48.27 25.53 48.1 25.88C47.9 26.3 47.98 27.01 47.8 27.53C47.55 28.23 46.79 28.91 46.09 29.14C45.58 29.31 44.98 29.2 44.59 29.4C44.25 29.57 43.99 30.13 43.77 30.44L43.74 39.69C43.68 40.09 43.22 40.5 42.81 40.52C41.93 40.56 40.42 38.42 39.68 37.9C39.46 37.86 37.55 40.11 37 40.37C36.26 40.72 35.61 40.31 35.54 39.51C35.28 36.63 35.77 33.37 35.52 30.45C35.3 30.14 35 29.52 34.64 29.38C34.25 29.22 33.71 29.33 33.2 29.16C31.77 28.68 31.27 27.41 31.24 25.99H12.16C11.45 25.89 11.09 25.1 11.44 24.48C11.49 24.39 11.93 24.03 11.97 24.03H29.5C29.11 23.13 29.32 22.12 29.79 21.3H11.97C11.97 21.3 11.49 20.94 11.44 20.85C11.1 20.25 11.42 19.53 12.07 19.35H29.3C29.24 18.5 29.43 17.79 29.98 17.15C30.27 16.81 31.01 16.4 31.14 16.17C31.36 15.78 31.3 15.13 31.41 14.68C31.71 13.53 32.73 12.84 33.84 12.62C34.13 12.56 34.42 12.67 34.73 12.54C35 12.43 35.59 11.42 36.03 11.11C36.68 10.66 37.43 10.58 38.2 10.69C38.72 10.77 39.11 11.15 39.59 11.16C40.15 11.18 40.57 10.75 41.16 10.67C41.94 10.58 42.66 10.67 43.3 11.15C43.71 11.45 44.28 12.43 44.55 12.54C44.87 12.68 45.2 12.57 45.53 12.64C46.68 12.86 47.66 13.66 47.92 14.84C48.01 15.25 47.92 15.78 48.15 16.17C48.29 16.42 49.1 16.86 49.41 17.26C49.72 17.66 49.82 18.01 50 18.48V18.46ZM37.38 12.62C37.01 12.7 36.39 13.81 35.88 14.15C35.1 14.67 34.48 14.41 33.8 14.7C33.12 14.99 33.37 15.79 33.19 16.43C33.01 17.07 32.56 17.55 32.09 17.97C31.71 18.31 31.15 18.37 31.3 19.14C31.45 19.91 31.9 20.1 31.85 21.14C31.8 22.18 30.78 22.91 31.65 23.68C32.39 24.33 32.89 24.41 33.19 25.56C33.36 26.21 33.15 27.1 33.99 27.3C34.76 27.48 35.22 27.33 35.98 27.85C36.7 28.34 36.86 29.44 37.84 29.29C38.61 29.18 38.86 28.7 40 28.8C40.69 28.86 41.32 29.41 41.93 29.27C42.39 29.17 42.81 28.2 43.33 27.84C44.16 27.27 44.77 27.52 45.47 27.25C46.17 26.98 45.92 26.45 46.02 25.95C46.33 24.51 46.71 24.52 47.66 23.68C48.52 22.91 47.51 22.17 47.46 21.14C47.41 20.11 47.87 19.88 48.01 19.14C48.17 18.27 46.98 17.92 46.5 17.22C46 16.48 46.08 15.2 45.8 14.89C45.4 14.45 44.17 14.64 43.42 14.14C42.9 13.79 42.43 12.88 42.12 12.7C41.5 12.35 40.98 12.89 40.44 13.05C38.91 13.52 38.22 12.42 37.36 12.61L37.38 12.62ZM41.8 31.35C41.09 31.55 40.16 30.73 39.61 30.76C39.09 30.78 38.2 31.55 37.51 31.35V37.11C38.19 36.68 38.85 35.41 39.71 35.44C40.47 35.47 41.17 36.72 41.81 37.11V31.35H41.8Z" fill="#C1D13F"/>
    <path d="M38.09 6.64H6.64V26.32C6.64 26.32 6.4 26.75 6.34 26.8C5.75 27.35 4.72 26.95 4.68 26.12V5.71C4.68 5.11 5.1 4.69 5.7 4.68H39.19C39.59 4.77 39.92 5.03 40 5.44C40.09 5.87 40.09 7.99 40 8.42C39.85 9.15 38.9 9.42 38.37 8.93C38.31 8.88 38.07 8.48 38.07 8.45V6.64H38.09Z" fill="#5B5A5A"/>
    <path d="M6.64 43.36H38.08V41.94C38.08 41.94 38.32 41.51 38.38 41.46C38.88 40.99 39.81 41.21 39.99 41.89C40.09 42.28 40.1 44.15 40.01 44.56C39.92 44.97 39.6 45.23 39.2 45.31L5.44 45.29C4.98 45.17 4.74 44.86 4.68 44.39V33.26C4.88 32.55 5.63 32.24 6.24 32.67C6.34 32.74 6.63 33.07 6.63 33.15V43.35L6.64 43.36Z" fill="#5B5A5A"/>
    <path d="M18.14 28.73L29.96 28.78C30.78 29.27 30.78 30.09 29.96 30.59H18C17.19 30.11 17.27 29.08 18.14 28.73Z" fill="#C1D13F"/>
    <path d="M29.47 34.2C29.94 34.15 30.46 34.58 30.55 35.04C30.62 35.41 30.44 35.67 30.23 35.95C29.88 36.41 28.14 38.11 27.67 38.27C26.04 38.81 25.39 37.58 24.37 36.63C23.76 37.17 23.32 38.07 22.4 37.53C21.16 36.8 22.9 35.07 23.71 34.8C25.3 34.27 25.92 35.52 26.99 36.33C27.62 35.89 28.72 34.28 29.47 34.21V34.2Z" fill="#C1D13F"/>
    <path d="M14.62 11.55C16.19 11.68 18.26 11.3 19.77 11.54C20.88 11.71 20.88 13.31 19.77 13.48C18.26 13.71 16.19 13.34 14.62 13.47C13.64 13.07 13.64 11.96 14.62 11.56V11.55Z" fill="#C1D13F"/>
    <path d="M11.01 11.55C12.4 11.28 12.63 13.33 11.37 13.48C10.11 13.63 9.86 11.77 11.01 11.55Z" fill="#C1D13F"/>
    <path d="M5.45 28.73C6.84 28.46 7.07 30.51 5.81 30.66C4.55 30.81 4.3 28.95 5.45 28.73Z" fill="#5B5A5A"/>
    <path d="M44.3 18.3C44.74 18.74 44.59 19.28 44.28 19.72C43.79 20.41 41.14 23.05 40.43 23.59C39.98 23.94 39.63 24.07 39.11 23.73C38.72 23.15 36.94 21.84 36.76 21.29C36.46 20.35 37.44 19.62 38.27 20.17C38.55 20.35 39.48 21.51 39.68 21.48L42.99 18.24C43.36 17.94 43.96 17.96 44.3 18.3Z" fill="#C1D13F"/>
  </symbol>

  <symbol id="estudiantes" viewBox="0 0 50 50" fill="none">
    <path d="M41.51 0C42.4 0.24 43.14 0.53 43.86 1.12C44.93 2 48.66 5.66 49.31 6.71C50.38 8.43 50.2 10.5 48.93 12.06L15.33 45.65L1.3 49.98C0.65 50.07 0.32 49.87 0.01 49.32V48.64L4.14 35.14L4.41 34.62C15.76 23.34 26.97 11.87 38.45 0.7L39.03 0.4L40.24 0H41.51ZM40.31 2.07C39.01 2.29 37.31 4.79 36.24 5.61L44.39 13.76C45.8 12.05 49.41 10.09 47.42 7.51C46.71 6.59 43.35 3.2 42.44 2.53C41.82 2.08 41.07 1.94 40.31 2.06V2.07ZM34.73 7.14C34.61 7.16 33.01 8.78 32.95 8.89C32.91 8.97 32.88 9.01 32.95 9.08L41.11 17.05C41.22 16.99 42.77 15.44 42.83 15.33C42.87 15.25 42.9 15.21 42.83 15.14L34.73 7.14ZM31.41 10.46L6.65 35.22L14.71 43.35L39.54 18.59L31.41 10.46ZM12.79 44.43L5.56 37.2L4.28 42.04L8.07 45.78L12.79 44.43ZM5.86 46.48L3.52 44.14L2.54 47.46L5.86 46.48Z" fill="#5B5A5A"/>
    <path d="M15.35 42.72L14.71 43.36L6.65 35.23L6.88 35C6.25 34.67 5.74 34.22 5.35 33.68C5.03 34 4.71 34.32 4.4 34.63L4.13 35.15L0 48.63V49.31C0.31 49.87 0.65 50.06 1.29 49.97L15.32 45.64L16.3 44.66C15.84 44.09 15.52 43.42 15.34 42.71L15.35 42.72ZM2.54 47.46L3.52 44.14L5.86 46.48L2.54 47.46ZM8.08 45.79L4.29 42.05L5.57 37.21L12.8 44.44L8.08 45.79Z" fill="#C1D13F"/>
    <path d="M25.66 28.15C26.69 27.91 27.39 28.87 26.76 29.74L15.14 41.27C14.09 41.6 13.37 40.59 13.96 39.7L25.29 28.37C25.39 28.27 25.51 28.18 25.65 28.15H25.66Z" fill="#C1D13F"/>
    <path d="M28.98 24.83C30.26 24.49 30.78 26.1 29.54 26.96C28.52 27.66 27.44 26.61 28.08 25.6C28.19 25.42 28.78 24.89 28.98 24.84V24.83Z" fill="#C1D13F"/>
  </symbol>

  <symbol id="instituciones" viewBox="0 0 50 50" fill="none">
    <path d="M0 11.02C0.44 8.92997 2.02 7.31997 4.16 7.02997H24.85C25.89 7.24997 26.77 8.11997 26.87 9.20997C26.94 9.96997 26.97 12.38 26.8 13.05C26.64 13.69 25.62 14.83 24.96 14.83H7.81V42.18H17.43C17.43 42.18 17.81 42.47 17.86 42.54C18.32 43.16 17.99 44.02 17.23 44.13H6.79C6.37 44.09 6.05 43.87 5.89 43.48L5.87 13.62C5.93 13.29 6.34 12.91 6.69 12.88L24.55 12.86C24.72 12.78 24.87 12.63 24.91 12.44C24.97 12.13 24.94 9.45997 24.86 9.26997C24.78 9.07997 24.5 8.93997 24.28 8.96997H4.54C3.06 9.14997 2.07 10.18 1.95 11.66V45.37C2.08 46.85 3.07 47.88 4.54 48.05H38.34C39.82 47.93 40.85 46.93 41.02 45.46V25.54C40.98 25.33 40.79 25.14 40.58 25.1C40.21 25.03 37.93 25.03 37.56 25.1C37.32 25.15 37.11 25.38 37.11 25.63V43.13C37.11 43.72 36.77 44.08 36.19 44.15H25.74C25.08 44 24.73 43.45 24.96 42.78C25.01 42.64 25.46 42.19 25.54 42.19H35.16V25.05C35.16 24.36 36.28 23.37 36.94 23.21C37.64 23.04 40 23.07 40.78 23.14C41.86 23.24 42.76 24.1 42.97 25.16V45.85C42.77 47.81 40.93 49.76 38.97 50.01H4.01C1.94 49.57 0.44 48.08 0 46V11.02Z" fill="#5B5A5A"/>
    <path d="M47.55 0.0099718C48.85 -0.0700282 49.73 0.179972 50.01 1.58997C49.6 5.14997 49.43 8.86997 48.92 12.42C48.78 13.38 48.64 14.24 47.59 14.6C46.82 14.87 46.29 14.71 45.66 14.23C45.1 13.79 44.02 12.37 43.56 12.13C43.48 12.09 43.44 12.06 43.37 12.13L23.29 32.21C22.4 32.85 21.25 32.87 20.36 32.21C19.93 31.89 17.92 29.87 17.65 29.44C17.08 28.52 17.17 27.4 17.86 26.59L37.86 6.62997C37.93 6.55997 37.9 6.50997 37.86 6.43997C37.63 5.98997 36.23 4.92997 35.8 4.38997C34.77 3.09997 35.3 1.54997 36.89 1.17997C40.42 0.919972 44.03 0.239972 47.55 0.0199718V0.0099718ZM46.89 12.59L48.02 2.03997L37.42 3.11997C37.92 3.91997 40.25 5.57997 40.35 6.39997C40.37 6.59997 40.35 6.78997 40.24 6.95997L19.49 27.73C19.27 27.97 19.23 28.22 19.4 28.51C19.52 28.7 21.24 30.43 21.44 30.57C21.73 30.77 21.93 30.77 22.22 30.57L43.1 9.73997C43.26 9.65997 43.43 9.64997 43.6 9.66997C44.42 9.76997 46.08 12.1 46.88 12.6L46.89 12.59Z" fill="#C1D13F"/>
    <path d="M21.17 42.21C22.58 41.84 22.93 43.88 21.71 44.12C20.36 44.38 20.1 42.49 21.17 42.21Z" fill="#5B5A5A"/>
  </symbol>

  <symbol id="aspirantes" viewBox="0 0 51 51" fill="none">
    <path d="M12.9013 50C12.2313 49.67 11.9813 49.24 11.9213 48.49C11.8213 47.32 11.8513 45.47 11.9213 44.29C12.2013 39.37 15.6813 34.95 20.6113 34.09L20.5913 32.69C19.1713 31.56 18.0213 29.98 17.7613 28.15C16.7613 27.83 15.8313 27.23 15.1913 26.4C12.6313 27.72 9.4313 26.12 9.0813 23.26C5.8413 23.78 3.2213 26.73 2.7513 29.95C2.5613 31.25 2.7913 32.62 2.6413 33.84C2.4813 35.19 0.281301 35.28 0.101301 33.74C-0.288699 30.47 0.431301 26.83 2.5413 24.27C2.8213 19.57 2.1813 14.47 2.5413 9.82C2.7313 7.31 4.3113 3.79 7.1113 3.41C7.7713 1.2 9.7413 0.479998 11.8813 0.319998C18.1113 -0.120002 23.8113 3.68 23.8813 10.28C24.7513 10.44 25.7813 10.23 26.6713 10.47C26.6313 6.78 28.1313 3.52 31.3313 1.61C34.3513 -0.200002 40.8313 -1.12 42.9513 2.34C43.0813 2.56 43.2113 3.05 43.3113 3.15C43.4113 3.25 44.1913 3.46 44.4413 3.58C49.1013 5.89 50.0313 15.36 44.4513 17.12C44.1413 18.79 43.2113 20.37 41.8513 21.4L41.8013 22.71C45.5813 23.75 48.6213 26.19 49.6813 30.07L50.1013 32.04V33.99C49.6013 35.15 47.9013 35.24 47.5713 33.93C47.4713 33.53 47.6013 33.17 47.5713 32.77C47.2213 29.21 45.3013 26.29 41.7213 25.4C41.1613 29.11 36.3313 30.22 34.0513 27.26L32.3813 28.05C32.0213 29.82 31.1013 31.41 29.6813 32.52L29.6313 34.08C33.5213 34.72 36.8913 38 37.8913 41.77C38.3813 43.61 38.4413 46.38 38.3113 48.29C38.2513 49.11 38.1113 49.62 37.3313 49.99H36.5513C36.1113 49.71 35.7913 49.5 35.7013 48.94C35.4613 47.51 35.7913 45.51 35.6813 43.99C35.4313 40.6 32.9313 37.48 29.5913 36.71C28.5713 41.61 21.6713 41.68 20.7513 36.71C17.4313 37.4 14.8713 40.52 14.6013 43.89C14.4813 45.44 14.8013 47.37 14.5913 48.86C14.5113 49.44 14.1513 49.68 13.7213 49.99H12.9413L12.9013 50ZM44.6113 11.79C44.7113 12.48 44.5413 13.37 44.6113 14.08C44.7413 14.03 44.8613 13.89 44.9513 13.78C46.3413 11.87 45.5913 7.1 43.4413 5.94C42.8213 5.6 42.3813 5.76 41.7613 5.57C40.3213 5.11 41.4613 3.32 39.6613 2.89C36.6413 2.16 32.4413 2.86 30.6213 5.61C29.6213 7.11 29.1313 9.45 29.3813 11.22L30.2613 11.94C30.2613 10.23 31.4313 10.61 32.5513 10.47C34.2513 10.26 35.8013 9.77 37.2213 8.79C37.8813 8.34 39.0913 6.95 39.7813 6.95C40.0313 6.95 40.3513 7.1 40.5613 7.24C41.1013 7.62 44.0213 10.61 44.3613 11.15C44.4413 11.27 44.5913 11.66 44.6113 11.78V11.79ZM19.5313 9.64C19.6013 10.16 19.4813 10.81 19.5313 11.35L21.2913 10.7C21.2913 9.1 20.9013 7.47 20.0013 6.14C18.1213 3.38 14.0513 2.39 10.9013 3.06C8.8213 3.5 10.0613 5.54 8.5313 5.86C7.7813 6.02 7.3513 5.84 6.6513 6.42C5.7213 7.19 5.0913 9.45 5.0813 10.62C5.0613 14.33 5.3113 18.11 5.1913 21.85C5.1613 22.19 5.5213 21.83 5.6813 21.75C6.7113 21.21 7.8313 20.72 9.0013 20.63C8.9413 20.2 9.1013 19.53 8.9813 19.14C8.9513 19.04 8.2213 18.26 8.0613 18.01C7.7213 17.49 7.3613 16.74 7.1913 16.14C6.9013 15.06 6.7813 12.03 6.9513 10.92C7.2013 9.28 9.9113 9.89 11.0913 9.79C12.2713 9.69 13.6313 9.19 14.5513 8.47C15.5513 7.68 15.6213 6.6 17.2513 7.06C18.2813 7.35 19.3913 8.59 19.5413 9.65L19.5313 9.64ZM16.9013 13.16V9.89C14.9013 11.73 12.2913 12.55 9.5813 12.43V15.11C9.5813 15.16 9.7813 15.73 9.8313 15.84C10.5013 17.56 12.5013 18.77 14.2713 18.01C14.6613 16.18 15.5713 14.46 16.9013 13.15V13.16ZM36.2413 20.21C38.4913 20.79 40.8513 19.6 41.6613 17.42C42.2413 15.87 41.8913 14.02 41.9613 12.39L39.7613 10.18L39.5413 10.22C37.6913 11.86 35.2713 12.82 32.8013 13L32.8213 14.25C34.8613 15.46 35.8413 17.95 36.2313 20.2L36.2413 20.21ZM32.4113 25.11C32.8313 24.94 33.1313 24.42 33.3113 24C34.2113 21.85 33.5213 17.38 31.2313 16.28C30.5013 15.93 29.6413 16.18 29.1013 15.68C28.4213 15.04 29.0013 13.83 27.7913 13.28C27.4113 13.11 26.2813 12.94 25.8213 12.91C19.8713 12.49 16.0713 16.03 16.4013 22.04C16.4613 23.1 16.6813 24.44 17.5813 25.11V22.23C17.5813 22.15 17.8513 21.69 17.9313 21.61C18.4613 21.04 19.9913 21.22 20.8213 21.09C22.3013 20.85 23.9313 20.13 25.1213 19.25C26.0213 18.58 26.7013 17.33 27.9213 17.65C28.3613 17.77 29.9413 19.46 30.3613 19.89C31.0613 20.62 31.7413 21.38 32.4113 22.14V25.12V25.11ZM11.6313 20.62V23.11C11.6313 23.39 12.3913 24.11 12.7013 24.19C13.0113 24.27 13.7513 24.3 13.9813 24.09C14.1713 23.91 13.9013 23.22 13.8813 22.92C13.8413 22.23 13.9113 21.52 13.8813 20.82C13.1213 20.85 12.3713 20.82 11.6413 20.63L11.6313 20.62ZM20.2213 23.75C20.3213 25.58 19.8713 27.41 20.7913 29.09C22.4413 32.08 26.6613 32.4 28.8113 29.75C30.3413 27.86 29.7913 25.48 29.8813 23.22L27.4813 20.74C25.4013 22.41 22.9213 23.58 20.2213 23.76V23.75ZM39.2513 22.77C38.2213 22.91 37.2713 23.07 36.2213 22.87C36.2413 24.04 35.2013 24.97 36.3113 25.95C37.1613 26.69 38.5413 26.47 39.0313 25.44C39.0713 25.35 39.2413 24.92 39.2413 24.87V22.77H39.2513ZM26.9513 33.9C25.7413 34.19 24.4413 34.25 23.2413 33.9V36.49C23.2413 36.72 23.8113 37.41 24.0313 37.56C24.8513 38.11 26.0213 37.93 26.6013 37.12C26.6613 37.04 26.9513 36.53 26.9513 36.49V33.9Z" fill="#5B5A5A"/>
    <path d="M2.6213 37.25C4.0213 38.75 1.5313 40.8 0.371301 39.06C-0.648699 37.53 1.4613 36 2.6213 37.25Z" fill="#5B5A5A"/>
    <path d="M48.2013 36.85C50.3413 36.41 50.6313 39.62 48.6413 39.73C46.8413 39.83 46.6013 37.18 48.2013 36.85Z" fill="#5B5A5A"/>
    <path d="M29.5913 34.09L29.6413 32.53C31.0713 31.42 31.9813 29.83 32.3413 28.06L34.0113 27.27C34.0113 27.27 34.0913 27.35 34.1213 27.4C35.5713 22.97 35.7313 18.18 33.4913 14.74C33.2813 14.57 33.0613 14.4 32.8213 14.26V13.84C32.1313 13.03 31.3013 12.31 30.2813 11.73C30.2813 11.8 30.2613 11.86 30.2613 11.95L29.5713 11.39C28.9213 11.08 28.2313 10.79 27.4513 10.58C27.1613 10.5 26.9013 10.4 26.6613 10.29C26.6613 10.36 26.6513 10.42 26.6513 10.49C25.7613 10.26 24.7313 10.46 23.8613 10.3C23.8613 10.11 23.8413 9.93 23.8213 9.74C22.9113 9.91 22.0513 10.11 21.2613 10.38C21.2613 10.49 21.2813 10.61 21.2813 10.72L19.5213 11.37C19.5213 11.29 19.5213 11.2 19.5213 11.11C18.5513 11.62 17.6813 12.29 16.8913 13.17C15.5513 14.48 14.6513 16.2 14.2613 18.03C14.1613 18.07 14.0613 18.09 13.9613 18.12C13.9713 18.61 13.9213 19.12 13.7713 19.66C13.6713 20.05 13.6113 20.44 13.6013 20.84C13.6913 20.84 13.7813 20.84 13.8713 20.84C13.9013 21.53 13.8313 22.24 13.8713 22.94C13.8813 23.11 13.9713 23.42 14.0113 23.68C14.2813 24.63 14.6413 25.59 14.9613 26.53C15.0413 26.5 15.1113 26.47 15.1913 26.43C15.8213 27.26 16.7513 27.86 17.7613 28.18C18.0213 30.01 19.1713 31.59 20.5913 32.72L20.6113 34.12C15.6813 34.98 12.2013 39.4 11.9213 44.32C11.8513 45.51 11.8213 47.36 11.9213 48.52C11.9813 49.27 12.2213 49.7 12.9013 50.03H13.6813C14.1113 49.72 14.4713 49.48 14.5513 48.9C14.7613 47.42 14.4413 45.48 14.5613 43.93C14.8313 40.57 17.3813 37.44 20.7113 36.75C21.6313 41.71 28.5313 41.65 29.5513 36.75C32.8913 37.52 35.3913 40.63 35.6413 44.03C35.7513 45.55 35.4213 47.56 35.6613 48.98C35.7513 49.54 36.0713 49.75 36.5113 50.03H37.2913C38.0713 49.66 38.2113 49.15 38.2713 48.33C38.4013 46.42 38.3413 43.65 37.8513 41.81C36.8513 38.04 33.4813 34.75 29.5913 34.12V34.09ZM17.9313 21.61C17.8513 21.7 17.5813 22.16 17.5813 22.23V25.11C16.6813 24.44 16.4613 23.1 16.4013 22.04C16.0713 16.03 19.8713 12.49 25.8213 12.91C26.2813 12.94 27.4113 13.11 27.7913 13.28C29.0013 13.83 28.4213 15.03 29.1013 15.68C29.6413 16.19 30.4913 15.93 31.2313 16.28C33.5213 17.38 34.2013 21.85 33.3113 24C33.1413 24.41 32.8313 24.93 32.4113 25.11V22.13C31.7413 21.38 31.0613 20.61 30.3613 19.88C29.9413 19.44 28.3613 17.75 27.9213 17.64C26.7013 17.32 26.0213 18.57 25.1213 19.24C23.9213 20.12 22.2913 20.85 20.8213 21.08C19.9913 21.21 18.4613 21.03 17.9313 21.6V21.61ZM26.9513 36.48C26.9513 36.48 26.6613 37.03 26.6013 37.11C26.0213 37.91 24.8413 38.09 24.0313 37.55C23.8113 37.41 23.2413 36.71 23.2413 36.48V33.89C24.4413 34.24 25.7413 34.18 26.9513 33.89V36.48ZM28.8013 29.75C26.6613 32.4 22.4313 32.08 20.7813 29.09C19.8613 27.41 20.3113 25.59 20.2113 23.75C22.9013 23.57 25.3913 22.4 27.4713 20.73L29.8713 23.21C29.7813 25.47 30.3313 27.85 28.8013 29.74V29.75Z" fill="#C1D13F"/>
  </symbol>

</svg>