<?xml version="1.0" encoding="UTF-8"?>
<svg id="Capa_2" data-name="Capa 2" xmlns="http://www.w3.org/2000/svg" viewBox="0 0 82.28 82.12">
  <defs>
    <style>
      .cls-1 {
        fill: none;
        stroke: #000;
        stroke-linecap: round;
        stroke-linejoin: round;
        stroke-width: 5px;
      }
    </style>
  </defs>
  <g id="Capa_1-2" data-name="Capa 1">
    <g>
      <g>
        <circle class="cls-1" cx="20.14" cy="19.64" r="10.02"/>
        <path class="cls-1" d="M28.34,13.89c1.32-.62,2.69-1.14,4.1-1.57,2.14-.64,3.62-2.57,3.62-4.8h0c0-3.31-3.17-5.76-6.35-4.82C16.75,6.53,6.53,16.75,2.7,29.71c-.94,3.17,1.51,6.35,4.82,6.35h0c2.23,0,4.16-1.49,4.8-3.62,.49-1.64,1.12-3.22,1.87-4.73"/>
      </g>
      <g>
        <circle class="cls-1" cx="62.64" cy="20.14" r="10.02"/>
        <path class="cls-1" d="M68.39,28.34c.62,1.32,1.14,2.69,1.57,4.1,.64,2.14,2.57,3.62,4.8,3.62h0c3.31,0,5.76-3.17,4.82-6.35-3.83-12.96-14.04-23.18-27.01-27.01-3.17-.94-6.35,1.51-6.35,4.82h0c0,2.23,1.49,4.16,3.62,4.8,1.64,.49,3.22,1.12,4.73,1.87"/>
      </g>
      <g>
        <circle class="cls-1" cx="62.14" cy="62.48" r="10.02"/>
        <path class="cls-1" d="M53.94,68.23c-1.32,.62-2.69,1.14-4.1,1.57-2.14,.64-3.62,2.57-3.62,4.8h0c0,3.31,3.17,5.76,6.35,4.82,12.96-3.83,23.18-14.04,27.01-27.01,.94-3.17-1.51-6.35-4.82-6.35h0c-2.23,0-4.16,1.49-4.8,3.62-.49,1.64-1.12,3.22-1.87,4.73"/>
      </g>
      <g>
        <circle class="cls-1" cx="19.64" cy="61.99" r="10.02"/>
        <path class="cls-1" d="M13.89,53.78c-.62-1.32-1.14-2.69-1.57-4.1-.64-2.14-2.57-3.62-4.8-3.62h0c-3.31,0-5.76,3.17-4.82,6.35,3.83,12.96,14.04,23.18,27.01,27.01,3.17,.94,6.35-1.51,6.35-4.82h0c0-2.23-1.49-4.16-3.62-4.8-1.64-.49-3.22-1.12-4.73-1.87"/>
      </g>
    </g>
  </g>
</svg>