<svg xmlns="http://www.w3.org/2000/svg" xmlns:xlink="http://www.w3.org/1999/xlink" style="display:none">

  <symbol id="gratuidad" viewBox="0 0 50 50" fill="none">
    <path d="M21.09 15.63C20.52 15.63 19.99 15.8 19.53 16.06V10.94C19.53 9.21996 18.13 7.80996 16.4 7.80996C15.81 7.80996 15.27 7.97996 14.8 8.25996C14.63 6.68996 13.32 5.45996 11.71 5.45996C10.1 5.45996 8.79 6.68996 8.62 8.25996C8.15 7.97996 7.61 7.80996 7.02 7.80996C6.19 7.80996 5.4 8.13996 4.81 8.72996C4.22 9.31996 3.89 10.11 3.89 10.94V19.81C3.4 19.64 2.88 19.54 2.33 19.54C1.04 19.54 -0.0100021 20.59 -0.0100021 21.88V28.39C-0.0100021 29.4 0.319998 30.4 0.929998 31.2L2.49 33.28C3.74 34.95 4.49 36.98 4.65 39.06H3.9C3.47 39.06 3.12 39.41 3.12 39.84V49.22C3.12 49.65 3.47 50 3.9 50H22.65C23.08 50 23.43 49.65 23.43 49.22V39.84C23.43 39.41 23.08 39.06 22.65 39.06H21.87V37.15C21.87 36.47 22.03 35.8 22.34 35.19L23.59 32.68C24 31.86 24.22 30.95 24.22 30.02V18.74C24.22 17.02 22.82 15.61 21.09 15.61V15.63ZM21.88 48.44H4.69V40.63H21.88V48.44ZM22.66 30.03C22.66 30.71 22.5 31.38 22.19 31.99L20.94 34.5C20.53 35.32 20.31 36.23 20.31 37.16V39.07H6.22C6.07 36.65 5.21 34.29 3.75 32.35L2.19 30.27C1.79 29.73 1.57 29.07 1.57 28.4V21.89C1.57 21.46 1.92 21.11 2.35 21.11C4.07 21.11 5.48 22.51 5.48 24.24V26.58C5.48 26.89 5.67 27.18 5.95 27.3L7.63 28.02C9.64 28.88 10.94 30.86 10.94 33.05V35.18C10.94 35.61 11.29 35.96 11.72 35.96C12.15 35.96 12.5 35.61 12.5 35.18V33.05C12.5 30.23 10.83 27.7 8.24 26.59L7.03 26.07V24.24C7.03 22.86 6.42 21.61 5.47 20.76V10.96C5.47 10.54 5.63 10.15 5.93 9.85996C6.23 9.56996 6.62 9.39996 7.03 9.39996C7.89 9.39996 8.59 10.1 8.59 10.96V22.68C8.59 23.11 8.94 23.46 9.37 23.46C9.8 23.46 10.15 23.11 10.15 22.68V8.61996C10.15 7.75996 10.85 7.05996 11.71 7.05996C12.57 7.05996 13.27 7.75996 13.27 8.61996V22.68C13.27 23.11 13.62 23.46 14.05 23.46C14.48 23.46 14.83 23.11 14.83 22.68V10.96C14.83 10.1 15.53 9.39996 16.39 9.39996C17.25 9.39996 17.95 10.1 17.95 10.96V22.68C17.95 23.11 18.3 23.46 18.73 23.46C19.16 23.46 19.51 23.11 19.51 22.68V18.77C19.51 17.91 20.21 17.21 21.07 17.21C21.93 17.21 22.63 17.91 22.63 18.77V30.05L22.66 30.03Z" fill="#5C5B5B"/>
    <path d="M25.78 0.78C25.78 0.35 25.43 0 25 0C24.57 0 24.22 0.35 24.22 0.78V3.91C24.22 4.34 24.57 4.69 25 4.69C25.43 4.69 25.78 4.34 25.78 3.91V0.78Z" fill="#C1D13F"/>
    <path d="M20.54 6.79994C20.69 6.94994 20.89 7.02994 21.09 7.02994C21.29 7.02994 21.49 6.94994 21.64 6.79994C21.95 6.48994 21.95 5.99994 21.64 5.69994L19.3 3.35994C18.99 3.04994 18.5 3.04994 18.2 3.35994C17.9 3.66994 17.89 4.15994 18.2 4.45994L20.54 6.79994Z" fill="#C1D13F"/>
    <path d="M28.91 7.02999C29.11 7.02999 29.31 6.94999 29.46 6.79999L31.8 4.45999C32.11 4.14999 32.11 3.65999 31.8 3.35999C31.49 3.05999 31 3.04999 30.7 3.35999L28.36 5.69999C28.05 6.00999 28.05 6.49999 28.36 6.79999C28.51 6.94999 28.71 7.02999 28.91 7.02999Z" fill="#C1D13F"/>
    <path d="M47.66 19.53C47.11 19.53 46.59 19.63 46.1 19.8V10.93C46.1 10.1 45.77 9.30995 45.18 8.71995C44.59 8.12995 43.8 7.79995 42.97 7.79995C42.38 7.79995 41.84 7.96995 41.37 8.24995C41.2 6.67995 39.89 5.44995 38.28 5.44995C36.67 5.44995 35.36 6.67995 35.19 8.24995C34.72 7.96995 34.18 7.79995 33.59 7.79995C31.87 7.79995 30.46 9.19995 30.46 10.93V16.05C30 15.78 29.47 15.62 28.9 15.62C27.18 15.62 25.77 17.02 25.77 18.75V30.03C25.77 30.95 25.99 31.8699 26.4 32.6899L27.65 35.2C27.96 35.8 28.12 36.4799 28.12 37.16V39.07H27.34C26.91 39.07 26.56 39.4199 26.56 39.8499V49.2299C26.56 49.66 26.91 50.0099 27.34 50.0099H46.09C46.52 50.0099 46.87 49.66 46.87 49.2299V39.8499C46.87 39.4199 46.52 39.07 46.09 39.07H45.34C45.49 36.99 46.24 34.96 47.5 33.29L49.06 31.2099C49.67 30.41 50 29.41 50 28.4V21.8899C50 20.5999 48.95 19.55 47.66 19.55V19.53ZM45.31 48.4399H28.12V40.63H45.31V48.4399ZM48.44 28.3899C48.44 29.0599 48.22 29.73 47.82 30.26L46.26 32.34C44.8 34.28 43.95 36.64 43.79 39.06H29.7V37.15C29.7 36.23 29.48 35.31 29.07 34.49L27.82 31.9799C27.51 31.3799 27.35 30.7 27.35 30.02V18.74C27.35 17.88 28.05 17.18 28.91 17.18C29.77 17.18 30.47 17.88 30.47 18.74V22.65C30.47 23.08 30.82 23.43 31.25 23.43C31.68 23.43 32.03 23.08 32.03 22.65V10.93C32.03 10.07 32.73 9.36995 33.59 9.36995C34.45 9.36995 35.15 10.07 35.15 10.93V22.65C35.15 23.08 35.5 23.43 35.93 23.43C36.36 23.43 36.71 23.08 36.71 22.65V8.58995C36.71 7.72995 37.41 7.02995 38.27 7.02995C39.13 7.02995 39.83 7.72995 39.83 8.58995V22.65C39.83 23.08 40.18 23.43 40.61 23.43C41.04 23.43 41.39 23.08 41.39 22.65V10.93C41.39 10.07 42.09 9.36995 42.95 9.36995C43.37 9.36995 43.76 9.52995 44.05 9.82995C44.34 10.13 44.51 10.52 44.51 10.93V20.73C43.55 21.59 42.95 22.83 42.95 24.2099V26.04L41.74 26.56C39.15 27.67 37.48 30.21 37.48 33.02V35.15C37.48 35.58 37.83 35.93 38.26 35.93C38.69 35.93 39.04 35.58 39.04 35.15V33.02C39.04 30.83 40.34 28.86 42.35 27.99L44.03 27.27C44.32 27.15 44.5 26.8599 44.5 26.5499V24.2099C44.5 22.49 45.9 21.08 47.63 21.08C48.06 21.08 48.41 21.43 48.41 21.86V28.37L48.44 28.3899Z" fill="#5C5B5B"/>
  </symbol>

  <symbol id="valides" viewBox="0 0 50 50" fill="none">
    <path d="M25 40.8499C16.26 40.8499 9.14999 33.7399 9.14999 24.9999C9.14999 16.2599 16.26 9.1499 25 9.1499C33.74 9.1499 40.85 16.2599 40.85 24.9999C40.85 33.7399 33.74 40.8499 25 40.8499ZM25 10.6899C17.11 10.6899 10.69 17.1099 10.69 24.9999C10.69 32.8899 17.11 39.3099 25 39.3099C32.89 39.3099 39.31 32.8899 39.31 24.9999C39.31 17.1099 32.89 10.6899 25 10.6899Z" fill="#5C5B5B"/>
    <path d="M23.49 30.29C23.29 30.29 23.09 30.21 22.95 30.06L16.92 24.03C16.62 23.73 16.62 23.24 16.92 22.94C17.22 22.64 17.71 22.64 18.01 22.94L23.5 28.43L32 19.93C32.3 19.63 32.79 19.63 33.09 19.93C33.39 20.23 33.39 20.72 33.09 21.02L24.04 30.07C23.9 30.21 23.7 30.3 23.5 30.3L23.49 30.29Z" fill="#C1D13F"/>
    <path d="M25 50C24.13 50 23.26 49.7 22.55 49.09L18.8 45.7999L12.56 46.2799C10.69 46.41 9.03 45.2099 8.59 43.3899L7.33 38.18L1.82 34.9C0.219998 33.92 -0.420002 31.9499 0.289998 30.2299L2.46 24.9799L0.289998 19.7299C-0.420002 18 0.209997 16.04 1.81 15.06L6.86 12.06L8.6 6.50995C9.02 4.73995 10.7 3.53995 12.56 3.66995L18.87 4.15995L22.54 0.919951C22.54 0.919951 22.54 0.919951 22.55 0.919951C23.97 -0.290049 26.04 -0.290049 27.46 0.919951L31.14 4.16995L37.45 3.67995C39.31 3.54995 40.98 4.74995 41.42 6.56995L42.67 11.76L48.19 15.06C49.79 16.04 50.43 18.01 49.71 19.7299L47.54 24.9799L49.71 30.2299C50.42 31.9599 49.78 33.92 48.19 34.9L42.67 38.2099L41.42 43.4C40.98 45.22 39.31 46.42 37.45 46.29L31.21 45.81L27.47 49.09C26.75 49.7 25.88 50.0099 25 50.0099V50ZM19.06 44.24C19.25 44.24 19.43 44.31 19.57 44.43L23.55 47.93C24.39 48.6399 25.61 48.6399 26.46 47.93L30.43 44.4399C30.59 44.2999 30.79 44.24 31 44.25L37.57 44.7599C38.67 44.8499 39.67 44.13 39.93 43.0499L41.26 37.54C41.31 37.34 41.44 37.17 41.61 37.06L47.4 33.59C48.34 33.0099 48.72 31.85 48.29 30.82L46 25.27C45.92 25.08 45.92 24.87 46 24.68L48.29 19.1299C48.71 18.0999 48.33 16.94 47.39 16.36L41.6 12.9C41.42 12.79 41.3 12.62 41.25 12.42L39.92 6.90995C39.66 5.82995 38.68 5.09995 37.56 5.19995L30.93 5.70995C30.72 5.70995 30.52 5.65995 30.36 5.51995L26.44 2.05995C25.61 1.34995 24.39 1.34995 23.54 2.05995L19.63 5.50995C19.47 5.64995 19.27 5.70995 19.06 5.69995L12.43 5.18995C11.33 5.09995 10.33 5.81995 10.07 6.89995L8.23 12.78C8.17 12.96 8.05 13.11 7.89 13.21L2.6 16.35C1.67 16.92 1.29 18.09 1.71 19.12L4 24.67C4.08 24.86 4.08 25.07 4 25.26L1.71 30.8099C1.29 31.84 1.67 33 2.61 33.58L8.39 37.02C8.57 37.13 8.7 37.2999 8.74 37.5L10.07 43.0299C10.33 44.11 11.3 44.84 12.43 44.74L19 44.2299C19 44.2299 19.04 44.2299 19.06 44.2299V44.24Z" fill="#5C5B5B"/>
  </symbol>

  <symbol id="modalidad" viewBox="0 0 50 51" fill="none">
    <path d="M20.46 35.4H12.06C11.62 35.4 11.27 35.75 11.27 36.19C11.27 36.63 11.62 36.98 12.06 36.98H20.46C20.9 36.98 21.25 36.63 21.25 36.19C21.25 35.75 20.9 35.4 20.46 35.4Z" fill="#5C5B5B"/>
    <path d="M20.46 38.55H12.06C11.62 38.55 11.27 38.9 11.27 39.34C11.27 39.78 11.62 40.1301 12.06 40.1301H20.46C20.9 40.1301 21.25 39.78 21.25 39.34C21.25 38.9 20.9 38.55 20.46 38.55Z" fill="#5C5B5B"/>
    <path d="M20.46 32.25H16.68C16.24 32.25 15.89 32.6 15.89 33.04C15.89 33.48 16.24 33.83 16.68 33.83H20.46C20.9 33.83 21.25 33.48 21.25 33.04C21.25 32.6 20.9 32.25 20.46 32.25Z" fill="#5C5B5B"/>
    <path d="M12.0499 33.83H13.8399C14.2799 33.83 14.6299 33.48 14.6299 33.04C14.6299 32.6 14.2799 32.25 13.8399 32.25H12.0499C11.6099 32.25 11.2599 32.6 11.2599 33.04C11.2599 33.48 11.6099 33.83 12.0499 33.83Z" fill="#5C5B5B"/>
    <path d="M40.85 14.24H43.87C45.17 14.24 46.23 15.3 46.23 16.6V26.9C46.23 27.34 46.58 27.69 47.02 27.69C47.46 27.69 47.81 27.34 47.81 26.9V16.6C47.81 14.43 46.05 12.66 43.87 12.66H40.85C40.41 12.66 40.06 13.01 40.06 13.45C40.06 13.89 40.41 14.24 40.85 14.24Z" fill="#5C5B5B"/>
    <path d="M48.13 43.12H47.81V29.2C47.81 28.76 47.46 28.41 47.02 28.41C46.58 28.41 46.23 28.76 46.23 29.2V43.12H16.45C16.01 43.12 15.66 43.47 15.66 43.91C15.66 44.35 16.01 44.7 16.45 44.7H18.91V46.01C18.91 47.02 19.73 47.85 20.75 47.85H29.15C30.16 47.85 30.99 47.03 30.99 46.01V44.7H48.11C48.26 44.7 48.37 44.82 48.37 44.96V46.01C48.37 47.89 46.84 49.42 44.96 49.42H4.96C3.08 49.42 1.55 47.89 1.55 46.01V44.96C1.55 44.82 1.67 44.7 1.81 44.7H14.1C14.54 44.7 14.89 44.35 14.89 43.91C14.89 43.47 14.54 43.12 14.1 43.12H7.9V18.7C7.9 18.56 8.02 18.44 8.16 18.44H9.18C9.62 18.44 9.97 18.09 9.97 17.65C9.97 17.21 9.62 16.86 9.18 16.86H8.16C7.15 16.86 6.32 17.68 6.32 18.7V43.12H3.69V16.6C3.69 15.3 4.75 14.24 6.05 14.24H10.57C10.54 14.64 10.52 15.04 10.52 15.45C10.52 22.99 16.32 29.26 23.84 29.85V29.89C23.91 29.85 23.98 29.83 24.05 29.82C24.05 29.82 24.05 29.82 24.06 29.81C24.08 29.79 24.11 29.76 24.13 29.74C24.13 29.74 24.13 29.74 24.14 29.72C24.16 29.69 24.18 29.65 24.2 29.62C24.22 29.56 24.24 29.49 24.26 29.42C24.26 29.42 24.26 29.37 24.27 29.34C24.27 29.32 24.27 29.29 24.27 29.29C24.27 29.13 24.27 28.97 24.26 28.82C24.26 28.78 24.26 28.78 24.26 28.82C24.26 28.8 24.26 28.78 24.26 28.75C24.26 28.71 24.24 28.66 24.23 28.62C24.21 28.51 24.17 28.41 24.14 28.3C24.08 28.13 24.01 27.99 23.94 27.82C23.85 27.62 23.76 27.43 23.7 27.22C23.65 27.04 23.63 26.94 23.53 26.8C23.5 26.76 23.49 26.71 23.48 26.66C23.48 26.7 23.48 26.75 23.48 26.79C22.77 26.12 22.1 24.99 21.56 23.5C22.66 23.4 23.81 23.34 24.98 23.34C26.15 23.34 27.29 23.39 28.4 23.5C28.11 24.36 27.7 25.17 27.21 25.93C27.23 25.99 27.25 26.05 27.25 26.11C27.25 26.11 27.25 26.13 27.25 26.14C27.28 26.15 27.31 26.14 27.34 26.16C27.46 26.21 27.59 26.27 27.71 26.32C27.71 26.32 27.72 26.32 27.73 26.32C27.77 26.34 27.82 26.36 27.86 26.37C27.94 26.39 28.03 26.43 28.11 26.43C28.14 26.43 28.16 26.43 28.17 26.43C28.23 26.43 28.28 26.43 28.34 26.43C28.43 26.43 28.54 26.43 28.63 26.41C28.49 26.45 28.66 26.41 28.69 26.4C28.72 26.4 28.75 26.39 28.78 26.38C29.28 25.53 29.69 24.63 30 23.69C31.36 23.88 32.7 24.19 34.01 24.61C33.03 25.58 31.9 26.39 30.67 27L30.62 26.98C30.62 27.04 30.62 27.11 30.62 27.17C30.6 27.26 30.58 27.34 30.57 27.43C30.57 27.43 30.57 27.43 30.57 27.44C30.63 27.47 30.68 27.5 30.74 27.52C30.77 27.52 30.79 27.54 30.82 27.55C30.94 27.59 31.06 27.63 31.18 27.66C31.25 27.68 31.31 27.69 31.38 27.7C31.41 27.7 31.44 27.7 31.47 27.71C31.74 27.73 32 27.74 32.26 27.71C32.27 27.71 32.27 27.71 32.28 27.71C32.3 27.71 32.32 27.71 32.34 27.7C32.41 27.69 32.47 27.67 32.53 27.66C32.62 27.64 32.7 27.61 32.79 27.58C36.04 25.5 38.32 22.2 39.12 18.42H41.8C41.95 18.42 42.06 18.54 42.06 18.68V41.58C42.06 42.02 42.41 42.37 42.85 42.37C43.29 42.37 43.64 42.02 43.64 41.58V18.68C43.64 17.67 42.82 16.84 41.8 16.84H39.37C39.42 16.37 39.44 15.9 39.44 15.42C39.44 7.45998 32.96 0.97998 25 0.97998C17.99 0.97998 12.13 5.99998 10.83 12.64H6.1C3.93 12.64 2.16 14.4 2.16 16.58V43.1H1.84C0.83 43.1 0 43.92 0 44.94V45.99C0 48.74 2.24 50.98 4.99 50.98H45.01C47.76 50.98 50 48.74 50 45.99V44.94C50 43.93 49.18 43.1 48.16 43.1L48.13 43.12ZM29.43 46.01C29.43 46.15 29.31 46.27 29.17 46.27H20.77C20.62 46.27 20.51 46.15 20.51 46.01V44.7H29.44V46.01H29.43ZM22.57 28.09C20.06 27.62 17.75 26.4 15.93 24.6C17.24 24.18 18.58 23.87 19.94 23.68C20.6 25.63 21.51 27.16 22.57 28.08V28.09ZM28.86 21.96C26.27 21.69 23.66 21.69 21.07 21.96C20.6 20.09 20.34 18.17 20.3 16.23H29.63C29.59 18.16 29.33 20.08 28.86 21.95V21.96ZM20.31 14.66C20.35 12.73 20.61 10.81 21.08 8.92998C22.37 9.05998 23.67 9.12998 24.97 9.12998C26.27 9.12998 27.57 9.05998 28.87 8.92998C29.34 10.8 29.6 12.72 29.64 14.66H20.31ZM35.13 23.33C33.78 22.82 32.19 22.43 30.44 22.16C30.91 20.22 31.17 18.23 31.21 16.23H37.81C37.65 18.81 36.71 21.28 35.13 23.33ZM37.81 14.66H31.21C31.17 12.66 30.91 10.67 30.44 8.72998C32.19 8.45998 33.79 8.06998 35.13 7.55998C36.72 9.59998 37.66 12.08 37.81 14.66ZM34 6.28998C32.69 6.70998 31.35 7.01998 29.99 7.20998C29.86 6.80998 29.71 6.42998 29.56 6.05998C28.95 4.61998 28.2 3.51998 27.38 2.79998C29.89 3.27998 32.19 4.48998 34.01 6.27998L34 6.28998ZM24.97 3.38998C26.08 3.38998 27.22 4.58998 28.11 6.66998C28.21 6.89998 28.3 7.13998 28.39 7.38998C27.29 7.49998 26.14 7.54998 24.97 7.54998C23.8 7.54998 22.66 7.49998 21.55 7.38998C22.47 4.87998 23.75 3.38998 24.97 3.38998ZM22.56 2.79998C21.73 3.51998 20.99 4.61998 20.38 6.05998C20.22 6.41998 20.08 6.80998 19.95 7.20998C18.59 7.01998 17.25 6.71998 15.94 6.28998C17.75 4.49998 20.06 3.27998 22.57 2.80998L22.56 2.79998ZM14.81 7.55998C16.15 8.06998 17.75 8.45998 19.5 8.72998C19.03 10.67 18.77 12.66 18.73 14.66H12.13C12.29 12.08 13.22 9.59998 14.81 7.55998ZM18.73 16.23C18.77 18.23 19.02 20.22 19.49 22.16C17.74 22.43 16.14 22.83 14.8 23.33C13.21 21.29 12.28 18.81 12.12 16.23H18.72H18.73Z" fill="#5C5B5B"/>
    <path d="M24.76 37.37C24.85 38.11 25.52 38.64 26.26 38.55C26.65 38.5 27 38.29 27.22 37.97L28.46 36.14L32.1 40.48C32.78 41.29 33.99 41.39 34.8 40.72L36.97 38.9C37.78 38.22 37.89 37.01 37.21 36.2L33.57 31.86L35.58 30.96C36.26 30.66 36.57 29.86 36.26 29.18C36.1 28.82 35.79 28.55 35.42 28.44L25.22 25.33C24.78 25.2 24.31 25.29 23.96 25.59C23.61 25.88 23.43 26.33 23.49 26.79C23.67 27.87 24.78 37.38 24.78 37.38L24.76 37.37ZM34.38 29.77L31.96 30.85C31.56 31.03 31.38 31.49 31.56 31.89C31.59 31.96 31.63 32.02 31.68 32.08L35.99 37.22C36.11 37.36 36.09 37.58 35.95 37.7L33.78 39.52C33.64 39.64 33.42 39.62 33.3 39.48L28.99 34.34C28.84 34.16 28.62 34.06 28.39 34.06C28.38 34.06 28.36 34.06 28.35 34.06C28.1 34.07 27.88 34.2 27.74 34.41L26.26 36.6L25.09 26.95L34.39 29.78L34.38 29.77Z" fill="#C1D13F"/>
  </symbol>

  <symbol id="disponible" viewBox="0 0 48 48" fill="none">
    <path d="M43.9 38.68L42.6 37.72C45.64 33.63 47.25 28.76 47.25 23.62C47.25 10.6 36.65 0 23.63 0C19.73 0 15.86 0.97 12.43 2.81C12.27 2.89 12.16 3.03 12.11 3.2C12.06 3.37 12.08 3.55 12.16 3.71L13.68 6.52C13.85 6.84 14.26 6.96 14.58 6.79C17.33 5.3 20.46 4.52 23.63 4.52C34.17 4.52 42.74 13.09 42.74 23.63C42.74 27.8 41.43 31.75 38.96 35.05L37.88 34.25C37.67 34.1 37.4 34.08 37.17 34.2C36.95 34.32 36.81 34.56 36.82 34.82L37.12 40.21C37.13 40.4 37.22 40.57 37.37 40.69C37.49 40.79 37.64 40.83 37.8 40.84C37.83 40.84 37.87 40.84 37.9 40.84L43.63 39.89C43.89 39.85 44.1 39.65 44.17 39.39C44.23 39.13 44.13 38.86 43.92 38.7L43.9 38.68ZM39.6 36.38C42.52 32.74 44.06 28.33 44.06 23.63C44.06 12.36 34.89 3.2 23.63 3.2C20.48 3.2 17.33 3.93 14.54 5.32L13.65 3.68C16.73 2.14 20.18 1.33 23.63 1.33C35.93 1.33 45.93 11.33 45.93 23.63C45.93 28.71 44.28 33.49 41.15 37.46C41.04 37.6 40.99 37.78 41.01 37.96C41.03 38.14 41.13 38.3 41.27 38.41L41.85 38.83L38.4 39.4L38.22 36.15L38.69 36.5C38.98 36.71 39.38 36.66 39.6 36.38Z" fill="#5C5B5B"/>
    <path d="M33.58 40.73C33.41 40.41 33.01 40.29 32.68 40.46C29.9 41.95 26.77 42.74 23.63 42.74C13.09 42.74 4.52 34.17 4.52 23.63C4.52 19.46 5.83 15.51 8.3 12.21L9.38 13C9.58 13.15 9.86 13.17 10.09 13.05C10.31 12.93 10.45 12.68 10.44 12.43L10.14 7.04C10.13 6.85 10.04 6.68 9.89 6.56C9.74 6.44 9.55 6.39 9.37 6.42L3.64 7.37C3.38 7.41 3.17 7.61 3.1 7.87C3.03 8.13 3.14 8.4 3.35 8.56L4.65 9.52C1.61 13.61 0 18.48 0 23.63C0 36.66 10.6 47.26 23.63 47.26C27.53 47.26 31.4 46.29 34.83 44.45C34.98 44.37 35.1 44.22 35.15 44.06C35.2 43.89 35.18 43.71 35.1 43.55L33.58 40.74V40.73ZM6.11 9.8C6.22 9.66 6.27 9.48 6.24 9.3C6.22 9.12 6.12 8.96 5.98 8.85L5.4 8.43L8.85 7.86L9.03 11.11L8.56 10.77C8.27 10.56 7.87 10.61 7.65 10.89C4.73 14.53 3.19 18.94 3.19 23.64C3.19 34.91 12.36 44.07 23.62 44.07C26.75 44.07 29.9 43.33 32.71 41.94L33.6 43.58C30.52 45.12 27.07 45.93 23.62 45.93C11.32 45.93 1.32 35.93 1.32 23.63C1.32 18.55 2.97 13.77 6.1 9.8H6.11Z" fill="#5C5B5B"/>
    <path d="M23.64 11.23C24.01 11.23 24.3 10.93 24.3 10.57V8.68002C24.3 8.31002 24 8.02002 23.64 8.02002C23.28 8.02002 22.98 8.32002 22.98 8.68002V10.57C22.98 10.94 23.28 11.23 23.64 11.23Z" fill="#C1D13F"/>
    <path d="M13.53 12.58C13.27 12.32 12.85 12.32 12.59 12.58C12.33 12.84 12.33 13.26 12.59 13.52L13.92 14.85C14.05 14.98 14.21 15.04 14.39 15.04C14.57 15.04 14.73 14.97 14.86 14.85C15.12 14.59 15.12 14.17 14.86 13.91L13.53 12.58Z" fill="#C1D13F"/>
    <path d="M10.56 22.9499H8.67001C8.30001 22.9499 8.01001 23.2499 8.01001 23.6099C8.01001 23.9699 8.31001 24.2699 8.67001 24.2699H10.56C10.74 24.2699 10.9 24.1999 11.03 24.0699C11.16 23.9399 11.22 23.7799 11.22 23.5999C11.22 23.2299 10.92 22.9399 10.56 22.9399V22.9499Z" fill="#C1D13F"/>
    <path d="M13.92 32.3799L12.59 33.7099C12.33 33.9699 12.33 34.3899 12.59 34.6499C12.71 34.7699 12.88 34.8499 13.06 34.8499C13.24 34.8499 13.4 34.7799 13.53 34.6599L14.86 33.3299C15.12 33.0699 15.12 32.6499 14.86 32.3899C14.6 32.1299 14.18 32.1299 13.92 32.3899V32.3799Z" fill="#C1D13F"/>
    <path d="M23.62 36.02C23.25 36.02 22.96 36.32 22.96 36.68V38.57C22.96 38.94 23.26 39.23 23.62 39.23C23.98 39.23 24.28 38.93 24.28 38.57V36.68C24.28 36.31 23.98 36.02 23.62 36.02Z" fill="#C1D13F"/>
    <path d="M33.32 32.3899C33.06 32.1299 32.64 32.1299 32.38 32.3899C32.12 32.6499 32.12 33.0699 32.38 33.3299L33.71 34.6599C33.84 34.7899 34 34.8499 34.18 34.8499C34.36 34.8499 34.52 34.7799 34.65 34.6599C34.91 34.3999 34.91 33.9799 34.65 33.7199L33.32 32.3899Z" fill="#C1D13F"/>
    <path d="M38.58 22.97H36.69C36.32 22.97 36.03 23.27 36.03 23.63C36.03 23.99 36.33 24.29 36.69 24.29H38.58C38.95 24.29 39.24 23.99 39.24 23.63C39.24 23.27 38.94 22.97 38.58 22.97Z" fill="#C1D13F"/>
    <path d="M33.73 12.59L32.4 13.92C32.27 14.05 32.2 14.21 32.2 14.39C32.2 14.57 32.27 14.73 32.39 14.86C32.51 14.98 32.68 15.06 32.86 15.06C33.04 15.06 33.2 14.99 33.33 14.87L34.67 13.54C34.93 13.28 34.93 12.86 34.67 12.6C34.41 12.34 33.99 12.34 33.73 12.6V12.59Z" fill="#C1D13F"/>
    <path d="M25.52 16.84C25.52 16.35 25.32 15.86 24.96 15.51C24.6 15.17 24.13 14.97 23.65 14.97C22.62 14.97 21.78 15.81 21.78 16.84L21.76 22.17C21.5 22.5 21.33 22.9 21.28 23.33L16.15 28.42C15.8 28.77 15.6 29.24 15.6 29.74C15.6 30.24 15.79 30.71 16.15 31.06C16.5 31.41 16.97 31.61 17.45 31.61H17.49C17.99 31.61 18.45 31.42 18.8 31.07L23.93 25.97C25.1 25.82 26.02 24.83 26.02 23.62C26.02 23.07 25.82 22.57 25.51 22.16L25.53 16.84H25.52ZM24.17 21.31C23.99 21.27 23.81 21.24 23.62 21.24C23.43 21.24 23.25 21.27 23.08 21.31L23.1 16.84C23.1 16.55 23.35 16.3 23.64 16.3C23.78 16.3 23.92 16.36 24.03 16.46C24.13 16.56 24.19 16.7 24.19 16.84L24.17 21.31ZM23.63 24.68C23.05 24.68 22.57 24.21 22.57 23.62C22.57 23.33 22.69 23.07 22.88 22.88C22.88 22.88 22.88 22.88 22.89 22.87C23.08 22.68 23.34 22.57 23.63 22.57C24.21 22.57 24.69 23.04 24.69 23.63C24.69 24.22 24.22 24.69 23.63 24.69V24.68ZM16.92 29.74C16.92 29.59 16.98 29.46 17.08 29.36L21.61 24.87C21.8 25.18 22.07 25.45 22.38 25.64L17.85 30.14C17.75 30.24 17.62 30.29 17.47 30.29C17.32 30.29 17.18 30.23 17.08 30.13C16.98 30.03 16.92 29.89 16.92 29.75V29.74Z" fill="#C1D13F"/>
    <path fill-rule="evenodd" clip-rule="evenodd" d="M23.63 9.21C15.68 9.21 9.22001 15.68 9.22001 23.62C9.22001 31.57 15.69 38.03 23.63 38.03C31.58 38.03 38.04 31.56 38.04 23.62C38.04 15.68 31.57 9.21 23.63 9.21ZM23.63 39.11C15.09 39.11 8.14001 32.16 8.14001 23.62C8.14001 15.08 15.09 8.13 23.63 8.13C32.17 8.13 39.12 15.08 39.12 23.62C39.12 32.16 32.17 39.11 23.63 39.11Z" fill="#5C5B5B"/>
    <path d="M23.63 39.24C15.02 39.24 8.01001 32.24 8.01001 23.63C8.01001 15.02 15.01 8.01001 23.63 8.01001C32.25 8.01001 39.25 15.01 39.25 23.63C39.25 32.25 32.25 39.24 23.63 39.24ZM23.63 8.26001C15.16 8.26001 8.26001 15.15 8.26001 23.63C8.26001 32.11 15.15 38.99 23.63 38.99C32.11 38.99 39 32.1 39 23.63C39 15.16 32.11 8.26001 23.63 8.26001ZM23.63 38.16C15.61 38.16 9.09001 31.64 9.09001 23.62C9.09001 15.6 15.61 9.08001 23.63 9.08001C31.65 9.08001 38.17 15.6 38.17 23.62C38.17 31.64 31.65 38.16 23.63 38.16ZM23.63 9.34001C15.75 9.34001 9.34001 15.75 9.34001 23.63C9.34001 31.51 15.75 37.92 23.63 37.92C31.51 37.92 37.92 31.51 37.92 23.63C37.92 15.75 31.51 9.34001 23.63 9.34001Z" fill="#5C5B5B"/>
  </symbol>

  <symbol id="agentes" viewBox="0 0 38 50" fill="none">
    <path d="M34.64 40.24C34.96 40.71 35.38 42.04 35.58 42.23C36.23 42.85 36.97 42.23 36.8 41.3C36.49 39.68 34.96 38.12 33.64 37.24C33.45 34.09 34.34 31.16 32.01 28.61C31.03 27.54 30.06 27.13 28.76 26.59C26.3 25.57 23.75 24.72 21.28 23.72C21.05 23.63 21.12 23.37 21.12 23.15H24.78C25.11 23.15 25.83 22.43 25.98 22.1C26.58 20.75 25.98 17.66 26.2 16.07C26.27 15.6 26.91 14.89 26.79 14.27H26.8C26.77 14.22 26.74 14.17 26.73 14.11C26.73 14.09 26.73 14.09 26.73 14.07C26.69 14.07 26.61 14.05 26.55 14.04C26.35 14.01 26.26 13.99 26.07 13.98C25.88 13.97 25.66 13.96 25.53 13.99C25.41 14.02 25.42 14.01 25.33 14.07C25.36 14.05 25.3 14.12 25.3 14.11C25.28 14.17 25.25 14.21 25.22 14.26H25.24C25.24 15.01 24.56 15.66 23.82 15.73L23.87 14.26H23.89C23.83 14.2 23.79 14.14 23.76 14.07C23.69 14.03 23.59 14.02 23.5 14C23.37 13.97 23.24 13.94 23.11 13.9C22.87 13.84 22.55 13.73 22.31 13.86C22.29 13.86 22.28 13.86 22.26 13.88C22.36 14.15 22.34 16.43 22.31 16.84C21.92 21.24 16.48 23.16 13.23 20.26C11.42 18.65 11.35 16.44 11.49 14.17C14.3 13.11 16.61 11.12 18.65 8.97999C19.01 9.36999 19.41 9.71999 19.84 10.03C20.4 10.44 21.02 10.72 21.6 11.08C21.63 11.05 21.64 11.02 21.68 11C21.7 10.99 21.72 10.97 21.74 10.96C21.74 10.96 21.76 10.94 21.77 10.93C21.77 10.91 21.79 10.9 21.8 10.88C21.8 10.88 21.8 10.88 21.8 10.87C21.81 10.84 21.83 10.78 21.83 10.77C21.86 10.67 21.87 10.57 21.89 10.47C21.89 10.45 21.89 10.45 21.89 10.44C21.89 10.42 21.89 10.4 21.89 10.37C21.89 10.31 21.89 10.25 21.89 10.19C21.89 10.06 21.88 9.92999 21.88 9.79999C21.88 9.77999 21.87 9.74999 21.86 9.72999C21.86 9.72999 21.86 9.70999 21.86 9.69999C21.86 9.68999 21.85 9.66999 21.85 9.66999C21.77 9.51999 21.67 9.37999 21.56 9.23999C21.42 9.25999 20.9 8.90999 20.79 8.83999C19.91 8.25999 19.28 7.06999 18.08 7.43999C17.72 7.54999 16.19 9.29999 15.74 9.68999C14.86 10.47 13.71 11.32 12.68 11.9C12.03 12.26 10.46 12.79 10.13 13.35C9.78999 13.91 9.84999 15.36 9.87999 16.03C9.96999 17.81 10.41 19.41 11.59 20.77L12.52 21.65H9.43999C9.31999 21.65 9.02999 21.38 9.08999 21.22C9.30999 17.16 8.81999 12.83 9.08999 8.80999C9.51999 2.60999 16.69 -0.79001 21.59 3.14999C21.63 3.10999 21.67 3.06999 21.71 3.02999C21.72 3.00999 21.74 2.98999 21.75 2.96999C21.78 2.91999 21.8 2.86999 21.83 2.82999C21.9 2.69999 21.99 2.58999 22.08 2.47999C22.11 2.43999 22.15 2.39999 22.18 2.35999C22.19 2.34999 22.26 2.26999 22.21 2.32999C22.16 2.37999 22.21 2.32999 22.22 2.30999C22.24 2.28999 22.25 2.25999 22.26 2.23999C22.26 2.23999 22.27 2.21999 22.28 2.20999C22.25 2.25999 22.27 2.20999 22.28 2.18999C22.28 2.17999 22.28 2.15999 22.28 2.14999C22.28 2.12999 22.27 2.10999 22.26 2.07999C22.15 1.87999 22.04 1.67999 21.96 1.46999C21.96 1.46999 21.96 1.45999 21.96 1.44999H21.95C21.86 1.44999 20.56 0.70999 20.27 0.59999C19.66 0.35999 19.21 0.29999 18.58 0.18999C18.72 0.68999 17.9 0.57999 17.99 0.0899902C17.89 0.0799902 17.79 0.0899902 17.7 0.0899902C17.66 0.57999 17.15 0.40999 17.11 -0.0100098C17.01 -0.0100098 16.91 -0.0100098 16.82 -0.0100098C16.78 0.39999 16.28 0.57999 16.23 0.0899902C11 0.38999 7.79999 4.41999 7.54999 9.51999C7.35999 13.31 7.69999 17.24 7.54999 21.05C7.64999 21.83 7.78999 22.5 8.52999 22.9C8.61999 22.95 9.00999 23.15 9.05999 23.15H12.62C12.62 23.36 12.69 23.63 12.46 23.72L3.92999 27.01C1.90999 28 0.299986 29.97 0.119986 32.28C-0.290014 37.46 0.429986 43.16 0.119986 48.4C0.209986 49.23 0.769986 49.7 1.48999 50.01H31.27C33.36 49.53 35.23 48.38 36.25 46.45C36.56 45.87 37.21 44.34 36 44.34C35.29 44.34 34.88 45.9 34.43 46.49C31.03 50.86 23.91 47.63 25.06 42.1C26 37.58 32.04 36.42 34.63 40.26L34.64 40.24ZM23.47 18.51C23.77 17.66 23.47 17.14 24.64 17.09V21.44C24.64 21.44 24.34 21.68 24.3 21.68H21.32C22.27 20.72 23.01 19.8 23.47 18.51ZM22.59 25.78L20.54 30.08C20.18 29.72 18.19 28.61 18.04 28.33C17.95 28.15 20.27 25.55 20.54 25.15C20.85 25.01 22.13 25.8 22.59 25.79V25.78ZM18.19 30.34C18.22 30.45 17.83 31.11 17.79 31.13C17.71 31.17 16.17 31.19 16.02 31.15C15.96 31.13 15.53 30.46 15.57 30.33C15.6 30.22 16.82 29.37 16.96 29.4C17.07 29.43 18.18 30.25 18.2 30.33L18.19 30.34ZM19.56 22.66L19.51 24.03L16.87 27.25L14.21 23.86C14.12 23.47 14.29 23.03 14.09 22.66C15.87 23.23 17.79 23.42 19.56 22.66ZM13.07 25.1C13.23 25.1 13.35 25.28 13.46 25.39C14.25 26.2 14.99 27.4 15.73 28.27L13.21 30.08L11.16 25.83C11.59 25.77 12.74 25.09 13.07 25.1ZM7.35999 48.54V34.04C7.35999 33.37 5.89999 33.45 5.89999 34.04V48.54H1.93999C1.65999 48.54 1.55999 48.04 1.58999 47.81C1.82999 42.94 1.27999 37.79 1.58999 32.96C1.88999 28.21 6.12999 28 9.64999 26.46L9.88999 26.62C10.57 27.94 11.14 29.5 11.9 30.76C12.13 31.14 12.22 31.37 12.66 31.56C13.58 31.94 14.07 31.24 14.24 31.25C14.29 31.25 14.76 31.96 14.78 32.08L12.63 45.06C12.69 46.01 14.87 47.63 15.37 48.53H7.35999V48.54ZM14.29 45.07L14.19 44.78L16.22 32.93L16.14 32.62H17.49L19.56 44.78L19.46 45.08L16.87 47.86L14.27 45.08L14.29 45.07ZM25.91 48.54H18.39C19.22 47.37 20.69 46.44 21.13 45.07L18.98 32.26C18.94 31.88 19.3 31.61 19.46 31.29C20.16 31.69 20.84 31.89 21.51 31.29L23.96 26.47L24.09 26.45C25.72 27.13 27.61 27.63 29.19 28.39C30.55 29.05 32.15 30.77 32.15 32.36V36.61C30.75 36.27 29.62 36.38 28.24 36.71C28.26 37.43 27.44 37.28 27.55 36.66C27.57 36.58 27.83 36.6 27.84 36.61C27.77 35.85 27.93 34.96 27.84 34.22C27.73 33.24 26.48 33.31 26.37 34.22C26.25 35.25 26.48 36.47 26.35 37.52C25.26 38.46 24.33 39.48 23.83 40.86C22.8 43.71 23.75 46.52 25.88 48.53L25.91 48.54Z" fill="#5C5B5B"/>
    <path d="M18.59 0.199976C18.73 0.699976 17.91 0.589976 18 0.0999756C18.21 0.129976 18.38 0.159976 18.59 0.199976Z" fill="#5C5B5B"/>
    <path d="M16.83 0C16.79 0.41 16.29 0.59 16.24 0.1C16.39 0.1 16.57 0 16.83 0Z" fill="#5C5B5B"/>
    <path d="M17.71 0.1C17.67 0.59 17.16 0.42 17.12 0C17.35 0 17.52 0.08 17.71 0.1Z" fill="#5C5B5B"/>
    <path d="M33.6 41.1501C33.94 41.4601 33.89 41.9701 33.57 42.2801L30.02 45.7601C29.7 45.8601 29.42 45.8301 29.14 45.6501C28.89 45.4901 27.63 44.2201 27.42 43.9501C27.11 43.5501 26.91 43.1901 27.32 42.7701C28.16 41.9101 29.05 43.6101 29.67 44.0401L32.6 41.1101C32.9 40.8701 33.32 40.8801 33.6 41.1401V41.1501Z" fill="#5C5B5B"/>
    <path d="M27.87 36.62C27.98 36.72 27.62 36.87 28.26 36.72C28.28 37.44 27.46 37.29 27.57 36.67C27.59 36.59 27.85 36.61 27.86 36.62H27.87Z" fill="#5C5B5B"/>
    <path d="M37.64 2.49005C37.53 1.55005 36.86 0.96005 35.93 0.88005C34.41 0.74005 32.63 0.95005 31.09 0.93005C30.54 1.09005 30.43 1.89005 30.83 2.22005C30.87 2.26005 31.31 2.44005 31.34 2.44005H36.03C36.03 2.44005 36.18 2.58005 36.18 2.59005V12.55C36.18 12.84 35.45 12.7801 35.27 12.8101C34.56 12.97 34.56 14.01 34.28 14.55C33.89 15.3101 33.12 15.85 32.32 16.1101L32.86 15.08C33.18 14.32 33.64 13.31 32.67 12.83L23.29 12.74C23.29 12.74 23.09 12.5601 23.09 12.55V2.59005C23.09 2.59005 23.23 2.44005 23.24 2.44005H27.93C27.93 2.44005 28.39 2.25005 28.44 2.22005C28.87 1.87005 28.67 1.02005 28.11 0.90005C26.57 0.98005 24.76 0.72005 23.25 0.88005C22.76 0.93005 22.22 1.39005 22.03 1.45005C21.93 1.58005 21.85 1.73005 21.78 1.88005C21.78 1.89005 21.78 1.90005 21.77 1.92005C21.75 1.96005 21.74 2.00005 21.73 2.04005C21.7 2.12005 21.68 2.21005 21.66 2.29005C21.66 2.33005 21.64 2.38005 21.64 2.42005C21.64 2.43005 21.64 2.44005 21.64 2.45005C21.64 2.53005 21.62 2.62005 21.62 2.70005C21.62 2.79005 21.62 2.87005 21.62 2.96005C21.62 3.00005 21.62 3.05005 21.62 3.09005C21.62 3.11005 21.62 3.15005 21.62 3.17005C21.62 3.17005 21.62 3.17005 21.63 3.17005V9.27005V11.26C21.64 11.4801 21.63 11.7 21.63 11.92V12.5601C21.65 12.84 21.71 13.11 21.86 13.38C21.97 13.5601 22.21 13.74 22.26 13.86V13.88C22.28 13.89 22.3 13.9 22.32 13.92C22.32 13.93 22.34 13.94 22.35 13.95C22.38 13.97 22.41 13.99 22.44 14C22.45 14 22.46 14 22.47 14.01C22.51 14.0201 22.55 14.03 22.59 14.05C22.76 14.09 22.92 14.12 23.09 14.15C23.13 14.15 23.17 14.16 23.21 14.17C23.23 14.17 23.25 14.17 23.27 14.17C23.22 14.16 23.18 14.16 23.25 14.17C23.35 14.18 23.45 14.19 23.55 14.2C23.68 14.21 23.81 14.23 23.94 14.25H25.23C25.23 14.25 26.79 14.26 26.79 14.25H31.58C31.29 15.0201 30.28 15.61 30.35 16.5C30.4 17.0301 30.89 17.6 31.43 17.67C32.88 17.85 34.6 16.85 35.37 15.65C35.54 15.38 35.93 14.3101 35.99 14.2701C36.05 14.2301 36.48 14.18 36.71 14.0601C37.28 13.7701 37.58 13.27 37.64 12.65C37.92 9.41005 37.42 5.77005 37.64 2.49005Z" fill="#C1D13F"/>
    <path d="M33.99 8.16998C33.88 8.28998 33.65 8.37998 33.49 8.39998C31 8.16998 27.99 8.69998 25.57 8.39998C24.63 8.27998 24.55 6.96998 25.77 6.82998C28.1 6.56998 30.91 7.02998 33.29 6.82998C34 6.84998 34.53 7.57998 33.99 8.16998Z" fill="#C1D13F"/>
    <path d="M33.99 10.91C33.88 11.03 33.65 11.12 33.49 11.14C31 10.91 27.99 11.44 25.57 11.14C24.63 11.02 24.55 9.70997 25.77 9.56997C28.1 9.30997 30.91 9.76997 33.29 9.56997C34 9.58997 34.53 10.32 33.99 10.91Z" fill="#C1D13F"/>
    <path d="M33.99 5.44C33.85 5.58 33.5 5.65 33.29 5.67C30.84 5.89 28.05 5.49 25.57 5.67C24.63 5.55 24.55 4.24 25.77 4.1C28.1 3.84 30.91 4.3 33.29 4.1C33.99 4.09 34.54 4.9 34 5.44H33.99Z" fill="#C1D13F"/>
  </symbol>

  <symbol id="recursos" viewBox="0 0 50 50" fill="none">
    <path d="M26.22 10.42C26.61 10.77 26.41 11.59 26.46 11.65C26.73 11.91 29.73 11.05 29.71 12.44V25.77C29.54 27.31 27.8 26.15 26.96 25.9C23.91 24.98 21.37 25.5 18.62 26.96C18.19 27.19 17.15 28.02 16.76 28C16.37 27.98 14.54 26.71 13.93 26.44C11.64 25.42 9.39 25.16 6.95 25.8C6.2 26 4.35 27.13 3.94 26.14L3.88 12.54C3.95 11.07 6.05 11.84 7.04 11.65C6.88 10.35 7.91001 10.1 8.93001 9.80998C11.73 9.01998 14.33 9.55998 16.75 11.09C18.58 10.01 20.68 9.27998 22.84 9.44998C23.5 9.49998 25.77 10.02 26.22 10.43V10.42ZM15.97 21.42V12.55C13.88 11.02 11.16 10.73 8.72001 11.55V20.69C10.48 20.14 12.39 20.1 14.16 20.66C14.79 20.86 15.35 21.22 15.97 21.42ZM24.89 11.55C22.43 10.75 19.73 10.98 17.64 12.55V21.27C17.64 21.27 17.37 21.45 17.69 21.43C19.87 20.18 22.49 19.93 24.89 20.7V11.56V11.55ZM7.04 13.33H5.46V24.57C8.18001 23.58 10.96 23.6 13.68 24.6C14.79 25.01 15.78 25.65 16.85 26.15C20.14 23.97 24.27 23.08 28.04 24.57V13.33H26.46V22.2C26.46 22.2 26.09 22.59 26.04 22.62C25.55 22.84 24.02 22.09 23.34 21.97C21.42 21.63 19.88 22.08 18.2 22.97C17.76 23.2 17.21 23.75 16.75 23.73C16.4 23.71 15.09 22.78 14.56 22.55C13.17 21.95 11.87 21.71 10.36 21.95C9.47 22.09 8.77 22.44 7.93 22.68C7.51 22.79 7.04 22.22 7.04 21.88V13.32V13.33Z" fill="#5C5B5B"/>
    <path d="M10.05 17.45C10.57 17.33 13.96 17.34 14.54 17.43C15.52 17.59 15.5 18.95 14.54 19.1C13.85 19.21 10.83 19.21 10.14 19.1C9.20998 18.95 9.18998 17.64 10.05 17.45Z" fill="#5C5B5B"/>
    <path d="M10.16 13.04C10.83 12.92 13.85 12.92 14.52 13.04C15.56 13.23 15.48 14.54 14.54 14.69C13.96 14.78 10.58 14.79 10.05 14.67C9.21996 14.48 9.15996 13.22 10.16 13.04Z" fill="#5C5B5B"/>
    <path d="M10.16 15.25C10.83 15.13 13.85 15.13 14.52 15.25C15.56 15.44 15.48 16.75 14.54 16.9C13.96 16.99 10.58 17 10.05 16.88C9.21996 16.69 9.15996 15.43 10.16 15.25Z" fill="#5C5B5B"/>
    <path d="M18.77 15.24C19.3 15.12 22.66 15.14 23.24 15.24C24.25 15.42 24.15 16.75 23.26 16.89C22.67 16.98 19.3 16.99 18.77 16.87C17.88 16.67 17.87 15.44 18.77 15.23V15.24Z" fill="#5C5B5B"/>
    <path d="M18.88 13.04C19.55 12.92 22.57 12.92 23.24 13.04C24.25 13.22 24.15 14.55 23.26 14.69C22.67 14.78 19.3 14.79 18.77 14.67C17.87 14.47 17.83 13.23 18.88 13.04Z" fill="#5C5B5B"/>
    <path d="M18.77 17.45C19.3 17.33 22.66 17.35 23.24 17.45C24.23 17.63 24.23 18.95 23.15 19.1C22.51 19.19 19.34 19.21 18.77 19.09C17.88 18.89 17.87 17.66 18.77 17.45Z" fill="#5C5B5B"/>
    <path d="M25.73 42.58V42.68C26.13 42.18 26.44 41.61 26.64 41C26.82 40.45 27.07 39.94 27.31 39.41C27.48 39.02 27.58 38.6 27.81 38.25C27.72 38.29 27.61 38.33 27.46 38.34C26.98 38.39 25.28 38.43 25 38.06C24.16 36.95 25.71 35.57 25.41 34.45H35.34C35.34 34.45 35.36 34.4 35.37 34.38C35.37 34.35 35.39 34.32 35.4 34.29C35.4 34.29 35.4 34.27 35.4 34.25C35.39 34.31 35.4 34.21 35.4 34.2C35.4 34.18 35.4 34.2 35.4 34.19C35.4 34.15 35.37 34.07 35.36 34.04C35.36 34.03 35.33 33.98 35.33 33.95C35.31 33.9 35.28 33.86 35.25 33.81C35.24 33.79 35.22 33.76 35.2 33.74C35.16 33.68 35.17 33.72 35.2 33.74C35.16 33.71 35.12 33.65 35.09 33.61C35.01 33.53 34.93 33.45 34.84 33.37C34.82 33.35 34.8 33.33 34.77 33.32C34.73 33.28 34.68 33.25 34.64 33.22C34.55 33.15 34.45 33.09 34.36 33.02C34.3 32.98 34.25 32.92 34.21 32.86H2.37C1.7 32.86 1.36 30.76 1.74 30.76H33.05C33.05 30.76 33.05 30.76 33.05 30.75C33.09 30.71 33.14 30.66 33.18 30.62C33.18 30.62 33.18 30.61 33.19 30.6C33.2 30.58 33.22 30.56 33.22 30.55C33.24 30.51 33.27 30.47 33.29 30.43C33.29 30.41 33.3 30.4 33.31 30.39C33.32 30.35 33.33 30.32 33.34 30.28C33.34 30.26 33.34 30.25 33.34 30.23C33.34 30.19 33.34 30.15 33.34 30.11C33.34 30.11 33.34 30.1 33.34 30.09C33.32 30 33.3 29.91 33.26 29.83C33.26 29.83 33.26 29.83 33.26 29.82C33.26 29.82 33.26 29.83 33.27 29.84C33.26 29.82 33.25 29.8 33.24 29.78C33.22 29.74 33.2 29.7 33.18 29.65C33.09 29.48 32.98 29.32 32.88 29.16V29.18H1.58V4.34999C1.58 4.22999 1.96 3.66999 2.05 3.66999H31.61C29.71 6.91999 30.43 11.05 33.35 13.43C35.14 14.9 37.43 15.36 39.7 15.01V18.23C39.76 18.25 39.81 18.29 39.85 18.34C39.87 18.36 39.89 18.38 39.91 18.41C39.91 18.41 39.91 18.41 39.92 18.42C39.95 18.44 39.99 18.46 40.01 18.48C40.03 18.48 40.05 18.49 40.07 18.5C40.09 18.5 40.11 18.5 40.12 18.51C40.16 18.51 40.2 18.51 40.24 18.51C40.26 18.51 40.28 18.51 40.3 18.51C40.4 18.49 40.49 18.47 40.59 18.43C40.59 18.43 40.59 18.43 40.6 18.43C40.58 18.43 40.64 18.41 40.65 18.41C40.7 18.39 40.75 18.36 40.8 18.33C40.85 18.3 40.9 18.27 40.94 18.24C40.96 18.23 40.98 18.21 41 18.2C41.07 18.15 41 18.18 40.98 18.21C41.01 18.17 41.07 18.14 41.1 18.1C41.14 18.06 41.18 18.03 41.21 17.99C41.22 17.98 41.23 17.97 41.24 17.96V14.39C46.57 12.01 47.19 4.58999 42.3 1.29999C39.38 -0.660009 35.49 -0.380009 32.94 2.04999L1.54 2.14999C0.68 2.49999 0.04 3.23999 0 4.23999L0.03 32.15C0.3 33.21 0.92 34.2 2.06 34.42L15.76 34.47C15.88 35.52 17.51 38.09 15.6 38.31C14.1 38.48 11.78 37.72 11.01 39.5C10.79 40.01 10.64 41.82 11.06 42.17C11.11 42.21 11.58 42.41 11.61 42.41H25.84C25.87 42.49 25.74 42.54 25.74 42.57L25.73 42.58ZM38.12 1.62999C41.39 1.62999 44.04 4.27999 44.04 7.54999C44.04 10.82 41.39 13.47 38.12 13.47C34.85 13.47 32.2 10.82 32.2 7.54999C32.2 4.27999 34.85 1.62999 38.12 1.62999ZM12.4 40.74C12.37 40.41 12.47 40.06 12.81 39.95C13.55 39.71 15.22 40.01 16.12 39.89C17.57 39.7 18.26 38.24 18.18 36.9C18.13 36.06 17.62 35.22 17.34 34.44H23.85C23.92 35.06 23.45 35.59 23.29 36.14C22.95 37.34 23.23 38.85 24.34 39.57C24.43 39.63 25.01 39.9 25.06 39.9H26.58C26.53 40.02 26.31 40.74 26.26 40.74H12.4Z" fill="#5C5B5B"/>
    <path d="M35.68 3.47999C35.91 3.44999 35.97 3.49999 36.17 3.57999C37.98 4.28999 39.98 6.06999 41.84 6.83999C42.34 7.15999 42.37 7.86999 41.9 8.23999C40.08 9.14999 38.32 10.46 36.51 11.36C35.73 11.74 35.06 11.85 34.96 10.77C34.77 8.66999 35.11 6.27999 34.97 4.15999C35.02 3.78999 35.31 3.53999 35.67 3.48999L35.68 3.47999ZM36.55 5.66999V9.34999C36.67 9.36999 36.75 9.32999 36.86 9.28999C37.4 9.07999 38.92 8.14999 39.46 7.78999C39.58 7.70999 39.71 7.69999 39.7 7.50999C39.69 7.31999 36.88 6.00999 36.55 5.66999Z" fill="#5C5B5B"/>
    <path d="M51.3 41.1699C50.57 38.8399 48.73 37.0799 46.48 36.2299C45.91 36.0099 42.06 35.0299 42.01 34.7999C41.98 34.6899 41.99 33.9199 42.04 33.8399C42.08 33.7699 42.98 33.0599 43.18 32.8199C43.86 32.0099 44.45 30.8399 44.54 29.7699C44.59 29.2399 44.47 28.6299 44.57 28.1199C44.69 27.4699 45.29 26.3299 45.52 25.5999C45.98 24.0899 46.58 21.6799 46.07 20.1699C45.52 18.5399 42.9 17.4899 41.29 17.9599L39.71 18.2799C35.11 15.3499 29.41 20.0699 31.36 25.2099C31.86 26.5299 33.02 27.7399 32.88 29.1999L33.09 30.7799C33.29 31.5699 33.75 32.2499 34.25 32.8799L35.41 34.4599L35.35 34.8899C32.96 35.7399 30.71 36.1999 28.54 37.6099C27.28 38.4299 26.59 39.9199 26.59 39.9199C26.54 40.0399 26.32 40.7599 26.27 40.7599L25.85 42.4399C25.88 42.5199 25.75 42.5699 25.75 42.5999V49.4299C25.75 49.6699 26.35 50.1099 26.64 50.0099C34.84 49.9499 43.06 50.1099 51.24 49.9299C51.6 49.7399 51.66 49.4899 51.69 49.1199C51.86 47.2599 51.85 42.8999 51.31 41.1899L51.3 41.1699ZM33.98 26.8799C33.89 26.7899 33.06 25.0999 32.96 24.8499C31.96 22.3099 33.31 19.4099 36.1 19.0299C36.73 18.9399 37.28 18.9999 37.89 19.1799C39.01 19.5299 39.75 20.6299 41.03 20.0699C41.62 19.8099 41.59 19.3599 42.36 19.4299C42.8 19.4699 44.1 20.0399 44.36 20.3699C45.05 21.2299 44.24 24.1399 43.92 25.1699C43.83 25.4499 43.29 27.0699 43.16 27.1399C42.68 27.4299 41.61 25.8799 41.42 25.4999C41.16 24.9599 40.85 23.4199 40.46 23.1999C39.51 22.6599 39.38 23.5599 39.04 24.0599C38.19 25.2899 36.82 26.0399 35.44 26.5499C35.13 26.6599 34.18 27.0699 33.97 26.8699L33.98 26.8799ZM34.46 28.5699C36.39 28.0499 38.39 27.2299 39.75 25.7199C40.37 27.0999 41.32 28.5599 42.94 28.7799C42.94 34.8899 34.16 34.6799 34.46 28.5699ZM36.97 34.6499C38.06 34.9599 39.25 35.0299 40.33 34.6499C40.35 35.0299 40.26 35.4099 40.41 35.7799C40.56 36.1599 41.22 36.2699 41.17 36.4899C41.16 36.5399 40.58 37.0999 40.49 37.1699C39.5 37.9299 38.18 38.0499 37.09 37.4299C36.88 37.3099 36.11 36.6599 36.03 36.4899C35.95 36.2999 36.11 36.3499 36.17 36.3199C37.03 35.9399 37.27 35.6699 36.97 34.6499ZM50.1 48.2999H47.58V44.0499C47.58 43.7999 47.07 43.4699 46.79 43.4699C46.51 43.4699 46 43.8099 46 44.0499V48.2999H31.4V44.0499C31.4 43.7899 30.86 43.4899 30.6 43.4799C30.38 43.4799 29.82 43.7999 29.82 43.9499V48.3099H27.3C27.41 46.6299 27.15 44.7599 27.3 43.1099C27.46 41.4299 28.46 39.5699 29.83 38.5999C31.19 37.6399 32.85 37.4199 34.38 36.8499C36.13 40.2499 41.02 40.3099 42.76 36.8699L42.9 36.8399C45.2 37.5099 47.59 37.9599 49.01 40.0899C49.57 40.9299 50.1 42.3999 50.1 43.4099V48.2899V48.2999Z" fill="#C1D13F"/>
  </symbol>

  <symbol id="asesor" viewBox="0 0 50 51" fill="none">
    <path d="M47.93 8.95997H49.53C49.53 8.95997 49.72 9.12997 49.75 9.17997V39.95C49.73 40 49.55 40.17 49.53 40.17H28.9C28.9 40.17 28.73 40.32 28.73 40.34V44.59L34.8 45.09C35.18 45.27 36.37 48.64 36.76 49.2C36.83 49.55 36.72 50.02 36.29 50.01H13.67C13.02 50.01 12.88 49.75 13.03 49.14C13.18 48.53 14.33 46.04 14.66 45.47C14.73 45.35 14.78 45.23 14.9 45.16L21.01 44.6V40.35C21.01 40.35 20.86 40.18 20.84 40.18H0.22C0.22 40.18 0.03 40.01 0 39.96V9.17997C0.02 9.12997 0.2 8.95997 0.22 8.95997H28.68C28.68 8.95997 28.85 8.80997 28.85 8.78997V2.06997C28.85 1.38997 30.26 0.129969 31.01 0.149969C35.7 0.449969 40.94 -0.280031 45.57 0.139969C46.44 0.219969 47.23 0.739969 47.63 1.49997C47.69 1.60997 47.94 2.12997 47.94 2.17997V8.95997H47.93ZM34.17 12.74C34.33 12.6 34.54 12.61 34.74 12.59C38.02 12.31 41.71 12.85 45.01 12.59C46.27 12.49 46.73 12.03 46.83 10.77C46.99 8.69997 47.01 4.98997 46.83 2.92997C46.74 1.88997 46.32 1.31997 45.23 1.21997C40.87 0.839969 35.96 1.51997 31.54 1.21997C30.74 1.23997 30.06 1.79997 29.94 2.59997L29.99 11.49C30.23 12.1 30.61 12.39 31.23 12.56C31.6 12.66 31.96 12.44 32.17 12.95C32.36 13.41 31.92 14.46 32.03 15.01L34.16 12.73L34.17 12.74ZM28.84 10.06H1.05V39.07H48.7V10.06H47.93V11.66C47.93 12.17 46.99 12.98 46.93 13.42L46.88 37.09C46.7 37.33 46.42 37.44 46.11 37.43H3.63C3.33 37.44 3.05 37.33 2.86 37.09V12.05C2.9 11.97 3.25 11.72 3.3 11.72H28.84V10.07V10.06ZM35.35 36.21C38.84 36.21 42.34 36.21 45.83 36.21V13.7H34.85L31.65 17.23C31.39 17.52 30.92 17.48 30.7 17.18C30.33 16.66 31.14 14.43 30.91 13.77C30.86 13.64 30.1 13.35 29.9 13.24C29.78 13.18 29.57 12.93 29.55 12.93H3.91V36.2C7.4 36.2 10.9 36.2 14.39 36.2C14.72 36.2 15.16 36.2 15.49 36.2C17.84 36.2 20.2 36.2 22.55 36.2C22.91 36.2 23.4 36.2 23.76 36.2C24.49 36.2 25.23 36.2 25.97 36.2C26.33 36.2 26.83 36.2 27.18 36.2C29.49 36.2 31.81 36.2 34.13 36.2C34.49 36.2 34.98 36.2 35.34 36.2L35.35 36.21ZM22.11 40.18V46.36H27.63V40.18H22.11ZM14.39 48.89H35.35L34.19 46.24L34.06 46.15L28.73 45.69C28.65 46.12 28.95 47.28 28.43 47.43L21.23 47.4C20.8 47.26 21.14 45.7 20.95 45.69L15.62 46.15L14.39 48.89Z" fill="#5B5A5A"/>
    <path d="M34.89 2.25998C35.54 2.17998 36.07 2.22998 36.7 2.36998C37.09 2.45998 38.3 3.07998 38.39 3.06998C38.47 3.06998 39.45 2.51998 39.81 2.42998C41.54 1.96998 43.09 2.31998 44.52 3.37998V11.34C44.09 11.94 43.11 10.99 42.5 10.8C41.57 10.51 40.77 10.53 39.85 10.86C39.49 10.98 38.59 11.6 38.39 11.6C38.2 11.6 37.17 10.93 36.77 10.8C35.84 10.51 35.04 10.53 34.12 10.86C33.43 11.1 32.55 12.1 32.1 11.17L32.07 3.62998C32.25 3.00998 34.27 2.32998 34.89 2.25998ZM37.78 3.99998C36.88 3.58998 36.09 3.35998 35.07 3.43998C34.75 3.46998 33.25 3.85998 33.25 4.15998V9.94998C34.71 9.30998 36.32 9.30998 37.77 9.94998V3.99998H37.78ZM43.51 9.94998V4.15998C42.19 3.12998 40.43 3.28998 38.99 3.98998V9.94998C40.48 9.28998 42.02 9.34998 43.51 9.94998Z" fill="#C1D13F"/>
    <path d="M39.57 5.24C40.19 4.59 43.14 4.69 43.05 5.69C42.97 6.58 41.94 6.02 41.48 5.98C40.85 5.93 40.26 6.28 39.83 6.21C39.37 6.14 39.32 5.52 39.58 5.24H39.57Z" fill="#C1D13F"/>
    <path d="M40.51 6.88995C41.12 6.78995 43.61 6.88995 42.95 7.99995C42.59 8.59995 41.87 7.96995 41.26 7.95995C40.7 7.95995 39.8 8.57995 39.49 7.95995C39.18 7.33995 40 6.95995 40.51 6.87995V6.88995Z" fill="#C1D13F"/>
    <path d="M33.84 5.23999C34.47 4.57999 37.41 4.68999 37.32 5.68999C37.24 6.58999 36.14 5.99999 35.64 5.97999C35.07 5.95999 34.47 6.27999 34.09 6.20999C33.71 6.13999 33.58 5.50999 33.84 5.23999Z" fill="#C1D13F"/>
    <path d="M34.77 6.89005C35.37 6.79005 37.61 6.84006 37.29 7.86006C37.04 8.67006 36.07 7.97005 35.51 7.96005C34.95 7.95006 33.93 8.62005 33.71 7.89005C33.53 7.30005 34.29 6.97005 34.77 6.89005Z" fill="#C1D13F"/>
    <path d="M14.39 36.2099C14.8 34.9899 15.07 32.5199 15.88 31.5699C16.92 30.3499 21.08 29.9499 21.43 28.4099C21.51 28.0399 21.49 26.8699 21.4 26.4999C21.37 26.3799 20.82 24.9399 20.76 24.8799C20.69 24.7999 20.46 24.7799 20.35 24.6799C19.71 24.0999 19.2 22.9299 19.49 22.0699C19.59 21.7799 19.89 21.5699 19.9 21.3799C19.91 21.1299 19.5 20.1199 19.46 19.6099C19.35 18.2699 19.52 16.9599 20.4 15.9099C22.12 13.8399 26.93 13.1799 28.79 15.3599C29.03 15.6499 29.9 16.7999 30.04 17.0799C30.32 17.6499 30.33 18.3099 30.27 18.9399C30.22 19.4799 29.62 21.0499 29.65 21.2599C29.66 21.3799 30.07 21.6699 30.19 21.8999C30.6 22.7199 30.16 23.9799 29.51 24.5699C29.34 24.7199 29.04 24.7999 28.98 24.8699C28.92 24.9399 28.38 26.3699 28.34 26.4899C28.25 26.8399 28.23 28.0599 28.32 28.3999C28.73 30.0099 32.77 30.2899 33.87 31.5699C34.68 32.5099 34.92 34.9899 35.36 36.2099C35 36.2099 34.5 36.2099 34.15 36.2099C33.89 35.1699 33.66 33.9199 33.3 32.9199C33.05 32.2399 32.85 32.1799 32.24 31.8799C31.28 31.4099 30.14 31.1099 29.14 30.6799C28.98 30.6799 28.24 33.2999 27.87 33.6199C27.22 34.1699 26.75 33.0499 26.48 33.1099C26.4 33.2399 26.02 33.6399 26.01 33.7199C25.99 34 27.16 35.7099 27.19 36.1999C26.83 36.1999 26.34 36.1999 25.98 36.1999C25.77 35.9199 25.12 34.1399 24.82 34.2099C24.65 34.2499 23.95 35.9299 23.77 36.1999C23.41 36.1999 22.91 36.1999 22.56 36.1999C22.6 35.74 23.79 33.9299 23.72 33.6599C23.68 33.5299 23.4 33.2199 23.27 33.1099C23.04 33.0599 22.7 33.8199 22.18 33.7699C21.56 33.7099 21 31.2099 20.62 30.6799C20.42 30.6799 17.48 31.8199 17.19 31.9899C16.11 32.5999 16.07 35.1199 15.5 36.1999C15.17 36.1999 14.73 36.1999 14.4 36.1999L14.39 36.2099ZM28.84 20.2099C28.94 19.4099 29.42 18.4299 29.04 17.6399C28.95 17.4599 27.81 15.9899 27.63 15.8499C25.85 14.4399 21.48 15.2599 20.76 17.5799C20.42 18.6499 20.62 19.5799 20.79 20.6499C21.61 19.9699 22.71 19.7499 23.58 19.1899C24.09 18.8599 24.17 18.3299 24.7 18.3299C25.67 18.3299 25.16 19.3799 25.2 19.9899C25.26 20.0699 26.63 18.8499 26.88 18.7499C28.24 18.2299 27.86 19.7599 28.83 20.2099H28.84ZM27.19 19.9899L25.28 21.3299C24.92 21.5599 23.95 21.8999 23.79 21.3399C23.67 20.9299 24.02 20.6699 23.94 20.3199C23.23 20.7599 22.12 20.9299 21.57 21.5899C21.42 21.7699 21.33 22.1599 21.13 22.2599C20.72 22.4599 20.39 22.0299 20.6 23.0099C20.79 23.8799 21.38 23.6099 21.68 24.0199C21.96 24.3999 22.12 25.4299 22.51 26.0499C23.82 28.1099 26.1 27.9799 27.32 25.9099C27.63 25.3899 27.87 24.2799 28.07 24.0099C28.32 23.6799 28.87 23.8699 29.09 23.1599C29.14 22.9899 29.25 22.3799 29.17 22.3099C29.15 22.2899 28.83 22.3299 28.7 22.2899C28.37 22.1899 28.15 21.3699 27.94 21.0599C27.71 20.7099 27.27 20.4499 27.18 19.9899H27.19ZM27.19 27.9299C26.81 28.0499 26.5 28.3099 26.12 28.4599C25.29 28.7699 24.65 28.7799 23.8 28.5199C23.35 28.3799 23.03 28.0599 22.73 27.9399C22.49 27.8499 22.53 28.2799 22.57 28.4099C22.6 28.5499 24.79 30.0499 24.94 30.0399C25.08 30.0299 27.12 28.5899 27.18 28.4699C27.26 28.3299 27.18 28.0999 27.2 27.9399L27.19 27.9299ZM22.45 32.2299C22.66 31.9899 23.93 31.1099 23.88 30.8599C23.84 30.6599 22.27 29.6999 22.01 29.4699C21.25 30.3599 22.32 31.2499 22.45 32.2299ZM27.3 32.2299C27.37 31.5599 28.25 30.4299 27.99 29.8299C27.95 29.7399 27.75 29.4799 27.69 29.4799C27.58 29.4799 25.9 30.7499 25.87 30.8599C25.83 31.0499 27.09 31.9899 27.3 32.2299ZM24.84 31.6999C24.71 31.7199 24.08 32.2099 24.11 32.3799C24.14 32.5399 24.7 33.0299 24.92 33.0099C25.08 32.9899 25.66 32.4699 25.63 32.2999C25.61 32.1699 24.97 31.6799 24.83 31.6999H24.84Z" fill="#5B5A5A"/>
  </symbol>

  <symbol id="tutor" viewBox="0 0 51 50" fill="none">
    <path d="M37.86 0.0400391C38.34 0.280039 38.56 0.460039 38.42 1.04004C38.23 1.90004 36.44 1.52004 35.77 1.61004C34.64 1.76004 33.77 2.90004 33.66 3.99004C33.56 4.96004 33.54 8.48004 33.84 9.28004C34.49 11.06 36.1 10.6 36.77 11.62C36.83 11.7 37.08 12.24 37.08 12.29V14.19C38.17 13.23 38.71 11.11 40.34 10.97C42.22 10.8 44.64 11.24 46.45 10.93C47.73 10.71 48.5 9.53004 48.59 8.29004C48.68 7.20004 48.71 4.17004 48.37 3.23004C47.34 0.420039 43.19 2.11004 40.99 1.53004C40.15 1.31004 40.18 0.430039 40.87 0.0400391H46.43C48.28 0.390039 49.59 1.63004 50.04 3.46004V9.12004C48.8 13.79 43.88 12.28 40.25 12.55C39.49 13.19 37.67 16.53 36.89 16.71C34.85 17.18 35.66 13.52 35.48 12.45C33.35 11.89 32.22 10.37 32.07 8.20004C31.89 5.55004 31.67 1.75004 34.48 0.450039L35.69 0.0500391H37.84L37.86 0.0400391Z" fill="#C1D13F"/>
    <path d="M36.96 3.86999C39.34 3.46999 42.65 4.11999 45.13 3.84999C46.18 3.85999 46.45 5.27999 45.33 5.40999H36.84C35.95 5.25999 35.91 4.03999 36.96 3.86999Z" fill="#C1D13F"/>
    <path d="M36.96 7.08997C39.34 6.68997 42.65 7.33997 45.13 7.06997C46.18 7.07997 46.45 8.49997 45.33 8.62997H36.84C35.95 8.47997 35.91 7.25997 36.96 7.08997Z" fill="#C1D13F"/>
    <path d="M18.93 0.0399414C24.27 0.449941 29.12 4.18994 30.84 9.25994C31.49 11.1799 32.06 15.4799 31.28 17.3199C30.85 18.3399 30.03 18.7599 29.09 19.2299C28.99 20.7499 29.25 22.3399 28.92 23.8399C28.5 25.7399 27.09 27.2999 25.3 28.0299L23.52 28.4399C25.94 29.5399 28.72 29.8799 31.23 30.7299C32.15 31.0399 33.06 31.5199 33.77 32.1899C34.19 32.5899 34.46 33.1199 34.91 33.4899C36.99 33.8599 41.06 32.3799 41.38 35.5099V45.6399C43.93 46.2799 43.89 49.6499 41.24 49.9999H2.48003C1.29002 49.9299 0.320025 49.0499 0.100025 47.8899C0.310025 44.0899 -0.209975 39.9399 0.090025 36.1899C0.560025 30.3199 7.32002 30.3599 11.49 28.8499C11.67 28.7799 12.02 28.6699 12.1 28.4799C12.18 28.2699 11.96 28.3499 11.85 28.3399C8.97003 27.9599 6.80002 25.5899 6.73002 22.6799C5.38002 22.8499 4.32002 22.1899 4.19002 20.7799C3.95002 18.1699 4.01003 12.7699 4.63002 10.2899C5.99003 4.85994 11.07 0.459941 16.69 0.0399414C17.32 -0.0100586 18.3 -0.0100586 18.93 0.0399414ZM29.08 17.4999C29.57 17.3099 29.95 16.7599 30.03 16.2599C30.15 15.5299 30.1 13.9399 30.06 13.1599C29.6 4.66994 20.88 -0.840059 13.01 2.55994C7.60003 4.89994 5.12003 10.4599 5.76003 16.1899C5.83003 16.7999 6.18002 17.2499 6.74002 17.5099C6.66002 13.8599 6.50002 10.6599 8.61002 7.52994C13.24 0.669941 23.57 1.04994 27.64 8.27994C29.31 11.2499 29.14 14.2099 29.09 17.5199L29.08 17.4999ZM27.32 11.9399C26.46 6.95994 21.86 3.70994 16.84 4.14994C16.48 4.17994 14.85 4.49994 14.63 4.67994C13.93 5.25994 14.89 7.89994 15.29 8.59994C16.12 10.0399 18.52 11.9499 20.23 11.9499H27.3L27.32 11.9399ZM8.39003 11.9399H10.88C11.92 11.9399 13.22 10.5399 13.49 9.57994C13.8 8.49994 13.37 8.29994 13.14 7.33994C12.99 6.73994 12.94 6.11994 12.88 5.49994C10.6 6.91994 8.90003 9.26994 8.39003 11.9399ZM24.69 13.4999H20.45C19.98 13.4999 18.69 13.0999 18.2 12.9199C16.84 12.3999 15.7 11.5499 14.74 10.4799C14.2 12.0299 12.72 13.1099 11.14 13.4199C11.19 14.3599 10.9 19.4799 11.51 19.9099C12.6 19.8899 13.9 19.7499 14.98 19.8499C17.14 20.0599 17.83 22.6199 16.02 23.8099L15.32 24.1399C15.97 24.3699 16.57 24.7699 17.27 24.8799C20.35 25.3699 24.69 21.4599 24.69 18.3399V13.5099V13.4999ZM8.20002 13.4999V17.6999H9.57002V13.4999H8.20002ZM26.15 13.4999V17.6999H27.52V13.4999H26.15ZM6.73002 21.2099V19.2099C6.73002 19.1499 5.75002 18.6999 5.66002 18.7699C5.64002 18.8499 5.76003 18.8899 5.76003 18.9199V20.9699C5.76003 21.1799 6.57002 21.2699 6.74002 21.2099H6.73002ZM9.76003 19.2599H8.20002V21.2099H10.05C10.05 21.2099 10.15 20.7899 10.15 20.6899C10.12 20.2599 9.71002 19.7399 9.76003 19.2599ZM27.52 19.2599H26.06C25.76 20.8299 24.95 22.2899 23.87 23.4599C23.73 23.6199 22.94 24.2199 22.94 24.2899V26.8799C24.42 26.9899 26.03 26.2099 26.83 24.9599C27 24.6999 27.53 23.5599 27.53 23.3199V19.2699L27.52 19.2599ZM11.78 21.4299C11.27 21.5799 11.28 22.4699 11.86 22.5799C12.25 22.6499 14.69 22.6499 15.08 22.5799C15.68 22.4699 15.69 21.5299 15.08 21.4099C14.76 21.3499 12.04 21.3499 11.79 21.4299H11.78ZM12.88 26.8699V24.2799C12.88 24.1399 11.39 24.1099 10.96 23.8599C10.53 23.6099 9.99002 22.6699 9.91002 22.6699H8.20002C8.39002 25.1099 10.4 27.0299 12.88 26.8699ZM21.37 25.4099C20.28 25.8599 19.12 26.4799 17.91 26.4899C16.7 26.4999 15.51 25.8499 14.44 25.4099V27.2199C14.44 27.5999 14.06 28.5199 13.84 28.8599C12.67 30.6599 10.12 30.6199 8.29002 31.3099C10.48 34.3299 14.06 36.3399 17.85 36.2399C17.66 34.9399 18.23 33.6299 19.65 33.4999C21.48 33.3399 23.53 33.6499 25.39 33.4799C26.26 32.9699 26.83 32.0399 27.51 31.2999C25.64 30.5599 23.2 30.6599 21.96 28.8399C21.78 28.5699 21.36 27.5799 21.36 27.2899V25.3899L21.37 25.4099ZM2.20003 48.4299H5.86002V44.1899C5.86002 43.9199 6.39002 43.6199 6.68002 43.6499C6.97002 43.6799 7.42002 44.1099 7.42002 44.3799V48.4299H16.01C15.68 47.5299 16.17 46.4899 16.95 46.0099C17.16 45.8799 17.82 45.7299 17.85 45.6899C17.95 45.5399 17.81 43.3699 17.86 42.9199C17.99 41.7999 19.33 42.3099 19.33 42.7299V45.7099H39.82V35.3199C39.82 35.1899 39.27 34.8999 39.09 34.9699L19.79 34.9999C19.52 35.0599 19.38 35.2499 19.34 35.5199C19.14 36.7899 19.49 38.4699 19.31 39.7899C19.15 40.5299 18.06 40.4799 17.89 39.8899C17.79 39.5499 17.94 37.8899 17.87 37.8099C13.45 37.8099 9.16002 35.5099 6.83002 31.7699C4.06002 32.1599 1.86002 33.6299 1.59002 36.5999C1.28003 40.0199 1.80002 43.8599 1.58002 47.3199C1.58002 47.6599 1.86003 48.3599 2.21003 48.4399L2.20003 48.4299ZM32.88 33.5099C31.94 32.3899 30.48 32.0699 29.12 31.7499L28.93 31.8499L27.61 33.5099H32.88ZM17.46 47.2599V48.4399H41.75V47.2599H17.46Z" fill="#5B5A5A"/>
  </symbol>

</svg>