<svg xmlns="http://www.w3.org/2000/svg" xmlns:xlink="http://www.w3.org/1999/xlink" style="display:none">

  <symbol id="mejorar-rendimiento" viewBox="0 0 69 50" fill="none" xmlns="http://www.w3.org/2000/svg">
<path d="M49.1838 0H2.81621C1.26006 0 0 1.26137 0 2.81913V35.6838C0 37.2346 1.26006 38.5029 2.81621 38.5029H7.3125C7.73252 38.5029 8.0768 38.1583 8.0768 37.7378C8.0768 37.3173 7.73252 36.9727 7.3125 36.9727H2.81621C2.10699 36.9727 1.5286 36.3937 1.5286 35.6838V2.81913C1.5286 2.10918 2.10699 1.53019 2.81621 1.53019H49.1907C49.8999 1.53019 50.4783 2.10918 50.4783 2.81913V35.6838C50.4783 36.3937 49.8999 36.9727 49.1907 36.9727H10.8655C10.4454 36.9727 10.1012 37.3173 10.1012 37.7378C10.1012 38.1583 10.4454 38.5029 10.8655 38.5029H19.0318C18.8872 39.8401 18.2881 42.7419 15.8369 45.1958H13.2754C12.518 45.1958 11.8983 45.8161 11.8983 46.5743V48.6283C11.8983 49.3865 12.518 50.0069 13.2754 50.0069H32.2177C32.6377 50.0069 32.982 49.6623 32.982 49.2418C32.982 48.8213 32.6377 48.4767 32.2177 48.4767H13.42V46.7122H38.5731V48.4767H35.7775C35.3575 48.4767 35.0132 48.8213 35.0132 49.2418C35.0132 49.6623 35.3575 50.0069 35.7775 50.0069H38.7177C39.4751 50.0069 40.0948 49.3865 40.0948 48.6283V46.5743C40.0948 45.8161 39.4751 45.1958 38.7177 45.1958H36.1562C33.7188 42.7557 33.1128 39.847 32.9613 38.5029H49.1838C50.7331 38.5029 52 37.2415 52 35.6838V2.81913C52 1.26827 50.7399 0 49.1838 0ZM34.1181 45.1889H17.8819C19.9476 42.5834 20.4502 39.8194 20.5673 38.496H31.4258C31.5429 39.8125 32.0456 42.5834 34.1112 45.1889H34.1181Z" fill="#5C5B5B"/>
<path d="M42.8835 32.1271H47.9513C48.3713 32.1271 48.7156 31.7825 48.7156 31.362V4.04604C48.7156 3.62558 48.3713 3.28094 47.9513 3.28094H4.04189C3.62187 3.28094 3.27759 3.62558 3.27759 4.04604V31.362C3.27759 31.7825 3.62187 32.1271 4.04189 32.1271H39.3306C39.7506 32.1271 40.0949 31.7825 40.0949 31.362C40.0949 30.9415 39.7506 30.5969 39.3306 30.5969H4.80619V4.81113H47.187V30.6038H42.8835C42.4635 30.6038 42.1192 30.9484 42.1192 31.3689C42.1192 31.7894 42.4635 32.134 42.8835 32.134V32.1271Z" fill="#C1D13F"/>
<path d="M12.8072 8.25753C12.8072 7.83707 12.463 7.49243 12.0429 7.49243H7.32631C6.90629 7.49243 6.56201 7.83707 6.56201 8.25753V12.3656C6.56201 12.7861 6.90629 13.1307 7.32631 13.1307H12.0429C12.463 13.1307 12.8072 12.7861 12.8072 12.3656V8.25753ZM11.2855 11.6074H8.09061V9.02262H11.2855V11.6074Z" fill="#5C5B5B"/>
<path d="M16.1466 13.1307H28.8643C29.2843 13.1307 29.6286 12.7861 29.6286 12.3656C29.6286 11.9452 29.2843 11.6005 28.8643 11.6005H16.1466C15.7266 11.6005 15.3823 11.9452 15.3823 12.3656C15.3823 12.7861 15.7266 13.1307 16.1466 13.1307Z" fill="#5C5B5B"/>
<path d="M32.5619 7.49933H22.0958C21.6758 7.49933 21.3315 7.84397 21.3315 8.26442C21.3315 8.68488 21.6758 9.02952 22.0958 9.02952H32.5619C32.982 9.02952 33.3262 8.68488 33.3262 8.26442C33.3262 7.84397 32.982 7.49933 32.5619 7.49933Z" fill="#C1D13F"/>
<path d="M16.1466 9.02262H18.5084C18.9284 9.02262 19.2727 8.67798 19.2727 8.25753C19.2727 7.83707 18.9284 7.49243 18.5084 7.49243H16.1466C15.7266 7.49243 15.3823 7.83707 15.3823 8.25753C15.3823 8.67798 15.7266 9.02262 16.1466 9.02262Z" fill="#C1D13F"/>
<path d="M12.8072 15.6535C12.8072 15.233 12.463 14.8884 12.0429 14.8884H7.32631C6.90629 14.8884 6.56201 15.233 6.56201 15.6535V19.7615C6.56201 20.182 6.90629 20.5266 7.32631 20.5266H12.0429C12.463 20.5266 12.8072 20.182 12.8072 19.7615V15.6535ZM11.2855 18.9964H8.09061V16.4117H11.2855V18.9964Z" fill="#C1D13F"/>
<path d="M16.1466 20.5266H28.8643C29.2843 20.5266 29.6286 20.182 29.6286 19.7615C29.6286 19.341 29.2843 18.9964 28.8643 18.9964H16.1466C15.7266 18.9964 15.3823 19.341 15.3823 19.7615C15.3823 20.182 15.7266 20.5266 16.1466 20.5266Z" fill="#5C5B5B"/>
<path d="M32.5619 14.8884H22.0958C21.6758 14.8884 21.3315 15.233 21.3315 15.6535C21.3315 16.0739 21.6758 16.4186 22.0958 16.4186H32.5619C32.982 16.4186 33.3262 16.0739 33.3262 15.6535C33.3262 15.233 32.982 14.8884 32.5619 14.8884Z" fill="#C1D13F"/>
<path d="M16.1466 16.4186H18.5084C18.9284 16.4186 19.2727 16.0739 19.2727 15.6535C19.2727 15.233 18.9284 14.8884 18.5084 14.8884H16.1466C15.7266 14.8884 15.3823 15.233 15.3823 15.6535C15.3823 16.0739 15.7266 16.4186 16.1466 16.4186Z" fill="#C1D13F"/>
<path d="M12.0498 22.2842H7.33315C6.91313 22.2842 6.56885 22.6289 6.56885 23.0493V27.1574C6.56885 27.5779 6.91313 27.9225 7.33315 27.9225H12.0498C12.4698 27.9225 12.8141 27.5779 12.8141 27.1574V23.0493C12.8141 22.6289 12.4698 22.2842 12.0498 22.2842ZM11.2855 26.3923H8.09056V23.8075H11.2855V26.3923Z" fill="#5C5B5B"/>
<path d="M16.1466 27.9156H28.8643C29.2843 27.9156 29.6286 27.571 29.6286 27.1505C29.6286 26.7301 29.2843 26.3854 28.8643 26.3854H16.1466C15.7266 26.3854 15.3823 26.7301 15.3823 27.1505C15.3823 27.571 15.7266 27.9156 16.1466 27.9156Z" fill="#5C5B5B"/>
<path d="M33.3262 23.0493C33.3262 22.6289 32.982 22.2842 32.5619 22.2842H22.0958C21.6758 22.2842 21.3315 22.6289 21.3315 23.0493C21.3315 23.4698 21.6758 23.8144 22.0958 23.8144H32.5619C32.982 23.8144 33.3262 23.4698 33.3262 23.0493Z" fill="#C1D13F"/>
<path d="M16.1466 23.8075H18.5084C18.9284 23.8075 19.2727 23.4629 19.2727 23.0424C19.2727 22.622 18.9284 22.2773 18.5084 22.2773H16.1466C15.7266 22.2773 15.3823 22.622 15.3823 23.0424C15.3823 23.4629 15.7266 23.8075 16.1466 23.8075Z" fill="#C1D13F"/>
<path d="M45.4311 20.9402C45.4173 20.6162 45.1969 20.3336 44.8871 20.244L36.0666 17.5972C35.7981 17.5145 35.5089 17.5903 35.3092 17.7902C35.1095 17.9901 35.0407 18.2796 35.1164 18.5484L37.7605 27.378C37.8569 27.6882 38.1323 27.9088 38.4559 27.9226C38.4697 27.9226 38.4766 27.9226 38.4904 27.9226C38.8002 27.9226 39.0825 27.7364 39.1996 27.4401L40.8452 23.3251L44.9559 21.6777C45.2589 21.5605 45.4517 21.2573 45.4311 20.9333V20.9402ZM39.9777 22.0293C39.7849 22.1051 39.6334 22.2636 39.5508 22.4566L38.5937 24.8484L36.9824 19.4651L42.3601 21.0781L39.9708 22.0361L39.9777 22.0293Z" fill="#C1D13F"/>
  </symbol>

  <symbol id="evitar-errores" viewBox="0 0 50 51" fill="none" xmlns="http://www.w3.org/2000/svg">
<path d="M14.8872 29.689C14.8872 36.754 20.6131 42.5166 27.6488 42.5166C34.6846 42.5166 40.4026 36.754 40.4026 29.689C40.4026 22.6239 34.6768 16.8614 27.6488 16.8614C20.6209 16.8614 14.8872 22.6082 14.8872 29.689ZM24.0408 19.4743C23.4995 20.4058 23.0603 21.5267 22.7152 22.7818H19.3346C20.5739 21.2899 22.1975 20.1374 24.0486 19.4743H24.0408ZM18.0482 24.7632H22.2759C22.0485 26.0262 21.9151 27.3682 21.8602 28.7022H16.9109C17.0285 27.2892 17.4286 25.9631 18.0404 24.7632H18.0482ZM18.0482 34.6148C17.4364 33.407 17.0364 32.0808 16.9187 30.6757H21.8681C21.9151 32.0098 22.0563 33.336 22.2838 34.6148H18.056H18.0482ZM19.3346 36.5962H22.7152C23.0603 37.8434 23.4995 38.9722 24.0408 39.9037C22.1897 39.2406 20.566 38.096 19.3267 36.5962H19.3346ZM27.6488 40.5352C26.7076 40.5352 25.5546 39.1064 24.7545 36.5962H30.5275C29.7274 39.1064 28.5822 40.5352 27.6488 40.5352ZM24.2604 34.6148C24.0329 33.4465 23.876 32.1282 23.829 30.6757H31.4687C31.4216 32.1282 31.2648 33.4465 31.0373 34.6148H24.2604ZM31.2491 39.9037C31.7903 38.9722 32.2295 37.8434 32.5747 36.5962H35.9553C34.716 38.0881 33.0923 39.2406 31.2412 39.9037H31.2491ZM37.2495 34.6148H33.0217C33.2492 33.336 33.3826 32.0098 33.4375 30.6757H38.3868C38.2692 32.0808 37.8691 33.407 37.2573 34.6148H37.2495ZM37.2495 24.7632C37.8613 25.9631 38.2613 27.2892 38.379 28.7022H33.4296C33.3826 27.3682 33.2414 26.0341 33.0139 24.7632H37.2416H37.2495ZM35.9631 22.7818H32.5825C32.2374 21.5267 31.7981 20.4058 31.2569 19.4743C33.108 20.1374 34.7317 21.282 35.971 22.7818H35.9631ZM31.4687 28.7022H23.829C23.876 27.2498 24.0329 25.9315 24.2604 24.7632H31.0373C31.2648 25.9315 31.4216 27.2498 31.4687 28.7022ZM30.5353 22.7818H24.7624C25.5624 20.2558 26.7076 18.8428 27.6567 18.8428C28.6058 18.8428 29.7431 20.2558 30.5353 22.7818Z" fill="#C1D13F"/>
<path d="M28.5195 3.23651H3.58447V11.9593H28.5195V3.23651Z" fill="#C1D13F"/>
<path d="M41.438 44.3006H6.50239C4.00811 44.3006 1.96876 42.264 1.96876 39.7616V15.0774H53.329V32.365C53.329 32.9176 53.7683 33.3518 54.3095 33.3518C54.8507 33.3518 55.2899 32.9176 55.2899 32.365V6.52037C55.2899 2.92864 52.3721 0 48.7876 0H6.50239C2.91784 0 0 2.92864 0 6.52037V39.7537C0 43.3454 2.91784 46.2741 6.50239 46.2741H41.438C41.9793 46.2741 42.4185 45.832 42.4185 45.2873C42.4185 44.7427 41.9793 44.3006 41.438 44.3006ZM7.63972 4.37322C9.37317 4.37322 10.785 5.78623 10.785 7.53868C10.785 9.29113 9.36533 10.7041 7.63972 10.7041C5.91412 10.7041 4.48657 9.27534 4.48657 7.53868C4.48657 5.80202 5.90627 4.37322 7.63972 4.37322ZM27.5705 7.53868C27.5705 9.28323 26.1508 10.7041 24.4173 10.7041C22.6839 10.7041 21.272 9.27534 21.272 7.53868C21.272 5.80202 22.676 4.37322 24.4173 4.37322C26.1586 4.37322 27.5705 5.78623 27.5705 7.53868ZM19.1856 7.53868C19.1856 9.28323 17.7659 10.7041 16.0324 10.7041C14.299 10.7041 12.8793 9.27534 12.8793 7.53868C12.8793 5.80202 14.299 4.37322 16.0324 4.37322C17.7659 4.37322 19.1856 5.78623 19.1856 7.53868Z" fill="#5C5B5B"/>
<path d="M58.7175 45.161L55.0075 41.443L57.0704 39.3748C57.3135 39.1301 57.4155 38.7749 57.3371 38.4354C57.2508 38.096 56.9919 37.8197 56.6547 37.725L44.2538 33.9754C43.9087 33.8728 43.5244 33.9675 43.2734 34.2201C43.0224 34.4727 42.9283 34.8595 43.0302 35.2068L46.7795 47.6555C46.8815 47.995 47.1403 48.2397 47.4776 48.3265C47.8149 48.4133 48.1678 48.3186 48.411 48.066L50.4739 45.9899L54.1839 49.7079C54.38 49.8974 54.6232 49.9921 54.882 49.9921C55.1408 49.9921 55.384 49.8895 55.5801 49.7079L58.7175 46.5583C58.898 46.3688 58.9999 46.1162 58.9999 45.8557C58.9999 45.5952 58.8901 45.3426 58.7175 45.1531V45.161Z" fill="#5C5B5B"/>
 </symbol>

  <symbol id="no-exponer-datos" vviewBox="0 0 50 50" fill="none" xmlns="http://www.w3.org/2000/svg">
<path d="M44.6358 18.5257C44.1505 18.5257 43.7517 18.1335 43.7517 17.6416V8.28237L37.4037 1.7615H8.76766V10.7817C8.76766 11.2669 8.37548 11.6658 7.88359 11.6658C7.39169 11.6658 6.99951 11.2736 6.99951 10.7817V0.884073C6.99951 0.39883 7.39169 0 7.88359 0H37.7759C38.0152 0 38.2412 0.0930604 38.4074 0.265887L45.2673 7.30524C45.4268 7.47142 45.5199 7.69077 45.5199 7.92342V17.6416C45.5199 18.1268 45.1277 18.5257 44.6358 18.5257Z" fill="#5C5B5B"/>
<path d="M16.465 25.5384H0.884073C0.39883 25.5384 0 25.1462 0 24.6543C0 24.1624 0.392183 23.7703 0.884073 23.7703H16.4717C16.9569 23.7703 17.3558 24.1624 17.3558 24.6543C17.3558 25.1462 16.9636 25.5384 16.4717 25.5384H16.465Z" fill="#5C5B5B"/>
<path d="M9.19968 36.7589H0.884073C0.39883 36.7589 0 36.3667 0 35.8748C0 35.3829 0.392183 34.9907 0.884073 34.9907H9.20633C9.69157 34.9907 10.0904 35.3829 10.0904 35.8748C10.0904 36.3667 9.69822 36.7589 9.20633 36.7589H9.19968Z" fill="#5C5B5B"/>
<path d="M24.0162 40.7804C23.6772 40.7804 23.3581 40.5876 23.2119 40.2619L19.1239 31.1553H0.884073C0.39883 31.1553 0 30.7631 0 30.2712C0 29.7793 0.392183 29.3871 0.884073 29.3871H19.7022C20.0479 29.3871 20.3669 29.5932 20.5065 29.9056L24.8272 39.5374C25.0266 39.9827 24.8272 40.5012 24.3818 40.7006C24.2622 40.7538 24.1425 40.7804 24.0229 40.7804H24.0162Z" fill="#5C5B5B"/>
<path d="M49.116 43.6121H33.5284C33.0431 43.6121 32.6443 43.2199 32.6443 42.728C32.6443 42.2361 33.0365 41.8439 33.5284 41.8439H49.116C49.6012 41.8439 50 42.2361 50 42.728C50 43.2199 49.6079 43.6121 49.116 43.6121Z" fill="#5C5B5B"/>
<path d="M49.1159 32.3917H40.7936C40.3084 32.3917 39.9095 31.9995 39.9095 31.5076C39.9095 31.0157 40.3017 30.6235 40.7936 30.6235H49.1159C49.6011 30.6235 49.9999 31.0157 49.9999 31.5076C49.9999 31.9995 49.6078 32.3917 49.1159 32.3917Z" fill="#5C5B5B"/>
<path d="M49.1159 38.0019H30.2978C29.9521 38.0019 29.6331 37.7958 29.4935 37.4834L25.1728 27.8583C24.9734 27.4129 25.1728 26.8945 25.6182 26.695C26.0635 26.4956 26.582 26.695 26.7814 27.1404L30.8694 36.247H49.1159C49.6012 36.247 50 36.6392 50 37.1311C50 37.623 49.6078 38.0152 49.1159 38.0152V38.0019Z" fill="#5C5B5B"/>
<path d="M25.0465 45.5796C23.1787 45.5796 21.6565 44.0574 21.6565 42.1896C21.6565 41.2855 22.0088 40.4347 22.6536 39.7899C23.2917 39.1518 24.1425 38.7995 25.0532 38.7995C26.921 38.7995 28.4433 40.3217 28.4433 42.1896C28.4433 44.0574 26.921 45.5796 25.0532 45.5796H25.0465ZM25.0465 40.561C24.6145 40.561 24.2024 40.7272 23.8966 41.0396C23.5908 41.3454 23.418 41.7575 23.418 42.1896C23.418 43.0869 24.1492 43.8181 25.0465 43.8181C25.9439 43.8181 26.6751 43.0869 26.6751 42.1896C26.6751 41.2922 25.9439 40.5676 25.0465 40.5676V40.561Z" fill="#C1D13F"/>
<path d="M24.9535 28.5961C23.0857 28.5961 21.5635 27.0739 21.5635 25.206C21.5635 23.3382 23.0857 21.816 24.9535 21.816C26.8214 21.816 28.3436 23.3382 28.3436 25.206C28.3436 27.0739 26.8214 28.5961 24.9535 28.5961ZM24.9535 23.5775C24.0562 23.5775 23.3316 24.3087 23.3316 25.206C23.3316 26.1034 24.0628 26.8346 24.9535 26.8346C25.8443 26.8346 26.5821 26.1034 26.5821 25.206C26.5821 24.3087 25.8509 23.5775 24.9535 23.5775Z" fill="#C1D13F"/>
<path d="M47.0154 50H2.98458C1.33608 50 0 48.6573 0 47.0154V12.8889C0 11.2404 1.34273 9.9043 2.98458 9.9043H21.5235C23.1654 9.9043 24.5081 11.247 24.5081 12.8889V15.5477C24.5081 16.2191 25.0532 16.7642 25.7312 16.7642H47.0154C48.6639 16.7642 50 18.1069 50 19.7488V47.0154C50 48.6639 48.6573 50 47.0154 50ZM2.98458 11.6658C2.31321 11.6658 1.7615 12.2109 1.7615 12.8889V47.0154C1.7615 47.6868 2.30657 48.2385 2.98458 48.2385H47.0154C47.6868 48.2385 48.2385 47.6935 48.2385 47.0154V19.7488C48.2385 19.0774 47.6934 18.5257 47.0154 18.5257H25.7312C24.0827 18.5257 22.7466 17.1896 22.7466 15.5411V12.8822C22.7466 12.2109 22.2015 11.6592 21.5302 11.6592H2.98458V11.6658Z" fill="#C1D13F"/>
  </symbol>
  
</svg>