<svg xmlns="http://www.w3.org/2000/svg" xmlns:xlink="http://www.w3.org/1999/xlink" style="display:none">
 
  <symbol id="icono-atencion-temprana" viewBox="0 0 56 48">
    <path d="M44.67 40.09L44.18 38.74L45.61 39.08C45.86 39.16 46.14 39.08 46.33 38.87C47.84 37.03 49.07 34.98 49.97 32.79C50.08 32.53 50.02 32.24 49.83 32.04L48.73 30.9L50.34 30.62C50.6 30.57 50.82 30.38 50.89 30.12C51.46 28.06 51.75 25.93 51.75 23.79V23.15C51.75 22.87 51.57 22.63 51.31 22.52L49.69 21.86L51.19 20.84C51.42 20.69 51.54 20.42 51.49 20.15C51.14 17.86 50.46 15.64 49.47 13.56C49.36 13.29 49.08 13.14 48.81 13.15L46.89 13.21L47.93 11.54C48.08 11.31 48.08 11.02 47.93 10.79C46.68 8.87 45.15 7.15 43.41 5.67C43.2 5.49 42.9 5.45 42.66 5.57L40.81 6.47L41.09 4.42C41.13 4.15 41.01 3.87 40.78 3.72C38.87 2.5 36.8 1.55 34.61 0.92C34.36 0.85 34.09 0.94 33.91 1.14L32.52 2.79L31.92 0.71C31.84 0.46 31.61 0.28 31.35 0.24C29.11 -0.08 26.84 -0.08 24.61 0.24C24.34 0.28 24.11 0.47 24.04 0.74L23.45 2.79L22.07 1.15C21.89 0.94 21.6 0.85 21.34 0.93C19.16 1.56 17.09 2.5 15.18 3.73C14.94 3.88 14.82 4.15 14.86 4.42L15.15 6.49L13.31 5.59C13.06 5.47 12.76 5.51 12.55 5.69C10.8 7.18 9.27997 8.9 8.02997 10.82C7.87997 11.05 7.87997 11.34 8.02997 11.57L9.07997 13.23L7.14997 13.16C6.88997 13.16 6.61997 13.31 6.49997 13.56C5.49997 15.65 4.81997 17.87 4.47997 20.16C4.42997 20.43 4.54997 20.7 4.76997 20.86L6.26997 21.88L4.64997 22.54C4.39997 22.64 4.22997 22.89 4.21997 23.17V23.81C4.21997 25.95 4.50997 28.08 5.07997 30.14C5.14997 30.4 5.36997 30.6 5.62997 30.64L7.23997 30.91L6.14997 32.04C5.93997 32.23 5.86997 32.53 5.96997 32.81C6.86997 35.01 8.09997 37.06 9.60997 38.9C9.77997 39.1 10.05 39.2 10.31 39.14L11.75 38.8L11.26 40.15C11.17 40.41 11.23 40.7 11.43 40.89C13.16 42.55 15.13 43.94 17.27 45.01C17.51 45.13 17.81 45.1 18.02 44.94L19.1 44.1L19.2 45.45C19.22 45.72 19.4 45.96 19.65 46.06C21.92 46.91 24.29 47.4 26.71 47.53C26.72 47.53 26.73 47.53 26.75 47.53C27 47.53 27.24 47.39 27.36 47.16L27.98 45.99L28.6 47.16C28.72 47.39 28.96 47.53 29.25 47.53C31.67 47.4 34.04 46.91 36.31 46.06C36.56 45.96 36.74 45.72 36.76 45.46L36.86 44.11L37.94 44.95C38.15 45.11 38.44 45.14 38.68 45.02C40.83 43.94 42.79 42.54 44.52 40.86C44.72 40.67 44.79 40.38 44.69 40.12L44.67 40.09ZM13.47 37.48C13.39 37.31 13.25 37.18 13.08 37.12C12.95 37.07 12.81 37.06 12.67 37.1L10.39 37.66C9.18997 36.14 8.18997 34.46 7.40997 32.68L9.07997 30.93C9.25997 30.75 9.31997 30.48 9.23997 30.23C9.15997 29.99 8.94997 29.81 8.69997 29.76L6.23997 29.34C5.77997 27.51 5.54997 25.62 5.55997 23.74V23.61L7.96997 22.63C8.32997 22.48 8.48997 22.07 8.34997 21.72C8.29997 21.59 8.20997 21.49 8.09997 21.41L5.88997 19.93C6.20997 18.08 6.75997 16.27 7.53997 14.56L10.3 14.65C10.58 14.68 10.82 14.53 10.94 14.3C11.06 14.09 11.06 13.82 10.94 13.6L9.43997 11.2C10.48 9.67 11.71 8.27 13.09 7.04L15.7 8.31C15.93 8.42 16.19 8.39 16.4 8.25C16.61 8.1 16.71 7.85 16.68 7.59L16.26 4.67C17.82 3.71 19.5 2.95 21.25 2.4L23.19 4.66C23.36 4.87 23.63 4.96 23.88 4.9C24.13 4.85 24.33 4.66 24.4 4.41L25.25 1.52C27.06 1.3 28.9 1.3 30.71 1.52L31.56 4.41C31.67 4.78 32.05 4.99 32.43 4.88C32.56 4.84 32.68 4.76 32.77 4.65L34.65 2.37C36.4 2.92 38.09 3.68 39.66 4.64L39.24 7.56C39.21 7.81 39.31 8.06 39.52 8.22C39.72 8.36 39.99 8.39 40.22 8.28L42.83 7.01C44.21 8.25 45.44 9.65 46.48 11.19L44.98 13.6C44.86 13.81 44.86 14.08 44.98 14.29C45.1 14.53 45.35 14.67 45.61 14.65L48.38 14.56C49.15 16.27 49.7 18.08 50.02 19.93L47.81 21.43C47.6 21.57 47.48 21.82 47.51 22.08C47.54 22.33 47.7 22.55 47.94 22.65L50.35 23.63V23.76C50.35 25.63 50.11 27.49 49.65 29.3L47.19 29.72C46.94 29.76 46.73 29.94 46.65 30.19C46.57 30.44 46.63 30.7 46.81 30.89L48.48 32.64C47.71 34.42 46.71 36.1 45.5 37.62L43.25 37.07C42.88 36.98 42.5 37.2 42.4 37.57C42.36 37.71 42.37 37.85 42.42 37.98L43.21 40.13C41.77 41.48 40.16 42.63 38.42 43.55L36.66 42.18C36.46 42.03 36.2 41.99 35.96 42.09C35.72 42.2 35.57 42.42 35.55 42.68L35.39 44.88C33.53 45.54 31.59 45.94 29.61 46.08L28.58 44.15C28.49 43.98 28.35 43.86 28.17 43.81C27.99 43.76 27.8 43.77 27.64 43.86C27.51 43.93 27.41 44.03 27.35 44.15L26.32 46.08C24.35 45.94 22.41 45.53 20.54 44.88L20.38 42.68C20.35 42.3 20.02 41.99 19.64 42.03C19.5 42.03 19.37 42.09 19.26 42.17L17.49 43.54C15.76 42.62 14.15 41.48 12.71 40.14L13.49 37.99C13.55 37.82 13.54 37.63 13.46 37.46L13.47 37.48Z" fill="#5C5B5B"/>
    <path d="M54.04 32.5C53.87 32.43 53.68 32.44 53.5 32.5C53.33 32.58 53.2 32.71 53.12 32.92C52.09 35.76 50.6 38.38 48.69 40.71C47.52 42.12 46.21 43.42 44.78 44.57C44.48 44.81 44.43 45.25 44.67 45.55C44.8 45.72 45 45.81 45.22 45.81C45.38 45.81 45.53 45.75 45.65 45.66C47.15 44.45 48.53 43.09 49.75 41.6C51.77 39.14 53.34 36.38 54.43 33.4C54.57 33.04 54.39 32.64 54.04 32.5Z" fill="#5C5B5B"/>
    <path d="M55.14 27.76C54.77 27.7 54.4 27.95 54.34 28.33C54.22 29.01 54.07 29.7 53.9 30.39C53.81 30.74 54 31.09 54.33 31.22L54.43 31.25C54.43 31.25 54.49 31.25 54.52 31.25C54.54 31.25 54.56 31.25 54.57 31.25C54.91 31.25 55.19 31.04 55.27 30.73C55.46 30 55.61 29.27 55.72 28.55C55.78 28.17 55.52 27.83 55.15 27.76H55.14Z" fill="#5C5B5B"/>
    <path d="M5.93003 8.00999C6.14003 8.03999 6.36003 7.90999 6.50003 7.72999C6.99003 7.06999 7.51003 6.43999 8.04003 5.84999C8.30003 5.55999 8.28003 5.11999 7.99003 4.86999C7.70003 4.61999 7.27003 4.62999 7.01003 4.90999L6.97003 4.94999C6.41003 5.56999 5.88003 6.22999 5.38003 6.89999C5.27003 7.04999 5.22003 7.22999 5.25003 7.41999C5.28003 7.60999 5.37003 7.76999 5.53003 7.87999C5.65003 7.96999 5.79003 8.00999 5.94003 8.00999H5.93003Z" fill="#5C5B5B"/>
    <path d="M3.67001 10.93C3.33001 10.75 2.91001 10.88 2.71001 11.25C1.28001 14.15 0.370012 17.25 1.16252e-05 20.47C-0.0399884 20.85 0.230012 21.2 0.640012 21.24H0.710012C1.04001 21.22 1.32001 20.97 1.37001 20.64C1.72001 17.58 2.59001 14.63 3.96001 11.87C4.14001 11.53 4.01001 11.11 3.68001 10.93H3.67001Z" fill="#5C5B5B"/>
    <path d="M27.86 39.4C36.49 39.4 43.51 32.38 43.51 23.75C43.51 15.12 36.49 8.09998 27.86 8.09998C19.23 8.09998 12.21 15.12 12.21 23.75C12.23 32.35 19.25 39.37 27.86 39.4ZM13.82 23.75C13.84 16.03 20.15 9.72998 27.86 9.70998C35.6 9.70998 41.9 16.01 41.9 23.75C41.9 31.49 35.6 37.79 27.86 37.79C20.12 37.79 13.82 31.49 13.82 23.75Z" fill="#C1D13F"/>
    <path d="M18.78 32.96H18.83C21.33 35.41 24.59 36.64 27.86 36.64C31.13 36.64 34.4 35.41 36.9 32.95L37.07 32.93V32.78C41.98 27.78 41.98 19.72 37.07 14.72V14.61L36.89 14.54C31.88 9.61998 23.82 9.62998 18.82 14.55L18.65 14.57V14.72C13.74 19.72 13.74 27.79 18.66 32.79L18.77 32.95L18.78 32.96ZM17.9 23.75C17.9 23.31 17.54 22.95 17.1 22.95H16.6C16.77 20.52 17.74 18.2 19.33 16.36L19.69 16.72C19.84 16.87 20.04 16.95 20.26 16.95C20.46 16.95 20.68 16.87 20.83 16.71C21.14 16.4 21.14 15.89 20.83 15.58L20.47 15.22C22.31 13.62 24.64 12.66 27.07 12.49V12.99C27.07 13.43 27.43 13.79 27.87 13.79C28.31 13.79 28.67 13.43 28.67 12.99V12.49C31.1 12.66 33.43 13.62 35.26 15.22L34.9 15.59C34.59 15.9 34.59 16.41 34.9 16.73C35.2 17.03 35.74 17.03 36.04 16.73L36.4 16.37C38 18.21 38.96 20.53 39.13 22.96H38.63C38.42 22.96 38.21 23.04 38.06 23.2C37.91 23.36 37.83 23.55 37.83 23.77C37.83 24.21 38.19 24.57 38.63 24.57H39.13C38.96 27 37.99 29.33 36.4 31.17L36.04 30.81C35.73 30.5 35.22 30.49 34.9 30.81C34.59 31.12 34.59 31.63 34.9 31.94L35.26 32.3C33.42 33.9 31.1 34.86 28.67 35.04V34.54C28.67 34.1 28.31 33.74 27.87 33.74C27.43 33.74 27.07 34.1 27.07 34.54V35.04C24.64 34.87 22.31 33.91 20.48 32.3L20.86 31.92C21.15 31.58 21.11 31.08 20.77 30.79C20.47 30.53 20.03 30.53 19.71 30.8L19.35 31.16C17.75 29.32 16.78 26.99 16.61 24.56H17.11C17.55 24.56 17.91 24.2 17.91 23.76L17.9 23.75Z" fill="#C1D13F"/>
    <path d="M27.29 24.33C27.44 24.4799 27.64 24.5499 27.84 24.5499C27.84 24.5499 27.84 24.5499 27.86 24.5499C27.96 24.5499 28.06 24.53 28.16 24.49C28.46 24.37 28.66 24.07 28.66 23.75V17C28.66 16.56 28.3 16.2 27.86 16.2C27.42 16.2 27.06 16.56 27.06 17V21.83L26.32 21.1C26.01 20.79 25.5 20.79 25.18 21.1C24.87 21.41 24.87 21.92 25.18 22.2299L27.29 24.3099V24.33Z" fill="#5C5B5B"/>
  </symbol>
 
  <symbol id="icono-vida-saludable" viewBox="0 0 46 47">
    <path d="M32.203 14.68C32.003 14.74 31.113 16.99 30.823 17.34C30.473 17.77 29.833 17.72 29.573 17.22L27.433 12.93L25.023 19.42C24.723 19.99 23.913 19.95 23.673 19.36L21.423 11.28C21.283 11.3 21.243 11.45 21.193 11.56C20.373 13.27 19.943 15.47 19.143 17.22C18.883 17.73 18.163 17.77 17.853 17.28L15.633 12.75C15.423 12.7 15.483 12.78 15.433 12.87C15.143 13.32 14.823 14.54 14.293 14.66L8.85303 14.63C8.45303 14.51 8.25303 13.62 8.14303 13.23C7.37303 10.61 7.15303 7.51996 8.14303 4.92996C10.233 -0.550043 17.333 -1.53004 21.423 2.33996L22.933 4.03996C26.673 -1.81004 35.943 -1.35004 37.913 5.75996C38.303 7.17996 38.523 9.81996 38.103 11.22C37.873 11.96 36.823 11.9 36.673 11.22C36.583 10.8 36.823 9.96996 36.843 9.49996C37.013 6.02996 35.703 2.62996 32.063 1.68996C28.743 0.829958 25.973 2.34996 24.053 4.96996C23.673 5.48996 23.503 6.38996 22.673 6.20996C22.243 6.11996 21.973 5.32996 21.713 4.96996C19.813 2.35996 17.083 0.859958 13.783 1.66996C8.65303 2.92996 8.12303 9.01996 9.73303 13.21L13.623 13.16C13.853 13.02 14.623 10.94 14.953 10.55C15.283 10.16 15.883 10.17 16.173 10.61L18.343 14.95L20.753 8.45996C21.053 7.88996 21.863 7.92996 22.103 8.51996L24.353 16.6C24.493 16.58 24.533 16.43 24.583 16.32C25.403 14.61 25.833 12.41 26.633 10.66C26.893 10.15 27.613 10.11 27.923 10.6L30.143 15.13C30.353 15.18 30.293 15.1 30.343 15.01C30.633 14.56 30.953 13.34 31.483 13.22C33.093 13.32 35.033 13.01 36.603 13.2C37.933 13.36 37.083 14.85 36.783 15.59C34.653 20.72 30.103 24.66 25.613 27.73C25.173 28.03 23.293 29.35 22.933 29.37C22.733 29.37 22.653 29.33 22.493 29.26C21.013 28.61 18.043 26.24 16.703 25.14C14.723 23.52 10.693 19.77 9.86303 17.39C9.59303 16.62 10.453 16.01 11.013 16.51C13.663 21.34 18.223 24.66 22.713 27.66L22.933 27.71C27.993 24.41 33.323 20.53 35.563 14.68H32.213H32.203Z" fill="#C1D13F"/>
    <path d="M2.6829 5.90004C4.7329 5.62004 5.9829 7.04004 6.1929 8.95004C6.5229 12.03 6.4329 15.3 6.7429 18.4C6.6729 19.24 5.5529 19.35 5.2929 18.56L4.7229 9.13004C4.7229 6.92004 1.8829 6.67004 1.6029 8.85004V31.8C2.0429 36.99 5.4129 41.32 7.4329 45.98C7.7229 46.84 6.6529 47.4 6.1129 46.66C4.0129 41.8 0.402899 37.16 0.122899 31.71C-0.267101 24.12 0.422899 16.2 0.122899 8.58004C0.252899 7.28004 1.3629 6.07004 2.6729 5.90004H2.6829Z" fill="#5B5A5A"/>
    <path d="M42.1429 5.90003C43.8729 5.67003 45.3629 6.80003 45.6429 8.50003V31.89C45.2329 37.33 41.7929 41.81 39.6729 46.65C39.1329 47.39 38.0629 46.84 38.3529 45.97C40.3729 41.32 43.7429 36.98 44.1829 31.79V8.85003C44.0829 7.24003 42.0129 6.74003 41.2529 8.22003C40.7929 11.63 40.8029 15.12 40.4929 18.56C40.2229 19.35 39.1129 19.24 39.0429 18.4C39.3529 15.29 39.2729 12.04 39.5929 8.95003C39.7429 7.48003 40.5529 6.11003 42.1429 5.90003Z" fill="#5B5A5A"/>
    <path d="M6.16301 20.58C7.10301 20.48 8.05301 20.91 8.55301 21.72C9.95301 24.44 10.863 27.53 12.223 30.25C13.423 32.66 14.523 32.73 16.613 33.94C18.913 35.27 20.483 37.76 20.683 40.43C20.793 41.89 20.853 44.9 20.683 46.3C20.583 47.16 19.503 47.24 19.233 46.46C18.993 42.95 20.043 39.35 17.463 36.48C16.223 35.11 14.653 34.85 13.253 33.81C10.173 31.52 9.27301 26.04 7.43301 22.74C6.68301 21.4 5.17301 22.2 4.98301 23.45C5.57301 27.4 6.69301 31.28 7.46301 35.2C7.53301 35.97 6.47301 36.28 6.09301 35.64L3.53301 24.34C3.17301 22.62 4.38301 20.77 6.15301 20.58H6.16301Z" fill="#5B5A5A"/>
    <path d="M39.0229 20.58C41.0129 20.34 42.6529 22.42 42.2329 24.34L39.6729 35.64C39.2929 36.28 38.2329 35.96 38.3029 35.2L40.7629 24.16C41.1629 22.74 39.4129 21.2 38.3829 22.6C37.1129 25.3 36.1629 28.33 34.8329 30.99C33.5029 33.65 32.1929 33.88 29.8329 35.26C25.5729 37.76 26.7129 42.28 26.5329 46.46C26.2629 47.24 25.1829 47.16 25.0829 46.3C24.9229 44.9 24.9829 41.88 25.0829 40.43C25.2429 38.21 26.3629 36.1 28.0629 34.7C30.2329 32.9 32.0429 33.3 33.5329 30.26C34.8729 27.55 35.7929 24.5 37.1729 21.78C37.5529 21.14 38.2529 20.67 39.0029 20.58H39.0229Z" fill="#5B5A5A"/>
  </symbol>

  <symbol id="icono-pase-reglamentario" viewBox="0 0 36 47">
    <path d="M27.4232 11.8904C32.5532 11.3804 35.0132 17.4204 35.2432 21.6304C35.4632 25.5804 34.2732 28.3804 33.1032 31.9804C32.5632 33.6404 32.6832 35.1704 30.3432 34.9804C27.6332 34.7604 24.7632 33.9204 22.0232 33.6704C21.1032 33.4904 20.4332 32.6404 20.3932 31.7104C20.2532 27.7904 20.1932 23.7904 21.0432 19.9304C21.7732 16.6004 23.5132 12.2804 27.4132 11.9004L27.4232 11.8904ZM30.8332 33.0704C31.1532 31.0304 32.1232 29.2004 32.6432 27.2104C33.4632 24.0504 33.6232 20.5504 32.3232 17.4904C30.4632 13.1204 26.2532 12.3204 24.0632 16.9704C22.2332 20.8504 22.2432 25.7004 22.4032 29.9004C22.4232 30.5304 22.3832 31.1604 22.4032 31.7904L30.8432 33.0704H30.8332Z" fill="#5B5A5A"/>
    <path d="M6.96318 0.0504247C11.6432 -0.519575 13.6232 3.85042 14.2932 7.72042C14.9632 11.5904 14.6632 15.2604 14.1432 19.1704C13.9632 20.5104 14.2032 21.6704 12.6032 22.2204L3.37318 22.8704C1.45318 22.5704 1.68318 20.8204 1.35318 19.3904C0.463177 15.5704 -0.426823 12.8804 0.223177 8.82042C0.773177 5.39042 3.07318 0.520425 6.96318 0.0504247ZM12.1232 20.3104C12.1332 20.0804 12.1032 19.8504 12.1232 19.6204C12.5832 15.2004 13.2232 10.7304 11.9832 6.36042C10.5832 1.39043 6.45318 0.210425 3.64318 4.90042C2.18318 7.34043 1.76318 10.5804 2.03318 13.3804C2.28318 15.9704 3.27318 18.3804 3.59318 20.9504L12.1232 20.3104Z" fill="#5B5A5A"/>
    <path d="M21.2732 36.6704C21.5732 36.6204 21.9432 36.6404 22.2532 36.6604C24.7432 36.8304 27.4332 37.6704 29.9432 37.8604C30.8432 38.0004 31.6532 38.8904 31.6632 39.8104C31.6732 40.7304 31.1132 43.3904 30.6532 44.2204C28.1632 48.7404 20.4032 47.4604 19.4832 42.4504C19.3132 41.5104 19.6032 38.8204 19.9432 37.9004C20.1532 37.3404 20.6632 36.7704 21.2732 36.6604V36.6704ZM28.4232 43.9604C28.5732 43.8104 28.8832 43.3904 28.9932 43.2004C29.2432 42.7204 29.6532 40.6504 29.6532 40.0904C29.6532 39.9904 29.6532 39.8804 29.5632 39.8104L21.7632 38.5804C21.7032 40.0504 21.0032 41.5004 21.7132 42.9004C22.8932 45.2304 26.5832 45.8104 28.4232 43.9704V43.9604Z" fill="#C1D13F"/>
    <path d="M10.8231 25.2904C11.4831 25.2604 12.3431 25.1604 12.9531 25.4004C13.4131 25.5904 13.9431 26.2204 14.0331 26.7104C14.2631 27.9704 14.3531 30.4104 13.9131 31.6004C12.3631 35.7704 6.21306 36.5304 3.45306 33.1604C2.48306 31.9804 2.28306 30.5704 2.21306 29.0704C2.12306 27.2404 2.14306 25.9704 4.28306 25.7304C6.42306 25.4904 8.74306 25.3704 10.8131 25.2904H10.8231ZM12.1231 27.1904L4.14306 27.7404C4.28306 29.3804 4.01306 31.1404 5.38306 32.3304C7.06306 33.7904 10.0331 33.6304 11.4831 31.9204C12.6731 30.5104 12.1031 28.8804 12.1231 27.1904Z" fill="#C1D13F"/>
  </symbol>

  <symbol id="icono-orientacion-vocacional" viewBox="0 0 37 48">
    <path d="M16.64 5.80995C16.64 5.80995 16.62 5.78995 16.62 5.77995C16.62 5.77995 16.59 5.75995 16.58 5.73995C16.58 5.73995 16.57 5.73995 16.56 5.72995C16.52 5.70995 16.48 5.67995 16.44 5.65995C16.35 5.60995 16.29 5.53995 16.26 5.44995H3.18004C2.83004 5.44995 2.54004 5.73995 2.54004 6.08995V40.25C2.54004 40.5999 2.83004 40.89 3.18004 40.89H22.62C22.97 40.89 23.26 40.5999 23.26 40.25V16.3H23.28C23.28 16.3 23.26 16.28 23.25 16.28C23.18 16.25 23.09 16.21 23.01 16.21C23.08 16.21 22.91 16.23 22.93 16.22C22.84 16.24 22.69 16.29 22.59 16.35C22.36 16.48 22.2 16.64 22.15 16.86C22.12 16.98 22.12 17.07 22.1 17.24C22.08 17.41 22.05 17.58 22 17.75C22 17.77 21.99 17.7699 21.98 17.79L22.01 30.22L17.58 28.34L16.67 26.79L16.6 26.7099C16.6 26.7099 16.53 26.65 16.48 26.61C16.45 26.59 16.42 26.58 16.39 26.57C16.35 26.5499 16.32 26.54 16.22 26.52H15.96C15.96 26.52 15.92 26.54 15.9 26.54C15.9 26.54 15.88 26.54 15.87 26.54H15.79L12.86 28.74L10 26.59L9.75004 26.52H9.50004C9.50004 26.52 9.42004 26.5499 9.38004 26.57L9.27004 26.63C9.27004 26.63 9.22004 26.67 9.20004 26.7L8.21004 28.34L3.83004 30.13V6.74995H15.87C15.92 6.69995 15.98 6.65995 16.04 6.61995C16.08 6.58995 16.23 6.46995 16.1 6.57995C16.18 6.49995 16.27 6.43995 16.35 6.35995C16.39 6.31995 16.43 6.27995 16.47 6.23995C16.49 6.21995 16.5 6.19995 16.52 6.18995C16.55 6.13995 16.58 6.09995 16.61 6.04995C16.61 6.02995 16.63 6.01995 16.64 5.99995C16.64 5.96995 16.66 5.92995 16.67 5.89995C16.67 5.89995 16.67 5.89995 16.67 5.88995C16.67 5.88995 16.67 5.86995 16.67 5.85995C16.67 5.85995 16.67 5.84995 16.66 5.83995L16.64 5.80995ZM15.92 28.09L16.38 28.8699L14.73 30.68L13.83 29.67L15.92 28.09ZM9.80004 28.1L11.91 29.68L11.01 30.69L9.36004 28.88L9.81004 28.1H9.80004ZM3.94004 31.44C4.02004 31.44 4.10004 31.42 4.17004 31.3899L8.32004 29.68L10.53 32.09C10.65 32.2199 10.82 32.3 11 32.3C11.18 32.3 11.35 32.2199 11.48 32.09L12.84 30.56L14.2 32.09C14.44 32.35 14.9 32.36 15.15 32.09L17.35 29.69L21.6 31.4799C21.68 31.51 21.76 31.53 21.85 31.53C21.89 31.53 21.93 31.53 21.96 31.53V39.64H3.83004V31.44C3.83004 31.44 3.91004 31.44 3.95004 31.44H3.94004Z" fill="#5C5B5B"/>
    <path d="M25.4 14.56C25.4 14.56 25.32 14.54 25.3 14.53C25.29 14.53 25.27 14.53 25.26 14.53C25.26 14.53 25.2 14.54 25.19 14.54C25.17 14.54 25.17 14.54 25.22 14.52C25.19 14.54 25.15 14.56 25.12 14.58C25.23 14.53 25.15 14.56 25.1 14.61C25.09 14.62 25.08 14.63 25.07 14.65C25.05 14.67 25.04 14.7 25.02 14.72C24.98 14.79 24.94 14.86 24.91 14.93C24.83 15.09 24.77 15.25 24.7 15.41C24.65 15.52 24.59 15.62 24.54 15.73V43.98C24.54 45.2201 23.53 46.23 22.29 46.23H3.53C2.38 46.23 1.42 45.35 1.3 44.23H1.34V3.52005C1.34 2.28005 2.35 1.27005 3.59 1.27005H22.29C22.55 1.27005 22.8 1.32005 23.04 1.40005H22.46C22.77 1.48005 23.07 1.57005 23.38 1.64005C23.78 1.73005 24.04 1.78005 24.46 1.75005C24.48 1.75005 24.5 1.75005 24.52 1.75005C24.56 1.75005 24.6 1.74005 24.64 1.73005C24.68 1.72005 24.73 1.71005 24.77 1.69005C24.78 1.69005 24.78 1.69005 24.79 1.69005C24.83 1.67005 24.87 1.65005 24.91 1.62005C24.91 1.62005 24.91 1.62005 24.92 1.61005C24.95 1.58005 24.97 1.56005 25 1.53005L25.05 1.46005C25.07 1.44005 25.09 1.42005 25.1 1.40005C24.43 0.530047 23.4 0.0100469 22.29 4.69132e-05H3.53C1.58 -0.00995309 0 1.58005 0 3.52005V43.95C0 45.9 1.58 47.48 3.53 47.48H22.28C24.23 47.48 25.81 45.89 25.81 43.95V14.8H25.79C25.67 14.71 25.53 14.63 25.39 14.57L25.4 14.56Z" fill="#5C5B5B"/>
    <path d="M14.9799 2.69995H10.8299C10.4799 2.69995 10.1899 2.98995 10.1899 3.33995C10.1899 3.68995 10.4799 3.97995 10.8299 3.97995H14.9799C15.3299 3.97995 15.6199 3.68995 15.6199 3.33995C15.6199 2.98995 15.3299 2.69995 14.9799 2.69995Z" fill="#5C5B5B"/>
    <path d="M8.78014 2.69995C8.43014 2.69995 8.14014 2.98995 8.14014 3.33995C8.14014 3.68995 8.43014 3.97995 8.78014 3.97995C9.13014 3.97995 9.42014 3.68995 9.42014 3.33995C9.42014 2.98995 9.13014 2.69995 8.78014 2.69995Z" fill="#5C5B5B"/>
    <path d="M12.92 45.7399C14.14 45.7399 15.13 44.7499 15.13 43.5299C15.13 42.3099 14.14 41.3199 12.92 41.3199C11.7 41.3199 10.71 42.3099 10.71 43.5299C10.71 44.7499 11.7 45.7399 12.92 45.7399ZM12 43.5299C12 43.0199 12.42 42.6099 12.93 42.6099H13.02C13.49 42.6499 13.85 43.0499 13.85 43.5299C13.85 44.0399 13.43 44.4599 12.92 44.4599C12.41 44.4599 11.99 44.0399 11.99 43.5399L12 43.5299Z" fill="#5C5B5B"/>
    <path d="M18.5999 20.79C18.4999 20.57 18.3799 20.37 18.2099 20.2C18.3399 19.66 18.4099 19.1 18.4099 18.54C18.4099 15.14 15.9299 12.47 12.7699 12.47C9.60993 12.47 7.12993 15.14 7.12993 18.54C7.12993 19.1 7.19993 19.65 7.32993 20.2C6.57993 21 6.56993 22.26 7.32993 23.08C7.50993 23.27 7.70993 23.42 7.93993 23.53C8.81993 25.83 10.7099 27.32 12.7699 27.32C14.8299 27.32 16.7199 25.84 17.5999 23.53C18.5999 23.03 19.0399 21.83 18.5899 20.79H18.5999ZM8.67993 20.23C8.50993 19.69 8.42993 19.12 8.42993 18.55C8.42993 15.87 10.3399 13.77 12.7899 13.77C15.2399 13.77 17.1399 15.87 17.1399 18.55C17.1399 19.12 17.0599 19.69 16.8799 20.23C16.7999 20.5 16.8999 20.8 17.1399 20.95C17.5199 21.2 17.6099 21.71 17.3599 22.09C17.2599 22.24 17.1199 22.35 16.9499 22.41H16.9199C16.7099 22.48 16.5499 22.63 16.4899 22.84C15.8599 24.78 14.4099 26.03 12.7799 26.03C11.1499 26.03 9.71993 24.78 9.06993 22.84C8.99993 22.64 8.83993 22.48 8.63993 22.42C8.42993 22.35 8.25993 22.21 8.15993 22.02C8.05993 21.83 8.03993 21.6 8.09993 21.39C8.15993 21.21 8.26993 21.06 8.41993 20.95C8.65993 20.79 8.75993 20.5 8.67993 20.22V20.23Z" fill="#5C5B5B"/>
    <path d="M13.93 17.67C14.07 17.53 14.23 17.41 14.39 17.3C14.51 17.97 14.71 18.33 15.23 18.33C15.32 18.33 15.56 18.33 15.59 18.33C15.59 18.33 15.6 18.36 15.62 18.41C15.69 18.71 15.96 18.9 16.22 18.9C16.24 18.9 16.26 18.9 16.29 18.9C16.32 18.9 16.36 18.9 16.4 18.9C16.74 18.82 16.95 18.48 16.88 18.14C16.77 17.54 16.26 17.1 15.67 17.06C15.63 16.83 15.61 16.59 15.59 16.35C15.56 16.02 15.28 15.76 14.95 15.76C14.71 15.76 14.04 15.85 13.07 16.72C12.2 17.51 10.89 17.62 9.89001 17.01C9.58001 16.83 9.19001 16.94 9.01001 17.25C8.85001 17.54 8.93001 17.9 9.21001 18.1C10.69 19.03 12.64 18.85 13.94 17.68L13.93 17.67Z" fill="#5C5B5B"/>
    <path d="M33.3498 1.41003H19.0198C17.5298 1.41003 16.3198 2.62003 16.3198 4.11003V11.76C16.3198 13.24 17.5298 14.46 19.0198 14.46H20.0998V17.17C20.0998 17.4 20.2198 17.62 20.4298 17.73C20.6298 17.84 20.8698 17.84 21.0798 17.73L26.1998 14.47H33.3598C34.8498 14.47 36.0598 13.26 36.0598 11.77V4.12003C36.0598 2.63003 34.8498 1.42003 33.3598 1.42003L33.3498 1.41003ZM34.7598 11.76C34.7598 12.54 34.1298 13.17 33.3498 13.17H26.0098C25.8898 13.17 25.7698 13.21 25.6598 13.27L21.3798 16V13.82C21.3798 13.47 21.0898 13.18 20.7398 13.18H19.0198C18.2398 13.18 17.6098 12.55 17.6098 11.77V4.12003C17.6098 3.34003 18.2398 2.71003 19.0198 2.71003H33.3498C34.1298 2.71003 34.7598 3.34003 34.7598 4.12003V11.77V11.76Z" fill="#C1D13F"/>
    <path d="M21.4 6.24997H30.96C31.31 6.24997 31.6 5.95997 31.6 5.60997C31.6 5.25997 31.31 4.96997 30.96 4.96997H21.4C21.05 4.96997 20.76 5.25997 20.76 5.60997C20.76 5.95997 21.05 6.24997 21.4 6.24997Z" fill="#C1D13F"/>
    <path d="M21.4 8.72995H30.96C31.31 8.72995 31.6 8.43995 31.6 8.08995C31.6 7.73995 31.31 7.44995 30.96 7.44995H21.4C21.05 7.44995 20.76 7.73995 20.76 8.08995C20.76 8.43995 21.05 8.72995 21.4 8.72995Z" fill="#C1D13F"/>
    <path d="M24.32 11.2099C24.67 11.2099 24.96 10.9199 24.96 10.5699C24.96 10.2199 24.67 9.92993 24.32 9.92993H21.4C21.05 9.92993 20.76 10.2199 20.76 10.5699C20.76 10.9199 21.05 11.2099 21.4 11.2099H24.32Z" fill="#C1D13F"/>
  </symbol>

  <symbol id="icono-examen-unico" viewBox="0 0 47 48" fill="none">
    <path d="M43.93 6.88995H37.36C37.36 6.88995 37.29 6.93995 37.26 6.94995C37.26 6.94995 37.24 6.95995 37.23 6.96995C37.2 6.99995 37.16 7.02995 37.13 7.05995C37.06 7.11995 37 7.17995 36.94 7.24995C36.91 7.27995 36.88 7.31995 36.85 7.34995C36.84 7.35995 36.83 7.36995 36.82 7.38995C36.77 7.46995 36.71 7.53995 36.67 7.61995C36.65 7.65995 36.63 7.69995 36.61 7.73995V7.75995C36.6 7.79995 36.58 7.83995 36.57 7.87995C36.57 7.89995 36.57 7.91995 36.56 7.93995C36.56 7.96995 36.56 7.99995 36.56 8.02995C36.56 8.03995 36.56 8.04995 36.56 8.05995C36.57 8.07995 36.58 8.12995 36.59 8.14995C36.59 8.15995 36.6 8.16995 36.61 8.18995C36.61 8.18995 36.61 8.18995 36.62 8.19995C36.63 8.19995 36.65 8.21995 36.66 8.21995C36.69 8.21995 36.72 8.23995 36.74 8.24995C36.82 8.26995 36.9 8.26995 36.98 8.29995C36.95 8.29995 36.93 8.28995 36.92 8.27995C36.91 8.27995 36.91 8.27995 36.92 8.27995C36.94 8.27995 36.98 8.28995 37 8.29995C37.04 8.29995 37.08 8.29995 37.12 8.30995C37.23 8.31995 37.35 8.33995 37.46 8.34995C37.49 8.34995 37.52 8.36995 37.55 8.36995H43.95C44.82 8.36995 45.53 9.07995 45.53 9.94995V32.7299H1.51V9.97995C1.51 9.10995 2.22 8.39995 3.09 8.39995H9.67V8.43995C9.67 8.43995 9.69 8.43995 9.69 8.42995C9.72 8.41995 9.75 8.39995 9.77 8.38995C9.81 8.36995 9.87 8.30995 9.91 8.29995C9.94 8.27995 9.96 8.24995 9.98 8.22995C10 8.20995 10.02 8.17995 10.05 8.15995C10.08 8.11995 10.11 8.07995 10.13 8.02995C10.14 8.00995 10.15 7.98995 10.16 7.96995C10.18 7.90995 10.2 7.85995 10.21 7.79995C10.21 7.76995 10.21 7.74995 10.22 7.71995C10.22 7.72995 10.22 7.73995 10.22 7.74995C10.22 7.68995 10.22 7.62995 10.22 7.57995C10.22 7.55995 10.22 7.52995 10.21 7.51995C10.2 7.46995 10.18 7.40995 10.16 7.35995C10.13 7.27995 10.14 7.33995 10.16 7.37995C10.14 7.35995 10.13 7.31995 10.12 7.28995C10.09 7.23995 10.06 7.18995 10.03 7.13995C10.01 7.11995 9.99 7.09995 9.97 7.06995C9.93 7.02995 9.88 6.98995 9.83 6.93995C9.83 6.93995 9.83 6.93995 9.82 6.93995C9.79 6.91995 9.76 6.89995 9.72 6.87995C9.69 6.85995 9.67 6.83995 9.65 6.81995V6.90995H3.09C1.39 6.90995 0 8.29995 0 9.99995V38.2999C0 39.9999 1.39 41.3899 3.09 41.3899H16.87L15.83 46.2499H11.79C11.37 46.2499 11.03 46.5899 11.03 47.0099C11.03 47.4299 11.37 47.7699 11.79 47.7699H35.22C35.64 47.7699 35.98 47.4299 35.98 47.0099C35.98 46.5899 35.64 46.2499 35.22 46.2499H31.18L30.14 41.3899H43.92C45.62 41.3899 47.01 39.9999 47.01 38.2999V9.97995C47.01 8.27995 45.62 6.88995 43.92 6.88995H43.93ZM17.38 46.2399L18.42 41.3799H28.6L29.64 46.2399H17.38ZM45.51 38.2799C45.51 39.1499 44.8 39.8599 43.93 39.8599H3.09C2.22 39.8599 1.51 39.1499 1.51 38.2799V34.2699H45.5V38.2799H45.51Z" fill="#5C5B5B"/>
    <path d="M23.51 38.95C24.49 38.95 25.28 38.16 25.28 37.18C25.28 36.2 24.49 35.41 23.51 35.41C22.53 35.41 21.74 36.2 21.74 37.18C21.74 38.16 22.53 38.95 23.51 38.95ZM23.26 37.18C23.26 37.04 23.38 36.92 23.52 36.92C23.66 36.92 23.78 37.04 23.78 37.18C23.78 37.46 23.27 37.46 23.27 37.18H23.26Z" fill="#5C5B5B"/>
    <path d="M14.49 11.04C14.49 11.46 14.83 11.8 15.25 11.8H33.08C33.5 11.8 33.84 11.46 33.84 11.04C33.84 10.62 33.5 10.28 33.08 10.28H15.24C14.82 10.28 14.48 10.62 14.48 11.04H14.49Z" fill="#C1D13F"/>
    <path d="M33.07 12.9301H15.24C14.82 12.9301 14.48 13.2701 14.48 13.6901C14.48 14.1101 14.82 14.4501 15.24 14.4501H33.07C33.49 14.4501 33.83 14.1101 33.83 13.6901C33.83 13.2701 33.49 12.9301 33.07 12.9301Z" fill="#C1D13F"/>
    <path d="M33.07 19.34H15.24C14.82 19.34 14.48 19.68 14.48 20.1C14.48 20.52 14.82 20.86 15.24 20.86H33.07C33.49 20.86 33.83 20.52 33.83 20.1C33.83 19.68 33.49 19.34 33.07 19.34Z" fill="#C1D13F"/>
    <path d="M33.07 22H15.24C14.82 22 14.48 22.34 14.48 22.76C14.48 23.18 14.82 23.52 15.24 23.52H33.07C33.49 23.52 33.83 23.18 33.83 22.76C33.83 22.34 33.49 22 33.07 22Z" fill="#C1D13F"/>
    <path d="M9.68008 28.69H6.84008C6.42008 28.69 6.08008 29.03 6.08008 29.45C6.08008 29.87 6.42008 30.21 6.84008 30.21H40.1801C40.6001 30.21 40.9401 29.87 40.9401 29.45C40.9401 29.03 40.6001 28.69 40.1801 28.69H37.3401V6.22C37.3401 6.14 37.3201 6.08 37.3201 6.09L37.2901 5.95C37.2501 5.86 37.2001 5.78 37.1301 5.72L31.6101 0.2C31.5401 0.13 31.4601 0.08 31.3601 0.04L31.2501 0.02C31.2501 0.02 31.1501 0 31.0901 0H10.4501C10.0301 0 9.69008 0.34 9.69008 0.76V28.69H9.68008ZM31.8301 2.56L34.7601 5.49H31.8301V2.56ZM30.3101 1.49V6.25C30.3101 6.67 30.6501 7.01 31.0701 7.01H35.8301V28.7H11.1901V1.49H30.3101Z" fill="#C1D13F"/>
  </symbol>

  <symbol id="icono-educacion-continua" viewBox="0 0 48 47" fill="none">
    <path d="M47.0001 42.4712L43.4701 24.4612C42.9501 23.0012 41.6901 23.5012 40.4701 23.3512C40.2801 22.2012 39.8501 21.2712 38.5201 21.3412C38.5201 21.3212 38.5201 21.3112 38.5201 21.2912C38.5201 21.2912 38.5101 21.2912 38.5001 21.2912C38.4801 21.3412 38.4501 21.3912 38.4001 21.4312C38.3801 21.4412 38.3301 21.5112 38.2901 21.5412C38.2901 21.5412 38.2901 21.5412 38.2801 21.5512C38.2701 21.5712 38.2601 21.5912 38.2401 21.6112C38.2301 21.6312 38.2201 21.6512 38.2101 21.6712C38.2101 21.7112 38.1701 21.7812 38.1601 21.8112C38.1401 21.8712 38.1301 21.9212 38.1201 21.9812C38.1201 22.0212 38.1201 22.0812 38.1001 22.1212C38.1001 22.1212 38.1001 22.1212 38.1001 22.1312C38.1001 22.1612 38.1001 22.1812 38.1001 22.2112C38.1001 22.2612 38.0901 22.3212 38.0901 22.3712C38.0801 22.5212 38.0601 22.6712 38.0501 22.8212C38.2501 22.8212 38.4901 22.9212 38.7001 22.9412L41.6101 40.1712C40.7401 39.9512 39.8801 39.6712 39.0001 39.4712C34.1101 38.3712 29.1201 38.6312 24.3601 40.1712V30.2412C24.3601 30.1612 24.1201 29.7112 24.0401 29.6312C23.5301 29.1612 22.6901 29.6312 22.6901 30.2412V40.1712C17.0801 38.3312 11.0501 38.3612 5.44008 40.1712L8.28008 23.0112C8.65008 22.8412 8.90008 22.7912 9.11008 22.8112C9.13008 22.7412 9.15008 22.6712 9.17008 22.6012C9.19008 22.5412 9.20008 22.4912 9.21008 22.4312C9.21008 22.4312 9.21008 22.4312 9.21008 22.4212C9.21008 22.3912 9.21008 22.3612 9.21008 22.3312C9.21008 22.2612 9.21008 22.1912 9.20008 22.1312C9.20008 22.1112 9.20008 22.0812 9.18008 22.0612C9.17008 22.0012 9.15008 21.9512 9.13008 21.9012C9.13008 21.9012 9.13008 21.9012 9.13008 21.8912C9.12008 21.8712 9.11008 21.8412 9.09008 21.8212C9.06008 21.7812 9.04008 21.7312 9.01008 21.6912C9.01008 21.6912 9.00008 21.6712 8.99008 21.6512C8.99008 21.6512 8.97008 21.6212 8.96008 21.6212C8.86008 21.5012 8.74008 21.3812 8.63008 21.2612C7.25008 21.3512 6.78008 22.0312 6.56008 23.3612C5.36008 23.5112 4.07008 23.0012 3.57008 24.4712L0.0400833 42.4712C-0.219917 44.0912 0.810084 45.2612 2.40008 45.4012H18.9801C21.0801 47.5912 25.9501 47.4812 28.1401 45.4012H44.6401C46.2301 45.2612 47.2601 44.0912 47.0001 42.4712ZM18.7701 43.7712L2.68008 43.8112C2.26008 43.7712 1.91008 43.7112 1.66008 43.3412L5.06008 24.9812H6.37008L3.87008 39.8612C3.71008 40.7112 4.24008 41.6312 5.12008 41.7512C5.98008 41.8712 8.27008 41.0412 9.34008 40.8612C12.5101 40.3012 15.8701 40.2612 19.0101 40.9212L18.7801 43.7812L18.7701 43.7712ZM24.8501 45.2712C23.5101 45.4912 21.4901 45.4212 20.4001 44.5512L20.6301 41.2912C20.8301 41.0912 23.1401 42.2212 23.5501 42.2012C23.9601 42.1812 26.2001 41.0912 26.4101 41.2912L26.7001 44.3212C26.6501 44.9312 25.3701 45.1912 24.8501 45.2712ZM44.3601 43.8112L28.2701 43.7712L28.0401 40.9112C31.2101 40.2512 34.6001 40.2912 37.7901 40.8712C38.8401 41.0612 41.0801 41.8712 41.9301 41.7512C42.8201 41.6312 43.3401 40.7112 43.1801 39.8612L40.6801 24.9812H41.9901L45.3901 43.3412C45.1401 43.7112 44.7901 43.7812 44.3701 43.8112H44.3601Z" fill="#5B5A5A"/>
    <path d="M16.28 4.35117C16.13 4.22117 15.17 1.97117 15.14 1.71117C15 0.731167 16.07 0.341167 16.61 1.17117C16.76 1.40117 17.6399 3.50117 17.6499 3.68117C17.6899 4.34117 16.82 4.82117 16.28 4.34117V4.35117Z" fill="#5B5A5A"/>
    <path d="M30.76 4.35127C30.22 4.83127 29.34 4.39127 29.39 3.69127C29.4 3.50127 30.28 1.40127 30.43 1.18127C30.96 0.371266 32.04 0.761266 31.9 1.72127C31.87 1.97127 30.9 4.22127 30.76 4.36127V4.35127Z" fill="#5B5A5A"/>
    <path d="M23.4 0.0111757C24.61 -0.188824 24.73 2.36118 23.55 2.41118C22.37 2.46118 22.37 0.181176 23.4 0.0111757Z" fill="#5B5A5A"/>
    <path d="M8.67994 21.2512C8.67994 21.2512 8.71994 21.3112 8.71994 21.3412C8.79994 21.7412 8.91994 22.1212 9.04994 22.5112C9.08994 22.6212 9.12994 22.7212 9.16994 22.8312C9.63994 22.9212 9.80994 23.4412 10.2799 23.9112C11.7999 25.4512 14.2599 26.1412 16.3699 25.6412C17.9899 28.5012 21.7499 29.1312 24.2299 26.9612L25.8299 27.2312C26.2599 28.7312 27.4199 29.4312 28.7699 30.0312C29.2799 30.2612 29.8799 30.3712 30.3899 30.6512C31.0999 31.0512 31.4999 31.8212 32.2599 32.1312C33.3999 32.6012 34.6899 32.1912 35.3099 31.1312C36.0799 29.8212 35.3699 28.7012 34.8799 27.4612C35.9099 26.7112 36.6299 25.7312 37.1399 24.5712C37.2799 24.2612 37.5799 23.0712 37.9199 22.8612C38.1299 22.3512 38.2799 21.8012 38.5699 21.3412C38.5499 21.3412 38.5399 21.3412 38.5199 21.3412C38.6799 20.4812 38.6499 19.6412 38.3999 18.8012C38.3099 18.5012 37.9899 17.9812 37.9599 17.7412C37.9299 17.4312 38.1499 17.0212 38.1499 16.6312C38.1799 15.1012 37.0499 13.6912 35.5499 13.3912C35.0199 10.5312 32.7499 8.36124 29.8799 7.92124C29.6399 7.88124 28.8699 7.93124 28.7199 7.85124C28.6199 7.80124 28.2399 7.27124 28.0099 7.08124C26.7399 6.07124 24.9499 6.18124 23.7399 7.22124C21.3199 5.72124 18.2499 6.29124 16.4499 8.45124C14.5799 8.07124 12.6099 8.80124 11.7699 10.5712C11.5999 10.9312 11.4199 11.9912 11.3699 12.0812C11.3399 12.1312 10.5399 12.5412 10.3299 12.7612C9.75994 13.3312 9.39994 14.2312 9.35994 15.0312C9.34994 15.2512 9.47994 15.4712 9.42994 15.7712C9.38994 16.0212 8.92994 16.6712 8.79994 17.0112C8.28994 18.3512 8.25994 19.8612 8.67994 21.2312C8.67994 21.2312 8.66994 21.2312 8.65994 21.2312L8.67994 21.2512ZM10.3799 17.4312C10.8899 18.1212 12.1599 18.3012 12.1599 17.2012C12.1599 16.5912 11.6799 16.5412 11.3599 16.1312C10.2499 14.7112 11.8999 12.8012 13.4299 13.5912C13.9799 13.8712 14.2199 14.7712 15.0299 14.3012C16.3699 13.5312 14.0099 11.7312 13.0799 11.9312C13.0999 10.7212 14.4599 9.85124 15.5999 9.97124C15.6699 10.0412 15.1599 11.2512 16.0399 11.4412C17.0399 11.6612 17.0999 10.4812 17.4799 9.85124C18.4299 8.28124 20.4199 7.59124 22.1499 8.22124C23.2999 8.64124 22.6899 8.78124 22.7299 9.65124C22.7799 10.5912 23.9599 10.7312 24.2599 9.93124C24.3599 9.66124 24.3299 9.34124 24.4199 9.06124C24.8799 7.63124 27.1599 7.65124 27.5799 9.13124C27.6599 9.42124 27.5999 9.70124 27.7399 10.0012C28.1299 10.8112 29.4299 10.4412 29.2099 9.51124C31.4799 9.55124 33.3599 11.2312 33.9399 13.3812C33.9099 13.5712 32.0999 13.9212 32.7099 15.0012C33.2199 15.8912 33.9799 15.0412 34.5899 14.9412C36.2499 14.6712 37.1999 16.7212 35.9999 17.8412C35.5799 18.2412 35.0099 18.2412 35.1699 19.0612C35.3199 19.8012 36.3899 19.6612 36.7999 19.2012C37.6699 21.2212 36.0399 23.5212 33.9099 23.6812C33.3199 23.7212 32.2699 23.5512 31.8099 23.1612C31.6799 23.0512 31.7499 23.0712 31.7899 22.9612C31.8999 22.6512 32.1199 22.4012 32.1799 22.0312C32.2899 21.2412 32.0299 19.3312 30.8499 19.9512C30.0399 20.3812 30.6899 21.1112 30.5999 21.7512C30.4799 22.5512 29.6499 22.8612 28.9599 22.5712C28.3299 22.3112 28.1399 21.1912 27.2599 21.7612C25.9299 22.6212 28.2099 24.2812 29.3499 24.3312C29.7199 24.3412 30.2499 24.1112 30.4499 24.1612C30.6099 24.1912 31.2099 24.6812 31.4799 24.8112C32.6199 25.3612 33.7599 25.3412 34.9899 25.1712C34.4199 25.9112 33.6499 26.4912 32.7799 26.8212C32.2099 27.0412 31.2299 27.0512 31.1199 27.7712C31.0499 28.1812 31.4099 28.6312 31.7999 28.6912C32.2699 28.7712 33.2499 28.1612 33.5499 28.4312C33.6699 28.5412 34.0499 29.5912 34.0699 29.7912C34.0899 30.1012 34.0099 30.3912 33.7399 30.5812C32.9499 31.1512 32.3899 30.1512 31.8699 29.7412C30.5999 28.7212 28.5099 28.6012 27.5799 27.3112C27.4899 27.1812 27.6199 27.2012 27.7199 27.1712C28.3299 27.0012 29.3499 27.0112 29.3099 26.1412C29.2899 25.7812 28.9999 25.4512 28.6499 25.3812C28.2899 25.3112 27.0099 25.7312 26.4599 25.7212C25.6599 25.7212 24.8999 25.3412 24.2099 25.2512C23.4199 25.1512 23.0599 25.9312 22.3699 26.2812C19.7599 27.6012 16.8499 25.2612 17.4999 22.4412C17.5899 22.0412 18.0199 21.3912 18.0199 21.0912C18.0199 20.6012 17.4999 20.2412 17.0399 20.3012C16.2999 20.3912 16.2699 21.6912 15.9199 21.7012C14.9899 21.4812 15.0999 20.9012 14.8599 20.2312C14.6299 19.5612 13.6599 19.5712 13.4199 20.1412C12.9899 21.1612 14.0099 22.6412 14.9299 23.0512C15.4499 23.2812 15.9099 23.0812 15.8599 23.8912C15.8399 24.1612 15.0399 24.2112 14.7999 24.2112C11.3899 24.1712 9.00994 20.5612 10.3599 17.4112L10.3799 17.4312Z" fill="#C1D13F"/>
    <path d="M16.28 4.35117C16.13 4.22117 15.17 1.97117 15.14 1.71117C15 0.731167 16.07 0.341167 16.61 1.17117C16.76 1.40117 17.6399 3.50117 17.6499 3.68117C17.6899 4.34117 16.82 4.82117 16.28 4.34117V4.35117Z" fill="#C1D13F"/>
    <path d="M30.76 4.35127C30.22 4.83127 29.34 4.39127 29.39 3.69127C29.4 3.50127 30.28 1.40127 30.43 1.18127C30.96 0.371266 32.04 0.761266 31.9 1.72127C31.87 1.97127 30.9 4.22127 30.76 4.36127V4.35127Z" fill="#C1D13F"/>
    <path d="M5.12005 11.4912C5.34005 11.4812 7.60005 12.4112 7.81005 12.5812C8.52005 13.1712 8.07006 14.1212 7.09005 13.9612C6.88005 13.9312 4.72005 13.0112 4.60005 12.9112C4.08005 12.4212 4.41005 11.5312 5.12005 11.5012V11.4912Z" fill="#C1D13F"/>
    <path d="M41.8501 11.4912C42.5901 11.4512 42.9601 12.4112 42.4401 12.9012C42.3301 13.0112 40.1601 13.9212 39.9501 13.9512C38.9501 14.1112 38.5201 13.1312 39.2201 12.5712C39.4201 12.4212 41.6301 11.4912 41.8501 11.4812V11.4912Z" fill="#C1D13F"/>
    <path d="M9.7001 5.51124C10.2301 5.39124 11.1701 6.24124 11.3901 6.67124C11.7801 7.42124 11.0201 8.19124 10.2901 7.77124C10.1601 7.70124 9.2901 6.83124 9.2201 6.70124C8.9601 6.24124 9.1801 5.63124 9.7001 5.51124Z" fill="#C1D13F"/>
    <path d="M36.9199 5.51117C37.4899 5.38117 38.0499 5.85117 37.9399 6.43117C37.8699 6.77117 36.8199 7.82117 36.4899 7.88117C35.9099 8.00117 35.4499 7.43117 35.5699 6.86117C35.6299 6.59117 36.6599 5.56117 36.9199 5.51117Z" fill="#C1D13F"/>
    <path d="M23.4 0.0111757C24.61 -0.188824 24.73 2.36118 23.55 2.41118C22.37 2.46118 22.37 0.181176 23.4 0.0111757Z" fill="#C1D13F"/>
    <path d="M25.13 20.7112C24.94 20.8712 24.48 21.9812 23.85 22.4612C23.16 22.9912 20.73 23.8912 20.64 22.5012C20.58 21.5712 21.51 21.7112 22.04 21.5812C22.5 21.4712 23.21 21.0812 23.34 20.6012C22.47 20.5712 20.04 19.2112 20.78 18.1812C21.42 17.2912 22.26 18.4612 22.81 18.7512C24.22 19.5012 26.03 19.1312 26.98 17.8512C27.46 17.2012 27.57 15.3212 28.75 16.0812C29.33 16.4612 29.09 17.0812 28.89 17.6112C28.5 18.6712 27.63 19.6812 26.64 20.2012C26.29 20.3912 25.24 20.6312 25.14 20.7112H25.13Z" fill="#C1D13F"/>
    <path d="M21.5301 14.1313C21.0901 14.5313 20.1601 14.1813 19.4101 15.0413C18.8801 15.6513 19.0601 16.0813 18.8301 16.7013C18.5201 17.5213 17.3201 17.2813 17.2901 16.3513C17.2301 14.5013 19.3201 12.3513 21.2201 12.7813C21.7901 12.9113 21.9401 13.7613 21.5401 14.1313H21.5301Z" fill="#C1D13F"/>
  </symbol>

  <symbol id="icono-cultura" viewBox="0 0 46 47" fill="none">
    <path d="M8.38474 0.0300429C8.71474 -0.0099571 9.03474 4.29051e-05 9.36474 0.0100429C15.7847 2.00004 22.0447 4.55004 28.3947 6.79004C30.5147 7.79004 31.5647 10.11 30.9247 12.39C28.4647 17.7 27.7647 25.32 22.7547 28.92C20.5547 30.51 15.1247 32.27 12.3947 32.98C9.38474 33.76 7.10474 32.71 5.42474 30.22C3.92474 28 1.02474 23.51 0.364743 21.05C-1.28526 14.86 3.10474 8.51004 4.72474 2.70004C5.37474 1.27004 6.82474 0.210043 8.38474 0.0300429ZM23.0747 26.88C24.0247 25.97 24.8847 24.68 25.4147 23.48C27.0947 19.73 28.2247 15.38 29.7147 11.53C29.8847 9.85004 29.0947 8.63004 27.6047 7.95004C21.9047 6.08004 16.2747 3.57004 10.5747 1.75004C8.44474 1.07004 6.85474 1.43004 5.86474 3.56004C4.60474 8.44004 0.674743 14.4 1.45474 19.49C1.87474 22.22 5.10474 27.35 6.75474 29.71C7.92474 31.39 9.58474 32.14 11.6447 31.75C14.2647 31.25 17.2547 29.65 19.8847 28.98C21.0247 28.44 22.1547 27.76 23.0647 26.88H23.0747Z" fill="#C1D13F"/>
    <path d="M36.0346 13.81C37.9746 13.62 39.7746 14.67 40.6946 16.35C41.9646 20.26 43.8446 24.2 44.9846 28.13C46.3446 32.81 45.1046 35.57 42.7946 39.49C40.4846 43.41 38.5146 48.29 32.7646 46.68C30.5246 46.06 27.5246 45.03 25.3746 44.15C20.4746 42.15 18.6246 38.31 17.2246 33.47C17.4646 32.51 18.2446 32.55 18.6546 33.43C20.2046 36.77 20.1346 39.12 23.4846 41.55C25.3746 42.92 31.2146 44.93 33.5946 45.49C35.9746 46.05 37.6346 45.11 38.9446 43.16C40.4146 40.96 43.2946 36.54 43.8546 34.11C45.1346 28.6 40.9846 22.58 39.6246 17.34C38.9546 15.66 37.2846 14.84 35.5346 15.32C34.6446 15.56 32.9346 16.48 32.1546 16.54C31.4246 16.59 31.0846 15.69 31.7146 15.27C32.1346 14.99 34.7746 14.08 35.3446 13.94C35.5546 13.89 35.8246 13.83 36.0446 13.81H36.0346Z" fill="#5B5A5A"/>
    <path d="M32.9945 31.8901C34.8845 31.6801 36.7645 32.1901 38.2045 33.4201C38.7445 33.8901 40.5945 35.7701 39.6245 36.4001C39.2345 36.6501 39.0245 36.4501 38.6645 36.4501C35.0945 36.4501 32.0645 37.4001 29.2945 39.6701C28.8145 40.0601 28.4545 40.8501 27.7445 40.4801C27.1945 40.1901 27.1845 38.5501 27.2245 37.9701C27.4645 34.9601 29.9545 32.2301 32.9845 31.8901H32.9945ZM37.8845 35.0801C34.7945 31.3801 28.7145 33.6001 28.6145 38.3901L30.7545 37.0001C32.9445 35.8501 35.3945 35.0901 37.8845 35.0901V35.0801Z" fill="#5B5A5A"/>
    <path d="M34.3745 22.53C35.3545 22.47 36.9146 22.6 37.8146 22.98C38.2846 23.18 38.4746 23.48 38.3146 24C38.1046 24.73 36.6846 24.07 36.1646 23.98C34.9546 23.79 33.8945 23.94 32.7145 24.18C32.2045 24.28 31.1546 24.82 30.8146 24.28C30.1846 23.29 31.8146 22.97 32.4546 22.82C33.0946 22.67 33.7246 22.57 34.3646 22.53H34.3745Z" fill="#5B5A5A"/>
    <path d="M27.2046 27.4801C28.2846 27.3101 27.9746 28.9001 27.7646 29.5101C27.1446 31.2901 25.0146 32.47 23.1746 32.03C22.6646 31.91 22.1646 31.7301 22.2746 31.1001C22.4246 30.2401 23.5046 30.7701 23.9646 30.7601C25.0746 30.7601 26.2846 29.8501 26.5546 28.7601C26.6546 28.3501 26.5446 27.5901 27.2146 27.4801H27.2046Z" fill="#5B5A5A"/>
    <path d="M37.3046 25.2801C37.5646 25.2001 37.9346 25.2201 38.1246 25.4401C38.6846 26.1001 37.5946 27.1601 37.0546 27.5101C35.6746 28.4001 33.7146 28.4201 32.3846 27.4201C31.9246 27.0801 31.1246 26.0601 32.0046 25.7701C32.6946 25.5401 32.7346 25.9601 33.1746 26.2601C34.1346 26.9201 35.3446 27.0001 36.3246 26.3201C36.6246 26.1101 37.1346 25.3401 37.3146 25.2901L37.3046 25.2801Z" fill="#5B5A5A"/>
    <path d="M7.46453 17.65C7.94453 17.57 8.31453 18.2 8.64453 18.46C10.8245 20.23 13.5945 21.56 16.4445 21.77C17.1045 21.82 18.4745 21.64 18.9945 21.79C20.0145 22.09 18.8545 23.6 18.5045 24.02C15.0545 28.17 8.07453 26.6 6.88453 21.32C6.71453 20.58 6.44453 17.82 7.45453 17.66L7.46453 17.65ZM17.3145 23.15C14.0045 23.15 10.7145 21.88 8.13453 19.84C8.11453 24 12.8745 26.44 16.3345 24.14C16.4345 24.07 17.4845 23.29 17.3145 23.15Z" fill="#C1D13F"/>
    <path d="M9.76468 8.76003C10.6747 8.69003 13.9647 8.94003 14.5647 9.60003C14.9547 10.02 14.7047 10.71 14.1547 10.76C13.7247 10.8 12.5047 10.31 11.9247 10.23C10.6747 10.04 9.83467 10.12 8.61467 10.36C8.13467 10.45 7.26468 10.93 7.13468 10.06C6.97468 9.01003 9.00468 8.82003 9.77468 8.76003H9.76468Z" fill="#C1D13F"/>
    <path d="M18.5346 12.38C18.1146 11.87 18.5646 11.08 19.3346 11.26C20.6246 11.56 22.7746 13.11 23.6446 14.11C24.0546 14.57 25.4146 16.29 24.1346 16.53C23.5246 16.64 22.8346 15.24 22.4146 14.8C21.8746 14.23 21.0046 13.6 20.3146 13.22C19.9846 13.04 18.6546 12.53 18.5346 12.38Z" fill="#C1D13F"/>
    <path d="M8.75456 11.42C10.2246 11.25 11.6346 11.84 12.5346 13C12.9546 13.54 13.6946 15.11 12.4846 15.15C11.8346 15.17 11.7046 14.14 11.3046 13.68C10.6046 12.88 9.34456 12.53 8.34456 12.93C7.93456 13.09 7.54456 13.6 7.03456 13.17C5.96456 12.27 8.04456 11.49 8.75456 11.41V11.42Z" fill="#C1D13F"/>
    <path d="M18.4847 15.09C20.2447 14.84 22.1147 15.6 22.9047 17.24C23.1147 17.68 23.4047 18.61 22.6847 18.74C21.7847 18.91 21.8547 18.13 21.5247 17.61C20.9447 16.7 19.7947 16.31 18.7447 16.46C18.1347 16.54 17.6747 17.22 17.1347 16.86C15.9647 16.09 17.7447 15.2 18.4847 15.1V15.09Z" fill="#C1D13F"/>
  </symbol>

  <symbol id="icono-bolsa-trabajo" viewBox="0 0 48 48" fill="none">
    <path d="M4.96 12.96L4.98 2.56003C5.22 1.21003 6.3 0.170029 7.68 0.0300293H32.63C33.15 0.110029 33.62 0.250029 34.06 0.530029C35.56 1.86003 36.74 3.54003 38.17 4.96003L44.58 4.98003C45.96 5.21003 46.89 6.19003 47.02 7.59003V41.66C46.83 44.54 44.59 46.77 41.74 47.03H5.27C2.47 46.78 0.3 44.63 0 41.84V18.16C0.25 15.52 2.28 13.25 4.96 12.97V12.96ZM40.58 10.39H34.66C34.03 10.39 32.69 9.04003 32.69 8.42003V1.63003L32.55 1.49003H7.76C7.32 1.49003 6.43 2.30003 6.43 2.73003V12.88H11.85C11.84 8.30003 15.97 4.98003 20.46 6.25003C23.36 7.07003 25.33 9.89003 25.26 12.88C28.81 13.18 33.22 11.8 35.82 14.95C36.31 15.55 37.11 17.04 37.11 17.79V38.59H40.6V10.39H40.58ZM39.66 8.92003L34.15 2.77003V8.05003C34.15 8.34003 34.73 8.92003 35.02 8.92003H39.66ZM37.09 40.14V41.56C37.09 42.54 37.79 43.81 38.51 44.45C40.92 46.61 44.78 45.32 45.42 42.17C45.65 30.59 45.54 18.95 45.47 7.37003C45.44 7.01003 44.8 6.43003 44.48 6.43003H39.48C40.36 7.65003 41.79 8.57003 42.05 10.15L41.98 39.64C41.9 39.86 41.48 40.12 41.27 40.12H37.09V40.14ZM23.78 12.87C23.7 5.71003 13.34 5.69003 13.4 12.87H15.33C15.33 8.31003 21.83 8.33003 21.76 12.87H23.78ZM20.29 12.87C20.38 10.28 16.76 10.29 16.8 12.87H20.29ZM1.47 24.72V41.57C1.47 43.51 3.53 45.56 5.46 45.56H37.46C36.85 44.9 36.3 44.17 35.99 43.31C35.89 43.02 35.62 42.19 35.62 41.93V24.72L30.59 26.81C29.74 27 29.27 25.98 29.98 25.47L35.62 23.01C35.53 21.52 35.73 19.91 35.62 18.43C35.47 16.46 34.18 14.89 32.24 14.46C23.1 14.28 13.89 14.25 4.76 14.48C2.72 15.03 1.6 16.53 1.46 18.61C1.36 20.08 1.5 21.61 1.52 23.08L13.73 28.3C13.95 28.37 13.85 27.99 13.89 27.82C14.2 26.56 15.11 25.85 16.39 25.73C17.44 25.64 20.8 25.61 21.69 25.94C22.58 26.27 23.34 27.35 23.23 28.3C23.37 28.46 26.64 26.67 27.2 26.76C27.9 26.87 28.04 27.78 27.45 28.16L23.24 29.97C23.13 31.85 23.81 34.41 21.39 35.05C20.49 35.29 16.58 35.3 15.69 35.05C14.85 34.82 14.06 34.03 13.9 33.17C13.8 32.63 13.97 30.07 13.77 29.91L1.47 24.72ZM16.41 27.22C15.79 27.31 15.43 27.62 15.34 28.26C15.22 29.14 15.23 31.67 15.34 32.57C15.4 33.08 15.67 33.56 16.21 33.63C17.09 33.75 19.99 33.73 20.9 33.63C21.39 33.57 21.71 33.14 21.77 32.67C21.89 31.71 21.86 29.34 21.77 28.35C21.7 27.57 21.28 27.28 20.53 27.21C19.62 27.12 17.31 27.1 16.42 27.23L16.41 27.22Z" fill="#5B5A5A"/>
    <path d="M6.42996 2.73C6.42996 2.3 7.31996 1.49 7.75996 1.49H32.55L32.69 1.63V8.42C32.69 9.05 34.04 10.39 34.66 10.39H40.58V38.58H37.34C37.31 38.75 37.28 38.92 37.25 39.09C37.25 39.11 37.25 39.12 37.25 39.12C37.25 39.14 37.25 39.15 37.25 39.17C37.25 39.23 37.24 39.29 37.23 39.34C37.23 39.44 37.22 39.54 37.22 39.64C37.22 39.74 37.22 39.84 37.23 39.94C37.23 39.96 37.23 39.98 37.23 39.99C37.23 39.99 37.23 39.99 37.23 40.01C37.23 40.04 37.24 40.08 37.25 40.11H41.27C41.48 40.11 41.9 39.85 41.98 39.63L42.05 10.14C41.79 8.56 40.36 7.64 39.48 6.42C39.48 6.42 35.56 1.84 34.06 0.5C33.62 0.22 33.15 0.08 32.63 0H7.67996C6.30996 0.14 5.21996 1.18 4.97996 2.54L4.95996 12.64C5.44996 12.64 5.93996 12.66 6.42996 12.69V2.73ZM34.15 2.77L39.66 8.92H35.02C34.73 8.92 34.15 8.34 34.15 8.05V2.77Z" fill="#C1D13F"/>
  </symbol>
</svg>