<svg xmlns="http://www.w3.org/2000/svg" xmlns:xlink="http://www.w3.org/1999/xlink" style="display:none">
	<symbol id="difusion" viewBox="0 0 108 50" fill="none">
		<path d="M53.8009 6.60833V19.7083H48.6738V18.4667C48.201 18.9583 47.6368 19.3333 47.0063 19.5833C46.3675 19.8333 45.6955 19.9583 44.982 19.9583C43.3311 19.9583 42.0037 19.45 40.9999 18.4417C39.996 17.425 39.4982 15.9 39.4982 13.8583V6.60833H44.8825V12.9083C44.8825 13.8 45.0235 14.4417 45.3139 14.825C45.5959 15.2083 46.0191 15.4 46.5749 15.4C47.0976 15.4 47.5373 15.1917 47.8857 14.7667C48.2341 14.3417 48.4084 13.675 48.4084 12.7667V6.60833H53.8009ZM57.9988 19.5917C56.9203 19.35 56.0409 19.0417 55.3772 18.6583L56.8539 15.0917C57.4595 15.4583 58.173 15.75 59.0026 15.95C59.8322 16.1583 60.6287 16.2583 61.4085 16.2583C62.0307 16.2583 62.4621 16.2083 62.711 16.1C62.9599 16 63.0844 15.8417 63.0844 15.6333C63.0844 15.425 62.9267 15.2833 62.6198 15.2C62.3128 15.1167 61.8067 15.0417 61.1099 14.9583C60.0479 14.8333 59.1354 14.6667 58.3887 14.4667C57.642 14.2667 56.9866 13.8833 56.4225 13.3083C55.8584 12.7333 55.5763 11.9083 55.5763 10.8417C55.5763 9.99167 55.8335 9.23333 56.3395 8.56667C56.8456 7.9 57.6089 7.35833 58.6127 6.95833C59.6248 6.55833 60.8361 6.35833 62.2464 6.35833C63.2337 6.35833 64.196 6.45 65.1418 6.63333C66.0876 6.81667 66.8923 7.08333 67.5643 7.43333L66.0876 11C64.9427 10.3583 63.69 10.0417 62.3211 10.0417C61.143 10.0417 60.554 10.25 60.554 10.6667C60.554 10.875 60.7116 11.025 61.0269 11.1083C61.3421 11.2 61.8482 11.2833 62.5285 11.3583C63.5904 11.4833 64.4947 11.65 65.2331 11.8583C65.9714 12.0667 66.6268 12.4583 67.191 13.0333C67.7551 13.6083 68.0372 14.4333 68.0372 15.5C68.0372 16.3167 67.78 17.0583 67.2739 17.725C66.7679 18.3917 66.0046 18.9333 64.9842 19.3333C63.9637 19.7333 62.7359 19.9333 61.2924 19.9333C60.1807 19.9333 59.0856 19.8167 57.9988 19.575V19.5917ZM69.6549 6.60833H75.0475V19.7083H69.6549V6.60833ZM80.4234 19.075C79.2702 18.4917 78.366 17.6833 77.7189 16.6583C77.0635 15.625 76.7399 14.4583 76.7399 13.15C76.7399 11.8417 77.0635 10.675 77.7189 9.64167C78.3743 8.60833 79.2702 7.80833 80.4234 7.23333C81.5766 6.65833 82.8791 6.375 84.3226 6.375C85.7662 6.375 87.0936 6.65833 88.2467 7.23333C89.3999 7.80833 90.2959 8.60833 90.943 9.64167C91.5901 10.675 91.9054 11.8417 91.9054 13.15C91.9054 14.4583 91.5818 15.625 90.943 16.6583C90.3042 17.6917 89.3999 18.4917 88.2467 19.075C87.0936 19.6583 85.7828 19.95 84.3226 19.95C82.8625 19.95 81.5766 19.6583 80.4234 19.075ZM85.2269 0.116667H90.354L85.3182 5.175H81.7425L85.2269 0.116667ZM85.8491 15.05C86.2474 14.5917 86.4465 13.9583 86.4465 13.15C86.4465 12.3417 86.2474 11.7083 85.8491 11.2583C85.4509 10.8083 84.9449 10.5917 84.3226 10.5917C83.7004 10.5917 83.1944 10.8167 82.7961 11.2583C82.3979 11.7083 82.1988 12.3333 82.1988 13.15C82.1988 13.9667 82.3979 14.6 82.7961 15.05C83.1944 15.5083 83.7004 15.7333 84.3226 15.7333C84.9449 15.7333 85.4509 15.5083 85.8491 15.05ZM106.532 7.83333C107.511 8.80833 108 10.275 108 12.2417V19.7167H102.607V13.175C102.607 11.675 102.077 10.925 101.006 10.925C100.401 10.925 99.9112 11.1333 99.5379 11.5583C99.1646 11.9833 98.9737 12.65 98.9737 13.5583V19.7167H93.5812V6.60833H98.7083V7.9C99.2143 7.39167 99.8034 7.00833 100.475 6.75C101.139 6.49167 101.869 6.36667 102.649 6.36667C104.258 6.36667 105.544 6.85 106.523 7.825L106.532 7.83333ZM75.089 2.81667C75.089 4.30833 73.886 5.525 72.3927 5.525C70.8994 5.525 69.6964 4.31667 69.6964 2.81667C69.6964 1.31667 70.8994 0.108333 72.3927 0.108333C73.886 0.108333 75.089 1.31667 75.089 2.81667ZM8.19665 0H0V19.7417H8.19665C13.6224 19.7417 18.0277 15.325 18.0277 9.86667C18.0277 4.41667 13.6307 0 8.19665 0ZM12.6351 9.875C12.6351 12.9 10.196 15.35 7.18451 15.35H6.00645V4.4H7.18451C10.196 4.4 12.6351 6.85 12.6351 9.875Z" fill="url(#paint0_linear_3151_8)"/>
		<path d="M4.72884 38.725C3.26871 37.9583 2.12383 36.8833 1.29421 35.5083C0.464587 34.1333 0.0497772 32.5667 0.0497772 30.8167C0.0497772 29.0667 0.464587 27.5 1.29421 26.125C2.12383 24.75 3.26871 23.675 4.72884 22.9083C6.18897 22.1417 7.83162 21.7583 9.65678 21.7583C11.3326 21.7583 12.8259 22.0583 14.145 22.65C15.4558 23.2417 16.5426 24.1 17.3971 25.225L13.7219 28.5167C12.6517 27.1667 11.399 26.4833 9.94715 26.4833C8.72761 26.4833 7.75695 26.875 7.01029 27.6583C6.27193 28.4417 5.8986 29.4917 5.8986 30.8167C5.8986 32.1417 6.27193 33.1917 7.01029 33.975C7.74866 34.7583 8.72761 35.15 9.94715 35.15C11.3907 35.15 12.6517 34.475 13.7219 33.1167L17.3971 36.4083C16.5426 37.5333 15.4558 38.3917 14.145 38.9833C12.8342 39.575 11.3326 39.875 9.65678 39.875C7.83162 39.875 6.18897 39.4917 4.72884 38.725Z" fill="url(#paint1_linear_3151_8)"/>
		<path d="M37.2417 21.1083H42.8167V39.4833H37.2417V21.1083Z" fill="url(#paint2_linear_3151_8)"/>
		<path d="M56.9369 39.0083C56.0989 39.4833 54.9541 39.725 53.5105 39.725C51.619 39.725 50.1672 39.2667 49.1467 38.35C48.1263 37.4333 47.6202 36.0583 47.6202 34.225V30.7583H45.7702V26.675H47.6202V22.8833H53.1953V26.675H55.9579V30.7583H53.1953V34.175C53.1953 34.5917 53.3031 34.9083 53.5188 35.1417C53.7345 35.375 54.0083 35.4917 54.3567 35.4917C54.8296 35.4917 55.2527 35.3667 55.6178 35.1167L56.9452 39L56.9369 39.0083Z" fill="url(#paint3_linear_3151_8)"/>
		<path d="M73.0813 25.9333V39.475H67.78V38.1833C67.2905 38.6917 66.7098 39.075 66.0544 39.3333C65.399 39.5917 64.7021 39.7167 63.9554 39.7167C62.2464 39.7167 60.8776 39.1917 59.8405 38.1417C58.8035 37.0917 58.2891 35.5167 58.2891 33.4V25.925H63.8642V32.4333C63.8642 33.3583 64.0135 34.0167 64.3039 34.4167C64.6026 34.8167 65.034 35.0083 65.6064 35.0083C66.1456 35.0083 66.6019 34.7917 66.9587 34.35C67.3237 33.9167 67.4979 33.225 67.4979 32.2833V25.9167H73.073L73.0813 25.9333Z" fill="url(#paint4_linear_3151_8)"/>
		<path d="M85.2103 25.6833V30.6333C84.7706 30.5667 84.3558 30.5333 83.9742 30.5333C82.0661 30.5333 81.112 31.5083 81.112 33.4583V39.475H75.537V25.9333H80.8382V27.3917C81.8255 26.25 83.2773 25.6833 85.202 25.6833H85.2103Z" fill="url(#paint5_linear_3151_8)"/>
		<path d="M98.1275 27.2833C99.3802 28.35 100.002 29.9833 100.002 32.2V39.4833H94.8256V37.7C94.1868 39.05 92.9092 39.7333 91.0011 39.7333C89.9309 39.7333 89.0266 39.55 88.2799 39.175C87.5333 38.8 86.9691 38.3 86.5792 37.6667C86.1893 37.0333 85.9985 36.3167 85.9985 35.525C85.9985 34.1917 86.5045 33.175 87.525 32.4833C88.5454 31.7917 90.0885 31.4417 92.1626 31.4417H94.4025C94.22 30.3833 93.3738 29.8583 91.8639 29.8583C91.2583 29.8583 90.6361 29.95 90.0138 30.1417C89.3916 30.3333 88.8524 30.5917 88.4127 30.925L86.6373 27.2333C87.4088 26.7583 88.338 26.375 89.4331 26.1083C90.5282 25.8333 91.615 25.7 92.7018 25.7C95.0662 25.7 96.8748 26.2333 98.1275 27.3V27.2833ZM93.7388 36.0333C94.0541 35.8167 94.2781 35.5 94.4274 35.0667V34.125H93.0502C91.9137 34.125 91.3495 34.5083 91.3495 35.2667C91.3495 35.5833 91.4657 35.8417 91.7063 36.05C91.9468 36.2583 92.2704 36.3583 92.6769 36.3583C93.0834 36.3583 93.4236 36.25 93.7388 36.0333Z" fill="url(#paint6_linear_3151_8)"/>
		<path d="M102.641 20.8083H107.983V39.475H102.641V20.8083Z" fill="url(#paint7_linear_3151_8)"/>
		<path d="M107.983 40.825H34.5537V43.125H107.983V40.825Z" fill="url(#paint8_linear_3151_8)"/>
		<path d="M25.4445 2.81667C25.4445 4.30833 24.2415 5.525 22.7482 5.525C21.2549 5.525 20.0519 4.31667 20.0519 2.81667C20.0519 1.31667 21.2549 0.116667 22.7482 0.116667C24.2415 0.116667 25.4445 1.325 25.4445 2.825V2.81667ZM34.3131 5.75833C34.3131 5.24167 34.4044 4.75 34.6367 4.5C34.869 4.25 35.1842 4.125 35.5824 4.125C35.9475 4.125 36.354 4.225 36.802 4.43333L38.0879 0.675C37.7063 0.466667 37.2334 0.308333 36.6609 0.2C36.0885 0.0916666 35.4995 0.0333333 34.8938 0.0333333C33.0521 0.0333333 31.6168 0.533333 30.6047 1.53333C29.5843 2.53333 29.045 4.05 29.045 5.75833V6.675H27.2862V10.5167H29.0782V12.2917H29.0616V42.575C29.0616 43.5167 28.8791 44.2083 28.5224 44.6417C28.1573 45.0833 27.7093 45.3 27.1701 45.3C26.5976 45.3 26.1579 45.1 25.8676 44.7083C25.5689 44.3083 25.4279 43.65 25.4279 42.725V6.65833H19.8528V43.6833C19.8528 45.8 20.3672 47.375 21.4042 48.425C22.4412 49.475 23.8101 50 25.5191 50C26.2575 50 26.9544 49.875 27.6181 49.6167C28.2735 49.3583 28.8542 48.975 29.3437 48.4667V49.7583H34.5786V10.5083H37.1504V6.66667H34.338V5.75L34.3131 5.75833Z" fill="url(#paint9_linear_3151_8)"/>
		<path d="M29.0616 40.825H0.0580734V43.125H29.0616V40.825Z" fill="url(#paint10_linear_3151_8)"/>
		<defs>
		<linearGradient id="paint0_linear_3151_8" x1="0.0580289" y1="41.9752" x2="29.0616" y2="41.9752" gradientUnits="userSpaceOnUse">
		<stop offset="0.02" stop-color="#A5C73B"/>
		<stop offset="1" stop-color="#788927"/>
		</linearGradient>
		<linearGradient id="paint1_linear_3151_8" x1="0.0580289" y1="41.9752" x2="29.0616" y2="41.9752" gradientUnits="userSpaceOnUse">
		<stop stop-color="#812F86"/>
		<stop offset="1" stop-color="#492152"/>
		</linearGradient>
		<linearGradient id="paint2_linear_3151_8" x1="0.0580289" y1="41.9752" x2="29.0616" y2="41.9752" gradientUnits="userSpaceOnUse">
		<stop stop-color="#812F86"/>
		<stop offset="1" stop-color="#492152"/>
		</linearGradient>
		<linearGradient id="paint3_linear_3151_8" x1="0.0580289" y1="41.9752" x2="29.0616" y2="41.9752" gradientUnits="userSpaceOnUse">
		<stop stop-color="#812F86"/>
		<stop offset="1" stop-color="#492152"/>
		</linearGradient>
		<linearGradient id="paint4_linear_3151_8" x1="0.0580289" y1="41.9752" x2="29.0616" y2="41.9752" gradientUnits="userSpaceOnUse">
		<stop stop-color="#812F86"/>
		<stop offset="1" stop-color="#492152"/>
		</linearGradient>
		<linearGradient id="paint5_linear_3151_8" x1="0.0580289" y1="41.9752" x2="29.0616" y2="41.9752" gradientUnits="userSpaceOnUse">
		<stop stop-color="#812F86"/>
		<stop offset="1" stop-color="#492152"/>
		</linearGradient>
		<linearGradient id="paint6_linear_3151_8" x1="0.0580289" y1="41.9752" x2="29.0616" y2="41.9752" gradientUnits="userSpaceOnUse">
		<stop stop-color="#812F86"/>
		<stop offset="1" stop-color="#492152"/>
		</linearGradient>
		<linearGradient id="paint7_linear_3151_8" x1="0.0580289" y1="41.9752" x2="29.0616" y2="41.9752" gradientUnits="userSpaceOnUse">
		<stop stop-color="#812F86"/>
		<stop offset="1" stop-color="#492152"/>
		</linearGradient>
		<linearGradient id="paint8_linear_3151_8" x1="0.0580289" y1="41.9752" x2="29.0616" y2="41.9752" gradientUnits="userSpaceOnUse">
		<stop offset="0.02" stop-color="#A5C73B"/>
		<stop offset="1" stop-color="#788927"/>
		</linearGradient>
		<linearGradient id="paint9_linear_3151_8" x1="0.0580289" y1="41.9752" x2="29.0616" y2="41.9752" gradientUnits="userSpaceOnUse">
		<stop stop-color="#E4645E"/>
		<stop offset="1" stop-color="#C04848"/>
		</linearGradient>
		<linearGradient id="paint10_linear_3151_8" x1="0.0580289" y1="41.9752" x2="29.0616" y2="41.9752" gradientUnits="userSpaceOnUse">
		<stop offset="0.02" stop-color="#A5C73B"/>
		<stop offset="1" stop-color="#788927"/>
		</linearGradient>
		</defs>
	</symbol>

	<symbol id="bolsa" viewBox="0 0 170 92" fill="none">
		<path d="M170 0H0V91.66H170V0Z" fill="black"/>
		<path d="M149.48 14.7099C150.13 15.0799 150.65 15.5799 151.06 16.2299V9.65991H154.71V28.2499H151.21V26.3399C150.7 27.1599 150.11 27.7499 149.45 28.1199C148.79 28.4899 147.98 28.6799 147 28.6799C145.39 28.6799 144.04 28.0299 142.94 26.7299C141.84 25.4299 141.29 23.7599 141.29 21.7199C141.29 19.3699 141.83 17.5199 142.91 16.1699C143.99 14.8199 145.44 14.1499 147.25 14.1499C148.08 14.1499 148.82 14.3299 149.47 14.6999L149.48 14.7099ZM150.37 24.5099C150.9 23.7499 151.17 22.7699 151.17 21.5699C151.17 19.8899 150.74 18.6799 149.89 17.9599C149.37 17.5199 148.76 17.2999 148.07 17.2999C147.02 17.2999 146.25 17.6999 145.75 18.4899C145.25 19.2799 145.01 20.2699 145.01 21.4499C145.01 22.7199 145.26 23.7399 145.76 24.4999C146.26 25.2599 147.02 25.6399 148.04 25.6399C149.06 25.6399 149.83 25.2599 150.36 24.4999L150.37 24.5099Z" fill="url(#paint0_linear_3151_5)"/>
		<path d="M166.15 14.7599C167.11 15.1899 167.9 15.8699 168.53 16.7999C169.09 17.6199 169.46 18.5699 169.63 19.6499C169.73 20.2799 169.77 21.1899 169.75 22.3799H159.72C159.78 23.7599 160.26 24.7299 161.16 25.2799C161.71 25.6299 162.37 25.7999 163.14 25.7999C163.96 25.7999 164.63 25.5899 165.14 25.1699C165.42 24.9399 165.67 24.6299 165.88 24.2199H169.56C169.46 25.0399 169.02 25.8699 168.23 26.7099C167 28.0499 165.27 28.7199 163.05 28.7199C161.22 28.7199 159.6 28.1499 158.2 27.0299C156.8 25.8999 156.1 24.0599 156.1 21.5199C156.1 19.1399 156.73 17.3099 158 16.0299C159.26 14.7599 160.9 14.1199 162.92 14.1199C164.12 14.1199 165.2 14.3399 166.16 14.7599H166.15ZM160.76 17.8699C160.25 18.3899 159.93 19.0999 159.8 19.9999H166C165.93 19.0399 165.61 18.3199 165.04 17.8199C164.47 17.3299 163.75 17.0799 162.91 17.0799C161.99 17.0799 161.27 17.3399 160.76 17.8699Z" fill="url(#paint1_linear_3151_5)"/>
		<path d="M0 53.3001H3.84V45.6301H10.96V53.3001H15.43V58.4201H10.96V72.9601C10.96 74.0901 11.1 74.7901 11.39 75.0701C11.67 75.3501 12.55 75.4901 14.01 75.4901C14.23 75.4901 14.46 75.4901 14.7 75.4801C14.94 75.4701 15.18 75.4601 15.42 75.4401V80.8101L12.01 80.9401C8.61 81.0601 6.29 80.4701 5.04 79.1801C4.23 78.3501 3.83 77.0801 3.83 75.3701V58.4301H0V53.3001Z" fill="url(#paint2_linear_3151_5)"/>
		<path d="M35.3197 52.4001C35.4097 52.4001 35.6197 52.4201 35.9397 52.4401V59.8101C35.4897 59.7601 35.0797 59.7301 34.7297 59.7101C34.3797 59.6901 34.0897 59.6901 33.8697 59.6901C30.9797 59.6901 29.0297 60.6301 28.0397 62.5201C27.4797 63.5801 27.2097 65.2101 27.2097 67.4101V80.5601H19.9697V53.0501H26.8297V57.8501C27.9397 56.0201 28.9097 54.7601 29.7297 54.0901C31.0797 52.9601 32.8297 52.4001 34.9797 52.4001C35.1197 52.4001 35.2297 52.4001 35.3197 52.4101V52.4001Z" fill="url(#paint3_linear_3151_5)"/>
		<path d="M51.05 63.8201C52.39 63.6501 53.35 63.4401 53.92 63.1901C54.95 62.7501 55.47 62.0701 55.47 61.1401C55.47 60.0101 55.07 59.2301 54.28 58.8101C53.49 58.3801 52.32 58.1701 50.79 58.1701C49.07 58.1701 47.85 58.5901 47.13 59.4301C46.62 60.0501 46.28 60.9001 46.11 61.9501H39.17C39.32 59.5501 40 57.5701 41.2 56.0201C43.11 53.6001 46.39 52.3901 51.03 52.3901C54.05 52.3901 56.74 52.9901 59.09 54.1801C61.44 55.3801 62.61 57.6301 62.61 60.9401V73.5601C62.61 74.4401 62.63 75.5001 62.66 76.7401C62.71 77.6801 62.85 78.3201 63.09 78.6601C63.33 79.0001 63.68 79.2701 64.15 79.4901V80.5501H56.33C56.11 79.9901 55.96 79.4701 55.88 78.9901C55.8 78.5101 55.73 77.9501 55.68 77.3201C54.68 78.4001 53.53 79.3101 52.23 80.0701C50.67 80.9601 48.91 81.4101 46.95 81.4101C44.45 81.4101 42.38 80.7001 40.74 79.2801C39.1 77.8601 38.29 75.8401 38.29 73.2401C38.29 69.8601 39.6 67.4101 42.23 65.9001C43.67 65.0801 45.79 64.4901 48.59 64.1401L51.06 63.8401L51.05 63.8201ZM55.45 67.1701C54.99 67.4601 54.52 67.6901 54.05 67.8601C53.58 68.0401 52.94 68.2001 52.12 68.3501L50.48 68.6501C48.95 68.9201 47.84 69.2501 47.17 69.6301C46.04 70.2901 45.47 71.3001 45.47 72.6801C45.47 73.9101 45.82 74.8001 46.51 75.3401C47.2 75.8901 48.04 76.1601 49.03 76.1601C50.6 76.1601 52.05 75.7101 53.37 74.8001C54.69 73.8901 55.38 72.2301 55.43 69.8301V67.1501L55.45 67.1701Z" fill="url(#paint4_linear_3151_5)"/>
		<path d="M92.3904 56.3502C94.4504 58.9602 95.4804 62.3202 95.4804 66.4502C95.4804 70.5802 94.4604 74.2602 92.4404 77.0702C90.4204 79.8802 87.5804 81.2902 83.9404 81.2902C81.6604 81.2902 79.8204 80.8302 78.4304 79.9302C77.6004 79.3902 76.7104 78.4502 75.7404 77.1002V80.5602H68.6504V43.4102H75.8404V56.6302C76.7504 55.3502 77.7604 54.3702 78.8604 53.7002C80.1604 52.8602 81.8204 52.4402 83.8404 52.4402C87.4804 52.4402 90.3304 53.7402 92.3904 56.3502ZM86.3804 73.1102C87.4104 71.6102 87.9304 69.6402 87.9304 67.2002C87.9304 65.2502 87.6804 63.6302 87.1704 62.3502C86.2004 59.9302 84.4204 58.7202 81.8304 58.7202C79.2404 58.7202 77.3904 59.9102 76.4104 62.2802C75.9004 63.5402 75.6504 65.1702 75.6504 67.1802C75.6504 69.5402 76.1804 71.4902 77.2304 73.0402C78.2804 74.5902 79.8804 75.3602 82.0404 75.3602C83.9104 75.3602 85.3604 74.6102 86.3904 73.1102H86.3804Z" fill="url(#paint5_linear_3151_5)"/>
		<path d="M111.37 63.8201C112.71 63.6501 113.67 63.4401 114.24 63.1901C115.27 62.7501 115.79 62.0701 115.79 61.1401C115.79 60.0101 115.39 59.2301 114.6 58.8101C113.81 58.3801 112.64 58.1701 111.11 58.1701C109.39 58.1701 108.17 58.5901 107.45 59.4301C106.94 60.0501 106.6 60.9001 106.43 61.9501H99.4903C99.6403 59.5501 100.32 57.5701 101.52 56.0201C103.43 53.6001 106.71 52.3901 111.35 52.3901C114.37 52.3901 117.06 52.9901 119.41 54.1801C121.76 55.3801 122.93 57.6301 122.93 60.9401V73.5601C122.93 74.4401 122.95 75.5001 122.98 76.7401C123.03 77.6801 123.17 78.3201 123.41 78.6601C123.65 79.0001 124 79.2701 124.47 79.4901V80.5501H116.65C116.43 79.9901 116.28 79.4701 116.2 78.9901C116.12 78.5101 116.05 77.9501 116 77.3201C115 78.4001 113.85 79.3101 112.55 80.0701C110.99 80.9601 109.23 81.4101 107.27 81.4101C104.77 81.4101 102.7 80.7001 101.06 79.2801C99.4203 77.8601 98.6104 75.8401 98.6104 73.2401C98.6104 69.8601 99.9204 67.4101 102.55 65.9001C103.99 65.0801 106.11 64.4901 108.91 64.1401L111.38 63.8401L111.37 63.8201ZM115.77 67.1701C115.31 67.4601 114.84 67.6901 114.37 67.8601C113.9 68.0401 113.26 68.2001 112.44 68.3501L110.8 68.6501C109.27 68.9201 108.16 69.2501 107.49 69.6301C106.36 70.2901 105.79 71.3001 105.79 72.6801C105.79 73.9101 106.14 74.8001 106.83 75.3401C107.52 75.8901 108.36 76.1601 109.35 76.1601C110.92 76.1601 112.37 75.7101 113.69 74.8001C115.01 73.8901 115.7 72.2301 115.75 69.8301V67.1501L115.77 67.1701Z" fill="url(#paint6_linear_3151_5)"/>
		<path d="M126.09 85.8301C126.49 85.8601 126.78 85.8801 126.95 85.8901C127.12 85.9001 127.27 85.9001 127.4 85.9001C128.11 85.9001 128.64 85.7301 129 85.3801C129.36 85.0301 129.54 84.3701 129.54 83.3701V53.1601H136.73V83.5001C136.73 86.2701 136.18 88.3301 135.09 89.6601C134 90.9901 131.85 91.6501 128.65 91.6501C128.43 91.6501 128.11 91.6501 127.68 91.6201C127.25 91.6001 126.72 91.5901 126.08 91.5701V85.8201L126.09 85.8301ZM136.74 49.7601H129.55V43.1201H136.74V49.7601Z" fill="url(#paint7_linear_3151_5)"/>
		<path d="M166.52 77.1902C164.2 80.0602 160.67 81.4902 155.95 81.4902C151.23 81.4902 147.7 80.0602 145.37 77.1902C143.04 74.3202 141.89 70.8702 141.89 66.8402C141.89 62.8102 143.05 59.4302 145.37 56.5302C147.69 53.6302 151.22 52.1702 155.95 52.1702C160.68 52.1702 164.2 53.6302 166.52 56.5302C168.84 59.4402 170 62.8802 170 66.8402C170 70.8002 168.84 74.3202 166.52 77.1902ZM160.76 73.2102C161.89 71.7102 162.45 69.5902 162.45 66.8302C162.45 64.0702 161.89 61.9502 160.76 60.4702C159.63 58.9902 158.02 58.2402 155.91 58.2402C153.8 58.2402 152.19 58.9802 151.05 60.4702C149.92 61.9602 149.35 64.0802 149.35 66.8302C149.35 69.5802 149.92 71.7102 151.05 73.2102C152.19 74.7002 153.8 75.4502 155.91 75.4502C158.02 75.4502 159.63 74.7002 160.76 73.2102Z" fill="url(#paint8_linear_3151_5)"/>
		<path d="M27.8202 3.96C28.9602 5.54 29.5302 7.43 29.5302 9.64C29.5302 11.85 28.9602 13.74 27.8102 15.12C27.1702 15.89 26.2202 16.6 24.9702 17.24C26.8702 17.93 28.3002 19.02 29.2702 20.52C30.2402 22.02 30.7202 23.84 30.7202 25.97C30.7202 28.1 30.1702 30.15 29.0602 31.9C28.3602 33.06 27.4802 34.04 26.4302 34.83C25.2402 35.74 23.8402 36.36 22.2302 36.7C20.6202 37.04 18.8602 37.2 16.9702 37.2H0.200195V0H18.1802C22.7202 0.07 25.9302 1.39 27.8202 3.96ZM7.6202 6.46V14.66H16.6602C18.2802 14.66 19.5902 14.35 20.5902 13.74C21.6002 13.13 22.1002 12.04 22.1002 10.47C22.1002 8.74 21.4302 7.59 20.1002 7.04C18.9502 6.65 17.4902 6.46 15.7002 6.46H7.6202ZM7.6202 20.82V30.74H16.6502C18.2602 30.74 19.5202 30.52 20.4202 30.08C22.0502 29.27 22.8602 27.72 22.8602 25.44C22.8602 23.51 22.0702 22.18 20.4902 21.45C19.6102 21.05 18.3702 20.84 16.7702 20.82H7.6202Z" fill="url(#paint9_linear_3151_5)"/>
		<path d="M75.7398 37.2H68.5498V0H75.7398V37.2Z" fill="url(#paint10_linear_3151_5)"/>
		<path d="M88.33 28.4199C88.48 29.6999 88.81 30.6099 89.32 31.1499C90.22 32.1099 91.87 32.5899 94.29 32.5899C95.71 32.5899 96.84 32.3799 97.68 31.9599C98.52 31.5399 98.94 30.9099 98.94 30.0699C98.94 29.2299 98.6 28.6499 97.93 28.2299C97.26 27.8099 94.75 27.0899 90.41 26.0599C87.28 25.2899 85.08 24.3199 83.8 23.1599C82.52 22.0199 81.88 20.3699 81.88 18.2099C81.88 15.6699 82.88 13.4899 84.88 11.6599C86.88 9.82992 89.69 8.91992 93.31 8.91992C96.93 8.91992 99.55 9.60992 101.72 10.9799C103.89 12.3499 105.13 14.7199 105.45 18.0799H98.26C98.16 17.1599 97.9 16.4199 97.48 15.8799C96.69 14.8999 95.34 14.4199 93.43 14.4199C91.86 14.4199 90.74 14.6599 90.08 15.1499C89.41 15.6399 89.08 16.2099 89.08 16.8699C89.08 17.6899 89.43 18.2899 90.14 18.6599C90.85 19.0499 93.35 19.7099 97.65 20.6499C100.52 21.3199 102.66 22.3399 104.09 23.6999C105.5 25.0799 106.21 26.7999 106.21 28.8699C106.21 31.5999 105.19 33.8199 103.16 35.5499C101.13 37.2699 97.99 38.1399 93.74 38.1399C89.49 38.1399 86.21 37.2299 84.14 35.3999C82.08 33.5699 81.04 31.2499 81.04 28.4199H88.33Z" fill="url(#paint11_linear_3151_5)"/>
		<path d="M122.39 20.47C123.73 20.3 124.69 20.09 125.26 19.84C126.29 19.4 126.81 18.72 126.81 17.8C126.81 16.67 126.41 15.89 125.62 15.47C124.83 15.04 123.66 14.83 122.13 14.83C120.41 14.83 119.19 15.25 118.47 16.09C117.96 16.71 117.62 17.55 117.45 18.61H110.51C110.66 16.2 111.34 14.23 112.54 12.68C114.45 10.26 117.73 9.05005 122.37 9.05005C125.4 9.05005 128.08 9.65005 130.43 10.84C132.78 12.04 133.95 14.29 133.95 17.6V30.22C133.95 31.1 133.97 32.1601 134 33.4001C134.05 34.3401 134.19 34.98 134.43 35.32C134.66 35.66 135.02 35.9401 135.49 36.1501V37.21H127.67C127.45 36.65 127.3 36.1301 127.22 35.6501C127.14 35.1601 127.07 34.61 127.02 33.98C126.02 35.06 124.87 35.97 123.57 36.73C122.01 37.62 120.25 38.07 118.29 38.07C115.78 38.07 113.72 37.36 112.08 35.94C110.44 34.52 109.63 32.5 109.63 29.9C109.63 26.52 110.94 24.07 113.57 22.56C115.01 21.74 117.13 21.15 119.93 20.79L122.4 20.49L122.39 20.47ZM126.79 23.82C126.33 24.11 125.87 24.34 125.4 24.51C124.93 24.69 124.29 24.85 123.47 25L121.83 25.3C120.29 25.57 119.19 25.9 118.52 26.28C117.39 26.94 116.82 27.95 116.82 29.33C116.82 30.56 117.17 31.45 117.86 31.99C118.55 32.54 119.39 32.8101 120.38 32.8101C121.95 32.8101 123.4 32.3601 124.72 31.4501C126.04 30.5401 126.73 28.89 126.78 26.48V23.8L126.79 23.82Z" fill="url(#paint12_linear_3151_5)"/>
		<path d="M33.7705 45.7101C34.5405 45.2701 35.0205 44.7701 35.1805 44.6201C36.8705 42.9401 38.5605 41.2601 40.2405 39.5801L41.9205 37.9001C41.9205 37.9001 41.9805 37.8301 42.0105 37.8001C42.0405 37.8201 42.0805 37.8401 42.1205 37.8601C43.8105 38.8301 45.6205 39.4401 47.5105 39.6801C50.0405 40.0001 52.4405 39.7101 54.6605 38.8101C56.6705 38.0001 58.3905 36.8701 59.8105 35.4501C61.4305 33.8201 62.4005 32.0901 62.9705 30.7401C64.3205 27.5401 64.2105 24.6401 64.0505 23.1701C63.9805 22.6501 63.9005 22.1301 63.7805 21.6201C62.6105 16.7201 59.6905 13.2101 55.0905 11.1901C52.5305 10.0701 49.7905 9.73006 46.9105 10.1901C43.7805 10.6901 41.0705 12.0501 38.8505 14.2301C36.4505 16.5901 34.9905 19.4201 34.5205 22.6401C34.0505 25.8901 34.6205 29.0001 36.2105 31.9001L36.3505 32.1601L29.5205 38.9901C28.6305 39.8801 28.1205 40.7601 27.9205 41.7401C27.5005 43.7601 29.1305 45.7801 30.6905 46.2101C31.3605 46.3901 32.0905 46.3101 32.0905 46.3101C32.8405 46.2201 33.3705 45.9301 33.7605 45.7001L33.7705 45.7101ZM58.7505 24.8801C58.7605 30.1801 54.6005 34.3501 49.2705 34.3801C46.7805 34.3201 44.3605 33.4001 42.5605 31.6001C40.7605 29.7901 39.7805 27.4101 39.7905 24.8901C39.8305 19.6301 43.9905 15.4601 49.2805 15.4101C54.5805 15.4601 58.7405 19.6201 58.7605 24.8901L58.7505 24.8801Z" fill="url(#paint13_linear_3151_5)"/>
		<path d="M50.4009 18.74C51.6109 18.78 52.7709 19.02 53.8809 19.47C54.6509 19.78 55.0209 20.59 54.7309 21.35C54.4509 22.09 53.6509 22.48 52.8809 22.2C51.8509 21.82 50.8109 21.59 49.7109 21.74C47.5309 22.03 45.9109 23.13 44.8609 25.07C44.7609 25.26 44.6709 25.45 44.5609 25.64C44.1509 26.32 43.3509 26.56 42.6609 26.22C41.9709 25.87 41.6609 25.08 41.9709 24.36C42.4609 23.21 43.1509 22.19 44.0609 21.33C45.3609 20.1 46.8909 19.31 48.6409 18.97C49.2109 18.86 49.8009 18.83 50.3809 18.76L50.4009 18.74Z" fill="url(#paint14_linear_3151_5)"/>
		<path d="M169.75 33.01H141.3V36.47H169.75V33.01Z" fill="url(#paint15_linear_3151_5)"/>
		<defs>
		<linearGradient id="paint0_linear_3151_5" x1="-0.000174193" y1="34.7398" x2="169.75" y2="34.7398" gradientUnits="userSpaceOnUse">
		<stop stop-color="#E2635E"/>
		<stop offset="1" stop-color="#BE4748"/>
		</linearGradient>
		<linearGradient id="paint1_linear_3151_5" x1="-0.000174193" y1="34.7398" x2="169.75" y2="34.7398" gradientUnits="userSpaceOnUse">
		<stop stop-color="#E2635E"/>
		<stop offset="1" stop-color="#BE4748"/>
		</linearGradient>
		<linearGradient id="paint2_linear_3151_5" x1="-0.000174193" y1="34.7398" x2="169.75" y2="34.7398" gradientUnits="userSpaceOnUse">
		<stop stop-color="#802F84"/>
		<stop offset="1" stop-color="#492052"/>
		</linearGradient>
		<linearGradient id="paint3_linear_3151_5" x1="-0.000174193" y1="34.7398" x2="169.75" y2="34.7398" gradientUnits="userSpaceOnUse">
		<stop stop-color="#802F84"/>
		<stop offset="1" stop-color="#492052"/>
		</linearGradient>
		<linearGradient id="paint4_linear_3151_5" x1="-0.000174193" y1="34.7398" x2="169.75" y2="34.7398" gradientUnits="userSpaceOnUse">
		<stop stop-color="#802F84"/>
		<stop offset="1" stop-color="#492052"/>
		</linearGradient>
		<linearGradient id="paint5_linear_3151_5" x1="-0.000174193" y1="34.7398" x2="169.75" y2="34.7398" gradientUnits="userSpaceOnUse">
		<stop stop-color="#802F84"/>
		<stop offset="1" stop-color="#492052"/>
		</linearGradient>
		<linearGradient id="paint6_linear_3151_5" x1="-0.000174193" y1="34.7398" x2="169.75" y2="34.7398" gradientUnits="userSpaceOnUse">
		<stop stop-color="#802F84"/>
		<stop offset="1" stop-color="#492052"/>
		</linearGradient>
		<linearGradient id="paint7_linear_3151_5" x1="-0.000174193" y1="34.7398" x2="169.75" y2="34.7398" gradientUnits="userSpaceOnUse">
		<stop stop-color="#802F84"/>
		<stop offset="1" stop-color="#492052"/>
		</linearGradient>
		<linearGradient id="paint8_linear_3151_5" x1="-0.000174193" y1="34.7398" x2="169.75" y2="34.7398" gradientUnits="userSpaceOnUse">
		<stop stop-color="#802F84"/>
		<stop offset="1" stop-color="#492052"/>
		</linearGradient>
		<linearGradient id="paint9_linear_3151_5" x1="-0.000174193" y1="34.7398" x2="169.75" y2="34.7398" gradientUnits="userSpaceOnUse">
		<stop offset="0.02" stop-color="#A3C53B"/>
		<stop offset="1" stop-color="#788627"/>
		</linearGradient>
		<linearGradient id="paint10_linear_3151_5" x1="-0.000174193" y1="34.7398" x2="169.75" y2="34.7398" gradientUnits="userSpaceOnUse">
		<stop offset="0.02" stop-color="#A3C53B"/>
		<stop offset="1" stop-color="#788627"/>
		</linearGradient>
		<linearGradient id="paint11_linear_3151_5" x1="-0.000174193" y1="34.7398" x2="169.75" y2="34.7398" gradientUnits="userSpaceOnUse">
		<stop offset="0.02" stop-color="#A3C53B"/>
		<stop offset="1" stop-color="#788627"/>
		</linearGradient>
		<linearGradient id="paint12_linear_3151_5" x1="-0.000174193" y1="34.7398" x2="169.75" y2="34.7398" gradientUnits="userSpaceOnUse">
		<stop offset="0.02" stop-color="#A3C53B"/>
		<stop offset="1" stop-color="#788627"/>
		</linearGradient>
		<linearGradient id="paint13_linear_3151_5" x1="-0.000174193" y1="34.7398" x2="169.75" y2="34.7398" gradientUnits="userSpaceOnUse">
		<stop offset="0.02" stop-color="#A3C53B"/>
		<stop offset="1" stop-color="#788627"/>
		</linearGradient>
		<linearGradient id="paint14_linear_3151_5" x1="-0.000174193" y1="34.7398" x2="169.75" y2="34.7398" gradientUnits="userSpaceOnUse">
		<stop offset="0.02" stop-color="#A3C53B"/>
		<stop offset="1" stop-color="#788627"/>
		</linearGradient>
		<linearGradient id="paint15_linear_3151_5" x1="-0.000174193" y1="34.7398" x2="169.75" y2="34.7398" gradientUnits="userSpaceOnUse">
		<stop stop-color="#E2635E"/>
		<stop offset="1" stop-color="#BE4748"/>
		</linearGradient>
		</defs>
	</symbol>
</svg>