<svg xmlns="http://www.w3.org/2000/svg" xmlns:xlink="http://www.w3.org/1999/xlink" style="display:none">

	<symbol id="facebook" viewBox="0 0 38 37" fill="none">
		<path d="M16.0377 27.9855H19.9575V17.9057H22.7028L23 14.5265H19.9717V12.612C19.9717 11.8144 20.1274 11.4953 20.8774 11.4953H23V8H20.283C17.3679 8 16.0377 9.3198 16.0377 11.8434V14.541H14V17.9637H16.0377V28V27.9855Z" fill="currentColor"/>
		<path d="M1 18.3903C1 27.9964 8.87767 35.7807 18.599 35.7807C28.3204 35.7807 36.1981 27.9964 36.1981 18.3903C36.1981 8.78424 28.3204 1 18.599 1C8.87767 1 1 8.78424 1 18.3903Z" stroke="currentColor" stroke-width="2" stroke-miterlimit="10"/>
	</symbol>

	<symbol id="x" viewBox="0 0 38 37" fill="none">
		<path d="M11.6345 10.298H14.3618L26.4397 26.6644H23.7124L11.6345 10.298ZM9.05566 9L16.7737 19.4782L9 28H10.744L17.5529 20.5505L23.0445 28H29L20.8367 16.9386L28.0724 9.01881H26.3284L20.0575 15.8851L14.9926 9.01881H9.03711L9.05566 9Z" fill="currentColor"/>
		<path d="M1.50879 18.3903C1.50879 27.9964 9.38646 35.7807 19.1078 35.7807C28.8292 35.7807 36.7069 27.9964 36.7069 18.3903C36.7069 8.78424 28.8292 1 19.1078 1C9.38646 1 1.50879 8.78424 1.50879 18.3903Z" stroke="currentColor" stroke-width="2" stroke-miterlimit="10"/>
	</symbol>

	<symbol id="instagram" viewBox="0 0 38 37" fill="none">
		<path d="M19 9C16.2844 9 15.9489 9 14.8786 9.06314C13.8083 9.11049 13.0895 9.28413 12.4505 9.5209C11.7955 9.77346 11.2364 10.1049 10.6773 10.6574C10.1182 11.2099 9.78275 11.7624 9.52716 12.4096C9.28754 13.041 9.11183 13.7513 9.06391 14.8089C9.01599 15.8665 9 16.198 9 18.8814C9 21.5649 9.00001 21.8963 9.06391 22.9539C9.11183 23.9957 9.28754 24.7218 9.52716 25.3532C9.78275 26.0004 10.1182 26.5529 10.6773 27.1054C11.2364 27.6579 11.7955 27.9893 12.4505 28.2419C13.0895 28.4787 13.8083 28.6523 14.8786 28.6997C15.9489 28.747 16.2844 28.7628 19 28.7628C21.7157 28.7628 22.0511 28.7628 23.1214 28.6997C24.1917 28.6523 24.9105 28.4787 25.5495 28.2419C26.2045 27.9893 26.7636 27.6579 27.3227 27.1054C27.8818 26.5529 28.2173 26.0004 28.4728 25.3532C28.7125 24.7218 28.8882 24.0115 28.9361 22.9539C28.984 21.8963 29 21.5649 29 18.8814C29 16.198 29 15.8665 28.9361 14.8089C28.8882 13.7513 28.7125 13.041 28.4728 12.4096C28.2173 11.7624 27.8818 11.2099 27.3227 10.6574C26.7636 10.1049 26.2045 9.77346 25.5495 9.5209C24.9105 9.28413 24.1917 9.11049 23.1214 9.06314C22.0511 9.01578 21.7157 9 19 9ZM19 10.7837C21.6677 10.7837 21.9872 10.7837 23.0415 10.8468C24.016 10.8942 24.5431 11.052 24.8946 11.1941C25.3578 11.3677 25.6933 11.5887 26.0447 11.936C26.3962 12.2833 26.6038 12.6148 26.7955 13.0725C26.9393 13.4198 27.099 13.9407 27.131 14.9036C27.1789 15.9454 27.1949 16.2611 27.1949 18.8972C27.1949 21.5333 27.1949 21.849 27.131 22.8908C27.0831 23.8537 26.9233 24.3746 26.7955 24.7218C26.6198 25.1796 26.3962 25.5111 26.0447 25.8584C25.6933 26.2056 25.3578 26.4108 24.8946 26.6003C24.5431 26.7423 24.016 26.9002 23.0415 26.9317C21.9872 26.9791 21.6677 26.9949 19 26.9949C16.3323 26.9949 16.0128 26.9949 14.9585 26.9317C13.984 26.8844 13.4569 26.7265 13.1054 26.6003C12.6422 26.4266 12.3067 26.2056 11.9553 25.8584C11.6038 25.5111 11.3962 25.1796 11.2045 24.7218C11.0607 24.3746 10.901 23.8537 10.853 22.8908C10.8051 21.849 10.7892 21.5333 10.7892 18.8972C10.7892 16.2611 10.7891 15.9454 10.853 14.9036C10.901 13.9407 11.0607 13.4198 11.2045 13.0725C11.3802 12.6148 11.6038 12.2833 11.9553 11.936C12.3067 11.5887 12.6422 11.3835 13.1054 11.1941C13.4569 11.052 13.984 10.8942 14.9585 10.8468C16.0128 10.7995 16.3323 10.7837 19 10.7837Z" fill="currentColor"/>
		<path d="M19.0004 22.1648C17.1633 22.1648 15.6777 20.6968 15.6777 18.8815C15.6777 17.0663 17.1633 15.5983 19.0004 15.5983C20.8374 15.5983 22.323 17.0663 22.323 18.8815C22.323 20.6968 20.8374 22.1648 19.0004 22.1648ZM19.0004 13.7988C16.1729 13.7988 13.8726 16.0718 13.8726 18.8657C13.8726 21.6597 16.1729 23.9327 19.0004 23.9327C21.8278 23.9327 24.1281 21.6597 24.1281 18.8657C24.1281 16.0718 21.8278 13.7988 19.0004 13.7988Z" fill="currentColor"/>
		<path d="M25.5343 13.6092C25.5343 14.2564 24.9912 14.7931 24.3363 14.7931C23.6813 14.7931 23.1382 14.2564 23.1382 13.6092C23.1382 12.962 23.6813 12.4254 24.3363 12.4254C24.9912 12.4254 25.5343 12.962 25.5343 13.6092Z" fill="currentColor"/>
		<path d="M1 18.3903C1 27.9964 8.87767 35.7807 18.599 35.7807C28.3204 35.7807 36.1981 27.9964 36.1981 18.3903C36.1981 8.78424 28.3204 1 18.599 1C8.87767 1 1 8.78424 1 18.3903Z" stroke="currentColor" stroke-width="2" stroke-miterlimit="10"/>
	</symbol>

	<symbol id="youtube" viewBox="0 0 38 37" fill="none">
		<path d="M16.9757 20.9569V15.0431L22.1918 18L16.9757 20.9569ZM28.5906 13.1875C28.3631 12.3276 27.6808 11.6487 26.8165 11.4224C25.2547 11 19.0076 11 19.0076 11C19.0076 11 12.7604 11 11.1986 11.4224C10.3343 11.6487 9.66717 12.3276 9.42456 13.1875C9 14.7414 9 18 9 18C9 18 9 21.2586 9.42456 22.8125C9.65201 23.6724 10.3343 24.3513 11.1986 24.5776C12.7604 25 19.0076 25 19.0076 25C19.0076 25 25.2547 25 26.8165 24.5776C27.6808 24.3513 28.348 23.6724 28.5906 22.8125C29 21.2586 29 18 29 18C29 18 29 14.7414 28.5906 13.1875Z" fill="currentColor"/>
		<path d="M1 18.3903C1 27.9964 8.87767 35.7807 18.599 35.7807C28.3204 35.7807 36.1981 27.9964 36.1981 18.3903C36.1981 8.78424 28.3204 1 18.599 1C8.87767 1 1 8.78424 1 18.3903Z" stroke="currentColor" stroke-width="2" stroke-miterlimit="10"/>
	</symbol>

	<symbol id="tiktok" viewBox="0 0 38 37" fill="none">
		<path d="M27.9852 13.114C27.9852 13.014 27.9852 13.014 27.8816 13.014C27.6298 13.014 27.3929 12.9854 27.1412 12.9569C26.2528 12.8283 23.3949 11.3716 22.9063 9.00096C22.9063 8.95811 22.7879 8.3583 22.7879 8.11552C22.7879 8.00127 22.7878 8.00127 22.6694 8.00127C22.6398 8.00127 22.6102 8.00127 22.5954 8.00127C21.47 8.00127 20.3595 8.00127 19.2341 8.00127C19.012 8.00127 19.0416 7.9727 19.0416 8.18692C19.0416 12.8712 19.0416 17.5697 19.0416 22.254C19.0416 22.4253 19.0416 22.611 18.9972 22.7824C18.8343 23.6964 18.3457 24.3962 17.5313 24.8817C16.8205 25.2959 16.0654 25.4244 15.251 25.2673C14.9993 25.2245 14.7475 25.1245 14.5106 25.0388C14.4958 25.0245 14.4662 25.0103 14.4514 24.9817C14.3773 24.9103 14.2885 24.8674 14.1996 24.8103C13.1631 24.1105 12.6745 23.1537 12.8226 21.9541C12.9706 20.7259 13.6962 19.8976 14.8956 19.4691C15.251 19.3406 15.6359 19.2835 16.0061 19.312C16.2578 19.312 16.4948 19.3549 16.7317 19.4263C16.8205 19.4548 16.865 19.4263 16.865 19.3406C16.865 19.312 16.865 19.2835 16.865 19.2549C16.865 18.4123 16.8354 16.57 16.8354 16.57C16.8354 16.3272 16.8354 16.0845 16.8354 15.8417C16.8354 15.7703 16.8057 15.756 16.7465 15.756C16.3023 15.6989 15.8433 15.6989 15.3842 15.7274C14.7475 15.7703 14.1404 15.8988 13.5482 16.0987C12.6005 16.4272 11.7713 16.9271 11.0605 17.6126C10.4386 18.1981 9.9648 18.8693 9.60942 19.6262C9.26886 20.3546 9.07633 21.1115 9.0171 21.8969C8.98748 22.2397 9.00229 22.5824 9.0171 22.9252C9.06152 23.3965 9.15037 23.8677 9.29844 24.3247C9.72785 25.6386 10.5126 26.7097 11.6232 27.5523C11.7416 27.638 11.8453 27.738 11.9785 27.7951C12.0378 27.8379 12.097 27.8951 12.1563 27.9379C12.334 28.0664 12.5264 28.1807 12.7337 28.2807C13.9775 28.8805 15.2954 29.109 16.6725 28.9519C18.4641 28.7377 19.9597 27.9665 21.1442 26.6526C22.2548 25.4101 22.7879 23.9534 22.8027 22.3111C22.8027 19.9832 22.8027 17.6411 22.8027 15.299C22.8027 15.2419 22.7731 15.1705 22.8323 15.1419C22.8767 15.1133 22.9359 15.1847 22.9804 15.2133C23.8836 15.7846 24.8461 16.1987 25.9122 16.4272C26.5193 16.5557 27.1412 16.6414 27.7779 16.6414C27.9704 16.6414 28 16.6414 28 16.4415C28 15.6132 27.9556 13.3425 27.9556 13.1282" fill="currentColor"/>
		<path d="M1.04688 18.3903C1.04688 27.9964 8.92454 35.7807 18.6459 35.7807C28.3673 35.7807 36.245 27.9964 36.245 18.3903C36.245 8.78424 28.3673 1 18.6459 1C8.92454 1 1.04688 8.78424 1.04688 18.3903Z" stroke="currentColor" stroke-width="2" stroke-miterlimit="10"/>
	</symbol>

	<symbol id="spotify" viewBox="0 0 38 37" fill="none">
		<path d="M24.8921 16.8906C21.6987 14.9865 16.3463 14.7916 13.3028 15.7361C12.8081 15.8861 12.2984 15.5862 12.1484 15.1364C11.9985 14.6417 12.2984 14.1319 12.7481 13.982C16.3014 12.9325 22.1484 13.1274 25.8366 15.3313C26.2864 15.5862 26.4363 16.1859 26.1814 16.6357C25.9265 16.9805 25.3268 17.1304 24.8771 16.8906M24.8021 19.6942C24.5472 20.039 24.0974 20.1889 23.7526 19.949C21.054 18.2998 16.961 17.8051 13.8126 18.7946C13.4078 18.8996 12.958 18.6897 12.868 18.2998C12.7631 17.8951 12.973 17.4453 13.3628 17.3553C17.006 16.2609 21.5038 16.8006 24.6072 18.7046C24.9071 18.8546 25.057 19.3493 24.8021 19.7091M23.6027 22.4378C23.4078 22.7376 23.048 22.8426 22.7481 22.6327C20.3943 21.1784 17.4558 20.8786 13.9475 21.6882C13.6027 21.7931 13.3028 21.5382 13.1979 21.2384C13.0929 20.8936 13.3478 20.5937 13.6477 20.4888C17.4408 19.6342 20.7391 19.994 23.3478 21.5832C23.6927 21.7331 23.7526 22.1379 23.6027 22.4378ZM19 8C13.4828 8 9 12.4678 9 18C9 23.5322 13.4678 28 19 28C24.5323 28 29 23.5322 29 18C29 12.4678 24.5323 8 19 8Z" fill="currentColor"/>
		<path d="M1.56738 18.3903C1.56738 27.9964 9.44505 35.7807 19.1664 35.7807C28.8878 35.7807 36.7655 27.9964 36.7655 18.3903C36.7655 8.78424 28.8878 1 19.1664 1C9.44505 1 1.56738 8.78424 1.56738 18.3903Z" stroke="currentColor" stroke-width="2" stroke-miterlimit="10"/>
	</symbol>

</svg>