<svg xmlns="http://www.w3.org/2000/svg" xmlns:xlink="http://www.w3.org/1999/xlink" style="display: none;">
 
 <symbol id="icon-facebook" viewBox="0 0 38 37" >
    <path d="M16.7834 26.1021H19.8786V18.4283H22.0463L22.281 15.8556H19.8897V14.3982C19.8897 13.7909 20.0127 13.548 20.6049 13.548H22.281V10.887H20.1356C17.8337 10.887 16.7834 11.8917 16.7834 13.813V15.8667H15.1743V18.4725H16.7834V26.1132V26.1021Z" fill="#5C5B5B"/>
    <path d="M1.11743 18.4946C1.11743 28.1007 8.9951 35.8849 18.7165 35.8849C28.4379 35.8849 36.3155 28.1007 36.3155 18.4946C36.3155 8.88849 28.4379 1.10425 18.7165 1.10425C8.9951 1.10425 1.11743 8.88849 1.11743 18.4946Z" stroke="#5C5B5B" stroke-width="2" stroke-miterlimit="10"/>
  </symbol>

  <symbol id="icon-instagram" viewBox="0 0 38 37">
    <path d="M18.7454 11.5935C16.8458 11.5935 16.6112 11.5935 15.8625 11.6377C15.1139 11.6708 14.611 11.7923 14.1641 11.9579C13.7059 12.1345 13.3149 12.3664 12.9238 12.7529C12.5327 13.1393 12.298 13.5258 12.1192 13.9785C11.9516 14.4201 11.8287 14.917 11.7952 15.6568C11.7617 16.3966 11.7505 16.6284 11.7505 18.5055C11.7505 20.3825 11.7505 20.6144 11.7952 21.3542C11.8287 22.0829 11.9516 22.5908 12.1192 23.0325C12.298 23.4852 12.5327 23.8716 12.9238 24.2581C13.3149 24.6445 13.7059 24.8764 14.1641 25.0531C14.611 25.2187 15.1139 25.3401 15.8625 25.3733C16.6112 25.4064 16.8458 25.4174 18.7454 25.4174C20.645 25.4174 20.8797 25.4174 21.6283 25.3733C22.377 25.3401 22.8798 25.2187 23.3268 25.0531C23.7849 24.8764 24.176 24.6445 24.5671 24.2581C24.9582 23.8716 25.1928 23.4852 25.3716 23.0325C25.5392 22.5908 25.6621 22.094 25.6957 21.3542C25.7292 20.6144 25.7403 20.3825 25.7403 18.5055C25.7403 16.6284 25.7403 16.3966 25.6957 15.6568C25.6621 14.917 25.5392 14.4201 25.3716 13.9785C25.1928 13.5258 24.9582 13.1393 24.5671 12.7529C24.176 12.3664 23.7849 12.1345 23.3268 11.9579C22.8798 11.7923 22.377 11.6708 21.6283 11.6377C20.8797 11.6045 20.645 11.5935 18.7454 11.5935ZM18.7454 12.8412C20.6115 12.8412 20.835 12.8412 21.5724 12.8854C22.2541 12.9185 22.6228 13.0289 22.8686 13.1283C23.1927 13.2497 23.4273 13.4043 23.6731 13.6472C23.919 13.8901 24.0642 14.122 24.1983 14.4422C24.2989 14.6851 24.4106 15.0495 24.433 15.723C24.4665 16.4518 24.4777 16.6726 24.4777 18.5165C24.4777 20.3604 24.4777 20.5813 24.433 21.31C24.3995 21.9835 24.2877 22.3479 24.1983 22.5908C24.0754 22.911 23.919 23.1429 23.6731 23.3858C23.4273 23.6287 23.1927 23.7723 22.8686 23.9048C22.6228 24.0041 22.2541 24.1145 21.5724 24.1366C20.835 24.1698 20.6115 24.1808 18.7454 24.1808C16.8794 24.1808 16.6559 24.1808 15.9184 24.1366C15.2368 24.1035 14.868 23.9931 14.6222 23.9048C14.2982 23.7833 14.0635 23.6287 13.8177 23.3858C13.5719 23.1429 13.4266 22.911 13.2925 22.5908C13.1919 22.3479 13.0802 21.9835 13.0467 21.31C13.0132 20.5813 13.002 20.3604 13.002 18.5165C13.002 16.6726 13.002 16.4518 13.0467 15.723C13.0802 15.0495 13.1919 14.6851 13.2925 14.4422C13.4154 14.122 13.5719 13.8901 13.8177 13.6472C14.0635 13.4043 14.2982 13.2608 14.6222 13.1283C14.868 13.0289 15.2368 12.9185 15.9184 12.8854C16.6559 12.8522 16.8794 12.8412 18.7454 12.8412Z" fill="#5C5B5B"/>
    <path d="M18.7456 20.8022C17.4605 20.8022 16.4214 19.7753 16.4214 18.5056C16.4214 17.2358 17.4605 16.2089 18.7456 16.2089C20.0306 16.2089 21.0697 17.2358 21.0697 18.5056C21.0697 19.7753 20.0306 20.8022 18.7456 20.8022ZM18.7456 14.9502C16.7678 14.9502 15.1587 16.5402 15.1587 18.4945C15.1587 20.4489 16.7678 22.0388 18.7456 22.0388C20.7234 22.0388 22.3324 20.4489 22.3324 18.4945C22.3324 16.5402 20.7234 14.9502 18.7456 14.9502Z" fill="#5C5B5B"/>
    <path d="M23.3157 14.8176C23.3157 15.2703 22.9358 15.6457 22.4777 15.6457C22.0196 15.6457 21.6396 15.2703 21.6396 14.8176C21.6396 14.3649 22.0196 13.9895 22.4777 13.9895C22.9358 13.9895 23.3157 14.3649 23.3157 14.8176Z" fill="#5C5B5B"/>
    <path d="M1.14648 18.4946C1.14648 28.1007 9.02415 35.8849 18.7455 35.8849C28.4669 35.8849 36.3446 28.1007 36.3446 18.4946C36.3446 8.88849 28.4669 1.10425 18.7455 1.10425C9.02415 1.10425 1.14648 8.88849 1.14648 18.4946Z" stroke="#5C5B5B" stroke-width="2" stroke-miterlimit="10"/>
  </symbol>

  <symbol id="icon-spotify" iewBox="0 0 38 37" fill="none">
    <path d="M12.675 6.68847C10.2949 5.2862 6.30582 5.14266 4.0375 5.83827C3.66876 5.94869 3.28885 5.72786 3.17711 5.39661C3.06537 5.03225 3.28885 4.65683 3.62407 4.54642C6.2723 3.77352 10.6302 3.91706 13.379 5.54015C13.7142 5.72786 13.8259 6.16952 13.636 6.50076C13.446 6.75472 12.999 6.86513 12.6638 6.68847M12.608 8.75322C12.418 9.00718 12.0828 9.11759 11.8258 8.94093C9.81446 7.72637 6.76395 7.362 4.41741 8.09074C4.11571 8.16803 3.78049 8.01344 3.71344 7.72637C3.63522 7.42825 3.79168 7.097 4.0822 7.03075C6.79749 6.22473 10.1497 6.62222 12.4627 8.02449C12.6862 8.1349 12.7979 8.49927 12.608 8.76427M11.714 10.7738C11.5688 10.9946 11.3006 11.0719 11.0771 10.9174C9.32282 9.84633 7.13269 9.6255 4.51797 10.2217C4.26097 10.299 4.03749 10.1113 3.95927 9.8905C3.88105 9.63654 4.07103 9.41571 4.29451 9.33842C7.12153 8.70906 9.57981 8.97405 11.5241 10.1445C11.7811 10.2549 11.8258 10.553 11.714 10.7738ZM8.28364 0.140869C4.17161 0.140869 0.830566 3.43123 0.830566 7.50554C0.830566 11.5798 4.16043 14.8702 8.28364 14.8702C12.4068 14.8702 15.7367 11.5798 15.7367 7.50554C15.7367 3.43123 12.4068 0.140869 8.28364 0.140869Z" fill="#5C5B5B"/>
  </symbol>

  <symbol id="icon-tiktok" viewBox="0 0 38 37" fill="none">
    <path d="M25.9037 14.3318C25.9037 14.2545 25.9037 14.2545 25.8255 14.2545C25.6355 14.2545 25.4568 14.2324 25.2668 14.2103C24.5964 14.1109 22.4398 12.9847 22.071 11.1518C22.071 11.1187 21.9816 10.6549 21.9816 10.4672C21.9816 10.3789 21.9816 10.3789 21.8922 10.3789C21.8699 10.3789 21.8476 10.3789 21.8364 10.3789C20.9872 10.3789 20.1491 10.3789 19.2999 10.3789C19.1323 10.3789 19.1546 10.3568 19.1546 10.5224C19.1546 14.1441 19.1546 17.7767 19.1546 21.3983C19.1546 21.5308 19.1546 21.6743 19.1211 21.8068C18.9982 22.5135 18.6294 23.0545 18.0149 23.4299C17.4785 23.7501 16.9087 23.8495 16.2941 23.7281C16.1041 23.6949 15.9142 23.6176 15.7354 23.5514C15.7242 23.5404 15.7019 23.5293 15.6907 23.5072C15.6348 23.452 15.5678 23.4189 15.5007 23.3747C14.7185 22.8337 14.3498 22.0939 14.4615 21.1664C14.5733 20.2169 15.1208 19.5765 16.0259 19.2452C16.2941 19.1458 16.5846 19.1017 16.8639 19.1238C17.0539 19.1238 17.2327 19.1569 17.4115 19.2121C17.4785 19.2342 17.512 19.2121 17.512 19.1458C17.512 19.1238 17.512 19.1017 17.512 19.0796C17.512 18.4281 17.4897 17.0038 17.4897 17.0038C17.4897 16.8161 17.4897 16.6284 17.4897 16.4407C17.4897 16.3855 17.4673 16.3744 17.4226 16.3744C17.0874 16.3303 16.741 16.3303 16.3946 16.3524C15.9142 16.3855 15.456 16.4848 15.0091 16.6394C14.2939 16.8934 13.6682 17.2798 13.1318 17.8098C12.6625 18.2625 12.305 18.7815 12.0368 19.3667C11.7798 19.9298 11.6345 20.515 11.5898 21.1223C11.5675 21.3873 11.5786 21.6523 11.5898 21.9173C11.6233 22.2816 11.6904 22.646 11.8021 22.9993C12.1262 24.0151 12.7184 24.8432 13.5564 25.4947C13.6458 25.5609 13.724 25.6382 13.8246 25.6824C13.8693 25.7155 13.914 25.7597 13.9587 25.7928C14.0928 25.8922 14.2381 25.9805 14.3945 26.0578C15.3331 26.5216 16.3276 26.6982 17.3668 26.5768C18.7188 26.4111 19.8474 25.8149 20.7413 24.7991C21.5794 23.8385 21.9817 22.7122 21.9928 21.4425C21.9928 19.6427 21.9928 17.8319 21.9928 16.0211C21.9928 15.9769 21.9705 15.9217 22.0152 15.8996C22.0487 15.8776 22.0934 15.9328 22.1269 15.9549C22.8085 16.3965 23.5348 16.7167 24.3393 16.8934C24.7975 16.9928 25.2668 17.059 25.7473 17.059C25.8925 17.059 25.9149 17.059 25.9149 16.9044C25.9149 16.264 25.8814 14.5084 25.8814 14.3428" fill="#5C5B5B"/>
    <path d="M1.16431 18.4946C1.16431 28.1007 9.04198 35.8849 18.7634 35.8849C28.4847 35.8849 36.3624 28.1007 36.3624 18.4946C36.3624 8.88849 28.4847 1.10425 18.7634 1.10425C9.04198 1.10425 1.16431 8.88849 1.16431 18.4946Z" stroke="#5C5B5B" stroke-width="2" stroke-miterlimit="10"/>  
  </symbol>

  <symbol id="icon-x" viewBox="0 0 38 37" fill="none">
    <path d="M14.7894 13.6915H16.4319L23.7062 23.2976H22.0636L14.7894 13.6915ZM13.2362 12.9297L17.8845 19.0798L13.2026 24.0816H14.253L18.3539 19.7092L21.6614 24.0816H25.2482L20.3317 17.5892L24.6895 12.9407H23.6392L19.8623 16.9709L16.8118 12.9407H13.225L13.2362 12.9297Z" fill="#5C5B5B"/>
    <path d="M1.62646 18.4946C1.62646 28.1007 9.50413 35.8849 19.2255 35.8849C28.9469 35.8849 36.8246 28.1007 36.8246 18.4946C36.8246 8.88849 28.9469 1.10425 19.2255 1.10425C9.50413 1.10425 1.62646 8.88849 1.62646 18.4946Z" stroke="#5C5B5B" stroke-width="2" stroke-miterlimit="10"/>
  </symbol>

  <symbol id="icon-youtube" viewBox="0 0 38 37" fill="none">
    <path d="M17.7572 20.6587V16.3305L21.601 18.4946L17.7572 20.6587ZM26.3164 14.9724C26.1488 14.343 25.646 13.8461 25.0091 13.6805C23.8582 13.3713 19.2545 13.3713 19.2545 13.3713C19.2545 13.3713 14.6508 13.3713 13.4999 13.6805C12.8629 13.8461 12.3713 14.343 12.1925 14.9724C11.8796 16.1096 11.8796 18.4946 11.8796 18.4946C11.8796 18.4946 11.8796 20.8795 12.1925 22.0168C12.3601 22.6462 12.8629 23.143 13.4999 23.3087C14.6508 23.6178 19.2545 23.6178 19.2545 23.6178C19.2545 23.6178 23.8582 23.6178 25.0091 23.3087C25.646 23.143 26.1377 22.6462 26.3164 22.0168C26.6181 20.8795 26.6181 18.4946 26.6181 18.4946C26.6181 18.4946 26.6181 16.1096 26.3164 14.9724Z" fill="#5C5B5B"/>
    <path d="M1.65552 18.4946C1.65552 28.1007 9.53319 35.8849 19.2546 35.8849C28.9759 35.8849 36.8536 28.1007 36.8536 18.4946C36.8536 8.88849 28.9759 1.10425 19.2546 1.10425C9.53319 1.10425 1.65552 8.88849 1.65552 18.4946Z" stroke="#5C5B5B" stroke-width="2" stroke-miterlimit="10"/>
  </symbol>
</svg>