<svg xmlns="http://www.w3.org/2000/svg" xmlns:xlink="http://www.w3.org/1999/xlink" style="display: none;">
 
  <symbol id="icono-inscripcion" viewBox="0 0 44 50" fill="none">
    <path d="M11.2772 48.3364L33.3272 48.3164C34.3872 48.4064 34.3972 49.8564 33.3272 49.9764H11.5572C10.5872 49.8164 10.3972 48.8164 11.2672 48.3364H11.2772Z" fill="#5C5B5B"/>
    <path d="M9.50721 49.7264C9.07721 50.1264 7.51721 50.1264 7.30721 49.4564C6.93721 48.2764 8.42721 48.1064 9.23721 48.3564C9.79721 48.5364 9.92721 49.3464 9.50721 49.7264Z" fill="#5C5B5B"/>
    <path d="M37.3772 49.7264C36.8772 50.1864 35.4572 50.0864 35.1872 49.3364C34.7972 48.2564 36.4072 48.1364 37.1072 48.3564C37.6672 48.5364 37.7972 49.3464 37.3772 49.7264Z" fill="#5C5B5B"/>
    <path d="M11.5872 21.3964L31.7772 21.3764C32.9072 21.5064 32.7372 22.9164 31.6772 23.0364H11.8672C10.9172 22.9264 10.6172 21.7464 11.5772 21.3964H11.5872Z" fill="#C1D13F"/>
    <path d="M27.1272 25.2364C27.5572 25.7664 27.1272 26.7264 26.3772 26.6564C23.4572 26.4164 20.0172 26.9764 17.1572 26.6564C15.9572 26.5264 15.9472 25.1164 16.9472 24.9964C20.0072 25.2264 23.4772 24.7064 26.4872 24.9964C26.6872 25.0164 26.9872 25.0764 27.1272 25.2364Z" fill="#C1D13F"/>
    <path d="M38.0372 10.8064H41.1972C41.1972 10.8064 41.9072 11.0764 42.0072 11.1364C42.9372 11.6364 43.4272 12.6364 43.5272 13.6564C43.1672 20.8764 44.0172 28.5664 43.5272 35.7264C43.4572 36.8264 43.0472 37.9264 42.0372 38.4864C41.9172 38.5464 41.1372 38.8764 41.0872 38.8764H26.5272C26.7272 40.6164 28.1172 42.3664 29.3272 43.5864C29.8172 44.0864 31.5672 45.2764 31.4872 45.9464C31.4372 46.3364 31.0472 46.7064 30.6272 46.6464L13.8872 46.5864C12.6372 45.5964 14.4472 44.7464 15.1272 44.1064C16.5772 42.7364 18.3672 40.9864 18.4372 38.8764H2.54721C1.28721 38.8764 -0.112789 37.0764 0.00721082 35.8264V13.6564C0.107211 12.6464 0.617211 11.6264 1.52721 11.1364C1.62721 11.0864 2.29721 10.8064 2.33721 10.8064H5.49721V0.696405C5.49721 0.466405 6.16721 -0.0935945 6.47721 0.0164055H37.0572C37.3572 -0.103595 38.0372 0.466405 38.0372 0.696405V10.7964V10.8064ZM36.3772 1.68641H7.15721V33.2864H36.3772V1.68641ZM5.49721 12.4564H2.54721C2.34721 12.4564 1.66721 13.2164 1.66721 13.4364V33.3864H5.49721V12.4564ZM41.8672 33.3864V13.5464C41.8672 13.2564 41.2472 12.4564 40.9872 12.4564H38.0372V33.3864H41.8672ZM41.8672 35.0464H1.66721C1.58721 36.0264 1.71721 37.0564 2.85721 37.2264H40.5772C41.8172 37.1064 41.9472 36.0964 41.8672 35.0464ZM16.5872 44.9964H28.2472C28.2472 44.9964 28.5172 45.2864 28.5072 44.9464C26.8572 43.2664 25.1772 41.2964 24.8272 38.8764H20.1172C20.0472 41.3564 18.1472 43.2564 16.5972 44.9964H16.5872Z" fill="#5C5B5B"/>
    <path d="M16.7972 14.2264C17.9372 13.3764 18.9872 12.5664 20.4672 12.4564C22.3772 12.3164 23.7472 12.9764 25.1272 14.2264C25.8172 13.6064 25.7872 12.0164 26.9772 12.2764C28.6772 12.6564 26.0972 15.7464 25.4372 16.2964C20.4972 20.4264 13.1272 16.1364 14.2272 9.84644C15.0972 4.84644 21.0072 2.48644 25.1172 5.53644C25.7772 6.02644 27.2672 7.22644 26.2772 8.00644C25.4872 8.62644 24.8772 7.43644 24.3072 6.97644C21.4172 4.64644 16.9572 6.03644 15.9772 9.62644C15.5072 11.3464 15.9372 12.7464 16.7972 14.2364V14.2264ZM24.0472 15.3564C22.7872 13.7664 20.5372 13.4664 18.8272 14.5464C18.7172 14.6164 18.0472 15.1564 18.0372 15.2064C17.9772 15.4764 19.0372 15.8864 19.2572 15.9564C21.0072 16.5364 22.4772 16.2564 24.0472 15.3564Z" fill="#C1D13F"/>
    <path d="M22.3272 11.0464C22.2572 11.1064 22.2272 11.2264 22.1172 11.2964C20.0172 12.7264 17.6972 9.5564 19.1772 7.6364C21.1872 5.0264 25.2172 8.5264 22.3272 11.0464ZM20.9172 8.2264C19.5472 8.4064 20.4272 10.8164 21.4072 9.9664C22.0572 9.4064 21.8772 8.0964 20.9172 8.2264Z" fill="#C1D13F"/>
    <path d="M24.1772 9.16642C24.1772 9.16642 24.6072 8.86642 24.6372 8.85642C25.5272 8.59642 25.9072 9.55642 26.2572 9.44642C26.4272 9.39642 27.6172 7.66642 27.9372 7.38642C28.6472 6.76642 29.5772 7.32642 29.3872 8.10642C29.3172 8.37642 27.5272 10.5664 27.2072 10.9064C26.8172 11.3164 26.4972 11.7364 25.8672 11.4064C25.6772 11.3064 24.5272 10.3464 24.3972 10.1764C24.2072 9.92642 23.9872 9.45642 24.1672 9.15642L24.1772 9.16642Z" fill="#C1D13F"/>
    <path d="M20.1872 28.3364C20.7072 28.2464 22.9472 28.2364 23.4372 28.3564C24.3672 28.5764 24.3972 29.8164 23.4772 29.9664C22.9772 30.0464 20.4372 30.0564 19.9872 29.9464C19.1172 29.7564 19.2272 28.5064 20.1972 28.3364H20.1872Z" fill="#C1D13F"/>  
  </symbol>

  <symbol  id="icono-calendario" viewBox="0 0 51 50" fill="none">
<path d="M0 5.96564C0.42 4.91564 1.13 4.10565 2.3 3.92565H12.48V2.20565C12.48 2.08565 12.71 1.58565 12.79 1.44565C13.83 -0.434355 16.55 -0.494355 17.63 1.34565C17.73 1.52565 18.04 2.13564 18.04 2.30564V3.91565H29.36V2.20565C29.36 2.13565 29.78 1.26565 29.86 1.14565C30.98 -0.494355 33.59 -0.334355 34.57 1.37565C34.63 1.48565 34.92 2.14565 34.92 2.19565V3.90565H45.1C46.31 4.06565 47.4 5.25564 47.41 6.48564V31.1756C47.34 31.6856 46.81 31.9556 46.33 31.7556C46.28 31.7356 45.94 31.3956 45.94 31.3656V13.6756H41.7C41.48 13.6756 41.05 13.1256 41.07 12.8556C41.09 12.6256 41.51 12.1156 41.7 12.1156H45.94V6.60564C45.94 6.00564 45.21 5.39564 44.61 5.39564H34.92V7.09564C34.92 7.24565 34.59 7.94564 34.47 8.11564C33.28 9.82564 30.74 9.74564 29.7 7.91564C29.64 7.80564 29.35 7.14565 29.35 7.09564V5.38564H18.03V6.99564C18.03 7.08564 17.79 7.72564 17.72 7.85564C16.75 9.74564 14.01 9.83564 12.88 8.04564C12.81 7.92564 12.47 7.25564 12.47 7.18564V5.38564H2.88C2.29 5.38564 1.46 5.84564 1.46 6.50564V12.1156H38.58C38.8 12.1156 39.23 12.6656 39.21 12.9356C39.19 13.1656 38.77 13.6756 38.58 13.6756H1.46V17.0456C1.46 17.6056 0.21 17.7656 0 17.0956V5.96564ZM15.1 1.50565C14.56 1.56564 14.07 2.09565 13.98 2.63565C13.86 3.37565 13.87 5.74565 13.96 6.51565C14.15 8.24565 16.22 8.11564 16.48 6.98564C16.61 6.42564 16.58 3.27565 16.5 2.61564C16.42 1.95564 15.8 1.43564 15.11 1.51565L15.1 1.50565ZM32.07 1.50565C31.15 1.57565 30.88 2.28565 30.82 3.09564C30.76 3.90564 30.72 6.66564 31.07 7.24564C31.62 8.15564 32.97 7.97564 33.33 6.97564C33.55 6.38564 33.52 3.73565 33.46 2.99565C33.39 2.20565 32.98 1.43564 32.07 1.50565Z" fill="#5C5B5B"/>
<path d="M0 42.2556V19.7256C0.49 19.1756 1.15 19.1356 1.46 19.8756V41.4356C1.55 42.4556 1.98 42.7656 2.97 42.8456H30.1C31 42.9556 30.92 44.2556 30 44.3056H2.48C1.2 44.1956 0.45 43.3856 0 42.2556Z" fill="#5C5B5B"/>
<path d="M32.05 39.3356C32.05 39.3356 32.01 39.2956 32.01 39.2756C32.01 39.3056 32.08 39.3556 32.02 39.2956C31.94 39.2156 31.86 39.1456 31.78 39.0756C31.76 39.0656 31.76 39.0556 31.77 39.0756C31.75 39.0656 31.73 39.0456 31.71 39.0356C31.66 39.0056 31.62 38.9656 31.57 38.9356C31.55 38.9256 31.54 38.9056 31.52 38.8856C31.36 39.0256 30.94 38.9356 30.72 38.9556V34.3756H32.13C32.73 34.3756 32.76 32.9156 32.13 32.9156H30.72V28.1356H35.5V30.7156C35.5 30.9456 36.08 31.2656 36.32 31.2556C36.61 31.2356 37.06 30.7856 37.06 30.5256V28.1356H42.03V31.5056C42.1 31.5756 42.13 31.6456 42.15 31.7256C42.16 31.7256 42.17 31.7356 42.17 31.7456C42.24 31.7756 42.32 31.7956 42.4 31.8056C42.4 31.8056 42.43 31.8056 42.44 31.8056C42.44 31.8056 42.44 31.8056 42.45 31.8056C42.5 31.8056 42.55 31.8056 42.6 31.8156C42.71 31.8156 42.81 31.8156 42.92 31.8156C42.97 31.8156 43.02 31.8156 43.07 31.8056C43.09 31.8056 43.14 31.8056 43.17 31.7956C43.23 31.7856 43.3 31.8256 43.36 31.8056C43.38 31.8056 43.5 31.8556 43.52 31.8456C43.54 31.8456 43.46 31.7256 43.51 31.7156C43.49 31.7156 43.48 31.7256 43.46 31.7356C43.45 31.7356 43.43 31.7356 43.42 31.7456C43.38 31.7656 43.41 31.7556 43.44 31.7456C43.46 31.7356 43.49 31.8656 43.51 31.8556L43.49 18.0356C43.37 16.8756 42.43 16.1156 41.3 16.0356H6.09001C4.99001 16.1156 3.98001 16.8856 3.89001 18.0356V38.4256C3.98001 39.4756 4.84001 40.3356 5.89001 40.4256H31.33C31.33 40.4256 31.43 40.3656 31.48 40.3456C31.5 40.3456 31.52 40.3356 31.54 40.3256C31.55 40.3256 31.56 40.3056 31.57 40.3056C31.59 40.2956 31.61 40.2756 31.63 40.2656C31.67 40.2256 31.71 40.1856 31.75 40.1356C31.76 40.1156 31.79 40.0756 31.8 40.0656C31.86 39.9656 31.92 39.8656 31.97 39.7556C32 39.7056 32.02 39.6456 32.04 39.5956C32 39.6956 32.04 39.6056 32.04 39.5956C32.04 39.5656 32.06 39.5356 32.07 39.5056C32.07 39.5056 32.07 39.5056 32.07 39.4956C32.07 39.4756 32.07 39.4556 32.07 39.4456C32.07 39.4356 32.07 39.4156 32.06 39.4056C32.06 39.3956 32.04 39.3756 32.04 39.3656L32.05 39.3356ZM37.07 17.5756H41.61C41.7 17.5756 42.05 18.0956 42.05 18.2056V20.3056H37.08V17.5756H37.07ZM37.07 21.8656H42.04V26.5456H37.07V21.8656ZM30.73 17.5756H35.51V20.3056H30.73V17.5756ZM30.73 21.8656H35.51V26.5456H30.73V21.8656ZM10.34 38.9356H6.10001C5.86001 38.9356 5.37001 38.5556 5.37001 38.3056V34.3556H10.34V38.9356ZM10.34 32.8956H5.37001V28.1156H10.34V32.8956ZM10.34 26.5556H5.37001V21.8756H10.34V26.5556ZM10.34 20.3056H5.37001V18.1156C5.37001 18.0456 5.76001 17.5756 5.81001 17.5756H10.35V20.3056H10.34ZM16.68 38.9356H11.9V34.3556H16.68V38.9356ZM16.68 32.8956H11.9V28.1156H16.68V32.8956ZM16.68 26.5556H11.9V21.8756H16.68V26.5556ZM16.68 20.3056H11.9V17.5756H16.68V20.3056ZM22.92 38.9356H18.14V34.3556H22.92V38.9356ZM22.92 32.8956H18.14V28.1156H22.92V32.8956ZM22.92 26.5556H18.14V21.8756H22.92V26.5556ZM22.92 20.3056H18.14V17.5756H22.92V20.3056ZM29.26 38.9356H24.48V34.3556H29.26V38.9356ZM29.26 32.8956H24.38V28.1156H29.26V32.8956ZM29.26 26.5556H24.48V21.8756H29.26V26.5556ZM29.26 20.3056H24.48V17.5756H29.26V20.3056Z" fill="#5C5B5B"/>
<path d="M49.67 38.2856C49.38 37.3456 48.35 37.3756 48.13 38.1556C48.05 38.4456 48.48 40.0156 48.49 40.5456C48.6 48.1256 38.77 51.4056 34.36 45.2156C29.09 37.8156 38.74 28.9256 45.7 34.7456C46.03 35.0256 46.8 35.9756 47.11 36.0656C47.63 36.2256 48.16 35.7356 48.07 35.2056C47.96 34.5056 45.93 32.9856 45.29 32.6156C44.75 32.3156 44.16 32.1356 43.67 31.8356C42.48 31.5356 41.32 31.4356 40.08 31.4256C40.08 31.4256 40.08 31.4256 40.07 31.4256C36.7 31.6356 33.55 33.7956 32.18 36.9156C32.01 37.2956 31.67 38.6956 31.57 38.8356C31.55 38.8656 31.42 40.3956 31.42 40.3956V41.8056C31.42 45.6156 35.87 49.5856 39.52 49.9456C40.1 50.0056 41.28 50.0056 41.86 49.9456C47.19 49.4056 51.31 43.4456 49.68 38.2756L49.67 38.2856Z" fill="#C1D13F"/>
<path d="M46.8 40.6956C46.8 44.0756 44.06 46.8156 40.68 46.8156C37.3 46.8156 34.56 44.0756 34.56 40.6956C34.56 37.3156 37.3 34.5756 40.68 34.5756C44.06 34.5756 46.8 37.3156 46.8 40.6956ZM45.28 40.6956C45.28 38.1556 43.22 36.0956 40.68 36.0956C38.14 36.0956 36.08 38.1556 36.08 40.6956C36.08 43.2356 38.14 45.2956 40.68 45.2956C43.22 45.2956 45.28 43.2356 45.28 40.6956Z" fill="#C1D13F"/>
<path d="M39.9 39.9156V37.8156C39.9 37.3356 41.16 36.9056 41.42 37.7656C41.54 38.1456 41.51 40.0756 41.47 40.5556C41.43 41.0056 41.21 41.3956 40.73 41.4756C40.21 41.5556 38.53 41.5856 38.19 41.1956C37.3 40.1556 39.11 39.6856 39.9 39.9256V39.9156Z" fill="#C1D13F"/>    
  </symbol>

  <symbol id="icono-acompanamiento" viewBox="0 0 38 51" fill="none">
<path d="M34.6499 40.25C34.9699 40.72 35.3899 42.05 35.5899 42.24C36.2399 42.86 36.9799 42.24 36.8099 41.31C36.4999 39.69 34.9699 38.13 33.6499 37.25C33.4599 34.1 34.3499 31.17 32.0199 28.62C31.0399 27.55 30.0699 27.14 28.7699 26.6C26.3099 25.58 23.7599 24.73 21.2899 23.73C21.0599 23.64 21.1299 23.38 21.1299 23.16H24.7899C25.1199 23.16 25.8399 22.44 25.9899 22.11C26.5899 20.76 25.9899 17.67 26.2099 16.08C26.2799 15.61 26.9199 14.9 26.7999 14.28H26.8099C26.7799 14.23 26.7499 14.18 26.7399 14.12C26.7399 14.1 26.7399 14.1 26.7399 14.08C26.6999 14.08 26.6199 14.06 26.5599 14.05C26.3599 14.02 26.2699 14 26.0799 13.99C25.8899 13.98 25.6699 13.97 25.5399 14C25.4199 14.03 25.4299 14.02 25.3399 14.08C25.3699 14.06 25.3099 14.13 25.3099 14.12C25.2899 14.18 25.2599 14.22 25.2299 14.27H25.2499C25.2499 15.02 24.5699 15.67 23.8299 15.74L23.8799 14.27H23.8999C23.8399 14.21 23.7999 14.15 23.7699 14.08C23.6999 14.04 23.5999 14.03 23.5099 14.01C23.3799 13.98 23.2499 13.95 23.1199 13.91C22.8799 13.85 22.5599 13.74 22.3199 13.87C22.2999 13.87 22.2899 13.87 22.2699 13.89C22.3699 14.16 22.3499 16.44 22.3199 16.85C21.9299 21.25 16.4899 23.17 13.2399 20.27C11.4299 18.66 11.3599 16.45 11.4999 14.18C14.3099 13.12 16.6199 11.13 18.6599 8.99C19.0199 9.38 19.4199 9.73 19.8499 10.04C20.4099 10.45 21.0299 10.73 21.6099 11.09C21.6399 11.06 21.6499 11.03 21.6899 11.01C21.7099 11 21.7299 10.98 21.7499 10.97C21.7499 10.97 21.7699 10.95 21.7799 10.94C21.7799 10.92 21.7999 10.91 21.8099 10.89C21.8099 10.89 21.8099 10.89 21.8099 10.88C21.8199 10.85 21.8399 10.79 21.8399 10.78C21.8699 10.68 21.8799 10.58 21.8999 10.48C21.8999 10.46 21.8999 10.46 21.8999 10.45C21.8999 10.43 21.8999 10.41 21.8999 10.38C21.8999 10.32 21.8999 10.26 21.8999 10.2C21.8999 10.07 21.8899 9.94 21.8899 9.81C21.8899 9.79 21.8799 9.76 21.8699 9.74C21.8699 9.74 21.8699 9.72 21.8699 9.71C21.8699 9.7 21.8599 9.68 21.8599 9.68C21.7799 9.53 21.6799 9.39 21.5699 9.25C21.4299 9.27 20.9099 8.92 20.7999 8.85C19.9199 8.27 19.2899 7.08 18.0899 7.45C17.7299 7.56 16.1999 9.31 15.7499 9.7C14.8699 10.48 13.7199 11.33 12.6899 11.91C12.0399 12.27 10.4699 12.8 10.1399 13.36C9.79987 13.92 9.85987 15.37 9.88987 16.04C9.97987 17.82 10.4199 19.42 11.5999 20.78L12.5299 21.66H9.44987C9.32987 21.66 9.03987 21.39 9.09987 21.23C9.31987 17.17 8.82987 12.84 9.09987 8.82C9.52987 2.62 16.6999 -0.78 21.5999 3.16C21.6399 3.12 21.6799 3.08 21.7199 3.04C21.7299 3.02 21.7499 3 21.7599 2.98C21.7899 2.93 21.8099 2.88 21.8399 2.84C21.9099 2.71 21.9999 2.6 22.0899 2.49C22.1199 2.45 22.1599 2.41 22.1899 2.37C22.1999 2.36 22.2699 2.28 22.2199 2.34C22.1699 2.39 22.2199 2.34 22.2299 2.32C22.2499 2.3 22.2599 2.27 22.2699 2.25C22.2699 2.25 22.2799 2.23 22.2899 2.22C22.2599 2.27 22.2799 2.22 22.2899 2.2C22.2899 2.19 22.2899 2.17 22.2899 2.16C22.2899 2.14 22.2799 2.12 22.2699 2.09C22.1599 1.89 22.0499 1.69 21.9699 1.48C21.9699 1.48 21.9699 1.47 21.9699 1.46H21.9599C21.8699 1.46 20.5699 0.72 20.2799 0.61C19.6699 0.37 19.2199 0.31 18.5899 0.2C18.7299 0.7 17.9099 0.59 17.9999 0.1C17.8999 0.09 17.7999 0.1 17.7099 0.1C17.6699 0.59 17.1599 0.42 17.1199 0C17.0199 0 16.9199 0 16.8299 0C16.7899 0.41 16.2899 0.59 16.2399 0.1C11.0099 0.4 7.80987 4.43 7.55987 9.53C7.36987 13.32 7.70987 17.25 7.55987 21.06C7.65987 21.84 7.79987 22.51 8.53987 22.91C8.62987 22.96 9.01987 23.16 9.06987 23.16H12.6299C12.6299 23.37 12.6999 23.64 12.4699 23.73L3.93987 27.02C1.91987 28.01 0.309873 29.98 0.129873 32.29C-0.280127 37.47 0.439873 43.17 0.129873 48.41C0.219873 49.24 0.779873 49.71 1.49987 50.02H31.2799C33.3699 49.54 35.2399 48.39 36.2599 46.46C36.5699 45.88 37.2199 44.35 36.0099 44.35C35.2999 44.35 34.8899 45.91 34.4399 46.5C31.0399 50.87 23.9199 47.64 25.0699 42.11C26.0099 37.59 32.0499 36.43 34.6399 40.27L34.6499 40.25ZM23.4799 18.52C23.7799 17.67 23.4799 17.15 24.6499 17.1V21.45C24.6499 21.45 24.3499 21.69 24.3099 21.69H21.3299C22.2799 20.73 23.0199 19.81 23.4799 18.52ZM22.5999 25.79L20.5499 30.09C20.1899 29.73 18.1999 28.62 18.0499 28.34C17.9599 28.16 20.2799 25.56 20.5499 25.16C20.8599 25.02 22.1399 25.81 22.5999 25.8V25.79ZM18.1999 30.35C18.2299 30.46 17.8399 31.12 17.7999 31.14C17.7199 31.18 16.1799 31.2 16.0299 31.16C15.9699 31.14 15.5399 30.47 15.5799 30.34C15.6099 30.23 16.8299 29.38 16.9699 29.41C17.0799 29.44 18.1899 30.26 18.2099 30.34L18.1999 30.35ZM19.5699 22.67L19.5199 24.04L16.8799 27.26L14.2199 23.87C14.1299 23.48 14.2999 23.04 14.0999 22.67C15.8799 23.24 17.7999 23.43 19.5699 22.67ZM13.0799 25.11C13.2399 25.11 13.3599 25.29 13.4699 25.4C14.2599 26.21 14.9999 27.41 15.7399 28.28L13.2199 30.09L11.1699 25.84C11.5999 25.78 12.7499 25.1 13.0799 25.11ZM7.36987 48.55V34.05C7.36987 33.38 5.90987 33.46 5.90987 34.05V48.55H1.94987C1.66987 48.55 1.56987 48.05 1.59987 47.82C1.83987 42.95 1.28987 37.8 1.59987 32.97C1.89987 28.22 6.13987 28.01 9.65987 26.47L9.89987 26.63C10.5799 27.95 11.1499 29.51 11.9099 30.77C12.1399 31.15 12.2299 31.38 12.6699 31.57C13.5899 31.95 14.0799 31.25 14.2499 31.26C14.2999 31.26 14.7699 31.97 14.7899 32.09L12.6399 45.07C12.6999 46.02 14.8799 47.64 15.3799 48.54H7.36987V48.55ZM14.2999 45.08L14.1999 44.79L16.2299 32.94L16.1499 32.63H17.4999L19.5699 44.79L19.4699 45.09L16.8799 47.87L14.2799 45.09L14.2999 45.08ZM25.9199 48.55H18.3999C19.2299 47.38 20.6999 46.45 21.1399 45.08L18.9899 32.27C18.9499 31.89 19.3099 31.62 19.4699 31.3C20.1699 31.7 20.8499 31.9 21.5199 31.3L23.9699 26.48L24.0999 26.46C25.7299 27.14 27.6199 27.64 29.1999 28.4C30.5599 29.06 32.1599 30.78 32.1599 32.37V36.62C30.7599 36.28 29.6299 36.39 28.2499 36.72C28.2699 37.44 27.4499 37.29 27.5599 36.67C27.5799 36.59 27.8399 36.61 27.8499 36.62C27.7799 35.86 27.9399 34.97 27.8499 34.23C27.7399 33.25 26.4899 33.32 26.3799 34.23C26.2599 35.26 26.4899 36.48 26.3599 37.53C25.2699 38.47 24.3399 39.49 23.8399 40.87C22.8099 43.72 23.7599 46.53 25.8899 48.54L25.9199 48.55Z" fill="#5C5B5B"/>
<path d="M18.5999 0.209985C18.7399 0.709985 17.9199 0.599985 18.0099 0.109985C18.2199 0.139985 18.3899 0.169985 18.5999 0.209985Z" fill="#5C5B5B"/>
<path d="M16.8399 0.0100098C16.7999 0.42001 16.2999 0.60001 16.2499 0.11001C16.3999 0.11001 16.5799 0.0100098 16.8399 0.0100098Z" fill="#5C5B5B"/>
<path d="M17.7199 0.11001C17.6799 0.60001 17.1699 0.43001 17.1299 0.0100098C17.3599 0.0100098 17.5299 0.0900098 17.7199 0.11001Z" fill="#5C5B5B"/>
<path d="M33.6099 41.16C33.9499 41.47 33.8999 41.98 33.5799 42.29L30.0299 45.77C29.7099 45.87 29.4299 45.84 29.1499 45.66C28.8999 45.5 27.6399 44.23 27.4299 43.96C27.1199 43.56 26.9199 43.2 27.3299 42.78C28.1699 41.92 29.0599 43.62 29.6799 44.05L32.6099 41.12C32.9099 40.88 33.3299 40.89 33.6099 41.15V41.16Z" fill="#5C5B5B"/>
<path d="M27.8799 36.63C27.9899 36.73 27.6299 36.88 28.2699 36.73C28.2899 37.45 27.4699 37.3 27.5799 36.68C27.5999 36.6 27.8599 36.62 27.8699 36.63H27.8799Z" fill="#5C5B5B"/>
<path d="M37.6499 2.5C37.5399 1.56 36.8699 0.969998 35.9399 0.889998C34.4199 0.749998 32.6399 0.959998 31.0999 0.939998C30.5499 1.1 30.4399 1.9 30.8399 2.23C30.8799 2.27 31.3199 2.45 31.3499 2.45H36.0399C36.0399 2.45 36.1899 2.59 36.1899 2.6V12.56C36.1899 12.85 35.4599 12.79 35.2799 12.82C34.5699 12.98 34.5699 14.02 34.2899 14.56C33.8999 15.32 33.1299 15.86 32.3299 16.12L32.8699 15.09C33.1899 14.33 33.6499 13.32 32.6799 12.84L23.2999 12.75C23.2999 12.75 23.0999 12.57 23.0999 12.56V2.6C23.0999 2.6 23.2399 2.45 23.2499 2.45H27.9399C27.9399 2.45 28.3999 2.26 28.4499 2.23C28.8799 1.88 28.6799 1.03 28.1199 0.909998C26.5799 0.989998 24.7699 0.729998 23.2599 0.889998C22.7699 0.939998 22.2299 1.4 22.0399 1.46C21.9399 1.59 21.8599 1.74 21.7899 1.89C21.7899 1.9 21.7899 1.91 21.7799 1.93C21.7599 1.97 21.7499 2.01 21.7399 2.05C21.7099 2.13 21.6899 2.22 21.6699 2.3C21.6699 2.34 21.6499 2.39 21.6499 2.43C21.6499 2.44 21.6499 2.45 21.6499 2.46C21.6499 2.54 21.6299 2.63 21.6299 2.71C21.6299 2.8 21.6299 2.88 21.6299 2.97C21.6299 3.01 21.6299 3.06 21.6299 3.1C21.6299 3.12 21.6299 3.16 21.6299 3.18C21.6299 3.18 21.6299 3.18 21.6399 3.18V9.28V11.27C21.6499 11.49 21.6399 11.71 21.6399 11.93V12.57C21.6599 12.85 21.7199 13.12 21.8699 13.39C21.9799 13.57 22.2199 13.75 22.2699 13.87V13.89C22.2899 13.9 22.3099 13.91 22.3299 13.93C22.3299 13.94 22.3499 13.95 22.3599 13.96C22.3899 13.98 22.4199 14 22.4499 14.01C22.4599 14.01 22.4699 14.01 22.4799 14.02C22.5199 14.03 22.5599 14.04 22.5999 14.06C22.7699 14.1 22.9299 14.13 23.0999 14.16C23.1399 14.16 23.1799 14.17 23.2199 14.18C23.2399 14.18 23.2599 14.18 23.2799 14.18C23.2299 14.17 23.1899 14.17 23.2599 14.18C23.3599 14.19 23.4599 14.2 23.5599 14.21C23.6899 14.22 23.8199 14.24 23.9499 14.26H25.2399C25.2399 14.26 26.7999 14.27 26.7999 14.26H31.5899C31.2999 15.03 30.2899 15.62 30.3599 16.51C30.4099 17.04 30.8999 17.61 31.4399 17.68C32.8899 17.86 34.6099 16.86 35.3799 15.66C35.5499 15.39 35.9399 14.32 35.9999 14.28C36.0599 14.24 36.4899 14.19 36.7199 14.07C37.2899 13.78 37.5899 13.28 37.6499 12.66C37.9299 9.42 37.4299 5.78 37.6499 2.5Z" fill="#C1D13F"/>
<path d="M33.9999 8.17999C33.8899 8.29999 33.6599 8.38999 33.4999 8.40999C31.0099 8.17999 27.9999 8.70999 25.5799 8.40999C24.6399 8.28999 24.5599 6.97999 25.7799 6.83999C28.1099 6.57999 30.9199 7.03999 33.2999 6.83999C34.0099 6.85999 34.5399 7.58999 33.9999 8.17999Z" fill="#C1D13F"/>
<path d="M33.9999 10.92C33.8899 11.04 33.6599 11.13 33.4999 11.15C31.0099 10.92 27.9999 11.45 25.5799 11.15C24.6399 11.03 24.5599 9.71998 25.7799 9.57998C28.1099 9.31998 30.9199 9.77998 33.2999 9.57998C34.0099 9.59998 34.5399 10.33 33.9999 10.92Z" fill="#C1D13F"/>
<path d="M33.9999 5.45001C33.8599 5.59001 33.5099 5.66001 33.2999 5.68001C30.8499 5.90001 28.0599 5.50001 25.5799 5.68001C24.6399 5.56001 24.5599 4.25001 25.7799 4.11001C28.1099 3.85001 30.9199 4.31001 33.2999 4.11001C33.9999 4.10001 34.5499 4.91001 34.0099 5.45001H33.9999Z" fill="#C1D13F"/>    
  </symbol>

  <symbol id="icono-sesiones" viewBox="0 0 52 51" fill="none">
    <path d="M26.22 10.4139C26.61 10.7639 26.41 11.5839 26.46 11.6439C26.73 11.9039 29.73 11.0439 29.71 12.4339V25.7639C29.54 27.3039 27.8 26.1439 26.96 25.8939C23.91 24.9739 21.37 25.4939 18.62 26.9539C18.19 27.1839 17.15 28.0139 16.76 27.9939C16.37 27.9739 14.54 26.7039 13.93 26.4339C11.64 25.4139 9.39 25.1539 6.95 25.7939C6.2 25.9939 4.35 27.1239 3.94 26.1339L3.88 12.5339C3.95 11.0639 6.05 11.8339 7.04 11.6439C6.88 10.3439 7.91001 10.0939 8.93001 9.80388C11.73 9.01388 14.33 9.55388 16.75 11.0839C18.58 10.0039 20.68 9.27388 22.84 9.44388C23.5 9.49388 25.77 10.0139 26.22 10.4239V10.4139ZM15.97 21.4139V12.5439C13.88 11.0139 11.16 10.7239 8.72001 11.5439V20.6839C10.48 20.1339 12.39 20.0939 14.16 20.6539C14.79 20.8539 15.35 21.2139 15.97 21.4139ZM24.89 11.5439C22.43 10.7439 19.73 10.9739 17.64 12.5439V21.2639C17.64 21.2639 17.37 21.4439 17.69 21.4239C19.87 20.1739 22.49 19.9239 24.89 20.6939V11.5539V11.5439ZM7.04 13.3239H5.46V24.5639C8.18001 23.5739 10.96 23.5939 13.68 24.5939C14.79 25.0039 15.78 25.6439 16.85 26.1439C20.14 23.9639 24.27 23.0739 28.04 24.5639V13.3239H26.46V22.1939C26.46 22.1939 26.09 22.5839 26.04 22.6139C25.55 22.8339 24.02 22.0839 23.34 21.9639C21.42 21.6239 19.88 22.0739 18.2 22.9639C17.76 23.1939 17.21 23.7439 16.75 23.7239C16.4 23.7039 15.09 22.7739 14.56 22.5439C13.17 21.9439 11.87 21.7039 10.36 21.9439C9.47 22.0839 8.77 22.4339 7.93 22.6739C7.51 22.7839 7.04 22.2139 7.04 21.8739V13.3139V13.3239Z" fill="#5C5B5B"/>
    <path d="M10.05 17.4439C10.57 17.3239 13.96 17.3339 14.54 17.4239C15.52 17.5839 15.5 18.9439 14.54 19.0939C13.85 19.2039 10.83 19.2039 10.14 19.0939C9.21001 18.9439 9.19001 17.6339 10.05 17.4439Z" fill="#5C5B5B"/>
    <path d="M10.16 13.0338C10.83 12.9138 13.85 12.9138 14.52 13.0338C15.56 13.2238 15.48 14.5338 14.54 14.6838C13.96 14.7738 10.58 14.7838 10.05 14.6638C9.21999 14.4738 9.15999 13.2138 10.16 13.0338Z" fill="#5C5B5B"/>
    <path d="M10.16 15.2439C10.83 15.1239 13.85 15.1239 14.52 15.2439C15.56 15.4339 15.48 16.7439 14.54 16.8939C13.96 16.9839 10.58 16.9939 10.05 16.8739C9.21999 16.6839 9.15999 15.4239 10.16 15.2439Z" fill="#5C5B5B"/>
    <path d="M18.77 15.2339C19.3 15.1139 22.66 15.1339 23.24 15.2339C24.25 15.4139 24.15 16.7439 23.26 16.8839C22.67 16.9739 19.3 16.9839 18.77 16.8639C17.88 16.6639 17.87 15.4339 18.77 15.2239V15.2339Z" fill="#5C5B5B"/>
    <path d="M18.88 13.0338C19.55 12.9138 22.57 12.9138 23.24 13.0338C24.25 13.2138 24.15 14.5438 23.26 14.6838C22.67 14.7738 19.3 14.7838 18.77 14.6638C17.87 14.4638 17.83 13.2238 18.88 13.0338Z" fill="#5C5B5B"/>
    <path d="M18.77 17.4439C19.3 17.3239 22.66 17.3439 23.24 17.4439C24.23 17.6239 24.23 18.9439 23.15 19.0939C22.51 19.1839 19.34 19.2039 18.77 19.0839C17.88 18.8839 17.87 17.6539 18.77 17.4439Z" fill="#5C5B5B"/>
    <path d="M25.73 42.5739V42.6739C26.13 42.1739 26.44 41.6039 26.64 40.9939C26.82 40.4439 27.07 39.9339 27.31 39.4039C27.48 39.0139 27.58 38.5939 27.81 38.2439C27.72 38.2839 27.61 38.3239 27.46 38.3339C26.98 38.3839 25.28 38.4239 25 38.0539C24.16 36.9439 25.71 35.5639 25.41 34.4439H35.34C35.34 34.4439 35.36 34.3939 35.37 34.3739C35.37 34.3439 35.39 34.3139 35.4 34.2839C35.4 34.2839 35.4 34.2639 35.4 34.2439C35.39 34.3039 35.4 34.2039 35.4 34.1939C35.4 34.1739 35.4 34.1939 35.4 34.1839C35.4 34.1439 35.37 34.0639 35.36 34.0339C35.36 34.0239 35.33 33.9739 35.33 33.9439C35.31 33.8939 35.28 33.8539 35.25 33.8039C35.24 33.7839 35.22 33.7539 35.2 33.7339C35.16 33.6739 35.17 33.7139 35.2 33.7339C35.16 33.7039 35.12 33.6439 35.09 33.6039C35.01 33.5239 34.93 33.4439 34.84 33.3639C34.82 33.3439 34.8 33.3239 34.77 33.3139C34.73 33.2739 34.68 33.2439 34.64 33.2139C34.55 33.1439 34.45 33.0839 34.36 33.0139C34.3 32.9739 34.25 32.9139 34.21 32.8539H2.37C1.7 32.8539 1.36 30.7539 1.74 30.7539H33.05C33.05 30.7539 33.05 30.7539 33.05 30.7439C33.09 30.7039 33.14 30.6539 33.18 30.6139C33.18 30.6139 33.18 30.6039 33.19 30.5939C33.2 30.5739 33.22 30.5539 33.22 30.5439C33.24 30.5039 33.27 30.4639 33.29 30.4239C33.29 30.4039 33.3 30.3939 33.31 30.3839C33.32 30.3439 33.33 30.3139 33.34 30.2739C33.34 30.2539 33.34 30.2439 33.34 30.2239C33.34 30.1839 33.34 30.1439 33.34 30.1039C33.34 30.1039 33.34 30.0939 33.34 30.0839C33.32 29.9939 33.3 29.9039 33.26 29.8239C33.26 29.8239 33.26 29.8239 33.26 29.8139C33.26 29.8139 33.26 29.8239 33.27 29.8339C33.26 29.8139 33.25 29.7939 33.24 29.7739C33.22 29.7339 33.2 29.6939 33.18 29.6439C33.09 29.4739 32.98 29.3139 32.88 29.1539V29.1739H1.58V4.34389C1.58 4.22389 1.96 3.66389 2.05 3.66389H31.61C29.71 6.91389 30.43 11.0439 33.35 13.4239C35.14 14.8939 37.43 15.3539 39.7 15.0039V18.2239C39.76 18.2439 39.81 18.2839 39.85 18.3339C39.87 18.3539 39.89 18.3739 39.91 18.4039C39.91 18.4039 39.91 18.4039 39.92 18.4139C39.95 18.4339 39.99 18.4539 40.01 18.4739C40.03 18.4739 40.05 18.4839 40.07 18.4939C40.09 18.4939 40.11 18.4939 40.12 18.5039C40.16 18.5039 40.2 18.5039 40.24 18.5039C40.26 18.5039 40.28 18.5039 40.3 18.5039C40.4 18.4839 40.49 18.4639 40.59 18.4239C40.59 18.4239 40.59 18.4239 40.6 18.4239C40.58 18.4239 40.64 18.4039 40.65 18.4039C40.7 18.3839 40.75 18.3539 40.8 18.3239C40.85 18.2939 40.9 18.2639 40.94 18.2339C40.96 18.2239 40.98 18.2039 41 18.1939C41.07 18.1439 41 18.1739 40.98 18.2039C41.01 18.1639 41.07 18.1339 41.1 18.0939C41.14 18.0539 41.18 18.0239 41.21 17.9839C41.22 17.9739 41.23 17.9639 41.24 17.9539V14.3839C46.57 12.0039 47.19 4.58389 42.3 1.29389C39.38 -0.666112 35.49 -0.386112 32.94 2.04389L1.54 2.14389C0.68 2.49389 0.04 3.23389 0 4.23389L0.03 32.1439C0.3 33.2039 0.92 34.1939 2.06 34.4139L15.76 34.4639C15.88 35.5139 17.51 38.0839 15.6 38.3039C14.1 38.4739 11.78 37.7139 11.01 39.4939C10.79 40.0039 10.64 41.8139 11.06 42.1639C11.11 42.2039 11.58 42.4039 11.61 42.4039H25.84C25.87 42.4839 25.74 42.5339 25.74 42.5639L25.73 42.5739ZM38.12 1.62389C41.39 1.62389 44.04 4.27389 44.04 7.54389C44.04 10.8139 41.39 13.4639 38.12 13.4639C34.85 13.4639 32.2 10.8139 32.2 7.54389C32.2 4.27389 34.85 1.62389 38.12 1.62389ZM12.4 40.7339C12.37 40.4039 12.47 40.0539 12.81 39.9439C13.55 39.7039 15.22 40.0039 16.12 39.8839C17.57 39.6939 18.26 38.2339 18.18 36.8939C18.13 36.0539 17.62 35.2139 17.34 34.4339H23.85C23.92 35.0539 23.45 35.5839 23.29 36.1339C22.95 37.3339 23.23 38.8439 24.34 39.5639C24.43 39.6239 25.01 39.8939 25.06 39.8939H26.58C26.53 40.0139 26.31 40.7339 26.26 40.7339H12.4Z" fill="#5C5B5B"/>
    <path d="M35.68 3.47389C35.91 3.44389 35.97 3.49389 36.17 3.57389C37.98 4.28389 39.98 6.06389 41.84 6.83389C42.34 7.15389 42.37 7.86389 41.9 8.23389C40.08 9.14389 38.32 10.4539 36.51 11.3539C35.73 11.7339 35.06 11.8439 34.96 10.7639C34.77 8.66389 35.11 6.27389 34.97 4.15389C35.02 3.78389 35.31 3.53389 35.67 3.48389L35.68 3.47389ZM36.55 5.66389V9.34389C36.67 9.36389 36.75 9.32389 36.86 9.28389C37.4 9.07389 38.92 8.14389 39.46 7.78389C39.58 7.70389 39.71 7.69389 39.7 7.50389C39.69 7.31389 36.88 6.00389 36.55 5.66389Z" fill="#5C5B5B"/>
    <path d="M51.3 41.1638C50.57 38.8338 48.73 37.0738 46.48 36.2238C45.91 36.0038 42.06 35.0238 42.01 34.7938C41.98 34.6838 41.99 33.9138 42.04 33.8338C42.08 33.7638 42.98 33.0538 43.18 32.8138C43.86 32.0038 44.45 30.8338 44.54 29.7638C44.59 29.2338 44.47 28.6238 44.57 28.1138C44.69 27.4638 45.29 26.3238 45.52 25.5938C45.98 24.0838 46.58 21.6738 46.07 20.1638C45.52 18.5338 42.9 17.4838 41.29 17.9538L39.71 18.2738C35.11 15.3438 29.41 20.0638 31.36 25.2038C31.86 26.5238 33.02 27.7338 32.88 29.1938L33.09 30.7738C33.29 31.5638 33.75 32.2438 34.25 32.8738L35.41 34.4538L35.35 34.8838C32.96 35.7338 30.71 36.1938 28.54 37.6038C27.28 38.4238 26.59 39.9138 26.59 39.9138C26.54 40.0338 26.32 40.7538 26.27 40.7538L25.85 42.4338C25.88 42.5138 25.75 42.5638 25.75 42.5938V49.4238C25.75 49.6638 26.35 50.1038 26.64 50.0038C34.84 49.9438 43.06 50.1038 51.24 49.9238C51.6 49.7338 51.66 49.4838 51.69 49.1138C51.86 47.2538 51.85 42.8938 51.31 41.1838L51.3 41.1638ZM33.98 26.8738C33.89 26.7838 33.06 25.0938 32.96 24.8438C31.96 22.3038 33.31 19.4038 36.1 19.0238C36.73 18.9338 37.28 18.9938 37.89 19.1738C39.01 19.5238 39.75 20.6238 41.03 20.0638C41.62 19.8038 41.59 19.3538 42.36 19.4238C42.8 19.4638 44.1 20.0338 44.36 20.3638C45.05 21.2238 44.24 24.1338 43.92 25.1638C43.83 25.4438 43.29 27.0638 43.16 27.1338C42.68 27.4238 41.61 25.8738 41.42 25.4938C41.16 24.9538 40.85 23.4138 40.46 23.1938C39.51 22.6538 39.38 23.5538 39.04 24.0538C38.19 25.2838 36.82 26.0338 35.44 26.5438C35.13 26.6538 34.18 27.0638 33.97 26.8638L33.98 26.8738ZM34.46 28.5638C36.39 28.0438 38.39 27.2238 39.75 25.7138C40.37 27.0938 41.32 28.5538 42.94 28.7738C42.94 34.8838 34.16 34.6738 34.46 28.5638ZM36.97 34.6438C38.06 34.9538 39.25 35.0238 40.33 34.6438C40.35 35.0238 40.26 35.4038 40.41 35.7738C40.56 36.1538 41.22 36.2638 41.17 36.4838C41.16 36.5338 40.58 37.0938 40.49 37.1638C39.5 37.9238 38.18 38.0438 37.09 37.4238C36.88 37.3038 36.11 36.6538 36.03 36.4838C35.95 36.2938 36.11 36.3438 36.17 36.3138C37.03 35.9338 37.27 35.6638 36.97 34.6438ZM50.1 48.2938H47.58V44.0438C47.58 43.7938 47.07 43.4638 46.79 43.4638C46.51 43.4638 46 43.8038 46 44.0438V48.2938H31.4V44.0438C31.4 43.7838 30.86 43.4838 30.6 43.4738C30.38 43.4738 29.82 43.7938 29.82 43.9438V48.3038H27.3C27.41 46.6238 27.15 44.7538 27.3 43.1038C27.46 41.4238 28.46 39.5638 29.83 38.5938C31.19 37.6338 32.85 37.4138 34.38 36.8438C36.13 40.2438 41.02 40.3038 42.76 36.8638L42.9 36.8338C45.2 37.5038 47.59 37.9538 49.01 40.0838C49.57 40.9238 50.1 42.3938 50.1 43.4038V48.2838V48.2938Z" fill="#C1D13F"/>
  </symbol>

  <symbol id="icono-constancia" viewBox="0 0 41 50" fill="none">
<path d="M37.81 0C37.94 0.23 38.4 0.09 38.47 0.13C38.6 0.19 39.59 1.11 39.7 1.28C40.14 1.9 40.15 2.55 40.25 3.27C40.15 18.13 40.43 33.02 40.11 47.86C39.77 48.97 38.75 49.9 37.57 50.01L2.35998 49.96C0.849977 49.55 0.0199772 48.27 0.0199772 46.74C0.119977 31.87 -0.160023 16.98 0.159977 2.14C0.489977 1.06 1.38998 0.29 2.45998 0H37.81ZM2.72998 1.59C2.22998 1.69 1.89998 1.97 1.72998 2.44V47.56C1.90998 48.09 2.43998 48.42 2.99998 48.44C14.56 48.39 26.15 48.53 37.7 48.37C38.07 48.22 38.38 48.01 38.52 47.63C38.66 32.59 38.61 17.49 38.55 2.44C38.33 1.84 37.9 1.62 37.28 1.56L2.72998 1.59Z" fill="#5C5B5B"/>
<path d="M7.99998 4.31995H32.18C33.11 4.43995 32.86 5.15995 33.1 5.82995C33.37 6.57995 33.94 6.96995 34.68 7.17995C35.32 7.35995 35.77 7.08995 35.86 8.04995V42.0399C35.73 43.0999 34.27 42.5299 33.46 43.5499C32.78 44.4099 33.26 45.6799 32 45.6999H8.08998C7.11998 45.5499 7.43998 44.7199 7.12998 44.0099C6.92998 43.5499 6.37998 43.0399 5.90998 42.8899C5.17998 42.6599 4.50998 42.9699 4.41998 41.9399V7.86995C4.57998 7.05995 5.37998 7.29995 5.97998 7.07995C6.41998 6.91995 6.93998 6.40995 7.12998 5.97995C7.40998 5.34995 7.15998 4.44995 8.00998 4.31995H7.99998ZM31.45 5.86995L8.86998 5.84995C8.40998 7.24995 7.47998 8.37995 5.98998 8.69995L5.96998 41.2399C7.37998 41.6699 8.46998 42.6599 8.81998 44.1199L31.4 44.1399C31.89 42.7299 32.78 41.6399 34.28 41.2899L34.3 8.74995C32.86 8.29995 31.85 7.33995 31.45 5.86995Z" fill="#5C5B5B"/>
<path d="M32.25 33.29H8.02002V34.86H32.25V33.29Z" fill="#5C5B5B"/>
<path d="M10.25 36.93L29.86 36.91C30.9 37.03 30.66 38.49 29.66 38.47H10.71C9.71001 38.5 9.30001 37.36 10.25 36.93Z" fill="#5C5B5B"/>
<path d="M11.71 40.4501L28.39 40.4301C29.31 40.4701 29.41 41.8801 28.49 42.0001H11.78C10.95 41.8901 10.91 40.6901 11.71 40.4501Z" fill="#5C5B5B"/>
<path d="M19.24 7.84005C27.12 7.07005 31.23 16.5 25.61 21.92V30.71C25.53 31.36 25.05 31.6 24.44 31.39L20.18 28.12L19.95 28.18L15.82 31.37C15.36 31.58 14.84 31.38 14.7 30.89L14.68 21.93C9.64998 17.27 12.36 8.52005 19.25 7.85005L19.24 7.84005ZM26.65 15.88C26.65 12.29 23.74 9.37005 20.14 9.37005C16.54 9.37005 13.63 12.28 13.63 15.88C13.63 19.48 16.54 22.39 20.14 22.39C23.74 22.39 26.65 19.48 26.65 15.88ZM16.23 22.95V29C16.42 29.01 16.56 28.85 16.71 28.75C17.6 28.11 18.41 27.33 19.33 26.74L19.35 23.93C18.25 23.86 17.19 23.48 16.23 22.95ZM24.04 29.1V22.95C23.08 23.47 22.02 23.85 20.92 23.93L20.94 26.74L24.04 29.1Z" fill="#C1D13F"/>
<path d="M19.92 10.9601C20.23 10.8901 20.51 10.9601 20.73 11.1801C21.09 11.5601 21.61 13.2201 21.9 13.4201C22.53 13.8501 25.06 13.3201 24.92 14.6801C24.86 15.2601 23.06 16.4901 22.99 16.8501C22.87 17.4601 23.91 19.6601 22.97 19.9701C21.97 20.3001 20.72 18.7401 19.87 19.0101C19.07 19.2701 18.16 20.2501 17.3 19.9701C16.37 19.6601 17.4 17.4601 17.28 16.8501C17.21 16.4901 15.41 15.2701 15.35 14.6801C15.21 13.3201 17.73 13.8501 18.37 13.4201C18.81 13.1201 19.19 11.1101 19.91 10.9501L19.92 10.9601ZM20.23 13.5701C20 13.5201 20.07 13.6001 20.01 13.7001C19.79 14.0401 19.68 14.6101 19.3 14.8501C18.92 15.0901 18.31 15.0201 17.88 15.1401C18.86 16.0501 19.09 16.4001 18.76 17.7801C18.84 17.8701 19.85 17.2101 20.09 17.2001C20.4 17.1801 21.41 17.8801 21.5 17.7801C21.17 16.4101 21.4 16.0601 22.38 15.1401C21.16 15.0901 20.55 14.8001 20.23 13.5801V13.5701Z" fill="#C1D13F"/>    
  </symbol>

  <symbol id="icono-instrucciones" viewBox="0 0 37 37" fill="none">
<path d="M34.2488 17.161H32.7153V2.15765C32.7153 1.94188 32.3377 1.62594 32.1296 1.572L2.44655 1.53347C2.07666 1.49494 1.53725 1.84941 1.53725 2.227V21.0294H12.4873V22.5629H1.54496V25.0827C1.54496 25.2445 1.96878 25.7069 2.16914 25.7069H12.5027C12.6106 26.5699 12.3949 27.3328 12.2947 28.165C12.1406 29.4134 11.9479 30.6617 11.8477 31.9178H17.211C17.211 31.9178 17.5193 32.0488 17.5655 32.0719C18.2359 32.488 17.9046 33.4667 17.134 33.5129C14.5602 33.3588 11.7167 33.7364 9.1815 33.5206C8.54191 33.4667 8.01791 33.1507 8.25679 32.4418C8.49567 31.7329 9.63614 31.964 10.2372 31.9024L10.8306 27.2403H1.86861C1.04408 27.2403 -0.0732788 25.8533 0.00378015 25.0133V2.227C0.119369 1.00177 0.99784 0.107882 2.23078 0H32.0218C32.8155 0.069353 33.5398 0.439236 33.9405 1.14818C34.0022 1.24835 34.2488 1.80318 34.2488 1.86483V17.161Z" fill="#5C5B5B"/>
<path d="M28.847 24.2427L28.9164 24.4276L36.7302 32.2414C36.9614 32.5727 37.0461 32.827 36.8072 33.1892L33.3396 36.6569C33.1315 36.8495 32.8233 36.8341 32.569 36.7724L24.4316 28.7044L21.511 34.4684C21.1489 34.8614 20.5324 34.8074 20.2473 34.3528L11.9172 12.5451C12.002 12.0134 12.4797 11.7052 13.0114 11.8824L34.5417 20.2125C34.9578 20.5284 34.9193 21.1064 34.5417 21.4454L28.847 24.2581V24.2427ZM32.1375 20.9522L14.1057 13.9476L20.9716 31.9794L23.5377 26.9937C23.8536 26.5544 24.3468 26.4697 24.7706 26.8318L32.9081 34.9076L34.9963 32.8964L35.0349 32.7114L26.9283 24.6048C26.6123 24.2735 26.6894 23.6724 27.0901 23.449L32.1529 20.9522H32.1375Z" fill="#C1D13F"/>
<path d="M8.89636 14.4022C9.55136 14.3405 9.93666 15.1111 9.57448 15.6659C9.42036 15.8971 7.2473 18.0702 7.01612 18.2166C6.24553 18.7175 5.421 17.9006 5.92189 17.1223C6.09142 16.8603 8.1566 14.8029 8.44171 14.6025C8.5573 14.5178 8.75765 14.4099 8.89636 14.4022Z" fill="#C1D13F"/>
<path d="M17.4268 5.95656C18.1281 5.95656 18.3824 6.67321 18.0048 7.22803C17.8198 7.49774 15.747 9.57833 15.485 9.74786C14.6913 10.2564 13.9438 9.47815 14.3599 8.69215C15.1998 8.03715 16.0783 6.70403 16.9106 6.13379C17.0647 6.02591 17.2342 5.94885 17.4191 5.94885L17.4268 5.95656Z" fill="#C1D13F"/>
<path d="M6.26872 6.00285C6.51531 5.94891 6.80043 5.96432 7.0162 6.10303C7.29361 6.28026 9.27402 8.26838 9.5052 8.58433C10.0986 9.40115 9.32026 10.3027 8.48802 9.74791C7.65578 9.19309 6.73878 7.82144 5.89114 7.15873C5.62143 6.81197 5.8449 6.10303 6.26872 6.01056V6.00285Z" fill="#C1D13F"/>
<path d="M4.08019 11.4047H7.91772C8.68831 11.6513 8.64208 12.7917 7.85608 12.915C6.76184 13.0923 5.22066 12.8071 4.08019 12.9073C3.31731 12.5914 3.31731 11.7206 4.08019 11.4047Z" fill="#C1D13F"/>
<path d="M11.424 8.44582C11.293 8.31482 11.2005 8.03741 11.1774 7.85247C11.0926 7.12041 11.1003 5.23247 11.1851 4.50041C11.3084 3.46782 12.5876 3.50634 12.7031 4.27693C12.7956 4.84717 12.7956 7.49029 12.7031 8.06823C12.6107 8.64618 11.8247 8.84653 11.4163 8.44582H11.424Z" fill="#C1D13F"/>    
  </symbol>
  
</svg>